<svg preserveAspectRatio="none" width="414" height="1203" viewBox="0 0 414 1203" fill="none" xmlns="http://www.w3.org/2000/svg">
<g clip-path="url(#clip0)">
<path d="M-86.9695 0H509.899V729L-86.9695 510.613V0Z" fill="url(#paint0_linear)"/>
<rect x="-93.0103" y="319.989" width="596.885" height="1.2307" fill="#436777"/>
<rect x="-93.0103" y="107.082" width="596.885" height="1.23068" fill="#436777"/>
<rect x="-93.0103" y="249.02" width="596.885" height="1.23067" fill="#436777"/>
<rect x="-93.0103" y="178.051" width="596.885" height="1.23063" fill="#436777"/>
<rect x="3.9834" y="562.842" width="500.474" height="1.24353" transform="rotate(-90 3.9834 562.842)" fill="url(#paint1_linear)"/>
<rect x="271.951" y="447.236" width="384.9" height="0.999756" transform="rotate(-90 271.951 447.236)" fill="url(#paint2_linear)"/>
<rect x="405.922" y="371.047" width="308.712" height="0.999756" transform="rotate(-90 405.922 371.047)" fill="url(#paint3_linear)"/>
<rect x="137.868" y="566.124" width="503.756" height="1.24347" transform="rotate(-90 137.868 566.124)" fill="url(#paint4_linear)"/>
<rect x="-93.0098" y="5.75659" width="596.885" height="56.2008" fill="#BAB69C"/>
<mask id="mask0" mask-type="alpha" maskUnits="userSpaceOnUse" x="-94" y="5" width="598" height="57">
<rect x="-93.0098" y="5.75659" width="596.885" height="56.2008" fill="#7769C1"/>
</mask>
<g mask="url(#mask0)">
<rect x="-15.0835" y="43.0874" width="89.1182" height="1.2307" fill="#436777"/>
<rect width="89.5328" height="1.2307" transform="matrix(-1 0 0 1 424.29 43.0874)" fill="#436777"/>
<rect x="161.909" y="43.0874" width="86.6312" height="1.2307" fill="#A2FEF6"/>
<rect width="104.647" height="1.23482" transform="matrix(0.826316 0.563207 -0.571191 0.820818 -73.4482 3.13232)" fill="#436777"/>
<rect width="104.647" height="1.23482" transform="matrix(-0.826316 0.563207 0.571191 0.820817 482.471 3.01196)" fill="#436777"/>
<rect width="89.4785" height="1.06058" transform="matrix(0.683423 0.730022 -0.737054 0.675834 31.3511 -2.73779)" fill="#436777"/>
<rect width="89.4785" height="1.06058" transform="matrix(-0.683423 0.730023 0.737053 0.675835 377.671 -2.85815)" fill="#436777"/>
<rect width="78.2668" height="0.934982" transform="matrix(0.2948 0.955559 -0.957645 0.287952 144.983 -12.5669)" fill="#436777"/>
<rect width="78.2667" height="0.93498" transform="matrix(-0.294799 0.955559 0.957645 0.287953 265.343 -12.7036)" fill="#436777"/>
</g>
<path d="M503.875 44.3179H424.083L317.555 116.517H408.539L503.875 44.3179Z" fill="url(#paint5_linear)"/>
<path d="M-95 44.3179H-15.2081L91.3193 116.517H0.335788L-95 44.3179Z" fill="url(#paint6_linear)"/>
<path d="M162.487 44.3179H247.793L224.914 116.517H184.707L162.487 44.3179Z" fill="url(#paint7_linear)"/>
<path d="M465.904 994H-62.4668V500L465.904 711.575V994Z" fill="white"/>
<path d="M465.904 994H-62.4668V500L465.904 711.575V994Z" fill="url(#paint8_linear)"/>
<path fill-rule="evenodd" clip-rule="evenodd" d="M6.13185 993.111L6.13184 525.766L6.94847 525.766L6.94848 993.111L6.13185 993.111Z" fill="#E0D3BF" fill-opacity="0.2"/>
<path fill-rule="evenodd" clip-rule="evenodd" d="M138.429 993.111L138.429 560.417L139.245 560.417L139.245 993.111L138.429 993.111Z" fill="#E0D3BF" fill-opacity="0.2"/>
<path fill-rule="evenodd" clip-rule="evenodd" d="M271.542 993.112L271.542 597.734L272.359 597.734L272.359 993.112L271.542 993.112Z" fill="#E0D3BF" fill-opacity="0.2"/>
<path fill-rule="evenodd" clip-rule="evenodd" d="M403.839 993.112L403.839 662.594L405.473 662.594L405.473 993.112L403.839 993.112Z" fill="#E0D3BF" fill-opacity="0.2"/>
<path fill-rule="evenodd" clip-rule="evenodd" d="M476.521 746.111L-68.1836 746.111V744.334L476.521 744.334V746.111Z" fill="#E0D3BF" fill-opacity="0.2"/>
<path fill-rule="evenodd" clip-rule="evenodd" d="M476.521 667.925L-68.1836 667.925V666.148L476.521 666.148V667.925Z" fill="#E0D3BF" fill-opacity="0.2"/>
<path fill-rule="evenodd" clip-rule="evenodd" d="M262.559 589.737L-68.1836 589.737V588.849L262.559 588.849V589.737Z" fill="#E0D3BF" fill-opacity="0.2"/>
<path fill-rule="evenodd" clip-rule="evenodd" d="M657 901.597L-23.2676 901.597V900.708L657 900.708V901.597Z" fill="#E0D3BF" fill-opacity="0.2"/>
<path fill-rule="evenodd" clip-rule="evenodd" d="M412.006 823.41L-23.2676 823.41V822.521L412.006 822.521V823.41Z" fill="#E0D3BF" fill-opacity="0.2"/>
<path fill-rule="evenodd" clip-rule="evenodd" d="M5.31496 992.223L5.31494 523.989L6.13157 523.989L6.13159 992.223L5.31496 992.223Z" fill="url(#paint9_linear)" fill-opacity="0.4"/>
<path fill-rule="evenodd" clip-rule="evenodd" d="M137.612 992.223L137.612 558.64L139.245 558.64L139.245 992.223L137.612 992.223Z" fill="url(#paint10_linear)" fill-opacity="0.3"/>
<path fill-rule="evenodd" clip-rule="evenodd" d="M270.726 992.223L270.726 595.957L271.542 595.957L271.542 992.223L270.726 992.223Z" fill="url(#paint11_linear)" fill-opacity="0.3"/>
<path fill-rule="evenodd" clip-rule="evenodd" d="M403.022 992.223L403.022 660.816L404.656 660.816L404.656 992.223L403.022 992.223Z" fill="url(#paint12_linear)" fill-opacity="0.3"/>
<path fill-rule="evenodd" clip-rule="evenodd" d="M475.704 744.334L-69 744.334V742.557L475.704 742.557V744.334Z" fill="url(#paint13_linear)" fill-opacity="0.3"/>
<path fill-rule="evenodd" clip-rule="evenodd" d="M475.704 666.147L-69 666.147V665.259L475.704 665.259V666.147Z" fill="url(#paint14_linear)" fill-opacity="0.3"/>
<path fill-rule="evenodd" clip-rule="evenodd" d="M261.742 587.96L-69 587.96V587.072L261.742 587.072V587.96Z" fill="url(#paint15_linear)" fill-opacity="0.4"/>
<path fill-rule="evenodd" clip-rule="evenodd" d="M656.183 900.708L-24.0845 900.708V898.932L656.183 898.932V900.708Z" fill="url(#paint16_linear)" fill-opacity="0.3"/>
<path fill-rule="evenodd" clip-rule="evenodd" d="M414.455 822.521L-24.0845 822.521V820.745L414.455 820.745V822.521Z" fill="url(#paint17_linear)" fill-opacity="0.3"/>
<path d="M190.849 938.064C190.849 938.064 176.895 959.141 179.048 965.673C181.211 972.188 168.639 974.068 166.987 960.679C165.335 947.289 172.01 933.82 172.01 933.82C172.01 933.82 175.702 924.038 190.849 938.064Z" fill="#F0F0F0"/>
<path d="M207.97 889.101C206.608 884.696 203.84 880.703 198.7 878.904C193.867 877.217 188.419 877.611 183.367 878.079C181.983 878.21 181.961 880.085 183.367 879.954C187.936 879.541 192.791 879.129 197.228 880.422C202.083 881.847 204.609 885.54 205.861 889.588C206.213 890.769 208.322 890.263 207.97 889.101Z" fill="#E5E5E5"/>
<path d="M250.302 938.231C268.535 963.724 234.551 982.657 211.858 982.657C189.166 982.657 170.779 961.512 170.779 935.42C170.779 909.327 189.166 888.183 211.858 888.183C234.551 888.183 235.715 917.837 250.302 938.231Z" fill="#E5E5E5"/>
<path d="M219.108 959.413L219.547 961.475L227.016 958.85L224.82 957.276L219.108 959.413Z" fill="#322764"/>
<path d="M168.824 924.998C168.033 910.826 182.29 891.932 198.898 892.119C215.505 892.307 226.226 910.845 226.599 923.554C227.192 936.432 214.077 941.774 197.602 943.086C181.148 944.192 169.439 939.375 168.824 924.998Z" fill="#303030"/>
<path d="M230.444 955.345C229.301 956.995 226.885 957.295 224.842 957.257C219.965 957.182 215.044 956.883 210.211 956.47C205.422 956.058 200.655 955.42 196.02 954.333C191.319 953.209 186.838 951.54 182.444 949.741C177.765 947.81 173.174 945.804 168.561 943.855C168.121 943.667 167.945 943.18 168.055 942.805C168.539 941.099 168.824 939.394 168.846 937.65C168.429 936.919 169.747 936.001 170.713 936.638C174.009 938.831 177.633 940.687 181.412 942.224C195.932 948.129 212.276 949.235 228.093 950.228C228.708 950.266 229.06 950.659 229.126 951.072C229.301 951.072 229.499 951.128 229.675 951.259C231.234 952.253 231.41 953.94 230.444 955.345Z" fill="#322764"/>
<path d="M252.565 935.776C251.906 934.557 249.885 934.801 249.16 935.776C248.017 937.275 248.391 938.962 248.742 940.612C249.116 942.355 248.852 944.155 248.588 945.898C248.457 946.798 249.599 947.585 250.566 947.585C251.73 947.585 252.389 946.835 252.543 945.935C253.487 945.879 254.41 945.336 254.498 944.323C254.695 941.343 253.993 938.475 252.565 935.776Z" fill="#322764"/>
<path d="M267.744 967.267C254.915 971.129 242.064 974.99 229.235 978.851C227.917 979.245 222.403 966.798 219.723 961.512C219.723 961.512 219.284 960.538 219.877 960.182C230.773 953.583 254.234 943.292 254.234 943.292C254.234 943.292 254.871 942.018 255.113 942.318C260.869 949.628 265.35 957.632 268.36 966.049C268.535 966.517 268.338 967.098 267.744 967.267Z" fill="#322764"/>
<path d="M174.843 887.433C180.484 887.433 185.058 883.53 185.058 878.716C185.058 873.902 180.484 870 174.843 870C169.201 870 164.628 873.902 164.628 878.716C164.628 883.53 169.201 887.433 174.843 887.433Z" fill="#D0FFFF"/>
<g filter="url(#filter0_f)">
<path d="M174.843 887.433C180.484 887.433 185.058 883.53 185.058 878.716C185.058 873.902 180.484 870 174.843 870C169.201 870 164.628 873.902 164.628 878.716C164.628 883.53 169.201 887.433 174.843 887.433Z" fill="#1EEDC8"/>
</g>
<path d="M174.843 887.433C180.484 887.433 185.058 883.53 185.058 878.716C185.058 873.902 180.484 870 174.843 870C169.201 870 164.628 873.902 164.628 878.716C164.628 883.53 169.201 887.433 174.843 887.433Z" fill="#D0FFFF"/>
<g filter="url(#filter1_f)">
<path d="M188.671 916.913C188.751 911.893 187.389 907.806 185.63 907.786C183.871 907.766 182.381 911.819 182.301 916.84C182.221 921.86 183.583 925.947 185.342 925.967C187.101 925.987 188.591 921.934 188.671 916.913Z" fill="#1EEDC8"/>
<path d="M207.303 917.513C207.383 912.493 206.021 908.407 204.262 908.386C202.503 908.366 201.013 912.419 200.933 917.44C200.854 922.46 202.215 926.547 203.974 926.567C205.733 926.587 207.224 922.534 207.303 917.513Z" fill="#1EEDC8"/>
</g>
<path d="M188.671 916.913C188.751 911.893 187.389 907.806 185.63 907.786C183.871 907.766 182.381 911.819 182.301 916.84C182.221 921.86 183.583 925.947 185.342 925.967C187.101 925.987 188.591 921.934 188.671 916.913Z" fill="#D0FFFF"/>
<path d="M207.303 917.513C207.383 912.493 206.021 908.407 204.262 908.386C202.503 908.366 201.013 912.419 200.933 917.44C200.854 922.46 202.215 926.547 203.974 926.567C205.733 926.587 207.224 922.534 207.303 917.513Z" fill="#D0FFFF"/>
<path d="M218.998 959.375L224.6 957.857L231.454 975.702L268.975 963.462C268.975 963.462 264.515 941.961 256.453 941.961C248.391 941.98 218.998 959.375 218.998 959.375Z" fill="#4F418A"/>
<path d="M224.095 939.693C224.095 939.693 232.728 962.768 229.059 968.785C225.391 974.802 237.231 978.814 242.042 965.992C246.853 953.171 243.514 938.793 243.514 938.793C243.514 938.793 242.262 928.577 224.095 939.693Z" fill="#F0F0F0"/>
<path d="M252.207 970.023C254.225 969.208 255.515 967.925 255.089 967.158C254.664 966.39 252.683 966.429 250.665 967.244C248.648 968.059 247.357 969.342 247.783 970.109C248.209 970.877 250.189 970.838 252.207 970.023Z" fill="#FCA30A"/>
<rect x="-14.1377" y="1103.72" width="466.39" height="94.8808" fill="url(#paint18_linear)"/>
<rect x="-14.1377" y="1198.6" width="466.39" height="5.44923" fill="#2D2446"/>
<rect x="-14.1377" y="1109.49" width="466.39" height="13.7834" fill="url(#paint19_radial)"/>
<path d="M36.8456 1106.26L19.8398 1123.27V1198.6" stroke="url(#paint20_linear)" stroke-width="5"/>
<path d="M400.164 1107.4L416.031 1123.27V1198.6" stroke="url(#paint21_linear)" stroke-width="5"/>
<path d="M217.936 1109.17V1198.6" stroke="#2A3345" stroke-width="5"/>
<rect x="-14.1377" y="1094.42" width="466.39" height="9.29575" fill="url(#paint22_radial)"/>
<rect x="-14.1377" y="988" width="466.39" height="106.42" fill="url(#paint23_linear)"/>
<line x1="-23.7539" y1="1005.89" x2="449.368" y2="1005.89" stroke="#304360" stroke-width="20"/>
<line x1="-23.7529" y1="1006.46" x2="449.369" y2="1006.46" stroke="url(#paint24_linear)" stroke-width="15"/>
<path d="M400.645 1103.72L400.645 1015.57" stroke="url(#paint25_linear)" stroke-width="10"/>
<path d="M309.307 1103.72L309.307 1015.57" stroke="url(#paint26_linear)" stroke-width="10"/>
<path d="M217.97 1103.72L217.97 1015.57" stroke="url(#paint27_linear)" stroke-width="10"/>
<path d="M126.632 1103.72L126.632 1015.57" stroke="url(#paint28_linear)" stroke-width="10"/>
<path d="M35.2939 1103.72L35.2939 1015.57" stroke="url(#paint29_linear)" stroke-width="10"/>
<rect opacity="0.8" x="37.4697" y="1021.02" width="86.8672" height="78.8536" fill="url(#paint30_linear)"/>
<g opacity="0.5">
<mask id="mask1" mask-type="alpha" maskUnits="userSpaceOnUse" x="36" y="1021" width="89" height="79">
<rect opacity="0.8" x="36.5083" y="1021.13" width="87.8288" height="78.741" fill="url(#paint31_linear)"/>
</mask>
<g mask="url(#mask1)">
<path d="M32.0693 1100.02L77.8862 1021.42H124.02L73.6057 1100.02H32.0693Z" fill="url(#paint32_linear)"/>
</g>
</g>
<rect opacity="0.8" x="128.841" y="1021.02" width="86.8672" height="78.8536" fill="url(#paint33_linear)"/>
<rect opacity="0.8" x="220.18" y="1021.02" width="86.8672" height="78.8536" fill="url(#paint34_linear)"/>
<g opacity="0.5">
<mask id="mask2" mask-type="alpha" maskUnits="userSpaceOnUse" x="220" y="1021" width="86" height="79">
<rect opacity="0.8" x="220.18" y="1021.13" width="85.585" height="78.741" fill="url(#paint35_linear)"/>
</mask>
<g mask="url(#mask2)">
<path d="M209.829 1100.02L260.5 1021.42H305.456L256.329 1100.02H209.829Z" fill="url(#paint36_linear)"/>
</g>
</g>
<rect opacity="0.8" x="311.534" y="1021.02" width="86.8672" height="78.8536" fill="url(#paint37_linear)"/>
<rect opacity="0.8" x="402.889" y="1021.02" width="89.111" height="78.8536" fill="url(#paint38_linear)"/>
<g opacity="0.5">
<mask id="mask3" mask-type="alpha" maskUnits="userSpaceOnUse" x="311" y="1037" width="87" height="80">
<rect opacity="0.8" x="311.551" y="1037.68" width="85.585" height="78.741" fill="url(#paint39_linear)"/>
</mask>
<g mask="url(#mask3)">
<path d="M315.373 1100.02L366.044 1021.42H394.584L345.457 1100.02H315.373Z" fill="url(#paint40_linear)"/>
</g>
</g>
<rect opacity="0.8" x="-51" y="1021.02" width="83.9823" height="78.8536" fill="url(#paint41_linear)"/>
</g>
<defs>
<filter id="filter0_f" x="160.628" y="866" width="28.43" height="25.4327" filterUnits="userSpaceOnUse" color-interpolation-filters="sRGB">
<feFlood flood-opacity="0" result="BackgroundImageFix"/>
<feBlend mode="normal" in="SourceGraphic" in2="BackgroundImageFix" result="shape"/>
<feGaussianBlur stdDeviation="2" result="effect1_foregroundBlur"/>
</filter>
<filter id="filter1_f" x="178.297" y="903.786" width="33.009" height="26.781" filterUnits="userSpaceOnUse" color-interpolation-filters="sRGB">
<feFlood flood-opacity="0" result="BackgroundImageFix"/>
<feBlend mode="normal" in="SourceGraphic" in2="BackgroundImageFix" result="shape"/>
<feGaussianBlur stdDeviation="2" result="effect1_foregroundBlur"/>
</filter>
<linearGradient id="paint0_linear" x1="211.465" y1="6.4587" x2="211.465" y2="560.032" gradientUnits="userSpaceOnUse">
<stop stop-color="#FDEBBB"/>
<stop offset="0.505208" stop-color="#FDA894"/>
<stop offset="1" stop-color="#4A8BB7"/>
</linearGradient>
<linearGradient id="paint1_linear" x1="277.603" y1="564.083" x2="154.715" y2="564.083" gradientUnits="userSpaceOnUse">
<stop stop-color="#436777"/>
<stop offset="1" stop-color="#436777" stop-opacity="0"/>
</linearGradient>
<linearGradient id="paint2_linear" x1="568.789" y1="447.233" x2="256.12" y2="447.233" gradientUnits="userSpaceOnUse">
<stop stop-color="#436777"/>
<stop offset="1" stop-color="#436777" stop-opacity="0"/>
</linearGradient>
<linearGradient id="paint3_linear" x1="560.278" y1="371.047" x2="427.69" y2="371.047" gradientUnits="userSpaceOnUse">
<stop stop-color="#436777"/>
<stop offset="1" stop-color="#436777" stop-opacity="0"/>
</linearGradient>
<linearGradient id="paint4_linear" x1="389.746" y1="566.124" x2="270.114" y2="566.124" gradientUnits="userSpaceOnUse">
<stop stop-color="#436777"/>
<stop offset="1" stop-color="#436777" stop-opacity="0"/>
</linearGradient>
<linearGradient id="paint5_linear" x1="417.243" y1="44.3179" x2="417.243" y2="116.517" gradientUnits="userSpaceOnUse">
<stop stop-color="#D0FFFF"/>
<stop offset="1" stop-color="#FFF8D6" stop-opacity="0"/>
</linearGradient>
<linearGradient id="paint6_linear" x1="-8.36873" y1="44.3179" x2="-8.36873" y2="116.517" gradientUnits="userSpaceOnUse">
<stop stop-color="#D0FFFF"/>
<stop offset="1" stop-color="#FFF8D6" stop-opacity="0"/>
</linearGradient>
<linearGradient id="paint7_linear" x1="205.225" y1="44.3179" x2="205.225" y2="116.517" gradientUnits="userSpaceOnUse">
<stop stop-color="#D0FFFF"/>
<stop offset="1" stop-color="#FFF8D6" stop-opacity="0"/>
</linearGradient>
<linearGradient id="paint8_linear" x1="235.101" y1="500" x2="377.683" y2="987.801" gradientUnits="userSpaceOnUse">
<stop stop-color="#538099"/>
<stop offset="0.358994" stop-color="#923737" stop-opacity="0.66704"/>
<stop offset="0.898396" stop-color="#C5651F" stop-opacity="0.56"/>
</linearGradient>
<linearGradient id="paint9_linear" x1="5.85936" y1="523.989" x2="5.85938" y2="992.223" gradientUnits="userSpaceOnUse">
<stop stop-color="#2D2B7B"/>
<stop offset="0.411458" stop-color="#59275E"/>
<stop offset="1" stop-color="#C10829"/>
</linearGradient>
<linearGradient id="paint10_linear" x1="138.701" y1="558.64" x2="138.701" y2="992.223" gradientUnits="userSpaceOnUse">
<stop stop-color="#2D2B7B"/>
<stop offset="1" stop-color="#C11E08"/>
</linearGradient>
<linearGradient id="paint11_linear" x1="271.27" y1="595.957" x2="271.27" y2="992.223" gradientUnits="userSpaceOnUse">
<stop stop-color="#702B7B"/>
<stop offset="1" stop-color="#C11E08"/>
</linearGradient>
<linearGradient id="paint12_linear" x1="404.111" y1="660.816" x2="404.111" y2="992.223" gradientUnits="userSpaceOnUse">
<stop stop-color="#7B2B3E"/>
<stop offset="1" stop-color="#C11E08"/>
</linearGradient>
<linearGradient id="paint13_linear" x1="-69" y1="743.15" x2="475.704" y2="743.15" gradientUnits="userSpaceOnUse">
<stop stop-color="#2D2B7B"/>
<stop offset="1" stop-color="#C11E08"/>
</linearGradient>
<linearGradient id="paint14_linear" x1="-69" y1="665.555" x2="475.704" y2="665.555" gradientUnits="userSpaceOnUse">
<stop stop-color="#2B427B"/>
<stop offset="0.407948" stop-color="#45266C"/>
<stop offset="1" stop-color="#830B20"/>
</linearGradient>
<linearGradient id="paint15_linear" x1="-69" y1="587.368" x2="261.742" y2="587.368" gradientUnits="userSpaceOnUse">
<stop stop-color="#1B1988"/>
<stop offset="1" stop-color="#2A5A92"/>
</linearGradient>
<linearGradient id="paint16_linear" x1="-24.0845" y1="899.524" x2="656.183" y2="899.524" gradientUnits="userSpaceOnUse">
<stop stop-color="#7B2B6A"/>
<stop offset="1" stop-color="#C11E08"/>
</linearGradient>
<linearGradient id="paint17_linear" x1="-24.0845" y1="821.337" x2="414.456" y2="821.337" gradientUnits="userSpaceOnUse">
<stop stop-color="#2D2B7B"/>
<stop offset="1" stop-color="#C11E08"/>
</linearGradient>
<linearGradient id="paint18_linear" x1="218.914" y1="1217.35" x2="218.914" y2="1103.72" gradientUnits="userSpaceOnUse">
<stop stop-color="#070707"/>
<stop offset="1" stop-color="#32364D"/>
</linearGradient>
<radialGradient id="paint19_radial" cx="0" cy="0" r="1" gradientUnits="userSpaceOnUse" gradientTransform="translate(218.914 1078.55) rotate(15.4931) scale(142.199 4811.62)">
<stop stop-color="#617F89"/>
<stop offset="1" stop-color="#54576F"/>
</radialGradient>
<linearGradient id="paint20_linear" x1="28.3427" y1="1106.26" x2="28.3427" y2="1198.6" gradientUnits="userSpaceOnUse">
<stop stop-color="#31354A"/>
<stop offset="1" stop-color="#2A3345"/>
</linearGradient>
<linearGradient id="paint21_linear" x1="408.098" y1="1107.4" x2="408.098" y2="1198.6" gradientUnits="userSpaceOnUse">
<stop stop-color="#31354B"/>
<stop offset="1" stop-color="#2A3345"/>
</linearGradient>
<radialGradient id="paint22_radial" cx="0" cy="0" r="1" gradientUnits="userSpaceOnUse" gradientTransform="translate(219.057 1099.07) rotate(-13.2511) scale(127.955 6419.8)">
<stop stop-color="#607C87"/>
<stop offset="1" stop-color="#55576F"/>
</radialGradient>
<linearGradient id="paint23_linear" x1="268.919" y1="973.736" x2="218.914" y2="1149.71" gradientUnits="userSpaceOnUse">
<stop stop-color="#FFD9B6"/>
<stop offset="1" stop-color="#DA5182"/>
</linearGradient>
<linearGradient id="paint24_linear" x1="181.407" y1="1301.96" x2="355.556" y2="990.65" gradientUnits="userSpaceOnUse">
<stop stop-color="#31397D"/>
<stop offset="1" stop-color="#969D98"/>
</linearGradient>
<linearGradient id="paint25_linear" x1="400.905" y1="1021.02" x2="400.515" y2="1145.07" gradientUnits="userSpaceOnUse">
<stop stop-color="#304360"/>
<stop offset="1" stop-color="#33969C"/>
</linearGradient>
<linearGradient id="paint26_linear" x1="309.567" y1="1021.02" x2="309.177" y2="1145.07" gradientUnits="userSpaceOnUse">
<stop stop-color="#304360"/>
<stop offset="1" stop-color="#33969C"/>
</linearGradient>
<linearGradient id="paint27_linear" x1="218.229" y1="1021.02" x2="217.84" y2="1145.07" gradientUnits="userSpaceOnUse">
<stop stop-color="#304360"/>
<stop offset="1" stop-color="#33969C"/>
</linearGradient>
<linearGradient id="paint28_linear" x1="126.891" y1="1021.02" x2="126.502" y2="1145.07" gradientUnits="userSpaceOnUse">
<stop stop-color="#304360"/>
<stop offset="1" stop-color="#33969C"/>
</linearGradient>
<linearGradient id="paint29_linear" x1="35.5536" y1="1021.02" x2="35.1641" y2="1145.07" gradientUnits="userSpaceOnUse">
<stop stop-color="#304360"/>
<stop offset="1" stop-color="#33969C"/>
</linearGradient>
<linearGradient id="paint30_linear" x1="81.0672" y1="1021.02" x2="81.0672" y2="1099.87" gradientUnits="userSpaceOnUse">
<stop stop-color="#AAEDE1" stop-opacity="0.6"/>
<stop offset="1" stop-color="#5BB4C0"/>
</linearGradient>
<linearGradient id="paint31_linear" x1="80.5884" y1="1021.13" x2="80.5884" y2="1099.87" gradientUnits="userSpaceOnUse">
<stop stop-color="#C4C4C4"/>
<stop offset="1" stop-color="#C4C4C4" stop-opacity="0"/>
</linearGradient>
<linearGradient id="paint32_linear" x1="92.63" y1="1038.82" x2="47.5117" y2="1175.37" gradientUnits="userSpaceOnUse">
<stop stop-color="#EEEEEE"/>
<stop offset="1" stop-color="#C4C4C4" stop-opacity="0"/>
</linearGradient>
<linearGradient id="paint33_linear" x1="172.439" y1="1021.02" x2="172.439" y2="1099.87" gradientUnits="userSpaceOnUse">
<stop stop-color="#AAEDE1" stop-opacity="0.6"/>
<stop offset="1" stop-color="#5BB4C0"/>
</linearGradient>
<linearGradient id="paint34_linear" x1="263.777" y1="1021.02" x2="263.777" y2="1099.87" gradientUnits="userSpaceOnUse">
<stop stop-color="#AAEDE1" stop-opacity="0.6"/>
<stop offset="1" stop-color="#5BB4C0"/>
</linearGradient>
<linearGradient id="paint35_linear" x1="263.134" y1="1021.13" x2="263.134" y2="1099.87" gradientUnits="userSpaceOnUse">
<stop stop-color="#C4C4C4"/>
<stop offset="1" stop-color="#C4C4C4" stop-opacity="0"/>
</linearGradient>
<linearGradient id="paint36_linear" x1="292.324" y1="1007.71" x2="231.993" y2="1124.34" gradientUnits="userSpaceOnUse">
<stop stop-color="white"/>
<stop offset="1" stop-color="#C4C4C4" stop-opacity="0"/>
</linearGradient>
<linearGradient id="paint37_linear" x1="355.132" y1="1021.02" x2="355.132" y2="1099.87" gradientUnits="userSpaceOnUse">
<stop stop-color="#AAEDE1" stop-opacity="0.6"/>
<stop offset="1" stop-color="#5BB4C0"/>
</linearGradient>
<linearGradient id="paint38_linear" x1="447.613" y1="1021.02" x2="447.613" y2="1099.87" gradientUnits="userSpaceOnUse">
<stop stop-color="#AAEDE1" stop-opacity="0.6"/>
<stop offset="1" stop-color="#5BB4C0"/>
</linearGradient>
<linearGradient id="paint39_linear" x1="354.505" y1="1037.68" x2="354.505" y2="1116.43" gradientUnits="userSpaceOnUse">
<stop stop-color="#C4C4C4"/>
<stop offset="1" stop-color="#C4C4C4" stop-opacity="0"/>
</linearGradient>
<linearGradient id="paint40_linear" x1="381.452" y1="1007.71" x2="321.122" y2="1124.34" gradientUnits="userSpaceOnUse">
<stop stop-color="white"/>
<stop offset="1" stop-color="#C4C4C4" stop-opacity="0"/>
</linearGradient>
<linearGradient id="paint41_linear" x1="-8.8504" y1="1021.02" x2="-8.8504" y2="1099.87" gradientUnits="userSpaceOnUse">
<stop stop-color="#AAEDE1" stop-opacity="0.6"/>
<stop offset="1" stop-color="#5BB4C0"/>
</linearGradient>
<clipPath id="clip0">
<rect width="899" height="1203" fill="white" transform="translate(-201)"/>
</clipPath>
</defs>
</svg>
