<svg width="782" height="94" fill="none" xmlns="http://www.w3.org/2000/svg"><path d="M782 11.036l-3.25-9.367H5.851v11.374l30.552 23.418L3.251 87.31V94H775.5l1.95-6.69-24.052-32.785L782 11.036z" fill="#785340"/><path d="M4.153 4.525C2.733 3.32 3.586 1 5.447 1h772.566c1.51 0 2.476 1.61 1.764 2.943l-26.399 49.403a2 2 0 00.219 2.212l25.064 30.488c1.073 1.305.144 3.27-1.545 3.27H3.69c-1.588 0-2.542-1.76-1.676-3.091L36.09 33.923a2 2 0 00-.381-2.617L4.153 4.525z" fill="#AD795E"/><path d="M28.602 46.496c18.487 1.994 55.238 7.81 59.091 10.968C101.688 68.93 24.15 70.583 14.301 70.583" stroke="#CC9477"/><path d="M241.069 90.143l-.364.343.685.728.364-.342-.685-.729zm123.479-13l-.136-.48.136.48zm66.304 0l-.114-.486.114.487zm101.561-2.474l-.042-.498.042.498zm93.668 2.475l.09.491-.09-.492zm81.565-2.475l.092.491-.092-.491zM32.663 92.466c5.788-1.98 16.675-5.69 27.112-8.905 5.22-1.608 10.32-3.09 14.614-4.17 4.312-1.084 7.753-1.748 9.682-1.748v-1c-2.07 0-5.628.698-9.926 1.779-4.318 1.086-9.438 2.574-14.664 4.183-10.454 3.22-21.353 6.935-27.142 8.914l.324.947zM84.07 77.644c2.424 0 6.735.908 12.008 2.303 5.252 1.39 11.393 3.243 17.445 5.099 6.048 1.855 12.008 3.713 16.882 5.107 2.437.697 4.609 1.28 6.389 1.689 1.767.406 3.19.65 4.108.65v-1c-.792 0-2.115-.219-3.884-.625-1.755-.403-3.908-.98-6.338-1.675-4.862-1.39-10.808-3.245-16.863-5.102-6.052-1.856-12.21-3.715-17.483-5.11-5.251-1.389-9.689-2.337-12.264-2.337v1zm157.683 13.228c-.04.038-.056.034.023.002.064-.025.159-.056.29-.092.262-.072.632-.153 1.109-.243.953-.18 2.297-.387 3.983-.618 3.371-.462 8.081-1.016 13.695-1.63 11.228-1.23 26.059-2.7 40.99-4.153 14.931-1.454 29.963-2.893 41.59-4.06 5.814-.585 10.778-1.101 14.455-1.518 1.838-.209 3.357-.393 4.5-.548 1.127-.153 1.925-.283 2.295-.387l-.272-.963c-.288.082-1.01.203-2.158.36-1.132.153-2.642.336-4.478.544-3.67.416-8.629.932-14.442 1.516-11.625 1.168-26.654 2.606-41.587 4.06-14.931 1.454-29.767 2.924-41.002 4.154-5.616.615-10.337 1.17-13.722 1.634-1.691.232-3.055.442-4.032.626a15.95 15.95 0 00-1.188.261c-.149.04-.283.083-.395.127a1.083 1.083 0 00-.339.2l.685.728zm122.93-13.247c.584-.165 1.87-.265 3.772-.3 1.877-.034 4.29-.005 7.081.063 5.581.137 12.645.43 19.907.689 7.258.258 14.709.48 21.051.472 6.321-.008 11.598-.243 14.472-.919l-.229-.973c-2.742.645-7.903.884-14.245.892-6.321.008-13.757-.214-21.013-.472-7.253-.257-14.33-.552-19.919-.688-2.795-.069-5.224-.098-7.123-.063-1.873.034-3.294.13-4.026.336l.272.963zm66.283.005c16.769-3.943 34.865-3.946 52.423-3.266 17.529.68 34.554 2.044 49.066.803l-.085-.996c-14.43 1.233-31.346-.124-48.943-.806-17.568-.681-35.781-.684-52.69 3.292l.229.973zm101.489-2.463c3.891-.333 10.657-.163 18.907.238 8.241.401 17.923 1.03 27.633 1.61 9.707.579 19.439 1.107 27.767 1.305 8.313.198 15.272.068 19.408-.685l-.179-.983c-4.021.732-10.883.867-19.206.669-8.307-.198-18.024-.725-27.73-1.305-9.703-.578-19.396-1.208-27.644-1.61-8.237-.4-15.071-.575-19.041-.236l.085.997zm93.715 2.468c8.099-1.474 25.14-1.477 41.875-1.415 8.351.031 16.613.078 23.608-.038 6.982-.116 12.747-.394 16.084-1.022l-.184-.983c-3.241.61-8.921.889-15.917 1.005-6.982.116-15.231.07-23.588.038-16.68-.061-33.843-.064-42.057 1.432l.179.983zm81.567-2.475c6.627-1.246 15.495-4.608 24.477-7.753 9.022-3.16 18.167-6.104 25.456-6.593l-.067-.998c-7.446.5-16.719 3.495-25.72 6.647-9.041 3.166-17.801 6.486-24.33 7.714l.184.983z" fill="#CC9477"/><path d="M41.602 1c45.5 7.347 139.444 22.139 151.204 22.53 14.7.49 93.453 0 113.403 0 19.951 0 79.278-13.224 93.453-14.693 14.175-1.47 37.801 0 56.702 0 18.9 0 69.302 8.816 80.327 6.857 11.025-1.96 66.152-.98 81.902-3.919 15.751-2.938 40.427 0 61.427 0 21.001 0 66.152.98 78.228-2.938 9.66-3.135 17.475-3.496 21.15-3.823" stroke="#CC9477"/><path d="M18.202 13.043c34.2 1.749 93.025 13.431 127.54 24.763 43.143 14.163 171.291 7.06 180.992 5.77 15.784-2.098 65.242-17.311 87.866-17.311 22.624 0 86.813 7.344 96.81 7.344 9.996 0 79.447-2.623 92.074-3.148 12.628-.524 51.562 0 67.872 1.574 16.311 1.574 51.036-4.197 53.667-3.672 2.63.524 37.817 0 42.026 0" stroke="#CC9477"/><path d="M29.902 25.755c29.017 1.342 60.819 11.726 75.502 23.798 18.354 15.09 37.756 24.144 58.732 26.156 20.976 2.012 45.098-10.06 67.647-9.557 22.549.503 108.026-3.018 129.002-5.533 20.975-2.515 69.744-11.066 82.854-11.066s92.818 3.52 108.55 5.03c15.732 1.509 48.244-5.03 62.927-5.03h83.379c6.293 0 24.647-6.036 36.708-6.036h20.795" stroke="#CC9477"/><path d="M115.85 42.824l1 3.482.6 2.995 2.95 7.87.1 1.044.5.627h4.85l.45-.348.6-3.064.45-1.045 1.9-6.616 1.65-4.249.55-3.97.9-3.203v-1.741l-.7-.14h-4.3l-2.2 7.313-1.55 1.532-.75 1.95-.75 3.692-2.25-5.293-2.75-7.174v-1.88l-.6-.14h-3.85l-2.3 7.383-.3 2.646-1.3 4.388-1.5-.975-2.3-4.457-2.5-8.984-.4-.349-1.95.418-.1.766 2.65 13.999 3 7.87.1 1.044.45.627h4.9l.45-.348.6-3.064.4-.975 1.95-6.686 1.35-4.945zM156.334 59.817l-.15-.278a1.3 1.3 0 00-.15-.627 4.641 4.641 0 01-.25-.766c-.2 0-.384.07-.55.209-.167.093-.35.209-.55.348-.167.093-.384.209-.65.348-.234.093-.534.14-.9.14h-.25c-.4.046-.75.07-1.05.07-.3 0-.584.022-.85.069a4.64 4.64 0 00-.8.07h-.95c-.634-.14-1.05-.233-1.25-.28l-.25-.138h.05c.033 0-.017-.047-.15-.14-.034.047-.067.07-.1.07-.034 0-.067.023-.1.07h-.1a11.665 11.665 0 00-.9-.418c-.2-.093-.3-.256-.3-.488 0-.185-.167-.51-.5-.975-.3-.464-.45-.998-.45-1.602 0-.696.05-1.578.15-2.646.1-1.114.3-1.997.6-2.647.266-.232.733-.487 1.4-.766.666-.325 1.333-.487 2-.487.4 0 .7.093.9.278a1.515 1.515 0 01.75 1.323c.033.233.05.465.05.697 0 .325-.084.557-.25.696-.167.14-.367.233-.6.279-.234.046-.467.07-.7.07-.234 0-.434.023-.6.07-.667.278-1.217.464-1.65.556-.4.093-.634.14-.7.14.166.093.283.278.35.557.066.279.116.58.15.905a7.1 7.1 0 01.05.836c0 .232.016.348.05.348 1.166 0 2.133-.07 2.9-.209.766-.139 1.4-.302 1.9-.487l1.2-.557c.3-.186.6-.302.9-.349.133-.464.283-.742.45-.835.166-.14.35-.372.55-.697-.067-.65-.184-1.3-.35-1.95a19.568 19.568 0 00-.45-1.88 15.181 15.181 0 00-.5-1.532c-.134-.418-.2-.674-.2-.767a.903.903 0 01-.6-.209 3.81 3.81 0 01-.35-.417 2.059 2.059 0 01-.15-.418c-.034-.14-.067-.21-.1-.21-.367 0-.65-.115-.85-.347a.875.875 0 01-.3-.349c-.534 0-.95-.092-1.25-.278a1.864 1.864 0 00-1-.279 10.36 10.36 0 01-2.7.906 5.587 5.587 0 00-2.5 1.184c-.4.464-.767.905-1.1 1.323a8.538 8.538 0 00-.9 1.393c-.267.51-.55 1.068-.85 1.671-.3.604-.6 1.324-.9 2.16a4.736 4.736 0 00-.35 1.114l-.1 1.114c0 .696.016 1.393.05 2.09.066.65.3 1.392.7 2.228.166.186.3.395.4.627l.2.348.3.348c.066 0 .116.14.15.418.066.232.116.348.15.348h.9c.4.325.716.604.95.836.233.186.45.325.65.418.2.046.416.093.65.14.233.046.533.069.9.069h.6c.233-.047.466-.07.7-.07h.65c.233 0 .516.047.85.14.733 0 1.333-.047 1.8-.14.5-.14.983-.302 1.45-.487.5-.186 1.016-.349 1.55-.488.566-.14 1.25-.232 2.05-.279.2-.092.433-.301.7-.626.3-.372.45-.604.45-.697 0-.139-.084-.209-.25-.209h.25zM159.903 24.09l.25 4.248 2.5.835-.6 5.294 1.25.278 1-.696.6-3.83v-4.11l-.25-4.109h-2.9l-1.65.488-.2 1.601zM188.276 40.177l-1.9-4.178-.65.278-3.35 3.761-1.5 3.622-1.05 1.393v-4.806l-1.35-4.04h-2.9l-.8 1.254v17.83l-.25.766.1 1.81 5.5-.627.85-.696v-1.393l.25-2.229-.25-3.69a2.49 2.49 0 00.55-.837l.5-.975c.2-.325.417-.673.65-1.044.267-.418.584-.813.95-1.184l2.3-2.438c.367-.371.734-.766 1.1-1.184.4-.418.817-.882 1.25-1.393zM210.24 59.817l-.15-.278a1.3 1.3 0 00-.15-.627 4.737 4.737 0 01-.25-.766.84.84 0 00-.55.209c-.167.093-.35.209-.55.348-.167.093-.383.209-.65.348-.233.093-.533.14-.9.14h-.25c-.4.046-.75.07-1.05.07-.3 0-.583.022-.85.069-.267 0-.533.023-.8.07h-.95c-.633-.14-1.05-.233-1.25-.28l-.25-.138h.05c.033 0-.017-.047-.15-.14-.033.047-.067.07-.1.07s-.067.023-.1.07h-.1a11.665 11.665 0 00-.9-.418c-.2-.093-.3-.256-.3-.488 0-.185-.167-.51-.5-.975-.3-.464-.45-.998-.45-1.602 0-.696.05-1.578.15-2.646.1-1.114.3-1.997.6-2.647.267-.232.733-.487 1.4-.766.667-.325 1.333-.487 2-.487.4 0 .7.093.9.278a1.524 1.524 0 01.75 1.323c.033.233.05.465.05.697 0 .325-.083.557-.25.696-.167.14-.367.233-.6.279-.233.046-.467.07-.7.07-.233 0-.433.023-.6.07-.667.278-1.217.464-1.65.556-.4.093-.633.14-.7.14.167.093.283.278.35.557s.117.58.15.905a7.1 7.1 0 01.05.836c0 .232.017.348.05.348 1.167 0 2.133-.07 2.9-.209.767-.139 1.4-.302 1.9-.487l1.2-.557c.3-.186.6-.302.9-.349.133-.464.283-.742.45-.835.167-.14.35-.372.55-.697a13.31 13.31 0 00-.35-1.95 18.988 18.988 0 00-.45-1.88 14.932 14.932 0 00-.5-1.532c-.133-.418-.2-.674-.2-.767a.906.906 0 01-.6-.209 3.926 3.926 0 01-.35-.417 2.059 2.059 0 01-.15-.418c-.033-.14-.067-.21-.1-.21-.367 0-.65-.115-.85-.347a.891.891 0 01-.3-.349c-.533 0-.95-.092-1.25-.278a1.861 1.861 0 00-1-.279c-.833.418-1.733.72-2.7.906a5.592 5.592 0 00-2.5 1.184c-.4.464-.767.905-1.1 1.323a8.673 8.673 0 00-.9 1.393c-.267.51-.55 1.068-.85 1.671-.3.604-.6 1.324-.9 2.16a4.783 4.783 0 00-.35 1.114l-.1 1.114c0 .696.017 1.393.05 2.09.067.65.3 1.392.7 2.228.167.186.3.395.4.627l.2.348.3.348c.067 0 .117.14.15.418.067.232.117.348.15.348h.9c.4.325.717.604.95.836.233.186.45.325.65.418.2.046.417.093.65.14.233.046.533.069.9.069h.6c.233-.047.467-.07.7-.07h.65c.233 0 .517.047.85.14.733 0 1.333-.047 1.8-.14.5-.14.983-.302 1.45-.487.5-.186 1.017-.349 1.55-.488.567-.14 1.25-.232 2.05-.279.2-.092.433-.301.7-.626.3-.372.45-.604.45-.697 0-.139-.083-.209-.25-.209h.25zM239.727 46.585l1.3-.07c.167.093.317.163.45.209.134.047.317.07.55.07.134 0 .267-.023.4-.07.167-.046.317-.093.45-.14.167-.046.367-.069.6-.069.267-.046.6-.07 1-.07.134 0 .25.024.35.07h.4c.067 0 .2-.093.4-.279-.166 0-.25-.162-.25-.487 0-.046.017-.186.05-.418.034-.232.05-.395.05-.487-.033 0-.05-.117-.05-.349 0-.185.034-.325.1-.417-.233-.233-.35-.465-.35-.697 0-.279-.066-.557-.2-.836-.2.093-.35.14-.45.14h-.5a1.652 1.652 0 00-.25-.14c-.1-.046-.283-.07-.55-.07a12.103 12.103 0 00-1.2-.139c-.4-.046-.883-.093-1.45-.139a33.172 33.172 0 01-1.85-.209l-.5-7.73-.45-.906-3.3.418-.8 1.602-.15 6.268h-1.35c-.433-.047-.85-.07-1.25-.07-.333.14-.516.21-.55.21h-.8c-.233 0-.466-.047-.7-.14h-.8l-.75.905V43.8c0 .464.017.928.05 1.393.067.464.15.882.25 1.254.1.325.234.533.4.626l.4.488h.75c.167-.047.467-.116.9-.21.034-.092.184-.138.45-.138.2 0 .4.023.6.07.234.046.384.092.45.139h.3c.134-.047.267-.07.4-.07l.7-.07-.2 1.393v9.054l.2 3.97.55 1.602 1.25-.279 4.1.418 2.8-.557c.2-.79.3-1.579.3-2.368 0-.79-.1-1.625-.3-2.507l-1.95-1.463v-9.96zM266.059 40.177l-1.9-4.178-.65.278-3.35 3.761-1.5 3.622-1.05 1.393v-4.806l-1.35-4.04h-2.9l-.8 1.254v17.83l-.25.766.1 1.81 5.5-.627.85-.696v-1.393l.25-2.229-.25-3.69a2.49 2.49 0 00.55-.837l.5-.975c.2-.325.417-.673.65-1.044.267-.418.584-.813.95-1.184l2.3-2.438c.367-.371.734-.766 1.1-1.184.4-.418.817-.882 1.25-1.393zM277.923 59.47l-5 13.51.65 1.672h.7l.55-.557h3.45l1-1.115.7-3.134 1.2-4.178 1.55-3.413.6-1.393v-1.323h-.25l.7-1.532 1.35-1.672 1.5-4.945 1.55-3.134 1.1-2.646.6-2.508V41.78h-4.15l-1.9 3.413-.95 2.855-.85 1.463-.5 1.95-.5.279-.45.766-.6.348-3.9-4.597-.45-.836-3.45-5.293-.5-.278-2.6.348-.15.697 3.3 7.452.85 2.228 4.3 5.78.15.697.55.418h-.15zM302.321 35.441l-1.7-.974-2.2-.558-1.6-.487-1.2.557v6.616l.15.836 3-.696 2.35.626.7-.696.5-5.224zm.35 23.192l-.85-.975.3-1.253V53.13l-.35-1.74v-4.806l-.6-.906-1.05-.07-.4.28-2-.21-.85.557-1.05 16.855.5.766h.9l.6-.279h3.85l.95-.627-.25-1.671.3-2.647zM327.002 39.62l-.8-.905h-3.45l-2.9 1.671-1.15.697-1.05.627-1.55-3.9h-3.5l-.9 1.81V53.55l.7 2.299 1.3-.697h.8l.75.627 2.4-.836-.3-6.686-.1-.14v-2.785l3.2-.487.9-.697h.6l1.15 2.299-.8 8.078.65.766h5.2l.5-.835v-8.358l.2-1.602-1.85-4.875zM352.179 51.32c0-.603.016-1.207.05-1.81.066-.604.1-1.184.1-1.741 0-.465-.017-.882-.05-1.254a6.588 6.588 0 00-.2-1.114 46.442 46.442 0 01-.2-1.393c-.067-.557-.15-1.277-.25-2.16a43.607 43.607 0 00-.2-2.019c-.067-.51-.35-.766-.85-.766-.2 0-.384-.023-.55-.07-.167-.046-.267-.116-.3-.209-.067 0-.15.093-.25.28l-.4.556c-.167.186-.35.349-.55.488a.907.907 0 01-.6.209c-.1 0-.234-.047-.4-.14a5.758 5.758 0 00-.55-.487 2.695 2.695 0 00-.8-.488c-.3-.185-.684-.325-1.15-.417-.8 0-1.75.278-2.85.835-1.067.557-2.084 1.37-3.05 2.438-.967 1.021-1.784 2.298-2.45 3.83-.667 1.532-1 3.297-1 5.293 0 .883.066 1.788.2 2.717.133.882.3 1.74.5 2.576l1.25 2.02c.533.232.95.441 1.25.627.333.186.616.371.85.557.266.186.516.325.75.418.266.046.6.07 1 .07.333 0 .8-.024 1.4-.07a27.308 27.308 0 001.9-.348 79.91 79.91 0 011.75-.348c.5-.093.816-.163.95-.21-.134.65-.217 1.463-.25 2.438a26 26 0 01-.15 2.786c-.1.975-.317 1.88-.65 2.716-.3.882-.817 1.579-1.55 2.09-.267.139-.784.37-1.55.696-.767.325-1.517.603-2.25.836-.967.371-1.617.65-1.95.835-.3.186-.467.349-.5.488a1.933 1.933 0 000 .627c.066.232.016.557-.15.975.133 0 .2.116.2.348v.07c0 .185.083.371.25.557.166.232.45.348.85.348 1.166 0 2.25-.186 3.25-.557 1-.372 1.85-.673 2.55-.906.366-.139.683-.255.95-.348.3-.093.6-.255.9-.487.333-.232.683-.604 1.05-1.115.366-.464.833-1.137 1.4-2.02.5-.974.966-2.181 1.4-3.62.466-1.394.7-3.158.7-5.294 0-.975-.017-2.02-.05-3.134a102.97 102.97 0 01-.05-3.134c0-.743.016-1.37.05-1.88.033-.511.116-.906.25-1.184zm-7.25-7.451c.5.046.916.116 1.25.209.366.046.666.208.9.487.233.279.416.697.55 1.254.166.51.333 1.23.5 2.159l-.3 6.546c-.5.418-.984.72-1.45.906-.434.139-.817.209-1.15.209h-1.15a9.164 9.164 0 00-1.15-.07h-.6l-1.2-1.81c0-1.254.116-2.6.35-4.04.266-1.486.933-3.088 2-4.806.2-.278.4-.51.6-.696.233-.232.516-.348.85-.348zM385.845 51.53c-.067-.418-.217-.743-.45-.976-.233-.232-.35-.557-.35-.974-.3-.14-.533-.256-.7-.349a1.522 1.522 0 00-.45-.278 8.386 8.386 0 01-.35-.349c-.1-.139-.267-.278-.5-.417-.067 0-.267-.116-.6-.349-.3-.278-.5-.44-.6-.487l-.7-.488c-.433-.278-.75-.534-.95-.766-.167-.232-.267-.44-.3-.627l-.9-1.184c-.133 0-.267-.092-.4-.278-.1-.232-.15-.697-.15-1.393 0-.65.05-1.138.15-1.463.133-.325.517-.72 1.15-1.184h.1c.1 0 .233-.046.4-.139.167-.093.317-.278.45-.557 0-.093.05-.186.15-.279.1-.092.5-.278 1.2-.557a.96.96 0 00.4-.07c.1-.092.233-.208.4-.348h1c.1-.046.217-.093.35-.139-.033 0-.05-.023-.05-.07.033 0 .05-.023.05-.07 0-.046.017-.069.05-.069 0-.14-.017-.255-.05-.348v-.696c0-.697-.133-1.092-.4-1.184a2 2 0 01-.6-.558c-.4.093-.75.163-1.05.21h-1.5a.603.603 0 01-.15-.14 5.795 5.795 0 01-1.15.487c-.333.047-.7.186-1.1.418l-1.9 1.115c-.433.371-.917.72-1.45 1.044-.5.325-.917.767-1.25 1.324a3.58 3.58 0 01-.8 1.184c0 .417-.083.742-.25.975-.133.232-.2.51-.2.835a.36.36 0 00.05.21c.033.046.05.185.05.417 0 .186-.017.395-.05.627-.033.232-.083.395-.15.487 0 .418.083.883.25 1.393.2.465.383.743.55.836l.45.557c.333.186.617.395.85.627.233.232.45.488.65.766l.6.697c.233.185.517.301.85.348.467.232.75.441.85.627.133.139.2.278.2.418.033.093.083.209.15.348.067.093.317.278.75.557 0 .186.117.441.35.766l.4.557c.1.372.15.72.15 1.045 0 .418-.117.766-.35 1.045-.2.232-.45.44-.75.626a2.84 2.84 0 01-.75.279c-.233.046-.35.046-.35 0-.767.325-1.317.557-1.65.696-.3.14-.6.21-.9.21-.233 0-.7-.07-1.4-.21-.067.14-.183.21-.35.21-.167 0-.383-.07-.65-.21-.233-.139-.333-.185-.3-.139.2.65.283 1.254.25 1.81-.033.512.033.767.2.767h.05a.881.881 0 00-.1.209 1.05 1.05 0 00-.05.348h.05l-.1.07c0 .093.133.255.4.487.3.186.467.279.5.279a13.92 13.92 0 001.9-.418 7.44 7.44 0 012.1-.278c.467 0 .9.07 1.3.208.4.14.817.21 1.25.21.633 0 1.133-.093 1.5-.28.4-.185.717-.37.95-.556a4.97 4.97 0 01.65-.558.996.996 0 01.7-.278l1.05-.697c.367-.278.7-.673 1-1.184.333-.557.5-1.16.5-1.81 0-.418-.033-.86-.1-1.324-.033-.464-.05-.998-.05-1.601zM392.688 45.47a31.942 31.942 0 00-.201 2.368v2.02c0 1.114.117 2.09.35 2.925l.5.906 5.301 2.159h1.199c.134-.047.284-.117.451-.21a2.96 2.96 0 00.549-.417l4.201-1.95c.233-.14.566-.372 1-.697.466-.325.9-.696 1.299-1.114a7.309 7.309 0 001.101-1.532c.299-.557.45-1.138.45-1.741 0-2.23-.417-4.249-1.25-6.06-.8-1.81-1.95-3.203-3.45-4.178h-.101c-.133 0-.366.023-.699.07-.334.046-.634.069-.901.069a1.53 1.53 0 01-.65-.14.451.451 0 01-.25-.417l-3.549.766a8.578 8.578 0 00-3.451 2.507c-.5.557-.916 1.23-1.25 2.02-.333.743-.549 1.625-.649 2.646zm9.25-3.203c.399.185.833.348 1.299.487.467.14.901.349 1.301.627.4.232.75.557 1.049.975.334.418.584 1.045.75 1.88l-1.299 2.647-5.35 1.532h-.701l-1.299-1.602.25-4.178c.2-.14.399-.349.6-.627.2-.279.416-.557.65-.836.266-.325.55-.58.85-.766a1.807 1.807 0 011.049-.348c.234 0 .517.07.851.209zM441.986 55.081l-.15-12.954c-.234-.742-.5-1.462-.8-2.159-.3-.696-.7-1.207-1.2-1.532l-4.9-.139-1.55.209-.6.487-1.2.279-2.4-2.02-2.7-.278-2.95 1.462-.6-.209-.25-.627-1.25-1.183-1.1.209-2.25-.767-1 2.647-.4 5.92v12.257l2.6.279.7-.488h2.65l1.1-.348V42.128h2.5l.6 1.183.2 2.647V55.5l.5.626h4.1l1.1-1.184-.5-4.805v-5.572l.1-1.532 2.15.278.3 1.254.65 7.243v3.482l1.3.767h4.8l.45-.976zM465.074 59.817l-.15-.278a1.3 1.3 0 00-.15-.627 4.737 4.737 0 01-.25-.766c-.2 0-.384.07-.55.209-.167.093-.35.209-.55.348-.167.093-.384.209-.65.348-.234.093-.533.14-.9.14h-.25c-.4.046-.75.07-1.05.07-.3 0-.584.022-.85.069a4.64 4.64 0 00-.8.07h-.95c-.634-.14-1.05-.233-1.25-.28l-.25-.138h.05c.033 0-.017-.047-.15-.14-.033.047-.067.07-.1.07s-.067.023-.1.07h-.1a11.665 11.665 0 00-.9-.418c-.2-.093-.3-.256-.3-.488 0-.185-.167-.51-.5-.975-.3-.464-.45-.998-.45-1.602 0-.696.05-1.578.15-2.646.1-1.114.3-1.997.6-2.647.266-.232.733-.487 1.4-.766.666-.325 1.333-.487 2-.487.4 0 .7.093.9.278a1.524 1.524 0 01.75 1.323c.033.233.05.465.05.697 0 .325-.084.557-.25.696-.167.14-.367.233-.6.279-.234.046-.467.07-.7.07-.234 0-.434.023-.6.07-.667.278-1.217.464-1.65.556-.4.093-.633.14-.7.14.166.093.283.278.35.557s.117.58.15.905a7.1 7.1 0 01.05.836c0 .232.017.348.05.348 1.166 0 2.133-.07 2.9-.209.766-.139 1.4-.302 1.9-.487l1.2-.557c.3-.186.6-.302.9-.349.133-.464.283-.742.45-.835.166-.14.35-.372.55-.697-.067-.65-.184-1.3-.35-1.95a19.568 19.568 0 00-.45-1.88 15.181 15.181 0 00-.5-1.532c-.134-.418-.2-.674-.2-.767a.903.903 0 01-.6-.209 3.81 3.81 0 01-.35-.417 2.059 2.059 0 01-.15-.418c-.033-.14-.067-.21-.1-.21-.367 0-.65-.115-.85-.347a.883.883 0 01-.3-.349c-.533 0-.95-.092-1.25-.278a1.864 1.864 0 00-1-.279 10.36 10.36 0 01-2.7.906 5.587 5.587 0 00-2.5 1.184c-.4.464-.767.905-1.1 1.323a8.538 8.538 0 00-.9 1.393c-.267.51-.55 1.068-.85 1.671-.3.604-.6 1.324-.9 2.16a4.783 4.783 0 00-.35 1.114l-.1 1.114c0 .696.016 1.393.05 2.09.067.65.3 1.392.7 2.228.166.186.3.395.4.627l.2.348.3.348c.067 0 .116.14.15.418.067.232.116.348.15.348h.9c.4.325.716.604.95.836.233.186.45.325.65.418.2.046.417.093.65.14.233.046.533.069.9.069h.6c.233-.047.466-.07.7-.07h.65c.233 0 .516.047.85.14.733 0 1.333-.047 1.8-.14.5-.14.983-.302 1.45-.487.5-.186 1.017-.349 1.55-.488.567-.14 1.25-.232 2.05-.279.2-.092.433-.301.7-.626.3-.372.45-.604.45-.697 0-.139-.084-.209-.25-.209h.25zM480.743 46.585l1.3-.07c.167.093.317.163.45.209.133.047.317.07.55.07.133 0 .267-.023.4-.07.167-.046.317-.093.45-.14.167-.046.367-.069.6-.069.267-.046.6-.07 1-.07.133 0 .25.024.35.07h.4c.067 0 .2-.093.4-.279-.167 0-.25-.162-.25-.487 0-.046.017-.186.05-.418a4.1 4.1 0 00.05-.487c-.033 0-.05-.117-.05-.349 0-.185.033-.325.1-.417-.233-.233-.35-.465-.35-.697 0-.279-.067-.557-.2-.836-.2.093-.35.14-.45.14h-.5a1.702 1.702 0 00-.25-.14c-.1-.046-.283-.07-.55-.07a12.103 12.103 0 00-1.2-.139c-.4-.046-.883-.093-1.45-.139a33.066 33.066 0 01-1.85-.209l-.5-7.73-.45-.906-3.3.418-.8 1.602-.15 6.268h-1.35c-.433-.047-.85-.07-1.25-.07-.333.14-.517.21-.55.21h-.8a1.88 1.88 0 01-.7-.14h-.8l-.75.905V43.8c0 .464.017.928.05 1.393.067.464.15.882.25 1.254.1.325.233.533.4.626l.4.488h.75c.167-.047.467-.116.9-.21.033-.092.183-.138.45-.138.2 0 .4.023.6.07.233.046.383.092.45.139h.3a1.21 1.21 0 01.4-.07l.7-.07-.2 1.393v9.054l.2 3.97.55 1.602 1.25-.279 4.1.418 2.8-.557c.2-.79.3-1.579.3-2.368 0-.79-.1-1.625-.3-2.507l-1.95-1.463v-9.96zM507.675 43.938a8.49 8.49 0 01-.55-.278 2.288 2.288 0 00-.5-.21l-1.05-.487h-6.2l-.2-.627V30.427l-2.8-.418-.95.557-.75 11.074-.65 3.482-.85 13.511.45 3.483h4.7l1.25-.418V46.933l1-.209 2.55-.209c.4.14.733.348 1 .627.3.278.533.58.7.905.167.325.283.627.35.906.1.278.167.51.2.696.067.279.15.534.25.766.1.186.15.465.15.836v.696c0 .233-.017.558-.05.975l.25.07-.25 1.184v4.875l-.3 1.463.45 1.81h2.05l1.3.349 2.4-1.741v-2.229l.05-.905-1-9.75c-.433-.372-.767-.744-1-1.115-.2-.418-.4-.813-.6-1.184a7.28 7.28 0 00-.55-1.114 1.66 1.66 0 00-.85-.697zM524.929 35.441l-1.7-.974-2.2-.558-1.6-.487-1.2.557v6.616l.15.836 3-.696 2.35.626.7-.696.5-5.224zm.35 23.192l-.85-.975.3-1.253V53.13l-.35-1.74v-4.806l-.6-.906-1.05-.07-.4.28-2-.21-.85.557-1.05 16.855.5.766h.9l.6-.279h3.85l.95-.627-.25-1.671.3-2.647zM549.609 39.62l-.8-.905h-3.45l-2.9 1.671-1.15.697-1.05.627-1.55-3.9h-3.5l-.9 1.81V53.55l.7 2.299 1.3-.697h.8l.75.627 2.4-.836-.3-6.686-.1-.14v-2.785l3.2-.487.9-.697h.6l1.15 2.299-.8 8.078.65.766h5.2l.5-.835v-8.358l.2-1.602-1.85-4.875zM574.786 51.32c0-.603.017-1.207.05-1.81.067-.604.1-1.184.1-1.741 0-.465-.017-.882-.05-1.254a6.49 6.49 0 00-.2-1.114 49.927 49.927 0 01-.2-1.393c-.067-.557-.15-1.277-.25-2.16a42.253 42.253 0 00-.2-2.019c-.067-.51-.35-.766-.85-.766-.2 0-.383-.023-.55-.07-.167-.046-.267-.116-.3-.209-.067 0-.15.093-.25.28l-.4.556c-.167.186-.35.349-.55.488a.907.907 0 01-.6.209c-.1 0-.233-.047-.4-.14a5.636 5.636 0 00-.55-.487 2.695 2.695 0 00-.8-.488c-.3-.185-.683-.325-1.15-.417-.8 0-1.75.278-2.85.835-1.067.557-2.083 1.37-3.05 2.438-.967 1.021-1.783 2.298-2.45 3.83-.667 1.532-1 3.297-1 5.293 0 .883.067 1.788.2 2.717.133.882.3 1.74.5 2.576l1.25 2.02c.533.232.95.441 1.25.627.333.186.617.371.85.557.267.186.517.325.75.418.267.046.6.07 1 .07.333 0 .8-.024 1.4-.07a27.201 27.201 0 001.9-.348c.667-.14 1.25-.256 1.75-.348.5-.093.817-.163.95-.21-.133.65-.217 1.463-.25 2.438a26 26 0 01-.15 2.786c-.1.975-.317 1.88-.65 2.716-.3.882-.817 1.579-1.55 2.09-.267.139-.783.37-1.55.696-.767.325-1.517.603-2.25.836-.967.371-1.617.65-1.95.835-.3.186-.467.349-.5.488a1.99 1.99 0 000 .627c.067.232.017.557-.15.975.133 0 .2.116.2.348v.07c0 .185.083.371.25.557.167.232.45.348.85.348 1.167 0 2.25-.186 3.25-.557 1-.372 1.85-.673 2.55-.906.367-.139.683-.255.95-.348.3-.093.6-.255.9-.487.333-.232.683-.604 1.05-1.115.367-.464.833-1.137 1.4-2.02.5-.974.967-2.181 1.4-3.62.467-1.394.7-3.158.7-5.294 0-.975-.017-2.02-.05-3.134-.033-1.114-.05-2.159-.05-3.134 0-.743.017-1.37.05-1.88.033-.511.117-.906.25-1.184zm-7.25-7.451c.5.046.917.116 1.25.209.367.046.667.208.9.487.233.279.417.697.55 1.254.167.51.333 1.23.5 2.159l-.3 6.546c-.5.418-.983.72-1.45.906-.433.139-.817.209-1.15.209h-1.15a9.164 9.164 0 00-1.15-.07h-.6l-1.2-1.81c0-1.254.117-2.6.35-4.04.267-1.486.933-3.088 2-4.806.2-.278.4-.51.6-.696a1.16 1.16 0 01.85-.348zM610.302 39.62l-.8-.905h-3.45l-2.9 1.671-1.15.697-1.05.627-1.55-3.9h-3.5l-.9 1.81V53.55l.7 2.299 1.3-.697h.8l.75.627 2.4-.836-.3-6.686-.1-.14v-2.785l3.2-.487.9-.697h.6l1.15 2.299-.8 8.078.65.766h5.2l.5-.835v-8.358l.2-1.602-1.85-4.875zM635.679 59.817l-.15-.278a1.3 1.3 0 00-.15-.627 4.737 4.737 0 01-.25-.766.84.84 0 00-.55.209c-.166.093-.35.209-.55.348a26.01 26.01 0 01-.65.348c-.233.093-.533.14-.9.14h-.25c-.4.046-.75.07-1.05.07-.3 0-.583.022-.85.069-.266 0-.533.023-.8.07h-.95c-.633-.14-1.05-.233-1.25-.28l-.25-.138h.05c.034 0-.016-.047-.15-.14-.033.047-.066.07-.1.07-.033 0-.066.023-.1.07h-.1a11.325 11.325 0 00-.9-.418c-.2-.093-.3-.256-.3-.488 0-.185-.166-.51-.5-.975-.3-.464-.45-.998-.45-1.602 0-.696.05-1.578.15-2.646.1-1.114.3-1.997.6-2.647.267-.232.734-.487 1.4-.766.667-.325 1.334-.487 2-.487.4 0 .7.093.9.278a1.516 1.516 0 01.75 1.323 4.8 4.8 0 01.05.697c0 .325-.083.557-.25.696-.166.14-.366.233-.6.279-.233.046-.466.07-.7.07-.233 0-.433.023-.6.07-.666.278-1.216.464-1.65.556-.4.093-.633.14-.7.14.167.093.284.278.35.557.067.279.117.58.15.905.034.279.05.557.05.836 0 .232.017.348.05.348 1.167 0 2.134-.07 2.9-.209.767-.139 1.4-.302 1.9-.487l1.2-.557c.3-.186.6-.302.9-.349.134-.464.284-.742.45-.835.167-.14.35-.372.55-.697-.066-.65-.183-1.3-.35-1.95a18.988 18.988 0 00-.45-1.88 14.69 14.69 0 00-.5-1.532c-.133-.418-.2-.674-.2-.767a.906.906 0 01-.6-.209 3.926 3.926 0 01-.35-.417 2.187 2.187 0 01-.15-.418c-.033-.14-.066-.21-.1-.21-.366 0-.65-.115-.85-.347a.891.891 0 01-.3-.349c-.533 0-.95-.092-1.25-.278a1.861 1.861 0 00-1-.279c-.833.418-1.733.72-2.7.906a5.597 5.597 0 00-2.5 1.184c-.4.464-.766.905-1.1 1.323a8.673 8.673 0 00-.9 1.393c-.266.51-.55 1.068-.85 1.671-.3.604-.6 1.324-.9 2.16a4.831 4.831 0 00-.35 1.114l-.1 1.114c0 .696.017 1.393.05 2.09.067.65.3 1.392.7 2.228.167.186.3.395.4.627l.2.348.3.348c.067 0 .117.14.15.418.067.232.117.348.15.348h.9c.4.325.717.604.95.836.234.186.45.325.65.418.2.046.417.093.65.14.234.046.534.069.9.069h.6c.234-.047.467-.07.7-.07h.65c.234 0 .517.047.85.14.734 0 1.334-.047 1.8-.14.5-.14.984-.302 1.45-.487.5-.186 1.017-.349 1.55-.488.567-.14 1.25-.232 2.05-.279.2-.092.434-.301.7-.626.3-.372.45-.604.45-.697 0-.139-.083-.209-.25-.209h.25zM652.648 49.37l1.15 6.826.7 1.044h3l2.7-.626 1.15-2.577 2.75-7.591 1.6-4.806.05-.975.65-1.463.25-.975-.25-.557h-3.1l-1.8-.209-1.2 2.02.05.766-3.7 10.795-1.95-6.965-1.85-6.685-1.95-.21-.75 3.483-3.6 10.586-.8-4.875-2-6.965-1.1-2.855-.6.07-1.15-.21-.6.14-.55 1.254 2.4 9.471 1.9 7.94.15.975.7 1.044h2.95l2.3-.626 1.15-3.761 1.35-3.482zM681.097 49.162v-4.388l-.1-2.786-.1-1.253v-8.288l-1-.975-.55.557-3.5-.488-.9 1.045v13.442l.8 9.332.5 1.672.7-.14h2.7l.8-.836.4-4.526.3-1.184-.05-1.184zm.4 20.406l-.35-3.274.15-1.044v-3.065l-1.4-.975h-3.9l-.6 1.045v6.338l1.1 1.392 1.7.488 1.35-.557 1.95-.348z" fill="#56321E"/></svg>