<svg width="1440" height="1768" viewBox="0 0 1440 1768" fill="none" xmlns="http://www.w3.org/2000/svg">
<mask id="mask0" mask-type="alpha" maskUnits="userSpaceOnUse" x="0" y="0" width="1440" height="1750">
<path d="M0 0H1440V1749.5L0 1225.4V0Z" fill="url(#paint0_linear)"/>
</mask>
<g mask="url(#mask0)">
<path d="M1440 1024V584H1260L630.5 974.5H571V1024H1440Z" fill="url(#paint1_linear)"/>
<g filter="url(#filter0_i)">
<path d="M1162.5 728L1447 910.5L1450 970L1116 728L1162.5 728Z" fill="#3F365C"/>
</g>
<path d="M1064.5 760V792.5L1477.5 1196L1450.5 1104L1064.5 760Z" fill="#332C4A"/>
<path d="M1016 792.5V823.5L1445 1357V1301L1016 792.5Z" fill="#332C4A"/>
<path d="M963.5 823V852L1453 1638.5V1562L963.5 823Z" fill="#332C4A"/>
<path d="M911.5 852V881.5L1341 1795H1389.5L911.5 852Z" fill="#332C4A"/>
<path d="M862 881.5V906.5L1147 1773.5H1164.5L862 881.5Z" fill="#332C4A"/>
<g filter="url(#filter1_i)">
<path d="M1116 760L1549.5 1105.5L1459.34 1111.75L1064.5 760L1116 760Z" fill="#3F365C"/>
</g>
<g filter="url(#filter2_i)">
<path d="M1064.5 792.5L1464 1182L1464 1323.5L1016 792.5L1064.5 792.5Z" fill="#3F365C"/>
</g>
<g filter="url(#filter3_i)">
<path d="M1016 823.5L1454.5 1368.5L1454.5 1566.5L963.5 823L1016 823.5Z" fill="#3F365C"/>
</g>
<mask id="mask1" mask-type="alpha" maskUnits="userSpaceOnUse" x="905" y="803" width="354" height="279">
<path d="M1016 823.501L1203 1055.5L1110 1045L963.499 823.001L1016 823.501Z" fill="#3F365C"/>
</mask>
<g mask="url(#mask1)">
<g filter="url(#filter4_d)">
<ellipse cx="1112" cy="928.5" rx="66" ry="11.5" fill="#A8F5FF"/>
</g>
</g>
<mask id="mask2" mask-type="alpha" maskUnits="userSpaceOnUse" x="959" y="774" width="396" height="293">
<path d="M1064.5 792.502L1307 1028L1224 1037.5L1016 792.502L1064.5 792.502Z" fill="#3F365C"/>
</mask>
<g mask="url(#mask2)">
<g filter="url(#filter5_d)">
<ellipse cx="1112" cy="928.5" rx="66" ry="11.5" fill="#A8F5FF"/>
</g>
</g>
<ellipse cx="1112" cy="928.5" rx="66" ry="11.5" fill="url(#paint2_linear)" fill-opacity="0.2"/>
<g filter="url(#filter6_i)">
<path d="M963.5 852L1475.5 1674.5L1475.5 1965.5L911.5 852L963.5 852Z" fill="#3F365C"/>
</g>
<g filter="url(#filter7_i)">
<path d="M911.501 881.5L1339 1790L1170 1790L862 881.5L911.501 881.5Z" fill="#3F365C"/>
</g>
<g filter="url(#filter8_i)">
<path d="M862 906.5L1148 1777L940 1777L811.5 906.5L862 906.5Z" fill="#3F365C"/>
</g>
<g filter="url(#filter9_i)">
<path d="M762.5 970L803.5 1790L723.001 1790L713.001 969.5L762.5 970Z" fill="#3F365C"/>
</g>
<g filter="url(#filter10_i)">
<path d="M712.656 1009L722.656 1778.5H674L664 1009H712.656Z" fill="#3F365C" fill-opacity="0.5"/>
</g>
<g filter="url(#filter11_i)">
<path d="M664.156 1045L674.156 1814.5H604L615.5 1045H664.156Z" fill="#3F365C" fill-opacity="0.2"/>
</g>
<g filter="url(#filter12_i)">
<path d="M611.156 1089L621.156 1858.5H551L562.5 1089H611.156Z" fill="#3F365C" fill-opacity="0.05"/>
</g>
<path d="M1262 634V665L1461.5 747.5L1466.5 712L1262 634Z" fill="#332C4A"/>
<path d="M1209.5 665V696.5L1448.5 818V773.817L1209.5 665Z" fill="#332C4A"/>
<g filter="url(#filter13_i)">
<path d="M1262 665L1480 755L1468.5 783L1209.5 665L1262 665Z" fill="#3F365C"/>
</g>
<path d="M1162.5 696.5V728L1444.5 909V852.5L1162.5 696.5Z" fill="#332C4A"/>
<path d="M1116 728V760L1449 1025.5V967L1116 728Z" fill="#332C4A"/>
<g filter="url(#filter14_i)">
<path d="M1209.5 696.5L1443 815L1443 857.5L1162.5 696.5L1209.5 696.5Z" fill="#3F365C"/>
</g>
<path d="M1364.69 634.072L1476.5 634.072L1476.5 685.5L1310.5 634.072L1364.69 634.072Z" fill="#3F365C"/>
<g filter="url(#filter15_i)">
<path d="M1310.5 634L1446 676L1449 705.5L1262 634L1310.5 634Z" fill="#332C4A"/>
</g>
<g filter="url(#filter16_i)">
<path d="M811.501 937L875 1774L802.501 1774L761.248 936.87L811.501 937Z" fill="#3F365C"/>
</g>
<path d="M811.5 906.5V937L873.5 1774.5H942L811.5 906.5Z" fill="#332C4A"/>
<rect x="663" y="1034" width="855" height="734" fill="url(#paint3_linear)"/>
</g>
<rect x="817" y="1034" width="203" height="7" transform="rotate(-90 817 1034)" fill="url(#paint4_linear)"/>
<rect x="1171" y="782" width="159" height="7" transform="rotate(-90 1171 782)" fill="url(#paint5_linear)"/>
<rect x="1351" y="724" width="203" height="7" transform="rotate(-90 1351 724)" fill="url(#paint6_linear)"/>
<rect x="994" y="922" width="197" height="7" transform="rotate(-90 994 922)" fill="url(#paint7_linear)"/>
<rect x="560" y="973.706" width="1027" height="9.55107" transform="rotate(-30.1422 560 973.706)" fill="url(#paint8_linear)"/>
<rect x="562" y="976.706" width="1027" height="2.93193" transform="rotate(-30.1422 562 976.706)" fill="url(#paint9_linear)"/>
<rect x="529" y="941.362" width="1100" height="9.55107" transform="rotate(-30.1422 529 941.362)" fill="url(#paint10_linear)"/>
<rect x="532" y="944.362" width="1027" height="2.93193" transform="rotate(-30.1422 532 944.362)" fill="url(#paint11_linear)"/>
<path d="M1048.7 883.727L1010.99 617.585L1019.61 618.662L1176.93 883.727C1176.93 883.727 1170.63 911.402 1121.97 913.897C1079.95 916.052 1048.7 883.727 1048.7 883.727Z" fill="url(#paint12_linear)"/>
<mask id="mask3" mask-type="alpha" maskUnits="userSpaceOnUse" x="1010" y="617" width="167" height="298">
<path d="M1048.7 883.727L1010.99 617.585L1019.61 618.662L1176.93 883.727C1176.93 883.727 1170.63 911.402 1121.97 913.897C1079.95 916.052 1048.7 883.727 1048.7 883.727Z" fill="url(#paint13_linear)"/>
</mask>
<g mask="url(#mask3)">
<path d="M1059.26 685.467C1054.09 687.622 1047.39 688.437 1041.16 686.545M1036.85 808.302C1057.59 829.662 1067.76 849.423 1079.95 888.037" stroke="url(#paint14_linear)" stroke-width="1.0775" stroke-linejoin="round"/>
<path d="M1045.47 883.727L1033.86 813.689C1053.61 834.032 1062.58 851.946 1073.92 886.959L1045.47 883.727Z" fill="#9B9B9B" stroke="#9B9B9B" stroke-width="1.0775" stroke-linejoin="round"/>
<path d="M1051.94 830.929H997.197" stroke="white" stroke-opacity="0.5" stroke-width="0.6465" stroke-linejoin="round"/>
<path d="M1054.09 835.239H999.351" stroke="white" stroke-opacity="0.5" stroke-width="0.6465" stroke-linejoin="round"/>
<path d="M1056.25 839.549H1001.51" stroke="white" stroke-opacity="0.5" stroke-width="0.6465" stroke-linejoin="round"/>
<path d="M1058.4 843.859H1003.66" stroke="white" stroke-opacity="0.5" stroke-width="0.6465" stroke-linejoin="round"/>
<path d="M1060.56 848.17H1005.82" stroke="white" stroke-opacity="0.5" stroke-width="0.6465" stroke-linejoin="round"/>
<path d="M1064.87 852.479H1010.13" stroke="white" stroke-opacity="0.5" stroke-width="0.6465" stroke-linejoin="round"/>
<path d="M1067.02 856.789H1012.28" stroke="white" stroke-opacity="0.5" stroke-width="0.6465" stroke-linejoin="round"/>
<path d="M1069.18 861.099H1014.44" stroke="white" stroke-opacity="0.5" stroke-width="0.6465" stroke-linejoin="round"/>
<path d="M1069.18 865.409H1014.44" stroke="white" stroke-opacity="0.5" stroke-width="0.6465" stroke-linejoin="round"/>
<path d="M1071.33 869.719H1016.59" stroke="white" stroke-opacity="0.5" stroke-width="0.6465" stroke-linejoin="round"/>
<path d="M1071.33 874.029H1016.59" stroke="white" stroke-opacity="0.5" stroke-width="0.6465" stroke-linejoin="round"/>
<path d="M1073.49 878.339H1018.75" stroke="white" stroke-opacity="0.5" stroke-width="0.6465" stroke-linejoin="round"/>
<path d="M1073.49 882.649H1018.75" stroke="white" stroke-opacity="0.5" stroke-width="0.6465" stroke-linejoin="round"/>
<path d="M1048.7 883.727C1096.11 891.269 1132.75 890.192 1176.93 883.727" stroke="#9B9B9B" stroke-width="1.0775" stroke-linejoin="round"/>
<path d="M1112.98 775.977C1095.33 775.329 1108.9 813.797 1130.38 875.106M1134.9 888.037C1133.36 883.623 1131.85 879.311 1130.38 875.106M1130.38 875.106H1075.64" stroke="#9B9B9B" stroke-width="1.0775" stroke-linejoin="round"/>
</g>
<path d="M988.733 610.02C983.655 608.706 982.703 595.411 986.607 580.323C990.511 565.236 997.792 554.07 1002.87 555.384C1002.87 555.384 1068.47 582.365 1054.09 611.119C1042.24 634.824 988.733 610.02 988.733 610.02Z" fill="url(#paint15_linear)"/>
<ellipse rx="9.49724" ry="28.2176" transform="matrix(-0.968118 -0.250493 -0.250493 0.968118 995.778 582.697)" fill="#4F4F4F"/>
<ellipse rx="3.00833" ry="8.93817" transform="matrix(-0.983711 -0.179756 -0.179756 0.983711 996.727 578.426)" fill="#A8F5FF"/>
<mask id="mask4" mask-type="alpha" maskUnits="userSpaceOnUse" x="979" y="553" width="34" height="60">
<ellipse rx="9.49724" ry="28.2176" transform="matrix(-0.968118 -0.250493 -0.250493 0.968118 995.778 582.697)" fill="#3F3F3F"/>
</mask>
<g mask="url(#mask4)">
<path d="M995.905 593.88C992.026 599.343 988.363 600.345 982.975 599.267" stroke="#A8F5FF" stroke-width="1.5085" stroke-linecap="round"/>
</g>
<rect width="12.93" height="8.62" rx="4.31" transform="matrix(-1 0 0 1 1138.14 848.17)" fill="#9B9B9B"/>
<circle r="10.775" transform="matrix(-1 0 0 1 1042.02 716.715)" fill="#9B9B9B"/>
<circle r="2.155" transform="matrix(-1 0 0 1 1133.83 852.48)" fill="#A8F5FF"/>
<path d="M1047.03 712.665C1046.06 709.231 1042.93 707.376 1039.49 708.355C1036.06 709.334 1034.81 712.529 1035.79 715.962C1035.79 715.962 1070.74 830.112 1072.89 833.345C1075.05 836.577 1077.2 839.04 1078.28 838.732C1080.18 838.189 1080.34 833.546 1079.36 830.112L1047.03 712.665Z" fill="url(#paint16_linear)"/>
<rect x="617" y="1136.71" width="1027" height="9.55107" transform="rotate(-30.1422 617 1136.71)" fill="url(#paint17_linear)"/>
<rect x="619" y="1139.71" width="1027" height="2.93193" transform="rotate(-30.1422 619 1139.71)" fill="url(#paint18_linear)"/>
<rect x="1324" y="953" width="256" height="16" transform="rotate(-90 1324 953)" fill="url(#paint19_linear)"/>
<rect x="1083" y="1148" width="312" height="16" transform="rotate(-90 1083 1148)" fill="url(#paint20_linear)"/>
<rect x="1332" y="953" width="260" height="16" transform="rotate(-90 1332 953)" fill="url(#paint21_linear)"/>
<rect x="1091" y="1148" width="316" height="16" transform="rotate(-90 1091 1148)" fill="url(#paint22_linear)"/>
<rect x="597.321" y="1099.46" width="1027" height="17.0045" transform="rotate(-30.1422 597.321 1099.46)" fill="url(#paint23_linear)"/>
<rect x="604" y="1114.71" width="1027" height="9.55107" transform="rotate(-30.1422 604 1114.71)" fill="url(#paint24_radial)"/>
<g filter="url(#filter17_f)">
<path d="M1441.5 1704.5L0 1179.5V1056L1441.5 1591V1704.5Z" fill="url(#paint25_linear)" fill-opacity="0.4"/>
</g>
<path d="M286 1184L1646 1688.5" stroke="url(#paint26_linear)" stroke-opacity="0.2" stroke-width="5"/>
<path d="M-229.969 588.856L2003.15 1401.64L1800.5 1855L-432.618 1042.21L-229.969 588.856Z" fill="url(#paint27_linear)" fill-opacity="0.2"/>
<rect x="-224.457" y="579" width="2376.43" height="11.1517" transform="rotate(20 -224.457 579)" fill="#333333"/>
<path d="M336 1226.5L325 1029H424L406 1252.5L336 1226.5Z" fill="url(#paint28_linear)"/>
<path d="M472.838 707.3C472.838 695.9 477.113 681.651 477.113 681.651L432.941 670.252L403.018 705.875L395.893 720.124L387.344 737.223L417.267 757.171C417.267 757.171 421.541 750.047 424.391 745.772C425.367 744.308 427.761 745.688 428.666 747.197C432.941 754.321 434.407 759.383 441.49 758.596C447.747 757.901 451.075 751.17 454.314 745.772C458.589 738.647 461.439 730.098 464.288 730.098C466.295 730.098 465.713 731.523 468.563 732.948C471.413 734.373 474.263 732.406 474.263 728.673C474.263 725.823 473.679 722.662 472.838 718.699C472.021 714.85 472.838 711.234 472.838 707.3Z" fill="#7E5950"/>
<path d="M387.34 737.221L417.263 757.17C417.263 757.17 418.846 754.53 420.728 751.501L389.11 733.681L388.52 734.861L387.34 737.221Z" fill="#754C46" fill-opacity="0.5"/>
<path d="M421.542 690.2C420.892 702.963 424.514 707.39 434.366 712.999" stroke="#503833" stroke-width="2.8498"/>
<path d="M471.413 640.329C465.782 641.385 462.863 644.129 457.164 646.029C448.614 648.879 438.64 647.454 421.541 647.454C418.297 647.454 414.786 647.051 411.567 647.454C400.168 648.879 395.893 662.215 397.318 668.827C398.263 673.213 400.168 677.897 400.168 684.501C400.168 691.626 400.168 701.6 398.743 715.849C398.6 717.275 418.691 718.699 418.691 718.699C418.691 718.699 421.541 714.424 422.966 708.724C423.657 705.96 422.966 703.025 422.966 700.175C422.967 695.724 422.966 693.05 422.966 688.776C422.967 682.783 433.846 680.905 438.64 684.501C444.34 688.776 439.251 711.574 444.34 704.45C447.574 699.922 448.615 685.926 452.889 683.076C459.518 678.657 466.375 683.374 474.262 684.501C484.237 685.926 492.256 679.94 494.211 667.402C496.514 652.629 486.109 637.574 471.413 640.329Z" fill="#333333"/>
<path d="M464.288 697.325C468.55 692.872 471.323 691.475 477.112 691.625" stroke="#333333" stroke-width="2.8498"/>
<path d="M429.495 699.778C431.458 696.18 432.95 694.868 436.506 694.23" stroke="#503833" stroke-width="2.8498"/>
<path d="M459.01 739.593C453.569 736.696 451.474 734.405 450.051 728.791" stroke="#333333" stroke-width="2.8498"/>
<path d="M460.014 858.339L447.19 831.266L427.241 856.914C427.241 856.914 430.814 869.578 435.791 878.288C441.49 888.262 451.465 900.196 460.014 899.661C475.688 898.682 497.061 834.116 497.061 834.116C497.061 834.116 511.31 831.266 518.435 825.566C527.032 818.688 526.87 808.168 526.158 803C524.5 801.5 523 799.918 523 799.918H514.16L492.787 814.167L460.014 858.339Z" fill="url(#paint29_linear)"/>
<mask id="mask5" mask-type="alpha" maskUnits="userSpaceOnUse" x="427" y="799" width="100" height="101">
<path d="M460.013 858.341L447.189 831.268L427.24 856.916C427.24 856.916 430.813 869.58 435.79 878.29C441.489 888.264 451.464 900.198 460.013 899.663C475.687 898.684 497.06 834.118 497.06 834.118C497.06 834.118 511.309 831.268 518.434 825.568C530.2 816.155 525.558 799.92 525.558 799.92H514.159L492.786 814.169L460.013 858.341Z" fill="url(#paint30_linear)"/>
</mask>
<g mask="url(#mask5)">
<path d="M461 854.7L451 868.199" stroke="#503833" stroke-width="2.8"/>
<path d="M505.5 815.5C508 818 504.5 831.5 502.5 834.5" stroke="#503833" stroke-width="2.8"/>
<path d="M513 810C514.5 813.5 513 819 511.5 831.5" stroke="#503833" stroke-width="2.8"/>
<path d="M519.5 803C520.011 811.06 520.357 823.551 518.5 829" stroke="#503833" stroke-width="2.8"/>
</g>
<path d="M422.966 757.171L384.494 732.948C330.348 788.519 326.073 891.112 299 1029.33H450.04L434.366 865.463L447.19 831.266L422.966 771.42V757.171Z" fill="url(#paint31_linear)"/>
<mask id="mask6" mask-type="alpha" maskUnits="userSpaceOnUse" x="299" y="732" width="152" height="298">
<path d="M422.966 757.171L384.494 732.948C330.348 788.519 326.073 891.112 299 1029.33H450.04L434.366 865.463L447.19 831.266L422.966 771.42V757.171Z" fill="url(#paint32_linear)"/>
</mask>
<g mask="url(#mask6)">
<path d="M365.97 755.745C365.97 755.745 385.275 749.999 393.044 757.171C411.567 774.271 393.044 844.089 393.044 844.089L334.623 822.716" stroke="#C26E32" stroke-width="2.8498"/>
<path d="M380.219 735.797L414.417 772.845L424.391 754.321L435.791 868.313" stroke="#C26E32" stroke-width="2.8498"/>
</g>
<path d="M375.943 838.39L337.757 825.281C337.757 825.281 333.565 838.766 333.196 848.364C330.846 909.507 339.444 1000.73 341.747 1030.75C341.747 1036.45 339.528 1041.4 339.528 1041.4C339.528 1041.4 333.197 1052.13 330.346 1060.67C329.709 1062.59 330.152 1065.4 331.771 1066.37C333.39 1067.35 335.42 1063.92 337.472 1064.95C339.525 1065.98 338.225 1068.18 340.322 1069.22C342.42 1070.27 343.088 1064.99 346.02 1066.37C347.833 1067.23 346.988 1069.95 348.87 1070.65C351.204 1071.51 352.082 1067.88 354.569 1067.8C357.812 1067.69 357.422 1073.5 360.272 1070.65C364.779 1066.14 358.844 1036.45 358.844 1036.45L361.694 892.536L375.943 838.39Z" fill="#775249"/>
<path d="M497.651 822.532C496.538 821.419 496.538 819.615 497.651 818.502L533.954 782.199C535.067 781.086 536.871 781.086 537.984 782.199L497.651 822.532Z" fill="#A8F5FF"/>
<path d="M497.651 822.532L537.984 782.198C539.097 783.311 539.097 785.116 537.984 786.229L501.681 822.532C500.568 823.645 498.764 823.645 497.651 822.532Z" fill="#3D3D3D"/>
<ellipse cx="465.962" cy="704.157" rx="2" ry="2.5" transform="rotate(29.0343 465.962 704.157)" fill="#333333"/>
<rect x="-324.342" y="659.934" width="2376.43" height="420.42" transform="rotate(20 -324.342 659.934)" fill="#6AFBF6" fill-opacity="0.2"/>
<rect x="-272.616" y="668.039" width="2376.43" height="13.3443" transform="rotate(20 -272.616 668.039)" fill="#333333"/>
<mask id="mask7" mask-type="alpha" maskUnits="userSpaceOnUse" x="-289" y="314" width="2310" height="1444">
<path fill-rule="evenodd" clip-rule="evenodd" d="M2008.66 1391.79L-224.461 579L-228.275 589.479L2004.84 1402.27L2008.66 1391.79ZM1960.5 1480.83L-272.613 668.038L-277.177 680.577L1955.94 1493.37L1960.5 1480.83Z" fill="#333333"/>
</mask>
<g mask="url(#mask7)">
<rect x="43.9995" y="602.001" width="307" height="322" fill="url(#paint33_linear)" fill-opacity="0.05"/>
<rect x="43.9995" y="602.001" width="307" height="322" fill="url(#paint34_radial)"/>
</g>
<path d="M1433 1749.5L-8.5 1224.5V1101L1433 1636V1749.5Z" fill="url(#paint35_linear)"/>
<path d="M35 1134.5L1395 1639" stroke="url(#paint36_linear)" stroke-width="10"/>
<path d="M-69 1113.5L1291 1618" stroke="url(#paint37_linear)" stroke-opacity="0.5" stroke-width="5"/>
<defs>
<filter id="filter0_i" x="1081.61" y="710.625" width="411.583" height="259.375" filterUnits="userSpaceOnUse" color-interpolation-filters="sRGB">
<feFlood flood-opacity="0" result="BackgroundImageFix"/>
<feBlend mode="normal" in="SourceGraphic" in2="BackgroundImageFix" result="shape"/>
<feColorMatrix in="SourceAlpha" type="matrix" values="0 0 0 0 0 0 0 0 0 0 0 0 0 0 0 0 0 0 127 0" result="hardAlpha"/>
<feOffset dx="2"/>
<feGaussianBlur stdDeviation="0.5"/>
<feComposite in2="hardAlpha" operator="arithmetic" k2="-1" k3="1"/>
<feColorMatrix type="matrix" values="0 0 0 0 0.64 0 0 0 0 0.64 0 0 0 0 0.64 0 0 0 1 0"/>
<feBlend mode="normal" in2="shape" result="effect1_innerShadow"/>
</filter>
<filter id="filter1_i" x="999.308" y="740.756" width="607.564" height="403.631" filterUnits="userSpaceOnUse" color-interpolation-filters="sRGB">
<feFlood flood-opacity="0" result="BackgroundImageFix"/>
<feBlend mode="normal" in="SourceGraphic" in2="BackgroundImageFix" result="shape"/>
<feColorMatrix in="SourceAlpha" type="matrix" values="0 0 0 0 0 0 0 0 0 0 0 0 0 0 0 0 0 0 127 0" result="hardAlpha"/>
<feOffset dx="2"/>
<feGaussianBlur stdDeviation="0.5"/>
<feComposite in2="hardAlpha" operator="arithmetic" k2="-1" k3="1"/>
<feColorMatrix type="matrix" values="0 0 0 0 0.64 0 0 0 0 0.64 0 0 0 0 0.64 0 0 0 1 0"/>
<feBlend mode="normal" in2="shape" result="effect1_innerShadow"/>
</filter>
<filter id="filter2_i" x="892.746" y="774.377" width="703.644" height="549.123" filterUnits="userSpaceOnUse" color-interpolation-filters="sRGB">
<feFlood flood-opacity="0" result="BackgroundImageFix"/>
<feBlend mode="normal" in="SourceGraphic" in2="BackgroundImageFix" result="shape"/>
<feColorMatrix in="SourceAlpha" type="matrix" values="0 0 0 0 0 0 0 0 0 0 0 0 0 0 0 0 0 0 127 0" result="hardAlpha"/>
<feOffset dx="2"/>
<feGaussianBlur stdDeviation="0.5"/>
<feComposite in2="hardAlpha" operator="arithmetic" k2="-1" k3="1"/>
<feColorMatrix type="matrix" values="0 0 0 0 0.64 0 0 0 0 0.64 0 0 0 0 0.64 0 0 0 1 0"/>
<feBlend mode="normal" in2="shape" result="effect1_innerShadow"/>
</filter>
<filter id="filter3_i" x="768.057" y="803.799" width="891.506" height="762.701" filterUnits="userSpaceOnUse" color-interpolation-filters="sRGB">
<feFlood flood-opacity="0" result="BackgroundImageFix"/>
<feBlend mode="normal" in="SourceGraphic" in2="BackgroundImageFix" result="shape"/>
<feColorMatrix in="SourceAlpha" type="matrix" values="0 0 0 0 0 0 0 0 0 0 0 0 0 0 0 0 0 0 127 0" result="hardAlpha"/>
<feOffset dx="2"/>
<feGaussianBlur stdDeviation="0.5"/>
<feComposite in2="hardAlpha" operator="arithmetic" k2="-1" k3="1"/>
<feColorMatrix type="matrix" values="0 0 0 0 0.64 0 0 0 0 0.64 0 0 0 0 0.64 0 0 0 1 0"/>
<feBlend mode="normal" in2="shape" result="effect1_innerShadow"/>
</filter>
<filter id="filter4_d" x="1036" y="911" width="152" height="43" filterUnits="userSpaceOnUse" color-interpolation-filters="sRGB">
<feFlood flood-opacity="0" result="BackgroundImageFix"/>
<feColorMatrix in="SourceAlpha" type="matrix" values="0 0 0 0 0 0 0 0 0 0 0 0 0 0 0 0 0 0 127 0"/>
<feOffset dy="4"/>
<feGaussianBlur stdDeviation="5"/>
<feColorMatrix type="matrix" values="0 0 0 0 0.658824 0 0 0 0 0.960784 0 0 0 0 1 0 0 0 0.7 0"/>
<feBlend mode="normal" in2="BackgroundImageFix" result="effect1_dropShadow"/>
<feBlend mode="normal" in="SourceGraphic" in2="effect1_dropShadow" result="shape"/>
</filter>
<filter id="filter5_d" x="1036" y="911" width="152" height="43" filterUnits="userSpaceOnUse" color-interpolation-filters="sRGB">
<feFlood flood-opacity="0" result="BackgroundImageFix"/>
<feColorMatrix in="SourceAlpha" type="matrix" values="0 0 0 0 0 0 0 0 0 0 0 0 0 0 0 0 0 0 127 0"/>
<feOffset dy="4"/>
<feGaussianBlur stdDeviation="5"/>
<feColorMatrix type="matrix" values="0 0 0 0 0.658824 0 0 0 0 0.960784 0 0 0 0 1 0 0 0 0.7 0"/>
<feBlend mode="normal" in2="BackgroundImageFix" result="effect1_dropShadow"/>
<feBlend mode="normal" in="SourceGraphic" in2="effect1_dropShadow" result="shape"/>
</filter>
<filter id="filter6_i" x="590.049" y="832.57" width="1216.62" height="1132.93" filterUnits="userSpaceOnUse" color-interpolation-filters="sRGB">
<feFlood flood-opacity="0" result="BackgroundImageFix"/>
<feBlend mode="normal" in="SourceGraphic" in2="BackgroundImageFix" result="shape"/>
<feColorMatrix in="SourceAlpha" type="matrix" values="0 0 0 0 0 0 0 0 0 0 0 0 0 0 0 0 0 0 127 0" result="hardAlpha"/>
<feOffset dx="2"/>
<feGaussianBlur stdDeviation="0.5"/>
<feComposite in2="hardAlpha" operator="arithmetic" k2="-1" k3="1"/>
<feColorMatrix type="matrix" values="0 0 0 0 0.64 0 0 0 0 0.64 0 0 0 0 0.64 0 0 0 1 0"/>
<feBlend mode="normal" in2="shape" result="effect1_innerShadow"/>
</filter>
<filter id="filter7_i" x="574.202" y="863.004" width="1033.55" height="990.145" filterUnits="userSpaceOnUse" color-interpolation-filters="sRGB">
<feFlood flood-opacity="0" result="BackgroundImageFix"/>
<feBlend mode="normal" in="SourceGraphic" in2="BackgroundImageFix" result="shape"/>
<feColorMatrix in="SourceAlpha" type="matrix" values="0 0 0 0 0 0 0 0 0 0 0 0 0 0 0 0 0 0 127 0" result="hardAlpha"/>
<feOffset dx="2"/>
<feGaussianBlur stdDeviation="0.5"/>
<feComposite in2="hardAlpha" operator="arithmetic" k2="-1" k3="1"/>
<feColorMatrix type="matrix" values="0 0 0 0 0.64 0 0 0 0 0.64 0 0 0 0 0.64 0 0 0 1 0"/>
<feBlend mode="normal" in2="shape" result="effect1_innerShadow"/>
</filter>
<filter id="filter8_i" x="507.786" y="887.63" width="918.504" height="967.091" filterUnits="userSpaceOnUse" color-interpolation-filters="sRGB">
<feFlood flood-opacity="0" result="BackgroundImageFix"/>
<feBlend mode="normal" in="SourceGraphic" in2="BackgroundImageFix" result="shape"/>
<feColorMatrix in="SourceAlpha" type="matrix" values="0 0 0 0 0 0 0 0 0 0 0 0 0 0 0 0 0 0 127 0" result="hardAlpha"/>
<feOffset dx="2"/>
<feGaussianBlur stdDeviation="0.5"/>
<feComposite in2="hardAlpha" operator="arithmetic" k2="-1" k3="1"/>
<feColorMatrix type="matrix" values="0 0 0 0 0.64 0 0 0 0 0.64 0 0 0 0 0.64 0 0 0 1 0"/>
<feBlend mode="normal" in2="shape" result="effect1_innerShadow"/>
</filter>
<filter id="filter9_i" x="408.089" y="951.42" width="695.936" height="868.66" filterUnits="userSpaceOnUse" color-interpolation-filters="sRGB">
<feFlood flood-opacity="0" result="BackgroundImageFix"/>
<feBlend mode="normal" in="SourceGraphic" in2="BackgroundImageFix" result="shape"/>
<feColorMatrix in="SourceAlpha" type="matrix" values="0 0 0 0 0 0 0 0 0 0 0 0 0 0 0 0 0 0 127 0" result="hardAlpha"/>
<feOffset dx="2"/>
<feGaussianBlur stdDeviation="0.5"/>
<feComposite in2="hardAlpha" operator="arithmetic" k2="-1" k3="1"/>
<feColorMatrix type="matrix" values="0 0 0 0 0.64 0 0 0 0 0.64 0 0 0 0 0.64 0 0 0 1 0"/>
<feBlend mode="normal" in2="shape" result="effect1_innerShadow"/>
</filter>
<filter id="filter10_i" x="664" y="1009" width="59.6559" height="769.5" filterUnits="userSpaceOnUse" color-interpolation-filters="sRGB">
<feFlood flood-opacity="0" result="BackgroundImageFix"/>
<feBlend mode="normal" in="SourceGraphic" in2="BackgroundImageFix" result="shape"/>
<feColorMatrix in="SourceAlpha" type="matrix" values="0 0 0 0 0 0 0 0 0 0 0 0 0 0 0 0 0 0 127 0" result="hardAlpha"/>
<feOffset dx="2"/>
<feGaussianBlur stdDeviation="0.5"/>
<feComposite in2="hardAlpha" operator="arithmetic" k2="-1" k3="1"/>
<feColorMatrix type="matrix" values="0 0 0 0 0.64 0 0 0 0 0.64 0 0 0 0 0.64 0 0 0 1 0"/>
<feBlend mode="normal" in2="shape" result="effect1_innerShadow"/>
</filter>
<filter id="filter11_i" x="604" y="1045" width="71.1559" height="769.5" filterUnits="userSpaceOnUse" color-interpolation-filters="sRGB">
<feFlood flood-opacity="0" result="BackgroundImageFix"/>
<feBlend mode="normal" in="SourceGraphic" in2="BackgroundImageFix" result="shape"/>
<feColorMatrix in="SourceAlpha" type="matrix" values="0 0 0 0 0 0 0 0 0 0 0 0 0 0 0 0 0 0 127 0" result="hardAlpha"/>
<feOffset dx="2"/>
<feGaussianBlur stdDeviation="0.5"/>
<feComposite in2="hardAlpha" operator="arithmetic" k2="-1" k3="1"/>
<feColorMatrix type="matrix" values="0 0 0 0 0.64 0 0 0 0 0.64 0 0 0 0 0.64 0 0 0 1 0"/>
<feBlend mode="normal" in2="shape" result="effect1_innerShadow"/>
</filter>
<filter id="filter12_i" x="551" y="1089" width="71.1559" height="769.5" filterUnits="userSpaceOnUse" color-interpolation-filters="sRGB">
<feFlood flood-opacity="0" result="BackgroundImageFix"/>
<feBlend mode="normal" in="SourceGraphic" in2="BackgroundImageFix" result="shape"/>
<feColorMatrix in="SourceAlpha" type="matrix" values="0 0 0 0 0 0 0 0 0 0 0 0 0 0 0 0 0 0 127 0" result="hardAlpha"/>
<feOffset dx="2"/>
<feGaussianBlur stdDeviation="0.5"/>
<feComposite in2="hardAlpha" operator="arithmetic" k2="-1" k3="1"/>
<feColorMatrix type="matrix" values="0 0 0 0 0.64 0 0 0 0 0.64 0 0 0 0 0.64 0 0 0 1 0"/>
<feBlend mode="normal" in2="shape" result="effect1_innerShadow"/>
</filter>
<filter id="filter13_i" x="1208.86" y="638.826" width="273.031" height="144.175" filterUnits="userSpaceOnUse" color-interpolation-filters="sRGB">
<feFlood flood-opacity="0" result="BackgroundImageFix"/>
<feBlend mode="normal" in="SourceGraphic" in2="BackgroundImageFix" result="shape"/>
<feColorMatrix in="SourceAlpha" type="matrix" values="0 0 0 0 0 0 0 0 0 0 0 0 0 0 0 0 0 0 127 0" result="hardAlpha"/>
<feOffset dx="2"/>
<feGaussianBlur stdDeviation="0.5"/>
<feComposite in2="hardAlpha" operator="arithmetic" k2="-1" k3="1"/>
<feColorMatrix type="matrix" values="0 0 0 0 0.64 0 0 0 0 0.64 0 0 0 0 0.64 0 0 0 1 0"/>
<feBlend mode="normal" in2="shape" result="effect1_innerShadow"/>
</filter>
<filter id="filter14_i" x="1149.4" y="678.938" width="315.585" height="178.562" filterUnits="userSpaceOnUse" color-interpolation-filters="sRGB">
<feFlood flood-opacity="0" result="BackgroundImageFix"/>
<feBlend mode="normal" in="SourceGraphic" in2="BackgroundImageFix" result="shape"/>
<feColorMatrix in="SourceAlpha" type="matrix" values="0 0 0 0 0 0 0 0 0 0 0 0 0 0 0 0 0 0 127 0" result="hardAlpha"/>
<feOffset dx="2"/>
<feGaussianBlur stdDeviation="0.5"/>
<feComposite in2="hardAlpha" operator="arithmetic" k2="-1" k3="1"/>
<feColorMatrix type="matrix" values="0 0 0 0 0.64 0 0 0 0 0.64 0 0 0 0 0.64 0 0 0 1 0"/>
<feBlend mode="normal" in2="shape" result="effect1_innerShadow"/>
</filter>
<filter id="filter15_i" x="1262" y="600.2" width="198.52" height="115.67" filterUnits="userSpaceOnUse" color-interpolation-filters="sRGB">
<feFlood flood-opacity="0" result="BackgroundImageFix"/>
<feBlend mode="normal" in="SourceGraphic" in2="BackgroundImageFix" result="shape"/>
<feColorMatrix in="SourceAlpha" type="matrix" values="0 0 0 0 0 0 0 0 0 0 0 0 0 0 0 0 0 0 127 0" result="hardAlpha"/>
<feOffset dx="2"/>
<feGaussianBlur stdDeviation="0.5"/>
<feComposite in2="hardAlpha" operator="arithmetic" k2="-1" k3="1"/>
<feColorMatrix type="matrix" values="0 0 0 0 0.64 0 0 0 0 0.64 0 0 0 0 0.64 0 0 0 1 0"/>
<feBlend mode="normal" in2="shape" result="effect1_innerShadow"/>
</filter>
<filter id="filter16_i" x="455.365" y="918.201" width="722.736" height="882.889" filterUnits="userSpaceOnUse" color-interpolation-filters="sRGB">
<feFlood flood-opacity="0" result="BackgroundImageFix"/>
<feBlend mode="normal" in="SourceGraphic" in2="BackgroundImageFix" result="shape"/>
<feColorMatrix in="SourceAlpha" type="matrix" values="0 0 0 0 0 0 0 0 0 0 0 0 0 0 0 0 0 0 127 0" result="hardAlpha"/>
<feOffset dx="2"/>
<feGaussianBlur stdDeviation="0.5"/>
<feComposite in2="hardAlpha" operator="arithmetic" k2="-1" k3="1"/>
<feColorMatrix type="matrix" values="0 0 0 0 0.64 0 0 0 0 0.64 0 0 0 0 0.64 0 0 0 1 0"/>
<feBlend mode="normal" in2="shape" result="effect1_innerShadow"/>
</filter>
<filter id="filter17_f" x="-2" y="1054" width="1445.5" height="652.5" filterUnits="userSpaceOnUse" color-interpolation-filters="sRGB">
<feFlood flood-opacity="0" result="BackgroundImageFix"/>
<feBlend mode="normal" in="SourceGraphic" in2="BackgroundImageFix" result="shape"/>
<feGaussianBlur stdDeviation="1" result="effect1_foregroundBlur"/>
</filter>
<linearGradient id="paint0_linear" x1="720" y1="15.5" x2="720" y2="1344" gradientUnits="userSpaceOnUse">
<stop stop-color="#FDEBBB"/>
<stop offset="0.505208" stop-color="#FDA894"/>
<stop offset="1" stop-color="#4A8BB7"/>
</linearGradient>
<linearGradient id="paint1_linear" x1="1376.5" y1="472" x2="623" y2="993.5" gradientUnits="userSpaceOnUse">
<stop stop-color="#534678"/>
<stop offset="1" stop-color="#534678" stop-opacity="0"/>
</linearGradient>
<linearGradient id="paint2_linear" x1="1125" y1="918.5" x2="1120.5" y2="938.5" gradientUnits="userSpaceOnUse">
<stop stop-color="#A8F5FF"/>
<stop offset="1" stop-color="#A8F5FF" stop-opacity="0"/>
</linearGradient>
<linearGradient id="paint3_linear" x1="1090.5" y1="1034" x2="1090.5" y2="1768" gradientUnits="userSpaceOnUse">
<stop stop-color="#4A8BB7" stop-opacity="0"/>
<stop offset="0.568065" stop-color="#4A8BB7"/>
</linearGradient>
<linearGradient id="paint4_linear" x1="1010.63" y1="1037.5" x2="817" y2="1037.5" gradientUnits="userSpaceOnUse">
<stop stop-color="#C0CDD2"/>
<stop offset="0.464736" stop-color="#657880"/>
<stop offset="0.757809" stop-color="#255970"/>
</linearGradient>
<linearGradient id="paint5_linear" x1="1322.66" y1="785.5" x2="1171" y2="785.5" gradientUnits="userSpaceOnUse">
<stop stop-color="#C0CDD2"/>
<stop offset="0.464736" stop-color="#657880"/>
<stop offset="0.757809" stop-color="#255970"/>
</linearGradient>
<linearGradient id="paint6_linear" x1="1544.63" y1="727.5" x2="1351" y2="727.5" gradientUnits="userSpaceOnUse">
<stop stop-color="#C0CDD2"/>
<stop offset="0.464736" stop-color="#657880"/>
<stop offset="0.757809" stop-color="#255970"/>
</linearGradient>
<linearGradient id="paint7_linear" x1="1181.91" y1="925.5" x2="994" y2="925.5" gradientUnits="userSpaceOnUse">
<stop stop-color="#C0CDD2"/>
<stop offset="0.464736" stop-color="#657880"/>
<stop offset="0.757809" stop-color="#255970"/>
</linearGradient>
<linearGradient id="paint8_linear" x1="1073.5" y1="973.706" x2="631.95" y2="978.242" gradientUnits="userSpaceOnUse">
<stop stop-color="#657880"/>
<stop offset="1" stop-color="#657880" stop-opacity="0"/>
</linearGradient>
<linearGradient id="paint9_linear" x1="1075.5" y1="976.699" x2="633.727" y2="977.641" gradientUnits="userSpaceOnUse">
<stop stop-color="#436777"/>
<stop offset="1" stop-color="#436777" stop-opacity="0"/>
</linearGradient>
<linearGradient id="paint10_linear" x1="846.922" y1="947.469" x2="635.37" y2="948.359" gradientUnits="userSpaceOnUse">
<stop stop-color="#657880"/>
<stop offset="1" stop-color="#657880" stop-opacity="0"/>
</linearGradient>
<linearGradient id="paint11_linear" x1="1200.93" y1="944.411" x2="634.185" y2="946.615" gradientUnits="userSpaceOnUse">
<stop stop-color="#436777"/>
<stop offset="1" stop-color="#436777" stop-opacity="0"/>
</linearGradient>
<linearGradient id="paint12_linear" x1="1010.99" y1="645.6" x2="1010.99" y2="914" gradientUnits="userSpaceOnUse">
<stop offset="0.226439" stop-color="#DDDDDD"/>
<stop offset="0.84543" stop-color="white"/>
<stop offset="0.998632" stop-color="#AE98F2"/>
</linearGradient>
<linearGradient id="paint13_linear" x1="1010.99" y1="645.6" x2="1093.96" y2="914" gradientUnits="userSpaceOnUse">
<stop offset="0.226439" stop-color="#F7F7F7"/>
<stop offset="1" stop-color="white"/>
</linearGradient>
<linearGradient id="paint14_linear" x1="1058.4" y1="685.467" x2="1036.85" y2="686.545" gradientUnits="userSpaceOnUse">
<stop stop-color="#9B9B9B"/>
<stop offset="1" stop-color="#9B9B9B" stop-opacity="0"/>
</linearGradient>
<linearGradient id="paint15_linear" x1="1029.52" y1="562.28" x2="1015.29" y2="617.273" gradientUnits="userSpaceOnUse">
<stop stop-color="white"/>
<stop offset="0.664962" stop-color="#B4B4B4"/>
<stop offset="1" stop-color="#A8F5FF"/>
</linearGradient>
<linearGradient id="paint16_linear" x1="1057.71" y1="708.095" x2="1057.71" y2="838.758" gradientUnits="userSpaceOnUse">
<stop stop-color="#F5F5F5"/>
<stop offset="1" stop-color="white"/>
</linearGradient>
<linearGradient id="paint17_linear" x1="1130.5" y1="1136.71" x2="651.304" y2="1141.35" gradientUnits="userSpaceOnUse">
<stop stop-color="#657880"/>
<stop offset="1" stop-color="#657880" stop-opacity="0"/>
</linearGradient>
<linearGradient id="paint18_linear" x1="1108.62" y1="1139.88" x2="625.045" y2="1141.24" gradientUnits="userSpaceOnUse">
<stop stop-color="#436777"/>
<stop offset="1" stop-color="#436777" stop-opacity="0"/>
</linearGradient>
<linearGradient id="paint19_linear" x1="1568.18" y1="961" x2="1324" y2="961" gradientUnits="userSpaceOnUse">
<stop offset="0.598958" stop-color="#B9C6CC"/>
<stop offset="1" stop-color="#B9C6CC" stop-opacity="0"/>
</linearGradient>
<linearGradient id="paint20_linear" x1="1380.6" y1="1156" x2="1083" y2="1156" gradientUnits="userSpaceOnUse">
<stop offset="0.598958" stop-color="#B9C6CC"/>
<stop offset="1" stop-color="#B9C6CC" stop-opacity="0"/>
</linearGradient>
<linearGradient id="paint21_linear" x1="1580" y1="961" x2="1332" y2="961" gradientUnits="userSpaceOnUse">
<stop stop-color="#2A4C5B"/>
<stop offset="0.697422" stop-color="#608EA3"/>
<stop offset="1" stop-color="#608EA3" stop-opacity="0"/>
</linearGradient>
<linearGradient id="paint22_linear" x1="1392.42" y1="1156" x2="1091" y2="1156" gradientUnits="userSpaceOnUse">
<stop stop-color="#2A4C5B"/>
<stop offset="0.697422" stop-color="#608EA3"/>
<stop offset="1" stop-color="#608EA3" stop-opacity="0"/>
</linearGradient>
<linearGradient id="paint23_linear" x1="1588.48" y1="1104.37" x2="612.117" y2="1105.02" gradientUnits="userSpaceOnUse">
<stop stop-color="#436777"/>
<stop offset="0.744792" stop-color="#657880"/>
<stop offset="1" stop-color="#657880" stop-opacity="0"/>
</linearGradient>
<radialGradient id="paint24_radial" cx="0" cy="0" r="1" gradientUnits="userSpaceOnUse" gradientTransform="translate(1234.06 1118.95) rotate(-179.78) scale(622.471 66932.6)">
<stop stop-color="#2E505F"/>
<stop offset="0.494792" stop-color="#54666D"/>
<stop offset="1" stop-color="#54666D" stop-opacity="0"/>
</radialGradient>
<linearGradient id="paint25_linear" x1="1211" y1="1613.5" x2="324.005" y2="1013.49" gradientUnits="userSpaceOnUse">
<stop stop-color="#0F0F0F"/>
<stop offset="1" stop-color="#636363"/>
</linearGradient>
<linearGradient id="paint26_linear" x1="1631.5" y1="1688" x2="302.5" y2="1196.5" gradientUnits="userSpaceOnUse">
<stop stop-color="#808A8F" stop-opacity="0"/>
<stop offset="0.110815" stop-color="#808A8F" stop-opacity="0.6"/>
<stop offset="0.431659" stop-color="#808A8F" stop-opacity="0"/>
<stop offset="0.74343" stop-color="#808A8F"/>
<stop offset="1" stop-color="#808A8F" stop-opacity="0"/>
</linearGradient>
<linearGradient id="paint27_linear" x1="886.589" y1="995.25" x2="689.645" y2="1536.35" gradientUnits="userSpaceOnUse">
<stop stop-color="#6AFBF6"/>
<stop offset="1" stop-color="#8F8F8F"/>
</linearGradient>
<linearGradient id="paint28_linear" x1="374.5" y1="1029" x2="374.5" y2="1218.93" gradientUnits="userSpaceOnUse">
<stop stop-color="#1E2735"/>
<stop offset="1" stop-color="#454F60"/>
</linearGradient>
<linearGradient id="paint29_linear" x1="476.852" y1="799.918" x2="476.852" y2="899.679" gradientUnits="userSpaceOnUse">
<stop stop-color="#775249"/>
<stop offset="1" stop-color="#54362E"/>
</linearGradient>
<linearGradient id="paint30_linear" x1="476.851" y1="799.92" x2="476.851" y2="899.681" gradientUnits="userSpaceOnUse">
<stop stop-color="#775249"/>
<stop offset="1" stop-color="#54362E"/>
</linearGradient>
<linearGradient id="paint31_linear" x1="374.52" y1="732.948" x2="374.52" y2="1029.33" gradientUnits="userSpaceOnUse">
<stop stop-color="#E19245"/>
<stop offset="1" stop-color="#DB8538"/>
</linearGradient>
<linearGradient id="paint32_linear" x1="374.52" y1="732.948" x2="374.52" y2="1029.33" gradientUnits="userSpaceOnUse">
<stop stop-color="#E19245"/>
<stop offset="1" stop-color="#DB8538"/>
</linearGradient>
<linearGradient id="paint33_linear" x1="197.5" y1="602.001" x2="197.5" y2="924.001" gradientUnits="userSpaceOnUse">
<stop stop-color="#FDEBBB"/>
<stop offset="0.505208" stop-color="#FDA894"/>
<stop offset="1" stop-color="#4A8BB7"/>
</linearGradient>
<radialGradient id="paint34_radial" cx="0" cy="0" r="1" gradientUnits="userSpaceOnUse" gradientTransform="translate(197.5 763.001) rotate(90) scale(161 153.5)">
<stop stop-color="white" stop-opacity="0"/>
<stop offset="1" stop-color="#333333"/>
</radialGradient>
<linearGradient id="paint35_linear" x1="712" y1="1481.5" x2="749.501" y2="1380.5" gradientUnits="userSpaceOnUse">
<stop stop-color="#141414"/>
<stop offset="1" stop-color="#333333"/>
</linearGradient>
<linearGradient id="paint36_linear" x1="1380.5" y1="1638.5" x2="51.4999" y2="1147" gradientUnits="userSpaceOnUse">
<stop stop-color="#525252" stop-opacity="0"/>
<stop offset="0.110815" stop-color="#525252" stop-opacity="0.6"/>
<stop offset="0.431659" stop-color="#525252" stop-opacity="0"/>
<stop offset="0.74343" stop-color="#525252"/>
<stop offset="1" stop-color="#525252" stop-opacity="0"/>
</linearGradient>
<linearGradient id="paint37_linear" x1="1276.5" y1="1617.5" x2="-52.5001" y2="1126" gradientUnits="userSpaceOnUse">
<stop offset="0.431659" stop-color="#525252" stop-opacity="0"/>
<stop offset="0.74343" stop-color="#525252"/>
<stop offset="1" stop-color="#525252" stop-opacity="0"/>
</linearGradient>
</defs>
</svg>
