<svg width="307" height="135" fill="none" xmlns="http://www.w3.org/2000/svg"><path d="M307 77.943v-9.315l-31.774-42.227L.447 15.223l14.321 45.953-12.53 51.543 3.132 8.072 266.276-8.072L307 77.943z" fill="#785340"/><path d="M306.553 68.008l-31.327-41.606L0 14.603l13.873 47.195L2.238 112.72l267.618-5.589 36.697-39.123z" fill="#AD795E"/><path d="M6.138 26.793c14.637-1.871 49.22-3.8 52.397 0 3.178 3.8 2.639 3.325 1.972 2.611M62.005 39.551c19.68-2.843 63.544-6.848 81.57-.115M62.006 39.551c19.052 2.617 59.51 7.092 68.924 4.052M97.491 56.34c15.895-3.775 52.647-11.486 72.502-12.125 19.854-.64 30.265-1.408 32.988-1.711M12.064 81.79c5.532 3.824 28.844 9.273 54.642 4.812 32.246-5.576 59.248-21.214 73.17-10.694 13.922 10.52 80.357 1.906 85.489 0 4.106-1.525 42.026 8.455 60.568 10.694M10.714 90.43c7.608 5.795 26.05 16.312 38.96 12.02 16.136-5.365 61.38-12.132 69.66-7.682 7.023 3.774 10.14 8.542 8.928 14.247M108.168 32.041c40.381-3.824 135.038-5.632 152.527-1.242" stroke="#CC9477"/><path d="M121.347 93.59c13.278-4.831 46.232-12.128 71.824-2.665 31.99 11.829 35.761 10.416 45.735 11.088 7.979.537 19.785 1.111 24.691 1.33M188.537 89.046l90.811 6.186M13.38 73.813c5.855 1.973 27.243-1.54 34.892-3.655 9.56-2.642 29.417-2.641 39.5 0 10.083 2.642 73.832 1.829 83.618-11.227 7.83-10.445 79.257-11.394 119.809-8.87M8.49 37.956c22.58.829 70.027 1.433 79.174-2.777 9.146-4.211 125.456 5.975 182.468 11.595M15.384 33.92c12.429-.714 39.159-4.763 42.55-4.353 4.02.486 40.498 1.094 53.114-2.603 10.093-2.957 20.869-3.649 24.995-3.625" stroke="#CC9477"/><path d="M11.405 46.407c23.468.303 72.345-.719 81.634 9.136 9.289 9.854 93.659 11.248 131.182 12.141l77.913 3.715M14 56.684c11.309-1.008 33.086-1.89 29.727 2.64-3.359 4.53-21.434 3.582-30.051 2.54" stroke="#CC9477"/><path d="M12.513 53.182c15.547-.495 45.534-.196 41.11 4.965-5.528 6.451-6.04 7.813-39.305 7.118" stroke="#CC9477"/><g filter="url(#filter0_i)" fill="#56321E"><path d="M78.024 46.963c.152-.12.334-.279.546-.478.213-.2.41-.419.592-.658.213-.28.395-.559.546-.838.183-.279.274-.538.274-.777 0-.997-.167-1.994-.501-2.991a7.789 7.789 0 00-1.366-2.632 7.462 7.462 0 00-2.277-1.974c-.88-.558-1.927-.897-3.141-1.017a4.49 4.49 0 01-1.048-.12c-.334-.08-.5-.239-.5-.478l-2.46.359h-.728l-.41.538-1.866-.419-.82.898v16.09l-.865.12.273.18v10.527l.182 1.376h.683l.501-.539h3.005l2.004.838c.303 0 .637-.04 1.001-.12.365-.08.698-.259 1.002-.538l4.963-2.154c.304-.16.713-.418 1.23-.777a12.19 12.19 0 001.593-1.256 6.997 6.997 0 001.32-1.675c.395-.678.592-1.356.592-2.034 0-2.193-.38-4.067-1.138-5.623-.759-1.595-1.821-2.87-3.187-3.828zm-8.378-1.196l-.273-3.11v-3.23c.516-.12.789-.18.82-.18.06 0 .106.02.136.06.03 0 .076.04.137.12.06.04.166.1.318.179l.683.18c.486.159 1.002.258 1.548.298.547.04 1.063.12 1.548.24.486.08.911.279 1.275.598.395.319.683.817.865 1.495l-1.593 2.871-1.366.36c-.03.04-.106.099-.228.179-.09.04-.212.1-.364.18-.121.039-.243.099-.364.179-.122.04-.228.06-.32.06-.09 0-.136-.04-.136-.12l-2.686-.36zm.5 5.383c.274-.08.562-.18.866-.299.303-.12.622-.239.956-.359h.182c.273 0 .516.04.729.12.243.08.53.18.865.299.516.16 1.047.28 1.594.359.576.04 1.107.14 1.593.299.516.16.971.439 1.366.837.395.4.668 1.037.82 1.915l-1.64 2.99-6.329 1.556h-.637V57.37l-.364-2.751v-3.47zM101.153 49.117l-1.366-6.221-2.277-.658-.683.478v9.75l-.546.479h-.774l-2.322 1.017-.501-.24-.182-.897-.365-.718v-6.58l-.774-3.11h-3.415l-.728.3-.364 3.887.774 2.034-.501 6.52 1.001 3.29 1.093.478 1.275 1.077 1.002-.419.182-.418 1.594.239.91-.598 1.821-2.393.593-.359.455.598-.137.42 1.093.956h2.732l.41-.718v-8.194zM115.23 40.324l-1.548-.838-2.004-.478-1.457-.419-1.092.479v5.682l.136.718 2.732-.598 2.14.538.638-.598.455-4.486zm.319 19.918l-.774-.837.273-1.077v-2.811l-.319-1.495v-4.128l-.546-.777-.957-.06-.364.239-1.821-.18-.774.48-.956 14.475.455.657h.82l.546-.239h3.506l.865-.538-.228-1.436.274-2.273zM129.373 44.152l-.228-.538.364-1.915v-5.563l-.546-.478-3.506 2.452-.365 2.034v7.716l-.865 15.792.683.778 2.823-.3 1.139.479.956-.837V50.85l-.455-6.7zM144.112 48.698l-2.459 1.495c-.759.559-1.351 1.117-1.776 1.675a6.835 6.835 0 00-1.001 1.854 9.852 9.852 0 00-.501 2.214 386.03 386.03 0 01-.319 2.691c-.03.12-.046.32-.046.598 0 .639.137 1.237.41 1.795a4.892 4.892 0 001.047 1.435c.425.36.881.659 1.366.898.516.2 1.002.339 1.457.419l3.825.538c.334.319.668.518 1.002.598.364.08.713.12 1.047.12l2.003-.838h3.006l.5.538h.683l.501-1.375V52.825l-.045-.18-.319-.119V37.991l-1.412-.957h-2.276l-.865.777c0 .638-.061 1.217-.182 1.735-.091.518-.137.917-.137 1.196 0 .2.076.3.228.3v2.691l-.683 2.692v.419l-2.687 1.375c0 .08-.106.12-.318.12-.274 0-.471-.02-.592-.06-.122 0-.258-.02-.41-.06l-1.047.479zm4.963 2.452v3.47l-.365 2.751v1.555h-.546c-.577.12-1.078.22-1.503.3a15.2 15.2 0 01-1.411.06c-.304 0-.622-.02-.956-.06-.304-.04-.653-.16-1.047-.36a.332.332 0 00-.183.06h-.091c-.546 0-.956-.239-1.229-.717-.243-.519-.364-1.376-.364-2.573 0-.877.091-1.515.273-1.914.182-.398.44-.697.774-.897.364-.2.759-.339 1.184-.419.455-.08.941-.219 1.457-.418.303-.08.561-.16.774-.24.243-.12.501-.199.774-.239h.228c.03.04.091.06.182.06.151 0 .364-.06.637-.18.273-.159.607-.239 1.002-.239h.41zM192.775 49.535l-.227-2.691-.911-3.23-.091-.718-.319-.658-2.959-3.53-.592-.538-6.511-1.974h-4.918l-.774 1.077V63.293l1.275 1.196 3.415-.478 6.511-3.29 3.324-4.666.182-.658.501-.12 2.094-5.742zm-4.917-4.426v7.118l-.455 1.914-.957 1.854-1.229 1.615-2.368.599-1.912.777.137-3.17V43.255l.364-2.393 3.415.419 1.912 2.333 1.093 1.495zM199.057 42.477c.213 0 .395.12.547.359.182.24.334.518.455.837.152.32.288.599.41.838.121.239.228.359.319.359.303-.08.758-.24 1.366-.479.637-.279 1.32-.558 2.048-.837.759-.28 1.488-.519 2.186-.718.729-.2 1.32-.3 1.776-.3.243 0 .41.06.501.18.121.12.197.26.227.419l.091.479c.061.12.167.219.319.299.061.12.152.239.273.359.122.08.182.239.182.478a5.978 5.978 0 00-.273 1.376c-.03.399-.045.777-.045 1.136v.36l-1.321.119-.637.12h-.729l-1.366 1.016c-.394 0-.728.06-1.001.18-.274.08-.562.22-.866.418-.273.16-.591.34-.956.539-.364.2-.85.399-1.457.598-1.457.957-2.549 2.113-3.278 3.47-.698 1.355-1.047 3.03-1.047 5.024 0 .638.167 1.276.501 1.914a8.505 8.505 0 001.229 1.675c.486.478.987.877 1.503 1.196.516.28.971.419 1.366.419h1.274c.395.04.79.06 1.184.06h2.55c.061 0 .106-.06.137-.18.06-.08.121-.18.182-.299a.843.843 0 01.41-.359c.212-.12.5-.18.865-.18.394 0 .804.16 1.229.48.425.278.789.418 1.093.418.243 0 .47-.02.683-.06.212-.04.425-.1.637-.18.243-.079.516-.139.82-.179.303-.08.652-.12 1.047-.12.091.2.258.38.501.539h.637c.031-.2.091-.379.182-.538.091-.2.198-.459.319-.778a48.89 48.89 0 00-.136-2.452c-.031-.718-.061-1.396-.092-2.034 0-.678-.015-1.376-.045-2.094 0-.718-.015-1.535-.046-2.452h.137c.03-.04.061-.06.091-.06-.091 0-.167-.16-.228-.478-.06-.32-.106-.639-.136-.958a46.789 46.789 0 00-.091-.957v-.478c-.031-.32-.091-.558-.182-.718-.061-.2-.137-.419-.228-.658-.061-.279-.137-.658-.228-1.136-.06-.479-.106-1.257-.136-2.333-.091-.08-.167-.32-.228-.718a93.824 93.824 0 01-.182-1.256c-.03-.479-.061-.917-.091-1.316 0-.439-.015-.698-.046-.778h-.091c-.243 0-.44-.18-.592-.538a9.825 9.825 0 01-.409-1.196c-.122-.439-.228-.818-.319-1.137-.091-.359-.197-.538-.319-.538l-.182-.24a1.968 1.968 0 00-.182-.299H209.12c-.152 0-.319-.02-.501-.06-.182-.04-.41-.1-.683-.179-.03.2-.212.34-.546.419-.304.04-.653.06-1.048.06h-1.047c-.303 0-.47.06-.501.18-.819.358-1.563.657-2.231.896-.667.24-1.229.499-1.684.778a3.76 3.76 0 00-1.139.897c-.303.32-.531.778-.683 1.376zm9.881 10.05v3.05a10.501 10.501 0 00-.273 1.974 36.186 36.186 0 00-.046 1.495v.479h-.637c-.607.08-1.169.14-1.685.179-.516.04-1.017.08-1.503.12l-3.187.239a16.184 16.184 0 00-.546-1.137c-.122-.279-.182-.698-.182-1.256 0-1.116.106-1.994.318-2.632.243-.638.562-1.116.957-1.435a3.94 3.94 0 011.457-.778c.546-.16 1.123-.339 1.73-.538.303-.12.577-.22.819-.3.274-.079.532-.119.774-.119h.183l.91.359c.334.12.638.22.911.3zM227.118 60.96l-4.553 11.604.592 1.436h.637l.501-.478h3.142l.91-.958.638-2.691 1.092-3.59 1.412-2.93.546-1.197V61.02h-.227l.637-1.316 1.229-1.436 1.366-4.246 1.412-2.692 1.002-2.273.546-2.154v-1.136h-3.779l-1.73 2.93-.865 2.453-.775 1.256-.455 1.675-.455.24-.41.657-.546.3-3.552-3.948-.41-.718-3.141-4.546-.456-.24-2.367.3-.137.598 3.005 6.4.774 1.914 3.916 4.965.137.598.5.36h-.136z"/></g><g filter="url(#filter1_i)" fill="#56321E"><path d="M56.722 87.41l-.128-1.356-.511-1.626-.051-.362-.18-.331-1.663-1.777-.332-.271-3.659-.994h-2.763l-.435.542v13.102l.716.603 1.92-.241 3.658-1.657 1.868-2.35.102-.33.281-.06 1.177-2.892zm-2.763-2.23v3.585l-.256.964-.537.934-.69.813-1.331.301-1.075.392.077-1.597v-6.325l.205-1.205 1.919.211 1.074 1.175.614.753zM68.695 93.313l-.076-.12c0-.1-.026-.191-.077-.271-.051-.1-.094-.211-.128-.332a.477.477 0 00-.281.09c-.086.04-.18.091-.282.151-.085.04-.196.09-.332.15-.12.041-.273.061-.461.061h-.128c-.205.02-.384.03-.537.03-.154 0-.299.01-.435.03-.137 0-.273.01-.41.03h-.486l-.64-.12-.127-.06h.025c.017 0-.008-.02-.076-.06-.017.02-.034.03-.052.03-.017 0-.034.01-.05.03h-.052a6.431 6.431 0 00-.46-.18c-.103-.041-.154-.111-.154-.212 0-.08-.085-.22-.256-.421a1.11 1.11 0 01-.23-.693c0-.301.026-.683.077-1.145.05-.482.153-.863.307-1.144.136-.1.375-.211.716-.332.341-.14.682-.21 1.023-.21.205 0 .359.04.461.12.12.06.213.14.282.24.068.101.102.212.102.332.017.1.025.201.025.301 0 .141-.042.241-.127.302a.735.735 0 01-.307.12c-.12.02-.24.03-.359.03-.12 0-.221.01-.307.03a5.706 5.706 0 01-1.202.302c.085.04.145.12.179.24.034.121.06.251.077.392.017.12.025.241.025.361 0 .1.009.151.026.151.597 0 1.091-.03 1.484-.09.392-.06.716-.13.972-.211l.614-.241c.153-.08.307-.13.46-.15.069-.201.145-.322.23-.362.086-.06.18-.16.282-.301a4.959 4.959 0 00-.179-.844 7.259 7.259 0 00-.23-.813 5.792 5.792 0 00-.256-.663c-.068-.18-.102-.29-.102-.33a.519.519 0 01-.307-.091 1.776 1.776 0 01-.18-.181.817.817 0 01-.076-.18c-.017-.06-.034-.091-.051-.091-.188 0-.333-.05-.435-.15a.408.408 0 01-.154-.151c-.273 0-.486-.04-.64-.12a1.086 1.086 0 00-.511-.121c-.427.18-.887.311-1.382.391-.477.08-.904.251-1.279.512a21 21 0 00-.563.573c-.17.18-.324.381-.46.602-.137.221-.282.462-.435.723a8.11 8.11 0 00-.46.934c-.086.16-.146.321-.18.482l-.051.482c0 .3.008.602.025.903.034.281.154.603.359.964.085.08.153.17.204.271l.103.15.153.151c.034 0 .06.06.077.181.034.1.06.15.077.15h.46c.205.141.367.262.486.362.12.08.23.14.333.18.102.02.213.041.333.061.119.02.272.03.46.03h.307c.12-.02.239-.03.358-.03h.333c.12 0 .264.02.435.06.375 0 .682-.02.92-.06.257-.06.504-.13.743-.21.256-.081.52-.151.793-.212.29-.06.64-.1 1.049-.12.102-.04.222-.13.358-.271.154-.16.23-.261.23-.301 0-.06-.042-.09-.127-.09h.127zM80.5 93.313l-.102-.12c0-.1-.026-.191-.077-.271-.034-.1-.068-.211-.102-.332-.12 0-.222.03-.307.09-.086.04-.18.091-.282.151-.085.04-.188.09-.307.15-.12.041-.281.061-.486.061h-.128c-.205.02-.384.03-.537.03-.137 0-.273.01-.41.03-.119 0-.255.01-.409.03h-.486a6.252 6.252 0 00-.793-.06 3.339 3.339 0 01-.742-.18l-.026.03c-.017 0-.034.01-.051.03h-.051l-.46-.18c-.086-.041-.129-.111-.129-.212 0-.08-.085-.22-.255-.421a1.11 1.11 0 01-.23-.693c0-.241.068-.482.204-.723.153-.241.316-.442.486-.602.188-.181.35-.322.486-.422.137-.1.188-.14.154-.12.034 0 .068-.02.102-.06.034-.021.06-.041.077-.061a.888.888 0 01.128-.12.838.838 0 01.307-.272c.136-.08.435-.16.895-.24.358-.081.64-.141.845-.181.221-.04.409-.06.562-.06H79.35c.05-.201.093-.342.128-.422.034-.08.119-.261.255-.542a4.164 4.164 0 01-.05-.693c.016-.281-.043-.432-.18-.452h-2.047a7.756 7.756 0 00-.742-.03c-.443.18-.912.311-1.407.391-.477.08-.895.251-1.254.512-.221.201-.417.392-.588.573-.153.18-.307.381-.46.602-.137.221-.282.462-.435.723-.137.261-.29.572-.46.934-.07.16-.12.321-.154.482a4.7 4.7 0 00-.077.482c0 .3.008.602.025.903.034.281.162.603.384.964.068.08.137.17.205.271l.102.15.128.151c.034 0 .068.06.102.181.035.1.06.15.077.15h.435c.205.141.367.262.486.362.12.08.23.14.333.18l.358.061c.12.02.273.03.46.03h.282c.12-.02.239-.03.358-.03h.358c.12 0 .265.02.435.06.359 0 .657-.02.896-.06.256-.06.503-.13.742-.21.256-.081.52-.151.793-.212.29-.06.648-.1 1.075-.12.085-.04.204-.13.358-.271.153-.16.23-.261.23-.301 0-.06-.051-.09-.153-.09h.153zM92.232 93.313l-.077-.12c0-.1-.026-.191-.077-.271-.05-.1-.094-.211-.128-.332a.477.477 0 00-.281.09c-.085.04-.18.091-.281.151-.086.04-.197.09-.333.15-.12.041-.273.061-.46.061h-.129c-.204.02-.383.03-.537.03-.153 0-.298.01-.435.03-.136 0-.273.01-.41.03H88.6l-.64-.12-.128-.06h.026c.017 0-.009-.02-.077-.06-.017.02-.034.03-.051.03-.017 0-.034.01-.051.03h-.052a6.43 6.43 0 00-.46-.18c-.102-.041-.154-.111-.154-.212 0-.08-.085-.22-.255-.421a1.11 1.11 0 01-.23-.693c0-.301.025-.683.076-1.145.051-.482.154-.863.307-1.144.137-.1.375-.211.716-.332.342-.14.683-.21 1.024-.21.205 0 .358.04.46.12.12.06.214.14.282.24.068.101.102.212.102.332.017.1.026.201.026.301 0 .141-.043.241-.128.302a.736.736 0 01-.307.12c-.12.02-.239.03-.358.03-.12 0-.222.01-.307.03a5.706 5.706 0 01-1.203.302c.085.04.145.12.18.24.033.121.059.251.076.392.017.12.026.241.026.361 0 .1.008.151.025.151.597 0 1.092-.03 1.484-.09.392-.06.717-.13.972-.211l.614-.241c.154-.08.307-.13.46-.15.07-.201.146-.322.231-.362.085-.06.18-.16.282-.301a4.959 4.959 0 00-.18-.844 7.237 7.237 0 00-.23-.813 5.775 5.775 0 00-.256-.663c-.068-.18-.102-.29-.102-.33a.519.519 0 01-.307-.091 1.788 1.788 0 01-.18-.181.816.816 0 01-.076-.18c-.017-.06-.034-.091-.051-.091-.188 0-.333-.05-.435-.15a.41.41 0 01-.153-.151c-.273 0-.487-.04-.64-.12a1.086 1.086 0 00-.512-.121c-.426.18-.887.311-1.381.391-.478.08-.904.251-1.28.512-.204.201-.392.392-.563.573a3.73 3.73 0 00-.46.602c-.136.221-.281.462-.435.723a8.11 8.11 0 00-.46.934c-.086.16-.145.321-.18.482l-.05.482c0 .3.008.602.025.903.034.281.153.603.358.964.085.08.153.17.205.271l.102.15.154.151c.034 0 .06.06.076.181.034.1.06.15.077.15h.46c.205.141.367.262.487.362.12.08.23.14.332.18.103.02.213.041.333.061.12.02.273.03.46.03h.307c.12-.02.24-.03.359-.03h.332c.12 0 .265.02.435.06.375 0 .682-.02.921-.06.256-.06.503-.13.742-.21.256-.081.52-.151.793-.212.29-.06.64-.1 1.05-.12.102-.04.221-.13.358-.271.153-.16.23-.261.23-.301 0-.06-.043-.09-.128-.09h.128zM107.977 91.265l-.077-5.602a8.849 8.849 0 00-.41-.934 1.505 1.505 0 00-.614-.663l-2.507-.06-.793.09-.307.211-.614.12-1.228-.873-1.382-.12-1.51.632-.306-.09-.128-.271-.64-.512-.563.09-1.151-.331-.512 1.144-.205 2.56v5.302l1.33.12.359-.21h1.356l.563-.151v-6.054h1.28l.306.512.103 1.144v4.127l.255.27h2.098l.563-.511-.256-2.079v-2.409l.052-.663 1.1.12.153.543.333 3.132v1.506l.665.332h2.456l.231-.422zM117.514 86.145l-.538.12h-.639c-.102 0-.154-.02-.154-.06l-1.509-.15v-.212l-.41-1.897V82.59c.086 0 .128-.05.128-.15 0-.12-.034-.291-.102-.512a3.514 3.514 0 01-.077-.783v-.181l-.46-.422h-1.305l-.461.512v7.831l-.486.09.154.091v5.302l.102.662h.384l.281-.24h1.689l1.126.39c.153 0 .332-.02.537-.06.205-.04.401-.12.588-.24l2.124-.844c.171-.08.392-.23.665-.452a7.11 7.11 0 00.793-.753c.273-.3.504-.622.691-.963.188-.342.282-.663.282-.964 0-.563-.035-1.034-.103-1.416a3.672 3.672 0 00-.332-1.024 2.983 2.983 0 00-.614-.813 6.045 6.045 0 00-.973-.783l-1.381-.723zm-2.559 2.078l.461-.12c.102-.04.196-.07.281-.091.086-.04.179-.08.282-.12h.102c.119 0 .281.03.486.09.205.04.418.09.64.15.222.06.435.131.639.211.205.08.359.151.461.211.085.06.23.241.435.542.205.281.307.643.307 1.085 0 .16-.034.3-.102.421-.069.12-.154.231-.256.332l-.307.3c-.103.101-.179.212-.231.332-.255.08-.477.16-.665.241a8.94 8.94 0 01-.537.211c-.171.04-.35.08-.537.12a4.87 4.87 0 01-.563.03h-.179a.942.942 0 01-.205-.03h-.333v-.783l-.179-1.385v-1.747zM132.284 93.313l-.077-.12c0-.1-.026-.191-.077-.271-.051-.1-.094-.211-.128-.332a.476.476 0 00-.281.09c-.086.04-.179.091-.282.151-.085.04-.196.09-.332.15-.12.041-.273.061-.461.061h-.128c-.204.02-.384.03-.537.03-.154 0-.299.01-.435.03a2.8 2.8 0 00-.409.03h-.486l-.64-.12a44.88 44.88 0 00-.128-.06h.026c.017 0-.009-.02-.077-.06-.017.02-.034.03-.051.03-.017 0-.034.01-.052.03h-.051a6.397 6.397 0 00-.46-.18c-.103-.041-.154-.111-.154-.212 0-.08-.085-.22-.256-.421-.153-.201-.23-.432-.23-.693 0-.301.026-.683.077-1.145.051-.482.153-.863.307-1.144.136-.1.375-.211.716-.332a2.67 2.67 0 011.024-.21c.204 0 .358.04.46.12.12.06.213.14.282.24.068.101.102.212.102.332.017.1.026.201.026.301 0 .141-.043.241-.128.302a.741.741 0 01-.307.12c-.12.02-.239.03-.359.03-.119 0-.221.01-.307.03a5.694 5.694 0 01-1.202.302c.085.04.145.12.179.24.034.121.06.251.077.392.017.12.025.241.025.361 0 .1.009.151.026.151.597 0 1.092-.03 1.484-.09.392-.06.716-.13.972-.211l.614-.241c.154-.08.307-.13.461-.15.068-.201.145-.322.23-.362.085-.06.179-.16.281-.301a4.882 4.882 0 00-.179-.844 7.26 7.26 0 00-.23-.813 5.79 5.79 0 00-.256-.663c-.068-.18-.102-.29-.102-.33a.517.517 0 01-.307-.091 1.786 1.786 0 01-.179-.181.823.823 0 01-.077-.18c-.017-.06-.034-.091-.051-.091-.188 0-.333-.05-.435-.15a.411.411 0 01-.154-.151c-.273 0-.486-.04-.639-.12a1.087 1.087 0 00-.512-.121c-.426.18-.887.311-1.382.391-.477.08-.904.251-1.279.512-.205.201-.392.392-.563.573-.17.18-.324.381-.46.602-.137.221-.282.462-.435.723a8.106 8.106 0 00-.461.934 1.85 1.85 0 00-.179.482l-.051.482c0 .3.009.602.026.903.034.281.153.603.358.964.085.08.153.17.204.271l.103.15.153.151c.034 0 .06.06.077.181.034.1.06.15.077.15h.46c.205.141.367.262.486.362.12.08.231.14.333.18.102.02.213.041.333.061.119.02.273.03.46.03h.307c.12-.02.239-.03.358-.03h.333c.119 0 .264.02.435.06.375 0 .682-.02.921-.06.256-.06.503-.13.742-.21.256-.081.52-.151.793-.212.29-.06.64-.1 1.049-.12.103-.04.222-.13.358-.271.154-.16.231-.261.231-.301 0-.06-.043-.09-.128-.09h.128zM142.732 84.82l-.972-1.808-.333.12-1.714 1.627-.767 1.566-.538.603v-2.079l-.691-1.747h-1.483l-.41.543v7.71l-.128.332.051.783 2.815-.271.435-.301v-.603l.128-.964-.128-1.596c.119-.1.213-.22.281-.361l.256-.422c.102-.14.213-.291.333-.452a3.23 3.23 0 01.486-.512l1.177-1.054c.187-.16.375-.332.563-.512.204-.181.417-.382.639-.603zM162.142 90.15l-.512-1.174a5.088 5.088 0 00-.665-1.115c-.239-.32-.622-.662-1.151-1.024h-.358l-.41-.331h-1.995l-1.024.362 1.484-2.772.026-.361.46-.542.691-1.386.307-.843-2.123-.964-.307.03-2.175 4.127-.614.933-.896 2.982-.128 1.747c-.017.1-.025.211-.025.332v.3c0 .463.034.915.102 1.356.068.422.162.814.282 1.175.119.361.264.673.435.934.17.26.366.441.588.542.119.08.256.16.409.24l.512.272.614.361H158.739l1.996-.963 1.305-1.838.102-2.38zm-3.198 1.808l-1.33.572-1.28-.843-.409-.693.435-1.205.972-.21c.102-.06.265-.091.486-.091.529 0 .955.12 1.28.361.324.241.486.543.486.904 0 .261-.077.492-.231.693-.153.2-.29.371-.409.512zM171.159 87.59l.665-.03c.085.04.162.07.23.09.068.02.162.03.282.03.068 0 .136-.01.204-.03.086-.02.162-.04.231-.06.085-.02.187-.03.307-.03.136-.02.307-.03.511-.03.069 0 .128.01.179.03h.205c.034 0 .102-.04.205-.12-.085 0-.128-.07-.128-.211 0-.02.008-.08.025-.18.017-.101.026-.172.026-.212-.017 0-.026-.05-.026-.15 0-.08.017-.14.052-.181-.12-.1-.179-.2-.179-.301 0-.12-.035-.241-.103-.362a.708.708 0 01-.23.06h-.256a.917.917 0 00-.128-.06.879.879 0 00-.281-.03c-.12-.02-.324-.04-.614-.06a26.68 26.68 0 00-.742-.06c-.29-.02-.606-.05-.947-.09l-.256-3.344-.23-.391-1.689.18-.409.693-.077 2.71h-.691a7.076 7.076 0 00-.639-.03c-.171.06-.265.091-.282.091h-.409c-.119 0-.239-.02-.358-.06h-.41l-.383.391v.542c0 .201.008.402.025.603.034.2.077.382.128.542.051.14.12.231.205.271l.204.211h.384c.086-.02.239-.05.461-.09.017-.04.094-.06.23-.06.102 0 .205.01.307.03.119.02.196.04.23.06h.154a.718.718 0 01.205-.03l.358-.03-.103.602v3.916l.103 1.716.281.693.64-.12 2.098.18 1.433-.24c.102-.342.153-.683.153-1.024 0-.342-.051-.703-.153-1.085l-.998-.632V87.59zM184.94 86.446a4.645 4.645 0 01-.281-.12 1.322 1.322 0 00-.256-.091l-.538-.21h-3.172l-.103-.272v-5.15l-1.432-.181-.486.24-.384 4.79-.333 1.506-.435 5.843.231 1.506h2.405l.639-.18V87.74l.512-.09 1.305-.09c.204.06.375.15.511.27.154.12.273.251.359.392.085.14.145.271.179.392.051.12.085.22.102.3.034.121.077.232.128.332.051.08.077.2.077.361v.302c0 .1-.009.24-.026.421l.128.03-.128.513v2.108l-.153.633.23.783h1.049l.665.15 1.228-.753v-.964l.026-.391-.512-4.217a2.358 2.358 0 01-.512-.482c-.102-.18-.204-.351-.307-.512a2.972 2.972 0 00-.281-.482.832.832 0 00-.435-.301zM189.266 95.15l.128 2.14 1.381.3-.307 2.29.87.12.512-.301.307-1.657v-2.078l-.128-1.777h-1.817l-.818.27-.128.694zM211.68 93.223v-2.44l-.742-.12-1.228.09-1.561-.12-1.612.33.819-.662.947-1.144 1.74-2.41.921-2.68v-.693l-.154-.814-.588-.662-1.126-.573-.665-.24-3.531-.332c-.341.04-.623.09-.844.15-.205.04-.444.06-.717.06-.068.202-.128.422-.179.663-.034.221-.051.452-.051.693 0 .261.017.522.051.783.051.261.094.492.128.693l.358.422.768.12h2.047l1.867.573.103.692-2.763 3.314-2.764 1.958-.281.994v2.048l.512.421 1.97-.27 1.151.06h5.091l.333-.904zM226.715 84.79a4.28 4.28 0 00-.307-1.145 5.359 5.359 0 00-.537-1.024 4.632 4.632 0 00-.64-.814 10.715 10.715 0 00-.639-.692c-.529 0-1.084-.04-1.663-.121a9.37 9.37 0 00-1.587-.15c-.17.08-.315.13-.435.15-.119.02-.23.03-.332.03-.103 0-.196.01-.282.03a.848.848 0 00-.256.15.983.983 0 01-.307.061h-.025c-.324.18-.572.361-.742.542-.171.181-.333.362-.486.542-.137.181-.299.362-.486.543a3.53 3.53 0 01-.794.542c0 .16-.008.27-.025.331-.017.06-.085.09-.205.09l-1.177 2.019c-.017.16-.042.35-.076.572a7.75 7.75 0 01-.077.602 7.841 7.841 0 00-.103.934c.017.683.052 1.225.103 1.626.051.382.111.723.179 1.024.068.282.145.583.23.904.085.301.162.703.23 1.205.035.06.086.14.154.24.085.081.179.162.281.242l.435.512c.307.2.563.351.768.452.205.08.409.14.614.18.205.04.435.07.691.09.256.02.571.071.946.151.188.06.384.09.589.09.307 0 .597-.03.87-.09s.452-.09.537-.09h.077a.9.9 0 01.281-.12.905.905 0 00.333-.241c.222-.261.46-.502.716-.723.273-.241.537-.482.793-.723a4.58 4.58 0 00.742-.843c.239-.342.435-.753.589-1.236.034-.14.077-.29.128-.451a7.8 7.8 0 01.358-.904c.051 0 .111-.14.179-.422a9.8 9.8 0 00.179-.994c.068-.381.119-.763.154-1.144.051-.402.076-.723.076-.964 0-.16-.008-.311-.025-.452 0-.16-.009-.331-.026-.512zm-2.533 1.505c-.051.16-.128.412-.23.753-.085.322-.179.643-.281.964a5.472 5.472 0 01-.359.873c-.119.262-.247.402-.383.422l-.256.693c.017.06-.137.22-.461.482-.307.24-.819.422-1.535.542a6.51 6.51 0 01-1.075-.361 2.012 2.012 0 01-.588-.392 1.315 1.315 0 01-.256-.452 6.014 6.014 0 00-.205-.542c-.153-.24-.23-.422-.23-.542 0-.301.026-.582.077-.843.051-.261.111-.553.179-.874l.537-1.205c.137-.12.231-.22.282-.301a.733.733 0 00.102-.24.524.524 0 00.051-.182c.017-.06.043-.14.077-.24l.947-.482.46-.272c.154-.1.333-.2.538-.3.358.08.759.14 1.202.18.222.26.418.502.589.723.187.2.4.401.639.602 0 .1.026.261.077.482.068.221.102.392.102.512zM239.914 93.223v-2.44l-.742-.12-1.228.09-1.561-.12-1.612.33.819-.662.946-1.144 1.74-2.41.921-2.68v-.693l-.153-.814-.589-.662-1.125-.573-.666-.24-3.53-.332c-.341.04-.623.09-.845.15-.204.04-.443.06-.716.06-.068.202-.128.422-.179.663-.034.221-.051.452-.051.693 0 .261.017.522.051.783.051.261.094.492.128.693l.358.422.768.12h2.046l1.868.573.102.692-2.763 3.314-2.763 1.958-.281.994v2.048l.511.421 1.97-.27 1.152.06h5.091l.333-.904zM254.949 84.79a4.318 4.318 0 00-.307-1.145 5.474 5.474 0 00-.537-1.024 4.632 4.632 0 00-.64-.814 10.437 10.437 0 00-.64-.692c-.529 0-1.083-.04-1.663-.121a9.36 9.36 0 00-1.586-.15c-.171.08-.316.13-.435.15-.119.02-.23.03-.333.03-.102 0-.196.01-.281.03a.836.836 0 00-.256.15.989.989 0 01-.307.061h-.026c-.324.18-.571.361-.741.542-.171.181-.333.362-.487.542-.136.181-.298.362-.486.543-.187.18-.452.361-.793.542 0 .16-.008.27-.025.331-.017.06-.086.09-.205.09l-1.177 2.019c-.017.16-.043.35-.077.572-.017.2-.042.401-.077.602a7.817 7.817 0 00-.102.934c.017.683.051 1.225.102 1.626.052.382.111.723.18 1.024.068.282.145.583.23.904.085.301.162.703.23 1.205.034.06.085.14.154.24.085.081.179.162.281.242l.435.512c.307.2.563.351.768.452.204.08.409.14.614.18.204.04.435.07.69.09.256.02.572.071.947.151.188.06.384.09.588.09.308 0 .597-.03.87-.09s.452-.09.538-.09h.076a.909.909 0 01.282-.12.91.91 0 00.332-.241c.222-.261.461-.502.717-.723.273-.241.537-.482.793-.723a4.531 4.531 0 001.33-2.078c.035-.141.077-.292.128-.452.052-.181.171-.482.359-.904.051 0 .11-.14.179-.422a9.8 9.8 0 00.179-.994c.068-.381.119-.763.153-1.144.051-.402.077-.723.077-.964 0-.16-.009-.311-.026-.452 0-.16-.008-.331-.025-.512zm-2.533 1.505c-.051.16-.128.412-.23.753a20.57 20.57 0 01-.282.964 5.472 5.472 0 01-.358.873c-.119.262-.247.402-.384.422l-.256.693c.017.06-.136.22-.46.482-.307.24-.819.422-1.535.542a6.477 6.477 0 01-1.075-.361 1.999 1.999 0 01-.588-.392 1.298 1.298 0 01-.256-.452 6.333 6.333 0 00-.205-.542c-.153-.24-.23-.422-.23-.542 0-.301.025-.582.077-.843.051-.261.111-.553.179-.874l.537-1.205c.136-.12.23-.22.281-.301a.716.716 0 00.103-.24.524.524 0 00.051-.182c.017-.06.043-.14.077-.24l.946-.482.461-.272c.153-.1.333-.2.537-.3.358.08.759.14 1.203.18.221.26.418.502.588.723.188.2.401.401.64.602 0 .1.025.261.077.482.068.221.102.392.102.512z"/></g><defs><filter id="filter0_i" x="64" y="35" width="174" height="40" filterUnits="userSpaceOnUse" color-interpolation-filters="sRGB"><feFlood flood-opacity="0" result="BackgroundImageFix"/><feBlend in="SourceGraphic" in2="BackgroundImageFix" result="shape"/><feColorMatrix in="SourceAlpha" values="0 0 0 0 0 0 0 0 0 0 0 0 0 0 0 0 0 0 127 0" result="hardAlpha"/><feOffset dy="1"/><feGaussianBlur stdDeviation=".5"/><feComposite in2="hardAlpha" operator="arithmetic" k2="-1" k3="1"/><feColorMatrix values="0 0 0 0 0 0 0 0 0 0 0 0 0 0 0 0 0 0 0.3 0"/><feBlend in2="shape" result="effect1_innerShadow"/></filter><filter id="filter1_i" x="47" y="80" width="208" height="21" filterUnits="userSpaceOnUse" color-interpolation-filters="sRGB"><feFlood flood-opacity="0" result="BackgroundImageFix"/><feBlend in="SourceGraphic" in2="BackgroundImageFix" result="shape"/><feColorMatrix in="SourceAlpha" values="0 0 0 0 0 0 0 0 0 0 0 0 0 0 0 0 0 0 127 0" result="hardAlpha"/><feOffset dy="1"/><feGaussianBlur stdDeviation=".5"/><feComposite in2="hardAlpha" operator="arithmetic" k2="-1" k3="1"/><feColorMatrix values="0 0 0 0 0 0 0 0 0 0 0 0 0 0 0 0 0 0 0.3 0"/><feBlend in2="shape" result="effect1_innerShadow"/></filter></defs></svg>