<svg width="319" height="51" fill="none" xmlns="http://www.w3.org/2000/svg"><g filter="url(#filter0_d)"><path d="M315 5.495L313.703 1.3H5.334v5.095l12.19 10.489L4.297 39.66v2.997h308.11l.778-2.997-9.596-14.685L315 5.495z" fill="#785340"/><path d="M6.619 4.448C5.312 3.203 6.193 1 7.999 1h303.575a2 2 0 011.806 2.86l-9.538 20.037a2.001 2.001 0 00.192 2.041l8.377 11.44c.967 1.32.024 3.18-1.614 3.18H6.473c-1.542 0-2.504-1.67-1.73-3.003l12.248-21.106a2 2 0 00-.35-2.452L6.62 4.449z" fill="#AD795E"/><path d="M14.41 21.379c7.377.893 22.04 3.498 23.577 4.912 5.584 5.136-25.353 5.876-29.282 5.876" stroke="#CC9477"/><path d="M98.955 40.749l-.343.363.726.687.344-.363-.727-.687zm49.492-5.643l.151.477-.151-.477zm26.454 0l.128.484-.128-.484zm40.52-1.108l.048.498-.048-.498zm37.372 1.108l.1.49-.1-.49zM16.147 42.224c2.31-.886 6.648-2.547 10.807-3.985 2.08-.719 4.109-1.38 5.813-1.862 1.726-.487 3.058-.77 3.776-.77v-1c-.877 0-2.338.325-4.047.808-1.732.489-3.781 1.157-5.869 1.88-4.176 1.443-8.529 3.109-10.838 3.996l.358.933zm20.396-6.618c.912 0 2.587.392 4.7 1.019 2.088.62 4.532 1.448 6.947 2.28 2.41.83 4.793 1.664 6.742 2.29.974.312 1.847.575 2.567.76.703.182 1.307.303 1.719.303v-1c-.27 0-.763-.088-1.47-.27a46.924 46.924 0 01-2.51-.746c-1.936-.621-4.304-1.45-6.722-2.283-2.414-.831-4.878-1.666-6.989-2.293-2.086-.62-3.902-1.06-4.984-1.06v1zm63.139 5.83c-.059.062-.112.08-.088.069a.777.777 0 01.08-.028 5.09 5.09 0 01.415-.101c.371-.079.901-.17 1.571-.274 1.34-.206 3.215-.454 5.455-.73 4.477-.55 10.392-1.207 16.35-1.859 5.956-.65 11.954-1.295 16.594-1.819 2.32-.261 4.303-.493 5.772-.68a77.756 77.756 0 001.803-.246c.442-.068.788-.13.964-.185l-.302-.953c-.086.027-.348.078-.813.15-.448.067-1.047.149-1.778.242a435.52 435.52 0 01-5.758.679c-4.637.523-10.632 1.167-16.591 1.818-5.957.651-11.878 1.31-16.363 1.861-2.242.276-4.129.525-5.485.734-.676.104-1.227.199-1.626.283a6.02 6.02 0 00-.502.124c-.066.02-.132.044-.193.07a.718.718 0 00-.232.158l.727.687zm48.916-5.853c.077-.024.232-.053.487-.075a14.1 14.1 0 01.928-.044 62.041 62.041 0 012.809.028c2.225.061 5.038.192 7.939.308 2.896.116 5.875.215 8.412.212 2.515-.004 4.662-.107 5.856-.422l-.256-.967c-1.047.276-3.064.385-5.601.389-2.515.003-5.476-.096-8.371-.211-2.89-.115-5.719-.247-7.951-.309a62.909 62.909 0 00-2.858-.028 15.01 15.01 0 00-.995.048c-.269.024-.515.059-.701.118l.302.953zm26.431.007c6.64-1.753 13.818-1.758 20.819-1.453 6.969.303 13.802.917 19.621.358l-.095-.995c-5.728.55-12.438-.056-19.482-.362-7.014-.305-14.322-.31-21.119 1.485l.256.967zm40.44-1.095c1.524-.146 4.199-.072 7.496.108 3.285.18 7.143.461 11.02.721 3.873.26 7.762.497 11.092.586 3.313.088 6.125.032 7.816-.314l-.2-.98c-1.563.32-4.266.383-7.59.294-3.307-.088-7.179-.324-11.051-.584-3.868-.259-7.74-.541-11.033-.721-3.282-.18-6.033-.26-7.645-.105l.095.995zm37.424 1.101c1.579-.323 4.059-.489 7.006-.568 2.937-.08 6.301-.073 9.635-.06 3.33.015 6.631.036 9.427-.017 2.781-.051 5.111-.175 6.478-.464l-.207-.978c-1.258.265-3.494.39-6.29.443-2.781.052-6.068.03-9.403.017-3.333-.014-6.712-.02-9.667.059-2.945.08-5.505.246-7.179.589l.2.98zm32.546-1.109c2.677-.566 6.253-2.087 9.816-3.488 3.607-1.418 7.212-2.717 10.063-2.932l-.075-.997c-3.027.228-6.771 1.59-10.354 2.998-3.628 1.426-7.086 2.898-9.657 3.44l.207.979z" fill="#CC9477"/><path d="M19.599 1c18.154 3.29 55.635 9.916 60.327 10.092 5.865.22 37.285 0 45.245 0 7.96 0 31.63-5.924 37.286-6.582 5.655-.658 15.081 0 22.622 0s27.65 3.95 32.049 3.072c4.399-.878 26.393-.44 32.677-1.755 6.284-1.317 16.129 0 24.508 0 8.379 0 26.393.438 31.211-1.317 3.854-1.404 6.972-1.566 8.439-1.712" stroke="#CC9477"/><path d="M10.262 6.395c13.644.783 37.115 6.016 50.885 11.091 17.214 6.344 68.342 3.162 72.212 2.585 6.298-.94 26.03-7.754 35.056-7.754 9.027 0 34.637 3.29 38.625 3.29 3.989 0 31.698-1.176 36.736-1.41 5.038-.236 20.572 0 27.079.704 6.508.705 20.362-1.88 21.412-1.644 1.05.235 15.088 0 16.768 0" stroke="#CC9477"/><path d="M14.93 12.088c11.577.601 24.265 5.252 30.123 10.66 7.323 6.759 15.064 10.814 23.433 11.716 8.369.9 17.993-4.506 26.99-4.281 8.996.225 43.099-1.352 51.468-2.479 8.369-1.126 27.827-4.956 33.057-4.956 5.231 0 37.033 1.577 43.309 2.253 6.277.676 19.249-2.253 25.107-2.253h33.266c2.511 0 9.834-2.704 14.646-2.704h8.296" stroke="#CC9477"/><g filter="url(#filter1_i)" fill="#56321E"><path d="M49.39 13.113l-1.04.308-.574-.24h-5.648l-.446.514v15.202l1.401.205 2.124-.513.084-1.952-.36-1.267-.192-3.218h1.083l1.614-.445.382.171h.722l.191-.548.107-.821-.298-.206-1.571-.41h-2.272l-.17-.514v-3.184l-.064-.172.191-.274.786.206.043.376.042.035.361-.411H49.2l.34-.753-.15-2.089zM58.992 17.633l-.807-2.055-.276.137-1.423 1.85-.637 1.78-.446.684v-2.362l-.573-1.986h-1.232l-.34.616v8.765l-.106.377.042.89 2.336-.308.361-.343v-.684l.107-1.096-.107-1.814c.1-.115.177-.252.234-.411l.212-.48.276-.513c.114-.206.248-.4.404-.582l.976-1.199c.156-.182.312-.376.468-.582.17-.205.346-.433.53-.684zM68.32 27.288l-.064-.137a.723.723 0 00-.064-.308 2.575 2.575 0 01-.106-.377.33.33 0 00-.234.103c-.07.045-.148.102-.234.17-.07.046-.162.104-.275.172a.917.917 0 01-.383.069h-.106c-.17.022-.318.034-.446.034-.127 0-.248.011-.36.034-.114 0-.227.011-.34.034h-.404a51.535 51.535 0 01-.53-.137l-.107-.068h.021c.014 0-.007-.023-.064-.069-.014.023-.028.035-.042.035-.014 0-.028.011-.042.034h-.043a4.608 4.608 0 00-.382-.206c-.085-.045-.128-.125-.128-.24 0-.09-.07-.25-.212-.479a1.589 1.589 0 01-.191-.787c0-.342.021-.776.064-1.301.042-.548.127-.982.255-1.301.113-.114.31-.24.594-.377.283-.16.566-.24.85-.24.17 0 .297.046.382.137.099.069.177.16.233.274.057.114.085.24.085.377.014.114.021.228.021.342 0 .16-.035.274-.106.343a.53.53 0 01-.255.137c-.099.022-.198.034-.297.034-.099 0-.184.011-.255.034a3.796 3.796 0 01-.998.343c.071.045.12.137.149.274.028.136.05.285.064.445.014.137.02.273.02.41 0 .115.008.172.022.172.496 0 .906-.035 1.232-.103.325-.069.594-.148.807-.24l.51-.274a.944.944 0 01.382-.17c.056-.23.12-.366.19-.412.071-.068.15-.182.234-.342a7.48 7.48 0 00-.148-.959 10.68 10.68 0 00-.192-.924 8.187 8.187 0 00-.212-.753 2.21 2.21 0 01-.085-.377.354.354 0 01-.255-.103 1.864 1.864 0 01-.148-.205 1.136 1.136 0 01-.064-.206c-.014-.068-.028-.102-.042-.102a.424.424 0 01-.361-.171.425.425 0 01-.128-.172c-.226 0-.403-.045-.53-.137a.713.713 0 00-.425-.137 4 4 0 01-1.147.445c-.397.092-.75.286-1.062.583-.17.228-.325.445-.467.65a4.376 4.376 0 00-.382.685c-.113.25-.234.525-.361.822-.128.296-.255.65-.382 1.06-.071.184-.12.366-.149.549l-.042.548c0 .342.007.684.02 1.027.029.32.128.684.298 1.095.07.092.127.194.17.308l.085.172.127.17c.029 0 .05.07.064.206.028.114.05.171.064.171h.382c.17.16.304.297.403.411.1.092.191.16.276.206.085.023.177.045.276.068.1.023.227.034.383.034h.254c.1-.022.199-.034.298-.034h.276c.099 0 .22.023.36.069.312 0 .567-.023.765-.069.212-.068.418-.148.616-.24.212-.09.432-.17.658-.24.24-.068.531-.113.87-.136.086-.046.185-.149.298-.308.128-.183.191-.297.191-.343 0-.068-.035-.102-.106-.102h.106zM77.84 30.643v-6.368l-.254-2.602-.234-1.13-.191-4.28-.212-1.472-.807.171-.149-.274h-.34l-1.91-.24c-.03.206-.121.331-.277.377a3.517 3.517 0 01-.956.137c-.141 0-.219.034-.233.103a5.895 5.895 0 00-1.996 2.396c-.439.959-.658 2.169-.658 3.63v.342c.269.73.594 1.335.977 1.815.396.479.806.833 1.231 1.061l2.315 1.267c.155.16.297.274.424.342.142.046.298.091.468.137l-.064.616v3.904l.424.547h1.636l.233.308h.34l.233-.787zm-2.526-13.01v2.328l-.15 1.575v.924h-.296l-2.973-.959-.765-1.677c.071-.502.191-.868.361-1.096.184-.228.39-.388.616-.48a2.79 2.79 0 01.743-.17c.27-.023.524-.092.765-.206.226-.114.417-.194.573-.24.156-.045.311-.068.467-.068.1 0 .198.012.297.034.114 0 .234.012.362.035zM86.614 20.337l-.637-3.56-1.062-.377-.318.274v5.58l-.255.275h-.361l-1.083.582-.234-.137-.085-.514-.17-.41v-3.767l-.36-1.78h-1.593l-.34.17-.17 2.226.361 1.164-.233 3.732.467 1.883.51.274.594.617.467-.24.085-.24.743.137.425-.342.85-1.37.275-.205.213.342-.064.24.51.548h1.274l.19-.411v-4.69zM96.874 27.288l-.064-.137a.722.722 0 00-.064-.308 2.575 2.575 0 01-.106-.377.33.33 0 00-.233.103c-.071.045-.149.102-.234.17-.07.046-.163.104-.276.172a.917.917 0 01-.382.069h-.106c-.17.022-.319.034-.446.034-.128 0-.248.011-.361.034-.114 0-.227.011-.34.034h-.403a52.258 52.258 0 01-.531-.137l-.106-.068h.02c.015 0-.006-.023-.063-.069-.014.023-.028.035-.043.035-.014 0-.028.011-.042.034h-.042a4.593 4.593 0 00-.383-.206c-.085-.045-.127-.125-.127-.24 0-.09-.07-.25-.212-.479a1.589 1.589 0 01-.192-.787c0-.342.022-.776.064-1.301.043-.548.128-.982.255-1.301.113-.114.312-.24.595-.377.283-.16.566-.24.849-.24.17 0 .297.046.382.137.1.069.177.16.234.274.056.114.085.24.085.377.014.114.02.228.02.342 0 .16-.034.274-.105.343a.531.531 0 01-.255.137c-.1.022-.198.034-.297.034-.1 0-.184.011-.255.034a3.796 3.796 0 01-.998.343c.07.045.12.137.148.274.029.136.05.285.064.445.014.137.021.273.021.41 0 .115.008.172.022.172.495 0 .906-.035 1.231-.103.326-.069.595-.148.807-.24l.51-.274a.944.944 0 01.382-.17c.057-.23.12-.366.191-.412.07-.068.149-.182.234-.342a7.498 7.498 0 00-.149-.959c-.057-.342-.12-.65-.191-.924a8.156 8.156 0 00-.212-.753 2.215 2.215 0 01-.085-.377.354.354 0 01-.255-.103 1.877 1.877 0 01-.149-.205 1.144 1.144 0 01-.064-.206c-.014-.068-.028-.102-.042-.102a.423.423 0 01-.36-.171.425.425 0 01-.128-.172c-.227 0-.404-.045-.531-.137a.712.712 0 00-.425-.137 3.998 3.998 0 01-1.147.445c-.396.092-.75.286-1.061.583-.17.228-.326.445-.467.65a4.369 4.369 0 00-.383.685 51.07 51.07 0 00-.36.822c-.128.296-.255.65-.383 1.06-.07.184-.12.366-.149.549l-.042.548c0 .342.007.684.021 1.027.029.32.128.684.297 1.095.071.092.128.194.17.308l.085.172.128.17c.028 0 .05.07.064.206.028.114.049.171.063.171h.382c.17.16.305.297.404.411.099.092.19.16.276.206.085.023.177.045.276.068.099.023.226.034.382.034h.255c.1-.022.198-.034.297-.034h.276c.1 0 .22.023.361.069.312 0 .567-.023.765-.069.212-.068.417-.148.615-.24.213-.09.432-.17.659-.24.24-.068.53-.113.87-.136.085-.046.184-.149.298-.308.127-.183.19-.297.19-.343 0-.068-.035-.102-.105-.102h.106zM105.631 17.359l-.34-.445h-1.465l-1.232.821-.488.343-.446.308-.659-1.918h-1.486l-.382.89v6.848l.297 1.13.552-.342h.34l.318.308 1.02-.411-.128-3.287-.042-.068v-1.37l1.359-.24.382-.342h.255l.488 1.13-.34 3.972.277.376h2.208l.212-.41v-4.11l.085-.787-.785-2.396zM113.669 20.782l.552-.034c.07.046.134.08.191.103a.637.637 0 00.233.034.449.449 0 00.17-.034c.071-.023.135-.046.191-.069a.839.839 0 01.255-.034c.113-.023.255-.034.425-.034.056 0 .106.011.148.034h.17c.029 0 .085-.045.17-.137-.071 0-.106-.08-.106-.24 0-.022.007-.09.021-.205a2.4 2.4 0 00.022-.24c-.015 0-.022-.057-.022-.17 0-.092.014-.16.043-.206a.526.526 0 01-.149-.343c0-.137-.028-.273-.085-.41a.462.462 0 01-.191.068h-.212a.76.76 0 00-.106-.068.552.552 0 00-.234-.035 4.5 4.5 0 00-.51-.068 16.38 16.38 0 00-.615-.069 12.187 12.187 0 01-.786-.102l-.212-3.8-.192-.446-1.401.206-.34.787-.063 3.082h-.574a4.32 4.32 0 00-.531-.035 1.55 1.55 0 01-.233.103h-.34a.703.703 0 01-.297-.069h-.34l-.319.446v.616c0 .228.008.456.022.685.028.228.063.433.106.616.042.16.099.263.17.308l.17.24h.318c.071-.023.198-.057.382-.103.014-.046.078-.068.191-.068a.98.98 0 01.255.034.545.545 0 01.191.068h.128a.449.449 0 01.17-.034l.297-.034-.085.685v4.45l.085 1.952.234.788.53-.137 1.742.205 1.189-.274c.085-.388.127-.776.127-1.164 0-.388-.042-.799-.127-1.232l-.828-.72v-4.896zM121.051 17.496l-.107-.308.17-1.096v-3.184l-.255-.274-1.635 1.404-.169 1.164v4.416l-.404 9.04.319.444 1.316-.17.531.273.446-.48v-7.394l-.212-3.835zM127.733 27.116l-2.123 6.643.276.821h.297l.234-.273h1.465l.425-.548.297-1.541.509-2.054.659-1.678.255-.685v-.65h-.107l.298-.753.573-.822.637-2.431.658-1.54.467-1.302.255-1.233v-.65h-1.762l-.807 1.678-.404 1.403-.361.72-.212.958-.212.137-.191.377-.255.17-1.656-2.259-.192-.41-1.465-2.603-.212-.137-1.104.171-.064.343 1.402 3.663.361 1.096 1.826 2.842.063.342.234.205h-.064zM149.951 28.418a343.9 343.9 0 01-.297-2.466c-.085-.753-.17-1.483-.255-2.19a213.97 213.97 0 00-.531-4.794 2.063 2.063 0 01-.169-.582 12.425 12.425 0 01-.107-.788l-.084-.821a29.33 29.33 0 00-.043-.72l-.149-1.437a6.602 6.602 0 00-.339-1.541l-.213-.445a11.383 11.383 0 01-.148-.411h-.489a2.658 2.658 0 00-.424-.034 2.814 2.814 0 00-.446-.034 11.61 11.61 0 00-.51-.069h-.34a.908.908 0 01-.233-.034h-.319c-.297.684-.58 1.324-.849 1.917-.269.57-.524 1.141-.765 1.712-.24.57-.474 1.187-.7 1.849a27.664 27.664 0 00-.616 2.294c-.184.776-.361 1.335-.531 1.677-.156.343-.269.64-.34.89-.155.457-.283.845-.382 1.165-.085.296-.198.673-.34 1.13l-.318 1.609-.17.753c-.043.251-.092.525-.149.822.014.205.029.376.043.513.014.114.035.251.063.411h2.251c.113-.48.22-.913.319-1.3.099-.389.191-.766.276-1.13.099-.389.198-.788.297-1.2.099-.41.212-.867.34-1.369a.613.613 0 01.361-.274 2.12 2.12 0 01.552-.068 5.38 5.38 0 01.616-.034H146.32l.913-.069c.029.297.05.582.064.856.028.274.043.457.043.548 0 .091-.015.148-.043.171-.028.023-.042.137-.042.343 0 .616.021 1.164.063 1.643.043.457.092.959.149 1.506l.658.103c.085.023.177.046.276.069h.361c.128 0 .234-.012.319-.034a.4.4 0 01.276-.035l.594-.102zm-2.909-7.156l-.106.205h-1.423a2.736 2.736 0 00-.382-.034 7.682 7.682 0 01-.977.068c0-.022-.007-.034-.021-.034V21.364l.297-1.027c.142-.616.312-1.232.51-1.849.198-.639.432-1.152.701-1.54.085-.114.17-.24.255-.377.099-.137.184-.308.254-.513.057 0 .107.011.149.034H146.448v.034c0 .046.021.08.063.103.043.548.114 1.015.213 1.404.099.388.163.764.191 1.13l.042 1.232c.015.205.022.41.022.616.014.183.035.4.063.65zM158.553 23.213c-.028-.205-.092-.365-.191-.479-.099-.114-.149-.274-.149-.48a4.739 4.739 0 01-.297-.17.634.634 0 00-.191-.137 3.81 3.81 0 01-.149-.172.733.733 0 00-.212-.205c-.028 0-.113-.057-.255-.171-.127-.137-.212-.217-.255-.24l-.297-.24a1.975 1.975 0 01-.403-.376.846.846 0 01-.128-.308l-.382-.582c-.057 0-.113-.046-.17-.137-.042-.114-.064-.343-.064-.685 0-.32.022-.56.064-.72.057-.159.219-.353.488-.581h.043a.35.35 0 00.17-.069c.071-.045.134-.137.191-.273 0-.046.021-.092.064-.137.042-.046.212-.137.509-.274a.359.359 0 00.17-.035c.043-.045.099-.102.17-.17h.425a1.48 1.48 0 01.148-.07c-.014 0-.021-.01-.021-.034.014 0 .021-.011.021-.034 0-.023.007-.034.022-.034a.59.59 0 00-.022-.171V15.886c0-.342-.056-.536-.17-.582a.899.899 0 01-.254-.274c-.17.046-.319.08-.446.103h-.637a.268.268 0 01-.064-.068 2.31 2.31 0 01-.488.24 1.207 1.207 0 00-.468.205l-.806.548c-.185.182-.39.353-.616.513-.213.16-.39.377-.531.65-.071.206-.184.4-.34.583 0 .205-.035.365-.106.48a.91.91 0 00-.085.41.2.2 0 00.021.103c.014.023.021.09.021.205 0 .091-.007.194-.021.308a.645.645 0 01-.063.24c0 .205.035.434.106.685.085.228.163.365.233.41l.191.274c.142.092.262.194.361.308.099.115.191.24.276.377l.255.343a.68.68 0 00.361.17c.198.115.319.218.361.309a.32.32 0 01.085.205c.014.046.036.103.064.171.028.046.134.137.318.274 0 .092.05.217.149.377l.17.274c.042.183.064.354.064.514 0 .205-.05.376-.149.513a1.425 1.425 0 01-.319.308 1.098 1.098 0 01-.318.137c-.099.023-.149.023-.149 0-.325.16-.559.274-.7.342a.804.804 0 01-.383.103c-.099 0-.297-.034-.594-.102-.029.068-.078.102-.149.102a.578.578 0 01-.276-.102c-.099-.069-.142-.092-.127-.069.085.32.12.616.106.89-.014.251.014.377.085.377h.021a.557.557 0 00-.064.274h.022l-.043.034c0 .046.057.126.17.24.127.091.198.137.212.137.269-.046.538-.114.807-.206a2.76 2.76 0 01.892-.137c.198 0 .382.034.552.103.17.068.347.103.531.103.269 0 .481-.046.637-.137.17-.092.304-.183.403-.274a2.3 2.3 0 01.277-.274.393.393 0 01.297-.137l.446-.342a1.93 1.93 0 00.424-.582c.142-.274.213-.571.213-.89 0-.206-.014-.423-.043-.651-.014-.228-.021-.49-.021-.788zM165.196 21.707a.27.27 0 01-.17.068c-.099 0-.169-.068-.212-.205l-.127-1.061a66.74 66.74 0 01-.022-1.884c0-.776-.007-1.563-.021-2.362a96.444 96.444 0 00-.064-2.294c-.028-.73-.077-1.278-.148-1.643H163.582a1.143 1.143 0 00-.297-.035 5.963 5.963 0 00-.467-.068c-.085.137-.156.217-.212.24-.057 0-.114.045-.17.137v1.54c0 1.096-.014 2.123-.043 3.082l-.042 2.773-.043 2.773c-.014.913-.021 1.883-.021 2.91v1.199c0 .41.007.844.021 1.3l-.085.275c-.014.091-.021.16-.021.205.043.16.078.285.106.377.029.114.057.217.085.308l.213.65h.615c.241.023.482.023.722 0 .255 0 .503-.034.744-.102.24-.069.467-.194.679-.377-.028-.41-.042-.856-.042-1.335a9.06 9.06 0 00-.106-1.575c-.071-.434-.114-.73-.128-.89a6.82 6.82 0 01-.021-.582v-.377a.523.523 0 01.17-.342c.481.57.856 1.05 1.125 1.438.269.365.482.673.637.924.156.228.255.4.298.514.042.114.077.194.106.24l.085.239v.034c0 .023.021.103.063.24.043.114.177.342.404.685a6.313 6.313 0 00.446.582.92.92 0 01.085.102c.028.023.077.069.148.137l.383.308c.169-.114.339-.33.509-.65.17-.297.425-.57.765-.822a4.94 4.94 0 01.382-.24c.085-.045.127-.136.127-.273a.885.885 0 00-.106-.411 3.272 3.272 0 00-.255-.411 4.051 4.051 0 00-.318-.445 2.044 2.044 0 01-.234-.411 7.821 7.821 0 00-.87-1.13l-.786-.822c-.241-.25-.474-.479-.701-.684a7.168 7.168 0 01-.594-.65c.24-.275.46-.537.658-.788l.594-.822c.199-.297.411-.616.637-.959.227-.365.489-.776.786-1.232a10.494 10.494 0 00-.149-.445.761.761 0 00-.212-.377c-.028.023-.085.034-.17.034a.634.634 0 01-.191-.034.587.587 0 01-.233-.171c-.199.183-.361.33-.489.445-.127.114-.262.24-.403.377-.142.136-.298.32-.467.547-.17.229-.383.548-.638.96-.254.182-.424.341-.509.478a1.28 1.28 0 01-.34.308 2.278 2.278 0 01-.255.274 1.99 1.99 0 00-.318.411c-.029-.022-.043-.068-.043-.137v-.068zM179.696 27.288l-.063-.137a.73.73 0 00-.064-.308 2.6 2.6 0 01-.106-.377.33.33 0 00-.234.103 2.732 2.732 0 00-.233.17c-.071.046-.163.104-.276.172a.92.92 0 01-.383.069h-.106c-.17.022-.318.034-.446.034-.127 0-.247.011-.361.034a1.71 1.71 0 00-.339.034h-.404a52.531 52.531 0 01-.531-.137l-.106-.068h.021c.014 0-.007-.023-.063-.069-.014.023-.029.035-.043.035-.014 0-.028.011-.042.034h-.043a4.5 4.5 0 00-.382-.206c-.085-.045-.127-.125-.127-.24 0-.09-.071-.25-.213-.479a1.593 1.593 0 01-.191-.787c0-.342.021-.776.064-1.301.042-.548.127-.982.255-1.301.113-.114.311-.24.594-.377.283-.16.566-.24.85-.24.169 0 .297.046.382.137.099.069.177.16.233.274a.83.83 0 01.085.377c.015.114.022.228.022.342 0 .16-.036.274-.107.343a.525.525 0 01-.254.137 1.328 1.328 0 01-.298.034.828.828 0 00-.254.034 3.822 3.822 0 01-.999.343c.071.045.121.137.149.274.028.136.05.285.064.445.014.137.021.273.021.41 0 .115.007.172.021.172.496 0 .906-.035 1.232-.103a4.37 4.37 0 00.807-.24l.509-.274a.947.947 0 01.383-.17c.056-.23.12-.366.191-.412.071-.068.148-.182.233-.342a7.567 7.567 0 00-.148-.959c-.057-.342-.121-.65-.191-.924a8.167 8.167 0 00-.213-.753 2.287 2.287 0 01-.085-.377.35.35 0 01-.254-.103 1.77 1.77 0 01-.149-.205 1.154 1.154 0 01-.064-.206c-.014-.068-.028-.102-.042-.102a.423.423 0 01-.361-.171.429.429 0 01-.128-.172c-.226 0-.403-.045-.531-.137a.711.711 0 00-.424-.137 3.997 3.997 0 01-1.147.445c-.396.092-.75.286-1.062.583-.17.228-.325.445-.467.65a4.392 4.392 0 00-.382.685c-.113.25-.234.525-.361.822-.127.296-.255.65-.382 1.06a2.596 2.596 0 00-.149.549l-.042.548c0 .342.007.684.021 1.027.028.32.127.684.297 1.095.071.092.128.194.17.308l.085.172.127.17c.029 0 .05.07.064.206.028.114.05.171.064.171h.382c.17.16.304.297.403.411.1.092.192.16.277.206.084.023.176.045.276.068.099.023.226.034.382.034h.255a1.32 1.32 0 01.297-.034h.276c.099 0 .219.023.361.069.311 0 .566-.023.764-.069.213-.068.418-.148.616-.24a6.3 6.3 0 01.658-.24c.241-.068.531-.113.871-.136.085-.046.184-.149.297-.308.128-.183.191-.297.191-.343 0-.068-.035-.102-.106-.102h.106zM184.992 20.098l-1.147.856c-.354.32-.63.639-.828.958-.198.32-.354.674-.467 1.062-.113.388-.191.81-.234 1.267-.042.456-.092.97-.148 1.54a1.931 1.931 0 00-.021.343c0 .365.063.707.191 1.027.127.32.29.593.488.821.198.206.411.377.637.514.241.114.467.194.68.24l1.783.308c.156.182.312.297.467.342.17.046.333.069.489.069l.934-.48h1.402l.233.308h.319l.233-.787V22.46l-.021-.103-.149-.068v-8.32l-.658-.548h-1.062l-.403.445c0 .366-.028.697-.085.993a5.302 5.302 0 00-.064.685c0 .114.036.171.106.171v1.54l-.318 1.542v.24l-1.253.787c0 .045-.049.068-.149.068a.804.804 0 01-.276-.034.634.634 0 01-.191-.034l-.488.274zm2.314 1.403v1.986l-.169 1.575v.89h-.255c-.269.069-.503.126-.701.172a5.792 5.792 0 01-.658.034 3.08 3.08 0 01-.446-.034 1.375 1.375 0 01-.488-.206.134.134 0 00-.085.034h-.043c-.255 0-.446-.137-.573-.41-.113-.297-.17-.788-.17-1.473 0-.502.042-.867.127-1.095.085-.229.206-.4.361-.514.17-.114.354-.194.552-.24.213-.045.439-.125.68-.24.141-.045.262-.09.361-.136.113-.069.233-.114.361-.137h.106c.014.023.042.034.085.034.071 0 .17-.034.297-.103a.782.782 0 01.467-.137h.191zM207.56 24.104c.099-.16.205-.343.318-.548.113-.206.219-.422.319-.65a5.45 5.45 0 00.276-.754c.07-.274.106-.525.106-.753 0-1.78-.227-3.378-.68-4.794-.453-1.415-1.111-2.51-1.975-3.286a.22.22 0 00-.169-.069h-.404a.508.508 0 00-.191.034h-.17a.86.86 0 01-.361-.068c-.099-.046-.156-.148-.17-.308l-2.038.65a5.724 5.724 0 00-1.041.788c-.339.32-.658.719-.955 1.198a6.659 6.659 0 00-.701 1.61c-.17.616-.276 1.323-.319 2.122a61.347 61.347 0 01-.106 1.917c-.028.57-.042 1.13-.042 1.678 0 .388.014.776.042 1.164.029.365.092.753.191 1.164l.255.65 2.994 1.713h.383c.113 0 .212-.012.297-.035.099-.045.191-.102.276-.17.085-.07.198-.183.34-.343l1.677-1.13c.113.297.234.593.361.89.142.297.333.64.573 1.027-.014.229.036.411.149.548l.34.308.403.343.743-.548a8.67 8.67 0 01.807-.582c.269-.183.404-.343.404-.48a.874.874 0 00-.17-.513 42.297 42.297 0 00-.403-.72l-.553-.82a7.196 7.196 0 00-.424-.617l-.382-.616zm-1.211-2.157l-.488-.856a3.66 3.66 0 00-.234-.446l-.212-.479-1.019-1.712c-.071.046-.156.171-.255.377a10.132 10.132 0 01-.637 1.267c-.099.182-.198.274-.298.274-.042 0-.07-.035-.084-.103l1.082 2.43c.043.07.071.103.085.103l-.913.343h-.382l-.786-1.198v-.343c0-.228-.007-.445-.021-.65v-.617c0-.274.007-.536.021-.787.029-.274.085-.594.17-.959.114-.114.234-.274.361-.48.128-.227.262-.444.404-.65a3.47 3.47 0 01.488-.582c.17-.182.354-.274.552-.274.099 0 .227.035.382.103.156.046.326.126.51.24.198.091.382.205.552.342.17.114.326.217.467.308.227.229.425.525.595.89.17.343.297.822.382 1.439l-.722 2.02zM218.5 20.337l-.637-3.56-1.062-.377-.319.274v5.58l-.254.275h-.361l-1.083.582-.234-.137-.085-.514-.17-.41v-3.767l-.361-1.78h-1.592l-.34.17-.17 2.226.361 1.164-.233 3.732.467 1.883.509.274.595.617.467-.24.085-.24.743.137.425-.342.849-1.37.276-.205.213.342-.064.24.51.548h1.274l.191-.411v-4.69zM228.76 27.288l-.064-.137a.714.714 0 00-.064-.308 2.6 2.6 0 01-.106-.377.33.33 0 00-.234.103 2.9 2.9 0 00-.233.17c-.071.046-.163.104-.276.172a.918.918 0 01-.382.069h-.107a3.39 3.39 0 01-.445.034c-.128 0-.248.011-.361.034-.114 0-.227.011-.34.034h-.404a52.531 52.531 0 01-.531-.137l-.106-.068h.022c.014 0-.008-.023-.064-.069-.014.023-.028.035-.043.035-.014 0-.028.011-.042.034h-.043a4.5 4.5 0 00-.382-.206c-.085-.045-.127-.125-.127-.24 0-.09-.071-.25-.213-.479a1.593 1.593 0 01-.191-.787c0-.342.022-.776.064-1.301.043-.548.127-.982.255-1.301.113-.114.311-.24.594-.377.284-.16.567-.24.85-.24.17 0 .297.046.382.137.099.069.177.16.234.274.056.114.085.24.085.377.014.114.021.228.021.342 0 .16-.036.274-.106.343a.533.533 0 01-.255.137 1.322 1.322 0 01-.298.034.828.828 0 00-.254.034 3.795 3.795 0 01-.998.343c.07.045.12.137.148.274.029.136.05.285.064.445.014.137.021.273.021.41 0 .115.007.172.021.172.496 0 .906-.035 1.232-.103.326-.069.595-.148.807-.24l.51-.274a.938.938 0 01.382-.17c.056-.23.12-.366.191-.412a1.41 1.41 0 00.234-.342 7.57 7.57 0 00-.149-.959c-.057-.342-.12-.65-.191-.924a8.167 8.167 0 00-.213-.753 2.287 2.287 0 01-.085-.377.35.35 0 01-.254-.103 1.896 1.896 0 01-.149-.205 1.154 1.154 0 01-.064-.206c-.014-.068-.028-.102-.042-.102a.423.423 0 01-.361-.171.429.429 0 01-.128-.172c-.226 0-.403-.045-.53-.137a.714.714 0 00-.425-.137 3.997 3.997 0 01-1.147.445 2.25 2.25 0 00-1.061.583c-.17.228-.326.445-.468.65a4.392 4.392 0 00-.382.685c-.113.25-.233.525-.361.822-.127.296-.255.65-.382 1.06-.071.184-.12.366-.149.549l-.042.548c0 .342.007.684.021 1.027.028.32.127.684.297 1.095.071.092.128.194.17.308l.085.172.128.17c.028 0 .049.07.063.206.029.114.05.171.064.171h.382c.17.16.305.297.404.411.099.092.191.16.276.206.085.023.177.045.276.068.099.023.226.034.382.034h.255a1.32 1.32 0 01.297-.034h.276c.099 0 .22.023.361.069.312 0 .566-.023.765-.069a5.52 5.52 0 00.615-.24c.213-.09.432-.17.659-.24.24-.068.53-.113.87-.136.085-.046.184-.149.298-.308.127-.183.191-.297.191-.343 0-.068-.036-.102-.107-.102h.107zM236.731 23.213c-.029-.205-.092-.365-.191-.479-.1-.114-.149-.274-.149-.48a4.462 4.462 0 01-.297-.17.646.646 0 00-.191-.137 3.81 3.81 0 01-.149-.172.746.746 0 00-.212-.205c-.029 0-.114-.057-.255-.171a1.534 1.534 0 00-.255-.24l-.297-.24a1.985 1.985 0 01-.404-.376.842.842 0 01-.127-.308l-.382-.582c-.057 0-.114-.046-.17-.137-.043-.114-.064-.343-.064-.685 0-.32.021-.56.064-.72.056-.159.219-.353.488-.581h.043a.344.344 0 00.169-.069c.071-.045.135-.137.192-.273 0-.046.021-.092.063-.137.043-.046.213-.137.51-.274a.361.361 0 00.17-.035 4.18 4.18 0 01.17-.17h.424c.043-.024.092-.046.149-.07-.014 0-.021-.01-.021-.034.014 0 .021-.011.021-.034 0-.023.007-.034.021-.034a.593.593 0 00-.021-.171V15.886c0-.342-.057-.536-.17-.582a.914.914 0 01-.255-.274c-.17.046-.318.08-.446.103h-.637a.28.28 0 01-.063-.068 2.29 2.29 0 01-.489.24 1.21 1.21 0 00-.467.205l-.807.548a4.767 4.767 0 01-.616.513 1.88 1.88 0 00-.531.65c-.07.206-.184.4-.339.583 0 .205-.036.365-.106.48a.91.91 0 00-.085.41.2.2 0 00.021.103c.014.023.021.09.021.205 0 .091-.007.194-.021.308a.641.641 0 01-.064.24c0 .205.036.434.106.685.085.228.163.365.234.41l.191.274c.142.092.262.194.361.308.099.115.191.24.276.377l.255.343a.677.677 0 00.361.17c.198.115.318.218.361.309a.326.326 0 01.085.205c.014.046.035.103.063.171.029.046.135.137.319.274 0 .092.05.217.149.377l.169.274c.043.183.064.354.064.514a.854.854 0 01-.148.513 1.446 1.446 0 01-.319.308 1.098 1.098 0 01-.318.137c-.1.023-.149.023-.149 0-.326.16-.559.274-.701.342a.8.8 0 01-.382.103c-.099 0-.297-.034-.595-.102-.028.068-.078.102-.148.102a.578.578 0 01-.276-.102c-.099-.069-.142-.092-.128-.069.085.32.121.616.106.89-.014.251.015.377.085.377h.022a.417.417 0 00-.043.103.593.593 0 00-.021.17h.021l-.042.035c0 .046.056.126.17.24.127.091.198.137.212.137.269-.046.538-.114.807-.206a2.76 2.76 0 01.892-.137c.198 0 .382.034.552.103.17.068.347.103.531.103.269 0 .481-.046.637-.137.169-.092.304-.183.403-.274.099-.114.191-.206.276-.274a.394.394 0 01.297-.137l.446-.342c.156-.137.298-.331.425-.582.142-.274.212-.571.212-.89 0-.206-.014-.423-.042-.651-.014-.228-.021-.49-.021-.788zM244.393 20.782l.552-.034c.071.046.135.08.191.103a.647.647 0 00.234.034.453.453 0 00.17-.034c.071-.023.134-.046.191-.069a.839.839 0 01.255-.034 2.2 2.2 0 01.424-.034c.057 0 .107.011.149.034H246.729c.028 0 .085-.045.17-.137-.071 0-.106-.08-.106-.24 0-.022.007-.09.021-.205.014-.114.021-.194.021-.24-.014 0-.021-.057-.021-.17a.4.4 0 01.042-.206.524.524 0 01-.148-.343 1.08 1.08 0 00-.085-.41.467.467 0 01-.191.068h-.213a.657.657 0 00-.106-.068.544.544 0 00-.233-.035 4.535 4.535 0 00-.51-.068c-.17-.023-.375-.046-.616-.069a12.279 12.279 0 01-.786-.102l-.212-3.8-.191-.446-1.401.206-.34.787-.064 3.082h-.573a4.32 4.32 0 00-.531-.035c-.142.069-.22.103-.234.103h-.339a.704.704 0 01-.298-.069h-.339l-.319.446v.616c0 .228.007.456.021.685.029.228.064.433.106.616.043.16.1.263.17.308l.17.24h.319a6.55 6.55 0 01.382-.103c.014-.046.078-.068.191-.068a.98.98 0 01.255.034.545.545 0 01.191.068h.127a.456.456 0 01.17-.034l.297-.034-.084.685v4.45l.084 1.952.234.788.531-.137 1.741.205 1.189-.274c.085-.388.128-.776.128-1.164a6.42 6.42 0 00-.128-1.232l-.828-.72v-4.896zM252.603 15.304l-.722-.479-.934-.274-.68-.24-.509.274v3.253l.064.41 1.274-.341.998.308.297-.343.212-2.568zm.149 11.402l-.361-.48.127-.616V24l-.148-.855v-2.363l-.255-.445-.446-.034-.17.137-.849-.103-.361.274-.446 8.286.212.377h.382l.255-.137h1.635l.404-.309-.107-.821.128-1.301zM256.226 20.235c-.042.41-.071.799-.085 1.164v.993c0 .547.05 1.027.149 1.438l.212.445 2.251 1.061h.51c.056-.023.12-.057.191-.103.07-.045.148-.114.233-.205l1.784-.959a5.43 5.43 0 00.425-.342 3.88 3.88 0 00.552-.548c.184-.228.339-.48.467-.753.127-.274.191-.56.191-.856 0-1.096-.177-2.089-.531-2.979-.34-.89-.828-1.575-1.465-2.054h-.043c-.056 0-.155.011-.297.034a2.421 2.421 0 01-.382.034.574.574 0 01-.276-.068.228.228 0 01-.106-.206l-1.508.377a3.515 3.515 0 00-.764.48 3.782 3.782 0 00-.701.753 3.672 3.672 0 00-.531.993 4.748 4.748 0 00-.276 1.3zm3.928-1.575c.17.091.354.17.553.24.198.068.382.17.552.308.169.114.318.273.446.479.141.205.247.513.318.924l-.552 1.301-2.272.754h-.297l-.553-.788.107-2.054c.085-.069.17-.171.254-.308a6.58 6.58 0 01.277-.411c.113-.16.233-.285.361-.377a.699.699 0 01.445-.171c.1 0 .22.034.361.103zM272.852 17.359l-.34-.445h-1.465l-1.232.821-.488.343-.446.308-.658-1.918h-1.487l-.382.89v6.848l.297 1.13.552-.342h.34l.319.308 1.019-.411-.127-3.287-.043-.068v-1.37l1.359-.24.382-.342h.255l.489 1.13-.34 3.972.276.376h2.208l.213-.41v-4.11l.084-.787-.785-2.396zM282.206 23.213c-.028-.205-.092-.365-.191-.479-.099-.114-.148-.274-.148-.48a4.532 4.532 0 01-.298-.17.622.622 0 00-.191-.137 3.864 3.864 0 01-.148-.172.752.752 0 00-.213-.205c-.028 0-.113-.057-.255-.171a1.504 1.504 0 00-.254-.24l-.298-.24a1.975 1.975 0 01-.403-.376.864.864 0 01-.128-.308l-.382-.582c-.056 0-.113-.046-.17-.137-.042-.114-.063-.343-.063-.685 0-.32.021-.56.063-.72.057-.159.22-.353.489-.581h.042c.043 0 .099-.023.17-.069.071-.045.135-.137.191-.273 0-.046.021-.092.064-.137.042-.046.212-.137.51-.274.07 0 .127-.012.169-.035.043-.045.1-.102.17-.17h.425c.042-.024.092-.046.149-.07-.015 0-.022-.01-.022-.034.015 0 .022-.011.022-.034 0-.023.007-.034.021-.034a.593.593 0 00-.021-.171V15.886c0-.342-.057-.536-.17-.582a.914.914 0 01-.255-.274c-.17.046-.319.08-.446.103h-.637a.287.287 0 01-.064-.068 2.31 2.31 0 01-.488.24 1.204 1.204 0 00-.467.205l-.807.548a4.767 4.767 0 01-.616.513 1.88 1.88 0 00-.531.65c-.071.206-.184.4-.34.583 0 .205-.035.365-.106.48a.924.924 0 00-.085.41c0 .046.007.08.022.103.014.023.021.09.021.205 0 .091-.007.194-.021.308a.66.66 0 01-.064.24c0 .205.035.434.106.685.085.228.163.365.234.41l.191.274c.141.092.262.194.361.308.099.115.191.24.276.377l.255.343a.677.677 0 00.361.17c.198.115.318.218.361.309a.325.325 0 01.084.205c.015.046.036.103.064.171.029.046.135.137.319.274 0 .092.049.217.148.377l.17.274c.043.183.064.354.064.514 0 .205-.05.376-.149.513a1.44 1.44 0 01-.318.308c-.113.069-.22.114-.319.137-.099.023-.148.023-.148 0l-.701.342a.803.803 0 01-.382.103c-.099 0-.298-.034-.595-.102-.028.068-.078.102-.149.102a.585.585 0 01-.276-.102c-.099-.069-.141-.092-.127-.069.085.32.12.616.106.89-.014.251.014.377.085.377h.021a.465.465 0 00-.042.103.593.593 0 00-.021.17h.021a1.836 1.836 0 01-.043.035c0 .046.057.126.17.24.128.091.198.137.213.137.269-.046.538-.114.807-.206.268-.091.566-.137.891-.137.199 0 .383.034.552.103.17.068.347.103.531.103.269 0 .482-.046.637-.137.17-.092.305-.183.404-.274.099-.114.191-.206.276-.274a.394.394 0 01.297-.137l.446-.342c.156-.137.297-.331.425-.582.141-.274.212-.571.212-.89 0-.206-.014-.423-.042-.651-.015-.228-.022-.49-.022-.788z"/></g></g><defs><filter id="filter0_d" x=".297" y=".508" width="318.703" height="50.149" filterUnits="userSpaceOnUse" color-interpolation-filters="sRGB"><feFlood flood-opacity="0" result="BackgroundImageFix"/><feColorMatrix in="SourceAlpha" values="0 0 0 0 0 0 0 0 0 0 0 0 0 0 0 0 0 0 127 0"/><feOffset dy="4"/><feGaussianBlur stdDeviation="2"/><feColorMatrix values="0 0 0 0 0 0 0 0 0 0 0 0 0 0 0 0 0 0 0.25 0"/><feBlend in2="BackgroundImageFix" result="effect1_dropShadow"/><feBlend in="SourceGraphic" in2="effect1_dropShadow" result="shape"/></filter><filter id="filter1_i" x="41.682" y="12.052" width="240.588" height="23.529" filterUnits="userSpaceOnUse" color-interpolation-filters="sRGB"><feFlood flood-opacity="0" result="BackgroundImageFix"/><feBlend in="SourceGraphic" in2="BackgroundImageFix" result="shape"/><feColorMatrix in="SourceAlpha" values="0 0 0 0 0 0 0 0 0 0 0 0 0 0 0 0 0 0 127 0" result="hardAlpha"/><feOffset dy="1"/><feGaussianBlur stdDeviation=".5"/><feComposite in2="hardAlpha" operator="arithmetic" k2="-1" k3="1"/><feColorMatrix values="0 0 0 0 0 0 0 0 0 0 0 0 0 0 0 0 0 0 0.3 0"/><feBlend in2="shape" result="effect1_innerShadow"/></filter></defs></svg>