<svg preserveAspectRatio="none" width="1440" height="1999" viewBox="0 0 1440 1999" fill="none" xmlns="http://www.w3.org/2000/svg">
<g clip-path="url(#clip0)">
<rect x="2" y="7" width="1435" height="1404" fill="url(#paint0_linear)"/>
<rect x="-19" y="1270" width="1477" height="88" fill="#413545"/>
<line x1="16.9989" y1="1285.5" x2="1425" y2="1284.5" stroke="#FDB073" stroke-width="3" stroke-dasharray="30 30"/>
<rect x="833" y="120" width="592" height="12" fill="#31354B"/>
<rect x="833" y="319" width="592" height="12" fill="#31354B"/>
<rect x="833" y="518" width="583" height="12" fill="#31354B"/>
<rect x="833" y="717" width="592" height="12" fill="#31354B"/>
<rect x="833" y="916" width="592" height="12" fill="#31354B"/>
<rect x="833" y="1115" width="583" height="12" fill="#31354B"/>
<rect x="833" y="1314" width="592" height="12" fill="#31354B"/>
<rect x="648" y="7" width="144" height="1351" fill="#5FA9B4" fill-opacity="0.51"/>
<rect x="22" y="319" width="790" height="12" fill="#31354B"/>
<rect x="22" y="518" width="790" height="12" fill="#31354B"/>
<rect x="23" y="717" width="790" height="12" fill="#31354B"/>
<rect x="17" y="922" width="796" height="12" fill="#31354B"/>
<rect x="22" y="1115" width="789" height="12" fill="#31354B"/>
<rect x="17" y="1314" width="789" height="12" fill="#31354B"/>
<rect x="23" y="120" width="789" height="12" fill="#31354B"/>
<rect x="606" y="7" width="42" height="1351" fill="#31354B"/>
<rect x="792" y="7" width="42" height="1351" fill="#31354B"/>
<rect x="-19" y="7" width="42" height="1351" fill="#31354B"/>
<rect x="1416" y="7" width="42" height="1351" fill="#31354B"/>
<path d="M53.25 317L204.25 133.5H177L28.5 317H53.25Z" fill="url(#paint1_linear)" fill-opacity="0.23"/>
<path d="M1069.75 516L1220.75 332.5H1193.5L1045 516H1069.75Z" fill="url(#paint2_linear)" fill-opacity="0.23"/>
<path d="M1117.62 514.5L1263.5 331H1249.88L1106.5 514.5H1117.62Z" fill="url(#paint3_linear)" fill-opacity="0.23"/>
<path d="M342 518L487.75 331H429.5L286.25 518H342Z" fill="url(#paint4_linear)" fill-opacity="0.23"/>
<path d="M441 1312L586.75 1125H528.5L385.25 1312H441Z" fill="url(#paint5_linear)" fill-opacity="0.23"/>
<path d="M1265 717L1410.75 530H1229.75L1086.5 717H1265Z" fill="url(#paint6_linear)" fill-opacity="0.23"/>
<path d="M208.75 1115L354.5 927.999H296.25L153 1115H208.75Z" fill="url(#paint7_linear)" fill-opacity="0.23"/>
<path d="M1261.75 319L1407.5 132H1349.25L1206 319H1261.75Z" fill="url(#paint8_linear)" fill-opacity="0.23"/>
<path d="M1018.25 1313L1164 1126H1018.25L875 1313H1018.25Z" fill="url(#paint9_linear)" fill-opacity="0.23"/>
<path d="M998.25 318L1144 131H998.25L855 318H998.25Z" fill="url(#paint10_linear)" fill-opacity="0.23"/>
<path d="M440.25 319L586 132H440.25L297 319H440.25Z" fill="url(#paint11_linear)" fill-opacity="0.23"/>
<path d="M192.25 916L338 729H192.25L49 916H192.25Z" fill="url(#paint12_linear)" fill-opacity="0.23"/>
<path d="M445.25 718L591 531H445.25L302 718H445.25Z" fill="url(#paint13_linear)" fill-opacity="0.23"/>
<path d="M938.75 716.5L1091 533H1032.75L883 716.5H938.75Z" fill="url(#paint14_linear)" fill-opacity="0.23"/>
<rect x="-20.4733" y="1358" width="1516.97" height="35" fill="#5B4862"/>
<rect x="-20.4733" y="1388" width="1516.97" height="223" fill="url(#paint15_linear)"/>
<path d="M-19.9733 1423.5H340.156L326.812 1461.5H-19.9733V1423.5Z" fill="#56485A"/>
<path d="M-19.9733 1423.5H340.156L326.812 1461.5H-19.9733V1423.5Z" fill="#56485A"/>
<path d="M-19.9733 1423.5H340.156L326.812 1461.5H-19.9733V1423.5Z" fill="#56485A"/>
<path d="M-19.9733 1423.5H340.156L326.812 1461.5H-19.9733V1423.5Z" fill="#56485A"/>
<path d="M-19.9733 1423.5H340.156L326.812 1461.5H-19.9733V1423.5Z" stroke="#D0FFFF"/>
<path d="M-19.9733 1422.5H340.162L326.809 1461.5H-19.9733V1422.5Z" fill="#413545"/>
<path d="M-19.9733 1422.5H340.162L326.809 1461.5H-19.9733V1422.5Z" fill="#413545"/>
<path d="M-19.9733 1422.5H340.162L326.809 1461.5H-19.9733V1422.5Z" fill="#413545"/>
<path d="M-19.9733 1422.5H340.162L326.809 1461.5H-19.9733V1422.5Z" fill="#413545"/>
<path d="M-19.9733 1422.5H340.162L326.809 1461.5H-19.9733V1422.5Z" stroke="#D0FFFF"/>
<path d="M-19.9733 1422.5H340.162L326.809 1461.5H-19.9733V1422.5Z" fill="#5B4862"/>
<path d="M-19.9733 1422.5H340.162L326.809 1461.5H-19.9733V1422.5Z" fill="#5B4862"/>
<path d="M-19.9733 1422.5H340.162L326.809 1461.5H-19.9733V1422.5Z" fill="#5B4862"/>
<path d="M-19.9733 1422.5H340.162L326.809 1461.5H-19.9733V1422.5Z" fill="#5B4862"/>
<path d="M-19.9733 1422.5H340.162L326.809 1461.5H-19.9733V1422.5Z" stroke="#D0FFFF"/>
<path d="M1495 1422.5H1134.87L1148.22 1461.5H1495V1422.5Z" fill="#5B4862"/>
<path d="M1495 1422.5H1134.87L1148.22 1461.5H1495V1422.5Z" fill="#5B4862"/>
<path d="M1495 1422.5H1134.87L1148.22 1461.5H1495V1422.5Z" fill="#5B4862"/>
<path d="M1495 1422.5H1134.87L1148.22 1461.5H1495V1422.5Z" fill="#5B4862"/>
<path d="M1495 1422.5H1134.87L1148.22 1461.5H1495V1422.5Z" stroke="#D0FFFF"/>
<path d="M-19.9733 1461.5H358.598L347.878 1493H-19.9733V1461.5Z" fill="#413545"/>
<path d="M-19.9733 1461.5H358.598L347.878 1493H-19.9733V1461.5Z" fill="#413545"/>
<path d="M-19.9733 1461.5H358.598L347.878 1493H-19.9733V1461.5Z" fill="#413545"/>
<path d="M-19.9733 1461.5H358.598L347.878 1493H-19.9733V1461.5Z" fill="#413545"/>
<path d="M-19.9733 1461.5H358.598L347.878 1493H-19.9733V1461.5Z" stroke="#D0FFFF"/>
<path d="M-19.9733 1461.5H358.598L347.878 1493H-19.9733V1461.5Z" fill="#5B4862"/>
<path d="M-19.9733 1461.5H358.598L347.878 1493H-19.9733V1461.5Z" fill="#5B4862"/>
<path d="M-19.9733 1461.5H358.598L347.878 1493H-19.9733V1461.5Z" fill="#5B4862"/>
<path d="M-19.9733 1461.5H358.598L347.878 1493H-19.9733V1461.5Z" fill="#5B4862"/>
<path d="M-19.9733 1461.5H358.598L347.878 1493H-19.9733V1461.5Z" stroke="#D0FFFF"/>
<path d="M1495 1461.5H1116.43L1127.15 1493H1495V1461.5Z" fill="#5B4862"/>
<path d="M1495 1461.5H1116.43L1127.15 1493H1495V1461.5Z" fill="#5B4862"/>
<path d="M1495 1461.5H1116.43L1127.15 1493H1495V1461.5Z" fill="#5B4862"/>
<path d="M1495 1461.5H1116.43L1127.15 1493H1495V1461.5Z" fill="#5B4862"/>
<path d="M1495 1461.5H1116.43L1127.15 1493H1495V1461.5Z" stroke="#D0FFFF"/>
<path d="M-19.9733 1491.5H316.443L300.481 1535H-19.9733V1491.5Z" fill="#413545"/>
<path d="M-19.9733 1491.5H316.443L300.481 1535H-19.9733V1491.5Z" fill="#413545"/>
<path d="M-19.9733 1491.5H316.443L300.481 1535H-19.9733V1491.5Z" fill="#413545"/>
<path d="M-19.9733 1491.5H316.443L300.481 1535H-19.9733V1491.5Z" fill="#413545"/>
<path d="M-19.9733 1491.5H316.443L300.481 1535H-19.9733V1491.5Z" stroke="#D0FFFF"/>
<path d="M-19.9733 1491.5H316.443L300.481 1535H-19.9733V1491.5Z" fill="#5B4862"/>
<path d="M-19.9733 1491.5H316.443L300.481 1535H-19.9733V1491.5Z" fill="#5B4862"/>
<path d="M-19.9733 1491.5H316.443L300.481 1535H-19.9733V1491.5Z" fill="#5B4862"/>
<path d="M-19.9733 1491.5H316.443L300.481 1535H-19.9733V1491.5Z" fill="#5B4862"/>
<path d="M-19.9733 1491.5H316.443L300.481 1535H-19.9733V1491.5Z" stroke="#D0FFFF"/>
<path d="M1495 1491.5H1158.59L1174.55 1535H1495V1491.5Z" fill="#5B4862"/>
<path d="M1495 1491.5H1158.59L1174.55 1535H1495V1491.5Z" fill="#5B4862"/>
<path d="M1495 1491.5H1158.59L1174.55 1535H1495V1491.5Z" fill="#5B4862"/>
<path d="M1495 1491.5H1158.59L1174.55 1535H1495V1491.5Z" fill="#5B4862"/>
<path d="M1495 1491.5H1158.59L1174.55 1535H1495V1491.5Z" stroke="#D0FFFF"/>
<path d="M-20.5 1535.5H347.583L335.211 1581.5H-20.5L-20.5 1535.5Z" fill="#413545"/>
<path d="M-20.5 1535.5H347.583L335.211 1581.5H-20.5L-20.5 1535.5Z" fill="#413545"/>
<path d="M-20.5 1535.5H347.583L335.211 1581.5H-20.5L-20.5 1535.5Z" fill="#413545"/>
<path d="M-20.5 1535.5H347.583L335.211 1581.5H-20.5L-20.5 1535.5Z" fill="#413545"/>
<path d="M-20.5 1535.5H347.583L335.211 1581.5H-20.5L-20.5 1535.5Z" stroke="#D0FFFF"/>
<path d="M-20.5 1535.5H347.583L335.211 1581.5H-20.5L-20.5 1535.5Z" fill="#5B4862"/>
<path d="M-20.5 1535.5H347.583L335.211 1581.5H-20.5L-20.5 1535.5Z" fill="#5B4862"/>
<path d="M-20.5 1535.5H347.583L335.211 1581.5H-20.5L-20.5 1535.5Z" fill="#5B4862"/>
<path d="M-20.5 1535.5H347.583L335.211 1581.5H-20.5L-20.5 1535.5Z" fill="#5B4862"/>
<path d="M-20.5 1535.5H347.583L335.211 1581.5H-20.5L-20.5 1535.5Z" stroke="#D0FFFF"/>
<path d="M1495.53 1535.5H1127.45L1139.82 1581.5H1495.53L1495.53 1535.5Z" fill="#5B4862"/>
<path d="M1495.53 1535.5H1127.45L1139.82 1581.5H1495.53L1495.53 1535.5Z" fill="#5B4862"/>
<path d="M1495.53 1535.5H1127.45L1139.82 1581.5H1495.53L1495.53 1535.5Z" fill="#5B4862"/>
<path d="M1495.53 1535.5H1127.45L1139.82 1581.5H1495.53L1495.53 1535.5Z" fill="#5B4862"/>
<path d="M1495.53 1535.5H1127.45L1139.82 1581.5H1495.53L1495.53 1535.5Z" stroke="#D0FFFF"/>
<path d="M-19.9733 1581.5H286.985L277.285 1613H-19.9733V1581.5Z" fill="#413545"/>
<path d="M-19.9733 1581.5H286.985L277.285 1613H-19.9733V1581.5Z" fill="#413545"/>
<path d="M-19.9733 1581.5H286.985L277.285 1613H-19.9733V1581.5Z" fill="#413545"/>
<path d="M-19.9733 1581.5H286.985L277.285 1613H-19.9733V1581.5Z" fill="#413545"/>
<path d="M-19.9733 1581.5H286.985L277.285 1613H-19.9733V1581.5Z" stroke="#D0FFFF"/>
<path d="M-19.9733 1581.5H286.985L277.285 1613H-19.9733V1581.5Z" fill="#5B4862"/>
<path d="M-19.9733 1581.5H286.985L277.285 1613H-19.9733V1581.5Z" fill="#5B4862"/>
<path d="M-19.9733 1581.5H286.985L277.285 1613H-19.9733V1581.5Z" fill="#5B4862"/>
<path d="M-19.9733 1581.5H286.985L277.285 1613H-19.9733V1581.5Z" fill="#5B4862"/>
<path d="M-19.9733 1581.5H286.985L277.285 1613H-19.9733V1581.5Z" stroke="#D0FFFF"/>
<path d="M1495 1581.5H1188.05L1197.75 1613H1495V1581.5Z" fill="#5B4862"/>
<path d="M1495 1581.5H1188.05L1197.75 1613H1495V1581.5Z" fill="#5B4862"/>
<path d="M1495 1581.5H1188.05L1197.75 1613H1495V1581.5Z" fill="#5B4862"/>
<path d="M1495 1581.5H1188.05L1197.75 1613H1495V1581.5Z" fill="#5B4862"/>
<path d="M1495 1581.5H1188.05L1197.75 1613H1495V1581.5Z" stroke="#D0FFFF"/>
<path d="M-19.9733 1388.5H353.824L340.52 1422.5H-19.9733V1388.5Z" fill="#413545"/>
<path d="M-19.9733 1388.5H353.824L340.52 1422.5H-19.9733V1388.5Z" fill="#413545"/>
<path d="M-19.9733 1388.5H353.824L340.52 1422.5H-19.9733V1388.5Z" fill="#413545"/>
<path d="M-19.9733 1388.5H353.824L340.52 1422.5H-19.9733V1388.5Z" fill="#413545"/>
<path d="M-19.9733 1388.5H353.824L340.52 1422.5H-19.9733V1388.5Z" stroke="#D0FFFF"/>
<path d="M-19.9733 1388.5H353.824L340.52 1422.5H-19.9733V1388.5Z" fill="#5B4862"/>
<path d="M-19.9733 1388.5H353.824L340.52 1422.5H-19.9733V1388.5Z" fill="#5B4862"/>
<path d="M-19.9733 1388.5H353.824L340.52 1422.5H-19.9733V1388.5Z" fill="#5B4862"/>
<path d="M-19.9733 1388.5H353.824L340.52 1422.5H-19.9733V1388.5Z" fill="#5B4862"/>
<path d="M-19.9733 1388.5H353.824L340.52 1422.5H-19.9733V1388.5Z" stroke="#D0FFFF"/>
<path d="M1495 1388.5H1121.21L1134.51 1422.5H1495V1388.5Z" fill="#5B4862"/>
<path d="M1495 1388.5H1121.21L1134.51 1422.5H1495V1388.5Z" fill="#5B4862"/>
<path d="M1495 1388.5H1121.21L1134.51 1422.5H1495V1388.5Z" fill="#5B4862"/>
<path d="M1495 1388.5H1121.21L1134.51 1422.5H1495V1388.5Z" fill="#5B4862"/>
<path d="M1495 1388.5H1121.21L1134.51 1422.5H1495V1388.5Z" stroke="#D0FFFF"/>
<path d="M337.37 1422.5L350.162 1388.5H698.009V1422.5H337.37Z" fill="#413545"/>
<path d="M337.37 1422.5L350.162 1388.5H698.009V1422.5H337.37Z" fill="#413545"/>
<path d="M337.37 1422.5L350.162 1388.5H698.009V1422.5H337.37Z" fill="#413545"/>
<path d="M337.37 1422.5L350.162 1388.5H698.009V1422.5H337.37Z" fill="#413545"/>
<path d="M337.37 1422.5L350.162 1388.5H698.009V1422.5H337.37Z" stroke="#D0FFFF"/>
<path d="M335.263 1422.5L348.055 1388.5H732.246V1422.5H335.263Z" fill="#5B4862"/>
<path d="M335.263 1422.5L348.055 1388.5H732.246V1422.5H335.263Z" fill="#5B4862"/>
<path d="M335.263 1422.5L348.055 1388.5H732.246V1422.5H335.263Z" fill="#5B4862"/>
<path d="M335.263 1422.5L348.055 1388.5H732.246V1422.5H335.263Z" fill="#5B4862"/>
<path d="M335.263 1422.5L348.055 1388.5H732.246V1422.5H335.263Z" stroke="#D0FFFF"/>
<path d="M1137.66 1422.5L1124.87 1388.5H732.193V1422.5H1137.66Z" fill="#5B4862"/>
<path d="M1137.66 1422.5L1124.87 1388.5H732.193V1422.5H1137.66Z" fill="#5B4862"/>
<path d="M1137.66 1422.5L1124.87 1388.5H732.193V1422.5H1137.66Z" fill="#5B4862"/>
<path d="M1137.66 1422.5L1124.87 1388.5H732.193V1422.5H1137.66Z" fill="#5B4862"/>
<path d="M1137.66 1422.5L1124.87 1388.5H732.193V1422.5H1137.66Z" stroke="#D0FFFF"/>
<path d="M322.837 1461.38L336.934 1422.5H696.967L703.411 1461.38H322.837Z" fill="#413545"/>
<path d="M322.837 1461.38L336.934 1422.5H696.967L703.411 1461.38H322.837Z" fill="#413545"/>
<path d="M322.837 1461.38L336.934 1422.5H696.967L703.411 1461.38H322.837Z" fill="#413545"/>
<path d="M322.837 1461.38L336.934 1422.5H696.967L703.411 1461.38H322.837Z" fill="#413545"/>
<path d="M322.837 1461.38L336.934 1422.5H696.967L703.411 1461.38H322.837Z" stroke="#D0FFFF"/>
<path d="M321.61 1461.38L335.707 1422.5H732.246V1460.5L321.61 1461.38Z" fill="#5B4862"/>
<path d="M321.61 1461.38L335.707 1422.5H732.246V1460.5L321.61 1461.38Z" fill="#5B4862"/>
<path d="M321.61 1461.38L335.707 1422.5H732.246V1460.5L321.61 1461.38Z" fill="#5B4862"/>
<path d="M321.61 1461.38L335.707 1422.5H732.246V1460.5L321.61 1461.38Z" fill="#5B4862"/>
<path d="M321.61 1461.38L335.707 1422.5H732.246V1460.5L321.61 1461.38Z" stroke="#D0FFFF"/>
<path d="M1152.19 1461.38L1138.1 1422.5H732.719V1461.38L1152.19 1461.38Z" fill="#5B4862"/>
<path d="M1152.19 1461.38L1138.1 1422.5H732.719V1461.38L1152.19 1461.38Z" fill="#5B4862"/>
<path d="M1152.19 1461.38L1138.1 1422.5H732.719V1461.38L1152.19 1461.38Z" fill="#5B4862"/>
<path d="M1152.19 1461.38L1138.1 1422.5H732.719V1461.38L1152.19 1461.38Z" fill="#5B4862"/>
<path d="M1152.19 1461.38L1138.1 1422.5H732.719V1461.38L1152.19 1461.38Z" stroke="#D0FFFF"/>
<path d="M341.729 1491.5L351.924 1461.5H711.971L718.488 1491.5H341.729Z" fill="#413545"/>
<path d="M341.729 1491.5L351.924 1461.5H711.971L718.488 1491.5H341.729Z" fill="#413545"/>
<path d="M341.729 1491.5L351.924 1461.5H711.971L718.488 1491.5H341.729Z" fill="#413545"/>
<path d="M341.729 1491.5L351.924 1461.5H711.971L718.488 1491.5H341.729Z" fill="#413545"/>
<path d="M341.729 1491.5L351.924 1461.5H711.971L718.488 1491.5H341.729Z" stroke="#D0FFFF"/>
<path d="M342.086 1491.5L352.281 1461.5H732.773V1476.5V1491.5H342.086Z" fill="#5B4862"/>
<path d="M342.086 1491.5L352.281 1461.5H732.773V1476.5V1491.5H342.086Z" fill="#5B4862"/>
<path d="M342.086 1491.5L352.281 1461.5H732.773V1476.5V1491.5H342.086Z" fill="#5B4862"/>
<path d="M342.086 1491.5L352.281 1461.5H732.773V1476.5V1491.5H342.086Z" fill="#5B4862"/>
<path d="M342.086 1491.5L352.281 1461.5H732.773V1476.5V1491.5H342.086Z" stroke="#D0FFFF"/>
<path d="M1133.3 1491.5L1123.11 1461.5H732.193V1491.5H1133.3Z" fill="#5B4862"/>
<path d="M1133.3 1491.5L1123.11 1461.5H732.193V1491.5H1133.3Z" fill="#5B4862"/>
<path d="M1133.3 1491.5L1123.11 1461.5H732.193V1491.5H1133.3Z" fill="#5B4862"/>
<path d="M1133.3 1491.5L1123.11 1461.5H732.193V1491.5H1133.3Z" fill="#5B4862"/>
<path d="M1133.3 1491.5L1123.11 1461.5H732.193V1491.5H1133.3Z" stroke="#D0FFFF"/>
<path d="M300.444 1535.5L313.319 1491.5H702.379L706.389 1535.5H300.444Z" fill="#413545"/>
<path d="M300.444 1535.5L313.319 1491.5H702.379L706.389 1535.5H300.444Z" fill="#413545"/>
<path d="M300.444 1535.5L313.319 1491.5H702.379L706.389 1535.5H300.444Z" fill="#413545"/>
<path d="M300.444 1535.5L313.319 1491.5H702.379L706.389 1535.5H300.444Z" fill="#413545"/>
<path d="M300.444 1535.5L313.319 1491.5H702.379L706.389 1535.5H300.444Z" stroke="#D0FFFF"/>
<path d="M300.972 1536L313.847 1492L732.246 1490V1534L300.972 1536Z" fill="#5B4862"/>
<path d="M300.972 1536L313.847 1492L732.246 1490V1534L300.972 1536Z" fill="#5B4862"/>
<path d="M300.972 1536L313.847 1492L732.246 1490V1534L300.972 1536Z" fill="#5B4862"/>
<path d="M300.972 1536L313.847 1492L732.246 1490V1534L300.972 1536Z" fill="#5B4862"/>
<path d="M300.972 1536L313.847 1492L732.246 1490V1534L300.972 1536Z" stroke="#D0FFFF"/>
<path d="M1174.59 1535.5L1161.71 1491.5L731.666 1490V1534L1174.59 1535.5Z" fill="#5B4862"/>
<path d="M1174.59 1535.5L1161.71 1491.5L731.666 1490V1534L1174.59 1535.5Z" fill="#5B4862"/>
<path d="M1174.59 1535.5L1161.71 1491.5L731.666 1490V1534L1174.59 1535.5Z" fill="#5B4862"/>
<path d="M1174.59 1535.5L1161.71 1491.5L731.666 1490V1534L1174.59 1535.5Z" fill="#5B4862"/>
<path d="M1174.59 1535.5L1161.71 1491.5L731.666 1490V1534L1174.59 1535.5Z" stroke="#D0FFFF"/>
<path d="M334.922 1582L347.816 1535H707.783L711.799 1582H334.922Z" fill="#413545"/>
<path d="M334.922 1582L347.816 1535H707.783L711.799 1582H334.922Z" fill="#413545"/>
<path d="M334.922 1582L347.816 1535H707.783L711.799 1582H334.922Z" fill="#413545"/>
<path d="M334.922 1582L347.816 1535H707.783L711.799 1582H334.922Z" fill="#413545"/>
<path d="M334.922 1582L347.816 1535H707.783L711.799 1582H334.922Z" stroke="#D0FFFF"/>
<path d="M334.918 1582L347.818 1533.75H731.719V1582H334.918Z" fill="#5B4862"/>
<path d="M334.918 1582L347.818 1533.75H731.719V1582H334.918Z" fill="#5B4862"/>
<path d="M334.918 1582L347.818 1533.75H731.719V1582H334.918Z" fill="#5B4862"/>
<path d="M334.918 1582L347.818 1533.75H731.719V1582H334.918Z" fill="#5B4862"/>
<path d="M334.918 1582L347.818 1533.75H731.719V1582H334.918Z" stroke="#D0FFFF"/>
<path d="M1140.11 1582L1127.21 1535L731.515 1533.5V1582H1140.11Z" fill="#5B4862"/>
<path d="M1140.11 1582L1127.21 1535L731.515 1533.5V1582H1140.11Z" fill="#5B4862"/>
<path d="M1140.11 1582L1127.21 1535L731.515 1533.5V1582H1140.11Z" fill="#5B4862"/>
<path d="M1140.11 1582L1127.21 1535L731.515 1533.5V1582H1140.11Z" fill="#5B4862"/>
<path d="M1140.11 1582L1127.21 1535L731.515 1533.5V1582H1140.11Z" stroke="#D0FFFF"/>
<path d="M272.052 1615L284.478 1581.5H710.98L715.322 1615H272.052Z" fill="#413545"/>
<path d="M272.052 1615L284.478 1581.5H710.98L715.322 1615H272.052Z" fill="#413545"/>
<path d="M272.052 1615L284.478 1581.5H710.98L715.322 1615H272.052Z" fill="#413545"/>
<path d="M272.052 1615L284.478 1581.5H710.98L715.322 1615H272.052Z" fill="#413545"/>
<path d="M272.052 1615L284.478 1581.5H710.98L715.322 1615H272.052Z" stroke="#322764"/>
<path d="M272.051 1613L284.478 1579.5L732.359 1581.5V1615L272.051 1613Z" fill="#5B4862"/>
<path d="M272.051 1613L284.478 1579.5L732.359 1581.5V1615L272.051 1613Z" fill="#5B4862"/>
<path d="M272.051 1613L284.478 1579.5L732.359 1581.5V1615L272.051 1613Z" fill="#5B4862"/>
<path d="M272.051 1613L284.478 1579.5L732.359 1581.5V1615L272.051 1613Z" fill="#5B4862"/>
<path d="M272.051 1613L284.478 1579.5L732.359 1581.5V1615L272.051 1613Z" stroke="#D0FFFF"/>
<path d="M1199.92 1615L1187.49 1581.5H732.45V1615H1199.92Z" fill="#5B4862"/>
<path d="M1199.92 1615L1187.49 1581.5H732.45V1615H1199.92Z" fill="#5B4862"/>
<path d="M1199.92 1615L1187.49 1581.5H732.45V1615H1199.92Z" fill="#5B4862"/>
<path d="M1199.92 1615L1187.49 1581.5H732.45V1615H1199.92Z" fill="#5B4862"/>
<path d="M1199.92 1615L1187.49 1581.5H732.45V1615H1199.92Z" stroke="#D0FFFF"/>
<ellipse cx="725.536" cy="1519.6" rx="125.97" ry="56.8972" fill="#3B396E"/>
<ellipse cx="725.536" cy="1515.62" rx="125.97" ry="52.9167" fill="url(#paint16_radial)"/>
<path d="M725.301 1528.42C746.534 1528.42 765.867 1525.22 779.982 1519.97C787.031 1517.35 792.909 1514.16 797.07 1510.5C801.228 1506.84 803.898 1502.48 803.898 1497.59C803.898 1492.7 801.228 1488.35 797.07 1484.69C792.909 1481.03 787.031 1477.84 779.982 1475.22C765.867 1469.96 746.534 1466.76 725.301 1466.76C704.069 1466.76 684.736 1469.96 670.62 1475.22C663.572 1477.84 657.694 1481.03 653.533 1484.69C649.375 1488.35 646.704 1492.7 646.704 1497.59C646.704 1502.48 649.375 1506.84 653.533 1510.5C657.694 1514.16 663.572 1517.35 670.62 1519.97C684.736 1525.22 704.069 1528.42 725.301 1528.42Z" fill="url(#paint17_linear)" stroke="url(#paint18_linear)" stroke-width="5"/>
<path d="M742.16 1475.58L684.794 1497.12L712.892 1506.96L717.34 1502.28L703.76 1497.12L732.326 1486.12L715.467 1517.96L774.238 1496.19L762.999 1494.32L730.453 1506.96L742.16 1475.58Z" fill="url(#paint19_linear)"/>
<path d="M571 1136H884L801.422 1493.42C801.422 1493.42 800.338 1496.62 799.317 1498.64C798.111 1501.02 797.427 1501.89 795.808 1503.86C792.806 1507.51 790.371 1508.88 786.685 1511.4C782.195 1514.45 779.379 1515.47 774.52 1517.48C768.972 1519.78 766.227 1520.74 760.484 1522.12C756.344 1523.11 753.691 1523.49 749.65 1524.06L749.022 1524.15C744.65 1524.77 741.954 1525.33 737.559 1525.6C731.263 1525.98 727.719 1526.12 721.418 1525.89C715.106 1525.66 711.562 1525.47 705.277 1524.73L704.709 1524.66C698.302 1523.91 695.098 1523.53 688.667 1521.54C685.892 1520.68 683.459 1520.22 680.714 1519.22C676.248 1517.59 674.025 1517.07 669.719 1514.87L669.572 1514.8C665.425 1512.69 662.908 1511.41 659.192 1508.21C656.685 1506.05 655.059 1505.03 653.11 1502.12C652.361 1501 651.135 1499.21 650.537 1497.77C649.536 1495.37 649.367 1493.42 649.367 1493.42L571 1136Z" fill="url(#paint20_linear)" fill-opacity="0.47"/>
<rect y="1605" width="1440" height="68.87" fill="#FDB073"/>
<rect x="-4" y="1673.87" width="1444" height="138.71" fill="#5B4862"/>
<rect x="-4" y="1743.71" width="1444" height="326.89" fill="#2E2B2B"/>
<rect x="-4" y="1817.95" width="1444" height="20.37" fill="#413545"/>
<rect x="-4" y="1901.37" width="1444" height="11.64" fill="#413545"/>
<rect x="790.315" y="1806.31" width="39.7315" height="106.7" rx="5" fill="#121419"/>
<rect x="880.046" y="1806.31" width="39.7315" height="106.7" rx="5" fill="#121419"/>
<rect x="341.657" y="1806.31" width="39.7315" height="106.7" rx="5" fill="#121419"/>
<rect x="969.778" y="1806.31" width="39.7315" height="106.7" rx="5" fill="#121419"/>
<rect x="431.389" y="1806.31" width="39.7315" height="106.7" rx="5" fill="#121419"/>
<rect x="-17.2686" y="1803.4" width="39.7315" height="106.7" rx="5" fill="#121419"/>
<rect x="1059.51" y="1806.31" width="39.7315" height="106.7" rx="5" fill="#121419"/>
<rect x="521.12" y="1806.31" width="39.7315" height="106.7" rx="5" fill="#121419"/>
<rect x="72.4629" y="1803.4" width="39.7315" height="106.7" rx="5" fill="#121419"/>
<rect x="1149.24" y="1806.31" width="39.7315" height="106.7" rx="5" fill="#121419"/>
<rect x="610.852" y="1806.31" width="39.7315" height="106.7" rx="5" fill="#121419"/>
<rect x="162.194" y="1803.4" width="39.7315" height="106.7" rx="5" fill="#121419"/>
<rect x="1238.97" y="1806.31" width="39.7315" height="106.7" rx="5" fill="#121419"/>
<rect x="700.583" y="1806.31" width="39.7315" height="106.7" rx="5" fill="#121419"/>
<rect x="251.926" y="1803.4" width="39.7315" height="106.7" rx="5" fill="#121419"/>
<rect x="1328.7" y="1806.31" width="39.7315" height="106.7" rx="5" fill="#121419"/>
<rect x="1418.43" y="1806.31" width="39.7315" height="106.7" rx="5" fill="#121419"/>
<path d="M185.053 1829.19C183.941 1831.93 180.059 1831.93 178.947 1829.19L178.762 1828.73C178.417 1827.88 177.718 1827.22 176.848 1826.93V1826.93C173.988 1825.96 173.988 1821.92 176.848 1820.95V1820.95C177.718 1820.66 178.417 1820 178.762 1819.15L178.947 1818.69C180.059 1815.95 183.941 1815.95 185.053 1818.69L185.238 1819.15C185.583 1820 186.282 1820.66 187.152 1820.95V1820.95C190.012 1821.92 190.012 1825.96 187.152 1826.93V1826.93C186.282 1827.22 185.583 1827.88 185.238 1828.73L185.053 1829.19Z" fill="#413545"/>
<path d="M184.277 1826.84C183.391 1829.03 180.297 1829.03 179.411 1826.84L179.264 1826.48C178.989 1825.8 178.432 1825.27 177.738 1825.04V1825.04C175.459 1824.27 175.459 1821.05 177.738 1820.28V1820.28C178.432 1820.04 178.989 1819.52 179.264 1818.84L179.411 1818.47C180.297 1816.29 183.391 1816.29 184.277 1818.47L184.424 1818.84C184.699 1819.52 185.256 1820.04 185.949 1820.28V1820.28C188.229 1821.05 188.229 1824.27 185.949 1825.04V1825.04C185.256 1825.27 184.699 1825.8 184.424 1826.48L184.277 1826.84Z" fill="#505050"/>
<path d="M275.053 1829.19C273.941 1831.93 270.059 1831.93 268.947 1829.19L268.762 1828.73C268.417 1827.88 267.718 1827.22 266.848 1826.93V1826.93C263.988 1825.96 263.988 1821.92 266.848 1820.95V1820.95C267.718 1820.66 268.417 1820 268.762 1819.15L268.947 1818.69C270.059 1815.95 273.941 1815.95 275.053 1818.69L275.238 1819.15C275.583 1820 276.282 1820.66 277.152 1820.95V1820.95C280.012 1821.92 280.012 1825.96 277.152 1826.93V1826.93C276.282 1827.22 275.583 1827.88 275.238 1828.73L275.053 1829.19Z" fill="#413545"/>
<path d="M274.277 1826.84C273.391 1829.03 270.297 1829.03 269.411 1826.84L269.264 1826.48C268.989 1825.8 268.432 1825.27 267.738 1825.04V1825.04C265.459 1824.27 265.459 1821.05 267.738 1820.28V1820.28C268.432 1820.04 268.989 1819.52 269.264 1818.84L269.411 1818.47C270.297 1816.29 273.391 1816.29 274.277 1818.47L274.424 1818.84C274.699 1819.52 275.256 1820.04 275.949 1820.28V1820.28C278.229 1821.05 278.229 1824.27 275.949 1825.04V1825.04C275.256 1825.27 274.699 1825.8 274.424 1826.48L274.277 1826.84Z" fill="#505050"/>
<path d="M365.053 1829.19C363.941 1831.93 360.059 1831.93 358.947 1829.19L358.762 1828.73C358.417 1827.88 357.718 1827.22 356.848 1826.93V1826.93C353.988 1825.96 353.988 1821.92 356.848 1820.95V1820.95C357.718 1820.66 358.417 1820 358.762 1819.15L358.947 1818.69C360.059 1815.95 363.941 1815.95 365.053 1818.69L365.238 1819.15C365.583 1820 366.282 1820.66 367.152 1820.95V1820.95C370.012 1821.92 370.012 1825.96 367.152 1826.93V1826.93C366.282 1827.22 365.583 1827.88 365.238 1828.73L365.053 1829.19Z" fill="#413545"/>
<path d="M364.277 1826.84C363.391 1829.03 360.297 1829.03 359.411 1826.84L359.264 1826.48C358.989 1825.8 358.432 1825.27 357.738 1825.04V1825.04C355.459 1824.27 355.459 1821.05 357.738 1820.28V1820.28C358.432 1820.04 358.989 1819.52 359.264 1818.84L359.411 1818.47C360.297 1816.29 363.391 1816.29 364.277 1818.47L364.424 1818.84C364.699 1819.52 365.256 1820.04 365.949 1820.28V1820.28C368.229 1821.05 368.229 1824.27 365.949 1825.04V1825.04C365.256 1825.27 364.699 1825.8 364.424 1826.48L364.277 1826.84Z" fill="#505050"/>
<path d="M454.053 1829.19C452.941 1831.93 449.059 1831.93 447.947 1829.19L447.762 1828.73C447.417 1827.88 446.718 1827.22 445.848 1826.93V1826.93C442.988 1825.96 442.988 1821.92 445.848 1820.95V1820.95C446.718 1820.66 447.417 1820 447.762 1819.15L447.947 1818.69C449.059 1815.95 452.941 1815.95 454.053 1818.69L454.238 1819.15C454.583 1820 455.282 1820.66 456.152 1820.95V1820.95C459.012 1821.92 459.012 1825.96 456.152 1826.93V1826.93C455.282 1827.22 454.583 1827.88 454.238 1828.73L454.053 1829.19Z" fill="#413545"/>
<path d="M453.277 1826.84C452.391 1829.03 449.297 1829.03 448.411 1826.84L448.264 1826.48C447.989 1825.8 447.432 1825.27 446.738 1825.04V1825.04C444.459 1824.27 444.459 1821.05 446.738 1820.28V1820.28C447.432 1820.04 447.989 1819.52 448.264 1818.84L448.411 1818.47C449.297 1816.29 452.391 1816.29 453.277 1818.47L453.424 1818.84C453.699 1819.52 454.256 1820.04 454.949 1820.28V1820.28C457.229 1821.05 457.229 1824.27 454.949 1825.04V1825.04C454.256 1825.27 453.699 1825.8 453.424 1826.48L453.277 1826.84Z" fill="#505050"/>
<path d="M543.053 1829.19C541.941 1831.93 538.059 1831.93 536.947 1829.19L536.762 1828.73C536.417 1827.88 535.718 1827.22 534.848 1826.93V1826.93C531.988 1825.96 531.988 1821.92 534.848 1820.95V1820.95C535.718 1820.66 536.417 1820 536.762 1819.15L536.947 1818.69C538.059 1815.95 541.941 1815.95 543.053 1818.69L543.238 1819.15C543.583 1820 544.282 1820.66 545.152 1820.95V1820.95C548.012 1821.92 548.012 1825.96 545.152 1826.93V1826.93C544.282 1827.22 543.583 1827.88 543.238 1828.73L543.053 1829.19Z" fill="#413545"/>
<path d="M542.277 1826.84C541.391 1829.03 538.297 1829.03 537.411 1826.84L537.264 1826.48C536.989 1825.8 536.432 1825.27 535.738 1825.04V1825.04C533.459 1824.27 533.459 1821.05 535.738 1820.28V1820.28C536.432 1820.04 536.989 1819.52 537.264 1818.84L537.411 1818.47C538.297 1816.29 541.391 1816.29 542.277 1818.47L542.424 1818.84C542.699 1819.52 543.256 1820.04 543.949 1820.28V1820.28C546.229 1821.05 546.229 1824.27 543.949 1825.04V1825.04C543.256 1825.27 542.699 1825.8 542.424 1826.48L542.277 1826.84Z" fill="#505050"/>
<path d="M634.053 1829.19C632.941 1831.93 629.059 1831.93 627.947 1829.19L627.762 1828.73C627.417 1827.88 626.718 1827.22 625.848 1826.93V1826.93C622.988 1825.96 622.988 1821.92 625.848 1820.95V1820.95C626.718 1820.66 627.417 1820 627.762 1819.15L627.947 1818.69C629.059 1815.95 632.941 1815.95 634.053 1818.69L634.238 1819.15C634.583 1820 635.282 1820.66 636.152 1820.95V1820.95C639.012 1821.92 639.012 1825.96 636.152 1826.93V1826.93C635.282 1827.22 634.583 1827.88 634.238 1828.73L634.053 1829.19Z" fill="#413545"/>
<path d="M633.277 1826.84C632.391 1829.03 629.297 1829.03 628.411 1826.84L628.264 1826.48C627.989 1825.8 627.432 1825.27 626.738 1825.04V1825.04C624.459 1824.27 624.459 1821.05 626.738 1820.28V1820.28C627.432 1820.04 627.989 1819.52 628.264 1818.84L628.411 1818.47C629.297 1816.29 632.391 1816.29 633.277 1818.47L633.424 1818.84C633.699 1819.52 634.256 1820.04 634.949 1820.28V1820.28C637.229 1821.05 637.229 1824.27 634.949 1825.04V1825.04C634.256 1825.27 633.699 1825.8 633.424 1826.48L633.277 1826.84Z" fill="#505050"/>
<path d="M723.053 1829.19C721.941 1831.93 718.059 1831.93 716.947 1829.19L716.762 1828.73C716.417 1827.88 715.718 1827.22 714.848 1826.93V1826.93C711.988 1825.96 711.988 1821.92 714.848 1820.95V1820.95C715.718 1820.66 716.417 1820 716.762 1819.15L716.947 1818.69C718.059 1815.95 721.941 1815.95 723.053 1818.69L723.238 1819.15C723.583 1820 724.282 1820.66 725.152 1820.95V1820.95C728.012 1821.92 728.012 1825.96 725.152 1826.93V1826.93C724.282 1827.22 723.583 1827.88 723.238 1828.73L723.053 1829.19Z" fill="#413545"/>
<path d="M722.277 1826.84C721.391 1829.03 718.297 1829.03 717.411 1826.84L717.264 1826.48C716.989 1825.8 716.432 1825.27 715.738 1825.04V1825.04C713.459 1824.27 713.459 1821.05 715.738 1820.28V1820.28C716.432 1820.04 716.989 1819.52 717.264 1818.84L717.411 1818.47C718.297 1816.29 721.391 1816.29 722.277 1818.47L722.424 1818.84C722.699 1819.52 723.256 1820.04 723.949 1820.28V1820.28C726.229 1821.05 726.229 1824.27 723.949 1825.04V1825.04C723.256 1825.27 722.699 1825.8 722.424 1826.48L722.277 1826.84Z" fill="#505050"/>
<path d="M813.053 1829.19C811.941 1831.93 808.059 1831.93 806.947 1829.19L806.762 1828.73C806.417 1827.88 805.718 1827.22 804.848 1826.93V1826.93C801.988 1825.96 801.988 1821.92 804.848 1820.95V1820.95C805.718 1820.66 806.417 1820 806.762 1819.15L806.947 1818.69C808.059 1815.95 811.941 1815.95 813.053 1818.69L813.238 1819.15C813.583 1820 814.282 1820.66 815.152 1820.95V1820.95C818.012 1821.92 818.012 1825.96 815.152 1826.93V1826.93C814.282 1827.22 813.583 1827.88 813.238 1828.73L813.053 1829.19Z" fill="#413545"/>
<path d="M812.277 1826.84C811.391 1829.03 808.297 1829.03 807.411 1826.84L807.264 1826.48C806.989 1825.8 806.432 1825.27 805.738 1825.04V1825.04C803.459 1824.27 803.459 1821.05 805.738 1820.28V1820.28C806.432 1820.04 806.989 1819.52 807.264 1818.84L807.411 1818.47C808.297 1816.29 811.391 1816.29 812.277 1818.47L812.424 1818.84C812.699 1819.52 813.256 1820.04 813.949 1820.28V1820.28C816.229 1821.05 816.229 1824.27 813.949 1825.04V1825.04C813.256 1825.27 812.699 1825.8 812.424 1826.48L812.277 1826.84Z" fill="#505050"/>
<path d="M903.053 1829.19C901.941 1831.93 898.059 1831.93 896.947 1829.19L896.762 1828.73C896.417 1827.88 895.718 1827.22 894.848 1826.93V1826.93C891.988 1825.96 891.988 1821.92 894.848 1820.95V1820.95C895.718 1820.66 896.417 1820 896.762 1819.15L896.947 1818.69C898.059 1815.95 901.941 1815.95 903.053 1818.69L903.238 1819.15C903.583 1820 904.282 1820.66 905.152 1820.95V1820.95C908.012 1821.92 908.012 1825.96 905.152 1826.93V1826.93C904.282 1827.22 903.583 1827.88 903.238 1828.73L903.053 1829.19Z" fill="#413545"/>
<path d="M902.277 1826.84C901.391 1829.03 898.297 1829.03 897.411 1826.84L897.264 1826.48C896.989 1825.8 896.432 1825.27 895.738 1825.04V1825.04C893.459 1824.27 893.459 1821.05 895.738 1820.28V1820.28C896.432 1820.04 896.989 1819.52 897.264 1818.84L897.411 1818.47C898.297 1816.29 901.391 1816.29 902.277 1818.47L902.424 1818.84C902.699 1819.52 903.256 1820.04 903.949 1820.28V1820.28C906.229 1821.05 906.229 1824.27 903.949 1825.04V1825.04C903.256 1825.27 902.699 1825.8 902.424 1826.48L902.277 1826.84Z" fill="#505050"/>
<path d="M993.053 1829.19C991.941 1831.93 988.059 1831.93 986.947 1829.19L986.762 1828.73C986.417 1827.88 985.718 1827.22 984.848 1826.93V1826.93C981.988 1825.96 981.988 1821.92 984.848 1820.95V1820.95C985.718 1820.66 986.417 1820 986.762 1819.15L986.947 1818.69C988.059 1815.95 991.941 1815.95 993.053 1818.69L993.238 1819.15C993.583 1820 994.282 1820.66 995.152 1820.95V1820.95C998.012 1821.92 998.012 1825.96 995.152 1826.93V1826.93C994.282 1827.22 993.583 1827.88 993.238 1828.73L993.053 1829.19Z" fill="#413545"/>
<path d="M992.277 1826.84C991.391 1829.03 988.297 1829.03 987.411 1826.84L987.264 1826.48C986.989 1825.8 986.432 1825.27 985.738 1825.04V1825.04C983.459 1824.27 983.459 1821.05 985.738 1820.28V1820.28C986.432 1820.04 986.989 1819.52 987.264 1818.84L987.411 1818.47C988.297 1816.29 991.391 1816.29 992.277 1818.47L992.424 1818.84C992.699 1819.52 993.256 1820.04 993.949 1820.28V1820.28C996.229 1821.05 996.229 1824.27 993.949 1825.04V1825.04C993.256 1825.27 992.699 1825.8 992.424 1826.48L992.277 1826.84Z" fill="#505050"/>
<path d="M1082.05 1829.19C1080.94 1831.93 1077.06 1831.93 1075.95 1829.19L1075.76 1828.73C1075.42 1827.88 1074.72 1827.22 1073.85 1826.93V1826.93C1070.99 1825.96 1070.99 1821.92 1073.85 1820.95V1820.95C1074.72 1820.66 1075.42 1820 1075.76 1819.15L1075.95 1818.69C1077.06 1815.95 1080.94 1815.95 1082.05 1818.69L1082.24 1819.15C1082.58 1820 1083.28 1820.66 1084.15 1820.95V1820.95C1087.01 1821.92 1087.01 1825.96 1084.15 1826.93V1826.93C1083.28 1827.22 1082.58 1827.88 1082.24 1828.73L1082.05 1829.19Z" fill="#413545"/>
<path d="M1081.28 1826.84C1080.39 1829.03 1077.3 1829.03 1076.41 1826.84L1076.26 1826.48C1075.99 1825.8 1075.43 1825.27 1074.74 1825.04V1825.04C1072.46 1824.27 1072.46 1821.05 1074.74 1820.28V1820.28C1075.43 1820.04 1075.99 1819.52 1076.26 1818.84L1076.41 1818.47C1077.3 1816.29 1080.39 1816.29 1081.28 1818.47L1081.42 1818.84C1081.7 1819.52 1082.26 1820.04 1082.95 1820.28V1820.28C1085.23 1821.05 1085.23 1824.27 1082.95 1825.04V1825.04C1082.26 1825.27 1081.7 1825.8 1081.42 1826.48L1081.28 1826.84Z" fill="#505050"/>
<path d="M1172.05 1829.19C1170.94 1831.93 1167.06 1831.93 1165.95 1829.19L1165.76 1828.73C1165.42 1827.88 1164.72 1827.22 1163.85 1826.93V1826.93C1160.99 1825.96 1160.99 1821.92 1163.85 1820.95V1820.95C1164.72 1820.66 1165.42 1820 1165.76 1819.15L1165.95 1818.69C1167.06 1815.95 1170.94 1815.95 1172.05 1818.69L1172.24 1819.15C1172.58 1820 1173.28 1820.66 1174.15 1820.95V1820.95C1177.01 1821.92 1177.01 1825.96 1174.15 1826.93V1826.93C1173.28 1827.22 1172.58 1827.88 1172.24 1828.73L1172.05 1829.19Z" fill="#413545"/>
<path d="M1171.28 1826.84C1170.39 1829.03 1167.3 1829.03 1166.41 1826.84L1166.26 1826.48C1165.99 1825.8 1165.43 1825.27 1164.74 1825.04V1825.04C1162.46 1824.27 1162.46 1821.05 1164.74 1820.28V1820.28C1165.43 1820.04 1165.99 1819.52 1166.26 1818.84L1166.41 1818.47C1167.3 1816.29 1170.39 1816.29 1171.28 1818.47L1171.42 1818.84C1171.7 1819.52 1172.26 1820.04 1172.95 1820.28V1820.28C1175.23 1821.05 1175.23 1824.27 1172.95 1825.04V1825.04C1172.26 1825.27 1171.7 1825.8 1171.42 1826.48L1171.28 1826.84Z" fill="#505050"/>
<path d="M1262.05 1829.19C1260.94 1831.93 1257.06 1831.93 1255.95 1829.19L1255.76 1828.73C1255.42 1827.88 1254.72 1827.22 1253.85 1826.93V1826.93C1250.99 1825.96 1250.99 1821.92 1253.85 1820.95V1820.95C1254.72 1820.66 1255.42 1820 1255.76 1819.15L1255.95 1818.69C1257.06 1815.95 1260.94 1815.95 1262.05 1818.69L1262.24 1819.15C1262.58 1820 1263.28 1820.66 1264.15 1820.95V1820.95C1267.01 1821.92 1267.01 1825.96 1264.15 1826.93V1826.93C1263.28 1827.22 1262.58 1827.88 1262.24 1828.73L1262.05 1829.19Z" fill="#413545"/>
<path d="M1261.28 1826.84C1260.39 1829.03 1257.3 1829.03 1256.41 1826.84L1256.26 1826.48C1255.99 1825.8 1255.43 1825.27 1254.74 1825.04V1825.04C1252.46 1824.27 1252.46 1821.05 1254.74 1820.28V1820.28C1255.43 1820.04 1255.99 1819.52 1256.26 1818.84L1256.41 1818.47C1257.3 1816.29 1260.39 1816.29 1261.28 1818.47L1261.42 1818.84C1261.7 1819.52 1262.26 1820.04 1262.95 1820.28V1820.28C1265.23 1821.05 1265.23 1824.27 1262.95 1825.04V1825.04C1262.26 1825.27 1261.7 1825.8 1261.42 1826.48L1261.28 1826.84Z" fill="#505050"/>
<path d="M1352.05 1829.19C1350.94 1831.93 1347.06 1831.93 1345.95 1829.19L1345.76 1828.73C1345.42 1827.88 1344.72 1827.22 1343.85 1826.93V1826.93C1340.99 1825.96 1340.99 1821.92 1343.85 1820.95V1820.95C1344.72 1820.66 1345.42 1820 1345.76 1819.15L1345.95 1818.69C1347.06 1815.95 1350.94 1815.95 1352.05 1818.69L1352.24 1819.15C1352.58 1820 1353.28 1820.66 1354.15 1820.95V1820.95C1357.01 1821.92 1357.01 1825.96 1354.15 1826.93V1826.93C1353.28 1827.22 1352.58 1827.88 1352.24 1828.73L1352.05 1829.19Z" fill="#413545"/>
<path d="M1351.28 1826.84C1350.39 1829.03 1347.3 1829.03 1346.41 1826.84L1346.26 1826.48C1345.99 1825.8 1345.43 1825.27 1344.74 1825.04V1825.04C1342.46 1824.27 1342.46 1821.05 1344.74 1820.28V1820.28C1345.43 1820.04 1345.99 1819.52 1346.26 1818.84L1346.41 1818.47C1347.3 1816.29 1350.39 1816.29 1351.28 1818.47L1351.42 1818.84C1351.7 1819.52 1352.26 1820.04 1352.95 1820.28V1820.28C1355.23 1821.05 1355.23 1824.27 1352.95 1825.04V1825.04C1352.26 1825.27 1351.7 1825.8 1351.42 1826.48L1351.28 1826.84Z" fill="#505050"/>
<path d="M1441.05 1829.19C1439.94 1831.93 1436.06 1831.93 1434.95 1829.19L1434.76 1828.73C1434.42 1827.88 1433.72 1827.22 1432.85 1826.93V1826.93C1429.99 1825.96 1429.99 1821.92 1432.85 1820.95V1820.95C1433.72 1820.66 1434.42 1820 1434.76 1819.15L1434.95 1818.69C1436.06 1815.95 1439.94 1815.95 1441.05 1818.69L1441.24 1819.15C1441.58 1820 1442.28 1820.66 1443.15 1820.95V1820.95C1446.01 1821.92 1446.01 1825.96 1443.15 1826.93V1826.93C1442.28 1827.22 1441.58 1827.88 1441.24 1828.73L1441.05 1829.19Z" fill="#413545"/>
<path d="M1440.28 1826.84C1439.39 1829.03 1436.3 1829.03 1435.41 1826.84L1435.26 1826.48C1434.99 1825.8 1434.43 1825.27 1433.74 1825.04V1825.04C1431.46 1824.27 1431.46 1821.05 1433.74 1820.28V1820.28C1434.43 1820.04 1434.99 1819.52 1435.26 1818.84L1435.41 1818.47C1436.3 1816.29 1439.39 1816.29 1440.28 1818.47L1440.42 1818.84C1440.7 1819.52 1441.26 1820.04 1441.95 1820.28V1820.28C1444.23 1821.05 1444.23 1824.27 1441.95 1825.04V1825.04C1441.26 1825.27 1440.7 1825.8 1440.42 1826.48L1440.28 1826.84Z" fill="#505050"/>
<path d="M95.0529 1829.19C93.9414 1831.93 90.0586 1831.93 88.9471 1829.19L88.7622 1828.73C88.4172 1827.88 87.7183 1827.22 86.848 1826.93V1826.93C83.9877 1825.96 83.9877 1821.92 86.848 1820.95V1820.95C87.7183 1820.66 88.4172 1820 88.7622 1819.15L88.9471 1818.69C90.0586 1815.95 93.9414 1815.95 95.0529 1818.69L95.2378 1819.15C95.5828 1820 96.2817 1820.66 97.152 1820.95V1820.95C100.012 1821.92 100.012 1825.96 97.152 1826.93V1826.93C96.2817 1827.22 95.5828 1827.88 95.2378 1828.73L95.0529 1829.19Z" fill="#413545"/>
<path d="M94.2765 1826.84C93.3908 1829.03 90.2967 1829.03 89.411 1826.84L89.2636 1826.48C88.9887 1825.8 88.4317 1825.27 87.7383 1825.04V1825.04C85.459 1824.27 85.459 1821.05 87.7383 1820.28V1820.28C88.4317 1820.04 88.9887 1819.52 89.2636 1818.84L89.411 1818.47C90.2967 1816.29 93.3908 1816.29 94.2765 1818.47L94.4239 1818.84C94.6988 1819.52 95.2558 1820.04 95.9492 1820.28V1820.28C98.2285 1821.05 98.2285 1824.27 95.9492 1825.04V1825.04C95.2558 1825.27 94.6988 1825.8 94.4239 1826.48L94.2765 1826.84Z" fill="#505050"/>
<path d="M5.05288 1829.19C3.94137 1831.93 0.0586301 1831.93 -1.05288 1829.19L-1.2378 1828.73C-1.58284 1827.88 -2.28174 1827.22 -3.15198 1826.93V1826.93C-6.01228 1825.96 -6.01228 1821.92 -3.15198 1820.95V1820.95C-2.28174 1820.66 -1.58284 1820 -1.2378 1819.15L-1.05288 1818.69C0.0586296 1815.95 3.94137 1815.95 5.05288 1818.69L5.2378 1819.15C5.58284 1820 6.28174 1820.66 7.15198 1820.95V1820.95C10.0123 1821.92 10.0123 1825.96 7.15198 1826.93V1826.93C6.28174 1827.22 5.58284 1827.88 5.2378 1828.73L5.05288 1829.19Z" fill="#413545"/>
<path d="M4.27651 1826.84C3.39078 1829.03 0.296721 1829.03 -0.589012 1826.84L-0.736369 1826.48C-1.01132 1825.8 -1.56826 1825.27 -2.26173 1825.04V1825.04C-4.54104 1824.27 -4.54104 1821.05 -2.26173 1820.28V1820.28C-1.56826 1820.04 -1.01132 1819.52 -0.736369 1818.84L-0.589012 1818.47C0.296721 1816.29 3.39078 1816.29 4.27651 1818.47L4.42387 1818.84C4.69882 1819.52 5.25576 1820.04 5.94923 1820.28V1820.28C8.22854 1821.05 8.22854 1824.27 5.94923 1825.04V1825.04C5.25576 1825.27 4.69882 1825.8 4.42387 1826.48L4.27651 1826.84Z" fill="#505050"/>
<ellipse cx="111.06" cy="1620.99" rx="6.06034" ry="2.40565" fill="#FFD9B5"/>
<ellipse cx="235.06" cy="1620.99" rx="6.06034" ry="2.40565" fill="#FFD9B5"/>
<ellipse cx="111.06" cy="1630.86" rx="6.06034" ry="2.40565" fill="#FFD9B5"/>
<ellipse cx="235.06" cy="1630.86" rx="6.06034" ry="2.40565" fill="#FFD9B5"/>
<ellipse cx="11.9397" cy="1620.99" rx="6.06034" ry="2.40565" fill="#FFD9B5"/>
<ellipse cx="135.94" cy="1620.99" rx="6.06034" ry="2.40565" fill="#FFD9B5"/>
<ellipse cx="259.94" cy="1620.99" rx="6.06034" ry="2.40565" fill="#FFD9B5"/>
<ellipse cx="11.9397" cy="1630.86" rx="6.06034" ry="2.40565" fill="#FFD9B5"/>
<ellipse cx="135.94" cy="1630.86" rx="6.06034" ry="2.40565" fill="#FFD9B5"/>
<ellipse cx="259.94" cy="1630.86" rx="6.06034" ry="2.40565" fill="#FFD9B5"/>
<ellipse cx="36.8189" cy="1620.99" rx="6.06034" ry="2.40565" fill="#FFD9B5"/>
<ellipse cx="160.819" cy="1620.99" rx="6.06034" ry="2.40565" fill="#FFD9B5"/>
<ellipse cx="284.819" cy="1620.99" rx="6.06034" ry="2.40565" fill="#FFD9B5"/>
<ellipse cx="36.8189" cy="1630.86" rx="6.06034" ry="2.40565" fill="#FFD9B5"/>
<ellipse cx="160.819" cy="1630.86" rx="6.06034" ry="2.40565" fill="#FFD9B5"/>
<ellipse cx="284.819" cy="1630.86" rx="6.06034" ry="2.40565" fill="#FFD9B5"/>
<ellipse cx="61.6983" cy="1620.99" rx="6.06034" ry="2.40565" fill="#FFD9B5"/>
<ellipse cx="185.698" cy="1620.99" rx="6.06034" ry="2.40565" fill="#FFD9B5"/>
<ellipse cx="309.698" cy="1620.99" rx="6.06034" ry="2.40565" fill="#FFD9B5"/>
<ellipse cx="61.6983" cy="1630.86" rx="6.06034" ry="2.40565" fill="#FFD9B5"/>
<ellipse cx="185.698" cy="1630.86" rx="6.06034" ry="2.40565" fill="#FFD9B5"/>
<ellipse cx="309.698" cy="1630.86" rx="6.06034" ry="2.40565" fill="#FFD9B5"/>
<ellipse cx="86.5777" cy="1620.99" rx="6.06034" ry="2.40565" fill="#FFD9B5"/>
<ellipse cx="210.578" cy="1620.99" rx="6.06034" ry="2.40565" fill="#FFD9B5"/>
<ellipse cx="334.578" cy="1620.99" rx="6.06034" ry="2.40565" fill="#FFD9B5"/>
<ellipse cx="86.5777" cy="1630.86" rx="6.06034" ry="2.40565" fill="#FFD9B5"/>
<ellipse cx="210.578" cy="1630.86" rx="6.06034" ry="2.40565" fill="#FFD9B5"/>
<ellipse cx="334.578" cy="1630.86" rx="6.06034" ry="2.40565" fill="#FFD9B5"/>
<ellipse cx="360.06" cy="1620.99" rx="6.06034" ry="2.40565" fill="#FFD9B5"/>
<ellipse cx="484.06" cy="1620.99" rx="6.06034" ry="2.40565" fill="#FFD9B5"/>
<ellipse cx="608.06" cy="1620.99" rx="6.06034" ry="2.40565" fill="#FFD9B5"/>
<ellipse cx="360.06" cy="1630.86" rx="6.06034" ry="2.40565" fill="#FFD9B5"/>
<ellipse cx="484.06" cy="1630.86" rx="6.06034" ry="2.40565" fill="#FFD9B5"/>
<ellipse cx="608.06" cy="1630.86" rx="6.06034" ry="2.40565" fill="#FFD9B5"/>
<ellipse cx="384.94" cy="1620.99" rx="6.06034" ry="2.40565" fill="#FFD9B5"/>
<ellipse cx="508.94" cy="1620.99" rx="6.06034" ry="2.40565" fill="#FFD9B5"/>
<ellipse cx="632.94" cy="1620.99" rx="6.06034" ry="2.40565" fill="#FFD9B5"/>
<ellipse cx="384.94" cy="1630.86" rx="6.06034" ry="2.40565" fill="#FFD9B5"/>
<ellipse cx="508.94" cy="1630.86" rx="6.06034" ry="2.40565" fill="#FFD9B5"/>
<ellipse cx="632.94" cy="1630.86" rx="6.06034" ry="2.40565" fill="#FFD9B5"/>
<ellipse cx="409.819" cy="1620.99" rx="6.06034" ry="2.40565" fill="#FFD9B5"/>
<ellipse cx="533.819" cy="1620.99" rx="6.06034" ry="2.40565" fill="#FFD9B5"/>
<ellipse cx="657.819" cy="1620.99" rx="6.06034" ry="2.40565" fill="#FFD9B5"/>
<ellipse cx="409.819" cy="1630.86" rx="6.06034" ry="2.40565" fill="#FFD9B5"/>
<ellipse cx="533.819" cy="1630.86" rx="6.06034" ry="2.40565" fill="#FFD9B5"/>
<ellipse cx="657.819" cy="1630.86" rx="6.06034" ry="2.40565" fill="#FFD9B5"/>
<ellipse cx="434.698" cy="1620.99" rx="6.06034" ry="2.40565" fill="#FFD9B5"/>
<ellipse cx="558.698" cy="1620.99" rx="6.06034" ry="2.40565" fill="#FFD9B5"/>
<ellipse cx="682.698" cy="1620.99" rx="6.06034" ry="2.40565" fill="#FFD9B5"/>
<ellipse cx="434.698" cy="1630.86" rx="6.06034" ry="2.40565" fill="#FFD9B5"/>
<ellipse cx="558.698" cy="1630.86" rx="6.06034" ry="2.40565" fill="#FFD9B5"/>
<ellipse cx="682.698" cy="1630.86" rx="6.06034" ry="2.40565" fill="#FFD9B5"/>
<ellipse cx="459.578" cy="1620.99" rx="6.06034" ry="2.40565" fill="#FFD9B5"/>
<ellipse cx="583.578" cy="1620.99" rx="6.06034" ry="2.40565" fill="#FFD9B5"/>
<ellipse cx="707.578" cy="1620.99" rx="6.06034" ry="2.40565" fill="#FFD9B5"/>
<ellipse cx="459.578" cy="1630.86" rx="6.06034" ry="2.40565" fill="#FFD9B5"/>
<ellipse cx="583.578" cy="1630.86" rx="6.06034" ry="2.40565" fill="#FFD9B5"/>
<ellipse cx="707.578" cy="1630.86" rx="6.06034" ry="2.40565" fill="#FFD9B5"/>
<ellipse cx="733.06" cy="1620.99" rx="6.06034" ry="2.40565" fill="#FFD9B5"/>
<ellipse cx="857.06" cy="1620.99" rx="6.06034" ry="2.40565" fill="#FFD9B5"/>
<ellipse cx="981.06" cy="1620.99" rx="6.06034" ry="2.40565" fill="#FFD9B5"/>
<ellipse cx="733.06" cy="1630.86" rx="6.06034" ry="2.40565" fill="#FFD9B5"/>
<ellipse cx="857.06" cy="1630.86" rx="6.06034" ry="2.40565" fill="#FFD9B5"/>
<ellipse cx="981.06" cy="1630.86" rx="6.06034" ry="2.40565" fill="#FFD9B5"/>
<ellipse cx="757.94" cy="1620.99" rx="6.06034" ry="2.40565" fill="#FFD9B5"/>
<ellipse cx="881.94" cy="1620.99" rx="6.06034" ry="2.40565" fill="#FFD9B5"/>
<ellipse cx="1005.94" cy="1620.99" rx="6.06034" ry="2.40565" fill="#FFD9B5"/>
<ellipse cx="757.94" cy="1630.86" rx="6.06034" ry="2.40565" fill="#FFD9B5"/>
<ellipse cx="881.94" cy="1630.86" rx="6.06034" ry="2.40565" fill="#FFD9B5"/>
<ellipse cx="1005.94" cy="1630.86" rx="6.06034" ry="2.40565" fill="#FFD9B5"/>
<ellipse cx="782.819" cy="1620.99" rx="6.06034" ry="2.40565" fill="#FFD9B5"/>
<ellipse cx="906.819" cy="1620.99" rx="6.06034" ry="2.40565" fill="#FFD9B5"/>
<ellipse cx="1030.82" cy="1620.99" rx="6.06034" ry="2.40565" fill="#FFD9B5"/>
<ellipse cx="782.819" cy="1630.86" rx="6.06034" ry="2.40565" fill="#FFD9B5"/>
<ellipse cx="906.819" cy="1630.86" rx="6.06034" ry="2.40565" fill="#FFD9B5"/>
<ellipse cx="1030.82" cy="1630.86" rx="6.06034" ry="2.40565" fill="#FFD9B5"/>
<ellipse cx="807.698" cy="1620.99" rx="6.06034" ry="2.40565" fill="#FFD9B5"/>
<ellipse cx="931.698" cy="1620.99" rx="6.06034" ry="2.40565" fill="#FFD9B5"/>
<ellipse cx="1055.7" cy="1620.99" rx="6.06034" ry="2.40565" fill="#FFD9B5"/>
<ellipse cx="807.698" cy="1630.86" rx="6.06034" ry="2.40565" fill="#FFD9B5"/>
<ellipse cx="931.698" cy="1630.86" rx="6.06034" ry="2.40565" fill="#FFD9B5"/>
<ellipse cx="1055.7" cy="1630.86" rx="6.06034" ry="2.40565" fill="#FFD9B5"/>
<ellipse cx="832.578" cy="1620.99" rx="6.06034" ry="2.40565" fill="#FFD9B5"/>
<ellipse cx="956.578" cy="1620.99" rx="6.06034" ry="2.40565" fill="#FFD9B5"/>
<ellipse cx="1080.58" cy="1620.99" rx="6.06034" ry="2.40565" fill="#FFD9B5"/>
<ellipse cx="832.578" cy="1630.86" rx="6.06034" ry="2.40565" fill="#FFD9B5"/>
<ellipse cx="956.578" cy="1630.86" rx="6.06034" ry="2.40565" fill="#FFD9B5"/>
<ellipse cx="1080.58" cy="1630.86" rx="6.06034" ry="2.40565" fill="#FFD9B5"/>
<ellipse cx="1106.06" cy="1620.99" rx="6.06034" ry="2.40565" fill="#FFD9B5"/>
<ellipse cx="1230.06" cy="1620.99" rx="6.06034" ry="2.40565" fill="#FFD9B5"/>
<ellipse cx="1354.06" cy="1620.99" rx="6.06034" ry="2.40565" fill="#FFD9B5"/>
<ellipse cx="1106.06" cy="1630.86" rx="6.06034" ry="2.40565" fill="#FFD9B5"/>
<ellipse cx="1230.06" cy="1630.86" rx="6.06034" ry="2.40565" fill="#FFD9B5"/>
<ellipse cx="1354.06" cy="1630.86" rx="6.06034" ry="2.40565" fill="#FFD9B5"/>
<ellipse cx="1130.94" cy="1620.99" rx="6.06034" ry="2.40565" fill="#FFD9B5"/>
<ellipse cx="1254.94" cy="1620.99" rx="6.06034" ry="2.40565" fill="#FFD9B5"/>
<ellipse cx="1378.94" cy="1620.99" rx="6.06034" ry="2.40565" fill="#FFD9B5"/>
<ellipse cx="1130.94" cy="1630.86" rx="6.06034" ry="2.40565" fill="#FFD9B5"/>
<ellipse cx="1254.94" cy="1630.86" rx="6.06034" ry="2.40565" fill="#FFD9B5"/>
<ellipse cx="1378.94" cy="1630.86" rx="6.06034" ry="2.40565" fill="#FFD9B5"/>
<ellipse cx="1155.82" cy="1620.99" rx="6.06034" ry="2.40565" fill="#FFD9B5"/>
<ellipse cx="1279.82" cy="1620.99" rx="6.06034" ry="2.40565" fill="#FFD9B5"/>
<ellipse cx="1403.82" cy="1620.99" rx="6.06034" ry="2.40565" fill="#FFD9B5"/>
<ellipse cx="1155.82" cy="1630.86" rx="6.06034" ry="2.40565" fill="#FFD9B5"/>
<ellipse cx="1279.82" cy="1630.86" rx="6.06034" ry="2.40565" fill="#FFD9B5"/>
<ellipse cx="1403.82" cy="1630.86" rx="6.06034" ry="2.40565" fill="#FFD9B5"/>
<ellipse cx="1180.7" cy="1620.99" rx="6.06034" ry="2.40565" fill="#FFD9B5"/>
<ellipse cx="1304.7" cy="1620.99" rx="6.06034" ry="2.40565" fill="#FFD9B5"/>
<ellipse cx="1428.7" cy="1620.99" rx="6.06034" ry="2.40565" fill="#FFD9B5"/>
<ellipse cx="1180.7" cy="1630.86" rx="6.06034" ry="2.40565" fill="#FFD9B5"/>
<ellipse cx="1304.7" cy="1630.86" rx="6.06034" ry="2.40565" fill="#FFD9B5"/>
<ellipse cx="1428.7" cy="1630.86" rx="6.06034" ry="2.40565" fill="#FFD9B5"/>
<ellipse cx="1205.58" cy="1620.99" rx="6.06034" ry="2.40565" fill="#FFD9B5"/>
<ellipse cx="1329.58" cy="1620.99" rx="6.06034" ry="2.40565" fill="#FFD9B5"/>
<ellipse cx="1205.58" cy="1630.86" rx="6.06034" ry="2.40565" fill="#FFD9B5"/>
<ellipse cx="1329.58" cy="1630.86" rx="6.06034" ry="2.40565" fill="#FFD9B5"/>
<ellipse cx="110.06" cy="1639.59" rx="6.06034" ry="2.40565" fill="#FFD9B5"/>
<ellipse cx="234.06" cy="1639.59" rx="6.06034" ry="2.40565" fill="#FFD9B5"/>
<ellipse cx="10.9397" cy="1639.59" rx="6.06034" ry="2.40565" fill="#FFD9B5"/>
<ellipse cx="134.94" cy="1639.59" rx="6.06034" ry="2.40565" fill="#FFD9B5"/>
<ellipse cx="258.94" cy="1639.59" rx="6.06034" ry="2.40565" fill="#FFD9B5"/>
<ellipse cx="35.8189" cy="1639.59" rx="6.06034" ry="2.40565" fill="#FFD9B5"/>
<ellipse cx="159.819" cy="1639.59" rx="6.06034" ry="2.40565" fill="#FFD9B5"/>
<ellipse cx="283.819" cy="1639.59" rx="6.06034" ry="2.40565" fill="#FFD9B5"/>
<ellipse cx="60.6983" cy="1639.59" rx="6.06034" ry="2.40565" fill="#FFD9B5"/>
<ellipse cx="184.698" cy="1639.59" rx="6.06034" ry="2.40565" fill="#FFD9B5"/>
<ellipse cx="308.698" cy="1639.59" rx="6.06034" ry="2.40565" fill="#FFD9B5"/>
<ellipse cx="85.5777" cy="1639.59" rx="6.06034" ry="2.40565" fill="#FFD9B5"/>
<ellipse cx="209.578" cy="1639.59" rx="6.06034" ry="2.40565" fill="#FFD9B5"/>
<ellipse cx="333.578" cy="1639.59" rx="6.06034" ry="2.40565" fill="#FFD9B5"/>
<ellipse cx="359.06" cy="1639.59" rx="6.06034" ry="2.40565" fill="#FFD9B5"/>
<ellipse cx="483.06" cy="1639.59" rx="6.06034" ry="2.40565" fill="#FFD9B5"/>
<ellipse cx="607.06" cy="1639.59" rx="6.06034" ry="2.40565" fill="#FFD9B5"/>
<ellipse cx="383.94" cy="1639.59" rx="6.06034" ry="2.40565" fill="#FFD9B5"/>
<ellipse cx="507.94" cy="1639.59" rx="6.06034" ry="2.40565" fill="#FFD9B5"/>
<ellipse cx="631.94" cy="1639.59" rx="6.06034" ry="2.40565" fill="#FFD9B5"/>
<ellipse cx="408.819" cy="1639.59" rx="6.06034" ry="2.40565" fill="#FFD9B5"/>
<ellipse cx="532.819" cy="1639.59" rx="6.06034" ry="2.40565" fill="#FFD9B5"/>
<ellipse cx="656.819" cy="1639.59" rx="6.06034" ry="2.40565" fill="#FFD9B5"/>
<ellipse cx="433.698" cy="1639.59" rx="6.06034" ry="2.40565" fill="#FFD9B5"/>
<ellipse cx="557.698" cy="1639.59" rx="6.06034" ry="2.40565" fill="#FFD9B5"/>
<ellipse cx="681.698" cy="1639.59" rx="6.06034" ry="2.40565" fill="#FFD9B5"/>
<ellipse cx="458.578" cy="1639.59" rx="6.06034" ry="2.40565" fill="#FFD9B5"/>
<ellipse cx="582.578" cy="1639.59" rx="6.06034" ry="2.40565" fill="#FFD9B5"/>
<ellipse cx="706.578" cy="1639.59" rx="6.06034" ry="2.40565" fill="#FFD9B5"/>
<ellipse cx="732.06" cy="1639.59" rx="6.06034" ry="2.40565" fill="#FFD9B5"/>
<ellipse cx="856.06" cy="1639.59" rx="6.06034" ry="2.40565" fill="#FFD9B5"/>
<ellipse cx="980.06" cy="1639.59" rx="6.06034" ry="2.40565" fill="#FFD9B5"/>
<ellipse cx="756.94" cy="1639.59" rx="6.06034" ry="2.40565" fill="#FFD9B5"/>
<ellipse cx="880.94" cy="1639.59" rx="6.06034" ry="2.40565" fill="#FFD9B5"/>
<ellipse cx="1004.94" cy="1639.59" rx="6.06034" ry="2.40565" fill="#FFD9B5"/>
<ellipse cx="781.819" cy="1639.59" rx="6.06034" ry="2.40565" fill="#FFD9B5"/>
<ellipse cx="905.819" cy="1639.59" rx="6.06034" ry="2.40565" fill="#FFD9B5"/>
<ellipse cx="1029.82" cy="1639.59" rx="6.06034" ry="2.40565" fill="#FFD9B5"/>
<ellipse cx="806.698" cy="1639.59" rx="6.06034" ry="2.40565" fill="#FFD9B5"/>
<ellipse cx="930.698" cy="1639.59" rx="6.06034" ry="2.40565" fill="#FFD9B5"/>
<ellipse cx="1054.7" cy="1639.59" rx="6.06034" ry="2.40565" fill="#FFD9B5"/>
<ellipse cx="831.578" cy="1639.59" rx="6.06034" ry="2.40565" fill="#FFD9B5"/>
<ellipse cx="955.578" cy="1639.59" rx="6.06034" ry="2.40565" fill="#FFD9B5"/>
<ellipse cx="1079.58" cy="1639.59" rx="6.06034" ry="2.40565" fill="#FFD9B5"/>
<ellipse cx="1105.06" cy="1639.59" rx="6.06034" ry="2.40565" fill="#FFD9B5"/>
<ellipse cx="1229.06" cy="1639.59" rx="6.06034" ry="2.40565" fill="#FFD9B5"/>
<ellipse cx="1353.06" cy="1639.59" rx="6.06034" ry="2.40565" fill="#FFD9B5"/>
<ellipse cx="1129.94" cy="1639.59" rx="6.06034" ry="2.40565" fill="#FFD9B5"/>
<ellipse cx="1253.94" cy="1639.59" rx="6.06034" ry="2.40565" fill="#FFD9B5"/>
<ellipse cx="1377.94" cy="1639.59" rx="6.06034" ry="2.40565" fill="#FFD9B5"/>
<ellipse cx="1154.82" cy="1639.59" rx="6.06034" ry="2.40565" fill="#FFD9B5"/>
<ellipse cx="1278.82" cy="1639.59" rx="6.06034" ry="2.40565" fill="#FFD9B5"/>
<ellipse cx="1402.82" cy="1639.59" rx="6.06034" ry="2.40565" fill="#FFD9B5"/>
<ellipse cx="1179.7" cy="1639.59" rx="6.06034" ry="2.40565" fill="#FFD9B5"/>
<ellipse cx="1303.7" cy="1639.59" rx="6.06034" ry="2.40565" fill="#FFD9B5"/>
<ellipse cx="1427.7" cy="1639.59" rx="6.06034" ry="2.40565" fill="#FFD9B5"/>
<ellipse cx="1204.58" cy="1639.59" rx="6.06034" ry="2.40565" fill="#FFD9B5"/>
<ellipse cx="1328.58" cy="1639.59" rx="6.06034" ry="2.40565" fill="#FFD9B5"/>
<path d="M-4 1913H1440V1999.33H-4V1913Z" fill="#FDB073"/>
<path d="M-4 1712.5H1440V1783.5H-4V1712.5Z" fill="#413545"/>
<ellipse cx="111.06" cy="1952.58" rx="6.06034" ry="3.57559" fill="#FFD9B5"/>
<ellipse cx="235.06" cy="1952.58" rx="6.06034" ry="3.57559" fill="#FFD9B5"/>
<ellipse cx="111.06" cy="1967.25" rx="6.06034" ry="3.57559" fill="#FFD9B5"/>
<ellipse cx="235.06" cy="1967.25" rx="6.06034" ry="3.57559" fill="#FFD9B5"/>
<ellipse cx="11.9397" cy="1952.58" rx="6.06034" ry="3.57559" fill="#FFD9B5"/>
<ellipse cx="135.94" cy="1952.58" rx="6.06034" ry="3.57559" fill="#FFD9B5"/>
<ellipse cx="259.94" cy="1952.58" rx="6.06034" ry="3.57559" fill="#FFD9B5"/>
<ellipse cx="11.9397" cy="1967.25" rx="6.06034" ry="3.57559" fill="#FFD9B5"/>
<ellipse cx="135.94" cy="1967.25" rx="6.06034" ry="3.57559" fill="#FFD9B5"/>
<ellipse cx="259.94" cy="1967.25" rx="6.06034" ry="3.57559" fill="#FFD9B5"/>
<ellipse cx="36.8189" cy="1952.58" rx="6.06034" ry="3.57559" fill="#FFD9B5"/>
<ellipse cx="160.819" cy="1952.58" rx="6.06034" ry="3.57559" fill="#FFD9B5"/>
<ellipse cx="284.819" cy="1952.58" rx="6.06034" ry="3.57559" fill="#FFD9B5"/>
<ellipse cx="36.8189" cy="1967.25" rx="6.06034" ry="3.57559" fill="#FFD9B5"/>
<ellipse cx="160.819" cy="1967.25" rx="6.06034" ry="3.57559" fill="#FFD9B5"/>
<ellipse cx="284.819" cy="1967.25" rx="6.06034" ry="3.57559" fill="#FFD9B5"/>
<ellipse cx="61.6983" cy="1952.58" rx="6.06034" ry="3.57559" fill="#FFD9B5"/>
<ellipse cx="185.698" cy="1952.58" rx="6.06034" ry="3.57559" fill="#FFD9B5"/>
<ellipse cx="309.698" cy="1952.58" rx="6.06034" ry="3.57559" fill="#FFD9B5"/>
<ellipse cx="61.6983" cy="1967.25" rx="6.06034" ry="3.57559" fill="#FFD9B5"/>
<ellipse cx="185.698" cy="1967.25" rx="6.06034" ry="3.57559" fill="#FFD9B5"/>
<ellipse cx="309.698" cy="1967.25" rx="6.06034" ry="3.57559" fill="#FFD9B5"/>
<ellipse cx="86.5777" cy="1952.58" rx="6.06034" ry="3.57559" fill="#FFD9B5"/>
<ellipse cx="210.578" cy="1952.58" rx="6.06034" ry="3.57559" fill="#FFD9B5"/>
<ellipse cx="334.578" cy="1952.58" rx="6.06034" ry="3.57559" fill="#FFD9B5"/>
<ellipse cx="86.5777" cy="1967.25" rx="6.06034" ry="3.57559" fill="#FFD9B5"/>
<ellipse cx="210.578" cy="1967.25" rx="6.06034" ry="3.57559" fill="#FFD9B5"/>
<ellipse cx="334.578" cy="1967.25" rx="6.06034" ry="3.57559" fill="#FFD9B5"/>
<ellipse cx="360.06" cy="1952.58" rx="6.06034" ry="3.57559" fill="#FFD9B5"/>
<ellipse cx="484.06" cy="1952.58" rx="6.06034" ry="3.57559" fill="#FFD9B5"/>
<ellipse cx="608.06" cy="1952.58" rx="6.06034" ry="3.57559" fill="#FFD9B5"/>
<ellipse cx="360.06" cy="1967.25" rx="6.06034" ry="3.57559" fill="#FFD9B5"/>
<ellipse cx="484.06" cy="1967.25" rx="6.06034" ry="3.57559" fill="#FFD9B5"/>
<ellipse cx="608.06" cy="1967.25" rx="6.06034" ry="3.57559" fill="#FFD9B5"/>
<ellipse cx="384.94" cy="1952.58" rx="6.06034" ry="3.57559" fill="#FFD9B5"/>
<ellipse cx="508.94" cy="1952.58" rx="6.06034" ry="3.57559" fill="#FFD9B5"/>
<ellipse cx="632.94" cy="1952.58" rx="6.06034" ry="3.57559" fill="#FFD9B5"/>
<ellipse cx="384.94" cy="1967.25" rx="6.06034" ry="3.57559" fill="#FFD9B5"/>
<ellipse cx="508.94" cy="1967.25" rx="6.06034" ry="3.57559" fill="#FFD9B5"/>
<ellipse cx="632.94" cy="1967.25" rx="6.06034" ry="3.57559" fill="#FFD9B5"/>
<ellipse cx="409.819" cy="1952.58" rx="6.06034" ry="3.57559" fill="#FFD9B5"/>
<ellipse cx="533.819" cy="1952.58" rx="6.06034" ry="3.57559" fill="#FFD9B5"/>
<ellipse cx="657.819" cy="1952.58" rx="6.06034" ry="3.57559" fill="#FFD9B5"/>
<ellipse cx="409.819" cy="1967.25" rx="6.06034" ry="3.57559" fill="#FFD9B5"/>
<ellipse cx="533.819" cy="1967.25" rx="6.06034" ry="3.57559" fill="#FFD9B5"/>
<ellipse cx="657.819" cy="1967.25" rx="6.06034" ry="3.57559" fill="#FFD9B5"/>
<ellipse cx="434.698" cy="1952.58" rx="6.06034" ry="3.57559" fill="#FFD9B5"/>
<ellipse cx="558.698" cy="1952.58" rx="6.06034" ry="3.57559" fill="#FFD9B5"/>
<ellipse cx="682.698" cy="1952.58" rx="6.06034" ry="3.57559" fill="#FFD9B5"/>
<ellipse cx="434.698" cy="1967.25" rx="6.06034" ry="3.57559" fill="#FFD9B5"/>
<ellipse cx="558.698" cy="1967.25" rx="6.06034" ry="3.57559" fill="#FFD9B5"/>
<ellipse cx="682.698" cy="1967.25" rx="6.06034" ry="3.57559" fill="#FFD9B5"/>
<ellipse cx="459.578" cy="1952.58" rx="6.06034" ry="3.57559" fill="#FFD9B5"/>
<ellipse cx="583.578" cy="1952.58" rx="6.06034" ry="3.57559" fill="#FFD9B5"/>
<ellipse cx="707.578" cy="1952.58" rx="6.06034" ry="3.57559" fill="#FFD9B5"/>
<ellipse cx="459.578" cy="1967.25" rx="6.06034" ry="3.57559" fill="#FFD9B5"/>
<ellipse cx="583.578" cy="1967.25" rx="6.06034" ry="3.57559" fill="#FFD9B5"/>
<ellipse cx="707.578" cy="1967.25" rx="6.06034" ry="3.57559" fill="#FFD9B5"/>
<ellipse cx="733.06" cy="1952.58" rx="6.06034" ry="3.57559" fill="#FFD9B5"/>
<ellipse cx="857.06" cy="1952.58" rx="6.06034" ry="3.57559" fill="#FFD9B5"/>
<ellipse cx="981.06" cy="1952.58" rx="6.06034" ry="3.57559" fill="#FFD9B5"/>
<ellipse cx="733.06" cy="1967.25" rx="6.06034" ry="3.57559" fill="#FFD9B5"/>
<ellipse cx="857.06" cy="1967.25" rx="6.06034" ry="3.57559" fill="#FFD9B5"/>
<ellipse cx="981.06" cy="1967.25" rx="6.06034" ry="3.57559" fill="#FFD9B5"/>
<ellipse cx="757.94" cy="1952.58" rx="6.06034" ry="3.57559" fill="#FFD9B5"/>
<ellipse cx="881.94" cy="1952.58" rx="6.06034" ry="3.57559" fill="#FFD9B5"/>
<ellipse cx="1005.94" cy="1952.58" rx="6.06034" ry="3.57559" fill="#FFD9B5"/>
<ellipse cx="757.94" cy="1967.25" rx="6.06034" ry="3.57559" fill="#FFD9B5"/>
<ellipse cx="881.94" cy="1967.25" rx="6.06034" ry="3.57559" fill="#FFD9B5"/>
<ellipse cx="1005.94" cy="1967.25" rx="6.06034" ry="3.57559" fill="#FFD9B5"/>
<ellipse cx="782.819" cy="1952.58" rx="6.06034" ry="3.57559" fill="#FFD9B5"/>
<ellipse cx="906.819" cy="1952.58" rx="6.06034" ry="3.57559" fill="#FFD9B5"/>
<ellipse cx="1030.82" cy="1952.58" rx="6.06034" ry="3.57559" fill="#FFD9B5"/>
<ellipse cx="782.819" cy="1967.25" rx="6.06034" ry="3.57559" fill="#FFD9B5"/>
<ellipse cx="906.819" cy="1967.25" rx="6.06034" ry="3.57559" fill="#FFD9B5"/>
<ellipse cx="1030.82" cy="1967.25" rx="6.06034" ry="3.57559" fill="#FFD9B5"/>
<ellipse cx="807.698" cy="1952.58" rx="6.06034" ry="3.57559" fill="#FFD9B5"/>
<ellipse cx="931.698" cy="1952.58" rx="6.06034" ry="3.57559" fill="#FFD9B5"/>
<ellipse cx="1055.7" cy="1952.58" rx="6.06034" ry="3.57559" fill="#FFD9B5"/>
<ellipse cx="807.698" cy="1967.25" rx="6.06034" ry="3.57559" fill="#FFD9B5"/>
<ellipse cx="931.698" cy="1967.25" rx="6.06034" ry="3.57559" fill="#FFD9B5"/>
<ellipse cx="1055.7" cy="1967.25" rx="6.06034" ry="3.57559" fill="#FFD9B5"/>
<ellipse cx="832.578" cy="1952.58" rx="6.06034" ry="3.57559" fill="#FFD9B5"/>
<ellipse cx="956.578" cy="1952.58" rx="6.06034" ry="3.57559" fill="#FFD9B5"/>
<ellipse cx="1080.58" cy="1952.58" rx="6.06034" ry="3.57559" fill="#FFD9B5"/>
<ellipse cx="832.578" cy="1967.25" rx="6.06034" ry="3.57559" fill="#FFD9B5"/>
<ellipse cx="956.578" cy="1967.25" rx="6.06034" ry="3.57559" fill="#FFD9B5"/>
<ellipse cx="1080.58" cy="1967.25" rx="6.06034" ry="3.57559" fill="#FFD9B5"/>
<ellipse cx="1106.06" cy="1952.58" rx="6.06034" ry="3.57559" fill="#FFD9B5"/>
<ellipse cx="1230.06" cy="1952.58" rx="6.06034" ry="3.57559" fill="#FFD9B5"/>
<ellipse cx="1354.06" cy="1952.58" rx="6.06034" ry="3.57559" fill="#FFD9B5"/>
<ellipse cx="1106.06" cy="1967.25" rx="6.06034" ry="3.57559" fill="#FFD9B5"/>
<ellipse cx="1230.06" cy="1967.25" rx="6.06034" ry="3.57559" fill="#FFD9B5"/>
<ellipse cx="1354.06" cy="1967.25" rx="6.06034" ry="3.57559" fill="#FFD9B5"/>
<ellipse cx="1130.94" cy="1952.58" rx="6.06034" ry="3.57559" fill="#FFD9B5"/>
<ellipse cx="1254.94" cy="1952.58" rx="6.06034" ry="3.57559" fill="#FFD9B5"/>
<ellipse cx="1378.94" cy="1952.58" rx="6.06034" ry="3.57559" fill="#FFD9B5"/>
<ellipse cx="1130.94" cy="1967.25" rx="6.06034" ry="3.57559" fill="#FFD9B5"/>
<ellipse cx="1254.94" cy="1967.25" rx="6.06034" ry="3.57559" fill="#FFD9B5"/>
<ellipse cx="1378.94" cy="1967.25" rx="6.06034" ry="3.57559" fill="#FFD9B5"/>
<ellipse cx="1155.82" cy="1952.58" rx="6.06034" ry="3.57559" fill="#FFD9B5"/>
<ellipse cx="1279.82" cy="1952.58" rx="6.06034" ry="3.57559" fill="#FFD9B5"/>
<ellipse cx="1403.82" cy="1952.58" rx="6.06034" ry="3.57559" fill="#FFD9B5"/>
<ellipse cx="1155.82" cy="1967.25" rx="6.06034" ry="3.57559" fill="#FFD9B5"/>
<ellipse cx="1279.82" cy="1967.25" rx="6.06034" ry="3.57559" fill="#FFD9B5"/>
<ellipse cx="1403.82" cy="1967.25" rx="6.06034" ry="3.57559" fill="#FFD9B5"/>
<ellipse cx="1180.7" cy="1952.58" rx="6.06034" ry="3.57559" fill="#FFD9B5"/>
<ellipse cx="1304.7" cy="1952.58" rx="6.06034" ry="3.57559" fill="#FFD9B5"/>
<ellipse cx="1428.7" cy="1952.58" rx="6.06034" ry="3.57559" fill="#FFD9B5"/>
<ellipse cx="1180.7" cy="1967.25" rx="6.06034" ry="3.57559" fill="#FFD9B5"/>
<ellipse cx="1304.7" cy="1967.25" rx="6.06034" ry="3.57559" fill="#FFD9B5"/>
<ellipse cx="1428.7" cy="1967.25" rx="6.06034" ry="3.57559" fill="#FFD9B5"/>
<ellipse cx="1205.58" cy="1952.58" rx="6.06034" ry="3.57559" fill="#FFD9B5"/>
<ellipse cx="1329.58" cy="1952.58" rx="6.06034" ry="3.57559" fill="#FFD9B5"/>
<ellipse cx="1205.58" cy="1967.25" rx="6.06034" ry="3.57559" fill="#FFD9B5"/>
<ellipse cx="1329.58" cy="1967.25" rx="6.06034" ry="3.57559" fill="#FFD9B5"/>
<ellipse cx="110.06" cy="1980.23" rx="6.06034" ry="3.57559" fill="#FFD9B5"/>
<ellipse cx="234.06" cy="1980.23" rx="6.06034" ry="3.57559" fill="#FFD9B5"/>
<ellipse cx="10.9397" cy="1980.23" rx="6.06034" ry="3.57559" fill="#FFD9B5"/>
<ellipse cx="134.94" cy="1980.23" rx="6.06034" ry="3.57559" fill="#FFD9B5"/>
<ellipse cx="258.94" cy="1980.23" rx="6.06034" ry="3.57559" fill="#FFD9B5"/>
<ellipse cx="35.8189" cy="1980.23" rx="6.06034" ry="3.57559" fill="#FFD9B5"/>
<ellipse cx="159.819" cy="1980.23" rx="6.06034" ry="3.57559" fill="#FFD9B5"/>
<ellipse cx="283.819" cy="1980.23" rx="6.06034" ry="3.57559" fill="#FFD9B5"/>
<ellipse cx="60.6983" cy="1980.23" rx="6.06034" ry="3.57559" fill="#FFD9B5"/>
<ellipse cx="184.698" cy="1980.23" rx="6.06034" ry="3.57559" fill="#FFD9B5"/>
<ellipse cx="308.698" cy="1980.23" rx="6.06034" ry="3.57559" fill="#FFD9B5"/>
<ellipse cx="85.5777" cy="1980.23" rx="6.06034" ry="3.57559" fill="#FFD9B5"/>
<ellipse cx="209.578" cy="1980.23" rx="6.06034" ry="3.57559" fill="#FFD9B5"/>
<ellipse cx="333.578" cy="1980.23" rx="6.06034" ry="3.57559" fill="#FFD9B5"/>
<ellipse cx="359.06" cy="1980.23" rx="6.06034" ry="3.57559" fill="#FFD9B5"/>
<ellipse cx="483.06" cy="1980.23" rx="6.06034" ry="3.57559" fill="#FFD9B5"/>
<ellipse cx="607.06" cy="1980.23" rx="6.06034" ry="3.57559" fill="#FFD9B5"/>
<ellipse cx="383.94" cy="1980.23" rx="6.06034" ry="3.57559" fill="#FFD9B5"/>
<ellipse cx="507.94" cy="1980.23" rx="6.06034" ry="3.57559" fill="#FFD9B5"/>
<ellipse cx="631.94" cy="1980.23" rx="6.06034" ry="3.57559" fill="#FFD9B5"/>
<ellipse cx="408.819" cy="1980.23" rx="6.06034" ry="3.57559" fill="#FFD9B5"/>
<ellipse cx="532.819" cy="1980.23" rx="6.06034" ry="3.57559" fill="#FFD9B5"/>
<ellipse cx="656.819" cy="1980.23" rx="6.06034" ry="3.57559" fill="#FFD9B5"/>
<ellipse cx="433.698" cy="1980.23" rx="6.06034" ry="3.57559" fill="#FFD9B5"/>
<ellipse cx="557.698" cy="1980.23" rx="6.06034" ry="3.57559" fill="#FFD9B5"/>
<ellipse cx="681.698" cy="1980.23" rx="6.06034" ry="3.57559" fill="#FFD9B5"/>
<ellipse cx="458.578" cy="1980.23" rx="6.06034" ry="3.57559" fill="#FFD9B5"/>
<ellipse cx="582.578" cy="1980.23" rx="6.06034" ry="3.57559" fill="#FFD9B5"/>
<ellipse cx="706.578" cy="1980.23" rx="6.06034" ry="3.57559" fill="#FFD9B5"/>
<ellipse cx="732.06" cy="1980.23" rx="6.06034" ry="3.57559" fill="#FFD9B5"/>
<ellipse cx="856.06" cy="1980.23" rx="6.06034" ry="3.57559" fill="#FFD9B5"/>
<ellipse cx="980.06" cy="1980.23" rx="6.06034" ry="3.57559" fill="#FFD9B5"/>
<ellipse cx="756.94" cy="1980.23" rx="6.06034" ry="3.57559" fill="#FFD9B5"/>
<ellipse cx="880.94" cy="1980.23" rx="6.06034" ry="3.57559" fill="#FFD9B5"/>
<ellipse cx="1004.94" cy="1980.23" rx="6.06034" ry="3.57559" fill="#FFD9B5"/>
<ellipse cx="781.819" cy="1980.23" rx="6.06034" ry="3.57559" fill="#FFD9B5"/>
<ellipse cx="905.819" cy="1980.23" rx="6.06034" ry="3.57559" fill="#FFD9B5"/>
<ellipse cx="1029.82" cy="1980.23" rx="6.06034" ry="3.57559" fill="#FFD9B5"/>
<ellipse cx="806.698" cy="1980.23" rx="6.06034" ry="3.57559" fill="#FFD9B5"/>
<ellipse cx="930.698" cy="1980.23" rx="6.06034" ry="3.57559" fill="#FFD9B5"/>
<ellipse cx="1054.7" cy="1980.23" rx="6.06034" ry="3.57559" fill="#FFD9B5"/>
<ellipse cx="831.578" cy="1980.23" rx="6.06034" ry="3.57559" fill="#FFD9B5"/>
<ellipse cx="955.578" cy="1980.23" rx="6.06034" ry="3.57559" fill="#FFD9B5"/>
<ellipse cx="1079.58" cy="1980.23" rx="6.06034" ry="3.57559" fill="#FFD9B5"/>
<ellipse cx="1105.06" cy="1980.23" rx="6.06034" ry="3.57559" fill="#FFD9B5"/>
<ellipse cx="1229.06" cy="1980.23" rx="6.06034" ry="3.57559" fill="#FFD9B5"/>
<ellipse cx="1353.06" cy="1980.23" rx="6.06034" ry="3.57559" fill="#FFD9B5"/>
<ellipse cx="1129.94" cy="1980.23" rx="6.06034" ry="3.57559" fill="#FFD9B5"/>
<ellipse cx="1253.94" cy="1980.23" rx="6.06034" ry="3.57559" fill="#FFD9B5"/>
<ellipse cx="1377.94" cy="1980.23" rx="6.06034" ry="3.57559" fill="#FFD9B5"/>
<ellipse cx="1154.82" cy="1980.23" rx="6.06034" ry="3.57559" fill="#FFD9B5"/>
<ellipse cx="1278.82" cy="1980.23" rx="6.06034" ry="3.57559" fill="#FFD9B5"/>
<ellipse cx="1402.82" cy="1980.23" rx="6.06034" ry="3.57559" fill="#FFD9B5"/>
<ellipse cx="1179.7" cy="1980.23" rx="6.06034" ry="3.57559" fill="#FFD9B5"/>
<ellipse cx="1303.7" cy="1980.23" rx="6.06034" ry="3.57559" fill="#FFD9B5"/>
<ellipse cx="1427.7" cy="1980.23" rx="6.06034" ry="3.57559" fill="#FFD9B5"/>
<ellipse cx="1204.58" cy="1980.23" rx="6.06034" ry="3.57559" fill="#FFD9B5"/>
<ellipse cx="1328.58" cy="1980.23" rx="6.06034" ry="3.57559" fill="#FFD9B5"/>
</g>
<defs>
<linearGradient id="paint0_linear" x1="719.5" y1="7" x2="733.445" y2="1524.28" gradientUnits="userSpaceOnUse">
<stop stop-color="#5748B9"/>
<stop offset="0.0885417" stop-color="#897DBA"/>
<stop offset="0.520833" stop-color="#CE768B"/>
<stop offset="0.817708" stop-color="#FCC9A5"/>
<stop offset="1" stop-color="white"/>
</linearGradient>
<linearGradient id="paint1_linear" x1="56.375" y1="133.5" x2="56.375" y2="317" gradientUnits="userSpaceOnUse">
<stop stop-color="white"/>
<stop offset="0.444443" stop-color="white" stop-opacity="0"/>
<stop offset="1" stop-color="white"/>
</linearGradient>
<linearGradient id="paint2_linear" x1="1072.88" y1="332.5" x2="1072.88" y2="516" gradientUnits="userSpaceOnUse">
<stop stop-color="white"/>
<stop offset="0.444443" stop-color="white" stop-opacity="0"/>
<stop offset="1" stop-color="white"/>
</linearGradient>
<linearGradient id="paint3_linear" x1="1134.37" y1="331" x2="1134.37" y2="514.5" gradientUnits="userSpaceOnUse">
<stop stop-color="white"/>
<stop offset="0.444443" stop-color="white" stop-opacity="0"/>
<stop offset="1" stop-color="white"/>
</linearGradient>
<linearGradient id="paint4_linear" x1="428.875" y1="331" x2="428.875" y2="514.5" gradientUnits="userSpaceOnUse">
<stop stop-color="white"/>
<stop offset="0.444443" stop-color="white" stop-opacity="0"/>
<stop offset="1" stop-color="white"/>
</linearGradient>
<linearGradient id="paint5_linear" x1="527.875" y1="1125" x2="527.875" y2="1308.5" gradientUnits="userSpaceOnUse">
<stop stop-color="white"/>
<stop offset="0.444443" stop-color="white" stop-opacity="0"/>
<stop offset="1" stop-color="white"/>
</linearGradient>
<linearGradient id="paint6_linear" x1="1351.87" y1="530" x2="1351.87" y2="713.5" gradientUnits="userSpaceOnUse">
<stop stop-color="white"/>
<stop offset="0.444443" stop-color="white" stop-opacity="0"/>
<stop offset="1" stop-color="white"/>
</linearGradient>
<linearGradient id="paint7_linear" x1="295.625" y1="927.999" x2="295.625" y2="1111.5" gradientUnits="userSpaceOnUse">
<stop stop-color="white"/>
<stop offset="0.444443" stop-color="white" stop-opacity="0"/>
<stop offset="1" stop-color="white"/>
</linearGradient>
<linearGradient id="paint8_linear" x1="1348.62" y1="132" x2="1348.62" y2="315.5" gradientUnits="userSpaceOnUse">
<stop stop-color="white"/>
<stop offset="0.444443" stop-color="white" stop-opacity="0"/>
<stop offset="1" stop-color="white"/>
</linearGradient>
<linearGradient id="paint9_linear" x1="1017.63" y1="1126" x2="1017.63" y2="1309.5" gradientUnits="userSpaceOnUse">
<stop stop-color="white"/>
<stop offset="0.444443" stop-color="white" stop-opacity="0"/>
<stop offset="1" stop-color="white"/>
</linearGradient>
<linearGradient id="paint10_linear" x1="997.625" y1="131" x2="997.625" y2="314.5" gradientUnits="userSpaceOnUse">
<stop stop-color="white"/>
<stop offset="0.444443" stop-color="white" stop-opacity="0"/>
<stop offset="1" stop-color="white"/>
</linearGradient>
<linearGradient id="paint11_linear" x1="439.625" y1="132" x2="439.625" y2="315.5" gradientUnits="userSpaceOnUse">
<stop stop-color="white"/>
<stop offset="0.444443" stop-color="white" stop-opacity="0"/>
<stop offset="1" stop-color="white"/>
</linearGradient>
<linearGradient id="paint12_linear" x1="191.625" y1="729" x2="191.625" y2="912.499" gradientUnits="userSpaceOnUse">
<stop stop-color="white"/>
<stop offset="0.444443" stop-color="white" stop-opacity="0"/>
<stop offset="1" stop-color="white"/>
</linearGradient>
<linearGradient id="paint13_linear" x1="444.625" y1="531" x2="444.625" y2="714.5" gradientUnits="userSpaceOnUse">
<stop stop-color="white"/>
<stop offset="0.444443" stop-color="white" stop-opacity="0"/>
<stop offset="1" stop-color="white"/>
</linearGradient>
<linearGradient id="paint14_linear" x1="910.875" y1="533" x2="910.875" y2="716.5" gradientUnits="userSpaceOnUse">
<stop stop-color="white"/>
<stop offset="0.444443" stop-color="white" stop-opacity="0"/>
<stop offset="1" stop-color="white"/>
</linearGradient>
<linearGradient id="paint15_linear" x1="738.013" y1="1388" x2="738.013" y2="1611" gradientUnits="userSpaceOnUse">
<stop stop-color="#411818"/>
<stop offset="1" stop-color="#747474"/>
</linearGradient>
<radialGradient id="paint16_radial" cx="0" cy="0" r="1" gradientUnits="userSpaceOnUse" gradientTransform="translate(725.536 1515.62) rotate(90) scale(52.9167 125.97)">
<stop offset="0.322917" stop-color="#6597DE"/>
<stop offset="1" stop-color="#7879AC"/>
</radialGradient>
<linearGradient id="paint17_linear" x1="725.301" y1="1469.26" x2="725.301" y2="1525.92" gradientUnits="userSpaceOnUse">
<stop stop-color="white"/>
<stop offset="1" stop-color="#DBFFFF"/>
</linearGradient>
<linearGradient id="paint18_linear" x1="725.301" y1="1469.26" x2="725.536" y2="1541.85" gradientUnits="userSpaceOnUse">
<stop stop-color="#25D2FB"/>
<stop offset="1" stop-color="#3393EC"/>
</linearGradient>
<linearGradient id="paint19_linear" x1="738.648" y1="1475.82" x2="715.936" y2="1522.41" gradientUnits="userSpaceOnUse">
<stop stop-color="#BCFDFE"/>
<stop offset="1" stop-color="#9DFEFF"/>
<stop offset="1" stop-color="#91FDFF"/>
</linearGradient>
<linearGradient id="paint20_linear" x1="727.5" y1="1136" x2="727.5" y2="1525.89" gradientUnits="userSpaceOnUse">
<stop stop-color="#9DE3E3" stop-opacity="0"/>
<stop offset="1" stop-color="#66E4E4"/>
</linearGradient>
<clipPath id="clip0">
<rect width="1440" height="1999" fill="white"/>
</clipPath>
</defs>
</svg>
