<svg preserveAspectRatio="none" width="1436" height="1000" viewBox="0 0 1436 1000" fill="none" xmlns="http://www.w3.org/2000/svg">
<path d="M1298 178.043V109L132 849.957V919L1298 178.043Z" fill="url(#paint0_linear)" fill-opacity="0.2"/>
<path d="M1298 82.3611V56L132 813.639V840L1298 82.3611Z" fill="url(#paint1_linear)" fill-opacity="0.2"/>
<rect x="132" y="35" width="1166" height="897" fill="#322764"/>
<rect x="172" y="66" width="1086" height="837" fill="#605590"/>
<rect x="172" y="66" width="1086" height="70" fill="#1D175F"/>
<path d="M205.204 94.892C207.196 94.892 208.732 95.48 209.812 96.656C210.916 97.808 211.468 99.44 211.468 101.552V113H207.148V102.632C207.148 101.552 206.956 100.628 206.572 99.86C206.188 99.068 205.288 98.672 203.872 98.672C202.624 98.672 201.7 99.032 201.1 99.752C200.524 100.448 200.164 101.288 200.02 102.272C199.9 103.232 199.84 104.444 199.84 105.908V113H195.52V95.252H199.84V97.304C200.44 96.488 201.196 95.888 202.108 95.504C203.044 95.096 204.076 94.892 205.204 94.892ZM213.64 95.252H218.248L221.272 106.376L224.62 95.252H228.328L231.676 106.34L234.736 95.252H239.344L233.872 113H229.984L226.492 101.372L223 113H219.112L213.64 95.252ZM242.645 87.908H247.145V98.024H258.125V87.908H262.625V113H258.125V102.164H247.145V113H242.645V87.908ZM275.134 94.892C277.486 94.892 279.334 95.516 280.678 96.764C282.046 97.988 282.73 99.668 282.73 101.804V113H278.77L278.41 110.696C277.882 111.536 277.138 112.196 276.178 112.676C275.242 113.132 274.186 113.36 273.01 113.36C271.786 113.36 270.682 113.12 269.698 112.64C268.738 112.136 267.982 111.44 267.43 110.552C266.878 109.664 266.602 108.668 266.602 107.564C266.602 106.508 266.83 105.596 267.286 104.828C267.742 104.06 268.402 103.484 269.266 103.1C270.418 102.572 271.99 102.308 273.982 102.308H278.41V101.804C278.41 100.844 278.11 100.088 277.51 99.536C276.91 98.96 276.094 98.672 275.062 98.672C274.15 98.672 273.286 98.9 272.47 99.356C271.654 99.812 270.922 100.472 270.274 101.336L267.142 98.708C269.254 96.164 271.918 94.892 275.134 94.892ZM273.694 109.688C274.99 109.688 276.094 109.292 277.006 108.5C277.942 107.684 278.41 106.7 278.41 105.548H274.558C273.166 105.548 272.194 105.752 271.642 106.16C271.162 106.496 270.922 106.988 270.922 107.636C270.922 108.26 271.162 108.764 271.642 109.148C272.146 109.508 272.83 109.688 273.694 109.688ZM294.264 113.36C292.416 113.36 290.844 112.94 289.548 112.1C288.252 111.236 287.28 110.108 286.632 108.716C285.984 107.3 285.66 105.788 285.66 104.18C285.66 102.548 285.984 101.036 286.632 99.644C287.28 98.228 288.24 97.088 289.512 96.224C290.808 95.336 292.38 94.892 294.228 94.892C296.028 94.892 297.588 95.336 298.908 96.224C300.228 97.088 301.224 98.384 301.896 100.112L297.792 101.732C297.552 100.796 297.108 100.052 296.46 99.5C295.836 98.948 295.092 98.672 294.228 98.672C292.836 98.672 291.792 99.2 291.096 100.256C290.424 101.312 290.088 102.62 290.088 104.18C290.088 105.74 290.424 107.036 291.096 108.068C291.768 109.076 292.812 109.58 294.228 109.58C295.092 109.58 295.836 109.316 296.46 108.788C297.108 108.236 297.552 107.504 297.792 106.592L301.716 108.104C301.116 109.76 300.156 111.056 298.836 111.992C297.54 112.904 296.016 113.36 294.264 113.36ZM305.033 87.908H309.353V102.452L315.869 95.252H321.665L315.041 102.128L322.421 113H317.273L312.089 104.792L309.353 107.816V113H305.033V87.908ZM330.299 113.36C328.499 113.36 326.915 112.892 325.547 111.956C324.203 110.996 323.303 109.808 322.847 108.392L326.303 106.844C326.999 108.788 328.259 109.76 330.083 109.76C331.019 109.76 331.727 109.544 332.207 109.112C332.711 108.68 332.963 108.2 332.963 107.672C332.963 107.144 332.711 106.748 332.207 106.484C331.703 106.22 330.875 105.92 329.723 105.584C328.523 105.272 327.527 104.948 326.735 104.612C325.943 104.252 325.259 103.712 324.683 102.992C324.107 102.248 323.819 101.276 323.819 100.076C323.819 98.444 324.443 97.172 325.691 96.26C326.963 95.348 328.511 94.892 330.335 94.892C331.847 94.892 333.179 95.228 334.331 95.9C335.483 96.572 336.395 97.52 337.067 98.744L333.719 100.58C333.359 99.908 332.903 99.368 332.351 98.96C331.799 98.528 331.079 98.312 330.191 98.312C329.519 98.312 328.967 98.456 328.535 98.744C328.127 99.032 327.923 99.392 327.923 99.824C327.923 100.304 328.175 100.676 328.679 100.94C329.207 101.204 330.011 101.48 331.091 101.768C332.339 102.128 333.371 102.488 334.187 102.848C335.003 103.208 335.711 103.76 336.311 104.504C336.911 105.248 337.211 106.22 337.211 107.42C337.211 108.74 336.875 109.844 336.203 110.732C335.555 111.62 334.703 112.28 333.647 112.712C332.591 113.144 331.475 113.36 330.299 113.36ZM350.258 87.908H368.042V92.048H354.758V98.024H366.458V102.164H354.758V113H350.258V87.908ZM383.694 107.816H373.866L371.958 113H367.062L377.106 87.908H380.49L390.498 113H385.602L383.694 107.816ZM382.182 103.676L378.798 94.532L375.414 103.676H382.182ZM413.214 115.124L409.542 111.56C407.646 112.88 405.378 113.54 402.738 113.54C400.386 113.54 398.298 113 396.474 111.92C394.674 110.816 393.27 109.28 392.262 107.312C391.254 105.344 390.75 103.064 390.75 100.472C390.75 97.88 391.254 95.6 392.262 93.632C393.27 91.64 394.674 90.104 396.474 89.024C398.298 87.92 400.386 87.368 402.738 87.368C405.114 87.368 407.202 87.92 409.002 89.024C410.826 90.104 412.23 91.64 413.214 93.632C414.222 95.6 414.726 97.88 414.726 100.472C414.726 103.784 413.91 106.592 412.278 108.896L415.95 112.496L413.214 115.124ZM402.738 109.256C404.058 109.256 405.234 108.98 406.266 108.428L402.99 105.26L405.69 102.488L409.002 105.728C409.818 104.288 410.226 102.536 410.226 100.472C410.226 97.76 409.542 95.612 408.174 94.028C406.83 92.444 405.018 91.652 402.738 91.652C400.434 91.652 398.61 92.444 397.266 94.028C395.922 95.588 395.25 97.736 395.25 100.472C395.25 103.184 395.922 105.332 397.266 106.916C398.61 108.476 400.434 109.256 402.738 109.256Z" fill="white"/>
<rect x="110" y="82" width="1" height="1" fill="#322764"/>
<rect x="132" y="916" width="40" height="191" fill="#322764"/>
<rect x="360" y="912" width="33" height="200" fill="#322764"/>
<rect x="1258" y="917" width="40" height="195" fill="#322764"/>
<defs>
<linearGradient id="paint0_linear" x1="1330.62" y1="131.514" x2="93.8104" y2="855.067" gradientUnits="userSpaceOnUse">
<stop stop-color="#F4F4F4"/>
<stop offset="1" stop-color="#F4F4F4" stop-opacity="0.3"/>
</linearGradient>
<linearGradient id="paint1_linear" x1="1330.62" y1="73.192" x2="362.835" y2="754.777" gradientUnits="userSpaceOnUse">
<stop stop-color="#F4F4F4"/>
<stop offset="1" stop-color="#F4F4F4" stop-opacity="0.22"/>
</linearGradient>
</defs>
</svg>
