<svg preserveAspectRatio="none" width="414" height="1165" viewBox="0 0 414 1165" fill="none" xmlns="http://www.w3.org/2000/svg">
<g clip-path="url(#clip0)">
<path d="M-211 0H628V821H-211V0Z" fill="url(#paint0_linear)"/>
<path d="M-224 738H640V790H-224V738Z" fill="#413545"/>
<path fill-rule="evenodd" clip-rule="evenodd" d="M-193.563 748.28L-202.509 748.287L-202.511 746.533L-193.564 746.527L-193.563 748.28ZM-157.775 748.255L-175.669 748.268L-175.67 746.514L-157.776 746.501L-157.775 748.255ZM-121.987 748.23L-139.881 748.242L-139.882 746.488L-121.989 746.476L-121.987 748.23ZM-86.1996 748.204L-104.093 748.217L-104.095 746.463L-86.2009 746.45L-86.1996 748.204ZM-50.412 748.179L-68.3058 748.191L-68.307 746.438L-50.4132 746.425L-50.412 748.179ZM-14.6243 748.153L-32.5181 748.166L-32.5194 746.412L-14.6255 746.4L-14.6243 748.153ZM21.1634 748.128L3.26953 748.141L3.26828 746.387L21.1621 746.374L21.1634 748.128ZM56.951 748.102L39.0572 748.115L39.0559 746.361L56.9498 746.349L56.951 748.102ZM92.7387 748.077L74.8448 748.09L74.8436 746.336L92.7374 746.323L92.7387 748.077ZM128.526 748.052L110.633 748.064L110.631 746.311L128.525 746.298L128.526 748.052ZM164.314 748.026L146.42 748.039L146.419 746.285L164.313 746.272L164.314 748.026ZM200.102 748.001L182.208 748.014L182.207 746.26L200.1 746.247L200.102 748.001ZM235.889 747.975L217.995 747.988L217.994 746.234L235.888 746.222L235.889 747.975ZM271.677 747.95L253.783 747.963L253.782 746.209L271.676 746.196L271.677 747.95ZM307.465 747.925L289.571 747.937L289.57 746.183L307.463 746.171L307.465 747.925ZM343.252 747.899L325.358 747.912L325.357 746.158L343.251 746.145L343.252 747.899ZM379.04 747.874L361.146 747.886L361.145 746.133L379.039 746.12L379.04 747.874ZM414.828 747.848L396.934 747.861L396.933 746.107L414.826 746.095L414.828 747.848ZM450.615 747.823L432.721 747.836L432.72 746.082L450.614 746.069L450.615 747.823ZM486.403 747.797L468.509 747.81L468.508 746.056L486.401 746.044L486.403 747.797ZM522.19 747.772L504.297 747.785L504.295 746.031L522.189 746.018L522.19 747.772ZM557.978 747.747L540.084 747.759L540.083 746.006L557.977 745.993L557.978 747.747ZM593.765 747.721L575.872 747.734L575.87 745.98L593.764 745.967L593.765 747.721ZM620.607 747.702L611.659 747.709L611.658 745.955L620.605 745.948L620.607 747.702Z" fill="#FDB073"/>
<path d="M275 66H621V73H275V66Z" fill="#31354B"/>
<path d="M275 182H621V189H275V182Z" fill="#31354B"/>
<path d="M275 299H615V306H275V299Z" fill="#31354B"/>
<path d="M275 415H621V422H275V415Z" fill="#31354B"/>
<path d="M275 531H621V538H275V531Z" fill="#31354B"/>
<path d="M275 648H615V655H275V648Z" fill="#31354B"/>
<path d="M275 764H621V771H275V764Z" fill="#31354B"/>
<path d="M166 0H251V790H166V0Z" fill="#5FA9B4" fill-opacity="0.51"/>
<path d="M-200 182H262V189H-200V182Z" fill="#31354B"/>
<path d="M-200 299H262V306H-200V299Z" fill="#31354B"/>
<path d="M-199 415H263V422H-199V415Z" fill="#31354B"/>
<path d="M-203 535H263V542H-203V535Z" fill="#31354B"/>
<path d="M-200 648H262V655H-200V648Z" fill="#31354B"/>
<path d="M-203 764H259V771H-203V764Z" fill="#31354B"/>
<path d="M-199 66H262V73H-199V66Z" fill="#31354B"/>
<path d="M142 0H166V790H142V0Z" fill="#31354B"/>
<path d="M251 0H275V790H251V0Z" fill="#31354B"/>
<path d="M412.505 298L501 190H485.03L398 298H412.505Z" fill="url(#paint1_linear)" fill-opacity="0.23"/>
<path d="M-12.3524 299L73 189H38.8883L-45 299H-12.3524Z" fill="url(#paint2_linear)" fill-opacity="0.23"/>
<path d="M45.6476 763L131 654H96.8883L13 763H45.6476Z" fill="url(#paint3_linear)" fill-opacity="0.23"/>
<path d="M382.769 763L468 654H382.769L299 763H382.769Z" fill="url(#paint4_linear)" fill-opacity="0.23"/>
<path d="M370.769 182L456 72H370.769L287 182H370.769Z" fill="url(#paint5_linear)" fill-opacity="0.23"/>
<path d="M44.769 182L130 73H44.769L-39 182H44.769Z" fill="url(#paint6_linear)" fill-opacity="0.23"/>
<path d="M47.769 416L133 306H47.769L-36 416H47.769Z" fill="url(#paint7_linear)" fill-opacity="0.23"/>
<path d="M336.431 415L425 307H391.114L304 415H336.431Z" fill="url(#paint8_linear)" fill-opacity="0.23"/>
<path d="M-224 790H662V810H-224V790Z" fill="#5B4862"/>
<path d="M-224 807H662V938H-224V807Z" fill="url(#paint9_linear)"/>
<path d="M-8.28532 807H196V828H-16L-8.28532 807Z" fill="#413545"/>
<path d="M-8.28532 807H196V828H-16L-8.28532 807Z" fill="#413545"/>
<path d="M-8.28532 807H196V828H-16L-8.28532 807Z" fill="#413545"/>
<path d="M-8.28532 807H196V828H-16L-8.28532 807Z" fill="#413545"/>
<path fill-rule="evenodd" clip-rule="evenodd" d="M-7.87979 807.6L-15.1536 827.4H195.414V807.6H-7.87979ZM-16 828L-8.28532 807H196V828H-16Z" fill="#D0FFFF"/>
<path d="M-9.295 807L216 807V828H-17L-9.295 807Z" fill="#5B4862"/>
<path d="M-9.295 807L216 807V828H-17L-9.295 807Z" fill="#5B4862"/>
<path d="M-9.295 807L216 807V828H-17L-9.295 807Z" fill="#5B4862"/>
<path d="M-9.295 807L216 807V828H-17L-9.295 807Z" fill="#5B4862"/>
<path fill-rule="evenodd" clip-rule="evenodd" d="M-8.88998 807.6L-16.1547 827.4H215.415V807.6H-8.88998ZM-17 828L-9.295 807H216V828H-17Z" fill="#D0FFFF"/>
<path d="M445.294 807H215V828H453L445.294 807Z" fill="#5B4862"/>
<path d="M445.294 807H215V828H453L445.294 807Z" fill="#5B4862"/>
<path d="M445.294 807H215V828H453L445.294 807Z" fill="#5B4862"/>
<path d="M445.294 807H215V828H453L445.294 807Z" fill="#5B4862"/>
<path fill-rule="evenodd" clip-rule="evenodd" d="M444.889 807.6L452.155 827.4H215.585V807.6H444.889ZM453 828L445.294 807H215V828H453Z" fill="#D0FFFF"/>
<path d="M-15.5563 827H195.14L199 851H-24L-15.5563 827Z" fill="#413545"/>
<path d="M-15.5563 827H195.14L199 851H-24L-15.5563 827Z" fill="#413545"/>
<path d="M-15.5563 827H195.14L199 851H-24L-15.5563 827Z" fill="#413545"/>
<path d="M-15.5563 827H195.14L199 851H-24L-15.5563 827Z" fill="#413545"/>
<path fill-rule="evenodd" clip-rule="evenodd" d="M-15.1469 827.602L-23.1671 850.398H198.311L194.645 827.602H-15.1469ZM195.14 827H-15.5563L-24 851H199L195.14 827Z" fill="#D0FFFF"/>
<path d="M-16.5388 827H216V850.47L-25 851L-16.5388 827Z" fill="#5B4862"/>
<path d="M-16.5388 827H216V850.47L-25 851L-16.5388 827Z" fill="#5B4862"/>
<path d="M-16.5388 827H216V850.47L-25 851L-16.5388 827Z" fill="#5B4862"/>
<path d="M-16.5388 827H216V850.47L-25 851L-16.5388 827Z" fill="#5B4862"/>
<path fill-rule="evenodd" clip-rule="evenodd" d="M-16.1285 827.602L-24.1648 850.396L215.415 849.869V827.602H-16.1285ZM216 850.47L-25 851L-16.5388 827H216V850.47Z" fill="#D0FFFF"/>
<path d="M453.545 827H216V851L462 851L453.545 827Z" fill="#5B4862"/>
<path d="M453.545 827H216V851L462 851L453.545 827Z" fill="#5B4862"/>
<path d="M453.545 827H216V851L462 851L453.545 827Z" fill="#5B4862"/>
<path d="M453.545 827H216V851L462 851L453.545 827Z" fill="#5B4862"/>
<path fill-rule="evenodd" clip-rule="evenodd" d="M453.135 827.602L461.166 850.398L216.585 850.398V827.602H453.135ZM462 851L453.545 827H216V851L462 851Z" fill="#D0FFFF"/>
<path d="M-6.84217 850H204.063L208 868H-13L-6.84217 850Z" fill="#413545"/>
<path d="M-6.84217 850H204.063L208 868H-13L-6.84217 850Z" fill="#413545"/>
<path d="M-6.84217 850H204.063L208 868H-13L-6.84217 850Z" fill="#413545"/>
<path d="M-6.84217 850H204.063L208 868H-13L-6.84217 850Z" fill="#413545"/>
<path fill-rule="evenodd" clip-rule="evenodd" d="M-6.42345 850.581L-12.184 867.419H207.275L203.592 850.581H-6.42345ZM204.063 850H-6.84217L-13 868H208L204.063 850Z" fill="#D0FFFF"/>
<path d="M-6.84409 850H216V859V868H-13L-6.84409 850Z" fill="#5B4862"/>
<path d="M-6.84409 850H216V859V868H-13L-6.84409 850Z" fill="#5B4862"/>
<path d="M-6.84409 850H216V859V868H-13L-6.84409 850Z" fill="#5B4862"/>
<path d="M-6.84409 850H216V859V868H-13L-6.84409 850Z" fill="#5B4862"/>
<path fill-rule="evenodd" clip-rule="evenodd" d="M-6.42549 850.581L-12.1842 867.419H215.416V850.581H-6.42549ZM-13 868L-6.84409 850H216V868H-13Z" fill="#D0FFFF"/>
<path d="M443.846 850H215V868H450L443.846 850Z" fill="#5B4862"/>
<path d="M443.846 850H215V868H450L443.846 850Z" fill="#5B4862"/>
<path d="M443.846 850H215V868H450L443.846 850Z" fill="#5B4862"/>
<path d="M443.846 850H215V868H450L443.846 850Z" fill="#5B4862"/>
<path fill-rule="evenodd" clip-rule="evenodd" d="M443.428 850.581L449.185 867.419H215.584V850.581H443.428ZM450 868L443.846 850H215V868H450Z" fill="#D0FFFF"/>
<path d="M-29.3027 868H198.603L201 894H-37L-29.3027 868Z" fill="#413545"/>
<path d="M-29.3027 868H198.603L201 894H-37L-29.3027 868Z" fill="#413545"/>
<path d="M-29.3027 868H198.603L201 894H-37L-29.3027 868Z" fill="#413545"/>
<path d="M-29.3027 868H198.603L201 894H-37L-29.3027 868Z" fill="#413545"/>
<path fill-rule="evenodd" clip-rule="evenodd" d="M-28.8647 868.578L-36.2199 893.422H200.36L198.069 868.578H-28.8647ZM198.603 868H-29.3027L-37 894H201L198.603 868Z" fill="#D0FFFF"/>
<path d="M-29.296 868.149L216 867V892.851L-37 894L-29.296 868.149Z" fill="#5B4862"/>
<path d="M-29.296 868.149L216 867V892.851L-37 894L-29.296 868.149Z" fill="#5B4862"/>
<path d="M-29.296 868.149L216 867V892.851L-37 894L-29.296 868.149Z" fill="#5B4862"/>
<path d="M-29.296 868.149L216 867V892.851L-37 894L-29.296 868.149Z" fill="#5B4862"/>
<path fill-rule="evenodd" clip-rule="evenodd" d="M-28.857 868.721L-36.2182 893.422L215.415 892.279V867.577L-28.857 868.721ZM-29.296 868.149L-37 894L216 892.851V867L-29.296 868.149Z" fill="#D0FFFF"/>
<path d="M467.29 867.871L215 867V893.129L475 894L467.29 867.871Z" fill="#5B4862"/>
<path d="M467.29 867.871L215 867V893.129L475 894L467.29 867.871Z" fill="#5B4862"/>
<path d="M467.29 867.871L215 867V893.129L475 894L467.29 867.871Z" fill="#5B4862"/>
<path d="M467.29 867.871L215 867V893.129L475 894L467.29 867.871Z" fill="#5B4862"/>
<path fill-rule="evenodd" clip-rule="evenodd" d="M466.851 868.45L474.218 893.417L215.585 892.55V867.583L466.851 868.45ZM467.29 867.871L475 894L215 893.129V867L467.29 867.871Z" fill="#D0FFFF"/>
<path d="M-9.30272 893H201.603L204 921H-17L-9.30272 893Z" fill="#413545"/>
<path d="M-9.30272 893H201.603L204 921H-17L-9.30272 893Z" fill="#413545"/>
<path d="M-9.30272 893H201.603L204 921H-17L-9.30272 893Z" fill="#413545"/>
<path d="M-9.30272 893H201.603L204 921H-17L-9.30272 893Z" fill="#413545"/>
<path fill-rule="evenodd" clip-rule="evenodd" d="M-8.85695 893.583L-16.2335 920.417H203.363L201.066 893.583H-8.85695ZM201.603 893H-9.30272L-17 921H204L201.603 893Z" fill="#D0FFFF"/>
<path d="M-9.29009 892H216V921H-17L-9.29009 892Z" fill="#5B4862"/>
<path d="M-9.29009 892H216V921H-17L-9.29009 892Z" fill="#5B4862"/>
<path d="M-9.29009 892H216V921H-17L-9.29009 892Z" fill="#5B4862"/>
<path d="M-9.29009 892H216V921H-17L-9.29009 892Z" fill="#5B4862"/>
<path fill-rule="evenodd" clip-rule="evenodd" d="M-8.84058 892.589L-16.2374 920.411H215.414V892.589H-8.84058ZM-17 921L-9.29009 892H216V921H-17Z" fill="#D0FFFF"/>
<path d="M446.319 892.879L215 892V921H454L446.319 892.879Z" fill="#5B4862"/>
<path d="M446.319 892.879L215 892V921H454L446.319 892.879Z" fill="#5B4862"/>
<path d="M446.319 892.879L215 892V921H454L446.319 892.879Z" fill="#5B4862"/>
<path d="M446.319 892.879L215 892V921H454L446.319 892.879Z" fill="#5B4862"/>
<path fill-rule="evenodd" clip-rule="evenodd" d="M445.874 893.463L453.235 920.414H215.583V892.588L445.874 893.463ZM446.319 892.879L454 921H215V892L446.319 892.879Z" fill="#D0FFFF"/>
<path d="M-46.5155 920H203.385L206 940H-54L-46.5155 920Z" fill="#413545"/>
<path d="M-46.5155 920H203.385L206 940H-54L-46.5155 920Z" fill="#413545"/>
<path d="M-46.5155 920H203.385L206 940H-54L-46.5155 920Z" fill="#413545"/>
<path d="M-46.5155 920H203.385L206 940H-54L-46.5155 920Z" fill="#413545"/>
<path fill-rule="evenodd" clip-rule="evenodd" d="M-46.1087 920.58L-53.1593 939.42H205.334L202.871 920.58H-46.1087ZM203.385 920H-46.5155L-54 940H206L203.385 920Z" fill="#322764"/>
<path d="M-46.5134 919L216 920.151V940L-54 938.849L-46.5134 919Z" fill="#5B4862"/>
<path d="M-46.5134 919L216 920.151V940L-54 938.849L-46.5134 919Z" fill="#5B4862"/>
<path d="M-46.5134 919L216 920.151V940L-54 938.849L-46.5134 919Z" fill="#5B4862"/>
<path d="M-46.5134 919L216 920.151V940L-54 938.849L-46.5134 919Z" fill="#5B4862"/>
<path fill-rule="evenodd" clip-rule="evenodd" d="M-46.1071 919.577L-53.1604 938.278L215.415 939.422V920.723L-46.1071 919.577ZM216 920.151L-46.5134 919L-54 938.849L216 940V920.151Z" fill="#D0FFFF"/>
<path d="M481.519 920H215V940H489L481.519 920Z" fill="#5B4862"/>
<path d="M481.519 920H215V940H489L481.519 920Z" fill="#5B4862"/>
<path d="M481.519 920H215V940H489L481.519 920Z" fill="#5B4862"/>
<path d="M481.519 920H215V940H489L481.519 920Z" fill="#5B4862"/>
<path fill-rule="evenodd" clip-rule="evenodd" d="M481.112 920.58L488.16 939.42H215.585V920.58H481.112ZM489 940L481.519 920H215V940H489Z" fill="#D0FFFF"/>
<path d="M-212 934H629V974H-212V934Z" fill="#FDB073"/>
<path d="M-215 974H629V1056H-215V974Z" fill="#5B4862"/>
<path d="M-215 1015H629V1206H-215V1015Z" fill="#2E2B2B"/>
<path d="M-215 1114H629V1165H-215V1114Z" fill="#FDB073"/>
<path d="M-215 997H629V1039H-215V997Z" fill="#413545"/>
<path d="M-215 1059H629V1071H-215V1059Z" fill="#413545"/>
<path d="M-215 1107H629V1114H-215V1107Z" fill="#413545"/>
<path d="M250 1054.91C250 1053.3 251.296 1052 252.894 1052H270.106C271.704 1052 273 1053.3 273 1054.91V1111.09C273 1112.7 271.704 1114 270.106 1114H252.894C251.296 1114 250 1112.7 250 1111.09V1054.91Z" fill="#121419"/>
<path d="M302 1054.91C302 1053.3 303.296 1052 304.894 1052H322.106C323.704 1052 325 1053.3 325 1054.91V1111.09C325 1112.7 323.704 1114 322.106 1114H304.894C303.296 1114 302 1112.7 302 1111.09V1054.91Z" fill="#121419"/>
<path d="M-13 1054.91C-13 1053.3 -11.6478 1052 -9.97972 1052H7.97972C9.64777 1052 11 1053.3 11 1054.91V1111.09C11 1112.7 9.64778 1114 7.97972 1114H-9.97972C-11.6478 1114 -13 1112.7 -13 1111.09V1054.91Z" fill="#121419"/>
<path d="M354 1054.91C354 1053.3 355.352 1052 357.02 1052H374.98C376.648 1052 378 1053.3 378 1054.91V1111.09C378 1112.7 376.648 1114 374.98 1114H357.02C355.352 1114 354 1112.7 354 1111.09V1054.91Z" fill="#121419"/>
<path d="M40 1054.91C40 1053.3 41.2959 1052 42.8944 1052H60.1056C61.7041 1052 63 1053.3 63 1054.91V1111.09C63 1112.7 61.7041 1114 60.1056 1114H42.8944C41.2959 1114 40 1112.7 40 1111.09V1054.91Z" fill="#121419"/>
<path d="M407 1054.91C407 1053.3 408.296 1052 409.894 1052H427.106C428.704 1052 430 1053.3 430 1054.91V1111.09C430 1112.7 428.704 1114 427.106 1114H409.894C408.296 1114 407 1112.7 407 1111.09V1054.91Z" fill="#121419"/>
<path d="M92 1054.91C92 1053.3 93.2959 1052 94.8944 1052H112.106C113.704 1052 115 1053.3 115 1054.91V1111.09C115 1112.7 113.704 1114 112.106 1114H94.8944C93.2959 1114 92 1112.7 92 1111.09V1054.91Z" fill="#121419"/>
<path d="M145 1054.91C145 1053.3 146.296 1052 147.894 1052H165.106C166.704 1052 168 1053.3 168 1054.91V1111.09C168 1112.7 166.704 1114 165.106 1114H147.894C146.296 1114 145 1112.7 145 1111.09V1054.91Z" fill="#121419"/>
<path d="M197 1054.91C197 1053.3 198.296 1052 199.894 1052H217.106C218.704 1052 220 1053.3 220 1054.91V1111.09C220 1112.7 218.704 1114 217.106 1114H199.894C198.296 1114 197 1112.7 197 1111.09V1054.91Z" fill="#121419"/>
<path d="M0.673452 1064.87C0.0641723 1066.38 -2.06417 1066.38 -2.67345 1064.87L-2.77481 1064.62C-2.96395 1064.16 -3.34706 1063.8 -3.82408 1063.64V1063.64C-5.39197 1063.11 -5.39197 1060.89 -3.82408 1060.36V1060.36C-3.34706 1060.2 -2.96395 1059.84 -2.77481 1059.38L-2.67345 1059.13C-2.06417 1057.62 0.0641723 1057.62 0.673452 1059.13L0.774815 1059.38C0.963951 1059.84 1.34706 1060.2 1.82408 1060.36V1060.36C3.39197 1060.89 3.39197 1063.11 1.82408 1063.64V1063.64C1.34706 1063.8 0.963951 1064.16 0.774815 1064.62L0.673452 1064.87Z" fill="#413545"/>
<path d="M0.255088 1064.01C-0.201871 1065.33 -1.79813 1065.33 -2.25509 1064.01L-2.33111 1063.8C-2.47296 1063.39 -2.76029 1063.07 -3.11806 1062.93V1062.93C-4.29398 1062.47 -4.29398 1060.53 -3.11806 1060.07V1060.07C-2.76029 1059.93 -2.47296 1059.61 -2.33111 1059.2L-2.25509 1058.99C-1.79813 1057.67 -0.201871 1057.67 0.255088 1058.99L0.331111 1059.2C0.472963 1059.61 0.760294 1059.93 1.11806 1060.07V1060.07C2.29398 1060.53 2.29398 1062.47 1.11806 1062.93V1062.93C0.760294 1063.07 0.472963 1063.39 0.331111 1063.8L0.255088 1064.01Z" fill="#505050"/>
<path d="M52.6735 1064.87C52.0642 1066.38 49.9358 1066.38 49.3265 1064.87L49.2252 1064.62C49.036 1064.16 48.6529 1063.8 48.1759 1063.64V1063.64C46.608 1063.11 46.608 1060.89 48.1759 1060.36V1060.36C48.6529 1060.2 49.036 1059.84 49.2252 1059.38L49.3265 1059.13C49.9358 1057.62 52.0642 1057.62 52.6735 1059.13L52.7748 1059.38C52.964 1059.84 53.3471 1060.2 53.8241 1060.36V1060.36C55.392 1060.89 55.392 1063.11 53.8241 1063.64V1063.64C53.3471 1063.8 52.964 1064.16 52.7748 1064.62L52.6735 1064.87Z" fill="#413545"/>
<path d="M52.9643 1064.01C52.4312 1065.33 50.5688 1065.33 50.0357 1064.01L49.947 1063.8C49.7815 1063.39 49.4463 1063.07 49.0289 1062.93V1062.93C47.657 1062.47 47.657 1060.53 49.0289 1060.07V1060.07C49.4463 1059.93 49.7815 1059.61 49.947 1059.2L50.0357 1058.99C50.5688 1057.67 52.4312 1057.67 52.9643 1058.99L53.053 1059.2C53.2185 1059.61 53.5537 1059.93 53.9711 1060.07V1060.07C55.343 1060.53 55.343 1062.47 53.9711 1062.93V1062.93C53.5537 1063.07 53.2185 1063.39 53.053 1063.8L52.9643 1064.01Z" fill="#505050"/>
<path d="M105.383 1064.87C104.697 1066.38 102.303 1066.38 101.617 1064.87L101.503 1064.62C101.291 1064.16 100.86 1063.8 100.323 1063.64V1063.64C98.559 1063.11 98.559 1060.89 100.323 1060.36V1060.36C100.86 1060.2 101.291 1059.84 101.503 1059.38L101.617 1059.13C102.303 1057.62 104.697 1057.62 105.383 1059.13L105.497 1059.38C105.709 1059.84 106.14 1060.2 106.677 1060.36V1060.36C108.441 1060.89 108.441 1063.11 106.677 1063.64V1063.64C106.14 1063.8 105.709 1064.16 105.497 1064.62L105.383 1064.87Z" fill="#413545"/>
<path d="M104.964 1064.01C104.431 1065.33 102.569 1065.33 102.036 1064.01L101.947 1063.8C101.782 1063.39 101.446 1063.07 101.029 1062.93V1062.93C99.657 1062.47 99.657 1060.53 101.029 1060.07V1060.07C101.446 1059.93 101.782 1059.61 101.947 1059.2L102.036 1058.99C102.569 1057.67 104.431 1057.67 104.964 1058.99L105.053 1059.2C105.218 1059.61 105.554 1059.93 105.971 1060.07V1060.07C107.343 1060.53 107.343 1062.47 105.971 1062.93V1062.93C105.554 1063.07 105.218 1063.39 105.053 1063.8L104.964 1064.01Z" fill="#505050"/>
<path d="M158.383 1064.87C157.697 1066.38 155.303 1066.38 154.617 1064.87L154.503 1064.62C154.291 1064.16 153.86 1063.8 153.323 1063.64V1063.64C151.559 1063.11 151.559 1060.89 153.323 1060.36V1060.36C153.86 1060.2 154.291 1059.84 154.503 1059.38L154.617 1059.13C155.303 1057.62 157.697 1057.62 158.383 1059.13L158.497 1059.38C158.709 1059.84 159.14 1060.2 159.677 1060.36V1060.36C161.441 1060.89 161.441 1063.11 159.677 1063.64V1063.64C159.14 1063.8 158.709 1064.16 158.497 1064.62L158.383 1064.87Z" fill="#413545"/>
<path d="M157.964 1064.01C157.431 1065.33 155.569 1065.33 155.036 1064.01L154.947 1063.8C154.782 1063.39 154.446 1063.07 154.029 1062.93V1062.93C152.657 1062.47 152.657 1060.53 154.029 1060.07V1060.07C154.446 1059.93 154.782 1059.61 154.947 1059.2L155.036 1058.99C155.569 1057.67 157.431 1057.67 157.964 1058.99L158.053 1059.2C158.218 1059.61 158.554 1059.93 158.971 1060.07V1060.07C160.343 1060.53 160.343 1062.47 158.971 1062.93V1062.93C158.554 1063.07 158.218 1063.39 158.053 1063.8L157.964 1064.01Z" fill="#505050"/>
<path d="M210.383 1064.87C209.697 1066.38 207.303 1066.38 206.617 1064.87L206.503 1064.62C206.291 1064.16 205.86 1063.8 205.323 1063.64V1063.64C203.559 1063.11 203.559 1060.89 205.323 1060.36V1060.36C205.86 1060.2 206.291 1059.84 206.503 1059.38L206.617 1059.13C207.303 1057.62 209.697 1057.62 210.383 1059.13L210.497 1059.38C210.709 1059.84 211.14 1060.2 211.677 1060.36V1060.36C213.441 1060.89 213.441 1063.11 211.677 1063.64V1063.64C211.14 1063.8 210.709 1064.16 210.497 1064.62L210.383 1064.87Z" fill="#413545"/>
<path d="M209.964 1064.01C209.431 1065.33 207.569 1065.33 207.036 1064.01L206.947 1063.8C206.782 1063.39 206.446 1063.07 206.029 1062.93V1062.93C204.657 1062.47 204.657 1060.53 206.029 1060.07V1060.07C206.446 1059.93 206.782 1059.61 206.947 1059.2L207.036 1058.99C207.569 1057.67 209.431 1057.67 209.964 1058.99L210.053 1059.2C210.218 1059.61 210.554 1059.93 210.971 1060.07V1060.07C212.343 1060.53 212.343 1062.47 210.971 1062.93V1062.93C210.554 1063.07 210.218 1063.39 210.053 1063.8L209.964 1064.01Z" fill="#505050"/>
<path d="M262.673 1064.87C262.064 1066.38 259.936 1066.38 259.327 1064.87L259.225 1064.62C259.036 1064.16 258.653 1063.8 258.176 1063.64V1063.64C256.608 1063.11 256.608 1060.89 258.176 1060.36V1060.36C258.653 1060.2 259.036 1059.84 259.225 1059.38L259.327 1059.13C259.936 1057.62 262.064 1057.62 262.673 1059.13L262.775 1059.38C262.964 1059.84 263.347 1060.2 263.824 1060.36V1060.36C265.392 1060.89 265.392 1063.11 263.824 1063.64V1063.64C263.347 1063.8 262.964 1064.16 262.775 1064.62L262.673 1064.87Z" fill="#413545"/>
<path d="M262.255 1064.01C261.798 1065.33 260.202 1065.33 259.745 1064.01L259.669 1063.8C259.527 1063.39 259.24 1063.07 258.882 1062.93V1062.93C257.706 1062.47 257.706 1060.53 258.882 1060.07V1060.07C259.24 1059.93 259.527 1059.61 259.669 1059.2L259.745 1058.99C260.202 1057.67 261.798 1057.67 262.255 1058.99L262.331 1059.2C262.473 1059.61 262.76 1059.93 263.118 1060.07V1060.07C264.294 1060.53 264.294 1062.47 263.118 1062.93V1062.93C262.76 1063.07 262.473 1063.39 262.331 1063.8L262.255 1064.01Z" fill="#505050"/>
<path d="M315.383 1064.87C314.697 1066.38 312.303 1066.38 311.617 1064.87L311.503 1064.62C311.291 1064.16 310.86 1063.8 310.323 1063.64V1063.64C308.559 1063.11 308.559 1060.89 310.323 1060.36V1060.36C310.86 1060.2 311.291 1059.84 311.503 1059.38L311.617 1059.13C312.303 1057.62 314.697 1057.62 315.383 1059.13L315.497 1059.38C315.709 1059.84 316.14 1060.2 316.677 1060.36V1060.36C318.441 1060.89 318.441 1063.11 316.677 1063.64V1063.64C316.14 1063.8 315.709 1064.16 315.497 1064.62L315.383 1064.87Z" fill="#413545"/>
<path d="M314.964 1064.01C314.431 1065.33 312.569 1065.33 312.036 1064.01L311.947 1063.8C311.782 1063.39 311.446 1063.07 311.029 1062.93V1062.93C309.657 1062.47 309.657 1060.53 311.029 1060.07V1060.07C311.446 1059.93 311.782 1059.61 311.947 1059.2L312.036 1058.99C312.569 1057.67 314.431 1057.67 314.964 1058.99L315.053 1059.2C315.218 1059.61 315.554 1059.93 315.971 1060.07V1060.07C317.343 1060.53 317.343 1062.47 315.971 1062.93V1062.93C315.554 1063.07 315.218 1063.39 315.053 1063.8L314.964 1064.01Z" fill="#505050"/>
<path d="M368.383 1064.87C367.697 1066.38 365.303 1066.38 364.617 1064.87L364.503 1064.62C364.291 1064.16 363.86 1063.8 363.323 1063.64V1063.64C361.559 1063.11 361.559 1060.89 363.323 1060.36V1060.36C363.86 1060.2 364.291 1059.84 364.503 1059.38L364.617 1059.13C365.303 1057.62 367.697 1057.62 368.383 1059.13L368.497 1059.38C368.709 1059.84 369.14 1060.2 369.677 1060.36V1060.36C371.441 1060.89 371.441 1063.11 369.677 1063.64V1063.64C369.14 1063.8 368.709 1064.16 368.497 1064.62L368.383 1064.87Z" fill="#413545"/>
<path d="M367.964 1064.01C367.431 1065.33 365.569 1065.33 365.036 1064.01L364.947 1063.8C364.782 1063.39 364.446 1063.07 364.029 1062.93V1062.93C362.657 1062.47 362.657 1060.53 364.029 1060.07V1060.07C364.446 1059.93 364.782 1059.61 364.947 1059.2L365.036 1058.99C365.569 1057.67 367.431 1057.67 367.964 1058.99L368.053 1059.2C368.218 1059.61 368.554 1059.93 368.971 1060.07V1060.07C370.343 1060.53 370.343 1062.47 368.971 1062.93V1062.93C368.554 1063.07 368.218 1063.39 368.053 1063.8L367.964 1064.01Z" fill="#505050"/>
<path d="M420.383 1064.87C419.697 1066.38 417.303 1066.38 416.617 1064.87L416.503 1064.62C416.291 1064.16 415.86 1063.8 415.323 1063.64V1063.64C413.559 1063.11 413.559 1060.89 415.323 1060.36V1060.36C415.86 1060.2 416.291 1059.84 416.503 1059.38L416.617 1059.13C417.303 1057.62 419.697 1057.62 420.383 1059.13L420.497 1059.38C420.709 1059.84 421.14 1060.2 421.677 1060.36V1060.36C423.441 1060.89 423.441 1063.11 421.677 1063.64V1063.64C421.14 1063.8 420.709 1064.16 420.497 1064.62L420.383 1064.87Z" fill="#413545"/>
<path d="M2 943.5C2 944.328 0.432997 945 -1.5 945C-3.433 945 -5 944.328 -5 943.5C-5 942.672 -3.433 942 -1.5 942C0.432997 942 2 942.672 2 943.5Z" fill="#FFD9B5"/>
<path d="M74 943.5C74 944.328 72.433 945 70.5 945C68.567 945 67 944.328 67 943.5C67 942.672 68.567 942 70.5 942C72.433 942 74 942.672 74 943.5Z" fill="#FFD9B5"/>
<path d="M147 943.5C147 944.328 145.209 945 143 945C140.791 945 139 944.328 139 943.5C139 942.672 140.791 942 143 942C145.209 942 147 942.672 147 943.5Z" fill="#FFD9B5"/>
<path d="M2 949.5C2 950.328 0.432997 951 -1.5 951C-3.433 951 -5 950.328 -5 949.5C-5 948.672 -3.433 948 -1.5 948C0.432997 948 2 948.672 2 949.5Z" fill="#FFD9B5"/>
<path d="M74 949.5C74 950.328 72.433 951 70.5 951C68.567 951 67 950.328 67 949.5C67 948.672 68.567 948 70.5 948C72.433 948 74 948.672 74 949.5Z" fill="#FFD9B5"/>
<path d="M147 949.5C147 950.328 145.209 951 143 951C140.791 951 139 950.328 139 949.5C139 948.672 140.791 948 143 948C145.209 948 147 948.672 147 949.5Z" fill="#FFD9B5"/>
<path d="M16 943.5C16 944.328 14.433 945 12.5 945C10.567 945 9 944.328 9 943.5C9 942.672 10.567 942 12.5 942C14.433 942 16 942.672 16 943.5Z" fill="#FFD9B5"/>
<path d="M89 943.5C89 944.328 87.433 945 85.5 945C83.567 945 82 944.328 82 943.5C82 942.672 83.567 942 85.5 942C87.433 942 89 942.672 89 943.5Z" fill="#FFD9B5"/>
<path d="M161 943.5C161 944.328 159.433 945 157.5 945C155.567 945 154 944.328 154 943.5C154 942.672 155.567 942 157.5 942C159.433 942 161 942.672 161 943.5Z" fill="#FFD9B5"/>
<path d="M16 949.5C16 950.328 14.433 951 12.5 951C10.567 951 9 950.328 9 949.5C9 948.672 10.567 948 12.5 948C14.433 948 16 948.672 16 949.5Z" fill="#FFD9B5"/>
<path d="M89 949.5C89 950.328 87.433 951 85.5 951C83.567 951 82 950.328 82 949.5C82 948.672 83.567 948 85.5 948C87.433 948 89 948.672 89 949.5Z" fill="#FFD9B5"/>
<path d="M161 949.5C161 950.328 159.433 951 157.5 951C155.567 951 154 950.328 154 949.5C154 948.672 155.567 948 157.5 948C159.433 948 161 948.672 161 949.5Z" fill="#FFD9B5"/>
<path d="M31 943.5C31 944.328 29.433 945 27.5 945C25.567 945 24 944.328 24 943.5C24 942.672 25.567 942 27.5 942C29.433 942 31 942.672 31 943.5Z" fill="#FFD9B5"/>
<path d="M103 943.5C103 944.328 101.433 945 99.5 945C97.567 945 96 944.328 96 943.5C96 942.672 97.567 942 99.5 942C101.433 942 103 942.672 103 943.5Z" fill="#FFD9B5"/>
<path d="M176 943.5C176 944.328 174.433 945 172.5 945C170.567 945 169 944.328 169 943.5C169 942.672 170.567 942 172.5 942C174.433 942 176 942.672 176 943.5Z" fill="#FFD9B5"/>
<path d="M31 949.5C31 950.328 29.433 951 27.5 951C25.567 951 24 950.328 24 949.5C24 948.672 25.567 948 27.5 948C29.433 948 31 948.672 31 949.5Z" fill="#FFD9B5"/>
<path d="M103 949.5C103 950.328 101.433 951 99.5 951C97.567 951 96 950.328 96 949.5C96 948.672 97.567 948 99.5 948C101.433 948 103 948.672 103 949.5Z" fill="#FFD9B5"/>
<path d="M176 949.5C176 950.328 174.433 951 172.5 951C170.567 951 169 950.328 169 949.5C169 948.672 170.567 948 172.5 948C174.433 948 176 948.672 176 949.5Z" fill="#FFD9B5"/>
<path d="M45 943.5C45 944.328 43.433 945 41.5 945C39.567 945 38 944.328 38 943.5C38 942.672 39.567 942 41.5 942C43.433 942 45 942.672 45 943.5Z" fill="#FFD9B5"/>
<path d="M118 943.5C118 944.328 116.433 945 114.5 945C112.567 945 111 944.328 111 943.5C111 942.672 112.567 942 114.5 942C116.433 942 118 942.672 118 943.5Z" fill="#FFD9B5"/>
<path d="M190 943.5C190 944.328 188.433 945 186.5 945C184.567 945 183 944.328 183 943.5C183 942.672 184.567 942 186.5 942C188.433 942 190 942.672 190 943.5Z" fill="#FFD9B5"/>
<path d="M45 949.5C45 950.328 43.433 951 41.5 951C39.567 951 38 950.328 38 949.5C38 948.672 39.567 948 41.5 948C43.433 948 45 948.672 45 949.5Z" fill="#FFD9B5"/>
<path d="M118 949.5C118 950.328 116.433 951 114.5 951C112.567 951 111 950.328 111 949.5C111 948.672 112.567 948 114.5 948C116.433 948 118 948.672 118 949.5Z" fill="#FFD9B5"/>
<path d="M190 949.5C190 950.328 188.433 951 186.5 951C184.567 951 183 950.328 183 949.5C183 948.672 184.567 948 186.5 948C188.433 948 190 948.672 190 949.5Z" fill="#FFD9B5"/>
<path d="M60 943.5C60 944.328 58.433 945 56.5 945C54.567 945 53 944.328 53 943.5C53 942.672 54.567 942 56.5 942C58.433 942 60 942.672 60 943.5Z" fill="#FFD9B5"/>
<path d="M132 943.5C132 944.328 130.433 945 128.5 945C126.567 945 125 944.328 125 943.5C125 942.672 126.567 942 128.5 942C130.433 942 132 942.672 132 943.5Z" fill="#FFD9B5"/>
<path d="M205 943.5C205 944.328 203.433 945 201.5 945C199.567 945 198 944.328 198 943.5C198 942.672 199.567 942 201.5 942C203.433 942 205 942.672 205 943.5Z" fill="#FFD9B5"/>
<path d="M60 949.5C60 950.328 58.433 951 56.5 951C54.567 951 53 950.328 53 949.5C53 948.672 54.567 948 56.5 948C58.433 948 60 948.672 60 949.5Z" fill="#FFD9B5"/>
<path d="M132 949.5C132 950.328 130.433 951 128.5 951C126.567 951 125 950.328 125 949.5C125 948.672 126.567 948 128.5 948C130.433 948 132 948.672 132 949.5Z" fill="#FFD9B5"/>
<path d="M205 949.5C205 950.328 203.433 951 201.5 951C199.567 951 198 950.328 198 949.5C198 948.672 199.567 948 201.5 948C203.433 948 205 948.672 205 949.5Z" fill="#FFD9B5"/>
<path d="M220 943.5C220 944.328 218.433 945 216.5 945C214.567 945 213 944.328 213 943.5C213 942.672 214.567 942 216.5 942C218.433 942 220 942.672 220 943.5Z" fill="#FFD9B5"/>
<path d="M292 943.5C292 944.328 290.433 945 288.5 945C286.567 945 285 944.328 285 943.5C285 942.672 286.567 942 288.5 942C290.433 942 292 942.672 292 943.5Z" fill="#FFD9B5"/>
<path d="M365 943.5C365 944.328 363.433 945 361.5 945C359.567 945 358 944.328 358 943.5C358 942.672 359.567 942 361.5 942C363.433 942 365 942.672 365 943.5Z" fill="#FFD9B5"/>
<path d="M220 949.5C220 950.328 218.433 951 216.5 951C214.567 951 213 950.328 213 949.5C213 948.672 214.567 948 216.5 948C218.433 948 220 948.672 220 949.5Z" fill="#FFD9B5"/>
<path d="M292 949.5C292 950.328 290.433 951 288.5 951C286.567 951 285 950.328 285 949.5C285 948.672 286.567 948 288.5 948C290.433 948 292 948.672 292 949.5Z" fill="#FFD9B5"/>
<path d="M365 949.5C365 950.328 363.433 951 361.5 951C359.567 951 358 950.328 358 949.5C358 948.672 359.567 948 361.5 948C363.433 948 365 948.672 365 949.5Z" fill="#FFD9B5"/>
<path d="M234 943.5C234 944.328 232.433 945 230.5 945C228.567 945 227 944.328 227 943.5C227 942.672 228.567 942 230.5 942C232.433 942 234 942.672 234 943.5Z" fill="#FFD9B5"/>
<path d="M307 943.5C307 944.328 305.433 945 303.5 945C301.567 945 300 944.328 300 943.5C300 942.672 301.567 942 303.5 942C305.433 942 307 942.672 307 943.5Z" fill="#FFD9B5"/>
<path d="M379 943.5C379 944.328 377.433 945 375.5 945C373.567 945 372 944.328 372 943.5C372 942.672 373.567 942 375.5 942C377.433 942 379 942.672 379 943.5Z" fill="#FFD9B5"/>
<path d="M234 949.5C234 950.328 232.433 951 230.5 951C228.567 951 227 950.328 227 949.5C227 948.672 228.567 948 230.5 948C232.433 948 234 948.672 234 949.5Z" fill="#FFD9B5"/>
<path d="M307 949.5C307 950.328 305.433 951 303.5 951C301.567 951 300 950.328 300 949.5C300 948.672 301.567 948 303.5 948C305.433 948 307 948.672 307 949.5Z" fill="#FFD9B5"/>
<path d="M379 949.5C379 950.328 377.433 951 375.5 951C373.567 951 372 950.328 372 949.5C372 948.672 373.567 948 375.5 948C377.433 948 379 948.672 379 949.5Z" fill="#FFD9B5"/>
<path d="M249 943.5C249 944.328 247.433 945 245.5 945C243.567 945 242 944.328 242 943.5C242 942.672 243.567 942 245.5 942C247.433 942 249 942.672 249 943.5Z" fill="#FFD9B5"/>
<path d="M321 943.5C321 944.328 319.433 945 317.5 945C315.567 945 314 944.328 314 943.5C314 942.672 315.567 942 317.5 942C319.433 942 321 942.672 321 943.5Z" fill="#FFD9B5"/>
<path d="M394 943.5C394 944.328 392.433 945 390.5 945C388.567 945 387 944.328 387 943.5C387 942.672 388.567 942 390.5 942C392.433 942 394 942.672 394 943.5Z" fill="#FFD9B5"/>
<path d="M249 949.5C249 950.328 247.433 951 245.5 951C243.567 951 242 950.328 242 949.5C242 948.672 243.567 948 245.5 948C247.433 948 249 948.672 249 949.5Z" fill="#FFD9B5"/>
<path d="M321 949.5C321 950.328 319.433 951 317.5 951C315.567 951 314 950.328 314 949.5C314 948.672 315.567 948 317.5 948C319.433 948 321 948.672 321 949.5Z" fill="#FFD9B5"/>
<path d="M394 949.5C394 950.328 392.433 951 390.5 951C388.567 951 387 950.328 387 949.5C387 948.672 388.567 948 390.5 948C392.433 948 394 948.672 394 949.5Z" fill="#FFD9B5"/>
<path d="M263 943.5C263 944.328 261.433 945 259.5 945C257.567 945 256 944.328 256 943.5C256 942.672 257.567 942 259.5 942C261.433 942 263 942.672 263 943.5Z" fill="#FFD9B5"/>
<path d="M336 943.5C336 944.328 334.433 945 332.5 945C330.567 945 329 944.328 329 943.5C329 942.672 330.567 942 332.5 942C334.433 942 336 942.672 336 943.5Z" fill="#FFD9B5"/>
<path d="M408 943.5C408 944.328 406.433 945 404.5 945C402.567 945 401 944.328 401 943.5C401 942.672 402.567 942 404.5 942C406.433 942 408 942.672 408 943.5Z" fill="#FFD9B5"/>
<path d="M263 949.5C263 950.328 261.433 951 259.5 951C257.567 951 256 950.328 256 949.5C256 948.672 257.567 948 259.5 948C261.433 948 263 948.672 263 949.5Z" fill="#FFD9B5"/>
<path d="M336 949.5C336 950.328 334.433 951 332.5 951C330.567 951 329 950.328 329 949.5C329 948.672 330.567 948 332.5 948C334.433 948 336 948.672 336 949.5Z" fill="#FFD9B5"/>
<path d="M408 949.5C408 950.328 406.433 951 404.5 951C402.567 951 401 950.328 401 949.5C401 948.672 402.567 948 404.5 948C406.433 948 408 948.672 408 949.5Z" fill="#FFD9B5"/>
<path d="M278 943.5C278 944.328 276.433 945 274.5 945C272.567 945 271 944.328 271 943.5C271 942.672 272.567 942 274.5 942C276.433 942 278 942.672 278 943.5Z" fill="#FFD9B5"/>
<path d="M350 943.5C350 944.328 348.433 945 346.5 945C344.567 945 343 944.328 343 943.5C343 942.672 344.567 942 346.5 942C348.433 942 350 942.672 350 943.5Z" fill="#FFD9B5"/>
<path d="M278 949.5C278 950.328 276.433 951 274.5 951C272.567 951 271 950.328 271 949.5C271 948.672 272.567 948 274.5 948C276.433 948 278 948.672 278 949.5Z" fill="#FFD9B5"/>
<path d="M350 949.5C350 950.328 348.433 951 346.5 951C344.567 951 343 950.328 343 949.5C343 948.672 344.567 948 346.5 948C348.433 948 350 948.672 350 949.5Z" fill="#FFD9B5"/>
<path d="M1 954.5C1 955.328 -0.567003 956 -2.5 956C-4.433 956 -6 955.328 -6 954.5C-6 953.672 -4.433 953 -2.5 953C-0.567003 953 1 953.672 1 954.5Z" fill="#FFD9B5"/>
<path d="M73 954.5C73 955.328 71.433 956 69.5 956C67.567 956 66 955.328 66 954.5C66 953.672 67.567 953 69.5 953C71.433 953 73 953.672 73 954.5Z" fill="#FFD9B5"/>
<path d="M146 954.5C146 955.328 144.433 956 142.5 956C140.567 956 139 955.328 139 954.5C139 953.672 140.567 953 142.5 953C144.433 953 146 953.672 146 954.5Z" fill="#FFD9B5"/>
<path d="M16 954.5C16 955.328 14.2091 956 12 956C9.79086 956 8 955.328 8 954.5C8 953.672 9.79086 953 12 953C14.2091 953 16 953.672 16 954.5Z" fill="#FFD9B5"/>
<path d="M88 954.5C88 955.328 86.433 956 84.5 956C82.567 956 81 955.328 81 954.5C81 953.672 82.567 953 84.5 953C86.433 953 88 953.672 88 954.5Z" fill="#FFD9B5"/>
<path d="M161 954.5C161 955.328 159.209 956 157 956C154.791 956 153 955.328 153 954.5C153 953.672 154.791 953 157 953C159.209 953 161 953.672 161 954.5Z" fill="#FFD9B5"/>
<path d="M30 954.5C30 955.328 28.433 956 26.5 956C24.567 956 23 955.328 23 954.5C23 953.672 24.567 953 26.5 953C28.433 953 30 953.672 30 954.5Z" fill="#FFD9B5"/>
<path d="M103 954.5C103 955.328 101.209 956 99 956C96.7909 956 95 955.328 95 954.5C95 953.672 96.7909 953 99 953C101.209 953 103 953.672 103 954.5Z" fill="#FFD9B5"/>
<path d="M175 954.5C175 955.328 173.433 956 171.5 956C169.567 956 168 955.328 168 954.5C168 953.672 169.567 953 171.5 953C173.433 953 175 953.672 175 954.5Z" fill="#FFD9B5"/>
<path d="M45 954.5C45 955.328 43.433 956 41.5 956C39.567 956 38 955.328 38 954.5C38 953.672 39.567 953 41.5 953C43.433 953 45 953.672 45 954.5Z" fill="#FFD9B5"/>
<path d="M117 954.5C117 955.328 115.433 956 113.5 956C111.567 956 110 955.328 110 954.5C110 953.672 111.567 953 113.5 953C115.433 953 117 953.672 117 954.5Z" fill="#FFD9B5"/>
<path d="M190 954.5C190 955.328 188.433 956 186.5 956C184.567 956 183 955.328 183 954.5C183 953.672 184.567 953 186.5 953C188.433 953 190 953.672 190 954.5Z" fill="#FFD9B5"/>
<path d="M59 954.5C59 955.328 57.433 956 55.5 956C53.567 956 52 955.328 52 954.5C52 953.672 53.567 953 55.5 953C57.433 953 59 953.672 59 954.5Z" fill="#FFD9B5"/>
<path d="M132 954.5C132 955.328 130.433 956 128.5 956C126.567 956 125 955.328 125 954.5C125 953.672 126.567 953 128.5 953C130.433 953 132 953.672 132 954.5Z" fill="#FFD9B5"/>
<path d="M204 954.5C204 955.328 202.433 956 200.5 956C198.567 956 197 955.328 197 954.5C197 953.672 198.567 953 200.5 953C202.433 953 204 953.672 204 954.5Z" fill="#FFD9B5"/>
<path d="M219 954.5C219 955.328 217.433 956 215.5 956C213.567 956 212 955.328 212 954.5C212 953.672 213.567 953 215.5 953C217.433 953 219 953.672 219 954.5Z" fill="#FFD9B5"/>
<path d="M292 954.5C292 955.328 290.209 956 288 956C285.791 956 284 955.328 284 954.5C284 953.672 285.791 953 288 953C290.209 953 292 953.672 292 954.5Z" fill="#FFD9B5"/>
<path d="M364 954.5C364 955.328 362.433 956 360.5 956C358.567 956 357 955.328 357 954.5C357 953.672 358.567 953 360.5 953C362.433 953 364 953.672 364 954.5Z" fill="#FFD9B5"/>
<path d="M234 954.5C234 955.328 232.433 956 230.5 956C228.567 956 227 955.328 227 954.5C227 953.672 228.567 953 230.5 953C232.433 953 234 953.672 234 954.5Z" fill="#FFD9B5"/>
<path d="M306 954.5C306 955.328 304.433 956 302.5 956C300.567 956 299 955.328 299 954.5C299 953.672 300.567 953 302.5 953C304.433 953 306 953.672 306 954.5Z" fill="#FFD9B5"/>
<path d="M379 954.5C379 955.328 377.209 956 375 956C372.791 956 371 955.328 371 954.5C371 953.672 372.791 953 375 953C377.209 953 379 953.672 379 954.5Z" fill="#FFD9B5"/>
<path d="M248 954.5C248 955.328 246.433 956 244.5 956C242.567 956 241 955.328 241 954.5C241 953.672 242.567 953 244.5 953C246.433 953 248 953.672 248 954.5Z" fill="#FFD9B5"/>
<path d="M321 954.5C321 955.328 319.433 956 317.5 956C315.567 956 314 955.328 314 954.5C314 953.672 315.567 953 317.5 953C319.433 953 321 953.672 321 954.5Z" fill="#FFD9B5"/>
<path d="M393 954.5C393 955.328 391.433 956 389.5 956C387.567 956 386 955.328 386 954.5C386 953.672 387.567 953 389.5 953C391.433 953 393 953.672 393 954.5Z" fill="#FFD9B5"/>
<path d="M263 954.5C263 955.328 261.433 956 259.5 956C257.567 956 256 955.328 256 954.5C256 953.672 257.567 953 259.5 953C261.433 953 263 953.672 263 954.5Z" fill="#FFD9B5"/>
<path d="M335 954.5C335 955.328 333.433 956 331.5 956C329.567 956 328 955.328 328 954.5C328 953.672 329.567 953 331.5 953C333.433 953 335 953.672 335 954.5Z" fill="#FFD9B5"/>
<path d="M408 954.5C408 955.328 406.433 956 404.5 956C402.567 956 401 955.328 401 954.5C401 953.672 402.567 953 404.5 953C406.433 953 408 953.672 408 954.5Z" fill="#FFD9B5"/>
<path d="M277 954.5C277 955.328 275.433 956 273.5 956C271.567 956 270 955.328 270 954.5C270 953.672 271.567 953 273.5 953C275.433 953 277 953.672 277 954.5Z" fill="#FFD9B5"/>
<path d="M350 954.5C350 955.328 348.433 956 346.5 956C344.567 956 343 955.328 343 954.5C343 953.672 344.567 953 346.5 953C348.433 953 350 953.672 350 954.5Z" fill="#FFD9B5"/>
<path d="M2 1137C2 1138.1 0.432997 1139 -1.5 1139C-3.433 1139 -5 1138.1 -5 1137C-5 1135.9 -3.433 1135 -1.5 1135C0.432997 1135 2 1135.9 2 1137Z" fill="#FFD9B5"/>
<path d="M74 1137C74 1138.1 72.433 1139 70.5 1139C68.567 1139 67 1138.1 67 1137C67 1135.9 68.567 1135 70.5 1135C72.433 1135 74 1135.9 74 1137Z" fill="#FFD9B5"/>
<path d="M147 1137C147 1138.1 145.209 1139 143 1139C140.791 1139 139 1138.1 139 1137C139 1135.9 140.791 1135 143 1135C145.209 1135 147 1135.9 147 1137Z" fill="#FFD9B5"/>
<path d="M2 1146C2 1147.1 0.432997 1148 -1.5 1148C-3.433 1148 -5 1147.1 -5 1146C-5 1144.9 -3.433 1144 -1.5 1144C0.432997 1144 2 1144.9 2 1146Z" fill="#FFD9B5"/>
<path d="M74 1146C74 1147.1 72.433 1148 70.5 1148C68.567 1148 67 1147.1 67 1146C67 1144.9 68.567 1144 70.5 1144C72.433 1144 74 1144.9 74 1146Z" fill="#FFD9B5"/>
<path d="M147 1146C147 1147.1 145.209 1148 143 1148C140.791 1148 139 1147.1 139 1146C139 1144.9 140.791 1144 143 1144C145.209 1144 147 1144.9 147 1146Z" fill="#FFD9B5"/>
<path d="M16 1137C16 1138.1 14.433 1139 12.5 1139C10.567 1139 9 1138.1 9 1137C9 1135.9 10.567 1135 12.5 1135C14.433 1135 16 1135.9 16 1137Z" fill="#FFD9B5"/>
<path d="M89 1137C89 1138.1 87.433 1139 85.5 1139C83.567 1139 82 1138.1 82 1137C82 1135.9 83.567 1135 85.5 1135C87.433 1135 89 1135.9 89 1137Z" fill="#FFD9B5"/>
<path d="M161 1137C161 1138.1 159.433 1139 157.5 1139C155.567 1139 154 1138.1 154 1137C154 1135.9 155.567 1135 157.5 1135C159.433 1135 161 1135.9 161 1137Z" fill="#FFD9B5"/>
<path d="M16 1146C16 1147.1 14.433 1148 12.5 1148C10.567 1148 9 1147.1 9 1146C9 1144.9 10.567 1144 12.5 1144C14.433 1144 16 1144.9 16 1146Z" fill="#FFD9B5"/>
<path d="M89 1146C89 1147.1 87.433 1148 85.5 1148C83.567 1148 82 1147.1 82 1146C82 1144.9 83.567 1144 85.5 1144C87.433 1144 89 1144.9 89 1146Z" fill="#FFD9B5"/>
<path d="M161 1146C161 1147.1 159.433 1148 157.5 1148C155.567 1148 154 1147.1 154 1146C154 1144.9 155.567 1144 157.5 1144C159.433 1144 161 1144.9 161 1146Z" fill="#FFD9B5"/>
<path d="M31 1137C31 1138.1 29.433 1139 27.5 1139C25.567 1139 24 1138.1 24 1137C24 1135.9 25.567 1135 27.5 1135C29.433 1135 31 1135.9 31 1137Z" fill="#FFD9B5"/>
<path d="M103 1137C103 1138.1 101.433 1139 99.5 1139C97.567 1139 96 1138.1 96 1137C96 1135.9 97.567 1135 99.5 1135C101.433 1135 103 1135.9 103 1137Z" fill="#FFD9B5"/>
<path d="M176 1137C176 1138.1 174.433 1139 172.5 1139C170.567 1139 169 1138.1 169 1137C169 1135.9 170.567 1135 172.5 1135C174.433 1135 176 1135.9 176 1137Z" fill="#FFD9B5"/>
<path d="M31 1146C31 1147.1 29.433 1148 27.5 1148C25.567 1148 24 1147.1 24 1146C24 1144.9 25.567 1144 27.5 1144C29.433 1144 31 1144.9 31 1146Z" fill="#FFD9B5"/>
<path d="M103 1146C103 1147.1 101.433 1148 99.5 1148C97.567 1148 96 1147.1 96 1146C96 1144.9 97.567 1144 99.5 1144C101.433 1144 103 1144.9 103 1146Z" fill="#FFD9B5"/>
<path d="M176 1146C176 1147.1 174.433 1148 172.5 1148C170.567 1148 169 1147.1 169 1146C169 1144.9 170.567 1144 172.5 1144C174.433 1144 176 1144.9 176 1146Z" fill="#FFD9B5"/>
<path d="M45 1137C45 1138.1 43.433 1139 41.5 1139C39.567 1139 38 1138.1 38 1137C38 1135.9 39.567 1135 41.5 1135C43.433 1135 45 1135.9 45 1137Z" fill="#FFD9B5"/>
<path d="M118 1137C118 1138.1 116.433 1139 114.5 1139C112.567 1139 111 1138.1 111 1137C111 1135.9 112.567 1135 114.5 1135C116.433 1135 118 1135.9 118 1137Z" fill="#FFD9B5"/>
<path d="M190 1137C190 1138.1 188.433 1139 186.5 1139C184.567 1139 183 1138.1 183 1137C183 1135.9 184.567 1135 186.5 1135C188.433 1135 190 1135.9 190 1137Z" fill="#FFD9B5"/>
<path d="M45 1146C45 1147.1 43.433 1148 41.5 1148C39.567 1148 38 1147.1 38 1146C38 1144.9 39.567 1144 41.5 1144C43.433 1144 45 1144.9 45 1146Z" fill="#FFD9B5"/>
<path d="M118 1146C118 1147.1 116.433 1148 114.5 1148C112.567 1148 111 1147.1 111 1146C111 1144.9 112.567 1144 114.5 1144C116.433 1144 118 1144.9 118 1146Z" fill="#FFD9B5"/>
<path d="M190 1146C190 1147.1 188.433 1148 186.5 1148C184.567 1148 183 1147.1 183 1146C183 1144.9 184.567 1144 186.5 1144C188.433 1144 190 1144.9 190 1146Z" fill="#FFD9B5"/>
<path d="M60 1137C60 1138.1 58.433 1139 56.5 1139C54.567 1139 53 1138.1 53 1137C53 1135.9 54.567 1135 56.5 1135C58.433 1135 60 1135.9 60 1137Z" fill="#FFD9B5"/>
<path d="M132 1137C132 1138.1 130.433 1139 128.5 1139C126.567 1139 125 1138.1 125 1137C125 1135.9 126.567 1135 128.5 1135C130.433 1135 132 1135.9 132 1137Z" fill="#FFD9B5"/>
<path d="M205 1137C205 1138.1 203.433 1139 201.5 1139C199.567 1139 198 1138.1 198 1137C198 1135.9 199.567 1135 201.5 1135C203.433 1135 205 1135.9 205 1137Z" fill="#FFD9B5"/>
<path d="M60 1146C60 1147.1 58.433 1148 56.5 1148C54.567 1148 53 1147.1 53 1146C53 1144.9 54.567 1144 56.5 1144C58.433 1144 60 1144.9 60 1146Z" fill="#FFD9B5"/>
<path d="M132 1146C132 1147.1 130.433 1148 128.5 1148C126.567 1148 125 1147.1 125 1146C125 1144.9 126.567 1144 128.5 1144C130.433 1144 132 1144.9 132 1146Z" fill="#FFD9B5"/>
<path d="M205 1146C205 1147.1 203.433 1148 201.5 1148C199.567 1148 198 1147.1 198 1146C198 1144.9 199.567 1144 201.5 1144C203.433 1144 205 1144.9 205 1146Z" fill="#FFD9B5"/>
<path d="M220 1137C220 1138.1 218.433 1139 216.5 1139C214.567 1139 213 1138.1 213 1137C213 1135.9 214.567 1135 216.5 1135C218.433 1135 220 1135.9 220 1137Z" fill="#FFD9B5"/>
<path d="M292 1137C292 1138.1 290.433 1139 288.5 1139C286.567 1139 285 1138.1 285 1137C285 1135.9 286.567 1135 288.5 1135C290.433 1135 292 1135.9 292 1137Z" fill="#FFD9B5"/>
<path d="M365 1137C365 1138.1 363.433 1139 361.5 1139C359.567 1139 358 1138.1 358 1137C358 1135.9 359.567 1135 361.5 1135C363.433 1135 365 1135.9 365 1137Z" fill="#FFD9B5"/>
<path d="M220 1146C220 1147.1 218.433 1148 216.5 1148C214.567 1148 213 1147.1 213 1146C213 1144.9 214.567 1144 216.5 1144C218.433 1144 220 1144.9 220 1146Z" fill="#FFD9B5"/>
<path d="M292 1146C292 1147.1 290.433 1148 288.5 1148C286.567 1148 285 1147.1 285 1146C285 1144.9 286.567 1144 288.5 1144C290.433 1144 292 1144.9 292 1146Z" fill="#FFD9B5"/>
<path d="M365 1146C365 1147.1 363.433 1148 361.5 1148C359.567 1148 358 1147.1 358 1146C358 1144.9 359.567 1144 361.5 1144C363.433 1144 365 1144.9 365 1146Z" fill="#FFD9B5"/>
<path d="M234 1137C234 1138.1 232.433 1139 230.5 1139C228.567 1139 227 1138.1 227 1137C227 1135.9 228.567 1135 230.5 1135C232.433 1135 234 1135.9 234 1137Z" fill="#FFD9B5"/>
<path d="M307 1137C307 1138.1 305.433 1139 303.5 1139C301.567 1139 300 1138.1 300 1137C300 1135.9 301.567 1135 303.5 1135C305.433 1135 307 1135.9 307 1137Z" fill="#FFD9B5"/>
<path d="M379 1137C379 1138.1 377.433 1139 375.5 1139C373.567 1139 372 1138.1 372 1137C372 1135.9 373.567 1135 375.5 1135C377.433 1135 379 1135.9 379 1137Z" fill="#FFD9B5"/>
<path d="M234 1146C234 1147.1 232.433 1148 230.5 1148C228.567 1148 227 1147.1 227 1146C227 1144.9 228.567 1144 230.5 1144C232.433 1144 234 1144.9 234 1146Z" fill="#FFD9B5"/>
<path d="M307 1146C307 1147.1 305.433 1148 303.5 1148C301.567 1148 300 1147.1 300 1146C300 1144.9 301.567 1144 303.5 1144C305.433 1144 307 1144.9 307 1146Z" fill="#FFD9B5"/>
<path d="M379 1146C379 1147.1 377.433 1148 375.5 1148C373.567 1148 372 1147.1 372 1146C372 1144.9 373.567 1144 375.5 1144C377.433 1144 379 1144.9 379 1146Z" fill="#FFD9B5"/>
<path d="M249 1137C249 1138.1 247.433 1139 245.5 1139C243.567 1139 242 1138.1 242 1137C242 1135.9 243.567 1135 245.5 1135C247.433 1135 249 1135.9 249 1137Z" fill="#FFD9B5"/>
<path d="M321 1137C321 1138.1 319.433 1139 317.5 1139C315.567 1139 314 1138.1 314 1137C314 1135.9 315.567 1135 317.5 1135C319.433 1135 321 1135.9 321 1137Z" fill="#FFD9B5"/>
<path d="M394 1137C394 1138.1 392.433 1139 390.5 1139C388.567 1139 387 1138.1 387 1137C387 1135.9 388.567 1135 390.5 1135C392.433 1135 394 1135.9 394 1137Z" fill="#FFD9B5"/>
<path d="M249 1146C249 1147.1 247.433 1148 245.5 1148C243.567 1148 242 1147.1 242 1146C242 1144.9 243.567 1144 245.5 1144C247.433 1144 249 1144.9 249 1146Z" fill="#FFD9B5"/>
<path d="M321 1146C321 1147.1 319.433 1148 317.5 1148C315.567 1148 314 1147.1 314 1146C314 1144.9 315.567 1144 317.5 1144C319.433 1144 321 1144.9 321 1146Z" fill="#FFD9B5"/>
<path d="M394 1146C394 1147.1 392.433 1148 390.5 1148C388.567 1148 387 1147.1 387 1146C387 1144.9 388.567 1144 390.5 1144C392.433 1144 394 1144.9 394 1146Z" fill="#FFD9B5"/>
<path d="M263 1137C263 1138.1 261.433 1139 259.5 1139C257.567 1139 256 1138.1 256 1137C256 1135.9 257.567 1135 259.5 1135C261.433 1135 263 1135.9 263 1137Z" fill="#FFD9B5"/>
<path d="M336 1137C336 1138.1 334.433 1139 332.5 1139C330.567 1139 329 1138.1 329 1137C329 1135.9 330.567 1135 332.5 1135C334.433 1135 336 1135.9 336 1137Z" fill="#FFD9B5"/>
<path d="M408 1137C408 1138.1 406.433 1139 404.5 1139C402.567 1139 401 1138.1 401 1137C401 1135.9 402.567 1135 404.5 1135C406.433 1135 408 1135.9 408 1137Z" fill="#FFD9B5"/>
<path d="M263 1146C263 1147.1 261.433 1148 259.5 1148C257.567 1148 256 1147.1 256 1146C256 1144.9 257.567 1144 259.5 1144C261.433 1144 263 1144.9 263 1146Z" fill="#FFD9B5"/>
<path d="M336 1146C336 1147.1 334.433 1148 332.5 1148C330.567 1148 329 1147.1 329 1146C329 1144.9 330.567 1144 332.5 1144C334.433 1144 336 1144.9 336 1146Z" fill="#FFD9B5"/>
<path d="M408 1146C408 1147.1 406.433 1148 404.5 1148C402.567 1148 401 1147.1 401 1146C401 1144.9 402.567 1144 404.5 1144C406.433 1144 408 1144.9 408 1146Z" fill="#FFD9B5"/>
<path d="M278 1137C278 1138.1 276.433 1139 274.5 1139C272.567 1139 271 1138.1 271 1137C271 1135.9 272.567 1135 274.5 1135C276.433 1135 278 1135.9 278 1137Z" fill="#FFD9B5"/>
<path d="M350 1137C350 1138.1 348.433 1139 346.5 1139C344.567 1139 343 1138.1 343 1137C343 1135.9 344.567 1135 346.5 1135C348.433 1135 350 1135.9 350 1137Z" fill="#FFD9B5"/>
<path d="M278 1146C278 1147.1 276.433 1148 274.5 1148C272.567 1148 271 1147.1 271 1146C271 1144.9 272.567 1144 274.5 1144C276.433 1144 278 1144.9 278 1146Z" fill="#FFD9B5"/>
<path d="M350 1146C350 1147.1 348.433 1148 346.5 1148C344.567 1148 343 1147.1 343 1146C343 1144.9 344.567 1144 346.5 1144C348.433 1144 350 1144.9 350 1146Z" fill="#FFD9B5"/>
<path d="M1 1153.5C1 1154.88 -0.567003 1156 -2.5 1156C-4.433 1156 -6 1154.88 -6 1153.5C-6 1152.12 -4.433 1151 -2.5 1151C-0.567003 1151 1 1152.12 1 1153.5Z" fill="#FFD9B5"/>
<path d="M73 1153.5C73 1154.88 71.433 1156 69.5 1156C67.567 1156 66 1154.88 66 1153.5C66 1152.12 67.567 1151 69.5 1151C71.433 1151 73 1152.12 73 1153.5Z" fill="#FFD9B5"/>
<path d="M146 1153.5C146 1154.88 144.433 1156 142.5 1156C140.567 1156 139 1154.88 139 1153.5C139 1152.12 140.567 1151 142.5 1151C144.433 1151 146 1152.12 146 1153.5Z" fill="#FFD9B5"/>
<path d="M16 1153.5C16 1154.88 14.2091 1156 12 1156C9.79086 1156 8 1154.88 8 1153.5C8 1152.12 9.79086 1151 12 1151C14.2091 1151 16 1152.12 16 1153.5Z" fill="#FFD9B5"/>
<path d="M88 1153.5C88 1154.88 86.433 1156 84.5 1156C82.567 1156 81 1154.88 81 1153.5C81 1152.12 82.567 1151 84.5 1151C86.433 1151 88 1152.12 88 1153.5Z" fill="#FFD9B5"/>
<path d="M161 1153.5C161 1154.88 159.209 1156 157 1156C154.791 1156 153 1154.88 153 1153.5C153 1152.12 154.791 1151 157 1151C159.209 1151 161 1152.12 161 1153.5Z" fill="#FFD9B5"/>
<path d="M30 1153.5C30 1154.88 28.433 1156 26.5 1156C24.567 1156 23 1154.88 23 1153.5C23 1152.12 24.567 1151 26.5 1151C28.433 1151 30 1152.12 30 1153.5Z" fill="#FFD9B5"/>
<path d="M103 1153.5C103 1154.88 101.209 1156 99 1156C96.7909 1156 95 1154.88 95 1153.5C95 1152.12 96.7909 1151 99 1151C101.209 1151 103 1152.12 103 1153.5Z" fill="#FFD9B5"/>
<path d="M175 1153.5C175 1154.88 173.433 1156 171.5 1156C169.567 1156 168 1154.88 168 1153.5C168 1152.12 169.567 1151 171.5 1151C173.433 1151 175 1152.12 175 1153.5Z" fill="#FFD9B5"/>
<path d="M45 1153.5C45 1154.88 43.433 1156 41.5 1156C39.567 1156 38 1154.88 38 1153.5C38 1152.12 39.567 1151 41.5 1151C43.433 1151 45 1152.12 45 1153.5Z" fill="#FFD9B5"/>
<path d="M117 1153.5C117 1154.88 115.433 1156 113.5 1156C111.567 1156 110 1154.88 110 1153.5C110 1152.12 111.567 1151 113.5 1151C115.433 1151 117 1152.12 117 1153.5Z" fill="#FFD9B5"/>
<path d="M190 1153.5C190 1154.88 188.433 1156 186.5 1156C184.567 1156 183 1154.88 183 1153.5C183 1152.12 184.567 1151 186.5 1151C188.433 1151 190 1152.12 190 1153.5Z" fill="#FFD9B5"/>
<path d="M59 1153.5C59 1154.88 57.433 1156 55.5 1156C53.567 1156 52 1154.88 52 1153.5C52 1152.12 53.567 1151 55.5 1151C57.433 1151 59 1152.12 59 1153.5Z" fill="#FFD9B5"/>
<path d="M132 1153.5C132 1154.88 130.433 1156 128.5 1156C126.567 1156 125 1154.88 125 1153.5C125 1152.12 126.567 1151 128.5 1151C130.433 1151 132 1152.12 132 1153.5Z" fill="#FFD9B5"/>
<path d="M204 1153.5C204 1154.88 202.433 1156 200.5 1156C198.567 1156 197 1154.88 197 1153.5C197 1152.12 198.567 1151 200.5 1151C202.433 1151 204 1152.12 204 1153.5Z" fill="#FFD9B5"/>
<path d="M219 1153.5C219 1154.88 217.433 1156 215.5 1156C213.567 1156 212 1154.88 212 1153.5C212 1152.12 213.567 1151 215.5 1151C217.433 1151 219 1152.12 219 1153.5Z" fill="#FFD9B5"/>
<path d="M292 1153.5C292 1154.88 290.209 1156 288 1156C285.791 1156 284 1154.88 284 1153.5C284 1152.12 285.791 1151 288 1151C290.209 1151 292 1152.12 292 1153.5Z" fill="#FFD9B5"/>
<path d="M364 1153.5C364 1154.88 362.433 1156 360.5 1156C358.567 1156 357 1154.88 357 1153.5C357 1152.12 358.567 1151 360.5 1151C362.433 1151 364 1152.12 364 1153.5Z" fill="#FFD9B5"/>
<path d="M234 1153.5C234 1154.88 232.433 1156 230.5 1156C228.567 1156 227 1154.88 227 1153.5C227 1152.12 228.567 1151 230.5 1151C232.433 1151 234 1152.12 234 1153.5Z" fill="#FFD9B5"/>
<path d="M306 1153.5C306 1154.88 304.433 1156 302.5 1156C300.567 1156 299 1154.88 299 1153.5C299 1152.12 300.567 1151 302.5 1151C304.433 1151 306 1152.12 306 1153.5Z" fill="#FFD9B5"/>
<path d="M379 1153.5C379 1154.88 377.209 1156 375 1156C372.791 1156 371 1154.88 371 1153.5C371 1152.12 372.791 1151 375 1151C377.209 1151 379 1152.12 379 1153.5Z" fill="#FFD9B5"/>
<path d="M248 1153.5C248 1154.88 246.433 1156 244.5 1156C242.567 1156 241 1154.88 241 1153.5C241 1152.12 242.567 1151 244.5 1151C246.433 1151 248 1152.12 248 1153.5Z" fill="#FFD9B5"/>
<path d="M321 1153.5C321 1154.88 319.433 1156 317.5 1156C315.567 1156 314 1154.88 314 1153.5C314 1152.12 315.567 1151 317.5 1151C319.433 1151 321 1152.12 321 1153.5Z" fill="#FFD9B5"/>
<path d="M393 1153.5C393 1154.88 391.433 1156 389.5 1156C387.567 1156 386 1154.88 386 1153.5C386 1152.12 387.567 1151 389.5 1151C391.433 1151 393 1152.12 393 1153.5Z" fill="#FFD9B5"/>
<path d="M263 1153.5C263 1154.88 261.433 1156 259.5 1156C257.567 1156 256 1154.88 256 1153.5C256 1152.12 257.567 1151 259.5 1151C261.433 1151 263 1152.12 263 1153.5Z" fill="#FFD9B5"/>
<path d="M335 1153.5C335 1154.88 333.433 1156 331.5 1156C329.567 1156 328 1154.88 328 1153.5C328 1152.12 329.567 1151 331.5 1151C333.433 1151 335 1152.12 335 1153.5Z" fill="#FFD9B5"/>
<path d="M408 1153.5C408 1154.88 406.433 1156 404.5 1156C402.567 1156 401 1154.88 401 1153.5C401 1152.12 402.567 1151 404.5 1151C406.433 1151 408 1152.12 408 1153.5Z" fill="#FFD9B5"/>
<path d="M277 1153.5C277 1154.88 275.433 1156 273.5 1156C271.567 1156 270 1154.88 270 1153.5C270 1152.12 271.567 1151 273.5 1151C275.433 1151 277 1152.12 277 1153.5Z" fill="#FFD9B5"/>
<path d="M350 1153.5C350 1154.88 348.433 1156 346.5 1156C344.567 1156 343 1154.88 343 1153.5C343 1152.12 344.567 1151 346.5 1151C348.433 1151 350 1152.12 350 1153.5Z" fill="#FFD9B5"/>
<rect x="80" y="37.9375" width="254" height="79.839" fill="#2D2446"/>
<rect x="82.6421" y="42.2441" width="248.558" height="70.9841" fill="#121419" stroke="#916992" stroke-width="3"/>
<mask id="mask0" mask-type="alpha" maskUnits="userSpaceOnUse" x="84" y="43" width="246" height="69">
<rect x="84.6421" y="44.2441" width="244.558" height="66.9841" fill="#121419" stroke="black"/>
</mask>
<g mask="url(#mask0)">
<path d="M195.893 76.76C195.978 77.1013 196.021 77.528 196.021 78.04C196.021 78.5307 195.978 78.9573 195.893 79.32H190.773C190.858 79.6613 190.901 80.088 190.901 80.6C190.901 81.0907 190.858 81.5173 190.773 81.88C190.858 82.2213 190.901 82.648 190.901 83.16C190.901 83.6507 190.858 84.0773 190.773 84.44C190.858 84.7813 190.901 85.208 190.901 85.72C190.901 86.2107 190.858 86.6373 190.773 87H188.213C188.127 86.6373 188.085 86.2107 188.085 85.72C188.085 85.208 188.127 84.7813 188.213 84.44C188.127 84.0773 188.085 83.6507 188.085 83.16C188.085 82.648 188.127 82.2213 188.213 81.88C188.127 81.5173 188.085 81.0907 188.085 80.6C188.085 80.088 188.127 79.6613 188.213 79.32C188.127 78.9573 188.085 78.5307 188.085 78.04C188.085 77.528 188.127 77.1013 188.213 76.76C188.127 76.3973 188.085 75.9707 188.085 75.48C188.085 74.968 188.127 74.5413 188.213 74.2C188.127 73.8373 188.085 73.4107 188.085 72.92C188.085 72.408 188.127 71.9813 188.213 71.64C188.127 71.2773 188.085 70.8507 188.085 70.36C188.085 69.848 188.127 69.4213 188.213 69.08H195.893C195.978 69.4213 196.021 69.848 196.021 70.36C196.021 70.8507 195.978 71.2773 195.893 71.64H190.773C190.858 71.9813 190.901 72.408 190.901 72.92C190.901 73.4107 190.858 73.8373 190.773 74.2C190.858 74.5413 190.901 74.968 190.901 75.48C190.901 75.9707 190.858 76.3973 190.773 76.76H195.893ZM210.113 83.16C210.113 83.6507 210.071 84.0773 209.985 84.44C210.071 84.7813 210.113 85.208 210.113 85.72C210.113 86.2107 210.071 86.6373 209.985 87H207.425C207.34 86.6373 207.297 86.2107 207.297 85.72C207.297 85.208 207.34 84.7813 207.425 84.44C207.34 84.0773 207.297 83.6507 207.297 83.16C207.297 82.648 207.34 82.2213 207.425 81.88H202.305C202.391 82.2213 202.433 82.648 202.433 83.16C202.433 83.6507 202.391 84.0773 202.305 84.44C202.391 84.7813 202.433 85.208 202.433 85.72C202.433 86.2107 202.391 86.6373 202.305 87H199.745C199.66 86.6373 199.617 86.2107 199.617 85.72C199.617 85.208 199.66 84.7813 199.745 84.44C199.66 84.0773 199.617 83.6507 199.617 83.16C199.617 82.648 199.66 82.2213 199.745 81.88H200.705C200.62 81.5173 200.577 81.0907 200.577 80.6C200.577 80.088 200.62 79.6613 200.705 79.32C200.62 78.9573 200.577 78.5307 200.577 78.04C200.577 77.528 200.62 77.1013 200.705 76.76H201.345C201.26 76.3973 201.217 75.9707 201.217 75.48C201.217 74.968 201.26 74.5413 201.345 74.2H202.305C202.22 73.8373 202.177 73.4107 202.177 72.92C202.177 72.408 202.22 71.9813 202.305 71.64H202.945C202.86 71.2773 202.817 70.8507 202.817 70.36C202.817 69.848 202.86 69.4213 202.945 69.08H206.785C206.871 69.4213 206.913 69.848 206.913 70.36C206.913 70.8507 206.871 71.2773 206.785 71.64H207.425C207.511 71.9813 207.553 72.408 207.553 72.92C207.553 73.4107 207.511 73.8373 207.425 74.2H208.385C208.471 74.5413 208.513 74.968 208.513 75.48C208.513 75.9707 208.471 76.3973 208.385 76.76H209.025C209.111 77.1013 209.153 77.528 209.153 78.04C209.153 78.5307 209.111 78.9573 209.025 79.32C209.111 79.6613 209.153 80.088 209.153 80.6C209.153 81.0907 209.111 81.5173 209.025 81.88H209.985C210.071 82.2213 210.113 82.648 210.113 83.16ZM206.465 79.32C206.38 78.9573 206.337 78.5307 206.337 78.04C206.337 77.528 206.38 77.1013 206.465 76.76H205.825C205.74 76.3973 205.697 75.9707 205.697 75.48C205.697 74.968 205.74 74.5413 205.825 74.2H203.905C203.991 74.5413 204.033 74.968 204.033 75.48C204.033 75.9707 203.991 76.3973 203.905 76.76H203.265C203.351 77.1013 203.393 77.528 203.393 78.04C203.393 78.5307 203.351 78.9573 203.265 79.32H206.465ZM222.798 76.76C222.883 77.1013 222.926 77.528 222.926 78.04C222.926 78.5307 222.883 78.9573 222.798 79.32C222.883 79.6613 222.926 80.088 222.926 80.6C222.926 81.0907 222.883 81.5173 222.798 81.88H221.838C221.923 82.2213 221.966 82.648 221.966 83.16C221.966 83.6507 221.923 84.0773 221.838 84.44H220.238C220.323 84.7813 220.366 85.208 220.366 85.72C220.366 86.2107 220.323 86.6373 220.238 87H221.518C221.603 87.3413 221.646 87.768 221.646 88.28C221.646 88.7707 221.603 89.1973 221.518 89.56H222.798C222.883 89.9013 222.926 90.328 222.926 90.84C222.926 91.3307 222.883 91.7573 222.798 92.12H220.238C220.152 91.7573 220.11 91.3307 220.11 90.84C220.11 90.328 220.152 89.9013 220.238 89.56H218.958C218.872 89.1973 218.83 88.7707 218.83 88.28C218.83 87.768 218.872 87.3413 218.958 87H215.118C215.032 86.6373 214.99 86.2107 214.99 85.72C214.99 85.208 215.032 84.7813 215.118 84.44H213.518C213.432 84.0773 213.39 83.6507 213.39 83.16C213.39 82.648 213.432 82.2213 213.518 81.88H212.558C212.472 81.5173 212.43 81.0907 212.43 80.6C212.43 80.088 212.472 79.6613 212.558 79.32C212.472 78.9573 212.43 78.5307 212.43 78.04C212.43 77.528 212.472 77.1013 212.558 76.76C212.472 76.3973 212.43 75.9707 212.43 75.48C212.43 74.968 212.472 74.5413 212.558 74.2H213.518C213.432 73.8373 213.39 73.4107 213.39 72.92C213.39 72.408 213.432 71.9813 213.518 71.64H215.118C215.032 71.2773 214.99 70.8507 214.99 70.36C214.99 69.848 215.032 69.4213 215.118 69.08H220.238C220.323 69.4213 220.366 69.848 220.366 70.36C220.366 70.8507 220.323 71.2773 220.238 71.64H221.838C221.923 71.9813 221.966 72.408 221.966 72.92C221.966 73.4107 221.923 73.8373 221.838 74.2H222.798C222.883 74.5413 222.926 74.968 222.926 75.48C222.926 75.9707 222.883 76.3973 222.798 76.76ZM220.238 81.88C220.152 81.5173 220.11 81.0907 220.11 80.6C220.11 80.088 220.152 79.6613 220.238 79.32C220.152 78.9573 220.11 78.5307 220.11 78.04C220.11 77.528 220.152 77.1013 220.238 76.76C220.152 76.3973 220.11 75.9707 220.11 75.48C220.11 74.968 220.152 74.5413 220.238 74.2H219.278C219.192 73.8373 219.15 73.4107 219.15 72.92C219.15 72.408 219.192 71.9813 219.278 71.64H216.078C216.163 71.9813 216.206 72.408 216.206 72.92C216.206 73.4107 216.163 73.8373 216.078 74.2H215.118C215.203 74.5413 215.246 74.968 215.246 75.48C215.246 75.9707 215.203 76.3973 215.118 76.76C215.203 77.1013 215.246 77.528 215.246 78.04C215.246 78.5307 215.203 78.9573 215.118 79.32C215.203 79.6613 215.246 80.088 215.246 80.6C215.246 81.0907 215.203 81.5173 215.118 81.88H216.078C216.163 82.2213 216.206 82.648 216.206 83.16C216.206 83.6507 216.163 84.0773 216.078 84.44H219.278C219.192 84.0773 219.15 83.6507 219.15 83.16C219.15 82.648 219.192 82.2213 219.278 81.88H220.238Z" fill="#88FFF3"/>
<path d="M195.893 76.76L196.863 76.5175L196.674 75.76H195.893V76.76ZM195.893 79.32V80.32H196.685L196.866 79.549L195.893 79.32ZM190.773 79.32V78.32H189.492L189.803 79.5625L190.773 79.32ZM190.773 81.88L189.799 81.651L189.744 81.8871L189.803 82.1225L190.773 81.88ZM190.773 84.44L189.799 84.211L189.744 84.4471L189.803 84.6825L190.773 84.44ZM190.773 87V88H191.565L191.746 87.229L190.773 87ZM188.213 87L187.239 87.229L187.421 88H188.213V87ZM188.213 84.44L189.183 84.6825L189.242 84.4471L189.186 84.211L188.213 84.44ZM188.213 81.88L189.183 82.1225L189.242 81.8871L189.186 81.651L188.213 81.88ZM188.213 79.32L189.183 79.5625L189.242 79.3271L189.186 79.091L188.213 79.32ZM188.213 76.76L189.183 77.0025L189.242 76.7671L189.186 76.531L188.213 76.76ZM188.213 74.2L189.183 74.4425L189.242 74.2071L189.186 73.971L188.213 74.2ZM188.213 71.64L189.183 71.8825L189.242 71.6471L189.186 71.411L188.213 71.64ZM188.213 69.08V68.08H187.432L187.243 68.8375L188.213 69.08ZM195.893 69.08L196.863 68.8375L196.674 68.08H195.893V69.08ZM195.893 71.64V72.64H196.685L196.866 71.869L195.893 71.64ZM190.773 71.64V70.64H189.492L189.803 71.8825L190.773 71.64ZM190.773 74.2L189.799 73.971L189.744 74.2071L189.803 74.4425L190.773 74.2ZM190.773 76.76L189.799 76.531L189.51 77.76H190.773V76.76ZM194.923 77.0025C194.981 77.2376 195.021 77.5763 195.021 78.04H197.021C197.021 77.4797 196.975 76.9651 196.863 76.5175L194.923 77.0025ZM195.021 78.04C195.021 78.4763 194.982 78.8227 194.919 79.091L196.866 79.549C196.974 79.092 197.021 78.585 197.021 78.04H195.021ZM195.893 78.32H190.773V80.32H195.893V78.32ZM189.803 79.5625C189.861 79.7976 189.901 80.1363 189.901 80.6H191.901C191.901 80.0397 191.855 79.5251 191.743 79.0775L189.803 79.5625ZM189.901 80.6C189.901 81.0363 189.862 81.3827 189.799 81.651L191.746 82.109C191.854 81.652 191.901 81.145 191.901 80.6H189.901ZM189.803 82.1225C189.861 82.3576 189.901 82.6963 189.901 83.16H191.901C191.901 82.5997 191.855 82.0851 191.743 81.6375L189.803 82.1225ZM189.901 83.16C189.901 83.5963 189.862 83.9427 189.799 84.211L191.746 84.669C191.854 84.212 191.901 83.705 191.901 83.16H189.901ZM189.803 84.6825C189.861 84.9176 189.901 85.2563 189.901 85.72H191.901C191.901 85.1597 191.855 84.6451 191.743 84.1975L189.803 84.6825ZM189.901 85.72C189.901 86.1563 189.862 86.5027 189.799 86.771L191.746 87.229C191.854 86.772 191.901 86.265 191.901 85.72H189.901ZM190.773 86H188.213V88H190.773V86ZM189.186 86.771C189.123 86.5027 189.085 86.1563 189.085 85.72H187.085C187.085 86.265 187.132 86.772 187.239 87.229L189.186 86.771ZM189.085 85.72C189.085 85.2563 189.124 84.9176 189.183 84.6825L187.243 84.1975C187.131 84.6451 187.085 85.1597 187.085 85.72H189.085ZM189.186 84.211C189.123 83.9427 189.085 83.5963 189.085 83.16H187.085C187.085 83.705 187.132 84.212 187.239 84.669L189.186 84.211ZM189.085 83.16C189.085 82.6963 189.124 82.3576 189.183 82.1225L187.243 81.6375C187.131 82.0851 187.085 82.5997 187.085 83.16H189.085ZM189.186 81.651C189.123 81.3827 189.085 81.0363 189.085 80.6H187.085C187.085 81.145 187.132 81.652 187.239 82.109L189.186 81.651ZM189.085 80.6C189.085 80.1363 189.124 79.7976 189.183 79.5625L187.243 79.0775C187.131 79.5251 187.085 80.0397 187.085 80.6H189.085ZM189.186 79.091C189.123 78.8227 189.085 78.4763 189.085 78.04H187.085C187.085 78.585 187.132 79.092 187.239 79.549L189.186 79.091ZM189.085 78.04C189.085 77.5763 189.124 77.2376 189.183 77.0025L187.243 76.5175C187.131 76.9651 187.085 77.4797 187.085 78.04H189.085ZM189.186 76.531C189.123 76.2627 189.085 75.9163 189.085 75.48H187.085C187.085 76.025 187.132 76.532 187.239 76.989L189.186 76.531ZM189.085 75.48C189.085 75.0163 189.124 74.6776 189.183 74.4425L187.243 73.9575C187.131 74.4051 187.085 74.9197 187.085 75.48H189.085ZM189.186 73.971C189.123 73.7027 189.085 73.3563 189.085 72.92H187.085C187.085 73.465 187.132 73.972 187.239 74.429L189.186 73.971ZM189.085 72.92C189.085 72.4563 189.124 72.1176 189.183 71.8825L187.243 71.3975C187.131 71.8451 187.085 72.3597 187.085 72.92H189.085ZM189.186 71.411C189.123 71.1427 189.085 70.7963 189.085 70.36H187.085C187.085 70.905 187.132 71.412 187.239 71.869L189.186 71.411ZM189.085 70.36C189.085 69.8963 189.124 69.5576 189.183 69.3225L187.243 68.8375C187.131 69.2851 187.085 69.7997 187.085 70.36H189.085ZM188.213 70.08H195.893V68.08H188.213V70.08ZM194.923 69.3225C194.981 69.5576 195.021 69.8963 195.021 70.36H197.021C197.021 69.7997 196.975 69.2851 196.863 68.8375L194.923 69.3225ZM195.021 70.36C195.021 70.7963 194.982 71.1427 194.919 71.411L196.866 71.869C196.974 71.412 197.021 70.905 197.021 70.36H195.021ZM195.893 70.64H190.773V72.64H195.893V70.64ZM189.803 71.8825C189.861 72.1176 189.901 72.4563 189.901 72.92H191.901C191.901 72.3597 191.855 71.8451 191.743 71.3975L189.803 71.8825ZM189.901 72.92C189.901 73.3563 189.862 73.7027 189.799 73.971L191.746 74.429C191.854 73.972 191.901 73.465 191.901 72.92H189.901ZM189.803 74.4425C189.861 74.6776 189.901 75.0163 189.901 75.48H191.901C191.901 74.9197 191.855 74.4051 191.743 73.9575L189.803 74.4425ZM189.901 75.48C189.901 75.9163 189.862 76.2627 189.799 76.531L191.746 76.989C191.854 76.532 191.901 76.025 191.901 75.48H189.901ZM190.773 77.76H195.893V75.76H190.773V77.76ZM209.985 84.44L209.012 84.211L208.956 84.4471L209.015 84.6825L209.985 84.44ZM209.985 87V88H210.777L210.959 87.229L209.985 87ZM207.425 87L206.452 87.229L206.633 88H207.425V87ZM207.425 84.44L208.395 84.6825L208.454 84.4471L208.399 84.211L207.425 84.44ZM207.425 81.88L208.395 82.1225L208.706 80.88H207.425V81.88ZM202.305 81.88V80.88H201.024L201.335 82.1225L202.305 81.88ZM202.305 84.44L201.332 84.211L201.276 84.4471L201.335 84.6825L202.305 84.44ZM202.305 87V88H203.097L203.279 87.229L202.305 87ZM199.745 87L198.772 87.229L198.953 88H199.745V87ZM199.745 84.44L200.715 84.6825L200.774 84.4471L200.719 84.211L199.745 84.44ZM199.745 81.88V80.88H198.964L198.775 81.6375L199.745 81.88ZM200.705 81.88V82.88H201.968L201.679 81.651L200.705 81.88ZM200.705 79.32L201.675 79.5625L201.734 79.3271L201.679 79.091L200.705 79.32ZM200.705 76.76V75.76H199.924L199.735 76.5175L200.705 76.76ZM201.345 76.76V77.76H202.608L202.319 76.531L201.345 76.76ZM201.345 74.2V73.2H200.564L200.375 73.9575L201.345 74.2ZM202.305 74.2V75.2H203.568L203.279 73.971L202.305 74.2ZM202.305 71.64V70.64H201.524L201.335 71.3975L202.305 71.64ZM202.945 71.64V72.64H204.208L203.919 71.411L202.945 71.64ZM202.945 69.08V68.08H202.164L201.975 68.8375L202.945 69.08ZM206.785 69.08L207.755 68.8375L207.566 68.08H206.785V69.08ZM206.785 71.64L205.812 71.411L205.523 72.64H206.785V71.64ZM207.425 71.64L208.395 71.3975L208.206 70.64H207.425V71.64ZM207.425 74.2L206.452 73.971L206.163 75.2H207.425V74.2ZM208.385 74.2L209.355 73.9575L209.166 73.2H208.385V74.2ZM208.385 76.76L207.412 76.531L207.123 77.76H208.385V76.76ZM209.025 76.76L209.995 76.5175L209.806 75.76H209.025V76.76ZM209.025 79.32L208.052 79.091L207.996 79.3271L208.055 79.5625L209.025 79.32ZM209.025 81.88L208.052 81.651L207.763 82.88H209.025V81.88ZM209.985 81.88L210.955 81.6375L210.766 80.88H209.985V81.88ZM206.465 79.32V80.32H207.728L207.439 79.091L206.465 79.32ZM206.465 76.76L207.435 77.0025L207.746 75.76H206.465V76.76ZM205.825 76.76L204.852 76.989L205.033 77.76H205.825V76.76ZM205.825 74.2L206.795 74.4425L207.106 73.2H205.825V74.2ZM203.905 74.2V73.2H202.624L202.935 74.4425L203.905 74.2ZM203.905 76.76V77.76H204.697L204.879 76.989L203.905 76.76ZM203.265 76.76V75.76H201.984L202.295 77.0025L203.265 76.76ZM203.265 79.32L202.292 79.091L202.003 80.32H203.265V79.32ZM209.113 83.16C209.113 83.5963 209.075 83.9427 209.012 84.211L210.959 84.669C211.066 84.212 211.113 83.705 211.113 83.16H209.113ZM209.015 84.6825C209.074 84.9176 209.113 85.2563 209.113 85.72H211.113C211.113 85.1597 211.067 84.6451 210.955 84.1975L209.015 84.6825ZM209.113 85.72C209.113 86.1563 209.075 86.5027 209.012 86.771L210.959 87.229C211.066 86.772 211.113 86.265 211.113 85.72H209.113ZM209.985 86H207.425V88H209.985V86ZM208.399 86.771C208.336 86.5027 208.297 86.1563 208.297 85.72H206.297C206.297 86.265 206.344 86.772 206.452 87.229L208.399 86.771ZM208.297 85.72C208.297 85.2563 208.337 84.9176 208.395 84.6825L206.455 84.1975C206.343 84.6451 206.297 85.1597 206.297 85.72H208.297ZM208.399 84.211C208.336 83.9427 208.297 83.5963 208.297 83.16H206.297C206.297 83.705 206.344 84.212 206.452 84.669L208.399 84.211ZM208.297 83.16C208.297 82.6963 208.337 82.3576 208.395 82.1225L206.455 81.6375C206.343 82.0851 206.297 82.5997 206.297 83.16H208.297ZM207.425 80.88H202.305V82.88H207.425V80.88ZM201.335 82.1225C201.394 82.3576 201.433 82.6963 201.433 83.16H203.433C203.433 82.5997 203.387 82.0851 203.275 81.6375L201.335 82.1225ZM201.433 83.16C201.433 83.5963 201.395 83.9427 201.332 84.211L203.279 84.669C203.386 84.212 203.433 83.705 203.433 83.16H201.433ZM201.335 84.6825C201.394 84.9176 201.433 85.2563 201.433 85.72H203.433C203.433 85.1597 203.387 84.6451 203.275 84.1975L201.335 84.6825ZM201.433 85.72C201.433 86.1563 201.395 86.5027 201.332 86.771L203.279 87.229C203.386 86.772 203.433 86.265 203.433 85.72H201.433ZM202.305 86H199.745V88H202.305V86ZM200.719 86.771C200.656 86.5027 200.617 86.1563 200.617 85.72H198.617C198.617 86.265 198.664 86.772 198.772 87.229L200.719 86.771ZM200.617 85.72C200.617 85.2563 200.657 84.9176 200.715 84.6825L198.775 84.1975C198.663 84.6451 198.617 85.1597 198.617 85.72H200.617ZM200.719 84.211C200.656 83.9427 200.617 83.5963 200.617 83.16H198.617C198.617 83.705 198.664 84.212 198.772 84.669L200.719 84.211ZM200.617 83.16C200.617 82.6963 200.657 82.3576 200.715 82.1225L198.775 81.6375C198.663 82.0851 198.617 82.5997 198.617 83.16H200.617ZM199.745 82.88H200.705V80.88H199.745V82.88ZM201.679 81.651C201.616 81.3827 201.577 81.0363 201.577 80.6H199.577C199.577 81.145 199.624 81.652 199.732 82.109L201.679 81.651ZM201.577 80.6C201.577 80.1363 201.617 79.7976 201.675 79.5625L199.735 79.0775C199.623 79.5251 199.577 80.0397 199.577 80.6H201.577ZM201.679 79.091C201.616 78.8227 201.577 78.4763 201.577 78.04H199.577C199.577 78.585 199.624 79.092 199.732 79.549L201.679 79.091ZM201.577 78.04C201.577 77.5763 201.617 77.2376 201.675 77.0025L199.735 76.5175C199.623 76.9651 199.577 77.4797 199.577 78.04H201.577ZM200.705 77.76H201.345V75.76H200.705V77.76ZM202.319 76.531C202.256 76.2627 202.217 75.9163 202.217 75.48H200.217C200.217 76.025 200.264 76.532 200.372 76.989L202.319 76.531ZM202.217 75.48C202.217 75.0163 202.257 74.6776 202.315 74.4425L200.375 73.9575C200.263 74.4051 200.217 74.9197 200.217 75.48H202.217ZM201.345 75.2H202.305V73.2H201.345V75.2ZM203.279 73.971C203.216 73.7027 203.177 73.3563 203.177 72.92H201.177C201.177 73.465 201.224 73.972 201.332 74.429L203.279 73.971ZM203.177 72.92C203.177 72.4563 203.217 72.1176 203.275 71.8825L201.335 71.3975C201.223 71.8451 201.177 72.3597 201.177 72.92H203.177ZM202.305 72.64H202.945V70.64H202.305V72.64ZM203.919 71.411C203.856 71.1427 203.817 70.7963 203.817 70.36H201.817C201.817 70.905 201.864 71.412 201.972 71.869L203.919 71.411ZM203.817 70.36C203.817 69.8963 203.857 69.5576 203.915 69.3225L201.975 68.8375C201.863 69.2851 201.817 69.7997 201.817 70.36H203.817ZM202.945 70.08H206.785V68.08H202.945V70.08ZM205.815 69.3225C205.874 69.5576 205.913 69.8963 205.913 70.36H207.913C207.913 69.7997 207.867 69.2851 207.755 68.8375L205.815 69.3225ZM205.913 70.36C205.913 70.7963 205.875 71.1427 205.812 71.411L207.759 71.869C207.866 71.412 207.913 70.905 207.913 70.36H205.913ZM206.785 72.64H207.425V70.64H206.785V72.64ZM206.455 71.8825C206.514 72.1176 206.553 72.4563 206.553 72.92H208.553C208.553 72.3597 208.507 71.8451 208.395 71.3975L206.455 71.8825ZM206.553 72.92C206.553 73.3563 206.515 73.7027 206.452 73.971L208.399 74.429C208.506 73.972 208.553 73.465 208.553 72.92H206.553ZM207.425 75.2H208.385V73.2H207.425V75.2ZM207.415 74.4425C207.474 74.6776 207.513 75.0163 207.513 75.48H209.513C209.513 74.9197 209.467 74.4051 209.355 73.9575L207.415 74.4425ZM207.513 75.48C207.513 75.9163 207.475 76.2627 207.412 76.531L209.359 76.989C209.466 76.532 209.513 76.025 209.513 75.48H207.513ZM208.385 77.76H209.025V75.76H208.385V77.76ZM208.055 77.0025C208.114 77.2376 208.153 77.5763 208.153 78.04H210.153C210.153 77.4797 210.107 76.9651 209.995 76.5175L208.055 77.0025ZM208.153 78.04C208.153 78.4763 208.115 78.8227 208.052 79.091L209.999 79.549C210.106 79.092 210.153 78.585 210.153 78.04H208.153ZM208.055 79.5625C208.114 79.7976 208.153 80.1363 208.153 80.6H210.153C210.153 80.0397 210.107 79.5251 209.995 79.0775L208.055 79.5625ZM208.153 80.6C208.153 81.0363 208.115 81.3827 208.052 81.651L209.999 82.109C210.106 81.652 210.153 81.145 210.153 80.6H208.153ZM209.025 82.88H209.985V80.88H209.025V82.88ZM209.015 82.1225C209.074 82.3576 209.113 82.6963 209.113 83.16H211.113C211.113 82.5997 211.067 82.0851 210.955 81.6375L209.015 82.1225ZM207.439 79.091C207.376 78.8227 207.337 78.4763 207.337 78.04H205.337C205.337 78.585 205.384 79.092 205.492 79.549L207.439 79.091ZM207.337 78.04C207.337 77.5763 207.377 77.2376 207.435 77.0025L205.495 76.5175C205.383 76.9651 205.337 77.4797 205.337 78.04H207.337ZM206.465 75.76H205.825V77.76H206.465V75.76ZM206.799 76.531C206.736 76.2627 206.697 75.9163 206.697 75.48H204.697C204.697 76.025 204.744 76.532 204.852 76.989L206.799 76.531ZM206.697 75.48C206.697 75.0163 206.737 74.6776 206.795 74.4425L204.855 73.9575C204.743 74.4051 204.697 74.9197 204.697 75.48H206.697ZM205.825 73.2H203.905V75.2H205.825V73.2ZM202.935 74.4425C202.994 74.6776 203.033 75.0163 203.033 75.48H205.033C205.033 74.9197 204.987 74.4051 204.875 73.9575L202.935 74.4425ZM203.033 75.48C203.033 75.9163 202.995 76.2627 202.932 76.531L204.879 76.989C204.986 76.532 205.033 76.025 205.033 75.48H203.033ZM203.905 75.76H203.265V77.76H203.905V75.76ZM202.295 77.0025C202.354 77.2376 202.393 77.5763 202.393 78.04H204.393C204.393 77.4797 204.347 76.9651 204.235 76.5175L202.295 77.0025ZM202.393 78.04C202.393 78.4763 202.355 78.8227 202.292 79.091L204.239 79.549C204.346 79.092 204.393 78.585 204.393 78.04H202.393ZM203.265 80.32H206.465V78.32H203.265V80.32ZM222.798 76.76L221.824 76.531L221.769 76.7671L221.828 77.0025L222.798 76.76ZM222.798 79.32L221.824 79.091L221.769 79.3271L221.828 79.5625L222.798 79.32ZM222.798 81.88V82.88H223.59L223.771 82.109L222.798 81.88ZM221.838 81.88V80.88H220.557L220.868 82.1225L221.838 81.88ZM221.838 84.44V85.44H222.63L222.811 84.669L221.838 84.44ZM220.238 84.44V83.44H218.957L219.268 84.6825L220.238 84.44ZM220.238 87L219.264 86.771L218.975 88H220.238V87ZM221.518 87L222.488 86.7575L222.299 86H221.518V87ZM221.518 89.56L220.544 89.331L220.255 90.56H221.518V89.56ZM222.798 89.56L223.768 89.3175L223.579 88.56H222.798V89.56ZM222.798 92.12V93.12H223.59L223.771 92.349L222.798 92.12ZM220.238 92.12L219.264 92.349L219.446 93.12H220.238V92.12ZM220.238 89.56L221.208 89.8025L221.519 88.56H220.238V89.56ZM218.958 89.56L217.984 89.789L218.166 90.56H218.958V89.56ZM218.958 87L219.928 87.2425L220.239 86H218.958V87ZM215.118 87L214.144 87.229L214.326 88H215.118V87ZM215.118 84.44L216.088 84.6825L216.399 83.44H215.118V84.44ZM213.518 84.44L212.544 84.669L212.726 85.44H213.518V84.44ZM213.518 81.88L214.488 82.1225L214.799 80.88H213.518V81.88ZM212.558 81.88L211.584 82.109L211.766 82.88H212.558V81.88ZM212.558 79.32L213.528 79.5625L213.587 79.3271L213.531 79.091L212.558 79.32ZM212.558 76.76L213.528 77.0025L213.587 76.7671L213.531 76.531L212.558 76.76ZM212.558 74.2V73.2H211.777L211.588 73.9575L212.558 74.2ZM213.518 74.2V75.2H214.78L214.491 73.971L213.518 74.2ZM213.518 71.64V70.64H212.737L212.548 71.3975L213.518 71.64ZM215.118 71.64V72.64H216.38L216.091 71.411L215.118 71.64ZM215.118 69.08V68.08H214.337L214.148 68.8375L215.118 69.08ZM220.238 69.08L221.208 68.8375L221.019 68.08H220.238V69.08ZM220.238 71.64L219.264 71.411L218.975 72.64H220.238V71.64ZM221.838 71.64L222.808 71.3975L222.619 70.64H221.838V71.64ZM221.838 74.2L220.864 73.971L220.575 75.2H221.838V74.2ZM222.798 74.2L223.768 73.9575L223.579 73.2H222.798V74.2ZM220.238 81.88V82.88H221.5L221.211 81.651L220.238 81.88ZM220.238 79.32L221.208 79.5625L221.267 79.3271L221.211 79.091L220.238 79.32ZM220.238 76.76L221.208 77.0025L221.267 76.7671L221.211 76.531L220.238 76.76ZM220.238 74.2L221.208 74.4425L221.519 73.2H220.238V74.2ZM219.278 74.2L218.304 74.429L218.486 75.2H219.278V74.2ZM219.278 71.64L220.248 71.8825L220.559 70.64H219.278V71.64ZM216.078 71.64V70.64H214.797L215.108 71.8825L216.078 71.64ZM216.078 74.2V75.2H216.87L217.051 74.429L216.078 74.2ZM215.118 74.2V73.2H213.837L214.148 74.4425L215.118 74.2ZM215.118 76.76L214.144 76.531L214.089 76.7671L214.148 77.0025L215.118 76.76ZM215.118 79.32L214.144 79.091L214.089 79.3271L214.148 79.5625L215.118 79.32ZM215.118 81.88L214.144 81.651L213.855 82.88H215.118V81.88ZM216.078 81.88L217.048 81.6375L216.859 80.88H216.078V81.88ZM216.078 84.44L215.104 84.211L214.815 85.44H216.078V84.44ZM219.278 84.44V85.44H220.54L220.251 84.211L219.278 84.44ZM219.278 81.88V80.88H218.497L218.308 81.6375L219.278 81.88ZM221.828 77.0025C221.886 77.2376 221.926 77.5763 221.926 78.04H223.926C223.926 77.4797 223.88 76.9651 223.768 76.5175L221.828 77.0025ZM221.926 78.04C221.926 78.4763 221.887 78.8227 221.824 79.091L223.771 79.549C223.879 79.092 223.926 78.585 223.926 78.04H221.926ZM221.828 79.5625C221.886 79.7976 221.926 80.1363 221.926 80.6H223.926C223.926 80.0397 223.88 79.5251 223.768 79.0775L221.828 79.5625ZM221.926 80.6C221.926 81.0363 221.887 81.3827 221.824 81.651L223.771 82.109C223.879 81.652 223.926 81.145 223.926 80.6H221.926ZM222.798 80.88H221.838V82.88H222.798V80.88ZM220.868 82.1225C220.926 82.3576 220.966 82.6963 220.966 83.16H222.966C222.966 82.5997 222.92 82.0851 222.808 81.6375L220.868 82.1225ZM220.966 83.16C220.966 83.5963 220.927 83.9427 220.864 84.211L222.811 84.669C222.919 84.212 222.966 83.705 222.966 83.16H220.966ZM221.838 83.44H220.238V85.44H221.838V83.44ZM219.268 84.6825C219.326 84.9176 219.366 85.2563 219.366 85.72H221.366C221.366 85.1597 221.32 84.6451 221.208 84.1975L219.268 84.6825ZM219.366 85.72C219.366 86.1563 219.327 86.5027 219.264 86.771L221.211 87.229C221.319 86.772 221.366 86.265 221.366 85.72H219.366ZM220.238 88H221.518V86H220.238V88ZM220.548 87.2425C220.606 87.4776 220.646 87.8163 220.646 88.28H222.646C222.646 87.7197 222.6 87.2051 222.488 86.7575L220.548 87.2425ZM220.646 88.28C220.646 88.7163 220.607 89.0627 220.544 89.331L222.491 89.789C222.599 89.332 222.646 88.825 222.646 88.28H220.646ZM221.518 90.56H222.798V88.56H221.518V90.56ZM221.828 89.8025C221.886 90.0376 221.926 90.3763 221.926 90.84H223.926C223.926 90.2797 223.88 89.7651 223.768 89.3175L221.828 89.8025ZM221.926 90.84C221.926 91.2763 221.887 91.6227 221.824 91.891L223.771 92.349C223.879 91.892 223.926 91.385 223.926 90.84H221.926ZM222.798 91.12H220.238V93.12H222.798V91.12ZM221.211 91.891C221.148 91.6227 221.11 91.2763 221.11 90.84H219.11C219.11 91.385 219.157 91.892 219.264 92.349L221.211 91.891ZM221.11 90.84C221.11 90.3763 221.149 90.0376 221.208 89.8025L219.268 89.3175C219.156 89.7651 219.11 90.2797 219.11 90.84H221.11ZM220.238 88.56H218.958V90.56H220.238V88.56ZM219.931 89.331C219.868 89.0627 219.83 88.7163 219.83 88.28H217.83C217.83 88.825 217.877 89.332 217.984 89.789L219.931 89.331ZM219.83 88.28C219.83 87.8163 219.869 87.4776 219.928 87.2425L217.988 86.7575C217.876 87.2051 217.83 87.7197 217.83 88.28H219.83ZM218.958 86H215.118V88H218.958V86ZM216.091 86.771C216.028 86.5027 215.99 86.1563 215.99 85.72H213.99C213.99 86.265 214.037 86.772 214.144 87.229L216.091 86.771ZM215.99 85.72C215.99 85.2563 216.029 84.9176 216.088 84.6825L214.148 84.1975C214.036 84.6451 213.99 85.1597 213.99 85.72H215.99ZM215.118 83.44H213.518V85.44H215.118V83.44ZM214.491 84.211C214.428 83.9427 214.39 83.5963 214.39 83.16H212.39C212.39 83.705 212.437 84.212 212.544 84.669L214.491 84.211ZM214.39 83.16C214.39 82.6963 214.429 82.3576 214.488 82.1225L212.548 81.6375C212.436 82.0851 212.39 82.5997 212.39 83.16H214.39ZM213.518 80.88H212.558V82.88H213.518V80.88ZM213.531 81.651C213.468 81.3827 213.43 81.0363 213.43 80.6H211.43C211.43 81.145 211.477 81.652 211.584 82.109L213.531 81.651ZM213.43 80.6C213.43 80.1363 213.469 79.7976 213.528 79.5625L211.588 79.0775C211.476 79.5251 211.43 80.0397 211.43 80.6H213.43ZM213.531 79.091C213.468 78.8227 213.43 78.4763 213.43 78.04H211.43C211.43 78.585 211.477 79.092 211.584 79.549L213.531 79.091ZM213.43 78.04C213.43 77.5763 213.469 77.2376 213.528 77.0025L211.588 76.5175C211.476 76.9651 211.43 77.4797 211.43 78.04H213.43ZM213.531 76.531C213.468 76.2627 213.43 75.9163 213.43 75.48H211.43C211.43 76.025 211.477 76.532 211.584 76.989L213.531 76.531ZM213.43 75.48C213.43 75.0163 213.469 74.6776 213.528 74.4425L211.588 73.9575C211.476 74.4051 211.43 74.9197 211.43 75.48H213.43ZM212.558 75.2H213.518V73.2H212.558V75.2ZM214.491 73.971C214.428 73.7027 214.39 73.3563 214.39 72.92H212.39C212.39 73.465 212.437 73.972 212.544 74.429L214.491 73.971ZM214.39 72.92C214.39 72.4563 214.429 72.1176 214.488 71.8825L212.548 71.3975C212.436 71.8451 212.39 72.3597 212.39 72.92H214.39ZM213.518 72.64H215.118V70.64H213.518V72.64ZM216.091 71.411C216.028 71.1427 215.99 70.7963 215.99 70.36H213.99C213.99 70.905 214.037 71.412 214.144 71.869L216.091 71.411ZM215.99 70.36C215.99 69.8963 216.029 69.5576 216.088 69.3225L214.148 68.8375C214.036 69.2851 213.99 69.7997 213.99 70.36H215.99ZM215.118 70.08H220.238V68.08H215.118V70.08ZM219.268 69.3225C219.326 69.5576 219.366 69.8963 219.366 70.36H221.366C221.366 69.7997 221.32 69.2851 221.208 68.8375L219.268 69.3225ZM219.366 70.36C219.366 70.7963 219.327 71.1427 219.264 71.411L221.211 71.869C221.319 71.412 221.366 70.905 221.366 70.36H219.366ZM220.238 72.64H221.838V70.64H220.238V72.64ZM220.868 71.8825C220.926 72.1176 220.966 72.4563 220.966 72.92H222.966C222.966 72.3597 222.92 71.8451 222.808 71.3975L220.868 71.8825ZM220.966 72.92C220.966 73.3563 220.927 73.7027 220.864 73.971L222.811 74.429C222.919 73.972 222.966 73.465 222.966 72.92H220.966ZM221.838 75.2H222.798V73.2H221.838V75.2ZM221.828 74.4425C221.886 74.6776 221.926 75.0163 221.926 75.48H223.926C223.926 74.9197 223.88 74.4051 223.768 73.9575L221.828 74.4425ZM221.926 75.48C221.926 75.9163 221.887 76.2627 221.824 76.531L223.771 76.989C223.879 76.532 223.926 76.025 223.926 75.48H221.926ZM221.211 81.651C221.148 81.3827 221.11 81.0363 221.11 80.6H219.11C219.11 81.145 219.157 81.652 219.264 82.109L221.211 81.651ZM221.11 80.6C221.11 80.1363 221.149 79.7976 221.208 79.5625L219.268 79.0775C219.156 79.5251 219.11 80.0397 219.11 80.6H221.11ZM221.211 79.091C221.148 78.8227 221.11 78.4763 221.11 78.04H219.11C219.11 78.585 219.157 79.092 219.264 79.549L221.211 79.091ZM221.11 78.04C221.11 77.5763 221.149 77.2376 221.208 77.0025L219.268 76.5175C219.156 76.9651 219.11 77.4797 219.11 78.04H221.11ZM221.211 76.531C221.148 76.2627 221.11 75.9163 221.11 75.48H219.11C219.11 76.025 219.157 76.532 219.264 76.989L221.211 76.531ZM221.11 75.48C221.11 75.0163 221.149 74.6776 221.208 74.4425L219.268 73.9575C219.156 74.4051 219.11 74.9197 219.11 75.48H221.11ZM220.238 73.2H219.278V75.2H220.238V73.2ZM220.251 73.971C220.188 73.7027 220.15 73.3563 220.15 72.92H218.15C218.15 73.465 218.197 73.972 218.304 74.429L220.251 73.971ZM220.15 72.92C220.15 72.4563 220.189 72.1176 220.248 71.8825L218.308 71.3975C218.196 71.8451 218.15 72.3597 218.15 72.92H220.15ZM219.278 70.64H216.078V72.64H219.278V70.64ZM215.108 71.8825C215.166 72.1176 215.206 72.4563 215.206 72.92H217.206C217.206 72.3597 217.16 71.8451 217.048 71.3975L215.108 71.8825ZM215.206 72.92C215.206 73.3563 215.167 73.7027 215.104 73.971L217.051 74.429C217.159 73.972 217.206 73.465 217.206 72.92H215.206ZM216.078 73.2H215.118V75.2H216.078V73.2ZM214.148 74.4425C214.206 74.6776 214.246 75.0163 214.246 75.48H216.246C216.246 74.9197 216.2 74.4051 216.088 73.9575L214.148 74.4425ZM214.246 75.48C214.246 75.9163 214.207 76.2627 214.144 76.531L216.091 76.989C216.199 76.532 216.246 76.025 216.246 75.48H214.246ZM214.148 77.0025C214.206 77.2376 214.246 77.5763 214.246 78.04H216.246C216.246 77.4797 216.2 76.9651 216.088 76.5175L214.148 77.0025ZM214.246 78.04C214.246 78.4763 214.207 78.8227 214.144 79.091L216.091 79.549C216.199 79.092 216.246 78.585 216.246 78.04H214.246ZM214.148 79.5625C214.206 79.7976 214.246 80.1363 214.246 80.6H216.246C216.246 80.0397 216.2 79.5251 216.088 79.0775L214.148 79.5625ZM214.246 80.6C214.246 81.0363 214.207 81.3827 214.144 81.651L216.091 82.109C216.199 81.652 216.246 81.145 216.246 80.6H214.246ZM215.118 82.88H216.078V80.88H215.118V82.88ZM215.108 82.1225C215.166 82.3576 215.206 82.6963 215.206 83.16H217.206C217.206 82.5997 217.16 82.0851 217.048 81.6375L215.108 82.1225ZM215.206 83.16C215.206 83.5963 215.167 83.9427 215.104 84.211L217.051 84.669C217.159 84.212 217.206 83.705 217.206 83.16H215.206ZM216.078 85.44H219.278V83.44H216.078V85.44ZM220.251 84.211C220.188 83.9427 220.15 83.5963 220.15 83.16H218.15C218.15 83.705 218.197 84.212 218.304 84.669L220.251 84.211ZM220.15 83.16C220.15 82.6963 220.189 82.3576 220.248 82.1225L218.308 81.6375C218.196 82.0851 218.15 82.5997 218.15 83.16H220.15ZM219.278 82.88H220.238V80.88H219.278V82.88Z" fill="black"/>
</g>
<path d="M104.953 0V38.787" stroke="#2D2446" stroke-width="10"/>
<path d="M308.296 0V38.787" stroke="#2D2446" stroke-width="10"/>
</g>
<defs>
<linearGradient id="paint0_linear" x1="208.5" y1="0" x2="216.656" y2="887.244" gradientUnits="userSpaceOnUse">
<stop stop-color="#5748B9"/>
<stop offset="0.0885417" stop-color="#897DBA"/>
<stop offset="0.520833" stop-color="#CE768B"/>
<stop offset="0.817708" stop-color="#FCC9A5"/>
<stop offset="1" stop-color="white"/>
</linearGradient>
<linearGradient id="paint1_linear" x1="414.336" y1="190" x2="414.336" y2="298" gradientUnits="userSpaceOnUse">
<stop stop-color="white"/>
<stop offset="0.444443" stop-color="white" stop-opacity="0"/>
<stop offset="1" stop-color="white"/>
</linearGradient>
<linearGradient id="paint2_linear" x1="38.5223" y1="189" x2="38.5223" y2="296.941" gradientUnits="userSpaceOnUse">
<stop stop-color="white"/>
<stop offset="0.444443" stop-color="white" stop-opacity="0"/>
<stop offset="1" stop-color="white"/>
</linearGradient>
<linearGradient id="paint3_linear" x1="96.5223" y1="654" x2="96.5223" y2="760.96" gradientUnits="userSpaceOnUse">
<stop stop-color="white"/>
<stop offset="0.444443" stop-color="white" stop-opacity="0"/>
<stop offset="1" stop-color="white"/>
</linearGradient>
<linearGradient id="paint4_linear" x1="382.404" y1="654" x2="382.404" y2="760.96" gradientUnits="userSpaceOnUse">
<stop stop-color="white"/>
<stop offset="0.444443" stop-color="white" stop-opacity="0"/>
<stop offset="1" stop-color="white"/>
</linearGradient>
<linearGradient id="paint5_linear" x1="370.404" y1="72" x2="370.404" y2="179.941" gradientUnits="userSpaceOnUse">
<stop stop-color="white"/>
<stop offset="0.444443" stop-color="white" stop-opacity="0"/>
<stop offset="1" stop-color="white"/>
</linearGradient>
<linearGradient id="paint6_linear" x1="44.4036" y1="73" x2="44.4036" y2="179.96" gradientUnits="userSpaceOnUse">
<stop stop-color="white"/>
<stop offset="0.444443" stop-color="white" stop-opacity="0"/>
<stop offset="1" stop-color="white"/>
</linearGradient>
<linearGradient id="paint7_linear" x1="47.4036" y1="306" x2="47.4036" y2="413.941" gradientUnits="userSpaceOnUse">
<stop stop-color="white"/>
<stop offset="0.444443" stop-color="white" stop-opacity="0"/>
<stop offset="1" stop-color="white"/>
</linearGradient>
<linearGradient id="paint8_linear" x1="320.216" y1="307" x2="320.216" y2="415" gradientUnits="userSpaceOnUse">
<stop stop-color="white"/>
<stop offset="0.444443" stop-color="white" stop-opacity="0"/>
<stop offset="1" stop-color="white"/>
</linearGradient>
<linearGradient id="paint9_linear" x1="219" y1="807" x2="219" y2="938" gradientUnits="userSpaceOnUse">
<stop stop-color="#411818"/>
<stop offset="1" stop-color="#747474"/>
</linearGradient>
<clipPath id="clip0">
<rect width="414" height="1165" fill="white"/>
</clipPath>
</defs>
</svg>
