<svg width="297" height="78" viewBox="0 0 297 78" fill="none" xmlns="http://www.w3.org/2000/svg">
<g clip-path="url(#clip0)">
<path d="M5.41602 48.7318C9.97937 33.5854 14.5427 18.4391 19.0325 3.29272H279.512C279.512 3.29272 289.595 36.7318 293.128 48.7318H5.41602Z" fill="#CAFFFF"/>
<path d="M277.083 6.58537L279.144 13.4634C282.309 24.0732 285.547 34.7561 288.712 45.3659H9.9059C13.8068 32.4878 17.7078 19.5366 21.5351 6.58537H277.083ZM282.014 0H16.6037C11.4516 17.3415 6.22578 34.6829 1 52.0244H297.618C292.466 34.6829 287.24 17.3415 282.014 0Z" fill="#382E73"/>
<path d="M1 52.0244H297.618C292.392 60.6586 287.166 69.3659 282.014 78H16.6037C11.4516 69.2927 6.22578 60.6586 1 52.0244Z" fill="#382E73"/>
<path d="M32.52 25.08L32.136 26.52H35.472L35.112 25.08C34.888 24.296 34.672 23.464 34.464 22.584C34.256 21.704 34.048 20.856 33.84 20.04H33.744C33.552 20.872 33.352 21.728 33.144 22.608C32.952 23.472 32.744 24.296 32.52 25.08ZM26.856 33L31.752 17.352H36L40.896 33H37.152L36.192 29.28H31.416L30.456 33H26.856ZM42.6058 33V17.352H47.9818C48.8458 17.352 49.6538 17.44 50.4058 17.616C51.1578 17.776 51.8138 18.056 52.3738 18.456C52.9338 18.84 53.3738 19.36 53.6938 20.016C54.0298 20.656 54.1978 21.448 54.1978 22.392C54.1978 23.304 54.0298 24.096 53.6938 24.768C53.3738 25.44 52.9338 25.992 52.3738 26.424C51.8138 26.856 51.1658 27.176 50.4298 27.384C49.6938 27.592 48.9098 27.696 48.0778 27.696H46.1338V33H42.6058ZM46.1338 24.888H47.8618C49.7818 24.888 50.7418 24.056 50.7418 22.392C50.7418 21.576 50.4858 21 49.9738 20.664C49.4618 20.328 48.7258 20.16 47.7658 20.16H46.1338V24.888ZM56.9027 33V17.352H62.2787C63.1427 17.352 63.9507 17.44 64.7027 17.616C65.4547 17.776 66.1107 18.056 66.6707 18.456C67.2307 18.84 67.6707 19.36 67.9907 20.016C68.3267 20.656 68.4947 21.448 68.4947 22.392C68.4947 23.304 68.3267 24.096 67.9907 24.768C67.6707 25.44 67.2307 25.992 66.6707 26.424C66.1107 26.856 65.4627 27.176 64.7267 27.384C63.9907 27.592 63.2067 27.696 62.3747 27.696H60.4307V33H56.9027ZM60.4307 24.888H62.1587C64.0787 24.888 65.0387 24.056 65.0387 22.392C65.0387 21.576 64.7827 21 64.2707 20.664C63.7587 20.328 63.0227 20.16 62.0627 20.16H60.4307V24.888ZM71.1996 33V17.352H74.7276V30.024H80.9196V33H71.1996ZM83.6214 33V17.352H87.1494V33H83.6214ZM97.3682 33.288C96.3762 33.288 95.4402 33.12 94.5602 32.784C93.6802 32.432 92.9042 31.92 92.2322 31.248C91.5762 30.576 91.0562 29.744 90.6722 28.752C90.2882 27.744 90.0962 26.584 90.0962 25.272C90.0962 23.976 90.2962 22.824 90.6962 21.816C91.0962 20.792 91.6322 19.928 92.3042 19.224C92.9762 18.52 93.7602 17.984 94.6562 17.616C95.5522 17.248 96.4962 17.064 97.4882 17.064C98.4962 17.064 99.4002 17.272 100.2 17.688C101 18.088 101.664 18.56 102.192 19.104L100.32 21.36C99.9202 20.992 99.4962 20.696 99.0482 20.472C98.6162 20.232 98.1202 20.112 97.5602 20.112C97.0322 20.112 96.5282 20.232 96.0482 20.472C95.5842 20.696 95.1762 21.024 94.8242 21.456C94.4882 21.888 94.2162 22.416 94.0082 23.04C93.8162 23.664 93.7202 24.368 93.7202 25.152C93.7202 26.768 94.0642 28.024 94.7522 28.92C95.4402 29.8 96.3602 30.24 97.5122 30.24C98.1522 30.24 98.7202 30.104 99.2162 29.832C99.7282 29.544 100.176 29.192 100.56 28.776L102.432 30.984C101.12 32.52 99.4322 33.288 97.3682 33.288ZM108.481 25.08L108.097 26.52H111.433L111.073 25.08C110.849 24.296 110.633 23.464 110.425 22.584C110.217 21.704 110.009 20.856 109.801 20.04H109.705C109.513 20.872 109.313 21.728 109.105 22.608C108.913 23.472 108.705 24.296 108.481 25.08ZM102.817 33L107.713 17.352H111.961L116.857 33H113.113L112.153 29.28H107.377L106.417 33H102.817ZM119.857 33V20.328H115.561V17.352H127.705V20.328H123.409V33H119.857ZM130.145 33V17.352H133.673V33H130.145ZM143.724 33.288C142.668 33.288 141.7 33.104 140.82 32.736C139.956 32.352 139.212 31.808 138.588 31.104C137.964 30.4 137.476 29.544 137.124 28.536C136.788 27.528 136.62 26.384 136.62 25.104C136.62 23.824 136.788 22.688 137.124 21.696C137.476 20.688 137.964 19.848 138.588 19.176C139.212 18.488 139.956 17.968 140.82 17.616C141.7 17.248 142.668 17.064 143.724 17.064C144.78 17.064 145.74 17.248 146.604 17.616C147.484 17.968 148.236 18.488 148.86 19.176C149.484 19.864 149.964 20.712 150.3 21.72C150.652 22.712 150.828 23.84 150.828 25.104C150.828 26.384 150.652 27.528 150.3 28.536C149.964 29.544 149.484 30.4 148.86 31.104C148.236 31.808 147.484 32.352 146.604 32.736C145.74 33.104 144.78 33.288 143.724 33.288ZM143.724 30.24C144.796 30.24 145.644 29.784 146.268 28.872C146.892 27.944 147.204 26.688 147.204 25.104C147.204 23.536 146.892 22.312 146.268 21.432C145.644 20.552 144.796 20.112 143.724 20.112C142.652 20.112 141.804 20.552 141.18 21.432C140.556 22.312 140.244 23.536 140.244 25.104C140.244 26.688 140.556 27.944 141.18 28.872C141.804 29.784 142.652 30.24 143.724 30.24ZM153.77 33V17.352H157.394L161.474 25.128L163.01 28.584H163.106C163.026 27.752 162.93 26.824 162.818 25.8C162.722 24.776 162.674 23.8 162.674 22.872V17.352H166.034V33H162.41L158.33 25.2L156.794 21.792H156.698C156.778 22.656 156.866 23.584 156.962 24.576C157.074 25.568 157.13 26.528 157.13 27.456V33H153.77ZM174.507 33.288C173.483 33.288 172.459 33.104 171.435 32.736C170.427 32.352 169.523 31.784 168.723 31.032L170.739 28.608C171.299 29.088 171.915 29.48 172.587 29.784C173.275 30.088 173.947 30.24 174.603 30.24C175.339 30.24 175.883 30.104 176.235 29.832C176.603 29.56 176.787 29.192 176.787 28.728C176.787 28.488 176.731 28.28 176.619 28.104C176.523 27.928 176.371 27.776 176.163 27.648C175.971 27.504 175.731 27.376 175.443 27.264C175.171 27.136 174.867 27 174.531 26.856L172.491 25.992C172.091 25.832 171.699 25.624 171.315 25.368C170.947 25.112 170.611 24.816 170.307 24.48C170.019 24.128 169.787 23.728 169.611 23.28C169.435 22.816 169.347 22.296 169.347 21.72C169.347 21.08 169.483 20.48 169.755 19.92C170.027 19.344 170.411 18.848 170.907 18.432C171.403 18 171.987 17.664 172.659 17.424C173.347 17.184 174.099 17.064 174.915 17.064C175.827 17.064 176.723 17.24 177.603 17.592C178.499 17.944 179.283 18.456 179.955 19.128L178.155 21.36C177.643 20.96 177.131 20.656 176.619 20.448C176.107 20.224 175.539 20.112 174.915 20.112C174.307 20.112 173.819 20.24 173.451 20.496C173.099 20.736 172.923 21.08 172.923 21.528C172.923 21.768 172.979 21.976 173.091 22.152C173.219 22.312 173.387 22.464 173.595 22.608C173.819 22.736 174.075 22.864 174.363 22.992C174.651 23.104 174.963 23.232 175.299 23.376L177.315 24.192C178.275 24.576 179.027 25.104 179.571 25.776C180.131 26.448 180.411 27.336 180.411 28.44C180.411 29.096 180.275 29.72 180.003 30.312C179.747 30.888 179.363 31.4 178.851 31.848C178.355 32.28 177.739 32.632 177.003 32.904C176.267 33.16 175.435 33.288 174.507 33.288ZM194.399 33.288C193.407 33.288 192.471 33.12 191.591 32.784C190.711 32.432 189.935 31.92 189.263 31.248C188.607 30.576 188.087 29.744 187.703 28.752C187.319 27.744 187.127 26.584 187.127 25.272C187.127 23.976 187.327 22.824 187.727 21.816C188.127 20.792 188.663 19.928 189.335 19.224C190.007 18.52 190.791 17.984 191.687 17.616C192.583 17.248 193.527 17.064 194.519 17.064C195.527 17.064 196.431 17.272 197.231 17.688C198.031 18.088 198.695 18.56 199.223 19.104L197.351 21.36C196.951 20.992 196.527 20.696 196.079 20.472C195.647 20.232 195.151 20.112 194.591 20.112C194.063 20.112 193.559 20.232 193.079 20.472C192.615 20.696 192.207 21.024 191.855 21.456C191.519 21.888 191.247 22.416 191.039 23.04C190.847 23.664 190.751 24.368 190.751 25.152C190.751 26.768 191.095 28.024 191.783 28.92C192.471 29.8 193.391 30.24 194.543 30.24C195.183 30.24 195.751 30.104 196.247 29.832C196.759 29.544 197.207 29.192 197.591 28.776L199.463 30.984C198.151 32.52 196.463 33.288 194.399 33.288ZM201.84 33V17.352H205.368V30.024H211.56V33H201.84ZM219.755 33.288C218.699 33.288 217.731 33.104 216.851 32.736C215.987 32.352 215.243 31.808 214.619 31.104C213.995 30.4 213.507 29.544 213.155 28.536C212.819 27.528 212.651 26.384 212.651 25.104C212.651 23.824 212.819 22.688 213.155 21.696C213.507 20.688 213.995 19.848 214.619 19.176C215.243 18.488 215.987 17.968 216.851 17.616C217.731 17.248 218.699 17.064 219.755 17.064C220.811 17.064 221.771 17.248 222.635 17.616C223.515 17.968 224.267 18.488 224.891 19.176C225.515 19.864 225.995 20.712 226.331 21.72C226.683 22.712 226.859 23.84 226.859 25.104C226.859 26.384 226.683 27.528 226.331 28.536C225.995 29.544 225.515 30.4 224.891 31.104C224.267 31.808 223.515 32.352 222.635 32.736C221.771 33.104 220.811 33.288 219.755 33.288ZM219.755 30.24C220.827 30.24 221.675 29.784 222.299 28.872C222.923 27.944 223.235 26.688 223.235 25.104C223.235 23.536 222.923 22.312 222.299 21.432C221.675 20.552 220.827 20.112 219.755 20.112C218.683 20.112 217.835 20.552 217.211 21.432C216.587 22.312 216.275 23.536 216.275 25.104C216.275 26.688 216.587 27.944 217.211 28.872C217.835 29.784 218.683 30.24 219.755 30.24ZM234.577 33.288C233.553 33.288 232.529 33.104 231.505 32.736C230.497 32.352 229.593 31.784 228.793 31.032L230.809 28.608C231.369 29.088 231.985 29.48 232.657 29.784C233.345 30.088 234.017 30.24 234.673 30.24C235.409 30.24 235.953 30.104 236.305 29.832C236.673 29.56 236.857 29.192 236.857 28.728C236.857 28.488 236.801 28.28 236.689 28.104C236.593 27.928 236.441 27.776 236.233 27.648C236.041 27.504 235.801 27.376 235.513 27.264C235.241 27.136 234.937 27 234.601 26.856L232.561 25.992C232.161 25.832 231.769 25.624 231.385 25.368C231.017 25.112 230.681 24.816 230.377 24.48C230.089 24.128 229.857 23.728 229.681 23.28C229.505 22.816 229.417 22.296 229.417 21.72C229.417 21.08 229.553 20.48 229.825 19.92C230.097 19.344 230.481 18.848 230.977 18.432C231.473 18 232.057 17.664 232.729 17.424C233.417 17.184 234.169 17.064 234.985 17.064C235.897 17.064 236.793 17.24 237.673 17.592C238.569 17.944 239.353 18.456 240.025 19.128L238.225 21.36C237.713 20.96 237.201 20.656 236.689 20.448C236.177 20.224 235.609 20.112 234.985 20.112C234.377 20.112 233.889 20.24 233.521 20.496C233.169 20.736 232.993 21.08 232.993 21.528C232.993 21.768 233.049 21.976 233.161 22.152C233.289 22.312 233.457 22.464 233.665 22.608C233.889 22.736 234.145 22.864 234.433 22.992C234.721 23.104 235.033 23.232 235.369 23.376L237.385 24.192C238.345 24.576 239.097 25.104 239.641 25.776C240.201 26.448 240.481 27.336 240.481 28.44C240.481 29.096 240.345 29.72 240.073 30.312C239.817 30.888 239.433 31.4 238.921 31.848C238.425 32.28 237.809 32.632 237.073 32.904C236.337 33.16 235.505 33.288 234.577 33.288ZM243.137 33V17.352H252.929V20.328H246.665V23.472H251.993V26.424H246.665V30.024H253.169V33H243.137ZM256.286 33V17.352H260.702C261.902 17.352 262.982 17.504 263.942 17.808C264.902 18.112 265.726 18.584 266.414 19.224C267.102 19.848 267.63 20.648 267.997 21.624C268.365 22.6 268.549 23.76 268.549 25.104C268.549 26.448 268.365 27.616 267.997 28.608C267.63 29.6 267.11 30.424 266.438 31.08C265.766 31.72 264.958 32.2 264.014 32.52C263.086 32.84 262.046 33 260.894 33H256.286ZM259.814 30.144H260.486C261.158 30.144 261.766 30.056 262.31 29.88C262.854 29.704 263.318 29.424 263.702 29.04C264.086 28.64 264.382 28.12 264.59 27.48C264.814 26.84 264.926 26.048 264.926 25.104C264.926 24.176 264.814 23.4 264.59 22.776C264.382 22.136 264.086 21.632 263.702 21.264C263.318 20.88 262.854 20.608 262.31 20.448C261.766 20.288 261.158 20.208 260.486 20.208H259.814V30.144Z" fill="#382E73"/>
</g>
<defs>
<clipPath id="clip0">
<rect width="297" height="78" fill="white"/>
</clipPath>
</defs>
</svg>
