<svg width="297" height="78" viewBox="0 0 297 78" fill="none" xmlns="http://www.w3.org/2000/svg">
<path d="M4.41614 48.7318C8.97949 33.5854 13.5428 18.4391 18.0326 3.29272H278.512C278.512 3.29272 288.595 36.7318 292.128 48.7318H4.41614Z" fill="#CAFFFF"/>
<path d="M276.083 6.58537L278.144 13.4634C281.309 24.0732 284.547 34.7561 287.712 45.3659H8.9059C12.8068 32.4878 16.7078 19.5366 20.5351 6.58537H276.083ZM281.014 0H15.6037C10.4516 17.3415 5.22578 34.6829 0 52.0244H296.618C291.466 34.6829 286.24 17.3415 281.014 0Z" fill="#382E73"/>
<path d="M0 52.0244H296.618C291.392 60.6586 286.166 69.3659 281.014 78H15.6037C10.4516 69.2927 5.22578 60.6586 0 52.0244Z" fill="#382E73"/>
<g filter="url(#filter0_f)">
<path d="M48.8721 32.122H40.4078L38.1262 36.0732H32.606L46.6641 13.6099H50.197L55.0547 36.0732H49.5346L48.8721 32.122ZM48.0625 27.3659L46.9585 20.9269L43.2047 27.3659H48.0625Z" fill="#1EEDC8"/>
<path d="M67.0519 13.6099H74.633C79.6379 13.6099 81.846 15.7318 81.2572 19.9757C80.9628 22.1708 80.0796 23.8538 78.6075 25.0245C77.1355 26.1952 75.1482 26.7806 72.6457 26.7806H69.8488L68.3768 36.0732H63.2982L67.0519 13.6099ZM72.8665 22.1708C73.9706 22.1708 74.7802 22.0245 75.369 21.7318C75.8842 21.4391 76.2522 20.8538 76.3994 20.0489C76.5466 19.244 76.3258 18.7318 75.8842 18.4391C75.4426 18.1464 74.633 18.0733 73.5289 18.0733H71.2473L70.5848 22.1708H72.8665Z" fill="#1EEDC8"/>
<path d="M91.0464 13.6099H98.6274C103.632 13.6099 105.914 15.7318 105.546 19.9757C105.325 22.1708 104.589 23.8538 103.191 25.0245C101.792 26.1952 99.8051 26.7806 97.3026 26.7806H94.5057L93.4753 36.0732H88.3967L91.0464 13.6099ZM97.229 22.1708C98.333 22.1708 99.1427 22.0245 99.7315 21.7318C100.247 21.4391 100.541 20.8538 100.615 20.0489C100.688 19.244 100.467 18.7318 100.026 18.4391C99.5843 18.1464 98.7746 18.0733 97.597 18.0733H95.3153L94.8737 22.1708H97.229Z" fill="#1EEDC8"/>
<path d="M114.967 13.6099H119.825L118.794 31.244H127.995L127.774 36.0732H113.421L114.967 13.6099Z" fill="#1EEDC8"/>
<path d="M139.771 26.9268L131.822 13.5366H137.563L142.2 22.0244L147.205 13.5366H152.946L144.776 26.9268L144.703 36H139.624L139.771 26.9268Z" fill="#1EEDC8"/>
<path d="M192.397 13.6099L194.384 36.0732H189.158L179.811 22.0977L180.694 36.0732H175.616L174.438 13.6099H179.369L188.57 27.0733L187.466 13.6099H192.397Z" fill="#1EEDC8"/>
<path d="M209.031 35.1221C207.265 34.0977 205.793 32.6342 204.688 30.805C203.584 28.9757 202.922 26.9269 202.628 24.5855C202.407 22.244 202.628 20.1952 203.29 18.5123C204.026 16.7562 205.057 15.4391 206.602 14.4879C208.074 13.5367 209.841 13.0977 211.902 13.0977C213.962 13.0977 215.876 13.5367 217.643 14.4879C219.409 15.4391 220.807 16.7562 221.985 18.5123C223.163 20.2684 223.899 22.3172 224.267 24.6586C224.635 27.0001 224.488 29.1221 223.825 30.9513C223.163 32.7806 222.059 34.244 220.513 35.1952C218.967 36.2196 217.127 36.7318 214.993 36.7318C212.785 36.6586 210.797 36.1464 209.031 35.1221ZM218.379 29.7074C219.262 28.4635 219.556 26.7074 219.262 24.5855C218.967 22.4635 218.231 20.7806 216.98 19.5367C215.802 18.2928 214.33 17.7074 212.564 17.7074C210.797 17.7074 209.473 18.2928 208.589 19.5367C207.706 20.7806 207.412 22.4635 207.633 24.5855C207.853 26.7806 208.589 28.4635 209.841 29.7074C211.018 30.9513 212.564 31.6099 214.404 31.6099C216.097 31.6099 217.495 31.0245 218.379 29.7074Z" fill="#1EEDC8"/>
<path d="M228.462 13.6099H233.541L240.312 28.0245L242.079 14.8538H246.2L253.193 28.0245L254.297 13.6099H259.375L257.609 36.0732H252.677L245.685 22.7562L243.845 36.0732H238.987L228.462 13.6099Z" fill="#1EEDC8"/>
</g>
<path d="M48.8721 32.122H40.4078L38.1262 36.0732H32.606L46.6641 13.6099H50.197L55.0547 36.0732H49.5346L48.8721 32.122ZM48.0625 27.3659L46.9585 20.9269L43.2047 27.3659H48.0625Z" fill="#4B4182"/>
<path d="M67.0519 13.6099H74.633C79.6379 13.6099 81.846 15.7318 81.2572 19.9757C80.9628 22.1708 80.0796 23.8538 78.6075 25.0245C77.1355 26.1952 75.1482 26.7806 72.6457 26.7806H69.8488L68.3768 36.0732H63.2982L67.0519 13.6099ZM72.8665 22.1708C73.9706 22.1708 74.7802 22.0245 75.369 21.7318C75.8842 21.4391 76.2522 20.8538 76.3994 20.0489C76.5466 19.244 76.3258 18.7318 75.8842 18.4391C75.4426 18.1464 74.633 18.0733 73.5289 18.0733H71.2473L70.5848 22.1708H72.8665Z" fill="#4B4182"/>
<path d="M91.0464 13.6099H98.6274C103.632 13.6099 105.914 15.7318 105.546 19.9757C105.325 22.1708 104.589 23.8538 103.191 25.0245C101.792 26.1952 99.8051 26.7806 97.3026 26.7806H94.5057L93.4753 36.0732H88.3967L91.0464 13.6099ZM97.229 22.1708C98.333 22.1708 99.1427 22.0245 99.7315 21.7318C100.247 21.4391 100.541 20.8538 100.615 20.0489C100.688 19.244 100.467 18.7318 100.026 18.4391C99.5843 18.1464 98.7746 18.0733 97.597 18.0733H95.3153L94.8737 22.1708H97.229Z" fill="#4B4182"/>
<path d="M114.967 13.6099H119.825L118.794 31.244H127.995L127.774 36.0732H113.421L114.967 13.6099Z" fill="#4B4182"/>
<path d="M139.771 26.9269L131.822 13.5366H137.563L142.2 22.0244L147.205 13.5366H152.946L144.776 26.9269L144.703 36.0001H139.624L139.771 26.9269Z" fill="#4B4182"/>
<path d="M192.397 13.6099L194.384 36.0732H189.158L179.811 22.0977L180.694 36.0732H175.616L174.438 13.6099H179.369L188.57 27.0733L187.466 13.6099H192.397Z" fill="#4B4182"/>
<path d="M209.031 35.1221C207.265 34.0977 205.793 32.6342 204.688 30.805C203.584 28.9757 202.922 26.9269 202.628 24.5855C202.407 22.244 202.628 20.1952 203.29 18.5123C204.026 16.7562 205.057 15.4391 206.602 14.4879C208.074 13.5367 209.841 13.0977 211.902 13.0977C213.962 13.0977 215.876 13.5367 217.643 14.4879C219.409 15.4391 220.808 16.7562 221.985 18.5123C223.163 20.2684 223.899 22.3172 224.267 24.6586C224.635 27.0001 224.488 29.1221 223.825 30.9513C223.163 32.7806 222.059 34.244 220.513 35.1952C218.967 36.2196 217.127 36.7318 214.993 36.7318C212.785 36.6586 210.798 36.1464 209.031 35.1221ZM218.379 29.7074C219.262 28.4635 219.556 26.7074 219.262 24.5855C218.967 22.4635 218.231 20.7806 216.98 19.5367C215.802 18.2928 214.33 17.7074 212.564 17.7074C210.798 17.7074 209.473 18.2928 208.589 19.5367C207.706 20.7806 207.412 22.4635 207.633 24.5855C207.853 26.7806 208.589 28.4635 209.841 29.7074C211.018 30.9513 212.564 31.6099 214.404 31.6099C216.097 31.6099 217.495 31.0245 218.379 29.7074Z" fill="#4B4182"/>
<path d="M228.462 13.6099H233.541L240.312 28.0245L242.079 14.8538H246.2L253.193 28.0245L254.297 13.6099H259.375L257.609 36.0732H252.677L245.685 22.7562L243.845 36.0732H238.987L228.462 13.6099Z" fill="#4B4182"/>
<defs>
<filter id="filter0_f" x="27.606" y="8.09766" width="236.769" height="33.6342" filterUnits="userSpaceOnUse" color-interpolation-filters="sRGB">
<feFlood flood-opacity="0" result="BackgroundImageFix"/>
<feBlend mode="normal" in="SourceGraphic" in2="BackgroundImageFix" result="shape"/>
<feGaussianBlur stdDeviation="2.5" result="effect1_foregroundBlur"/>
</filter>
</defs>
</svg>
