<svg width="241" height="64" fill="none" xmlns="http://www.w3.org/2000/svg"><path d="M6.207 61.296v-1.695l7.46-23.059L.442 19.248 198.474.598l41.709 27.806-3.052 6.443-47.474 28.823-183.45-2.374z" fill="#785340"/><path d="M.442 21.283v-2.035l13.225 17.634-1.356 4.408L.442 21.283z" fill="#5B4132"/><path d="M13.329 36.881L1.12 19.248 198.813.598l41.37 27.806-49.847 30.518H6.546l6.782-22.04z" fill="#AD795E"/><path d="M3.977 24.055c11.47-2.544 35.087-7.037 37.786-4.647 2.7 2.39 2.25 2.102 1.687 1.66M45.138 28.039c15.407-3.651 49.865-10.157 64.44-6.97M45.138 28.039c15.182.221 47.368-.067 54.656-2.988M77.526 33.682c12.371-3.984 41.026-12.481 56.681-14.606 15.654-2.124 23.841-3.54 25.978-3.983M11.736 50.942c4.274 1.66 17.544 3.984 36.438 0 23.616-4.979 45.546-9.294 56.343-4.647 10.796 4.647 59.716-.995 63.428-2.323 2.968-1.062 31.376-1.328 45.209-1.328" stroke="#CC9477" stroke-width=".926"/><path d="M9.037 54.595c6.298 2.213 21.39 5.975 31.377 3.32 12.483-3.32 47.893-8.87 54.656-7.305 5.735 1.328 8.434 3.321 7.759 5.977M81.237 18.888c31.714-6.086 106.411-15.346 120.446-13.753M105.191 57.25c8.323-3.43 29.15-9.494 45.884-6.307 20.918 3.983 23.28 2.987 29.69 2.655 5.128-.265 12.708-.774 15.857-.996M148.039 50.278l58.367-2.987M12.411 46.96c4.723.884 15.655 2.124 21.593 0 7.422-2.656 24.629-8.63 32.726-7.635 8.097.996 58.704 2.987 65.789-6.97 5.668-7.967 50.495-16.266 82.659-17.925" stroke="#CC9477" stroke-width=".926"/><path d="M8.7 29.366c17.881-1.328 55.398-4.913 62.416-8.63 7.018-3.718 99.415-6.418 144.737-7.303M8.025 28.039c9.784-1.55 30.702-6.639 33.401-6.639 3.201 0 32.052-2.655 41.836-6.307 7.827-2.92 16.307-4.315 19.568-4.647M10.387 31.69c18.556-1.77 57.625-3.784 65.452 2.324 7.827 6.108 69.163 2.545 98.853 0l61.741-3.983M13.76 37.997c8.885-1.66 26.047-4.116 23.617-.664-2.429 3.452-16.756 4.315-23.616 4.315" stroke="#CC9477" stroke-width=".926"/><path d="M12.411 35.673c12.258-1.66 35.965-3.983 32.726 0-4.048 4.98-4.386 5.975-30.702 8.299M3.977 24.055c11.47-2.544 35.087-7.037 37.786-4.647 2.7 2.39 2.25 2.102 1.687 1.66M45.138 28.039c15.407-3.651 49.865-10.157 64.44-6.97M45.138 28.039c15.182.221 47.368-.067 54.656-2.988M77.526 33.682c12.371-3.984 41.026-12.481 56.681-14.606 15.654-2.124 23.841-3.54 25.978-3.983M11.736 50.942c4.274 1.66 17.544 3.984 36.438 0 23.616-4.979 45.546-9.294 56.343-4.647 10.796 4.647 59.716-.995 63.428-2.323 2.968-1.062 31.376-1.328 45.209-1.328" stroke="#CC9477" stroke-width=".926"/><path d="M9.037 54.595c6.298 2.213 21.39 5.975 31.377 3.32 12.483-3.32 47.893-8.87 54.656-7.305 5.735 1.328 8.434 3.321 7.759 5.977M81.237 18.888c31.714-6.086 106.411-15.346 120.446-13.753M105.191 57.25c8.323-3.43 29.15-9.494 45.884-6.307 20.918 3.983 23.28 2.987 29.69 2.655 5.128-.265 12.708-.774 15.857-.996M148.039 50.278l58.367-2.987M12.411 46.96c4.723.884 15.655 2.124 21.593 0 7.422-2.656 24.629-8.63 32.726-7.635 8.097.996 58.704 2.987 65.789-6.97 5.668-7.967 50.495-16.266 82.659-17.925" stroke="#CC9477" stroke-width=".926"/><path d="M8.7 29.366c17.881-1.328 55.398-4.913 62.416-8.63 7.018-3.718 99.415-6.418 144.737-7.303M8.025 28.039c9.784-1.55 30.702-6.639 33.401-6.639 3.201 0 32.052-2.655 41.836-6.307 7.827-2.92 16.307-4.315 19.568-4.647M10.387 31.69c18.556-1.77 57.625-3.784 65.452 2.324 7.827 6.108 69.163 2.545 98.853 0l61.741-3.983M13.76 37.997c8.885-1.66 26.047-4.116 23.617-.664-2.429 3.452-16.756 4.315-23.616 4.315" stroke="#CC9477" stroke-width=".926"/><path d="M12.411 35.673c12.258-1.66 35.965-3.983 32.726 0-4.048 4.98-4.386 5.975-30.702 8.299" stroke="#CC9477" stroke-width=".926"/><g filter="url(#filter0_i)" fill="#56321E"><path d="M96.664 44.684c-.173-1.21-.325-2.298-.454-3.266-.13-.998-.26-1.966-.39-2.903a264.42 264.42 0 00-.81-6.351c-.108-.182-.195-.439-.26-.772-.064-.332-.118-.68-.162-1.043l-.13-1.089a29.19 29.19 0 00-.064-.952l-.227-1.906a7.821 7.821 0 00-.52-2.041c-.064-.121-.172-.318-.324-.59a15.4 15.4 0 01-.226-.544h-.746a4.683 4.683 0 00-.649-.046 4.907 4.907 0 00-.681-.045c-.216-.03-.476-.06-.778-.09h-.52c-.107 0-.226-.016-.356-.046h-.487c-.453.907-.886 1.754-1.297 2.54-.41.757-.8 1.513-1.167 2.269a34.896 34.896 0 00-1.07 2.45c-.325.876-.638 1.89-.94 3.039-.282 1.028-.552 1.77-.812 2.223a7.85 7.85 0 00-.518 1.18 53.965 53.965 0 00-.584 1.542c-.13.393-.303.892-.52 1.497l-.485 2.132-.26.998c-.065.333-.14.695-.227 1.089.022.272.043.499.065.68.022.151.054.333.097.544H84.6c.173-.635.335-1.21.486-1.723.152-.515.292-1.014.422-1.498.151-.514.303-1.043.454-1.587.151-.545.324-1.15.519-1.815a.934.934 0 01.551-.363c.26-.06.54-.09.843-.09.303-.03.616-.046.94-.046h2.303l1.395-.09c.043.393.075.77.097 1.134.043.363.065.604.065.725s-.022.197-.065.227c-.043.03-.065.182-.065.454 0 .816.033 1.542.097 2.177.065.605.141 1.27.228 1.996l1.005.137c.13.03.27.06.421.09h.552c.194 0 .356-.015.486-.045a.697.697 0 01.422-.045l.908-.137zm-4.443-9.48l-.162.271h-2.173a4.82 4.82 0 00-.584-.045c-.54.06-1.038.09-1.492.09 0-.03-.01-.045-.032-.045v-.136l.454-1.36c.216-.817.476-1.634.778-2.45.303-.847.66-1.528 1.07-2.042.13-.151.26-.317.39-.499.151-.181.28-.408.389-.68.086 0 .162.015.227.045h.227v.045c0 .06.032.106.097.137.065.725.173 1.345.324 1.86.152.514.249 1.013.292 1.497l.065 1.633c.022.272.033.544.033.816.021.242.054.53.097.862zM109.087 32.39l-.681.182H107.595c-.129 0-.194-.03-.194-.09l-1.914-.228v-.317l-.519-2.858v-2.041c.109 0 .163-.076.163-.227 0-.182-.044-.439-.13-.772a6.23 6.23 0 01-.097-1.179v-.272l-.584-.635h-1.654l-.584.77V36.52l-.616.136.195.136v7.984l.129.998h.487l.357-.363h2.14l1.427.59c.194 0 .421-.03.681-.09.259-.061.508-.182.746-.364l2.691-1.27c.217-.12.498-.348.844-.68.346-.333.681-.711 1.005-1.134.346-.454.638-.938.876-1.452.237-.514.356-.998.356-1.452 0-.847-.043-1.557-.129-2.132a6.279 6.279 0 00-.422-1.542 4.485 4.485 0 00-.778-1.225 8.113 8.113 0 00-1.233-1.18l-1.751-1.088zm-3.243 3.13l.584-.18c.13-.061.248-.107.357-.137.108-.06.227-.12.356-.181h.13c.151 0 .357.045.616.136.26.06.53.136.811.227.281.09.551.196.811.317.259.121.454.227.583.318.109.09.292.363.552.816.259.424.389.968.389 1.633 0 .242-.043.454-.13.636a2.22 2.22 0 01-.324.498l-.389.454c-.13.151-.227.318-.292.5a8.251 8.251 0 00-.843.362c-.238.121-.465.227-.681.318-.217.06-.444.12-.681.181-.217.03-.454.046-.714.046h-.227c-.065 0-.151-.016-.259-.046h-.422v-1.18l-.227-2.086V35.52zM116.361 33.842a21.133 21.133 0 00-.13 1.543V36.7c0 .726.076 1.361.227 1.905l.324.59 3.438 1.407h.778c.087-.03.184-.076.292-.136.108-.061.227-.152.357-.273l2.724-1.27a8.29 8.29 0 00.648-.454c.303-.211.584-.453.844-.725.281-.303.519-.636.713-.998.195-.363.292-.741.292-1.135 0-1.451-.27-2.767-.811-3.946-.519-1.18-1.265-2.087-2.237-2.722h-.065c-.087 0-.238.015-.454.045-.217.03-.411.046-.584.046a.989.989 0 01-.422-.091.293.293 0 01-.162-.272l-2.302.499a5.532 5.532 0 00-2.238 1.633 4.674 4.674 0 00-.811 1.315c-.216.484-.357 1.059-.421 1.724zm5.999-2.087c.26.121.541.227.843.318.303.09.584.227.844.408.259.151.486.363.681.635.216.273.378.68.486 1.225l-.843 1.724-3.47.998h-.454l-.843-1.043.162-2.722c.13-.09.259-.227.389-.409.13-.18.27-.362.422-.544.173-.212.356-.378.551-.499.216-.151.443-.227.681-.227.151 0 .335.046.551.136zM141.687 33.978l-.973-4.718-1.621-.499-.487.363v7.395l-.389.363h-.551l-1.654.77-.357-.18-.129-.681-.26-.544v-4.99l-.551-2.36h-2.432l-.519.227-.26 2.949.552 1.542-.357 4.945.713 2.495.779.363.908.817.713-.318.13-.317 1.135.181.649-.454 1.297-1.814.421-.272.325.453-.098.318.779.726h1.945l.292-.545v-6.215zM153.173 34.568l.843-.045c.109.06.206.105.292.136.087.03.206.045.357.045a.78.78 0 00.259-.045c.109-.03.206-.06.292-.091a1.46 1.46 0 01.389-.045c.173-.03.39-.046.649-.046a.53.53 0 01.227.046h.26c.043 0 .129-.06.259-.182-.108 0-.162-.106-.162-.317 0-.03.011-.121.032-.273.022-.15.033-.257.033-.317-.022 0-.033-.076-.033-.227a.47.47 0 01.065-.272c-.151-.151-.227-.303-.227-.454 0-.181-.043-.363-.13-.544a.783.783 0 01-.291.09h-.325a1.065 1.065 0 00-.162-.09c-.065-.03-.184-.046-.357-.046-.151-.03-.41-.06-.778-.09-.259-.03-.573-.06-.94-.09-.368-.031-.768-.077-1.2-.137l-.325-5.036-.292-.59-2.14.273-.519 1.043-.097 4.083h-.876a7.587 7.587 0 00-.81-.045 2.68 2.68 0 01-.357.136h-.519c-.151 0-.303-.03-.454-.09h-.519l-.486.589v.817c0 .302.01.604.032.907.043.302.097.574.162.816.065.212.151.348.26.409l.259.317h.486c.109-.03.303-.076.584-.136.022-.06.119-.09.292-.09.13 0 .26.015.389.045.152.03.249.06.292.09h.195a.78.78 0 01.259-.045l.454-.045-.13.907v5.897l.13 2.586.357 1.044.811-.182 2.659.272 1.816-.363a6.27 6.27 0 00.195-1.542 7.41 7.41 0 00-.195-1.633l-1.265-.953v-6.487z"/></g><defs><filter id="filter0_i" x="81" y="23" width="76" height="24" filterUnits="userSpaceOnUse" color-interpolation-filters="sRGB"><feFlood flood-opacity="0" result="BackgroundImageFix"/><feBlend in="SourceGraphic" in2="BackgroundImageFix" result="shape"/><feColorMatrix in="SourceAlpha" values="0 0 0 0 0 0 0 0 0 0 0 0 0 0 0 0 0 0 127 0" result="hardAlpha"/><feOffset dy="1"/><feGaussianBlur stdDeviation=".5"/><feComposite in2="hardAlpha" operator="arithmetic" k2="-1" k3="1"/><feColorMatrix values="0 0 0 0 0 0 0 0 0 0 0 0 0 0 0 0 0 0 0.3 0"/><feBlend in2="shape" result="effect1_innerShadow"/></filter></defs></svg>