<svg width="234" height="74" fill="none" xmlns="http://www.w3.org/2000/svg"><path d="M233.298 17.217L232.62 8.4l-11.19 25.093 2.712 6.782 9.156-23.058z" fill="#5B4132"/><path d="M0 42.987V37.9l24.076-23.058L232.28 8.738l-10.851 25.093 9.495 28.145-2.374 4.408-201.762-4.408L0 42.986z" fill="#785340"/><path d="M.339 37.562l23.736-22.72L232.62 8.4 222.107 34.17l8.816 27.806-202.778-3.052L.339 37.562z" fill="#AD795E"/><path d="M227.967 15.056c-11.09-1.021-37.294-2.075-39.702 0-2.408 2.076-1.999 1.816-1.494 1.426M185.636 22.023c-14.911-1.553-48.149-3.74-61.807-.063M185.635 22.023c-14.436 1.429-45.092 3.872-52.225 2.213M158.748 31.191c-12.044-2.062-39.892-6.272-54.936-6.621-15.044-.35-22.932-.769-24.996-.935M223.478 45.088c-4.192 2.088-21.856 5.063-41.403 2.628-24.434-3.045-44.894-11.585-55.443-5.84-10.549 5.745-60.888 1.04-64.776 0-3.111-.832-31.844 4.617-45.894 5.84M224.5 49.806c-5.764 3.165-19.739 8.907-29.52 6.564-12.227-2.93-46.509-6.625-52.783-4.195-5.322 2.06-7.684 4.664-6.765 7.78M150.656 17.922c-30.597-2.088-102.32-3.075-115.572-.678" stroke="#CC9477" stroke-width=".926"/><path d="M140.671 51.531c-10.061-2.638-35.031-6.622-54.422-1.455-24.24 6.46-27.097 5.687-34.654 6.054-6.046.294-14.992.607-18.71.727M89.76 49.05l-68.809 3.378M222.48 40.732c-4.436 1.077-20.642-.841-26.438-1.996-7.244-1.442-22.29-1.442-29.93 0-7.64 1.443-55.943.999-63.359-6.13-5.932-5.704-60.054-6.222-90.78-4.844M226.185 21.152c-17.11.452-53.062.783-59.992-1.517s-95.06 3.263-138.26 6.332M220.961 18.948c-9.418-.39-29.671-2.6-32.24-2.377-3.047.265-30.687.598-40.246-1.421-7.648-1.615-15.813-1.993-18.939-1.98" stroke="#CC9477" stroke-width=".926"/><path d="M223.976 25.767c-17.781.165-54.817-.393-61.855 4.988-7.038 5.381-70.967 6.143-99.399 6.63L3.686 39.414M222.01 31.378c-8.568-.55-25.069-1.032-22.524 1.442 2.545 2.474 16.241 1.956 22.77 1.387" stroke="#CC9477" stroke-width=".926"/><path d="M223.138 29.466c-11.78-.27-34.502-.107-31.15 2.712 4.189 3.522 4.577 4.266 29.782 3.886" stroke="#CC9477" stroke-width=".926"/><g filter="url(#filter0_i)" fill="#56321E"><path d="M108.791 27.556l-1.727.452-.951-.351H96.74l-.74.753v22.289l2.326.301 3.523-.753.141-2.861-.599-1.858-.317-4.719h1.797l2.678-.652.634.25h1.198l.318-.803.176-1.204-.494-.302-2.607-.602h-3.77l-.282-.753v-4.669l-.106-.25.317-.402 1.304.3.07.553.071.05.599-.602h5.497l.564-1.104-.247-3.063zM129.728 49.996a428.65 428.65 0 01-.494-3.614 401.637 401.637 0 00-.422-3.213 296.11 296.11 0 00-.881-7.028c-.118-.201-.212-.486-.282-.854a15.802 15.802 0 01-.176-1.154l-.141-1.205a32.618 32.618 0 00-.071-1.054l-.246-2.109a8.778 8.778 0 00-.564-2.259 58.175 58.175 0 00-.353-.653 15.641 15.641 0 01-.246-.602h-.811a4.986 4.986 0 00-.704-.05 5.247 5.247 0 00-.74-.05 21.694 21.694 0 00-.846-.1h-.564c-.117 0-.247-.017-.387-.051H121.271a174.124 174.124 0 01-1.41 2.811 62.844 62.844 0 00-1.268 2.51c-.399.837-.787 1.74-1.163 2.711-.352.97-.693 2.092-1.022 3.364-.305 1.137-.599 1.957-.881 2.46a8.748 8.748 0 00-.563 1.305c-.259.669-.47 1.238-.635 1.706-.141.436-.329.988-.563 1.657l-.529 2.36-.282 1.104c-.07.368-.153.77-.247 1.205.024.301.047.552.071.753.023.167.059.368.106.602h3.735c.188-.703.364-1.339.528-1.907.165-.57.317-1.122.458-1.657.165-.569.329-1.155.494-1.757.164-.602.352-1.272.563-2.008.141-.2.341-.335.599-.402.282-.067.588-.1.917-.1.328-.034.669-.05 1.021-.05h2.502l1.515-.1c.047.434.083.853.106 1.254.047.402.071.67.071.803 0 .134-.024.218-.071.252-.047.033-.07.2-.07.502 0 .903.035 1.706.105 2.41.071.669.153 1.405.247 2.208l1.092.15c.141.034.294.068.458.101h.599c.212 0 .388-.017.529-.05a.743.743 0 01.458-.05l.987-.151zM124.9 39.504l-.176.301H122.363a5.148 5.148 0 00-.634-.05c-.587.067-1.128.1-1.621.1 0-.033-.012-.05-.035-.05V39.655l.493-1.506c.235-.904.517-1.808.846-2.711.329-.937.716-1.69 1.163-2.26.141-.167.282-.35.423-.551.164-.201.305-.452.422-.754.094 0 .177.017.247.05h.247v.05c0 .068.035.118.105.151.071.804.188 1.49.353 2.059.164.569.27 1.12.317 1.656l.07 1.808c.024.3.036.602.036.903.023.268.058.586.105.954zM148.793 43.67c.165-.234.341-.501.529-.803.188-.3.364-.619.529-.953.187-.369.34-.737.458-1.105.117-.401.176-.77.176-1.104 0-2.61-.376-4.953-1.128-7.028-.751-2.075-1.844-3.682-3.277-4.82a.391.391 0 00-.282-.1h-.669a.94.94 0 00-.317.05h-.282c-.235 0-.435-.033-.599-.1-.165-.067-.259-.218-.282-.452l-3.383.954a9.45 9.45 0 00-1.726 1.154 8.93 8.93 0 00-1.586 1.758c-.47.669-.857 1.455-1.163 2.359-.282.904-.458 1.941-.528 3.112a81.617 81.617 0 01-.177 2.812c-.047.836-.07 1.656-.07 2.46 0 .568.023 1.137.07 1.706a9.69 9.69 0 00.318 1.707l.422.954 4.969 2.51h.634c.188 0 .352-.017.493-.05.165-.067.317-.15.458-.251.141-.1.329-.268.564-.502l2.784-1.657c.188.435.387.87.599 1.305.235.435.552.937.951 1.506-.023.335.059.603.247.804.211.167.399.318.564.451l.669.502 1.234-.803c.469-.334.916-.619 1.339-.853.446-.268.669-.502.669-.703 0-.268-.094-.519-.282-.753-.164-.268-.387-.62-.669-1.054l-.917-1.205a10.418 10.418 0 00-.704-.904l-.635-.903zm-2.008-3.162l-.81-1.255a5.214 5.214 0 00-.388-.653l-.352-.702-1.692-2.51c-.117.067-.258.25-.423.552-.141.301-.305.619-.493.954-.188.334-.376.635-.564.903-.164.268-.329.402-.493.402-.07 0-.117-.05-.141-.15l1.797 3.563c.071.1.118.151.141.151l-1.515.502h-.634l-1.304-1.757v-.502c0-.335-.012-.653-.035-.954v-.903c0-.402.011-.787.035-1.155.047-.402.141-.87.282-1.406.188-.167.387-.401.599-.703.211-.334.434-.652.669-.953.259-.335.529-.62.811-.854.282-.267.587-.401.916-.401.164 0 .376.05.634.15.259.067.54.184.846.352.329.134.634.3.916.502.282.167.54.318.775.452.376.334.705.77.987 1.305.282.502.493 1.205.634 2.108l-1.198 2.962z"/></g><defs><filter id="filter0_i" x="96" y="26" width="56" height="26" filterUnits="userSpaceOnUse" color-interpolation-filters="sRGB"><feFlood flood-opacity="0" result="BackgroundImageFix"/><feBlend in="SourceGraphic" in2="BackgroundImageFix" result="shape"/><feColorMatrix in="SourceAlpha" values="0 0 0 0 0 0 0 0 0 0 0 0 0 0 0 0 0 0 127 0" result="hardAlpha"/><feOffset dy="1"/><feGaussianBlur stdDeviation=".5"/><feComposite in2="hardAlpha" operator="arithmetic" k2="-1" k3="1"/><feColorMatrix values="0 0 0 0 0 0 0 0 0 0 0 0 0 0 0 0 0 0 0.3 0"/><feBlend in2="shape" result="effect1_innerShadow"/></filter></defs></svg>