<svg width="633" height="314" viewBox="0 0 633 314" fill="none" xmlns="http://www.w3.org/2000/svg">
<g filter="url(#filter0_f)">
<path opacity="0.8" d="M311.5 202.763H507L409.25 253.654L311.5 304.607L213.75 253.654L116 202.763H311.5Z" stroke="#1EEDC8" stroke-width="2" stroke-miterlimit="10"/>
<path opacity="0.8" d="M154.994 213.415H486.53" stroke="#1EEDC8" stroke-width="2" stroke-miterlimit="10"/>
<path opacity="0.8" d="M180.773 224.689H429.838" stroke="#1EEDC8" stroke-width="2" stroke-miterlimit="10"/>
<path opacity="0.8" d="M180.655 235.901H487.238" stroke="#1EEDC8" stroke-width="2" stroke-miterlimit="10"/>
<path opacity="0.8" d="M269.852 247.176H421.697" stroke="#1EEDC8" stroke-width="2" stroke-miterlimit="10"/>
<path opacity="0.8" d="M218.115 258.45H448.126" stroke="#1EEDC8" stroke-width="2" stroke-miterlimit="10"/>
<path opacity="0.8" d="M235.813 269.725H414.382" stroke="#1EEDC8" stroke-width="2" stroke-miterlimit="10"/>
<path opacity="0.8" d="M235.813 280.999L392.142 278.445" stroke="#1EEDC8" stroke-width="2" stroke-miterlimit="10"/>
<path opacity="0.8" d="M262.713 292.211H344.535" stroke="#1EEDC8" stroke-width="2" stroke-miterlimit="10"/>
<path opacity="0.8" d="M311.618 304.607L437.448 182.519" stroke="#1EEDC8" stroke-width="2" stroke-miterlimit="10"/>
<path opacity="0.8" d="M311.795 304.607L185.906 182.519" stroke="#1EEDC8" stroke-width="2" stroke-miterlimit="10"/>
<path opacity="0.8" d="M311.028 304.607L248.85 151" stroke="#1EEDC8" stroke-width="2" stroke-miterlimit="10"/>
<path opacity="0.8" d="M373.619 151L311.5 304.607V171.307" stroke="#1EEDC8" stroke-width="2" stroke-miterlimit="10"/>
<path opacity="0.8" d="M215.52 247.176H256.106" stroke="#1EEDC8" stroke-width="2" stroke-miterlimit="10"/>
</g>
<path opacity="0.8" d="M311.5 202.763H507L409.25 253.654L311.5 304.607L213.75 253.654L116 202.763H311.5Z" stroke="#D0FFFF" stroke-width="2" stroke-miterlimit="10"/>
<path opacity="0.8" d="M154.994 213.415H486.53" stroke="#D0FFFF" stroke-width="2" stroke-miterlimit="10"/>
<path opacity="0.8" d="M180.773 224.689H429.838" stroke="#D0FFFF" stroke-width="2" stroke-miterlimit="10"/>
<path opacity="0.8" d="M180.655 235.901H487.238" stroke="#D0FFFF" stroke-width="2" stroke-miterlimit="10"/>
<path opacity="0.8" d="M269.852 247.176H421.697" stroke="#D0FFFF" stroke-width="2" stroke-miterlimit="10"/>
<path opacity="0.8" d="M218.115 258.45H448.126" stroke="#D0FFFF" stroke-width="2" stroke-miterlimit="10"/>
<path opacity="0.8" d="M235.813 269.725H414.382" stroke="#D0FFFF" stroke-width="2" stroke-miterlimit="10"/>
<path opacity="0.8" d="M235.813 280.999L392.142 278.445" stroke="#D0FFFF" stroke-width="2" stroke-miterlimit="10"/>
<path opacity="0.8" d="M262.713 292.211H344.535" stroke="#D0FFFF" stroke-width="2" stroke-miterlimit="10"/>
<path opacity="0.8" d="M311.618 304.607L437.448 182.519" stroke="#D0FFFF" stroke-width="2" stroke-miterlimit="10"/>
<path opacity="0.8" d="M311.795 304.607L185.906 182.519" stroke="#D0FFFF" stroke-width="2" stroke-miterlimit="10"/>
<path opacity="0.8" d="M311.028 304.607L248.85 151" stroke="#D0FFFF" stroke-width="2" stroke-miterlimit="10"/>
<path opacity="0.8" d="M373.619 151L311.5 304.607V171.307" stroke="#D0FFFF" stroke-width="2" stroke-miterlimit="10"/>
<path opacity="0.8" d="M215.52 247.176H256.106" stroke="#D0FFFF" stroke-width="2" stroke-miterlimit="10"/>
<path d="M343.314 31.7145C376.085 48.4054 389.077 88.396 372.255 121.006C355.482 153.616 315.294 166.544 282.523 149.805C281.941 149.516 281.408 149.226 280.826 148.937L341.569 30.8462C342.15 31.1356 342.732 31.4251 343.314 31.7145Z" fill="#9E9E9E"/>
<path d="M278.451 157.089C245.486 145.222 228.47 108.994 240.396 76.1914C252.321 43.3885 288.728 26.4564 321.693 38.3233C322.274 38.5163 322.808 38.7575 323.389 38.9504L280.147 157.62C279.614 157.475 279.032 157.282 278.451 157.089Z" fill="#9E9E9E"/>
<g filter="url(#filter1_f)">
<path d="M278.451 157.089C245.486 145.222 228.47 108.994 240.396 76.1914C252.321 43.3885 288.728 26.4564 321.693 38.3233C322.274 38.5163 322.808 38.7575 323.389 38.9504L280.147 157.62C279.614 157.475 279.032 157.282 278.451 157.089Z" fill="#ED811E"/>
<path d="M343.314 31.7145C376.085 48.4054 389.077 88.396 372.255 121.006C355.482 153.616 315.294 166.544 282.523 149.805C281.941 149.516 281.408 149.226 280.826 148.937L341.569 30.8462C342.15 31.1356 342.732 31.4251 343.314 31.7145Z" fill="#ED811E"/>
</g>
<path d="M278.451 157.089C245.486 145.222 228.47 108.994 240.396 76.1914C252.321 43.3885 288.728 26.4564 321.693 38.3233C322.274 38.5163 322.808 38.7575 323.389 38.9504L280.147 157.62C279.614 157.475 279.032 157.282 278.451 157.089Z" fill="#FFECD6"/>
<path d="M343.314 31.7145C376.085 48.4054 389.077 88.396 372.255 121.006C355.482 153.616 315.294 166.544 282.523 149.805C281.941 149.516 281.408 149.226 280.826 148.937L341.569 30.8462C342.15 31.1356 342.732 31.4251 343.314 31.7145Z" fill="#FFECD6"/>
<path d="M174.127 143.679L177.714 143.244C182.756 142.617 201.808 137.166 270.064 99.8287C276.609 96.259 280.778 93.8953 280.826 93.8953L281.65 93.4611L300.169 98.8157L327.268 74.7441L440.317 138.613L445.262 136.636L447.88 157.909L193.518 171.754L174.127 143.679Z" fill="#4B4182"/>
<path d="M327.461 77.3492L365.662 98.9606L440.026 140.977L443.323 139.675L445.31 155.835L194.584 169.535L177.908 145.415C193.373 143.534 247.716 114.494 271.034 101.71C277.675 98.0923 281.796 95.7285 281.796 95.7285L300.556 101.18L327.461 77.3492ZM326.928 71.9946L324.601 74.0689L299.538 96.3074L283.104 91.5317L281.359 91.001L279.76 91.9176C279.711 91.9176 275.59 94.2813 269.046 97.8511C221.926 123.659 187.701 139.771 177.472 141.025L170.346 141.894L174.418 147.779L191.094 171.899L192.5 173.925L194.924 173.78L445.553 160.177L450.207 159.935L449.625 155.353L447.637 139.192L446.959 133.597L441.675 135.719L440.366 136.25L367.795 95.2461L329.594 73.6348L326.928 71.9946Z" fill="#41377A"/>
<path d="M365.516 104.074L368.571 104.556L369.782 111.213L381.175 108.56C381.175 108.56 381.126 115.217 370.801 117.533L376.521 147.586L370.219 147.296L365.807 118.304L359.845 114.397L365.08 112.419L364.401 109.187L359.796 109.911C359.796 109.911 362.123 106.968 365.129 106.341L365.516 104.074Z" fill="#382E73"/>
<path d="M500.478 207.258L510.319 199.492H500.478V207.258Z" fill="#4B4182"/>
<path d="M500.478 207.258L510.319 199.492H500.478V207.258Z" fill="#382E73"/>
<path d="M85.6555 186.998L111.349 207.259H121.529V185.068C121.529 185.068 85.6555 187.046 85.6555 186.998Z" fill="#382E73"/>
<path d="M500.623 207.258V199.54H119.832V207.258H500.623Z" fill="#382E73"/>
<path d="M365.662 98.9125C348.792 105.666 334.054 112.13 334.054 112.13L321.014 106.92L300.12 122.116L270.985 101.662C277.627 98.0442 281.747 95.6805 281.747 95.6805L300.508 101.132L327.364 77.2529L365.662 98.9125Z" fill="#958AD6"/>
<path d="M422.671 112.227L409.534 142.473L427.374 160.9C427.374 160.9 430.234 148.647 430.234 147.441C430.234 146.187 422.671 112.227 422.671 112.227Z" fill="#382E73"/>
<path d="M519.53 148.888V192.304H101.168V148.888H363.577C363.868 150.046 364.014 151.252 364.111 152.458C364.111 152.651 364.159 152.844 364.159 153.037C364.159 153.326 364.208 153.616 364.208 153.905L366.001 151.445L367.843 148.888H519.53Z" fill="#382E73"/>
<path d="M510.271 186.998H101.653V199.54H510.271V186.998Z" fill="#382E73"/>
<path d="M510.227 199.54L529.322 185.165L510.227 186.998V199.54Z" fill="#382E73"/>
<path d="M147.222 136.346L159.826 148.889L151.1 157.572" fill="#382E73"/>
<path d="M180.187 132.004L186.004 140.205L181.641 148.888L180.187 132.004Z" fill="#4B4182"/>
<path d="M236.663 131.86L243.014 142.473L240.638 151.59L225.998 150.384L236.663 131.86Z" fill="#382E73"/>
<path d="M205.637 131.86L212.279 138.517L207.189 149.516L205.637 131.86Z" fill="#382E73"/>
<path d="M320.19 122.502L324.892 113.625L328.043 123.659H326.54L330.564 134.272L323.971 133.983L323.389 138.276L320.432 137.842L321.208 133.114L315.245 132.825L322.274 123.08L320.19 122.502Z" fill="#382E73"/>
<path d="M266.137 112.274L276.463 138.661L261.92 140.688L266.137 112.274Z" fill="#382E73"/>
<path d="M305.55 112.274L314.373 151.059L302.35 151.976" fill="#382E73"/>
<path d="M313.015 143.92L307.004 152.748L321.256 152.265L321.45 148.599L313.015 143.92Z" fill="#382E73"/>
<path d="M376.181 137.456C376.181 137.456 376.181 137.504 376.133 137.552C375.794 138.372 373.612 143.727 371.818 148.117C371.722 148.358 371.576 148.647 371.479 148.888C370.8 150.529 370.17 151.976 369.782 152.892C369.54 153.471 369.346 153.857 369.346 153.905C369.298 153.954 369.007 154.002 368.619 154.05C367.989 154.098 367.019 154.146 366.147 154.146C365.322 154.146 364.595 154.195 364.207 154.195C364.062 154.195 363.965 154.195 363.965 154.195L364.207 153.905L366.001 151.445L367.843 148.888L368.425 148.117L371.479 143.92L373.273 141.459L375.988 137.745L376.036 137.649L376.181 137.456Z" fill="#382E73"/>
<path d="M487.534 136.829L470.567 150.529L488.165 151.783L487.534 136.829Z" fill="#382E73"/>
<path d="M455.345 131.86L447.541 138.517L449.383 142.473L455.345 131.86Z" fill="#4B4182"/>
<path d="M221.247 224.287C224.253 214.301 227.258 204.316 230.216 194.378H401.778C401.778 194.378 408.322 216.134 410.746 224.287H221.247Z" fill="#4B4182"/>
<path d="M400.129 196.501L401.729 201.855C403.765 208.609 405.801 215.362 407.789 222.068H224.156C226.725 213.529 229.294 204.991 231.864 196.453H400.129V196.501ZM403.377 192.159H228.616C225.174 203.592 221.78 215.025 218.339 226.458H413.703C410.261 215.025 406.819 203.592 403.377 192.159Z" fill="#382E73"/>
<path d="M400.226 226.361H233.27V232.343H400.226V226.361Z" fill="#382E73"/>
<path d="M234.288 239L218.29 226.458H234.288V239Z" fill="#382E73"/>
<path d="M341.568 117.292L349.47 102.482L354.657 119.269H352.137L358.923 136.973L347.919 136.491L346.949 143.63L341.956 142.907L343.314 134.995L333.279 134.513L345.01 118.256L341.568 117.292Z" fill="#382E73"/>
<path d="M397.705 239L413.703 226.458H397.705V239Z" fill="#382E73"/>
<path d="M4.54067 74.6816C0.698591 86.8234 8.07943 98.3075 20.9201 100.179C83.1516 113.738 145.333 127.296 207.564 140.854C207.817 133.569 208.019 126.284 208.272 118.999C140.378 104.227 72.4848 89.4541 4.54067 74.6816Z" fill="#675CA9" stroke="#41377A" stroke-width="6" stroke-miterlimit="3"/>
<path d="M56.9143 108.324C55.0944 117.582 61.3125 125.272 70.6143 126.942C116.113 136.857 161.56 146.723 207.059 156.638C207.261 150.416 207.362 147.33 207.564 141.107C157.314 130.179 107.114 119.252 56.9143 108.324Z" fill="#675CA9" stroke="#41377A" stroke-width="6" stroke-miterlimit="3"/>
<path d="M77.6413 128.813C76.2763 138.375 83.0505 145.964 92.4535 147.684C130.47 155.981 168.486 164.227 206.503 172.524C206.705 166.301 206.806 163.215 207.008 156.992C163.936 147.583 120.764 138.223 77.6413 128.813Z" fill="#675CA9" stroke="#41377A" stroke-width="6" stroke-miterlimit="3"/>
<path d="M628.828 82.1187C632.72 94.311 625.339 105.744 612.448 107.667C550.267 121.175 488.036 134.733 425.855 148.291C425.602 141.006 425.4 133.721 425.147 126.436C493.041 111.664 560.934 96.8911 628.828 82.1187Z" fill="#675CA9" stroke="#41377A" stroke-width="6" stroke-miterlimit="3"/>
<path d="M576.505 115.761C578.325 125.019 572.107 132.709 562.805 134.379C517.306 144.294 471.859 154.16 426.36 164.075C426.158 157.853 426.057 154.767 425.855 148.544C476.055 137.616 526.305 126.689 576.505 115.761Z" fill="#675CA9" stroke="#41377A" stroke-width="6" stroke-miterlimit="3"/>
<path d="M555.727 136.25C557.092 145.812 550.318 153.401 540.915 155.121C502.899 163.418 464.882 171.664 426.866 179.961C426.664 173.738 426.563 170.652 426.36 164.429C469.483 155.02 512.605 145.66 555.727 136.25Z" fill="#675CA9" stroke="#41377A" stroke-width="6" stroke-miterlimit="3"/>
<path d="M145.865 151.59C143.489 162.106 141.065 172.622 138.69 183.09H123.42C125.553 174.359 127.734 165.676 129.867 156.944C130.303 155.159 130.546 153.616 130.643 152.265C130.691 150.963 130.303 149.805 129.479 148.744C128.655 147.73 127.055 147.2 124.728 147.2C121.965 147.2 119.735 147.923 118.039 149.371C116.342 150.818 115.081 152.458 114.306 154.339C113.53 156.172 112.754 158.391 112.076 160.948C110.088 168.329 108.101 175.661 106.162 183.042H90.8911C95.448 167.268 100.005 151.445 104.562 135.671H118.911C118.426 137.455 118.184 138.324 117.748 140.109C121.723 136.394 127.055 134.561 132.533 134.609C137.914 134.609 141.744 136.153 144.119 139.192C146.398 142.279 147.028 146.38 145.865 151.59Z" fill="#4B4182"/>
<path d="M147.367 136.491C144.071 132.294 138.593 130.702 133.406 130.847C129.867 130.847 126.522 131.426 123.516 132.632C123.613 132.342 123.613 132.198 123.71 131.908H101.847C101.411 133.452 101.168 134.224 100.732 135.767C96.0782 151.59 91.4728 167.364 86.819 183.139C86.3827 184.682 86.1403 185.454 85.704 186.998H109.167C109.555 185.454 109.749 184.682 110.185 183.139C112.124 175.758 114.063 168.426 116.002 161.045C116.633 158.681 117.311 156.655 117.99 155.015C118.475 153.905 119.202 152.941 120.22 152.072C121.093 151.3 122.644 151.156 123.759 151.156C125.649 151.156 126.086 151.59 126.134 151.638C126.619 152.265 126.668 152.748 126.668 153.085C126.619 154.147 126.377 155.497 125.989 156.993C123.807 165.724 121.626 174.407 119.396 183.139C119.008 184.682 118.814 185.454 118.426 186.998H141.889C142.229 185.454 142.423 184.682 142.762 183.139C145.089 172.622 147.416 162.106 149.791 151.638C149.985 150.77 150.179 149.853 150.276 148.937C150.761 144.547 150.082 140.012 147.367 136.491ZM146.155 150.191C146.107 150.625 146.01 151.108 145.865 151.542C143.489 162.058 141.065 172.574 138.69 183.042H123.42C125.553 174.311 127.734 165.628 129.867 156.896C130.303 155.111 130.546 153.568 130.643 152.217C130.691 151.542 130.594 150.866 130.352 150.287C130.303 150.143 130.255 150.046 130.206 149.902C130.158 149.805 130.109 149.66 130.012 149.564V149.516C129.964 149.419 129.916 149.323 129.819 149.226C129.819 149.226 129.77 149.178 129.77 149.13C129.673 149.033 129.625 148.888 129.528 148.792C129.528 148.744 129.479 148.744 129.479 148.696C128.655 147.682 127.055 147.152 124.728 147.152C124.535 147.152 124.389 147.152 124.195 147.152C124.05 147.152 123.856 147.152 123.71 147.152C123.516 147.152 123.323 147.2 123.129 147.2C123.032 147.2 122.886 147.2 122.789 147.248C122.547 147.297 122.353 147.297 122.159 147.345C122.014 147.345 121.917 147.393 121.771 147.441C121.529 147.49 121.238 147.586 120.996 147.634C120.899 147.682 120.85 147.682 120.753 147.731C120.608 147.779 120.414 147.827 120.268 147.924C120.172 147.972 120.026 148.02 119.929 148.068C119.832 148.117 119.735 148.165 119.59 148.213C119.25 148.358 118.96 148.551 118.62 148.792C118.572 148.84 118.523 148.84 118.523 148.888C118.426 148.937 118.329 148.985 118.281 149.081C118.184 149.178 118.087 149.226 117.942 149.323C116.245 150.77 114.984 152.41 114.209 154.291C113.433 156.124 112.658 158.343 111.979 160.9C109.991 168.281 108.004 175.613 106.065 182.994H90.7941C95.351 167.22 99.9079 151.397 104.465 135.623H118.814C118.329 137.407 118.087 138.276 117.651 140.061C121.626 136.346 126.958 134.513 132.436 134.561C137.817 134.561 141.647 136.105 144.022 139.144C144.701 140.012 145.283 141.025 145.671 142.087C145.719 142.231 145.768 142.376 145.816 142.569C145.913 142.907 146.01 143.196 146.059 143.534C146.107 143.679 146.155 143.872 146.155 144.016C146.349 145.029 146.398 146.042 146.398 147.2C146.398 147.393 146.398 147.538 146.398 147.731C146.398 147.924 146.349 148.068 146.349 148.261C146.349 148.454 146.301 148.599 146.301 148.792C146.252 149.323 146.204 149.757 146.155 150.191Z" fill="#382E73"/>
<path d="M231.04 135.719C224.107 151.638 216.981 167.413 209.564 183.09H196.087C194.875 174.214 193.76 165.29 192.694 156.366C188.767 165.29 184.744 174.214 180.72 183.09H167.098C164.916 167.316 162.977 151.542 161.329 135.719H176.551C177.23 144.113 177.957 152.458 178.732 160.804C182.562 152.458 186.343 144.113 190.028 135.719H202.099C203.068 144.016 204.086 152.314 205.201 160.611C208.74 152.314 212.279 144.016 215.721 135.719H231.04Z" fill="#4B4182"/>
<path d="M213.394 131.86C212.909 132.97 212.715 133.549 212.23 134.658C210.291 139.241 209.322 141.556 207.383 146.139C206.801 141.556 206.51 139.241 205.977 134.658C205.831 133.549 205.783 132.97 205.637 131.812H187.846C187.361 132.97 187.07 133.5 186.586 134.658C184.55 139.241 183.532 141.508 181.447 146.091C181.011 141.508 180.817 139.241 180.429 134.658C180.332 133.549 180.284 132.97 180.187 131.812H157.014C157.208 133.838 157.305 134.803 157.499 136.829C157.887 140.833 158.323 144.837 158.76 148.841C160.02 160.659 161.474 172.43 163.074 184.2C163.22 185.261 163.316 185.792 163.462 186.902H183.289C183.822 185.744 184.065 185.213 184.598 184.055C186.586 179.666 188.573 175.324 190.512 170.934C191.143 176.192 191.482 178.846 192.209 184.104C192.355 185.213 192.451 185.792 192.597 186.902H212.182C212.667 185.84 212.957 185.31 213.442 184.248C218.92 172.526 224.253 160.708 229.488 148.841C231.234 144.837 232.979 140.833 234.724 136.829C235.597 134.803 236.033 133.838 236.857 131.812H213.394V131.86ZM228.179 142.28C227.21 144.451 226.24 146.67 225.271 148.841C224.641 150.288 224.01 151.687 223.332 153.134C222.798 154.34 222.217 155.594 221.683 156.8C221.538 157.138 221.393 157.427 221.247 157.765C220.811 158.778 220.326 159.791 219.89 160.756C218.193 164.518 216.448 168.281 214.703 172.044C214.024 173.539 213.345 175.035 212.618 176.53C211.6 178.701 210.582 180.872 209.564 183.042H196.087C194.875 174.166 193.76 165.242 192.694 156.318C188.767 165.242 184.744 174.166 180.72 183.042H167.098C166.807 180.823 166.468 178.604 166.177 176.385C166.031 175.179 165.837 173.925 165.692 172.719C165.595 171.899 165.449 171.031 165.353 170.211C164.868 166.448 164.383 162.637 163.947 158.874C163.753 157.475 163.607 156.125 163.462 154.726C163.22 152.748 162.977 150.77 162.783 148.792C162.541 146.622 162.298 144.403 162.056 142.232C161.814 140.061 161.571 137.842 161.329 135.623H176.551C176.89 140.013 177.278 144.403 177.666 148.792C178.005 152.748 178.393 156.752 178.732 160.708C180.574 156.752 182.368 152.748 184.162 148.792C186.149 144.403 188.089 140.013 190.076 135.623H202.147C202.68 140.013 203.165 144.403 203.747 148.792C204.232 152.7 204.716 156.607 205.25 160.515C206.946 156.607 208.595 152.7 210.243 148.792C212.085 144.403 213.927 140.013 215.769 135.623H231.088C230.119 137.89 229.149 140.109 228.179 142.28Z" fill="#382E73"/>
<path d="M301.768 116.086C301.235 138.421 300.75 160.756 300.217 183.091H284.316C284.704 173.877 285.092 164.615 285.528 155.401H259.06C258.333 164.615 257.605 173.829 256.927 183.091H241.026C243.207 160.756 245.389 138.421 247.57 116.086H262.114C261.435 124.576 260.805 133.066 260.126 141.556H286.11C286.498 133.066 286.837 124.576 287.225 116.086H301.768Z" fill="#4B4182"/>
<path d="M283.735 112.275C283.638 113.819 283.638 114.59 283.541 116.134C283.202 123.322 282.862 130.558 282.474 137.745H264.247C264.78 130.558 265.313 123.322 265.798 116.134C265.895 114.59 265.992 113.819 266.089 112.275H244.274C244.129 113.819 244.032 114.59 243.886 116.134C242.771 127.036 241.656 137.987 240.493 148.889C239.329 160.273 238.166 171.706 236.954 183.091C236.808 184.634 236.711 185.406 236.566 186.95H260.659C260.756 185.406 260.805 184.634 260.95 183.091C261.532 175.131 262.114 167.22 262.696 159.26H281.456C281.069 167.22 280.681 175.131 280.293 183.091C280.196 184.634 280.196 185.406 280.099 186.95H304.192C304.192 185.406 304.241 184.634 304.241 183.091C304.435 171.706 304.677 160.273 304.871 148.889C305.065 137.987 305.259 127.036 305.453 116.134C305.501 114.59 305.501 113.819 305.55 112.275H283.735ZM300.217 183.091H284.317C284.704 173.877 285.092 164.615 285.528 155.401H259.06C258.333 164.615 257.605 173.829 256.927 183.091H241.026C242.141 171.706 243.256 160.273 244.371 148.889C245.437 137.987 246.504 127.036 247.57 116.134H262.114C261.435 124.624 260.805 133.114 260.126 141.605H286.11C286.498 133.114 286.837 124.624 287.225 116.134H301.768C301.526 127.036 301.284 137.987 300.993 148.889C300.75 160.273 300.508 171.706 300.217 183.091Z" fill="#382E73"/>
<path d="M360.329 152.989C360.281 151.59 360.038 150.191 359.699 148.84C358.73 145.271 356.742 141.99 353.833 139.578C349.422 135.96 343.653 134.561 337.981 134.61C333.667 134.61 329.546 135.333 325.571 136.829C321.596 138.324 318.154 140.543 315.294 143.582C317.427 145.367 319.56 147.104 321.644 148.84C323.05 149.998 324.456 151.156 325.862 152.314C327.413 150.77 328.964 149.612 330.419 148.84C330.806 148.647 331.146 148.454 331.534 148.31C333.376 147.586 335.266 147.2 337.254 147.2C339.823 147.2 341.859 147.731 343.362 148.792L343.411 148.84C344.865 149.902 345.641 151.252 345.689 152.989C345.689 153.278 345.689 153.471 345.738 153.761H332.503C328.092 153.761 324.407 154.581 321.402 156.173C319.317 157.33 317.718 158.874 316.506 160.852C315.342 162.83 314.712 165.145 314.712 167.798C314.712 170.982 315.536 173.828 317.184 176.289C318.832 178.749 321.111 180.678 324.068 182.077C327.025 183.428 330.37 184.152 334.054 184.152C338.999 184.248 343.895 182.415 346.901 178.363C347.386 180.244 347.628 181.209 348.113 183.09H362.075C361.493 173.057 360.911 163.023 360.329 152.989ZM343.217 170.21C341.278 171.754 338.951 172.526 336.236 172.526C334.151 172.526 332.6 172.092 331.485 171.272C330.37 170.452 329.788 169.39 329.788 168.088C329.74 166.882 330.225 165.917 331.194 165.29C332.018 164.711 333.279 164.422 334.927 164.422H346.174C346.125 166.737 345.156 168.667 343.217 170.21Z" fill="#4B4182"/>
<path d="M346.174 164.47C346.125 166.786 345.156 168.715 343.217 170.211C341.278 171.706 338.951 172.526 336.236 172.526C334.151 172.526 332.6 172.092 331.485 171.272C330.37 170.452 329.788 169.391 329.788 168.088C329.74 166.882 330.225 165.917 331.194 165.29C332.018 164.711 333.279 164.422 334.927 164.422H346.174V164.47Z" fill="#382E73"/>
<path d="M342.296 150.384C341.181 149.564 339.484 149.178 337.351 149.178C335.606 149.178 333.909 149.516 332.358 150.143C331.34 150.529 330.322 151.156 329.207 152.024C330.273 151.928 331.34 151.88 332.503 151.88H343.605C343.314 151.301 342.878 150.818 342.296 150.384Z" fill="#382E73"/>
<path d="M366.147 183.091C365.565 173.829 364.935 164.615 364.353 155.353C364.353 154.967 364.305 154.581 364.256 154.147C364.256 154.05 364.256 153.954 364.256 153.857C364.256 153.568 364.208 153.279 364.208 152.989C364.208 152.796 364.159 152.603 364.159 152.41C364.062 151.204 363.868 149.998 363.626 148.84C362.511 144.113 359.942 139.82 356.112 136.636C351.022 132.439 344.38 130.702 337.836 130.751C333.424 130.654 328.286 131.571 324.214 133.211C320.044 134.658 315.488 137.649 312.53 140.881C311.415 142.087 310.834 142.666 309.67 143.872C310.931 144.933 311.561 145.464 312.821 146.525C313.888 147.441 314.809 148.165 315.633 148.84C316.99 149.998 318.251 151.011 320.093 152.507C319.948 152.603 319.754 152.7 319.608 152.748C319.608 152.748 319.608 152.748 319.56 152.748C316.893 154.243 314.76 156.269 313.209 158.826C311.658 161.383 310.882 164.374 310.834 167.75C310.834 171.658 311.803 175.228 313.888 178.315C315.924 181.354 318.784 183.766 322.42 185.454C323.68 186.033 324.989 186.516 326.395 186.902C328.867 187.577 331.485 187.915 334.248 187.915C336.866 187.915 339.242 187.577 341.423 186.902C342.587 186.516 343.702 186.081 344.72 185.503C344.865 186.033 344.913 186.323 345.059 186.853H366.486C366.292 185.406 366.244 184.634 366.147 183.091ZM348.113 183.091C347.628 181.209 347.386 180.244 346.901 178.363C343.895 182.415 338.999 184.2 334.055 184.152C330.322 184.152 326.977 183.477 324.068 182.078C321.111 180.679 318.833 178.797 317.184 176.289C315.536 173.829 314.712 170.982 314.712 167.799C314.712 165.097 315.294 162.782 316.506 160.852C317.669 158.874 319.317 157.331 321.402 156.173C324.359 154.581 328.092 153.761 332.503 153.761H345.738C345.738 153.471 345.738 153.279 345.689 152.989C345.641 151.301 344.865 149.902 343.411 148.84L343.362 148.792C341.859 147.731 339.823 147.2 337.254 147.2C335.266 147.2 333.376 147.586 331.534 148.31C331.146 148.455 330.807 148.647 330.419 148.84C328.964 149.612 327.413 150.77 325.862 152.314C324.456 151.156 323.05 149.998 321.644 148.84C319.511 147.104 317.378 145.319 315.294 143.582C318.154 140.591 321.596 138.324 325.571 136.829C329.546 135.382 333.667 134.61 337.981 134.61C343.605 134.562 349.373 135.96 353.833 139.578C356.79 141.99 358.778 145.271 359.699 148.84C360.038 150.191 360.281 151.59 360.329 152.989C360.911 163.023 361.541 173.057 362.123 183.091H348.113ZM337.302 149.178C339.436 149.178 341.132 149.564 342.247 150.384C342.877 150.818 343.265 151.301 343.508 151.88H332.406C331.291 151.88 330.176 151.928 329.11 152.024C330.176 151.156 331.243 150.529 332.261 150.143C333.909 149.468 335.606 149.178 337.302 149.178Z" fill="#382E73"/>
<path d="M419.375 169.776C418.357 174.263 416.078 177.784 412.637 180.389C409.292 183.042 403.911 184.49 399.693 184.297C395.088 184.49 389.319 183.235 385.392 180.775C381.417 178.46 378.363 175.372 376.23 171.658C374.097 167.895 372.885 163.939 372.546 159.694C372.206 155.353 372.788 151.252 374.291 147.49C375.794 143.727 378.217 140.64 381.562 138.324C384.907 135.96 389.076 134.803 394.167 134.803C398.481 134.658 403.911 136.057 407.546 138.421C411.473 140.688 415.206 145.126 417.048 149.226C412.685 151.059 408.322 152.893 403.959 154.726C403.377 152.555 402.311 150.77 400.76 149.468C399.208 148.117 397.463 147.442 395.524 147.442C392.373 147.442 390.191 148.647 389.028 151.011C387.864 153.375 387.428 156.318 387.768 159.743C388.107 163.216 389.076 166.062 390.725 168.329C392.373 170.597 394.845 171.754 398.093 171.754C400.032 171.754 401.632 171.127 402.941 169.825C404.25 168.522 405.026 166.834 405.219 164.711C409.922 166.4 414.624 168.088 419.375 169.776Z" fill="#4B4182"/>
<path d="M420.296 166.207C415.594 164.518 410.891 162.83 406.189 161.093C404.638 160.514 403.862 160.225 402.311 159.694C403.717 159.116 404.395 158.826 405.801 158.247C410.164 156.414 414.576 154.629 418.939 152.748C420.248 152.217 420.926 151.928 422.235 151.349C421.702 150.288 421.363 149.661 420.926 148.792C420.781 148.503 420.635 148.213 420.441 147.827C417.872 142.714 414.091 138.131 409.146 135.092C404.395 132.005 397.754 130.799 393.682 130.847C389.61 130.895 383.453 131.812 379.139 134.996C378.121 135.671 377.103 136.491 376.133 137.456C376.084 137.504 376.036 137.552 376.036 137.552C375.988 137.601 375.988 137.601 375.939 137.649C374.776 138.855 373.661 140.206 372.74 141.605C372.303 142.328 371.867 143.052 371.528 143.775C371.188 144.402 370.946 145.078 370.703 145.705C370.316 146.67 369.976 147.683 369.637 148.744C369.201 150.384 368.861 152.121 368.667 153.857C368.473 155.835 368.425 157.765 368.619 159.55C368.813 164.036 370.413 169.294 372.74 173.153C374.969 177.35 379.284 181.595 383.502 183.862C385.78 185.165 388.204 186.178 390.725 186.853C393.779 187.673 396.978 188.059 400.129 188.011C402.844 187.77 405.559 187.48 408.128 186.853C410.697 186.226 413.17 185.165 415.4 183.428C419.23 180.775 422.526 175.517 423.302 170.982C423.641 169.583 423.786 168.86 424.126 167.461C422.574 167.027 421.799 166.737 420.296 166.207ZM412.588 180.389C409.243 183.042 403.862 184.49 399.645 184.297C395.039 184.49 389.27 183.235 385.344 180.775C381.369 178.46 378.314 175.372 376.181 171.658C374.048 167.895 372.836 163.939 372.497 159.694C372.4 158.681 372.4 157.717 372.4 156.752C372.4 156.559 372.4 156.366 372.4 156.221C372.4 155.835 372.449 155.498 372.449 155.16V155.112C372.449 154.919 372.497 154.774 372.497 154.581C372.497 154.388 372.546 154.243 372.546 154.05C372.643 153.375 372.74 152.651 372.885 152.024C372.885 151.976 372.885 151.928 372.885 151.928C372.933 151.783 372.933 151.59 372.982 151.445C373.079 151.108 373.127 150.77 373.224 150.432C373.273 150.239 373.321 150.095 373.37 149.902C373.467 149.564 373.564 149.226 373.709 148.889C373.758 148.648 373.855 148.406 373.951 148.213C374.048 147.972 374.097 147.731 374.194 147.538C375.697 143.775 378.121 140.688 381.465 138.372C384.81 136.057 388.98 134.851 394.07 134.851C398.384 134.706 403.814 136.105 407.449 138.469C407.692 138.614 407.934 138.758 408.177 138.903C408.274 139 408.419 139.048 408.564 139.144C408.807 139.289 409.001 139.434 409.243 139.627C410.988 140.929 412.637 142.618 414.042 144.451C414.139 144.547 414.236 144.692 414.333 144.837C414.43 144.933 414.527 145.078 414.624 145.222C415.497 146.428 416.272 147.731 416.854 148.985C416.903 149.082 416.951 149.226 417 149.323C412.637 151.156 408.274 152.989 403.911 154.774C403.329 152.603 402.262 150.818 400.711 149.516C400.469 149.323 400.275 149.13 400.032 148.985C399.354 148.503 398.675 148.117 397.948 147.876C397.754 147.827 397.512 147.731 397.318 147.683C397.172 147.634 396.978 147.586 396.833 147.586C396.736 147.586 396.687 147.586 396.591 147.538C396.348 147.49 396.106 147.49 395.863 147.49C395.766 147.49 395.621 147.49 395.524 147.49C395.33 147.49 395.136 147.49 394.991 147.49C394.942 147.49 394.942 147.49 394.894 147.49C394.748 147.49 394.554 147.49 394.409 147.538H394.361C394.215 147.538 394.021 147.586 393.876 147.586C393.682 147.634 393.488 147.634 393.294 147.683C393.149 147.731 393.003 147.779 392.858 147.779C392.761 147.827 392.615 147.876 392.47 147.876C392.373 147.924 392.228 147.972 392.131 148.02C392.034 148.069 391.985 148.069 391.888 148.117C391.791 148.165 391.694 148.213 391.597 148.262C391.549 148.31 391.5 148.31 391.452 148.358C391.403 148.406 391.355 148.406 391.306 148.455C391.161 148.551 391.064 148.599 390.919 148.696L390.87 148.744C390.822 148.792 390.725 148.84 390.676 148.889C390.579 148.937 390.531 149.033 390.434 149.082C390.337 149.178 390.24 149.275 390.143 149.371C390.143 149.371 390.143 149.371 390.094 149.419C389.998 149.516 389.949 149.564 389.852 149.661C389.804 149.709 389.804 149.757 389.755 149.805C389.658 149.902 389.561 150.046 389.513 150.143C389.416 150.239 389.367 150.336 389.319 150.432C389.222 150.577 389.125 150.77 389.028 150.963C387.865 153.327 387.428 156.269 387.768 159.694C388.107 163.168 389.076 166.014 390.725 168.281C392.373 170.548 394.845 171.706 398.093 171.706C400.032 171.706 401.632 171.079 402.941 169.776C404.25 168.474 405.026 166.786 405.22 164.663C409.922 166.351 414.624 168.088 419.375 169.776C418.308 174.263 416.078 177.832 412.588 180.389ZM392.567 152.941C393.003 152.073 393.682 151.252 395.96 151.252C396.881 151.252 397.609 151.542 398.336 152.169C399.208 152.941 399.79 153.954 400.129 155.256C400.663 157.186 400.905 158.151 401.438 160.08C401.535 160.032 401.584 160.032 401.681 159.984C401.535 161.527 401.438 162.348 401.293 163.891C401.147 165.194 400.711 166.207 399.984 166.93C399.354 167.557 398.627 167.847 397.705 167.847C395.379 167.847 394.506 167.075 393.924 166.303C392.712 164.663 391.985 162.444 391.694 159.694C391.403 156.945 391.694 154.677 392.567 152.941Z" fill="#382E73"/>
<path d="M489.134 183.091H471.052C465.477 176.53 459.951 169.921 454.473 163.313C452.825 165.725 452.001 166.931 450.304 169.391C451.128 173.974 451.952 178.556 452.728 183.139H437.457C433.918 160.804 430.428 138.469 426.889 116.134H440.851C442.935 127.905 445.02 139.675 447.104 151.397C450.74 146.236 454.327 140.978 457.818 135.72H476.918C472.458 141.749 467.95 147.683 463.344 153.616C471.876 163.506 480.457 173.346 489.134 183.091Z" fill="#4B4182"/>
<path d="M492.091 181.016C484.093 172.14 476.239 163.119 468.434 154.099C469.792 152.362 471.101 150.625 472.458 148.889C475.124 145.416 477.742 141.942 480.311 138.421C482.25 135.816 483.172 134.513 485.062 131.908H455.394C455.055 132.439 454.861 132.728 454.521 133.211C452.388 136.395 451.322 137.987 449.14 141.122C447.637 132.777 446.086 124.431 444.583 116.134C444.293 114.59 444.147 113.819 443.905 112.275H422.575C422.817 113.819 422.914 114.59 423.156 116.134C424.805 127.036 426.501 137.987 428.15 148.889C429.895 160.273 431.64 171.706 433.385 183.091C433.627 184.634 433.724 185.406 433.967 186.95H457.478C457.188 185.406 457.042 184.634 456.8 183.091C455.879 178.17 455.442 175.71 454.57 170.741C454.812 170.355 454.958 170.162 455.2 169.825C459.466 174.938 463.732 180.052 468.047 185.117C468.677 185.84 468.968 186.226 469.598 186.95H497.472C495.291 184.586 494.224 183.38 492.091 181.016ZM471.052 183.091C465.477 176.53 459.951 169.921 454.473 163.312C452.825 165.724 452 166.93 450.304 169.391C451.128 173.973 451.952 178.556 452.728 183.139H437.457C435.664 171.754 433.87 160.322 432.076 148.937C430.331 138.035 428.634 127.084 426.889 116.182H440.851C442.79 127.084 444.729 138.035 446.668 148.937C446.813 149.757 446.959 150.625 447.104 151.445C447.686 150.625 448.268 149.757 448.849 148.937C448.898 148.889 448.946 148.841 448.946 148.744C449.625 147.731 450.352 146.766 451.031 145.753C451.079 145.657 451.176 145.56 451.225 145.464C451.807 144.595 452.388 143.775 452.97 142.907C454.57 140.543 456.17 138.18 457.769 135.768H476.869C475.754 137.263 474.639 138.758 473.573 140.206C473.525 140.254 473.524 140.302 473.476 140.302C472.506 141.605 471.537 142.907 470.519 144.21C469.355 145.753 468.143 147.345 466.932 148.889C465.72 150.481 464.508 152.024 463.296 153.616C471.779 163.554 480.36 173.394 489.086 183.139H471.052V183.091Z" fill="#382E73"/>
<path d="M531.649 167.412C530.68 163.939 529.031 161.19 526.85 159.163C524.668 157.137 522.341 155.642 519.918 154.725C519.821 154.677 519.724 154.629 519.627 154.629C517.251 153.761 514.44 152.941 511.095 152.169C508.428 151.59 506.441 151.011 505.132 150.432C504.211 150.046 503.532 149.516 503.144 148.888C502.95 148.599 502.853 148.358 502.756 148.02C502.563 147.2 502.708 146.525 503.338 146.042C503.92 145.56 504.841 145.319 506.15 145.319C508.186 145.319 509.931 145.849 511.289 146.959C511.967 147.489 512.694 148.165 513.422 148.888C514.149 149.612 514.827 150.384 515.555 151.3C517.009 150.384 518.172 149.612 519.287 148.888C521.081 147.731 522.729 146.669 525.056 145.126C522.148 141.845 518.851 139.289 515.215 137.456C511.579 135.574 507.701 134.658 503.532 134.658C498.733 134.658 494.903 135.912 491.994 138.372C489.231 140.736 488.262 144.257 489.231 148.888C489.28 149.081 489.328 149.274 489.377 149.467C490.104 152.603 491.461 155.16 493.449 157.137C495.436 159.115 497.569 160.611 499.945 161.624C502.272 162.637 505.18 163.601 508.574 164.566C511.482 165.386 513.664 166.158 515.07 166.834C516.476 167.509 517.3 168.377 517.591 169.487C517.833 170.307 517.591 171.03 516.912 171.706C516.233 172.333 514.973 172.671 513.034 172.671C510.998 172.671 509.252 172.285 507.847 171.513C506.441 170.741 505.423 169.921 504.744 169.004C504.065 168.088 503.193 166.882 502.223 165.338C498.006 167.364 495.921 168.377 491.655 170.452C493.012 172.815 494.903 175.083 497.375 177.157C499.848 179.279 502.708 180.968 505.956 182.27C509.204 183.573 512.597 184.2 516.088 184.2C517.3 184.2 518.463 184.103 519.578 183.959C521.566 183.669 523.505 183.187 525.299 182.415C528.11 181.257 530.146 179.376 531.407 176.867C532.619 174.262 532.716 171.127 531.649 167.412Z" fill="#4B4182"/>
<path d="M535.576 167.413C534.315 163.119 532.182 159.501 529.225 156.8C527.044 154.774 524.717 153.182 522.341 152.024C524.523 150.625 525.638 149.902 527.771 148.503C528.983 147.731 529.564 147.345 530.728 146.573C529.468 145.222 528.886 144.499 527.625 143.148C524.62 139.627 520.305 136.202 516.088 134.127C512.21 132.005 506.829 130.702 502.369 130.799C497.957 130.558 492.188 132.198 488.892 135.189C484.965 138.614 484.141 144.016 485.208 148.84C485.256 149.033 485.305 149.226 485.353 149.419C486.274 153.375 488.068 156.752 490.686 159.405C492.285 161.045 494.079 162.444 495.921 163.553C493.158 164.904 491.8 165.531 489.037 166.882C487.874 167.461 487.292 167.75 486.08 168.281C486.807 169.583 487.195 170.259 487.922 171.561C489.522 174.456 491.849 177.157 494.806 179.665C497.715 182.174 501.157 184.2 504.938 185.695C506.198 186.178 507.507 186.612 508.865 186.95C509.301 187.046 509.737 187.143 510.173 187.239C512.403 187.721 514.633 187.963 516.912 187.963C517.736 187.963 518.56 187.914 519.384 187.866C522.293 187.625 525.056 186.998 527.577 185.937C531.019 184.489 533.54 182.174 535.091 179.087C536.788 175.903 536.933 171.947 535.576 167.413ZM531.358 176.819C530.098 179.328 528.062 181.209 525.25 182.367C523.456 183.139 521.566 183.621 519.53 183.911C518.415 184.055 517.251 184.152 516.039 184.152C512.549 184.152 509.155 183.525 505.907 182.222C502.659 180.92 499.799 179.231 497.327 177.109C494.855 174.986 492.915 172.767 491.607 170.403C495.873 168.377 498.006 167.364 502.175 165.29C503.144 166.834 503.968 168.04 504.696 168.956C505.374 169.873 506.441 170.693 507.798 171.465C509.204 172.237 510.901 172.622 512.985 172.622C514.924 172.622 516.233 172.285 516.863 171.658C517.542 171.031 517.736 170.259 517.542 169.439C517.251 168.329 516.379 167.461 515.021 166.785C513.615 166.11 511.482 165.338 508.525 164.518C505.132 163.553 502.223 162.589 499.896 161.576C497.569 160.563 495.388 159.115 493.4 157.089C491.413 155.111 490.055 152.555 489.328 149.419C489.28 149.226 489.231 149.033 489.183 148.84C488.213 144.209 489.134 140.688 491.946 138.324C494.855 135.864 498.684 134.61 503.484 134.61C507.653 134.61 511.531 135.526 515.167 137.408C518.802 139.241 522.05 141.846 525.008 145.078C522.681 146.621 521.081 147.634 519.239 148.84C518.124 149.564 516.96 150.336 515.506 151.252C514.779 150.384 514.052 149.564 513.373 148.84C512.646 148.117 511.967 147.49 511.24 146.911C509.834 145.849 508.137 145.271 506.101 145.271C504.841 145.271 503.871 145.512 503.29 145.994C502.708 146.477 502.514 147.152 502.708 147.972C502.805 148.261 502.902 148.551 503.096 148.84C503.484 149.467 504.162 149.998 505.083 150.384C506.392 150.963 508.38 151.542 511.046 152.121C514.343 152.941 517.203 153.761 519.578 154.581C519.675 154.629 519.772 154.677 519.869 154.677C522.293 155.594 524.62 157.041 526.801 159.115C528.983 161.19 530.631 163.939 531.601 167.364C532.716 171.127 532.619 174.263 531.358 176.819Z" fill="#382E73"/>
<g filter="url(#filter2_f)">
<path d="M145.187 151.59C142.812 162.106 140.388 172.622 138.013 183.09H122.742C124.875 174.359 127.057 165.676 129.19 156.944C129.626 155.159 129.868 153.616 129.965 152.265C130.014 150.963 129.626 149.805 128.802 148.744C127.978 147.731 126.378 147.2 124.051 147.2C121.288 147.2 119.058 147.923 117.361 149.371C115.664 150.818 114.404 152.458 113.628 154.339C112.853 156.172 112.077 158.391 111.398 160.948C109.411 168.329 107.423 175.661 105.484 183.042H90.2136C94.7705 167.268 99.3274 151.445 103.884 135.671H118.234C117.749 137.455 117.506 138.324 117.07 140.109C121.045 136.394 126.378 134.561 131.856 134.609C137.237 134.609 141.067 136.153 143.442 139.192C145.72 142.279 146.351 146.38 145.187 151.59Z" fill="#1EEDC8"/>
<path d="M230.362 135.719C223.43 151.638 216.304 167.413 208.887 183.09H195.41C194.198 174.214 193.083 165.29 192.016 156.366C188.09 165.29 184.066 174.214 180.043 183.09H166.42C164.239 167.316 162.3 151.542 160.651 135.719H175.873C176.552 144.113 177.279 152.458 178.055 160.804C181.885 152.458 185.666 144.113 189.35 135.719H201.421C202.391 144.016 203.409 152.314 204.524 160.611C208.063 152.314 211.601 144.016 215.043 135.719H230.362Z" fill="#1EEDC8"/>
<path d="M301.091 116.085C300.558 138.42 300.073 160.755 299.54 183.09H283.639C284.027 173.876 284.415 164.614 284.851 155.401H258.382C257.655 164.614 256.928 173.828 256.249 183.09H240.349C242.53 160.755 244.712 138.42 246.893 116.085H261.436C260.758 124.576 260.127 133.066 259.449 141.556H285.433C285.821 133.066 286.16 124.576 286.548 116.085H301.091Z" fill="#1EEDC8"/>
<path d="M359.652 152.989C359.603 151.59 359.361 150.191 359.022 148.84C358.052 145.271 356.065 141.99 353.156 139.578C348.745 135.96 342.976 134.561 337.304 134.61C332.989 134.61 328.869 135.333 324.894 136.829C320.918 138.324 317.476 140.543 314.616 143.582C316.749 145.367 318.882 147.104 320.967 148.84C322.373 149.998 323.779 151.156 325.184 152.314C326.736 150.77 328.287 149.612 329.741 148.84C330.129 148.647 330.468 148.454 330.856 148.31C332.698 147.586 334.589 147.2 336.577 147.2C339.146 147.2 341.182 147.731 342.685 148.792L342.733 148.84C344.188 149.902 344.963 151.252 345.012 152.989C345.012 153.278 345.012 153.471 345.06 153.761H331.826C327.414 153.761 323.73 154.581 320.724 156.173C318.64 157.33 317.04 158.874 315.828 160.852C314.665 162.83 314.035 165.145 314.035 167.798C314.035 170.982 314.859 173.828 316.507 176.289C318.155 178.749 320.434 180.678 323.391 182.077C326.348 183.428 329.693 184.152 333.377 184.152C338.322 184.248 343.218 182.415 346.224 178.363C346.708 180.244 346.951 181.209 347.436 183.09H361.397C360.815 173.057 360.234 163.023 359.652 152.989ZM342.539 170.21C340.6 171.754 338.273 172.526 335.559 172.526C333.474 172.526 331.923 172.092 330.808 171.272C329.693 170.452 329.111 169.39 329.111 168.088C329.063 166.882 329.547 165.917 330.517 165.29C331.341 164.711 332.601 164.422 334.25 164.422H345.497C345.448 166.737 344.478 168.667 342.539 170.21Z" fill="#1EEDC8"/>
<path d="M418.698 169.776C417.68 174.262 415.401 177.784 411.959 180.389C408.614 183.042 403.233 184.489 399.016 184.296C394.41 184.489 388.641 183.235 384.715 180.775C380.74 178.459 377.686 175.372 375.553 171.657C373.419 167.895 372.208 163.939 371.868 159.694C371.529 155.352 372.111 151.252 373.613 147.489C375.116 143.727 377.54 140.639 380.885 138.324C384.23 135.96 388.399 134.802 393.489 134.802C397.804 134.658 403.233 136.056 406.869 138.42C410.796 140.687 414.529 145.126 416.371 149.226C412.008 151.059 407.645 152.892 403.282 154.725C402.7 152.554 401.633 150.77 400.082 149.467C398.531 148.116 396.786 147.441 394.847 147.441C391.696 147.441 389.514 148.647 388.351 151.011C387.187 153.374 386.751 156.317 387.09 159.742C387.43 163.215 388.399 166.061 390.047 168.329C391.696 170.596 394.168 171.754 397.416 171.754C399.355 171.754 400.955 171.127 402.264 169.824C403.573 168.522 404.348 166.833 404.542 164.711C409.245 166.399 413.947 168.088 418.698 169.776Z" fill="#1EEDC8"/>
<path d="M488.457 183.09H470.375C464.8 176.53 459.273 169.921 453.795 163.312C452.147 165.724 451.323 166.93 449.626 169.39C450.45 173.973 451.274 178.556 452.05 183.139H436.78C433.241 160.804 429.75 138.469 426.212 116.134H440.173C442.258 127.904 444.342 139.675 446.427 151.397C450.063 146.235 453.65 140.977 457.14 135.719H476.24C471.781 141.749 467.272 147.682 462.667 153.616C471.199 163.505 479.779 173.346 488.457 183.09Z" fill="#1EEDC8"/>
<path d="M530.972 167.412C530.002 163.939 528.354 161.19 526.172 159.163C523.991 157.137 521.664 155.642 519.24 154.725C519.143 154.677 519.046 154.629 518.949 154.629C516.574 153.761 513.762 152.941 510.417 152.169C507.751 151.59 505.763 151.011 504.454 150.432C503.533 150.046 502.855 149.516 502.467 148.888C502.273 148.599 502.176 148.358 502.079 148.02C501.885 147.2 502.031 146.525 502.661 146.042C503.243 145.56 504.164 145.319 505.472 145.319C507.509 145.319 509.254 145.849 510.611 146.959C511.29 147.489 512.017 148.165 512.744 148.888C513.471 149.612 514.15 150.384 514.877 151.3C516.331 150.384 517.495 149.612 518.61 148.888C520.404 147.731 522.052 146.669 524.379 145.126C521.47 141.845 518.174 139.289 514.538 137.456C510.902 135.574 507.024 134.658 502.855 134.658C498.055 134.658 494.226 135.912 491.317 138.372C488.554 140.736 487.584 144.257 488.554 148.888C488.602 149.081 488.651 149.274 488.699 149.467C489.426 152.603 490.784 155.16 492.771 157.137C494.759 159.115 496.892 160.611 499.267 161.624C501.594 162.637 504.503 163.601 507.896 164.566C510.805 165.386 512.986 166.158 514.392 166.834C515.798 167.509 516.622 168.377 516.913 169.487C517.156 170.307 516.913 171.03 516.234 171.706C515.556 172.333 514.295 172.671 512.356 172.671C510.32 172.671 508.575 172.285 507.169 171.513C505.763 170.741 504.745 169.921 504.067 169.004C503.388 168.088 502.515 166.882 501.546 165.338C497.328 167.364 495.244 168.377 490.978 170.452C492.335 172.815 494.226 175.083 496.698 177.157C499.17 179.279 502.031 180.968 505.279 182.27C508.527 183.573 511.92 184.2 515.41 184.2C516.622 184.2 517.786 184.103 518.901 183.959C520.888 183.669 522.827 183.187 524.621 182.415C527.433 181.257 529.469 179.376 530.729 176.867C531.941 174.262 532.038 171.127 530.972 167.412Z" fill="#1EEDC8"/>
</g>
<path d="M145.187 151.59C142.812 162.106 140.388 172.622 138.013 183.09H122.742C124.875 174.359 127.057 165.676 129.19 156.944C129.626 155.159 129.868 153.616 129.965 152.265C130.014 150.963 129.626 149.805 128.802 148.744C127.978 147.731 126.378 147.2 124.051 147.2C121.288 147.2 119.058 147.923 117.361 149.371C115.664 150.818 114.404 152.458 113.628 154.339C112.853 156.172 112.077 158.391 111.398 160.948C109.411 168.329 107.423 175.661 105.484 183.042H90.2136C94.7705 167.268 99.3274 151.445 103.884 135.671H118.234C117.749 137.455 117.506 138.324 117.07 140.109C121.045 136.394 126.378 134.561 131.856 134.609C137.237 134.609 141.067 136.153 143.442 139.192C145.72 142.279 146.351 146.38 145.187 151.59Z" fill="#CAFFFF"/>
<path d="M230.362 135.719C223.43 151.638 216.304 167.413 208.887 183.09H195.41C194.198 174.214 193.083 165.29 192.016 156.366C188.09 165.29 184.066 174.214 180.043 183.09H166.42C164.239 167.316 162.3 151.542 160.651 135.719H175.873C176.552 144.113 177.279 152.458 178.055 160.804C181.885 152.458 185.666 144.113 189.35 135.719H201.421C202.391 144.016 203.409 152.314 204.524 160.611C208.063 152.314 211.601 144.016 215.043 135.719H230.362Z" fill="#CAFFFF"/>
<path d="M301.091 116.085C300.558 138.42 300.073 160.755 299.54 183.09H283.639C284.027 173.876 284.415 164.614 284.851 155.401H258.382C257.655 164.614 256.928 173.828 256.249 183.09H240.349C242.53 160.755 244.712 138.42 246.893 116.085H261.436C260.758 124.576 260.127 133.066 259.449 141.556H285.433C285.821 133.066 286.16 124.576 286.548 116.085H301.091Z" fill="#CAFFFF"/>
<path d="M359.652 152.989C359.603 151.59 359.361 150.191 359.022 148.84C358.052 145.271 356.065 141.99 353.156 139.578C348.745 135.96 342.976 134.561 337.304 134.61C332.989 134.61 328.869 135.333 324.894 136.829C320.918 138.324 317.476 140.543 314.616 143.582C316.749 145.367 318.882 147.104 320.967 148.84C322.373 149.998 323.779 151.156 325.184 152.314C326.736 150.77 328.287 149.612 329.741 148.84C330.129 148.647 330.468 148.454 330.856 148.31C332.698 147.586 334.589 147.2 336.577 147.2C339.146 147.2 341.182 147.731 342.685 148.792L342.733 148.84C344.188 149.902 344.963 151.252 345.012 152.989C345.012 153.278 345.012 153.471 345.06 153.761H331.826C327.414 153.761 323.73 154.581 320.724 156.173C318.64 157.33 317.04 158.874 315.828 160.852C314.665 162.83 314.035 165.145 314.035 167.798C314.035 170.982 314.859 173.828 316.507 176.289C318.155 178.749 320.434 180.678 323.391 182.077C326.348 183.428 329.693 184.152 333.377 184.152C338.322 184.248 343.218 182.415 346.224 178.363C346.708 180.244 346.951 181.209 347.436 183.09H361.397C360.815 173.057 360.234 163.023 359.652 152.989ZM342.539 170.21C340.6 171.754 338.273 172.526 335.559 172.526C333.474 172.526 331.923 172.092 330.808 171.272C329.693 170.452 329.111 169.39 329.111 168.088C329.063 166.882 329.547 165.917 330.517 165.29C331.341 164.711 332.601 164.422 334.25 164.422H345.497C345.448 166.737 344.478 168.667 342.539 170.21Z" fill="#CAFFFF"/>
<path d="M418.698 169.776C417.68 174.262 415.401 177.784 411.959 180.389C408.614 183.042 403.233 184.489 399.016 184.296C394.41 184.489 388.641 183.235 384.715 180.775C380.74 178.459 377.686 175.372 375.553 171.657C373.419 167.895 372.208 163.939 371.868 159.694C371.529 155.352 372.111 151.252 373.613 147.489C375.116 143.727 377.54 140.639 380.885 138.324C384.23 135.96 388.399 134.802 393.489 134.802C397.804 134.658 403.233 136.056 406.869 138.42C410.796 140.687 414.529 145.126 416.371 149.226C412.008 151.059 407.645 152.892 403.282 154.725C402.7 152.554 401.633 150.77 400.082 149.467C398.531 148.116 396.786 147.441 394.847 147.441C391.696 147.441 389.514 148.647 388.351 151.011C387.187 153.374 386.751 156.317 387.09 159.742C387.43 163.215 388.399 166.061 390.047 168.329C391.696 170.596 394.168 171.754 397.416 171.754C399.355 171.754 400.955 171.127 402.264 169.824C403.573 168.522 404.348 166.833 404.542 164.711C409.245 166.399 413.947 168.088 418.698 169.776Z" fill="#CAFFFF"/>
<path d="M488.457 183.09H470.375C464.8 176.53 459.273 169.921 453.795 163.312C452.147 165.724 451.323 166.93 449.626 169.39C450.45 173.973 451.274 178.556 452.05 183.139H436.78C433.241 160.804 429.75 138.469 426.212 116.134H440.173C442.258 127.904 444.342 139.675 446.427 151.397C450.063 146.235 453.65 140.977 457.14 135.719H476.24C471.781 141.749 467.272 147.682 462.667 153.616C471.199 163.505 479.779 173.346 488.457 183.09Z" fill="#CAFFFF"/>
<path d="M530.972 167.412C530.002 163.939 528.354 161.19 526.172 159.163C523.991 157.137 521.664 155.642 519.24 154.725C519.143 154.677 519.046 154.629 518.949 154.629C516.574 153.761 513.762 152.941 510.417 152.169C507.751 151.59 505.763 151.011 504.454 150.432C503.533 150.046 502.855 149.516 502.467 148.888C502.273 148.599 502.176 148.358 502.079 148.02C501.885 147.2 502.031 146.525 502.661 146.042C503.243 145.56 504.164 145.319 505.472 145.319C507.509 145.319 509.254 145.849 510.611 146.959C511.29 147.489 512.017 148.165 512.744 148.888C513.471 149.612 514.15 150.384 514.877 151.3C516.331 150.384 517.495 149.612 518.61 148.888C520.404 147.731 522.052 146.669 524.379 145.126C521.47 141.845 518.174 139.289 514.538 137.456C510.902 135.574 507.024 134.658 502.855 134.658C498.055 134.658 494.226 135.912 491.317 138.372C488.554 140.736 487.584 144.257 488.554 148.888C488.602 149.081 488.651 149.274 488.699 149.467C489.426 152.603 490.784 155.16 492.771 157.137C494.759 159.115 496.892 160.611 499.267 161.624C501.594 162.637 504.503 163.601 507.896 164.566C510.805 165.386 512.986 166.158 514.392 166.834C515.798 167.509 516.622 168.377 516.913 169.487C517.156 170.307 516.913 171.03 516.234 171.706C515.556 172.333 514.295 172.671 512.356 172.671C510.32 172.671 508.575 172.285 507.169 171.513C505.763 170.741 504.745 169.921 504.067 169.004C503.388 168.088 502.515 166.882 501.546 165.338C497.328 167.364 495.244 168.377 490.978 170.452C492.335 172.815 494.226 175.083 496.698 177.157C499.17 179.279 502.031 180.968 505.279 182.27C508.527 183.573 511.92 184.2 515.41 184.2C516.622 184.2 517.786 184.103 518.901 183.959C520.888 183.669 522.827 183.187 524.621 182.415C527.433 181.257 529.469 179.376 530.729 176.867C531.941 174.262 532.038 171.127 530.972 167.412Z" fill="#CAFFFF"/>
<g filter="url(#filter3_f)">
<path d="M296.339 213.483C296.193 214.738 296.097 215.365 295.951 216.619C292.121 216.619 288.34 216.619 284.51 216.619C284.704 215.558 284.801 215.027 284.995 213.966C286.983 212.953 288.825 211.747 290.522 210.396C292.218 209.045 293.139 207.646 293.333 206.247C293.43 205.669 293.333 205.186 293.139 204.848C292.897 204.511 292.509 204.318 291.927 204.318C290.667 204.318 289.794 205.234 289.358 207.116C288.098 207.019 287.419 206.971 286.159 206.875C286.353 205.958 286.74 205.041 287.322 204.173C287.904 203.305 288.679 202.533 289.552 202.002C290.473 201.423 291.443 201.134 292.509 201.134C293.43 201.134 294.206 201.327 294.885 201.761C295.563 202.195 296.048 202.774 296.339 203.546C296.63 204.318 296.727 205.186 296.63 206.199C296.533 207.068 296.193 207.984 295.66 208.901C295.127 209.817 294.4 210.685 293.527 211.506C292.655 212.326 291.685 213.001 290.57 213.58C292.897 213.483 294.012 213.483 296.339 213.483Z" fill="#1EEDC8"/>
<path d="M304.144 214.494C303.514 212.951 303.271 211.021 303.465 208.802C303.659 206.631 304.144 204.798 304.968 203.254C305.792 201.711 307.246 200.939 309.428 200.939C311.609 200.939 313.015 201.711 313.694 203.254C314.373 204.798 314.712 206.631 314.664 208.802C314.615 211.021 314.227 212.902 313.452 214.494C312.676 216.038 311.076 216.81 308.652 216.81C306.277 216.858 304.774 216.086 304.144 214.494ZM310.688 212.42C311.028 211.6 311.173 210.442 311.222 208.947C311.27 207.403 311.173 206.245 310.931 205.425C310.688 204.605 310.107 204.219 309.282 204.219C308.41 204.219 307.828 204.605 307.489 205.425C307.149 206.245 306.955 207.403 306.859 208.947C306.762 210.442 306.859 211.6 307.101 212.42C307.343 213.24 307.925 213.674 308.846 213.674C309.767 213.674 310.397 213.24 310.688 212.42Z" fill="#1EEDC8"/>
<path d="M332.697 213.481C332.843 214.735 332.891 215.363 332.988 216.617C329.158 216.617 325.377 216.617 321.547 216.617C321.499 215.555 321.499 215.025 321.45 213.964C323.196 212.951 324.795 211.745 326.201 210.394C327.607 209.043 328.189 207.644 328.092 206.245C328.043 205.666 327.849 205.184 327.558 204.846C327.268 204.509 326.831 204.316 326.25 204.316C324.989 204.316 324.359 205.232 324.31 207.114C323.002 207.017 322.371 206.969 321.062 206.872C321.014 205.956 321.208 205.039 321.596 204.171C321.984 203.303 322.565 202.531 323.341 202C324.117 201.421 325.038 201.132 326.104 201.132C327.025 201.132 327.849 201.325 328.577 201.759C329.352 202.193 329.934 202.772 330.419 203.544C330.903 204.316 331.194 205.184 331.291 206.197C331.388 207.065 331.243 207.982 330.903 208.898C330.564 209.815 330.031 210.683 329.352 211.503C328.673 212.323 327.801 212.999 326.88 213.578C329.255 213.481 330.419 213.481 332.697 213.481Z" fill="#1EEDC8"/>
<path d="M345.592 201.228C346.562 206.342 347.58 211.503 348.549 216.617C347.143 216.617 346.465 216.617 345.059 216.617C344.477 213.143 343.847 209.67 343.265 206.245C341.908 206.245 341.229 206.245 339.872 206.245C339.726 205.184 339.629 204.653 339.484 203.64C340.163 203.64 340.502 203.64 341.181 203.64C341.714 203.64 342.15 203.496 342.344 203.254C342.586 203.013 342.635 202.579 342.538 201.952C342.49 201.662 342.441 201.518 342.393 201.228C343.701 201.228 344.332 201.228 345.592 201.228Z" fill="#1EEDC8"/>
</g>
<path d="M296.339 213.483C296.193 214.738 296.097 215.365 295.951 216.619C292.121 216.619 288.34 216.619 284.51 216.619C284.704 215.558 284.801 215.027 284.995 213.966C286.983 212.953 288.825 211.747 290.522 210.396C292.218 209.045 293.139 207.646 293.333 206.247C293.43 205.669 293.333 205.186 293.139 204.848C292.897 204.511 292.509 204.318 291.927 204.318C290.667 204.318 289.794 205.234 289.358 207.116C288.098 207.019 287.419 206.971 286.159 206.875C286.353 205.958 286.74 205.041 287.322 204.173C287.904 203.305 288.679 202.533 289.552 202.002C290.473 201.423 291.443 201.134 292.509 201.134C293.43 201.134 294.206 201.327 294.885 201.761C295.563 202.195 296.048 202.774 296.339 203.546C296.63 204.318 296.727 205.186 296.63 206.199C296.533 207.068 296.193 207.984 295.66 208.901C295.127 209.817 294.4 210.685 293.527 211.506C292.655 212.326 291.685 213.001 290.57 213.58C292.897 213.483 294.012 213.483 296.339 213.483Z" fill="#D0FFFF"/>
<path d="M304.144 214.494C303.514 212.951 303.271 211.021 303.465 208.802C303.659 206.631 304.144 204.798 304.968 203.254C305.792 201.711 307.246 200.939 309.428 200.939C311.609 200.939 313.015 201.711 313.694 203.254C314.373 204.798 314.712 206.631 314.664 208.802C314.615 211.021 314.227 212.902 313.452 214.494C312.676 216.038 311.076 216.81 308.652 216.81C306.277 216.858 304.774 216.086 304.144 214.494ZM310.688 212.42C311.028 211.6 311.173 210.442 311.222 208.947C311.27 207.403 311.173 206.245 310.931 205.425C310.688 204.605 310.107 204.219 309.282 204.219C308.41 204.219 307.828 204.605 307.489 205.425C307.149 206.245 306.955 207.403 306.859 208.947C306.762 210.442 306.859 211.6 307.101 212.42C307.343 213.24 307.925 213.674 308.846 213.674C309.767 213.674 310.397 213.24 310.688 212.42Z" fill="#D0FFFF"/>
<path d="M332.697 213.481C332.843 214.735 332.891 215.363 332.988 216.617C329.158 216.617 325.377 216.617 321.547 216.617C321.499 215.556 321.499 215.025 321.45 213.964C323.196 212.951 324.795 211.745 326.201 210.394C327.607 209.043 328.189 207.644 328.092 206.245C328.043 205.666 327.849 205.184 327.558 204.846C327.268 204.509 326.831 204.316 326.25 204.316C324.989 204.316 324.359 205.232 324.31 207.114C323.002 207.017 322.371 206.969 321.062 206.872C321.014 205.956 321.208 205.039 321.596 204.171C321.984 203.303 322.565 202.531 323.341 202C324.117 201.421 325.038 201.132 326.104 201.132C327.025 201.132 327.849 201.325 328.577 201.759C329.352 202.193 329.934 202.772 330.419 203.544C330.903 204.316 331.194 205.184 331.291 206.197C331.388 207.065 331.243 207.982 330.903 208.898C330.564 209.815 330.031 210.683 329.352 211.503C328.673 212.323 327.801 212.999 326.88 213.578C329.255 213.481 330.419 213.481 332.697 213.481Z" fill="#D0FFFF"/>
<path d="M345.592 201.229C346.562 206.342 347.58 211.504 348.549 216.617C347.143 216.617 346.465 216.617 345.059 216.617C344.477 213.144 343.847 209.67 343.265 206.245C341.908 206.245 341.229 206.245 339.872 206.245C339.726 205.184 339.629 204.654 339.484 203.64C340.163 203.64 340.502 203.64 341.181 203.64C341.714 203.64 342.15 203.496 342.344 203.255C342.586 203.013 342.635 202.579 342.538 201.952C342.49 201.663 342.441 201.518 342.393 201.229C343.701 201.229 344.332 201.229 345.592 201.229Z" fill="#D0FFFF"/>
<defs>
<filter id="filter0_f" x="107.914" y="146.625" width="407.173" height="167.122" filterUnits="userSpaceOnUse" color-interpolation-filters="sRGB">
<feFlood flood-opacity="0" result="BackgroundImageFix"/>
<feBlend mode="normal" in="SourceGraphic" in2="BackgroundImageFix" result="shape"/>
<feGaussianBlur stdDeviation="2" result="effect1_foregroundBlur"/>
</filter>
<filter id="filter1_f" x="206.588" y="0.846191" width="203.028" height="186.774" filterUnits="userSpaceOnUse" color-interpolation-filters="sRGB">
<feFlood flood-opacity="0" result="BackgroundImageFix"/>
<feBlend mode="normal" in="SourceGraphic" in2="BackgroundImageFix" result="shape"/>
<feGaussianBlur stdDeviation="15" result="effect1_foregroundBlur"/>
</filter>
<filter id="filter2_f" x="80.2136" y="106.085" width="461.496" height="88.23" filterUnits="userSpaceOnUse" color-interpolation-filters="sRGB">
<feFlood flood-opacity="0" result="BackgroundImageFix"/>
<feBlend mode="normal" in="SourceGraphic" in2="BackgroundImageFix" result="shape"/>
<feGaussianBlur stdDeviation="5" result="effect1_foregroundBlur"/>
</filter>
<filter id="filter3_f" x="274.51" y="190.939" width="84.0388" height="35.8729" filterUnits="userSpaceOnUse" color-interpolation-filters="sRGB">
<feFlood flood-opacity="0" result="BackgroundImageFix"/>
<feBlend mode="normal" in="SourceGraphic" in2="BackgroundImageFix" result="shape"/>
<feGaussianBlur stdDeviation="5" result="effect1_foregroundBlur"/>
</filter>
</defs>
</svg>
