<svg width="297" height="78" viewBox="0 0 297 78" fill="none" xmlns="http://www.w3.org/2000/svg">
<g clip-path="url(#clip0)">
<path d="M5.41614 48.7315C9.97949 33.5852 14.5428 18.4388 19.0326 3.29248H279.512C279.512 3.29248 289.595 36.7315 293.128 48.7315H5.41614Z" fill="#382E73"/>
<path d="M277.083 6.58537L279.144 13.4634C282.309 24.0732 285.547 34.7561 288.712 45.3659H9.9059C13.8068 32.4878 17.7078 19.5366 21.5351 6.58537H277.083ZM282.014 0H16.6037C11.4516 17.3415 6.22578 34.6829 1 52.0244H297.618C292.466 34.6829 287.24 17.3415 282.014 0Z" fill="#D0FFFF"/>
<path d="M1 52.0244H297.618C292.392 60.6586 287.166 69.3659 282.014 78H16.6037C11.4516 69.2927 6.22578 60.6586 1 52.0244Z" fill="#A2F8F8"/>
<g filter="url(#filter0_f)">
<path d="M49.8721 32.1225H41.4078L39.1262 36.0737H33.606L47.6641 13.6104H51.197L56.0547 36.0737H50.5346L49.8721 32.1225ZM49.0625 27.3664L47.9585 20.9274L44.2047 27.3664H49.0625Z" fill="#1EEDC8"/>
<path d="M68.0519 13.6104H75.633C80.6379 13.6104 82.846 15.7323 82.2572 19.9762C81.9628 22.1713 81.0796 23.8542 79.6075 25.025C78.1355 26.1957 76.1482 26.7811 73.6457 26.7811H70.8488L69.3768 36.0737H64.2982L68.0519 13.6104ZM73.8665 22.1713C74.9706 22.1713 75.7802 22.025 76.369 21.7323C76.8842 21.4396 77.2522 20.8542 77.3994 20.0494C77.5466 19.2445 77.3258 18.7323 76.8842 18.4396C76.4426 18.1469 75.633 18.0738 74.5289 18.0738H72.2473L71.5848 22.1713H73.8665Z" fill="#1EEDC8"/>
<path d="M92.0463 13.6104H99.6274C104.632 13.6104 106.914 15.7323 106.546 19.9762C106.325 22.1713 105.589 23.8542 104.191 25.025C102.792 26.1957 100.805 26.7811 98.3025 26.7811H95.5056L94.4752 36.0737H89.3967L92.0463 13.6104ZM98.2289 22.1713C99.333 22.1713 100.143 22.025 100.731 21.7323C101.247 21.4396 101.541 20.8542 101.615 20.0494C101.688 19.2445 101.467 18.7323 101.026 18.4396C100.584 18.1469 99.7746 18.0738 98.5969 18.0738H96.3153L95.8737 22.1713H98.2289Z" fill="#1EEDC8"/>
<path d="M115.967 13.6104H120.825L119.794 31.2445H128.995L128.774 36.0737H114.421L115.967 13.6104Z" fill="#1EEDC8"/>
<path d="M140.771 26.9273L132.822 13.5371H138.563L143.2 22.0249L148.205 13.5371H153.946L145.776 26.9273L145.703 36.0005H140.624L140.771 26.9273Z" fill="#1EEDC8"/>
<path d="M193.397 13.6104L195.384 36.0737H190.158L180.811 22.0981L181.694 36.0737H176.616L175.438 13.6104H180.369L189.57 27.0737L188.466 13.6104H193.397Z" fill="#1EEDC8"/>
<path d="M210.031 35.1225C208.265 34.0982 206.793 32.6347 205.688 30.8055C204.584 28.9762 203.922 26.9274 203.628 24.586C203.407 22.2445 203.628 20.1957 204.29 18.5128C205.026 16.7567 206.057 15.4396 207.602 14.4884C209.074 13.5372 210.841 13.0981 212.902 13.0981C214.962 13.0981 216.876 13.5372 218.643 14.4884C220.409 15.4396 221.807 16.7567 222.985 18.5128C224.163 20.2689 224.899 22.3177 225.267 24.6591C225.635 27.0006 225.488 29.1225 224.825 30.9518C224.163 32.7811 223.059 34.2445 221.513 35.1957C219.967 36.2201 218.127 36.7323 215.993 36.7323C213.785 36.6591 211.797 36.1469 210.031 35.1225ZM219.379 29.7079C220.262 28.464 220.556 26.7079 220.262 24.586C219.967 22.464 219.231 20.7811 217.98 19.5372C216.802 18.2933 215.33 17.7079 213.564 17.7079C211.797 17.7079 210.473 18.2933 209.589 19.5372C208.706 20.7811 208.412 22.464 208.633 24.586C208.853 26.7811 209.589 28.464 210.841 29.7079C212.018 30.9518 213.564 31.6103 215.404 31.6103C217.097 31.6103 218.495 31.025 219.379 29.7079Z" fill="#1EEDC8"/>
<path d="M229.462 13.6104H234.541L241.312 28.025L243.079 14.8543H247.2L254.193 28.025L255.297 13.6104H260.375L258.609 36.0737H253.677L246.685 22.7567L244.845 36.0737H239.987L229.462 13.6104Z" fill="#1EEDC8"/>
</g>
<path d="M49.8721 32.1225H41.4078L39.1262 36.0737H33.606L47.6641 13.6104H51.197L56.0547 36.0737H50.5346L49.8721 32.1225ZM49.0625 27.3664L47.9585 20.9274L44.2047 27.3664H49.0625Z" fill="#D0FFFF"/>
<path d="M68.0519 13.6104H75.633C80.6379 13.6104 82.846 15.7323 82.2572 19.9762C81.9628 22.1713 81.0796 23.8542 79.6075 25.025C78.1355 26.1957 76.1482 26.7811 73.6457 26.7811H70.8488L69.3768 36.0737H64.2982L68.0519 13.6104ZM73.8665 22.1713C74.9706 22.1713 75.7802 22.025 76.369 21.7323C76.8842 21.4396 77.2522 20.8542 77.3994 20.0494C77.5466 19.2445 77.3258 18.7323 76.8842 18.4396C76.4426 18.1469 75.633 18.0738 74.5289 18.0738H72.2473L71.5848 22.1713H73.8665Z" fill="#D0FFFF"/>
<path d="M92.0463 13.6104H99.6274C104.632 13.6104 106.914 15.7323 106.546 19.9762C106.325 22.1713 105.589 23.8542 104.191 25.025C102.792 26.1957 100.805 26.7811 98.3025 26.7811H95.5056L94.4752 36.0737H89.3967L92.0463 13.6104ZM98.2289 22.1713C99.333 22.1713 100.143 22.025 100.731 21.7323C101.247 21.4396 101.541 20.8542 101.615 20.0494C101.688 19.2445 101.467 18.7323 101.026 18.4396C100.584 18.1469 99.7746 18.0738 98.5969 18.0738H96.3153L95.8737 22.1713H98.2289Z" fill="#D0FFFF"/>
<path d="M115.967 13.6104H120.825L119.794 31.2445H128.995L128.774 36.0737H114.421L115.967 13.6104Z" fill="#D0FFFF"/>
<path d="M140.771 26.9274L132.822 13.5371H138.563L143.2 22.0249L148.205 13.5371H153.946L145.776 26.9274L145.703 36.0005H140.624L140.771 26.9274Z" fill="#D0FFFF"/>
<path d="M193.397 13.6104L195.384 36.0737H190.158L180.811 22.0981L181.694 36.0737H176.616L175.438 13.6104H180.369L189.57 27.0737L188.466 13.6104H193.397Z" fill="#D0FFFF"/>
<path d="M210.031 35.1225C208.265 34.0982 206.793 32.6347 205.688 30.8055C204.584 28.9762 203.922 26.9274 203.628 24.586C203.407 22.2445 203.628 20.1957 204.29 18.5128C205.026 16.7567 206.057 15.4396 207.602 14.4884C209.074 13.5372 210.841 13.0981 212.902 13.0981C214.962 13.0981 216.876 13.5372 218.643 14.4884C220.409 15.4396 221.808 16.7567 222.985 18.5128C224.163 20.2689 224.899 22.3177 225.267 24.6591C225.635 27.0006 225.488 29.1225 224.825 30.9518C224.163 32.7811 223.059 34.2445 221.513 35.1957C219.967 36.2201 218.127 36.7323 215.993 36.7323C213.785 36.6591 211.798 36.1469 210.031 35.1225ZM219.379 29.7079C220.262 28.464 220.556 26.7079 220.262 24.586C219.967 22.464 219.231 20.7811 217.98 19.5372C216.803 18.2933 215.33 17.7079 213.564 17.7079C211.798 17.7079 210.473 18.2933 209.589 19.5372C208.706 20.7811 208.412 22.464 208.633 24.586C208.853 26.7811 209.589 28.464 210.841 29.7079C212.018 30.9518 213.564 31.6103 215.404 31.6103C217.097 31.6103 218.495 31.025 219.379 29.7079Z" fill="#D0FFFF"/>
<path d="M229.462 13.6104H234.541L241.312 28.025L243.079 14.8543H247.2L254.193 28.025L255.297 13.6104H260.375L258.609 36.0737H253.677L246.685 22.7567L244.845 36.0737H239.987L229.462 13.6104Z" fill="#D0FFFF"/>
</g>
<defs>
<filter id="filter0_f" x="28.606" y="8.09814" width="236.769" height="33.6342" filterUnits="userSpaceOnUse" color-interpolation-filters="sRGB">
<feFlood flood-opacity="0" result="BackgroundImageFix"/>
<feBlend mode="normal" in="SourceGraphic" in2="BackgroundImageFix" result="shape"/>
<feGaussianBlur stdDeviation="2.5" result="effect1_foregroundBlur"/>
</filter>
<clipPath id="clip0">
<rect width="297" height="78" fill="white"/>
</clipPath>
</defs>
</svg>
