<svg width="975" height="365" viewBox="0 0 975 365" fill="none" xmlns="http://www.w3.org/2000/svg">
<path d="M7.05731 115.594C1.06636 134.272 12.4258 151.788 32.266 154.733C128.043 175.504 223.743 196.197 319.52 216.968C319.909 205.808 320.22 194.647 320.609 183.487C216.118 160.856 111.627 138.225 7.05731 115.594Z" fill="#666666"/>
<path fill-rule="evenodd" clip-rule="evenodd" d="M3.75305 109.876L8.09304 110.815C112.632 133.44 217.093 156.064 321.554 178.689L325.642 179.574L325.499 183.657C325.305 189.227 325.13 194.799 324.955 200.381L324.955 200.392C324.78 205.967 324.605 211.552 324.41 217.139L324.206 222.988L318.482 221.747C270.595 211.361 222.726 200.995 174.857 190.629L174.832 190.624C127.022 180.271 79.2117 169.917 31.3818 159.545C8.81873 156.106 -4.5473 135.754 2.39772 114.102L3.75305 109.876ZM10.6874 121.382C8.47305 135.334 17.5373 147.604 32.9849 149.897L33.1453 149.921L33.3037 149.955C81.1915 160.34 129.06 170.706 176.929 181.072C222.889 191.025 268.85 200.978 314.828 210.948C314.946 207.332 315.06 203.714 315.173 200.092L315.174 200.074C315.306 195.854 315.439 191.628 315.58 187.401C213.974 165.394 112.367 143.388 10.6874 121.382Z" fill="#474747"/>
<path d="M87.6627 167.134C84.8618 181.317 94.4317 193.097 108.748 195.655C178.772 210.846 248.718 225.959 318.742 241.15C319.053 231.617 319.209 226.889 319.52 217.356C242.182 200.615 164.923 183.875 87.6627 167.134Z" fill="#666666"/>
<path fill-rule="evenodd" clip-rule="evenodd" d="M83.8275 161.3L88.6997 162.355C165.96 179.096 243.219 195.837 320.556 212.577L324.544 213.44L324.411 217.515C324.255 222.282 324.138 225.847 324.022 229.412L324.017 229.552C323.902 233.071 323.786 236.605 323.633 241.309L323.441 247.172L317.704 245.928C282.693 238.332 247.702 230.757 212.709 223.181L212.696 223.178C177.736 215.609 142.775 208.04 107.795 200.451C91.3056 197.462 79.4493 183.469 82.8623 166.187L83.8275 161.3ZM92.1107 173.1C92.6455 181.921 99.3929 189.017 109.609 190.842L109.698 190.858L109.786 190.877C144.787 198.47 179.768 206.043 214.751 213.617L214.781 213.624C247.862 220.786 280.944 227.948 314.043 235.127C314.113 232.985 314.177 231.039 314.241 229.093C314.322 226.619 314.403 224.146 314.497 221.271C240.32 205.214 166.214 189.157 92.1107 173.1Z" fill="#474747"/>
<path d="M119.563 198.6C117.462 213.248 127.888 224.874 142.359 227.509C200.868 240.219 259.377 252.852 317.886 265.563C318.197 256.03 318.353 251.302 318.664 241.769C252.375 227.354 185.93 212.938 119.563 198.6Z" fill="#666666"/>
<path fill-rule="evenodd" clip-rule="evenodd" d="M115.464 192.712L120.597 193.821C186.967 208.16 253.414 222.576 319.705 236.992L323.688 237.858L323.555 241.929C323.399 246.696 323.282 250.261 323.166 253.826L323.161 253.965C323.046 257.484 322.93 261.018 322.777 265.722L322.585 271.587L316.847 270.341C287.594 263.986 258.341 257.65 229.086 251.314L229.08 251.313C199.854 244.983 170.626 238.653 141.398 232.304C124.95 229.27 112.172 215.664 114.719 197.906L115.464 192.712ZM124.333 204.633C125.428 213.686 132.768 220.792 143.236 222.699L143.318 222.713L143.399 222.731C172.65 229.086 201.902 235.421 231.156 241.757L231.159 241.757C258.501 247.679 285.844 253.601 313.187 259.539C313.257 257.398 313.321 255.452 313.385 253.506L313.389 253.367C313.469 250.939 313.549 248.503 313.641 245.681C250.607 231.975 187.438 218.27 124.333 204.633Z" fill="#474747"/>
<path d="M535.35 31.9678C587.946 58.784 608.797 123.034 581.799 175.427C554.879 227.819 490.379 248.59 437.783 221.696C436.849 221.231 435.993 220.766 435.06 220.301L532.549 30.5728C533.482 31.0378 534.416 31.5028 535.35 31.9678Z" fill="#9E9E9E"/>
<path d="M431.247 233.399C378.34 214.333 351.031 156.128 370.171 103.426C389.311 50.7237 447.742 23.52 500.649 42.5858C501.583 42.8958 502.438 43.2833 503.372 43.5934L433.97 234.252C433.115 234.019 432.181 233.709 431.247 233.399Z" fill="#9E9E9E"/>
<g filter="url(#filter0_f)">
<path d="M431.247 233.399C378.34 214.333 351.031 156.128 370.171 103.426C389.311 50.7237 447.742 23.52 500.649 42.5858C501.583 42.8958 502.438 43.2833 503.372 43.5934L433.97 234.252C433.115 234.019 432.181 233.709 431.247 233.399Z" fill="#ED811E"/>
<path d="M535.35 31.9678C587.946 58.784 608.797 123.034 581.799 175.427C554.879 227.819 490.379 248.59 437.783 221.696C436.849 221.231 435.993 220.766 435.06 220.301L532.549 30.5728C533.482 31.0378 534.416 31.5028 535.35 31.9678Z" fill="#ED811E"/>
</g>
<path d="M431.247 233.399C378.34 214.333 351.031 156.128 370.171 103.426C389.311 50.7237 447.742 23.52 500.649 42.5858C501.583 42.8958 502.438 43.2833 503.372 43.5934L433.97 234.252C433.115 234.019 432.181 233.709 431.247 233.399Z" fill="#FFECD6"/>
<path d="M535.35 31.9678C587.946 58.784 608.797 123.034 581.799 175.427C554.879 227.819 490.379 248.59 437.783 221.696C436.849 221.231 435.993 220.766 435.06 220.301L532.549 30.5728C533.482 31.0378 534.416 31.5028 535.35 31.9678Z" fill="#FFECD6"/>
<path d="M263.812 211.853L269.57 211.156C277.661 210.148 308.238 201.39 417.787 141.403C428.291 135.667 434.982 131.87 435.06 131.87L436.382 131.172L466.104 139.775L509.597 101.101L691.037 203.715L698.973 200.538L703.174 234.717L294.934 256.96L263.812 211.853Z" fill="#666666"/>
<path d="M509.908 105.286L571.218 140.008L690.57 207.513L695.86 205.42L699.05 231.384L296.646 253.395L269.881 214.643C294.7 211.621 381.919 164.964 419.343 144.425C430.002 138.612 436.616 134.815 436.616 134.815L466.726 143.573L509.908 105.286ZM509.052 96.6831L505.317 100.016L465.092 135.745L438.717 128.072L435.916 127.219L433.348 128.692C433.27 128.692 426.657 132.49 416.153 138.225C340.527 179.689 285.597 205.575 269.181 207.59L257.743 208.986L264.279 218.441L291.044 257.193L293.3 260.448L297.19 260.215L699.439 238.359L706.909 237.972L705.975 230.609L702.785 204.645L701.696 195.655L693.215 199.065L691.114 199.918L574.641 134.04L513.331 99.3182L509.052 96.6831Z" fill="#474747"/>
<path d="M570.984 148.223L575.886 148.998L577.831 159.693L596.115 155.431C596.115 155.431 596.037 166.126 579.465 169.846L588.646 218.131L578.531 217.666L571.451 171.086L561.881 164.809L570.284 161.631L569.195 156.438L561.803 157.601C561.803 157.601 565.538 152.873 570.362 151.866L570.984 148.223Z" fill="#757575"/>
<path d="M967.865 126.987C973.856 145.665 962.496 163.181 942.656 166.126C846.879 186.897 751.179 207.59 655.402 228.361C655.013 217.201 654.702 206.04 654.313 194.88C758.882 172.249 863.373 149.618 967.865 126.987Z" fill="#666666"/>
<path fill-rule="evenodd" clip-rule="evenodd" d="M971.169 121.268L972.524 125.495C979.469 147.147 966.103 167.499 943.54 170.938C895.702 181.312 847.883 191.667 800.065 202.022L800.048 202.026C752.185 212.391 704.322 222.755 656.44 233.14L650.716 234.381L650.512 228.532C650.317 222.943 650.142 217.356 649.967 211.778L649.967 211.774C649.792 206.192 649.617 200.62 649.423 195.05L649.28 190.966L653.277 190.101C757.846 167.47 862.337 144.839 966.828 122.208L971.169 121.268ZM659.342 198.794C659.483 203.02 659.616 207.245 659.748 211.463L659.748 211.467C659.862 215.095 659.976 218.719 660.095 222.341C706.072 212.371 752.033 202.418 797.993 192.465L798.019 192.46C845.879 182.095 893.739 171.731 941.618 161.348L941.777 161.314L941.937 161.29C957.385 158.997 966.449 146.727 964.235 132.776C862.629 154.782 761.022 176.788 659.342 198.794Z" fill="#474747"/>
<path d="M887.337 178.527C890.138 192.71 880.568 204.49 866.252 207.048C796.228 222.239 726.282 237.352 656.258 252.542C655.947 243.009 655.791 238.282 655.48 228.749C732.74 212.008 810.077 195.267 887.337 178.527Z" fill="#666666"/>
<path fill-rule="evenodd" clip-rule="evenodd" d="M891.173 172.693L892.138 177.58C895.551 194.862 883.694 208.855 867.205 211.845C832.231 219.432 797.276 226.999 762.323 234.567L762.291 234.574C727.298 242.15 692.307 249.726 657.296 257.321L651.559 258.565L651.367 252.702C651.212 247.939 651.095 244.375 650.979 240.812L650.978 240.806C650.862 237.24 650.745 233.675 650.589 228.908L650.456 224.834L654.443 223.971C693.073 215.6 731.723 207.23 770.372 198.859L770.403 198.853C809.042 190.485 847.681 182.116 886.3 173.748L891.173 172.693ZM660.503 232.664C660.597 235.537 660.678 238.01 660.759 240.483L660.759 240.486L660.759 240.486C660.823 242.432 660.887 244.378 660.957 246.52C694.056 239.341 727.138 232.179 760.219 225.017C795.212 217.441 830.203 209.865 865.214 202.27L865.302 202.251L865.391 202.235C875.607 200.41 882.355 193.314 882.889 184.494C846.086 192.468 809.265 200.442 772.445 208.416C735.125 216.499 697.805 224.581 660.503 232.664Z" fill="#474747"/>
<path d="M855.36 209.993C857.46 224.641 847.035 236.267 832.563 238.902C774.054 251.613 715.545 264.246 657.036 276.956C656.725 267.423 656.569 262.696 656.258 253.163C722.625 238.747 788.992 224.331 855.36 209.993Z" fill="#666666"/>
<path fill-rule="evenodd" clip-rule="evenodd" d="M859.458 204.105L860.203 209.3C862.75 227.057 849.972 240.663 833.524 243.697C804.299 250.046 775.074 256.375 745.85 262.704L745.836 262.707C716.581 269.043 687.328 275.379 658.075 281.734L652.337 282.981L652.145 277.115C651.99 272.352 651.873 268.789 651.757 265.226L651.756 265.219C651.64 261.654 651.523 258.089 651.367 253.322L651.234 249.25L655.232 248.382C721.594 233.967 787.96 219.552 854.326 205.214L859.458 204.105ZM661.281 257.075C661.375 259.951 661.456 262.425 661.537 264.899C661.601 266.845 661.665 268.791 661.735 270.932C689.075 264.995 716.415 259.074 743.753 253.153L743.763 253.151L743.766 253.15C773.02 246.814 802.272 240.479 831.523 234.124L831.604 234.107L831.686 234.092C842.155 232.185 849.494 225.079 850.589 216.026C787.488 229.663 724.386 243.368 661.281 257.075Z" fill="#474747"/>
<path d="M787.592 314.003L803.386 301.525H787.592V314.003Z" fill="#404040"/>
<path d="M787.592 314.003L803.386 301.525H787.592V314.003Z" fill="#404040"/>
<path d="M121.819 281.451L163.055 314.003H179.394V278.351C179.394 278.351 121.819 281.529 121.819 281.451Z" fill="#404040"/>
<path d="M787.825 314.003V301.602H176.671V314.003H787.825Z" fill="#404040"/>
<path d="M571.218 139.93C544.142 150.781 520.489 161.166 520.489 161.166L499.56 152.796L466.026 177.209L419.265 144.348C429.925 138.535 436.538 134.737 436.538 134.737L466.648 143.495L509.752 105.131L571.218 139.93Z" fill="#878787"/>
<path d="M662.716 161.321L641.631 209.916L670.263 239.522C670.263 239.522 674.853 219.836 674.853 217.899C674.853 215.883 662.716 161.321 662.716 161.321Z" fill="#404040"/>
<path d="M818.169 220.224V289.977H146.716V220.224H567.872C568.339 222.084 568.572 224.021 568.728 225.959C568.728 226.269 568.806 226.579 568.806 226.889C568.806 227.354 568.883 227.819 568.883 228.284L571.762 224.331L574.719 220.224H818.169Z" fill="#404040"/>
<path d="M803.308 281.451H147.494V301.602H803.308V281.451Z" fill="#404040"/>
<path d="M803.239 301.602L833.886 278.506L803.239 281.451V301.602Z" fill="#404040"/>
<path d="M220.631 200.073L240.86 220.224L226.855 234.174" fill="#404040"/>
<path d="M273.538 193.097L282.874 206.273L275.872 220.224L273.538 193.097Z" fill="#404040"/>
<path d="M364.18 192.865L374.372 209.916L370.56 224.564L347.063 222.626L364.18 192.865Z" fill="#404040"/>
<path d="M314.385 192.865L325.044 203.56L316.875 221.231L314.385 192.865Z" fill="#404040"/>
<path d="M498.237 177.829L505.784 163.569L510.841 179.689H508.429L514.887 196.74L504.306 196.275L503.372 203.173L498.626 202.475L499.871 194.88L490.301 194.415L501.583 178.759L498.237 177.829Z" fill="#757575"/>
<path d="M411.485 161.398L428.057 203.793L404.716 207.048L411.485 161.398Z" fill="#404040"/>
<path d="M474.74 161.398L488.9 223.711L469.605 225.184" fill="#404040"/>
<path d="M486.722 212.241L477.074 226.424L499.949 225.649L500.26 219.759L486.722 212.241Z" fill="#404040"/>
<path d="M588.101 201.855C588.101 201.855 588.101 201.933 588.023 202.01C587.479 203.328 583.978 211.931 581.099 218.984C580.943 219.371 580.71 219.836 580.554 220.224C579.465 222.859 578.453 225.184 577.831 226.656C577.442 227.586 577.131 228.206 577.131 228.284C577.053 228.361 576.586 228.439 575.964 228.516C574.952 228.594 573.396 228.671 571.996 228.671C570.673 228.671 569.506 228.749 568.883 228.749C568.65 228.749 568.494 228.749 568.494 228.749L568.883 228.284L571.762 224.331L574.719 220.224L575.652 218.984L580.554 212.241L583.433 208.288L587.79 202.32L587.868 202.165L588.101 201.855Z" fill="#404040"/>
<path d="M766.818 200.848L739.587 222.859L767.83 224.874L766.818 200.848Z" fill="#404040"/>
<path d="M715.156 192.865L702.629 203.56L705.586 209.916L715.156 192.865Z" fill="#404040"/>
<path d="M339.438 341.361C344.262 325.318 349.086 309.275 353.832 293.309H629.182C629.182 293.309 639.686 328.263 643.576 341.361H339.438Z" fill="#666666"/>
<path d="M626.537 296.719L629.104 305.322C632.372 316.173 635.64 327.023 638.83 337.796H344.106C348.23 324.078 352.354 310.36 356.477 296.642H626.537V296.719ZM631.749 289.744H351.264C345.74 308.112 340.294 326.481 334.77 344.849H648.322C642.798 326.481 637.274 308.112 631.749 289.744Z" fill="#474747"/>
<path d="M626.692 344.694H358.734V354.305H626.692V344.694Z" fill="#404040"/>
<path d="M360.367 365L334.692 344.849H360.367V365Z" fill="#404040"/>
<path d="M532.549 169.459L545.231 145.665L553.556 172.636H549.51L560.403 201.08L542.741 200.305L541.185 211.776L533.171 210.613L535.35 197.903L519.244 197.128L538.073 171.009L532.549 169.459Z" fill="#757575"/>
<path d="M622.646 365L648.322 344.849H622.646V365Z" fill="#404040"/>
<path d="M218.452 224.564C214.64 241.459 210.749 258.355 206.937 275.173H182.429C185.852 261.145 189.353 247.195 192.777 233.167C193.477 230.299 193.866 227.819 194.021 225.649C194.099 223.556 193.477 221.696 192.154 219.991C190.831 218.363 188.264 217.511 184.529 217.511C180.094 217.511 176.515 218.673 173.792 220.999C171.069 223.324 169.046 225.959 167.801 228.981C166.557 231.927 165.312 235.492 164.222 239.599C161.032 251.457 157.842 263.238 154.73 275.096H130.222C137.535 249.752 144.849 224.331 152.163 198.988H175.193C174.415 201.855 174.026 203.25 173.325 206.118C179.705 200.15 188.264 197.205 197.056 197.282C205.692 197.282 211.839 199.763 215.651 204.645C219.308 209.606 220.319 216.193 218.452 224.564Z" fill="#666666"/>
<path d="M220.864 200.305C215.573 193.562 206.781 191.005 198.456 191.237C192.777 191.237 187.408 192.167 182.584 194.105C182.74 193.64 182.74 193.407 182.895 192.942H147.806C147.105 195.423 146.716 196.663 146.016 199.143C138.547 224.564 131.155 249.907 123.686 275.251C122.986 277.731 122.597 278.971 121.897 281.451H159.554C160.177 278.971 160.488 277.731 161.188 275.251C164.3 263.393 167.412 251.612 170.525 239.754C171.536 235.957 172.625 232.702 173.715 230.067C174.493 228.284 175.66 226.734 177.294 225.339C178.694 224.099 181.184 223.866 182.973 223.866C186.008 223.866 186.708 224.564 186.786 224.641C187.564 225.649 187.642 226.424 187.642 226.966C187.564 228.671 187.175 230.842 186.552 233.244C183.051 247.272 179.55 261.223 175.971 275.251C175.348 277.731 175.037 278.971 174.415 281.451H212.072C212.617 278.971 212.928 277.731 213.473 275.251C217.207 258.355 220.942 241.46 224.754 224.641C225.065 223.246 225.377 221.774 225.532 220.301C226.31 213.248 225.221 205.963 220.864 200.305ZM218.919 222.316C218.841 223.014 218.686 223.789 218.452 224.486C214.64 241.382 210.749 258.278 206.937 275.096H182.429C185.852 261.068 189.353 247.117 192.777 233.089C193.477 230.222 193.866 227.741 194.021 225.571C194.099 224.486 193.944 223.401 193.555 222.471C193.477 222.239 193.399 222.084 193.321 221.851C193.243 221.696 193.166 221.464 193.01 221.309V221.231C192.932 221.076 192.854 220.921 192.699 220.766C192.699 220.766 192.621 220.689 192.621 220.611C192.465 220.456 192.388 220.224 192.232 220.069C192.232 219.991 192.154 219.991 192.154 219.914C190.831 218.286 188.264 217.433 184.529 217.433C184.218 217.433 183.985 217.433 183.673 217.433C183.44 217.433 183.129 217.433 182.895 217.433C182.584 217.433 182.273 217.511 181.962 217.511C181.806 217.511 181.573 217.511 181.417 217.588C181.028 217.666 180.717 217.666 180.406 217.743C180.172 217.743 180.017 217.821 179.783 217.899C179.394 217.976 178.927 218.131 178.538 218.209C178.383 218.286 178.305 218.286 178.149 218.364C177.916 218.441 177.605 218.519 177.371 218.674C177.216 218.751 176.982 218.829 176.827 218.906C176.671 218.984 176.515 219.061 176.282 219.139C175.737 219.371 175.271 219.681 174.726 220.069C174.648 220.146 174.57 220.146 174.57 220.224C174.415 220.301 174.259 220.379 174.181 220.534C174.026 220.689 173.87 220.766 173.637 220.921C170.914 223.246 168.891 225.881 167.646 228.904C166.401 231.849 165.156 235.414 164.067 239.522C160.877 251.38 157.687 263.16 154.575 275.018H130.066C137.38 249.675 144.693 224.254 152.007 198.91H175.037C174.259 201.778 173.87 203.173 173.17 206.04C179.55 200.073 188.108 197.128 196.9 197.205C205.537 197.205 211.683 199.685 215.496 204.568C216.585 205.963 217.518 207.591 218.141 209.296C218.219 209.528 218.296 209.761 218.374 210.071C218.53 210.613 218.686 211.078 218.763 211.621C218.841 211.853 218.919 212.163 218.919 212.396C219.23 214.023 219.308 215.651 219.308 217.511C219.308 217.821 219.308 218.054 219.308 218.364C219.308 218.674 219.23 218.906 219.23 219.216C219.23 219.526 219.152 219.759 219.152 220.069C219.075 220.921 218.997 221.619 218.919 222.316Z" fill="#474747"/>
<path d="M355.155 199.065C344.029 224.641 332.591 249.985 320.687 275.174H299.058C297.112 260.913 295.323 246.575 293.611 232.237C287.309 246.575 280.851 260.913 274.394 275.174H252.53C249.029 249.83 245.917 224.486 243.272 199.065H267.702C268.792 212.551 269.959 225.959 271.204 239.367C277.35 225.959 283.419 212.551 289.332 199.065H308.705C310.261 212.396 311.895 225.726 313.685 239.057C319.364 225.726 325.044 212.396 330.568 199.065H355.155Z" fill="#666666"/>
<path d="M326.834 192.865C326.056 194.647 325.744 195.577 324.966 197.36C321.854 204.723 320.298 208.443 317.186 215.806C316.252 208.443 315.785 204.723 314.93 197.36C314.696 195.577 314.618 194.647 314.385 192.787H285.831C285.053 194.647 284.586 195.5 283.808 197.36C280.54 204.723 278.906 208.366 275.561 215.728C274.86 208.366 274.549 204.723 273.927 197.36C273.771 195.577 273.693 194.647 273.538 192.787H236.347C236.658 196.042 236.814 197.593 237.125 200.848C237.748 207.28 238.448 213.713 239.148 220.146C241.171 239.134 243.505 258.045 246.073 276.956C246.306 278.661 246.462 279.514 246.695 281.296H278.517C279.373 279.436 279.762 278.584 280.618 276.724C283.808 269.671 286.998 262.695 290.11 255.643C291.121 264.09 291.666 268.353 292.833 276.801C293.067 278.584 293.222 279.514 293.456 281.296H324.889C325.667 279.591 326.133 278.739 326.912 277.034C335.703 258.2 344.262 239.212 352.665 220.146C355.466 213.713 358.267 207.28 361.068 200.848C362.468 197.593 363.168 196.042 364.491 192.787H326.834V192.865ZM350.564 209.606C349.008 213.093 347.452 216.658 345.896 220.146C344.884 222.471 343.873 224.719 342.784 227.044C341.928 228.981 340.994 230.997 340.138 232.934C339.905 233.477 339.671 233.942 339.438 234.484C338.738 236.112 337.96 237.739 337.26 239.289C334.536 245.335 331.735 251.38 328.934 257.425C327.845 259.828 326.756 262.23 325.589 264.633C323.955 268.121 322.321 271.608 320.687 275.096H299.058C297.112 260.835 295.323 246.497 293.611 232.159C287.309 246.497 280.851 260.835 274.393 275.096H252.53C252.064 271.531 251.519 267.966 251.052 264.401C250.819 262.463 250.508 260.448 250.274 258.51C250.118 257.193 249.885 255.798 249.729 254.48C248.951 248.435 248.173 242.312 247.473 236.267C247.162 234.019 246.929 231.849 246.695 229.601C246.306 226.424 245.917 223.246 245.606 220.069C245.217 216.581 244.828 213.016 244.439 209.528C244.05 206.04 243.661 202.475 243.272 198.91H267.702C268.247 205.963 268.869 213.016 269.492 220.069C270.036 226.424 270.659 232.857 271.204 239.212C274.16 232.857 277.039 226.424 279.918 220.069C283.108 213.016 286.22 205.963 289.41 198.91H308.783C309.639 205.963 310.417 213.016 311.351 220.069C312.129 226.346 312.907 232.624 313.763 238.902C316.486 232.624 319.131 226.346 321.776 220.069C324.733 213.016 327.69 205.963 330.646 198.91H355.232C353.676 202.553 352.12 206.118 350.564 209.606Z" fill="#474747"/>
<path d="M468.671 167.521C467.815 203.405 467.037 239.289 466.182 275.174H440.662C441.284 260.37 441.907 245.49 442.607 230.687H400.126C398.959 245.49 397.791 260.293 396.702 275.174H371.182C374.684 239.289 378.185 203.405 381.686 167.521H405.027C403.938 181.162 402.927 194.802 401.837 208.443H443.54C444.163 194.802 444.708 181.162 445.33 167.521H468.671Z" fill="#666666"/>
<path d="M439.728 161.398C439.572 163.879 439.572 165.119 439.417 167.599C438.872 179.147 438.328 190.772 437.705 202.32H408.451C409.307 190.772 410.162 179.147 410.94 167.599C411.096 165.119 411.252 163.879 411.407 161.398H376.395C376.162 163.879 376.006 165.119 375.773 167.599C373.983 185.114 372.194 202.708 370.326 220.224C368.459 238.514 366.592 256.883 364.647 275.173C364.413 277.654 364.258 278.894 364.024 281.374H402.693C402.849 278.894 402.927 277.654 403.16 275.173C404.094 262.385 405.027 249.675 405.961 236.887H436.071C435.449 249.675 434.826 262.385 434.204 275.173C434.048 277.654 434.048 278.894 433.893 281.374H472.562C472.562 278.894 472.639 277.654 472.639 275.173C472.951 256.883 473.34 238.514 473.651 220.224C473.962 202.708 474.273 185.114 474.585 167.599C474.662 165.119 474.662 163.879 474.74 161.398H439.728ZM466.182 275.173H440.662C441.284 260.37 441.907 245.49 442.607 230.686H400.126C398.959 245.49 397.791 260.293 396.702 275.173H371.182C372.972 256.883 374.761 238.514 376.551 220.224C378.262 202.708 379.974 185.114 381.686 167.599H405.027C403.938 181.239 402.927 194.88 401.837 208.521H443.54C444.163 194.88 444.708 181.239 445.33 167.599H468.671C468.282 185.114 467.893 202.708 467.426 220.224C467.037 238.514 466.648 256.883 466.182 275.173Z" fill="#474747"/>
<path d="M562.659 226.811C562.581 224.564 562.192 222.316 561.648 220.146C560.092 214.411 556.902 209.14 552.233 205.265C545.153 199.453 535.894 197.205 526.791 197.282C519.867 197.282 513.253 198.445 506.873 200.848C500.493 203.25 494.969 206.815 490.379 211.698C493.802 214.566 497.226 217.356 500.571 220.146C502.827 222.006 505.084 223.866 507.34 225.726C509.83 223.246 512.32 221.386 514.654 220.146C515.276 219.836 515.821 219.526 516.443 219.293C519.4 218.131 522.434 217.511 525.624 217.511C529.748 217.511 533.016 218.363 535.428 220.068L535.505 220.146C537.839 221.851 539.084 224.021 539.162 226.811C539.162 227.276 539.162 227.586 539.24 228.051H517.999C510.919 228.051 505.006 229.369 500.182 231.926C496.837 233.787 494.269 236.267 492.324 239.444C490.457 242.622 489.445 246.342 489.445 250.605C489.445 255.72 490.768 260.293 493.413 264.245C496.058 268.198 499.715 271.298 504.461 273.546C509.207 275.716 514.576 276.878 520.489 276.878C528.425 277.034 536.283 274.088 541.107 267.578C541.885 270.601 542.274 272.151 543.052 275.173H565.46C564.526 259.053 563.593 242.932 562.659 226.811ZM535.194 254.48C532.082 256.96 528.347 258.2 523.99 258.2C520.645 258.2 518.155 257.503 516.365 256.185C514.576 254.868 513.642 253.162 513.642 251.07C513.564 249.132 514.343 247.582 515.899 246.575C517.221 245.645 519.244 245.18 521.89 245.18H539.94C539.862 248.9 538.306 252 535.194 254.48Z" fill="#666666"/>
<path d="M539.94 245.257C539.862 248.977 538.306 252.078 535.194 254.48C532.082 256.883 528.347 258.2 523.99 258.2C520.645 258.2 518.155 257.503 516.365 256.185C514.576 254.868 513.642 253.163 513.642 251.07C513.564 249.132 514.343 247.582 515.899 246.575C517.221 245.645 519.244 245.18 521.89 245.18H539.94V245.257Z" fill="#474747"/>
<path d="M533.716 222.626C531.926 221.309 529.203 220.688 525.78 220.688C522.979 220.688 520.256 221.231 517.766 222.239C516.132 222.859 514.498 223.866 512.709 225.261C514.42 225.106 516.132 225.029 517.999 225.029H535.817C535.35 224.099 534.65 223.324 533.716 222.626Z" fill="#474747"/>
<path d="M571.996 275.173C571.062 260.293 570.051 245.49 569.117 230.609C569.117 229.989 569.039 229.369 568.961 228.671C568.961 228.516 568.961 228.361 568.961 228.206C568.961 227.741 568.884 227.276 568.884 226.811C568.884 226.501 568.806 226.191 568.806 225.881C568.65 223.944 568.339 222.006 567.95 220.146C566.16 212.551 562.037 205.653 555.89 200.538C547.721 193.795 537.061 191.005 526.558 191.082C519.478 190.927 511.23 192.4 504.695 195.035C498.004 197.36 490.69 202.165 485.944 207.358C484.154 209.295 483.221 210.226 481.353 212.163C483.376 213.868 484.388 214.721 486.411 216.426C488.122 217.898 489.601 219.061 490.923 220.146C493.102 222.006 495.125 223.634 498.081 226.036C497.848 226.191 497.537 226.346 497.303 226.424C497.303 226.424 497.303 226.424 497.226 226.424C492.946 228.826 489.523 232.082 487.033 236.189C484.543 240.297 483.299 245.102 483.221 250.527C483.221 256.805 484.777 262.54 488.122 267.501C491.39 272.383 495.981 276.258 501.816 278.971C503.839 279.901 505.94 280.676 508.196 281.296C512.164 282.381 516.365 282.924 520.8 282.924C525.002 282.924 528.814 282.381 532.315 281.296C534.183 280.676 535.972 279.979 537.606 279.049C537.84 279.901 537.917 280.366 538.151 281.219H572.54C572.229 278.894 572.151 277.654 571.996 275.173ZM543.052 275.173C542.274 272.151 541.885 270.601 541.107 267.578C536.283 274.088 528.425 276.956 520.489 276.879C514.498 276.879 509.13 275.793 504.461 273.546C499.715 271.298 496.058 268.276 493.413 264.245C490.768 260.293 489.445 255.72 489.445 250.605C489.445 246.265 490.379 242.544 492.324 239.444C494.191 236.267 496.837 233.787 500.182 231.927C504.928 229.369 510.919 228.051 517.999 228.051H539.24C539.24 227.586 539.24 227.276 539.162 226.811C539.084 224.099 537.84 221.851 535.505 220.146L535.428 220.068C533.016 218.363 529.748 217.511 525.624 217.511C522.434 217.511 519.4 218.131 516.443 219.293C515.821 219.526 515.276 219.836 514.654 220.146C512.32 221.386 509.83 223.246 507.34 225.726C505.084 223.866 502.827 222.006 500.571 220.146C497.148 217.356 493.724 214.488 490.379 211.698C494.969 206.893 500.493 203.25 506.873 200.848C513.253 198.523 519.867 197.282 526.791 197.282C535.817 197.205 545.075 199.453 552.233 205.265C556.979 209.14 560.169 214.411 561.648 220.146C562.192 222.316 562.581 224.564 562.659 226.811C563.593 242.932 564.604 259.053 565.538 275.173H543.052ZM525.702 220.688C529.125 220.688 531.849 221.309 533.638 222.626C534.65 223.324 535.272 224.099 535.661 225.029H517.844C516.054 225.029 514.265 225.106 512.553 225.261C514.265 223.866 515.976 222.859 517.61 222.239C520.256 221.154 522.979 220.688 525.702 220.688Z" fill="#474747"/>
<path d="M657.425 253.783C655.791 260.99 652.134 266.648 646.61 270.833C641.242 275.096 632.605 277.421 625.836 277.111C618.445 277.421 609.186 275.406 602.884 271.453C596.504 267.733 591.602 262.773 588.179 256.805C584.756 250.76 582.81 244.405 582.266 237.584C581.721 230.609 582.655 224.021 585.067 217.976C587.479 211.931 591.369 206.971 596.737 203.25C602.106 199.453 608.797 197.593 616.967 197.593C623.891 197.36 632.605 199.608 638.441 203.405C644.743 207.048 650.734 214.178 653.69 220.766C646.688 223.711 639.685 226.656 632.683 229.602C631.749 226.114 630.038 223.246 627.548 221.154C625.058 218.984 622.257 217.899 619.145 217.899C614.088 217.899 610.587 219.836 608.719 223.634C606.852 227.431 606.152 232.159 606.696 237.662C607.241 243.242 608.797 247.815 611.442 251.457C614.088 255.1 618.056 256.96 623.269 256.96C626.381 256.96 628.948 255.953 631.049 253.86C633.15 251.768 634.395 249.055 634.706 245.645C642.253 248.357 649.8 251.07 657.425 253.783Z" fill="#666666"/>
<path d="M658.903 248.047C651.356 245.335 643.809 242.622 636.262 239.832C633.772 238.902 632.528 238.437 630.038 237.584C632.294 236.654 633.383 236.189 635.64 235.259C642.642 232.314 649.722 229.447 656.725 226.424C658.825 225.571 659.915 225.106 662.015 224.176C661.16 222.471 660.615 221.464 659.915 220.069C659.681 219.604 659.448 219.139 659.137 218.519C655.013 210.303 648.944 202.94 641.008 198.058C633.383 193.097 622.724 191.16 616.189 191.237C609.653 191.315 599.772 192.787 592.847 197.903C591.213 198.988 589.579 200.305 588.023 201.855C587.946 201.933 587.868 202.01 587.868 202.01C587.79 202.088 587.79 202.088 587.712 202.165C585.845 204.103 584.055 206.273 582.577 208.521C581.877 209.683 581.177 210.846 580.632 212.008C580.087 213.016 579.698 214.101 579.309 215.108C578.687 216.658 578.142 218.286 577.598 219.991C576.897 222.626 576.353 225.416 576.041 228.206C575.73 231.384 575.652 234.484 575.964 237.352C576.275 244.56 578.842 253.008 582.577 259.208C586.156 265.951 593.081 272.771 599.85 276.414C603.506 278.506 607.397 280.134 611.442 281.219C616.344 282.536 621.479 283.156 626.537 283.079C630.894 282.691 635.251 282.226 639.374 281.219C643.498 280.211 647.466 278.506 651.045 275.716C657.192 271.453 662.482 263.006 663.727 255.72C664.272 253.473 664.505 252.31 665.05 250.062C662.56 249.365 661.315 248.9 658.903 248.047ZM646.532 270.833C641.164 275.096 632.528 277.421 625.759 277.111C618.367 277.421 609.108 275.406 602.806 271.453C596.426 267.733 591.525 262.773 588.101 256.805C584.678 250.76 582.733 244.405 582.188 237.584C582.032 235.957 582.032 234.407 582.032 232.857C582.032 232.547 582.032 232.237 582.032 232.004C582.032 231.384 582.11 230.842 582.11 230.299V230.222C582.11 229.912 582.188 229.679 582.188 229.369C582.188 229.059 582.266 228.826 582.266 228.516C582.421 227.431 582.577 226.269 582.81 225.261C582.81 225.184 582.81 225.106 582.81 225.106C582.888 224.874 582.888 224.564 582.966 224.331C583.122 223.789 583.199 223.246 583.355 222.704C583.433 222.394 583.511 222.161 583.588 221.851C583.744 221.309 583.9 220.766 584.133 220.224C584.211 219.836 584.367 219.449 584.522 219.139C584.678 218.751 584.756 218.364 584.911 218.054C587.323 212.008 591.213 207.048 596.582 203.328C601.95 199.608 608.642 197.67 616.811 197.67C623.736 197.438 632.45 199.685 638.285 203.483C638.674 203.715 639.063 203.948 639.452 204.18C639.608 204.335 639.841 204.413 640.075 204.568C640.464 204.8 640.775 205.033 641.164 205.343C643.965 207.436 646.61 210.148 648.867 213.093C649.022 213.248 649.178 213.481 649.333 213.713C649.489 213.868 649.645 214.101 649.8 214.333C651.201 216.271 652.446 218.364 653.379 220.379C653.457 220.534 653.535 220.766 653.613 220.921C646.61 223.866 639.608 226.811 632.605 229.679C631.672 226.191 629.96 223.324 627.47 221.231C627.081 220.921 626.77 220.611 626.381 220.379C625.292 219.604 624.202 218.984 623.035 218.596C622.724 218.519 622.335 218.364 622.024 218.286C621.791 218.209 621.479 218.131 621.246 218.131C621.09 218.131 621.012 218.131 620.857 218.054C620.468 217.976 620.079 217.976 619.69 217.976C619.534 217.976 619.301 217.976 619.145 217.976C618.834 217.976 618.523 217.976 618.289 217.976C618.211 217.976 618.212 217.976 618.134 217.976C617.9 217.976 617.589 217.976 617.356 218.054H617.278C617.044 218.054 616.733 218.131 616.5 218.131C616.189 218.209 615.877 218.209 615.566 218.286C615.333 218.364 615.099 218.441 614.866 218.441C614.71 218.519 614.477 218.596 614.243 218.596C614.088 218.674 613.854 218.751 613.699 218.829C613.543 218.906 613.465 218.906 613.31 218.984C613.154 219.061 612.999 219.139 612.843 219.216C612.765 219.294 612.687 219.294 612.61 219.371C612.532 219.449 612.454 219.449 612.376 219.526C612.143 219.681 611.987 219.759 611.754 219.914L611.676 219.991C611.598 220.069 611.443 220.146 611.365 220.224C611.209 220.301 611.131 220.456 610.976 220.534C610.82 220.689 610.664 220.844 610.509 220.999C610.509 220.999 610.509 220.999 610.431 221.076C610.275 221.231 610.198 221.309 610.042 221.464C609.964 221.541 609.964 221.619 609.886 221.696C609.731 221.851 609.575 222.084 609.497 222.239C609.342 222.394 609.264 222.549 609.186 222.704C609.031 222.936 608.875 223.246 608.719 223.556C606.852 227.354 606.152 232.082 606.696 237.584C607.241 243.165 608.797 247.737 611.442 251.38C614.088 255.023 618.056 256.883 623.269 256.883C626.381 256.883 628.949 255.875 631.049 253.783C633.15 251.69 634.395 248.977 634.706 245.567C642.253 248.28 649.8 251.07 657.425 253.783C655.713 260.99 652.134 266.726 646.532 270.833ZM614.399 226.734C615.099 225.339 616.189 224.021 619.845 224.021C621.324 224.021 622.491 224.486 623.658 225.494C625.058 226.734 625.992 228.361 626.537 230.454C627.392 233.554 627.781 235.104 628.637 238.204C628.793 238.127 628.871 238.127 629.026 238.049C628.793 240.53 628.637 241.847 628.404 244.327C628.17 246.42 627.47 248.047 626.303 249.21C625.292 250.217 624.125 250.682 622.646 250.682C618.912 250.682 617.511 249.442 616.578 248.202C614.633 245.567 613.465 242.002 612.999 237.584C612.532 233.167 612.999 229.524 614.399 226.734Z" fill="#474747"/>
<path d="M769.386 275.173H740.365C731.417 264.633 722.547 254.015 713.755 243.397C711.11 247.272 709.787 249.21 707.064 253.162C708.387 260.525 709.71 267.888 710.955 275.251H686.446C680.766 239.367 675.164 203.483 669.485 167.599H691.892C695.238 186.509 698.584 205.42 701.929 224.254C707.765 215.961 713.522 207.513 719.124 199.065H749.779C742.621 208.753 735.385 218.286 727.994 227.819C741.687 243.707 755.459 259.518 769.386 275.173Z" fill="#666666"/>
<path d="M774.132 271.841C761.294 257.58 748.69 243.087 736.163 228.594C738.342 225.804 740.442 223.014 742.621 220.224C746.9 214.643 751.102 209.063 755.225 203.405C758.337 199.22 759.816 197.128 762.85 192.942H715.234C714.689 193.795 714.378 194.26 713.833 195.035C710.41 200.15 708.698 202.708 705.197 207.745C702.785 194.337 700.295 180.929 697.883 167.599C697.417 165.119 697.183 163.879 696.794 161.398H662.56C662.949 163.879 663.105 165.119 663.494 167.599C666.139 185.114 668.862 202.708 671.508 220.224C674.309 238.514 677.11 256.883 679.911 275.173C680.3 277.654 680.455 278.894 680.844 281.374H718.579C718.113 278.894 717.879 277.654 717.49 275.173C716.012 267.268 715.312 263.315 713.911 255.333C714.3 254.713 714.533 254.403 714.923 253.86C721.769 262.075 728.616 270.291 735.541 278.429C736.552 279.591 737.019 280.211 738.03 281.374H782.768C779.267 277.576 777.555 275.638 774.132 271.841ZM740.365 275.173C731.417 264.633 722.547 254.015 713.755 243.397C711.11 247.272 709.787 249.21 707.064 253.162C708.387 260.525 709.71 267.888 710.955 275.251H686.446C683.567 256.96 680.689 238.592 677.81 220.301C675.009 202.785 672.286 185.192 669.485 167.676H691.892C695.005 185.192 698.117 202.785 701.229 220.301C701.462 221.619 701.696 223.014 701.929 224.331C702.863 223.014 703.796 221.619 704.73 220.301C704.808 220.224 704.886 220.146 704.886 219.991C705.975 218.363 707.142 216.813 708.231 215.186C708.309 215.031 708.465 214.876 708.543 214.721C709.476 213.326 710.41 212.008 711.344 210.613C713.911 206.815 716.479 203.018 719.046 199.143H749.701C747.912 201.545 746.122 203.948 744.41 206.273C744.333 206.35 744.333 206.428 744.255 206.428C742.699 208.521 741.143 210.613 739.509 212.706C737.641 215.186 735.696 217.743 733.751 220.224C731.806 222.781 729.861 225.261 727.916 227.819C741.532 243.785 755.303 259.595 769.308 275.251H740.365V275.173Z" fill="#474747"/>
<path d="M837.62 249.985C836.064 244.405 833.419 239.987 829.918 236.732C826.416 233.477 822.682 231.074 818.792 229.602C818.636 229.524 818.48 229.447 818.325 229.447C814.512 228.051 810 226.734 804.631 225.494C800.352 224.564 797.162 223.634 795.061 222.704C793.583 222.084 792.494 221.231 791.871 220.224C791.56 219.759 791.404 219.371 791.249 218.829C790.938 217.511 791.171 216.426 792.182 215.651C793.116 214.876 794.594 214.488 796.695 214.488C799.963 214.488 802.764 215.341 804.942 217.123C806.032 217.976 807.199 219.061 808.366 220.224C809.533 221.386 810.622 222.626 811.789 224.099C814.123 222.626 815.991 221.386 817.78 220.224C820.659 218.364 823.304 216.658 827.039 214.178C822.371 208.908 817.08 204.8 811.244 201.855C805.409 198.833 799.185 197.36 792.494 197.36C784.791 197.36 778.644 199.375 773.976 203.328C769.541 207.126 767.985 212.783 769.541 220.224C769.619 220.534 769.697 220.844 769.775 221.154C770.942 226.191 773.12 230.299 776.31 233.477C779.5 236.654 782.924 239.057 786.736 240.685C790.471 242.312 795.139 243.862 800.585 245.412C805.254 246.73 808.755 247.97 811.011 249.055C813.267 250.14 814.59 251.535 815.057 253.318C815.446 254.635 815.057 255.798 813.968 256.883C812.878 257.89 810.855 258.433 807.743 258.433C804.475 258.433 801.675 257.813 799.418 256.573C797.162 255.333 795.528 254.015 794.439 252.543C793.349 251.07 791.949 249.132 790.393 246.652C783.624 249.907 780.278 251.535 773.431 254.868C775.61 258.665 778.644 262.308 782.612 265.641C786.58 269.051 791.171 271.763 796.384 273.856C801.597 275.949 807.043 276.956 812.645 276.956C814.59 276.956 816.457 276.801 818.247 276.569C821.437 276.104 824.549 275.329 827.428 274.089C831.94 272.228 835.208 269.206 837.231 265.176C839.176 260.99 839.332 255.953 837.62 249.985Z" fill="#666666"/>
<path d="M843.922 249.985C841.899 243.087 838.476 237.274 833.73 232.934C830.229 229.679 826.494 227.121 822.682 225.261C826.183 223.014 827.972 221.851 831.396 219.604C833.341 218.363 834.275 217.743 836.142 216.503C834.119 214.333 833.185 213.171 831.162 211.001C826.339 205.343 819.414 199.84 812.645 196.508C806.421 193.097 797.784 191.005 790.626 191.16C783.546 190.772 774.287 193.407 768.997 198.213C762.694 203.715 761.372 212.396 763.084 220.146C763.161 220.456 763.239 220.766 763.317 221.076C764.795 227.431 767.674 232.857 771.875 237.119C774.443 239.754 777.322 242.002 780.278 243.785C775.843 245.955 773.665 246.962 769.23 249.132C767.363 250.062 766.429 250.527 764.484 251.38C765.651 253.473 766.273 254.558 767.441 256.65C770.008 261.3 773.743 265.641 778.489 269.671C783.157 273.701 788.681 276.956 794.75 279.359C796.773 280.134 798.874 280.831 801.052 281.374C801.752 281.529 802.453 281.684 803.153 281.839C806.732 282.614 810.311 283.001 813.968 283.001C815.29 283.001 816.613 282.924 817.936 282.846C822.604 282.459 827.039 281.451 831.085 279.746C836.609 277.421 840.655 273.701 843.144 268.741C845.867 263.626 846.101 257.27 843.922 249.985ZM837.153 265.098C835.131 269.128 831.863 272.151 827.35 274.011C824.471 275.251 821.437 276.026 818.169 276.491C816.38 276.724 814.512 276.879 812.567 276.879C806.965 276.879 801.519 275.871 796.306 273.778C791.093 271.686 786.503 268.973 782.535 265.563C778.567 262.153 775.454 258.588 773.354 254.79C780.201 251.535 783.624 249.907 790.315 246.575C791.871 249.055 793.194 250.992 794.361 252.465C795.45 253.938 797.162 255.255 799.34 256.495C801.597 257.735 804.32 258.355 807.665 258.355C810.778 258.355 812.878 257.813 813.89 256.805C814.979 255.798 815.29 254.558 814.979 253.24C814.512 251.457 813.112 250.062 810.933 248.977C808.677 247.892 805.254 246.652 800.508 245.335C795.061 243.785 790.393 242.235 786.658 240.607C782.924 238.979 779.422 236.654 776.232 233.399C773.042 230.222 770.864 226.114 769.697 221.076C769.619 220.766 769.541 220.456 769.463 220.146C767.907 212.706 769.386 207.048 773.898 203.25C778.567 199.298 784.713 197.283 792.416 197.283C799.107 197.283 805.331 198.755 811.167 201.778C817.002 204.723 822.215 208.908 826.961 214.101C823.226 216.581 820.659 218.208 817.702 220.146C815.913 221.309 814.045 222.549 811.711 224.021C810.544 222.626 809.377 221.309 808.288 220.146C807.121 218.984 806.032 217.976 804.865 217.046C802.608 215.341 799.885 214.411 796.617 214.411C794.594 214.411 793.038 214.798 792.105 215.573C791.171 216.348 790.86 217.433 791.171 218.751C791.327 219.216 791.482 219.681 791.793 220.146C792.416 221.154 793.505 222.006 794.983 222.626C797.084 223.556 800.274 224.486 804.553 225.416C809.844 226.734 814.434 228.051 818.247 229.369C818.402 229.446 818.558 229.524 818.714 229.524C822.604 230.997 826.339 233.322 829.84 236.654C833.341 239.987 835.986 244.405 837.542 249.907C839.332 255.953 839.176 260.99 837.153 265.098Z" fill="#474747"/>
<g filter="url(#filter1_f)">
<path d="M217.365 224.564C213.552 241.459 209.662 258.355 205.85 275.173H181.341C184.765 261.145 188.266 247.195 191.689 233.167C192.39 230.299 192.779 227.819 192.934 225.649C193.012 223.556 192.39 221.696 191.067 219.991C189.744 218.363 187.177 217.511 183.442 217.511C179.007 217.511 175.428 218.673 172.705 220.999C169.982 223.324 167.959 225.959 166.714 228.981C165.469 231.927 164.224 235.492 163.135 239.599C159.945 251.457 156.755 263.238 153.643 275.096H129.134C136.448 249.752 143.762 224.331 151.075 198.988H174.105C173.327 201.855 172.938 203.25 172.238 206.118C178.618 200.15 187.177 197.205 195.969 197.282C204.605 197.282 210.751 199.763 214.564 204.645C218.221 209.606 219.232 216.193 217.365 224.564Z" fill="#1EEDC8"/>
<path d="M354.067 199.065C342.941 224.641 331.504 249.985 319.6 275.174H297.97C296.025 260.913 294.236 246.575 292.524 232.237C286.222 246.575 279.764 260.913 273.306 275.174H251.443C247.942 249.83 244.83 224.486 242.184 199.065H266.615C267.704 212.551 268.871 225.959 270.116 239.367C276.263 225.959 282.331 212.551 288.245 199.065H307.618C309.174 212.396 310.808 225.726 312.597 239.057C318.277 225.726 323.957 212.396 329.481 199.065H354.067Z" fill="#1EEDC8"/>
<path d="M467.584 167.521C466.728 203.405 465.95 239.289 465.094 275.173H439.574C440.197 260.37 440.819 245.489 441.519 230.686H399.038C397.871 245.489 396.704 260.293 395.615 275.173H370.095C373.596 239.289 377.097 203.405 380.599 167.521H403.94C402.851 181.162 401.839 194.802 400.75 208.443H442.453C443.076 194.802 443.62 181.162 444.243 167.521H467.584Z" fill="#1EEDC8"/>
<path d="M561.572 226.811C561.494 224.563 561.105 222.316 560.56 220.146C559.004 214.41 555.814 209.14 551.146 205.265C544.066 199.452 534.807 197.205 525.704 197.282C518.779 197.282 512.166 198.445 505.786 200.847C499.406 203.25 493.882 206.815 489.291 211.698C492.715 214.565 496.138 217.356 499.484 220.146C501.74 222.006 503.996 223.866 506.253 225.726C508.743 223.246 511.232 221.386 513.566 220.146C514.189 219.836 514.734 219.526 515.356 219.293C518.313 218.131 521.347 217.511 524.537 217.511C528.661 217.511 531.928 218.363 534.34 220.068L534.418 220.146C536.752 221.851 537.997 224.021 538.075 226.811C538.075 227.276 538.075 227.586 538.153 228.051H516.912C509.832 228.051 503.919 229.369 499.095 231.926C495.749 233.786 493.182 236.266 491.237 239.444C489.369 242.622 488.358 246.342 488.358 250.605C488.358 255.72 489.68 260.293 492.326 264.245C494.971 268.198 498.628 271.298 503.374 273.546C508.12 275.716 513.489 276.878 519.402 276.878C527.338 277.033 535.196 274.088 540.02 267.578C540.798 270.6 541.187 272.151 541.965 275.173H564.373C563.439 259.052 562.505 242.932 561.572 226.811ZM534.107 254.48C530.995 256.96 527.26 258.2 522.903 258.2C519.557 258.2 517.068 257.502 515.278 256.185C513.489 254.867 512.555 253.162 512.555 251.07C512.477 249.132 513.255 247.582 514.811 246.574C516.134 245.644 518.157 245.179 520.802 245.179H538.853C538.775 248.899 537.219 252 534.107 254.48Z" fill="#1EEDC8"/>
<path d="M656.338 253.782C654.704 260.99 651.047 266.648 645.523 270.833C640.154 275.096 631.518 277.421 624.749 277.111C617.358 277.421 608.099 275.406 601.797 271.453C595.417 267.733 590.515 262.773 587.092 256.805C583.668 250.76 581.723 244.404 581.178 237.584C580.634 230.609 581.567 224.021 583.979 217.976C586.391 211.931 590.282 206.97 595.65 203.25C601.019 199.452 607.71 197.592 615.879 197.592C622.804 197.36 631.518 199.607 637.353 203.405C643.655 207.048 649.646 214.178 652.603 220.766C645.601 223.711 638.598 226.656 631.596 229.601C630.662 226.114 628.95 223.246 626.461 221.153C623.971 218.983 621.17 217.898 618.058 217.898C613.001 217.898 609.499 219.836 607.632 223.634C605.765 227.431 605.064 232.159 605.609 237.662C606.154 243.242 607.71 247.815 610.355 251.457C613 255.1 616.969 256.96 622.181 256.96C625.294 256.96 627.861 255.952 629.962 253.86C632.063 251.767 633.307 249.055 633.619 245.644C641.166 248.357 648.713 251.07 656.338 253.782Z" fill="#1EEDC8"/>
<path d="M768.298 275.173H739.277C730.33 264.633 721.46 254.015 712.668 243.397C710.023 247.272 708.7 249.21 705.977 253.162C707.3 260.525 708.622 267.888 709.867 275.251H685.359C679.679 239.367 674.077 203.483 668.397 167.599H690.805C694.151 186.509 697.496 205.42 700.842 224.254C706.677 215.961 712.435 207.513 718.037 199.065H748.692C741.534 208.753 734.298 218.286 726.906 227.819C740.6 243.707 754.371 259.518 768.298 275.173Z" fill="#1EEDC8"/>
<path d="M836.533 249.985C834.977 244.404 832.331 239.987 828.83 236.732C825.329 233.476 821.594 231.074 817.704 229.601C817.549 229.524 817.393 229.446 817.237 229.446C813.425 228.051 808.912 226.734 803.544 225.494C799.265 224.564 796.075 223.634 793.974 222.703C792.496 222.083 791.406 221.231 790.784 220.223C790.473 219.758 790.317 219.371 790.161 218.828C789.85 217.511 790.084 216.426 791.095 215.651C792.029 214.876 793.507 214.488 795.608 214.488C798.876 214.488 801.676 215.341 803.855 217.123C804.944 217.976 806.111 219.061 807.278 220.223C808.445 221.386 809.535 222.626 810.702 224.099C813.036 222.626 814.903 221.386 816.693 220.223C819.571 218.363 822.217 216.658 825.951 214.178C821.283 208.908 815.992 204.8 810.157 201.855C804.322 198.832 798.097 197.36 791.406 197.36C783.704 197.36 777.557 199.375 772.889 203.328C768.454 207.125 766.898 212.783 768.454 220.223C768.532 220.533 768.61 220.843 768.687 221.153C769.854 226.191 772.033 230.299 775.223 233.476C778.413 236.654 781.836 239.057 785.649 240.684C789.383 242.312 794.052 243.862 799.498 245.412C804.166 246.73 807.667 247.97 809.924 249.055C812.18 250.14 813.503 251.535 813.97 253.317C814.359 254.635 813.97 255.797 812.88 256.882C811.791 257.89 809.768 258.433 806.656 258.433C803.388 258.433 800.587 257.813 798.331 256.572C796.075 255.332 794.441 254.015 793.351 252.542C792.262 251.07 790.862 249.132 789.306 246.652C782.537 249.907 779.191 251.535 772.344 254.867C774.523 258.665 777.557 262.308 781.525 265.64C785.493 269.051 790.084 271.763 795.297 273.856C800.509 275.948 805.956 276.956 811.558 276.956C813.503 276.956 815.37 276.801 817.16 276.568C820.35 276.103 823.462 275.328 826.34 274.088C830.853 272.228 834.121 269.206 836.144 265.175C838.089 260.99 838.245 255.952 836.533 249.985Z" fill="#1EEDC8"/>
</g>
<path d="M217.365 224.564C213.552 241.459 209.662 258.355 205.85 275.173H181.341C184.765 261.145 188.266 247.195 191.689 233.167C192.39 230.299 192.779 227.819 192.934 225.649C193.012 223.556 192.39 221.696 191.067 219.991C189.744 218.363 187.177 217.511 183.442 217.511C179.007 217.511 175.428 218.673 172.705 220.999C169.982 223.324 167.959 225.959 166.714 228.981C165.469 231.927 164.224 235.492 163.135 239.599C159.945 251.457 156.755 263.238 153.643 275.096H129.134C136.448 249.752 143.762 224.331 151.075 198.988H174.105C173.327 201.855 172.938 203.25 172.238 206.118C178.618 200.15 187.177 197.205 195.969 197.282C204.605 197.282 210.751 199.763 214.564 204.645C218.221 209.606 219.232 216.193 217.365 224.564Z" fill="#D0FFFF"/>
<path d="M354.067 199.065C342.941 224.641 331.504 249.985 319.6 275.174H297.97C296.025 260.913 294.236 246.575 292.524 232.237C286.222 246.575 279.764 260.913 273.306 275.174H251.443C247.942 249.83 244.83 224.486 242.184 199.065H266.615C267.704 212.551 268.871 225.959 270.116 239.367C276.263 225.959 282.331 212.551 288.245 199.065H307.618C309.174 212.396 310.808 225.726 312.597 239.057C318.277 225.726 323.957 212.396 329.481 199.065H354.067Z" fill="#D0FFFF"/>
<path d="M467.584 167.521C466.728 203.405 465.95 239.289 465.094 275.173H439.574C440.197 260.37 440.819 245.489 441.519 230.686H399.038C397.871 245.489 396.704 260.293 395.615 275.173H370.095C373.596 239.289 377.097 203.405 380.599 167.521H403.94C402.851 181.162 401.839 194.802 400.75 208.443H442.453C443.076 194.802 443.62 181.162 444.243 167.521H467.584Z" fill="#D0FFFF"/>
<path d="M561.572 226.811C561.494 224.563 561.105 222.316 560.56 220.146C559.004 214.41 555.814 209.14 551.146 205.265C544.066 199.452 534.807 197.205 525.704 197.282C518.779 197.282 512.166 198.445 505.786 200.847C499.406 203.25 493.882 206.815 489.291 211.698C492.715 214.565 496.138 217.356 499.484 220.146C501.74 222.006 503.996 223.866 506.253 225.726C508.743 223.246 511.232 221.386 513.566 220.146C514.189 219.836 514.734 219.526 515.356 219.293C518.313 218.131 521.347 217.511 524.537 217.511C528.661 217.511 531.928 218.363 534.34 220.068L534.418 220.146C536.752 221.851 537.997 224.021 538.075 226.811C538.075 227.276 538.075 227.586 538.153 228.051H516.912C509.832 228.051 503.919 229.369 499.095 231.926C495.749 233.786 493.182 236.266 491.237 239.444C489.369 242.622 488.358 246.342 488.358 250.605C488.358 255.72 489.68 260.293 492.326 264.245C494.971 268.198 498.628 271.298 503.374 273.546C508.12 275.716 513.489 276.878 519.402 276.878C527.338 277.033 535.196 274.088 540.02 267.578C540.798 270.6 541.187 272.151 541.965 275.173H564.373C563.439 259.052 562.505 242.932 561.572 226.811ZM534.107 254.48C530.995 256.96 527.26 258.2 522.903 258.2C519.557 258.2 517.068 257.502 515.278 256.185C513.489 254.867 512.555 253.162 512.555 251.07C512.477 249.132 513.255 247.582 514.811 246.574C516.134 245.644 518.157 245.179 520.802 245.179H538.853C538.775 248.899 537.219 252 534.107 254.48Z" fill="#D0FFFF"/>
<path d="M656.338 253.782C654.704 260.99 651.047 266.648 645.523 270.833C640.154 275.096 631.518 277.421 624.749 277.111C617.358 277.421 608.099 275.406 601.797 271.453C595.417 267.733 590.515 262.773 587.092 256.805C583.668 250.76 581.723 244.404 581.178 237.584C580.634 230.609 581.567 224.021 583.979 217.976C586.391 211.931 590.282 206.97 595.65 203.25C601.019 199.452 607.71 197.592 615.879 197.592C622.804 197.36 631.518 199.607 637.353 203.405C643.655 207.048 649.646 214.178 652.603 220.766C645.601 223.711 638.598 226.656 631.596 229.601C630.662 226.114 628.95 223.246 626.461 221.153C623.971 218.983 621.17 217.898 618.058 217.898C613.001 217.898 609.499 219.836 607.632 223.634C605.765 227.431 605.064 232.159 605.609 237.662C606.154 243.242 607.71 247.815 610.355 251.457C613 255.1 616.969 256.96 622.181 256.96C625.294 256.96 627.861 255.952 629.962 253.86C632.063 251.767 633.307 249.055 633.619 245.644C641.166 248.357 648.713 251.07 656.338 253.782Z" fill="#D0FFFF"/>
<path d="M768.298 275.173H739.277C730.33 264.633 721.46 254.015 712.668 243.397C710.023 247.272 708.7 249.21 705.977 253.162C707.3 260.525 708.622 267.888 709.867 275.251H685.359C679.679 239.367 674.077 203.483 668.397 167.599H690.805C694.151 186.509 697.496 205.42 700.842 224.254C706.677 215.961 712.435 207.513 718.037 199.065H748.692C741.534 208.753 734.298 218.286 726.906 227.819C740.6 243.707 754.371 259.518 768.298 275.173Z" fill="#D0FFFF"/>
<path d="M836.533 249.985C834.977 244.404 832.331 239.987 828.83 236.732C825.329 233.476 821.594 231.074 817.704 229.601C817.549 229.524 817.393 229.446 817.237 229.446C813.425 228.051 808.912 226.734 803.544 225.494C799.265 224.564 796.075 223.634 793.974 222.703C792.496 222.083 791.406 221.231 790.784 220.223C790.473 219.758 790.317 219.371 790.161 218.828C789.85 217.511 790.084 216.426 791.095 215.651C792.029 214.876 793.507 214.488 795.608 214.488C798.876 214.488 801.676 215.341 803.855 217.123C804.944 217.976 806.111 219.061 807.278 220.223C808.445 221.386 809.535 222.626 810.702 224.099C813.036 222.626 814.903 221.386 816.693 220.223C819.571 218.363 822.217 216.658 825.951 214.178C821.283 208.908 815.992 204.8 810.157 201.855C804.322 198.832 798.097 197.36 791.406 197.36C783.704 197.36 777.557 199.375 772.889 203.328C768.454 207.125 766.898 212.783 768.454 220.223C768.532 220.533 768.61 220.843 768.687 221.153C769.854 226.191 772.033 230.299 775.223 233.476C778.413 236.654 781.836 239.057 785.649 240.684C789.383 242.312 794.052 243.862 799.498 245.412C804.166 246.73 807.667 247.97 809.924 249.055C812.18 250.14 813.503 251.535 813.97 253.317C814.359 254.635 813.97 255.797 812.88 256.882C811.791 257.89 809.768 258.433 806.656 258.433C803.388 258.433 800.587 257.813 798.331 256.572C796.075 255.332 794.441 254.015 793.351 252.542C792.262 251.07 790.862 249.132 789.306 246.652C782.537 249.907 779.191 251.535 772.344 254.867C774.523 258.665 777.557 262.308 781.525 265.64C785.493 269.051 790.084 271.763 795.297 273.856C800.509 275.948 805.956 276.956 811.558 276.956C813.503 276.956 815.37 276.801 817.16 276.568C820.35 276.103 823.462 275.328 826.34 274.088C830.853 272.228 834.121 269.206 836.144 265.175C838.089 260.99 838.245 255.952 836.533 249.985Z" fill="#D0FFFF"/>
<g filter="url(#filter2_f)">
<path d="M459.957 324.002C459.724 326.017 459.568 327.024 459.335 329.039C453.188 329.039 447.119 329.039 440.973 329.039C441.284 327.334 441.44 326.482 441.751 324.777C444.941 323.149 447.898 321.211 450.621 319.041C453.344 316.871 454.822 314.624 455.133 312.376C455.289 311.446 455.133 310.671 454.822 310.128C454.433 309.586 453.811 309.276 452.877 309.276C450.854 309.276 449.454 310.748 448.753 313.771C446.73 313.616 445.641 313.539 443.618 313.384C443.929 311.911 444.552 310.438 445.486 309.043C446.419 307.648 447.664 306.408 449.065 305.556C450.543 304.626 452.099 304.161 453.811 304.161C455.289 304.161 456.534 304.471 457.623 305.168C458.712 305.866 459.49 306.796 459.957 308.036C460.424 309.276 460.58 310.671 460.424 312.299C460.268 313.694 459.724 315.166 458.868 316.639C458.012 318.111 456.845 319.506 455.445 320.824C454.044 322.141 452.488 323.226 450.699 324.157C454.433 324.002 456.223 324.002 459.957 324.002Z" fill="#1EEDC8"/>
<path d="M472.484 325.628C471.472 323.148 471.083 320.048 471.394 316.483C471.706 312.995 472.484 310.05 473.806 307.57C475.129 305.09 477.463 303.85 480.964 303.85C484.466 303.85 486.722 305.09 487.811 307.57C488.901 310.05 489.445 312.995 489.367 316.483C489.29 320.048 488.667 323.071 487.422 325.628C486.177 328.108 483.61 329.348 479.72 329.348C475.907 329.426 473.495 328.186 472.484 325.628ZM482.987 322.296C483.532 320.978 483.765 319.118 483.843 316.715C483.921 314.235 483.765 312.375 483.376 311.058C482.987 309.74 482.054 309.12 480.731 309.12C479.331 309.12 478.397 309.74 477.852 311.058C477.308 312.375 476.996 314.235 476.841 316.715C476.685 319.118 476.841 320.978 477.23 322.296C477.619 323.613 478.552 324.311 480.031 324.311C481.509 324.311 482.521 323.613 482.987 322.296Z" fill="#1EEDC8"/>
<path d="M518.311 324.001C518.544 326.016 518.622 327.023 518.777 329.039C512.631 329.039 506.562 329.039 500.416 329.039C500.338 327.333 500.338 326.481 500.26 324.776C503.061 323.148 505.628 321.211 507.885 319.041C510.141 316.87 511.075 314.623 510.919 312.375C510.841 311.445 510.53 310.67 510.063 310.128C509.596 309.585 508.896 309.275 507.963 309.275C505.94 309.275 504.928 310.748 504.85 313.77C502.75 313.615 501.738 313.538 499.637 313.383C499.56 311.91 499.871 310.438 500.493 309.043C501.116 307.648 502.049 306.408 503.294 305.555C504.539 304.625 506.017 304.16 507.729 304.16C509.207 304.16 510.53 304.47 511.697 305.167C512.942 305.865 513.876 306.795 514.654 308.035C515.432 309.275 515.899 310.67 516.054 312.298C516.21 313.693 515.976 315.165 515.432 316.638C514.887 318.111 514.031 319.506 512.942 320.823C511.853 322.141 510.452 323.226 508.974 324.156C512.786 324.001 514.654 324.001 518.311 324.001Z" fill="#1EEDC8"/>
<path d="M539.007 304.315C540.563 312.53 542.197 320.823 543.753 329.039C541.496 329.039 540.407 329.039 538.151 329.039C537.217 323.458 536.206 317.878 535.272 312.375C533.093 312.375 532.004 312.375 529.826 312.375C529.592 310.67 529.437 309.818 529.203 308.19C530.292 308.19 530.837 308.19 531.926 308.19C532.782 308.19 533.482 307.958 533.794 307.57C534.183 307.183 534.261 306.485 534.105 305.477C534.027 305.012 533.949 304.78 533.871 304.315C535.972 304.315 536.984 304.315 539.007 304.315Z" fill="#1EEDC8"/>
</g>
<path d="M459.957 324.002C459.724 326.017 459.568 327.024 459.335 329.039C453.188 329.039 447.119 329.039 440.973 329.039C441.284 327.334 441.44 326.482 441.751 324.777C444.941 323.149 447.898 321.211 450.621 319.041C453.344 316.871 454.822 314.624 455.133 312.376C455.289 311.446 455.133 310.671 454.822 310.128C454.433 309.586 453.811 309.276 452.877 309.276C450.854 309.276 449.454 310.748 448.753 313.771C446.73 313.616 445.641 313.539 443.618 313.384C443.929 311.911 444.552 310.438 445.486 309.043C446.419 307.648 447.664 306.408 449.065 305.556C450.543 304.626 452.099 304.161 453.811 304.161C455.289 304.161 456.534 304.471 457.623 305.168C458.712 305.866 459.49 306.796 459.957 308.036C460.424 309.276 460.58 310.671 460.424 312.299C460.268 313.694 459.724 315.166 458.868 316.639C458.012 318.111 456.845 319.506 455.445 320.824C454.044 322.141 452.488 323.226 450.699 324.157C454.433 324.002 456.223 324.002 459.957 324.002Z" fill="#D0FFFF"/>
<path d="M472.484 325.628C471.472 323.148 471.083 320.048 471.394 316.483C471.706 312.995 472.484 310.05 473.806 307.57C475.129 305.09 477.463 303.85 480.964 303.85C484.466 303.85 486.722 305.09 487.811 307.57C488.901 310.05 489.445 312.995 489.367 316.483C489.29 320.048 488.667 323.071 487.422 325.628C486.177 328.108 483.61 329.348 479.72 329.348C475.907 329.426 473.495 328.186 472.484 325.628ZM482.987 322.296C483.532 320.978 483.765 319.118 483.843 316.715C483.921 314.235 483.765 312.375 483.376 311.058C482.987 309.74 482.054 309.12 480.731 309.12C479.331 309.12 478.397 309.74 477.852 311.058C477.308 312.375 476.996 314.235 476.841 316.715C476.685 319.118 476.841 320.978 477.23 322.296C477.619 323.613 478.552 324.311 480.031 324.311C481.509 324.311 482.521 323.613 482.987 322.296Z" fill="#D0FFFF"/>
<path d="M518.311 324.001C518.544 326.016 518.622 327.023 518.777 329.039C512.631 329.039 506.562 329.039 500.416 329.039C500.338 327.333 500.338 326.481 500.26 324.776C503.061 323.148 505.628 321.211 507.885 319.041C510.141 316.87 511.075 314.623 510.919 312.375C510.841 311.445 510.53 310.67 510.063 310.128C509.596 309.585 508.896 309.275 507.963 309.275C505.94 309.275 504.928 310.748 504.85 313.77C502.75 313.615 501.738 313.538 499.637 313.383C499.56 311.91 499.871 310.438 500.493 309.043C501.116 307.648 502.049 306.408 503.294 305.555C504.539 304.625 506.017 304.16 507.729 304.16C509.207 304.16 510.53 304.47 511.697 305.167C512.942 305.865 513.876 306.795 514.654 308.035C515.432 309.275 515.899 310.67 516.054 312.298C516.21 313.693 515.976 315.165 515.432 316.638C514.887 318.111 514.031 319.506 512.942 320.823C511.853 322.141 510.452 323.226 508.974 324.156C512.786 324.001 514.654 324.001 518.311 324.001Z" fill="#D0FFFF"/>
<path d="M539.007 304.315C540.563 312.53 542.197 320.823 543.753 329.039C541.496 329.039 540.407 329.039 538.151 329.039C537.217 323.458 536.206 317.878 535.272 312.375C533.093 312.375 532.004 312.375 529.826 312.375C529.592 310.67 529.437 309.818 529.203 308.19C530.292 308.19 530.837 308.19 531.926 308.19C532.782 308.19 533.482 307.958 533.794 307.57C534.183 307.183 534.261 306.485 534.105 305.477C534.027 305.012 533.949 304.78 533.871 304.315C535.972 304.315 536.984 304.315 539.007 304.315Z" fill="#D0FFFF"/>
<defs>
<filter id="filter0_f" x="334.059" y="0.572754" width="289.555" height="263.679" filterUnits="userSpaceOnUse" color-interpolation-filters="sRGB">
<feFlood flood-opacity="0" result="BackgroundImageFix"/>
<feBlend mode="normal" in="SourceGraphic" in2="BackgroundImageFix" result="shape"/>
<feGaussianBlur stdDeviation="15" result="effect1_foregroundBlur"/>
</filter>
<filter id="filter1_f" x="119.134" y="157.521" width="728.583" height="129.621" filterUnits="userSpaceOnUse" color-interpolation-filters="sRGB">
<feFlood flood-opacity="0" result="BackgroundImageFix"/>
<feBlend mode="normal" in="SourceGraphic" in2="BackgroundImageFix" result="shape"/>
<feGaussianBlur stdDeviation="5" result="effect1_foregroundBlur"/>
</filter>
<filter id="filter2_f" x="430.973" y="293.85" width="122.78" height="45.502" filterUnits="userSpaceOnUse" color-interpolation-filters="sRGB">
<feFlood flood-opacity="0" result="BackgroundImageFix"/>
<feBlend mode="normal" in="SourceGraphic" in2="BackgroundImageFix" result="shape"/>
<feGaussianBlur stdDeviation="5" result="effect1_foregroundBlur"/>
</filter>
</defs>
</svg>
