<svg width="667" height="156" fill="none" xmlns="http://www.w3.org/2000/svg"><path d="M666.559 61.625l-2.714-10.575H18.444v12.842L43.956 90.33l-27.684 57.41v7.554H661.13l1.629-7.554-20.084-37.014 23.884-49.1z" fill="#785340"/><path d="M16.447 53.608c-1.128-1.294-.209-3.314 1.507-3.314h645.121a2 2 0 011.86 2.736L642.498 109.8a2.004 2.004 0 00.151 1.775l21.519 35.392c.811 1.332-.149 3.039-1.709 3.039H16.742a2 2 0 01-1.801-2.869l28.985-60.152a2 2 0 00-.294-2.182L16.447 53.608z" fill="#AD795E"/><path d="M37.442 101.661c15.438 2.252 46.126 8.819 49.343 12.383 11.687 12.945-53.061 14.811-61.285 14.811" stroke="#CC9477"/><path d="M214.754 151.042l-.309.393.786.619.309-.393-.786-.619zm103.217-14.779l.178.467-.178-.467zm55.366 0l-.151-.477.151.477zm84.808-2.794l.057.497-.057-.497zm78.216 2.794l-.119-.486.119.486zm68.11-2.794l.123.484-.123-.484zM40.908 153.482c4.834-2.236 13.922-6.423 22.634-10.051 4.357-1.815 8.614-3.487 12.193-4.704 1.79-.608 3.405-1.101 4.775-1.442 1.378-.342 2.478-.522 3.251-.522v-1c-.897 0-2.093.204-3.492.552-1.407.349-3.05.852-4.856 1.465-3.61 1.228-7.89 2.909-12.255 4.727-8.732 3.637-17.836 7.832-22.67 10.067l.42.908zm42.853-16.719c.976 0 2.36.248 4.074.704 1.704.453 3.701 1.103 5.892 1.886 4.38 1.567 9.506 3.658 14.56 5.754 5.048 2.094 10.028 4.193 14.1 5.768 2.036.787 3.854 1.447 5.346 1.91 1.473.458 2.686.743 3.485.743v-1c-.629 0-1.709-.239-3.188-.698-1.461-.453-3.254-1.104-5.282-1.888-4.058-1.569-9.02-3.661-14.078-5.758-5.053-2.096-10.2-4.196-14.606-5.772-2.204-.789-4.23-1.448-5.972-1.912-1.733-.461-3.22-.737-4.33-.737v1zm131.779 14.898c-.038.048-.062.05-.005.02.045-.024.117-.057.223-.096.21-.078.512-.168.908-.268.79-.201 1.908-.434 3.315-.695 2.811-.521 6.741-1.147 11.429-1.841 9.374-1.387 21.757-3.046 34.225-4.688 12.467-1.641 25.02-3.265 34.73-4.584 4.855-.659 9.002-1.243 12.074-1.714 1.535-.235 2.805-.443 3.762-.619.937-.172 1.622-.321 1.948-.446l-.357-.934c-.223.085-.808.219-1.771.396-.943.174-2.202.38-3.734.615-3.063.469-7.203 1.052-12.056 1.711-9.707 1.318-22.256 2.942-34.726 4.584-12.468 1.641-24.858 3.301-34.241 4.69-4.691.694-8.636 1.322-11.466 1.846-1.413.263-2.556.5-3.378.71-.41.104-.751.204-1.009.299a2.74 2.74 0 00-.349.153.96.96 0 00-.308.242l.786.619zm102.609-14.931c.212-.081.578-.156 1.118-.213a24.628 24.628 0 011.972-.113c1.562-.039 3.572-.006 5.901.071 4.659.154 10.554.485 16.621.777 6.06.291 12.287.542 17.587.533 5.275-.009 9.711-.273 12.141-1.046l-.303-.953c-2.259.719-6.54.99-11.839.999-5.274.009-11.479-.241-17.538-.532-6.054-.291-11.967-.623-16.636-.778-2.335-.077-4.368-.11-5.959-.071-.795.02-1.486.058-2.054.118-.557.06-1.03.145-1.368.274l.357.934zm55.34.009c13.969-4.441 29.052-4.447 43.709-3.679 14.62.766 28.865 2.309 41.004.906l-.115-.994c-12.028 1.391-26.126-.14-40.837-.911-14.673-.768-29.911-.774-44.064 3.725l.303.953zm84.713-2.773c3.23-.374 8.862-.184 15.754.27 6.879.452 14.961 1.162 23.072 1.816 8.105.654 16.236 1.251 23.195 1.475 6.94.223 12.776.078 16.258-.779l-.239-.971c-3.33.82-9.035.974-15.987.751-6.932-.223-15.042-.819-23.147-1.472-8.099-.654-16.197-1.365-23.086-1.818-6.875-.453-12.6-.651-15.935-.266l.115.994zm78.279 2.782c3.349-.824 8.574-1.243 14.741-1.443 6.154-.201 13.203-.184 20.18-.149 6.973.035 13.874.088 19.719-.043 5.828-.131 10.663-.445 13.473-1.16l-.246-.969c-2.683.683-7.405.998-13.249 1.129-5.828.131-12.713.078-19.692.043-6.974-.035-14.042-.052-20.218.149-6.165.201-11.485.62-14.947 1.472l.239.971zm68.113-2.795c5.554-1.412 12.981-5.219 20.469-8.764 7.541-3.57 15.15-6.879 21.198-7.428l-.091-.996c-6.255.568-14.026 3.965-21.535 7.52-7.562 3.58-14.856 7.318-20.287 8.699l.246.969z" fill="#CC9477"/><path d="M48.298 50.294C86.293 58.59 164.739 75.29 174.559 75.732c12.276.553 78.037 0 94.697 0 16.659 0 66.199-14.93 78.036-16.59 11.837-1.659 31.566 0 47.349 0 15.782 0 57.87 9.954 67.076 7.742 9.207-2.212 55.24-1.106 68.392-4.424 13.152-3.318 33.757 0 51.294 0 17.536 0 55.239 1.106 65.322-3.318 8.067-3.539 14.593-3.947 17.662-4.315" stroke="#CC9477"/><path d="M28.758 63.891c28.557 1.974 77.679 15.164 106.501 27.958 36.026 15.991 143.035 7.97 151.135 6.515 13.181-2.37 54.479-19.546 73.371-19.546 18.892 0 72.493 8.292 80.84 8.292 8.348 0 66.342-2.961 76.886-3.553 10.545-.593 43.056 0 56.676 1.776 13.62 1.777 42.617-4.738 44.814-4.145 2.196.592 31.579 0 35.094 0" stroke="#CC9477"/><path d="M38.527 78.244c24.23 1.514 50.786 13.239 63.047 26.868 15.326 17.037 31.528 27.26 49.044 29.531 17.516 2.272 37.659-11.358 56.488-10.79 18.829.568 90.205-3.407 107.721-6.247 17.516-2.839 58.239-12.494 69.187-12.494 10.947 0 77.506 3.976 90.643 5.679 13.137 1.704 40.286-5.679 52.547-5.679h69.625c5.254 0 20.581-6.815 30.652-6.815h17.365" stroke="#CC9477"/><g filter="url(#filter0_i)" fill="#56321E"><path d="M182.224 117.959l-1.393-2.078h-5.128l-2.026.813-3.039-.542-1.646.542-.443-1.988V95.1l-1.52-5.511-.506-8.945-.57-1.085-4.242.543-.949 1.987v8.584l-1.203 8.674v16.805l.253 5.06.76 2.078 1.582-.452 5.129.633 1.962-.814 6.585.633 2.659-1.265 3.165.452.57-4.518zM187.07 99.437a42.856 42.856 0 00-.253 3.072v2.62c0 1.446.148 2.711.443 3.795l.633 1.174 6.711 2.801h1.52c.169-.06.359-.15.57-.271.211-.12.443-.301.696-.542l5.318-2.53c.296-.18.718-.482 1.266-.903.591-.422 1.14-.904 1.647-1.446a9.485 9.485 0 001.392-1.988c.38-.722.57-1.475.57-2.258 0-2.892-.527-5.512-1.583-7.861-1.013-2.35-2.469-4.156-4.368-5.421h-.127c-.169 0-.464.03-.886.09s-.802.09-1.14.09c-.295 0-.57-.06-.823-.18a.586.586 0 01-.316-.542l-4.495.994c-.76.3-1.52.722-2.28 1.264a10.647 10.647 0 00-2.089 1.988c-.633.723-1.161 1.597-1.583 2.62-.422.964-.696 2.109-.823 3.434zm11.713-4.156c.506.24 1.055.451 1.646.632.591.18 1.14.452 1.646.813.507.302.95.723 1.33 1.265.422.542.738 1.356.949 2.44l-1.646 3.433-6.774 1.988h-.887l-1.646-2.078.317-5.421c.253-.181.506-.452.76-.813.253-.362.527-.723.823-1.085a4.438 4.438 0 011.076-.994c.422-.3.865-.451 1.33-.451.295 0 .654.09 1.076.27zM239.743 118.049l-.253-.361c0-.301-.063-.572-.19-.813a23.655 23.655 0 01-.253-.994c-.296 0-.549.09-.76.271-.211.12-.443.271-.696.452-.211.12-.465.271-.76.452-.296.12-.697.18-1.203.18h-.317c-.506.06-.949.091-1.329.091-.338 0-.675.03-1.013.09-.296 0-.633.03-1.013.09h-1.203a12.85 12.85 0 00-1.963-.18c-.506-.061-1.118-.241-1.836-.543l-.063.091c-.042 0-.084.03-.127.09h-.126l-1.14-.542c-.211-.12-.316-.331-.316-.632 0-.241-.212-.663-.634-1.265-.379-.603-.569-1.295-.569-2.078 0-.723.168-1.446.506-2.169.38-.723.781-1.325 1.203-1.807.464-.542.865-.964 1.203-1.265.338-.301.464-.421.38-.361.084 0 .169-.061.253-.181a.773.773 0 00.19-.181c.084-.12.19-.241.317-.361.211-.361.464-.633.759-.813.338-.241 1.077-.482 2.216-.723a70.13 70.13 0 012.09-.542c.548-.121 1.012-.181 1.392-.181H236.894c.127-.602.232-1.024.317-1.265.084-.241.295-.783.633-1.626a15.04 15.04 0 01-.127-2.078c.042-.843-.105-1.295-.443-1.355h-5.065a15.84 15.84 0 00-1.836-.09 13.873 13.873 0 01-3.482 1.174 6.584 6.584 0 00-3.102 1.536 29.481 29.481 0 00-1.457 1.716 24.067 24.067 0 00-1.139 1.807c-.338.663-.697 1.386-1.076 2.169a84.972 84.972 0 00-1.14 2.801 9.095 9.095 0 00-.38 1.445c-.084.482-.148.964-.19 1.446 0 .904.021 1.807.063 2.711.085.843.401 1.807.95 2.891.169.241.338.512.507.813l.253.452.316.452c.085 0 .169.18.254.542.084.301.147.451.19.451h1.076c.506.422.907.784 1.203 1.085.295.241.57.421.823.542l.886.18c.296.061.676.091 1.14.091h.696c.296-.06.591-.091.887-.091h.886c.295 0 .654.061 1.076.181.887 0 1.625-.06 2.216-.181.633-.18 1.245-.391 1.836-.632a19.996 19.996 0 011.963-.632c.718-.181 1.604-.302 2.659-.362.211-.12.507-.391.886-.813.38-.482.57-.783.57-.904 0-.18-.126-.271-.38-.271h.38zM247.881 89.679c.296 0 .549.18.76.542.253.361.464.783.633 1.265.211.482.401.903.57 1.265.169.361.317.542.443.542.422-.12 1.055-.362 1.9-.723a62.699 62.699 0 012.849-1.265 40.686 40.686 0 013.039-1.084c1.013-.301 1.836-.452 2.469-.452.337 0 .57.09.696.271.169.18.275.392.317.633l.126.722c.085.181.232.332.444.452.084.181.211.362.379.542.169.12.254.362.254.723a9.592 9.592 0 00-.38 2.078 24.75 24.75 0 00-.064 1.717v.542l-1.836.18-.886.181h-1.013l-1.899 1.537c-.549 0-1.013.09-1.393.27-.38.121-.781.332-1.203.633-.38.241-.823.512-1.33.813-.506.301-1.181.603-2.026.904-2.026 1.445-3.545 3.192-4.558 5.24-.971 2.048-1.456 4.578-1.456 7.59 0 .963.232 1.927.696 2.891a12.816 12.816 0 001.71 2.53 12.112 12.112 0 002.089 1.807c.717.422 1.351.632 1.899.632h1.773c.549.061 1.097.091 1.646.091H258.075c.084 0 .147-.091.19-.271.084-.121.168-.271.253-.452.126-.241.316-.422.57-.542.295-.181.696-.271 1.203-.271.548 0 1.118.241 1.709.723.591.421 1.097.632 1.519.632.338 0 .655-.03.95-.09.296-.061.591-.151.886-.271a5.814 5.814 0 011.14-.271 5.3 5.3 0 011.456-.181c.127.301.359.572.697.813h.886c.042-.301.127-.572.253-.813.127-.301.275-.693.443-1.175a79.76 79.76 0 00-.189-3.704 795.544 795.544 0 00-.127-3.072c0-1.024-.021-2.078-.063-3.162 0-1.085-.021-2.32-.064-3.705h.19c.042-.06.085-.09.127-.09-.127 0-.232-.241-.317-.723a17.449 17.449 0 01-.19-1.446 66.464 66.464 0 00-.126-1.445v-.723c-.042-.482-.127-.843-.254-1.084a15.661 15.661 0 00-.316-.994c-.084-.422-.19-.994-.317-1.717-.084-.723-.147-1.897-.19-3.524-.126-.12-.232-.482-.316-1.084-.085-.602-.169-1.235-.253-1.897-.043-.723-.085-1.386-.127-1.988 0-.663-.021-1.054-.063-1.175h-.127c-.338 0-.612-.27-.823-.813a15.674 15.674 0 01-.57-1.807c-.169-.663-.316-1.235-.443-1.717-.127-.542-.274-.813-.443-.813l-.253-.361a3.023 3.023 0 00-.254-.452h-2.849c-.211 0-.443-.03-.696-.09-.253-.06-.57-.15-.95-.271-.042.3-.295.512-.76.632-.422.06-.907.09-1.456.09h-1.456c-.422 0-.654.09-.696.272-1.14.542-2.174.993-3.103 1.355-.928.361-1.709.753-2.342 1.174a5.324 5.324 0 00-1.583 1.356c-.422.482-.739 1.174-.95 2.078zm13.739 15.179v4.608a17.222 17.222 0 00-.38 2.982 61.31 61.31 0 00-.063 2.258v.723h-.886c-.845.121-1.626.211-2.343.271-.718.06-1.414.121-2.089.181l-4.432.361a26.182 26.182 0 00-.76-1.716c-.169-.422-.253-1.054-.253-1.898 0-1.686.148-3.011.443-3.975.338-.964.781-1.687 1.33-2.169a5.352 5.352 0 012.026-1.174 72.474 72.474 0 002.405-.813c.422-.181.802-.332 1.14-.452.38-.121.739-.181 1.076-.181h.254l1.266.542c.464.181.886.332 1.266.452zM286.203 92.209l-.317-.814.507-2.89v-8.403l-.76-.723-4.875 3.704-.506 3.072v11.656l-1.203 23.852.949 1.175 3.926-.452 1.582.723 1.33-1.265V102.328l-.633-10.12zM340.783 82.36l-1.14-1.174h-3.799l-.886.813v13.553l-1.013.632h-9.37l.253-.632V81.005l-.823-1.084-3.229-.542-1.203.722-.949 14.367-1.14 4.517-.76 17.528.57 4.518h5.951l1.583-.542v-19.155l1.266-.271H333.502l-.19 8.042.253.09-.253 1.536v6.325l-.443 1.897.57 2.349h3.608l1.583.452 3.609-2.259v-7.951l-1.456-12.65V82.36zM353.36 89.679c.296 0 .549.18.76.542.253.361.464.783.633 1.265.211.482.401.903.57 1.265.169.361.316.542.443.542.422-.12 1.055-.362 1.899-.723a63.196 63.196 0 012.849-1.265 41.008 41.008 0 013.039-1.084c1.013-.301 1.836-.452 2.47-.452.337 0 .569.09.696.271.169.18.274.392.317.633l.126.722c.085.181.232.332.443.452.085.181.211.362.38.542.169.12.253.362.253.723a9.587 9.587 0 00-.379 2.078 24.144 24.144 0 00-.064 1.717v.542l-1.836.18-.886.181h-1.013l-1.899 1.537c-.549 0-1.013.09-1.393.27-.38.121-.781.332-1.203.633-.38.241-.823.512-1.33.813-.506.301-1.182.603-2.026.904-2.026 1.445-3.545 3.192-4.558 5.24-.971 2.048-1.456 4.578-1.456 7.59 0 .963.232 1.927.696 2.891a12.854 12.854 0 001.709 2.53 12.155 12.155 0 002.09 1.807c.717.422 1.35.632 1.899.632h1.773c.549.061 1.097.091 1.646.091H363.553c.085 0 .148-.091.19-.271.085-.121.169-.271.254-.452.126-.241.316-.422.569-.542.296-.181.697-.271 1.203-.271.549 0 1.119.241 1.71.723.591.421 1.097.632 1.519.632.338 0 .654-.03.95-.09.295-.061.591-.151.886-.271a5.814 5.814 0 011.14-.271 5.295 5.295 0 011.456-.181c.127.301.359.572.697.813h.886c.042-.301.126-.572.253-.813.127-.301.274-.693.443-1.175a78.289 78.289 0 00-.19-3.704 640.198 640.198 0 00-.126-3.072c0-1.024-.021-2.078-.064-3.162 0-1.085-.021-2.32-.063-3.705h.19c.042-.06.084-.09.127-.09-.127 0-.232-.241-.317-.723a17.034 17.034 0 01-.19-1.446 66.464 66.464 0 00-.126-1.445v-.723c-.043-.482-.127-.843-.254-1.084-.084-.302-.19-.633-.316-.994a74.95 74.95 0 01-.317-1.717c-.084-.723-.148-1.897-.19-3.524-.126-.12-.232-.482-.316-1.084a152.85 152.85 0 01-.254-1.897 173.27 173.27 0 00-.126-1.988c0-.663-.021-1.054-.063-1.175h-.127c-.338 0-.612-.27-.823-.813a15.674 15.674 0 01-.57-1.807 296.24 296.24 0 00-.443-1.717c-.127-.542-.275-.813-.443-.813l-.254-.361a2.94 2.94 0 00-.253-.452h-2.849c-.211 0-.443-.03-.696-.09-.254-.06-.57-.15-.95-.271-.042.3-.295.512-.76.632-.422.06-.907.09-1.456.09h-1.456c-.422 0-.654.09-.697.272a46.77 46.77 0 01-3.102 1.355c-.928.361-1.709.753-2.342 1.174a5.324 5.324 0 00-1.583 1.356c-.422.482-.739 1.174-.95 2.078zm13.739 15.179v4.608a17.222 17.222 0 00-.38 2.982 61.31 61.31 0 00-.063 2.258v.723h-.887c-.844.121-1.625.211-2.342.271-.718.06-1.414.121-2.09.181l-4.431.361a26.182 26.182 0 00-.76-1.716c-.169-.422-.253-1.054-.253-1.898 0-1.686.147-3.011.443-3.975.337-.964.781-1.687 1.329-2.169a5.367 5.367 0 012.026-1.174c.76-.241 1.562-.512 2.406-.813.422-.181.802-.332 1.14-.452.38-.121.738-.181 1.076-.181h.253l1.267.542c.464.181.886.332 1.266.452zM406.37 118.049l-.253-.361c0-.301-.063-.572-.19-.813a23.655 23.655 0 01-.253-.994c-.296 0-.549.09-.76.271-.211.12-.443.271-.696.452-.212.12-.465.271-.76.452-.296.12-.697.18-1.203.18h-.317c-.506.06-.949.091-1.329.091-.338 0-.676.03-1.013.09-.296 0-.633.03-1.013.09h-1.203a12.85 12.85 0 00-1.963-.18c-.506-.061-1.118-.241-1.836-.543l-.063.091c-.042 0-.085.03-.127.09h-.126l-1.14-.542c-.211-.12-.317-.331-.317-.632 0-.241-.211-.663-.633-1.265-.38-.603-.57-1.295-.57-2.078 0-.723.169-1.446.507-2.169.38-.723.781-1.325 1.203-1.807.464-.542.865-.964 1.203-1.265.337-.301.464-.421.38-.361.084 0 .168-.061.253-.181a.773.773 0 00.19-.181c.084-.12.19-.241.316-.361.211-.361.465-.633.76-.813.338-.241 1.076-.482 2.216-.723a70.216 70.216 0 012.089-.542c.549-.121 1.013-.181 1.393-.181H403.521c.127-.602.232-1.024.317-1.265.084-.241.295-.783.633-1.626a15.04 15.04 0 01-.127-2.078c.042-.843-.105-1.295-.443-1.355h-5.065c-.506-.06-1.119-.09-1.836-.09a13.873 13.873 0 01-3.482 1.174 6.592 6.592 0 00-3.103 1.536 29.442 29.442 0 00-1.456 1.716 23.75 23.75 0 00-1.139 1.807c-.338.663-.697 1.386-1.077 2.169a87.454 87.454 0 00-1.139 2.801 9.095 9.095 0 00-.38 1.445c-.084.482-.148.964-.19 1.446 0 .904.021 1.807.063 2.711.085.843.401 1.807.95 2.891.169.241.338.512.506.813l.254.452.316.452c.085 0 .169.18.254.542.084.301.147.451.189.451h1.077c.506.422.907.784 1.203 1.085.295.241.569.421.823.542l.886.18c.296.061.675.091 1.14.091h.696c.296-.06.591-.091.887-.091h.886c.295 0 .654.061 1.076.181.887 0 1.625-.06 2.216-.181.633-.18 1.245-.391 1.836-.632a19.996 19.996 0 011.963-.632c.717-.181 1.604-.302 2.659-.362.211-.12.506-.391.886-.813.38-.482.57-.783.57-.904 0-.18-.127-.271-.38-.271h.38zM424.195 103.322a.873.873 0 01-.507.181c-.295 0-.506-.181-.633-.542l-.38-2.801a156.397 156.397 0 01-.063-4.97c0-2.048-.021-4.126-.063-6.234a237.439 237.439 0 00-.19-6.054c-.084-1.927-.232-3.373-.443-4.337h-2.533a3.855 3.855 0 00-.886-.09c-.338-.06-.802-.12-1.393-.18-.253.36-.464.572-.633.632-.169 0-.338.12-.507.361v4.066c0 2.891-.042 5.602-.126 8.132l-.127 7.318-.126 7.319a431.626 431.626 0 00-.064 7.68v3.162c0 1.084.021 2.229.064 3.434l-.254.722a3.476 3.476 0 00-.063.542c.127.422.232.753.317.994.084.302.168.573.253.814l.633 1.716h1.836c.717.06 1.435.06 2.153 0 .759 0 1.498-.09 2.215-.271a5.573 5.573 0 002.026-.994 45.786 45.786 0 01-.126-3.523c.042-1.265-.063-2.651-.317-4.157-.211-1.144-.337-1.927-.38-2.349a15.825 15.825 0 01-.063-1.536v-.994c.042-.361.211-.662.507-.903 1.435 1.506 2.553 2.771 3.355 3.795a38.508 38.508 0 011.899 2.439c.465.602.76 1.054.887 1.355.126.302.232.512.316.633l.254.632v.091c0 .06.063.271.19.632.126.301.527.904 1.203 1.807.379.482.654.813.823.994.211.241.379.422.506.542.127.121.211.211.253.271.085.06.232.181.444.362l1.139.813c.507-.301 1.013-.874 1.52-1.717.506-.783 1.266-1.506 2.279-2.168.506-.301.886-.512 1.139-.633.254-.12.38-.361.38-.723 0-.361-.105-.722-.316-1.084a8.5 8.5 0 00-.76-1.084 10.707 10.707 0 00-.95-1.175 5.203 5.203 0 01-.696-1.084c-.886-1.205-1.752-2.198-2.596-2.981-.844-.784-1.625-1.506-2.342-2.169a39.694 39.694 0 00-2.09-1.807 19.73 19.73 0 01-1.772-1.717 53.215 53.215 0 001.962-2.078l1.773-2.168a678.2 678.2 0 001.899-2.53c.676-.964 1.456-2.048 2.343-3.253a29.046 29.046 0 00-.443-1.174c-.127-.422-.338-.753-.633-.994-.085.06-.254.09-.507.09a2.1 2.1 0 01-.57-.09c-.211-.06-.443-.211-.696-.452-.591.482-1.077.873-1.456 1.175-.38.3-.781.632-1.203.993-.422.362-.887.844-1.393 1.446-.507.603-1.14 1.446-1.9 2.53-.759.482-1.266.903-1.519 1.265a3.704 3.704 0 01-1.013.813 6.26 6.26 0 01-.76.723c-.295.241-.612.602-.949 1.084-.085-.06-.127-.181-.127-.361v-.181zM489.674 100.34l-.317-4.066-1.266-4.879-.127-1.084-.443-.994-4.115-5.33-.823-.813-9.054-2.982h-6.837l-1.077 1.626v39.303l1.773 1.807 4.748-.722 9.054-4.97 4.622-7.047.253-.994.697-.181 2.912-8.674zm-6.838-6.686v10.752l-.633 2.891-1.329 2.801-1.71 2.44-3.292.903-2.659 1.175.19-4.789V90.853l.506-3.614 4.749.633 2.659 3.523 1.519 2.26zM498.409 89.679c.295 0 .549.18.76.542.253.361.464.783.633 1.265.211.482.401.903.57 1.265.169.361.316.542.443.542.422-.12 1.055-.362 1.899-.723a63.196 63.196 0 012.849-1.265 40.686 40.686 0 013.039-1.084c1.013-.301 1.836-.452 2.469-.452.338 0 .57.09.697.271.169.18.274.392.316.633l.127.722c.084.181.232.332.443.452.085.181.211.362.38.542.169.12.253.362.253.723a9.652 9.652 0 00-.38 2.078 24.727 24.727 0 00-.063 1.717v.542l-1.836.18-.886.181h-1.013l-1.9 1.537c-.548 0-1.013.09-1.393.27-.379.121-.78.332-1.202.633-.38.241-.823.512-1.33.813-.506.301-1.182.603-2.026.904-2.026 1.445-3.545 3.192-4.558 5.24-.971 2.048-1.457 4.578-1.457 7.59 0 .963.233 1.927.697 2.891a12.854 12.854 0 001.709 2.53 12.155 12.155 0 002.09 1.807c.717.422 1.35.632 1.899.632h1.773a14.87 14.87 0 001.646.091H508.602c.085 0 .148-.091.19-.271.085-.121.169-.271.253-.452.127-.241.317-.422.57-.542.296-.181.697-.271 1.203-.271.549 0 1.119.241 1.71.723.59.421 1.097.632 1.519.632.338 0 .654-.03.95-.09.295-.061.591-.151.886-.271a5.814 5.814 0 011.14-.271 5.295 5.295 0 011.456-.181c.127.301.359.572.696.813h.887c.042-.301.126-.572.253-.813.127-.301.274-.693.443-1.175a78.289 78.289 0 00-.19-3.704 640.198 640.198 0 00-.126-3.072c0-1.024-.022-2.078-.064-3.162 0-1.085-.021-2.32-.063-3.705h.19c.042-.06.084-.09.127-.09-.127 0-.233-.241-.317-.723a17.034 17.034 0 01-.19-1.446 60.284 60.284 0 00-.127-1.445v-.723c-.042-.482-.126-.843-.253-1.084-.084-.302-.19-.633-.316-.994a74.95 74.95 0 01-.317-1.717c-.084-.723-.148-1.897-.19-3.524-.127-.12-.232-.482-.316-1.084a152.85 152.85 0 01-.254-1.897 173.27 173.27 0 00-.126-1.988c0-.663-.021-1.054-.064-1.175h-.126c-.338 0-.612-.27-.823-.813a15.674 15.674 0 01-.57-1.807 296.24 296.24 0 00-.443-1.717c-.127-.542-.275-.813-.443-.813l-.254-.361a3.027 3.027 0 00-.253-.452h-2.849c-.211 0-.443-.03-.696-.09-.254-.06-.57-.15-.95-.271-.042.3-.296.512-.76.632-.422.06-.907.09-1.456.09h-1.456c-.422 0-.655.09-.697.272a46.77 46.77 0 01-3.102 1.355c-.929.361-1.709.753-2.343 1.174a5.32 5.32 0 00-1.582 1.356c-.422.482-.739 1.174-.95 2.078zm13.739 15.179v4.608a17.222 17.222 0 00-.38 2.982 61.31 61.31 0 00-.063 2.258v.723h-.887c-.844.121-1.625.211-2.342.271-.718.06-1.414.121-2.09.181l-4.432.361a25.727 25.727 0 00-.759-1.716c-.169-.422-.254-1.054-.254-1.898 0-1.686.148-3.011.444-3.975.337-.964.78-1.687 1.329-2.169a5.36 5.36 0 012.026-1.174c.76-.241 1.562-.512 2.406-.813.422-.181.802-.332 1.14-.452.38-.121.738-.181 1.076-.181h.253l1.266.542c.465.181.887.332 1.267.452zM537.427 117.598l-6.331 17.528.823 2.168h.886l.697-.722h4.368l1.266-1.446.887-4.066 1.519-5.421 1.963-4.427.76-1.807v-1.717h-.317l.887-1.988 1.709-2.168 1.899-6.415 1.963-4.066 1.393-3.433.76-3.253v-1.717h-5.255l-2.406 4.427-1.203 3.705-1.076 1.897-.634 2.53-.633.362-.569.993-.76.452-4.939-5.963-.569-1.084-4.369-6.867-.633-.361-3.292.451-.19.904 4.178 9.668 1.077 2.891 5.445 7.499.19.904.696.542h-.19z"/></g><g filter="url(#filter1_d)"><path d="M229.094 4.894L226.936.577 4.77 60.092l1.485 5.546 11.841 9.065-2.888 27.345.874 3.262L238.06 45.845l-.313-3.413L226.553 28.3l2.541-23.406z" fill="#785340"/><path d="M5.92 62.686c-1.233-1.043-.786-3.041.774-3.46L224.961.757a2 2 0 012.516 2.019l-1.078 24.78a2 2 0 00.486 1.396l10.158 11.745a2 2 0 01-.996 3.24l-218.7 58.587a2 2 0 01-2.507-2.141l2.807-26.634a2 2 0 00-.698-1.737L5.92 62.686z" fill="#AD795E"/><path d="M17.163 80.196c5.575-.451 16.899-.445 18.418.797 5.521 4.513-16.551 11.29-19.382 12.048" stroke="#CC9477"/><path d="M83.606 85.12l-.147.479.956.293.147-.477-.956-.294zm34.127-15.85l.326.38-.326-.38zm19.059-5.106l.299.401-.299-.4zm28.87-9.027l.198.46-.198-.46zm27.248-6.006l.266.424-.266-.424zm-168.328 53.3c1.405-1.411 4.044-4.053 6.617-6.417 1.288-1.183 2.552-2.29 3.633-3.138.54-.424 1.03-.779 1.448-1.043.428-.27.749-.426.96-.483l-.258-.965c-.363.097-.788.319-1.236.603-.458.289-.976.665-1.531 1.1-1.111.872-2.397 2-3.692 3.19-2.591 2.38-5.245 5.036-6.65 6.447l.709.706zm12.659-11.08c.278-.075.735-.1 1.37-.06.623.037 1.373.131 2.212.267 1.678.27 3.676.7 5.658 1.138 1.976.438 3.94.887 5.53 1.193.796.153 1.508.272 2.09.336.554.06 1.068.082 1.415-.011l-.258-.966c-.144.039-.481.045-1.048-.017a26.731 26.731 0 01-2.01-.324c-1.572-.303-3.514-.747-5.502-1.187-1.981-.439-4.005-.873-5.715-1.15a24.103 24.103 0 00-2.312-.278c-.657-.04-1.248-.026-1.689.093l.259.965zm47.32-5.936a.384.384 0 01-.04.091c-.011.017-.02.026-.02.028a2.602 2.602 0 01.274-.199c.236-.152.584-.35 1.035-.591.9-.48 2.175-1.11 3.708-1.842 3.063-1.462 7.13-3.318 11.232-5.177 4.1-1.858 8.236-3.718 11.427-5.183a220.661 220.661 0 003.964-1.857 39.07 39.07 0 001.235-.62c.294-.156.55-.302.683-.415l-.651-.76-.037.027-.105.066c-.09.053-.209.12-.359.199-.298.159-.704.362-1.202.604-.997.483-2.352 1.115-3.946 1.847-3.187 1.464-7.317 3.322-11.421 5.181-4.102 1.859-8.178 3.72-11.251 5.186a100.63 100.63 0 00-3.747 1.862c-.46.245-.835.458-1.106.632-.134.086-.253.17-.347.248a1.24 1.24 0 00-.141.135.677.677 0 00-.14.244l.956.294zM118.06 69.65c.021-.018.096-.067.267-.138.16-.067.37-.14.631-.219.52-.156 1.206-.326 2.014-.507 1.618-.362 3.677-.76 5.805-1.195 2.12-.433 4.302-.901 6.138-1.397a27.58 27.58 0 002.462-.77c.697-.264 1.298-.547 1.715-.859l-.598-.801c-.303.226-.798.47-1.47.724-.664.25-1.469.497-2.37.74-1.803.488-3.958.95-6.077 1.383-2.112.431-4.194.835-5.823 1.2-.815.182-1.529.358-2.085.525a7.676 7.676 0 00-.727.253c-.194.08-.389.178-.533.301l.651.76zm19.032-5.085c4.228-3.156 9.352-4.538 14.478-5.556 5.081-1.01 10.228-1.667 14.291-3.412l-.395-.919c-3.934 1.69-8.898 2.319-14.091 3.35-5.149 1.023-10.463 2.438-14.881 5.736l.598.801zm28.769-8.968c1.024-.44 2.944-.872 5.377-1.313 2.416-.438 5.273-.876 8.145-1.342 2.866-.465 5.744-.958 8.177-1.506 2.409-.542 4.459-1.154 5.617-1.881l-.532-.847c-.993.624-2.881 1.207-5.305 1.752-2.401.54-5.252 1.03-8.117 1.495-2.859.464-5.736.905-8.164 1.345-2.411.437-4.446.885-5.593 1.378l.395.919zm27.316-6.042c1.015-.638 2.725-1.29 4.824-1.945 2.086-.651 4.507-1.292 6.913-1.92 2.402-.627 4.791-1.243 6.795-1.84 1.984-.593 3.661-1.186 4.594-1.785l-.54-.842c-.796.511-2.337 1.07-4.34 1.668-1.983.592-4.352 1.202-6.761 1.831-2.404.628-4.847 1.274-6.959 1.934-2.099.655-3.922 1.338-5.058 2.052l.532.847zm23.126-7.49c.911-.584 1.898-1.47 2.914-2.468 1.018-1 2.099-2.147 3.179-3.254 1.087-1.114 2.182-2.196 3.256-3.099 1.077-.906 2.107-1.608 3.059-1.983l-.366-.93c-1.101.433-2.227 1.215-3.337 2.147-1.113.937-2.237 2.049-3.328 3.167-1.098 1.126-2.155 2.248-3.163 3.238-1.009.991-1.935 1.815-2.754 2.34l.54.842z" fill="#CC9477"/><path d="M14.958 57.012c14.039.079 42.974.057 46.406-.658 4.29-.893 26.862-7.196 32.597-8.732 5.735-1.536 21.061-12.552 24.943-14.36 3.883-1.808 10.866-2.911 16.299-4.367 5.433-1.455 21.072-1.037 23.985-2.842 2.914-1.804 18.888-5.571 23.031-8.217 4.144-2.645 11.62-3.113 17.657-4.73 6.037-1.617 19.143-4.616 22.102-7.456 2.368-2.273 4.567-3.05 5.581-3.493" stroke="#CC9477"/><path d="M9.806 64.686c10.058-1.78 28.494-.615 39.895 2.252 14.251 3.584 50.159-9.747 52.779-11.123 4.263-2.238 16.492-13.464 22.995-15.206 6.503-1.742 25.914-3.104 28.787-3.874 2.874-.77 22.494-7.396 26.055-8.625 3.562-1.228 14.822-3.97 19.716-4.459 4.893-.488 14.121-5.976 14.946-5.922.825.053 10.871-2.912 12.08-3.237" stroke="#CC9477"/><path d="M14.83 69.983c8.515-1.58 19.013 1.034 24.81 5.79 7.247 5.943 14.006 8.864 20.298 8.23 6.293-.635 11.65-8.378 18.197-9.869 6.547-1.491 30.657-9.79 36.358-12.631 5.701-2.842 18.603-10.766 22.371-11.776 3.768-1.009 27.14-5.43 31.859-5.906 4.719-.475 13.211-6.167 17.431-7.298l23.967-6.42c1.809-.485 6.297-4.84 9.763-5.77l5.978-1.6" stroke="#CC9477"/></g><g filter="url(#filter2_i)" fill="#56321E"><path d="M58.041 67.278l1.362 2.169 1.012 1.916 3.502 4.769.286.69.441.328 1.136-.36 1.841-.583.202-.323-.29-2.197.051-.796-.255-4.86.1-3.205-.516-2.802-.136-2.35-.374-1.181-.46.041-2.639.836.221 5.391-.622 1.342-.041 1.469.332 2.651-2.518-3.156-3.23-4.334-.404-1.277-.398.022-2.363.748.175 5.458.384 1.855.145 3.23-1.13-.37-2.37-2.578-3.465-5.613-.32-.158-1.107.662.103.54 4.635 8.987 3.532 4.759.286.69.41.338 1.167-.37 1.842-.582.2-.324-.29-2.197.037-.74-.24-4.917-.234-3.618zM86.542 70.946l-.152-.16a1.007 1.007 0 00-.227-.396 3.6 3.6 0 01-.318-.472.51.51 0 00-.293.25c-.082.095-.17.209-.262.342-.083.096-.19.217-.325.363a1.447 1.447 0 01-.522.27l-.153.048c-.236.11-.446.193-.63.251-.184.059-.353.13-.507.213-.163.052-.322.12-.476.203l-.583.184c-.419.029-.694.047-.827.054l-.183-.046.03-.01c.02-.006-.02-.028-.122-.065-.01.038-.026.06-.046.067-.02.006-.036.028-.047.066l-.061.02a7.114 7.114 0 00-.642-.11c-.143-.023-.24-.114-.29-.272-.04-.126-.211-.314-.516-.564a2.22 2.22 0 01-.62-1 23.104 23.104 0 01-.477-1.826c-.178-.776-.245-1.413-.2-1.913.114-.21.345-.473.695-.792.34-.35.713-.59 1.123-.72.245-.077.45-.072.612.015.173.049.325.14.457.271.132.132.228.292.287.481.07.151.131.306.18.463.07.22.07.395-.003.522a.817.817 0 01-.308.305 2.094 2.094 0 01-.415.183c-.143.046-.261.1-.353.164-.35.319-.647.552-.893.7a3.34 3.34 0 01-.4.23c.122.03.234.134.334.31.101.176.197.371.287.585.08.183.15.369.21.558.05.158.085.233.106.227.716-.227 1.294-.462 1.735-.706a6.81 6.81 0 001.061-.7l.617-.611c.145-.184.304-.322.478-.411-.018-.341.014-.56.096-.655.073-.127.136-.32.189-.58-.181-.428-.392-.847-.634-1.255a14.845 14.845 0 00-.68-1.19 11.46 11.46 0 00-.637-.942c-.171-.258-.267-.418-.287-.482a.549.549 0 01-.413-.025 2.717 2.717 0 01-.305-.215 1.609 1.609 0 01-.182-.255c-.05-.088-.086-.129-.106-.122-.225.071-.424.047-.597-.072a.618.618 0 01-.259-.177c-.327.103-.603.121-.827.053a1.114 1.114 0 00-.673.005c-.422.446-.91.826-1.463 1.14-.533.307-.96.737-1.28 1.29a31.86 31.86 0 00-.391 1.111c-.115.349-.2.722-.253 1.12-.054.399-.108.832-.163 1.3a15.386 15.386 0 00-.088 1.64c-.023.285-.015.56.024.825l.178.776c.15.472.31.942.48 1.408.18.429.483.888.908 1.377.143.094.27.21.38.348l.198.197.26.178c.04-.013.1.072.181.255.09.145.147.214.167.207l.552-.175c.316.143.57.27.763.383.183.08.346.133.489.157.133-.007.276-.018.429-.031.153-.014.342-.057.567-.128l.368-.117c.134-.076.272-.138.415-.183l.4-.126c.142-.046.326-.07.55-.07.451-.143.81-.291 1.076-.445.277-.192.539-.396.785-.613.267-.223.55-.434.847-.632.318-.204.717-.4 1.198-.587.103-.102.201-.29.295-.562.105-.31.147-.497.127-.56-.03-.094-.096-.126-.199-.093l.154-.049zM89.302 55.197l-.289-.377-.233-1.59-1.392-4.397-.488-.261-1.75 2.686.264 1.685 1.93 6.098 3.368 12.666.655.468 1.828-.838.887.135.435-.866-2.664-8.415-.568-1.796-1.983-5.198zM110.023 63.513l-.183-.15a1.01 1.01 0 00-.226-.396 13.776 13.776 0 01-.288-.482.548.548 0 00-.323.259c-.083.095-.17.21-.263.343-.082.095-.18.213-.293.353-.124.108-.308.201-.554.28l-.153.048c-.236.109-.446.193-.63.25-.163.053-.322.12-.476.204a3.09 3.09 0 00-.476.202l-.583.185a6.038 6.038 0 00-.981.207c-.256.046-.582.045-.98-.002a2.726 2.726 0 00-.016.057c-.02.006-.036.028-.046.066l-.062.02-.642-.109c-.122-.03-.208-.125-.258-.282-.04-.126-.212-.315-.516-.565a2.221 2.221 0 01-.621-1 2.987 2.987 0 01-.114-1.212c.065-.437.16-.813.284-1.13.136-.355.26-.637.374-.847.114-.21.155-.292.124-.247.041-.013.072-.057.093-.133a.403.403 0 00.062-.124c.021-.076.052-.155.094-.238.042-.221.12-.402.233-.542.124-.178.442-.417.955-.718.39-.262.697-.464.923-.604.246-.148.461-.25.645-.309l.522-.165.644-.204a6.892 6.892 0 01-.056-.71c.001-.14.014-.455.038-.948a8.947 8.947 0 01-.406-1.068c-.119-.448-.265-.662-.439-.641l-1.688.534-.767.243a7.42 7.42 0 00-.905.234c-.443.452-.94.835-1.494 1.15-.533.307-.95.733-1.25 1.279-.165.4-.306.773-.42 1.122-.095.342-.18.715-.254 1.12a71.09 71.09 0 00-.162 1.3 49.496 49.496 0 00-.089 1.64c-.002.278.016.55.055.815.04.265.088.527.148.785.15.473.31.943.48 1.409.18.428.493.884.939 1.367.121.1.248.216.38.348l.197.197.229.188c.041-.013.111.069.212.245.091.144.147.213.167.207l.522-.165c.315.143.569.27.763.382.183.081.346.134.488.158l.46-.042a2.77 2.77 0 00.567-.127l.338-.107c.133-.077.271-.138.415-.183l.429-.136c.144-.046.327-.07.552-.071a5.33 5.33 0 001.044-.435 8.53 8.53 0 00.785-.612 9.81 9.81 0 01.847-.632 6.875 6.875 0 011.229-.597c.083-.096.181-.283.295-.562.105-.31.147-.497.127-.56-.03-.095-.106-.123-.229-.084l.184-.058zM110.179 52.75c.118.586.247 1.135.386 1.645l.434 1.371c.24.757.521 1.396.844 1.918l.501.517 3.717.436.737-.233a1.764 1.764 0 00.479-.62l2.159-2.14c.113-.14.268-.362.464-.667a5.186 5.186 0 00.904-2.263c.065-.436.032-.86-.098-1.269-.478-1.513-1.168-2.803-2.069-3.87-.88-1.074-1.885-1.796-3.015-2.166l-.062.02c-.082.025-.22.086-.414.183-.195.096-.374.17-.538.222a.903.903 0 01-.429.031.327.327 0 01-.243-.235l-2.014 1.21a5.378 5.378 0 00-.896 1.012c-.278.4-.506.854-.683 1.36a5.192 5.192 0 00-.334 1.614c-.045.57.012 1.21.17 1.923zm4.989-3.973c.286.048.587.075.903.078.317.004.627.062.933.173.295.08.58.233.854.458.294.219.582.596.864 1.13l-.229 2.05-2.955 2.08-.429.136-1.143-.835-.744-2.885c.093-.134.171-.314.234-.542.063-.228.136-.46.219-.694.094-.272.213-.5.357-.685.155-.222.345-.37.57-.44.143-.046.332-.054.566-.024zM142.504 49.694l-2.876-8.764a17.119 17.119 0 00-.955-1.31c-.333-.414-.689-.683-1.065-.807l-3.038.858-.907.443-.263.447-.677.422-1.907-.904-1.717.335-1.497 1.566-.413-.025-.288-.377-1.022-.56-.63.355-1.546-.083-.045 1.99 1.027 4.097 2.634 8.32 1.655-.316.325-.467 1.627-.515.6-.45-3.008-9.502 1.535-.486.623.687.691 1.758 1.167 3.687.883 2.79.442.328 2.516-.797.421-1.017-1.339-3.165-.704-2.222-.494-1.56-.267-1.06 1.379-.228.454.793 1.955 4.79.748 2.364.963.267 2.946-.933.067-.749zM157.693 48.422l-.152-.16a.998.998 0 00-.226-.396 3.457 3.457 0 01-.318-.471.51.51 0 00-.293.248c-.082.096-.17.21-.263.344-.082.095-.19.216-.324.362a1.44 1.44 0 01-.523.27l-.153.048a5.38 5.38 0 01-.63.252c-.184.058-.353.129-.506.212-.164.052-.323.12-.476.203l-.584.184c-.418.029-.694.047-.827.054l-.183-.046.031-.01c.02-.006-.021-.028-.122-.065-.011.038-.026.06-.047.067-.02.006-.036.029-.046.066l-.062.02a7.13 7.13 0 00-.642-.109c-.142-.024-.239-.115-.289-.272-.04-.127-.212-.315-.516-.565a2.212 2.212 0 01-.62-1 22.908 22.908 0 01-.477-1.826c-.178-.775-.245-1.413-.2-1.913.113-.209.345-.473.694-.792.34-.35.714-.59 1.123-.72.246-.077.45-.072.612.015.174.05.326.14.458.271.131.132.227.292.287.482.07.15.131.305.18.463.07.22.069.394-.003.52a.825.825 0 01-.309.307 2.069 2.069 0 01-.415.183 1.32 1.32 0 00-.353.164c-.349.318-.647.551-.893.699-.225.14-.359.217-.4.23.123.03.234.134.335.31a5.5 5.5 0 01.287.586c.08.182.15.368.21.557.05.158.085.233.105.227.716-.227 1.295-.462 1.735-.705a6.8 6.8 0 001.062-.7l.617-.612c.144-.184.303-.321.477-.411-.018-.341.015-.56.097-.655.072-.127.135-.32.188-.58a10.447 10.447 0 00-.634-1.255 14.727 14.727 0 00-.68-1.19 11.487 11.487 0 00-.636-.942c-.172-.258-.268-.418-.288-.481a.548.548 0 01-.413-.025 2.655 2.655 0 01-.304-.216 1.572 1.572 0 01-.182-.255c-.051-.088-.086-.128-.107-.122-.225.071-.424.048-.596-.071a.617.617 0 01-.259-.178c-.328.103-.603.121-.827.054a1.115 1.115 0 00-.674.005 6.231 6.231 0 01-1.463 1.139 3.468 3.468 0 00-1.28 1.29c-.146.392-.276.763-.391 1.111a6.33 6.33 0 00-.253 1.12c-.054.4-.108.833-.162 1.3a15.322 15.322 0 00-.089 1.64c-.022.285-.014.56.025.825l.178.776c.149.473.309.942.479 1.409.181.428.484.887.909 1.376.142.094.269.21.38.348l.198.198.259.178c.041-.013.101.072.182.254.09.145.146.214.167.208l.552-.175c.315.142.57.27.763.382.183.081.346.133.488.158a12.3 12.3 0 00.429-.032 2.77 2.77 0 00.568-.128l.368-.116c.133-.077.272-.138.415-.184l.399-.126c.143-.045.327-.069.551-.07.451-.143.809-.291 1.075-.445.277-.191.539-.396.786-.612.267-.224.549-.434.846-.633.318-.204.718-.4 1.199-.587.102-.102.201-.29.295-.562.104-.31.146-.497.126-.56-.03-.094-.096-.125-.198-.093l.153-.048zM172.95 33.71l.783-.3c.122.032.229.05.321.055.092.006.209-.014.352-.06a.714.714 0 00.231-.124 4.67 4.67 0 00.246-.182c.092-.064.21-.119.353-.164.154-.084.354-.164.599-.242a.49.49 0 01.23-.02l.184-.059.062-.02c.041-.012.102-.101.185-.266-.102.032-.188-.062-.258-.282-.01-.032-.03-.13-.059-.294a3.049 3.049 0 00-.074-.34c-.021.006-.056-.07-.106-.227a.55.55 0 01-.028-.303c-.193-.112-.315-.247-.364-.405a1.487 1.487 0 00-.303-.528c-.103.101-.185.162-.246.182l-.307.097a1.058 1.058 0 00-.183-.046c-.072-.012-.189.008-.353.06-.153.013-.409.06-.766.138-.256.046-.563.109-.92.187-.358.079-.752.151-1.181.218l-1.968-5.15-.471-.528-1.935.925-.147 1.243 1.254 4.284-.828.262a6.82 6.82 0 00-.782.196c-.175.16-.273.242-.293.248l-.491.156c-.143.045-.297.06-.46.041l-.491.156-.266.76.27.851c.1.315.21.627.33.936.14.302.281.57.423.802.131.201.258.317.38.348l.35.253.46-.145c.093-.064.262-.17.508-.317 0-.07.083-.13.246-.182a1.55 1.55 0 01.384-.07c.153-.013.255-.011.306.008l.184-.059a.72.72 0 01.23-.125l.415-.183.177.984 1.945 6.146.976 2.656.682.98.707-.432 2.606-.513 1.599-.922a7.513 7.513 0 00-.324-1.666 8.951 8.951 0 00-.723-1.643l-1.511-.614-2.14-6.76zM179.083 30.937c.118.587.247 1.135.386 1.646l.434 1.371c.239.757.52 1.396.843 1.918l.502.517 3.717.436.736-.233c.072-.058.149-.134.232-.23.082-.095.165-.225.247-.39l2.159-2.14c.114-.14.268-.362.465-.667.216-.311.402-.648.558-1.009.166-.4.282-.817.346-1.254a2.8 2.8 0 00-.098-1.27c-.479-1.512-1.168-2.802-2.069-3.87-.88-1.073-1.885-1.795-3.016-2.165l-.061.02a3.49 3.49 0 00-.415.182c-.194.097-.374.17-.537.223a.903.903 0 01-.429.031.327.327 0 01-.243-.235l-2.015 1.21a5.368 5.368 0 00-.895 1.012c-.279.4-.506.854-.684 1.36a5.221 5.221 0 00-.333 1.614c-.045.57.012 1.21.17 1.923zm4.989-3.972c.286.048.586.075.903.078a2.8 2.8 0 01.932.173c.296.08.581.233.854.458.295.219.583.596.865 1.13l-.229 2.05-2.955 2.08-.43.135-1.142-.834-.744-2.885c.093-.134.17-.315.233-.543.063-.227.136-.459.22-.693.094-.273.213-.5.357-.685.155-.223.344-.37.569-.44.144-.046.333-.054.567-.024z"/></g><defs><filter id="filter0_i" x="159.559" y="78.294" width="393" height="60" filterUnits="userSpaceOnUse" color-interpolation-filters="sRGB"><feFlood flood-opacity="0" result="BackgroundImageFix"/><feBlend in="SourceGraphic" in2="BackgroundImageFix" result="shape"/><feColorMatrix in="SourceAlpha" values="0 0 0 0 0 0 0 0 0 0 0 0 0 0 0 0 0 0 127 0" result="hardAlpha"/><feOffset dy="1"/><feGaussianBlur stdDeviation=".5"/><feComposite in2="hardAlpha" operator="arithmetic" k2="-1" k3="1"/><feColorMatrix values="0 0 0 0 0 0 0 0 0 0 0 0 0 0 0 0 0 0 0.3 0"/><feBlend in2="shape" result="effect1_innerShadow"/></filter><filter id="filter1_d" x=".77" y=".577" width="241.292" height="112.733" filterUnits="userSpaceOnUse" color-interpolation-filters="sRGB"><feFlood flood-opacity="0" result="BackgroundImageFix"/><feColorMatrix in="SourceAlpha" values="0 0 0 0 0 0 0 0 0 0 0 0 0 0 0 0 0 0 127 0"/><feOffset dy="4"/><feGaussianBlur stdDeviation="2"/><feColorMatrix values="0 0 0 0 0 0 0 0 0 0 0 0 0 0 0 0 0 0 0.25 0"/><feBlend in2="BackgroundImageFix" result="effect1_dropShadow"/><feBlend in="SourceGraphic" in2="effect1_dropShadow" result="shape"/></filter><filter id="filter2_i" x="46.593" y="23.597" width="143.147" height="57.429" filterUnits="userSpaceOnUse" color-interpolation-filters="sRGB"><feFlood flood-opacity="0" result="BackgroundImageFix"/><feBlend in="SourceGraphic" in2="BackgroundImageFix" result="shape"/><feColorMatrix in="SourceAlpha" values="0 0 0 0 0 0 0 0 0 0 0 0 0 0 0 0 0 0 127 0" result="hardAlpha"/><feOffset dy="1"/><feGaussianBlur stdDeviation=".5"/><feComposite in2="hardAlpha" operator="arithmetic" k2="-1" k3="1"/><feColorMatrix values="0 0 0 0 0 0 0 0 0 0 0 0 0 0 0 0 0 0 0.3 0"/><feBlend in2="shape" result="effect1_innerShadow"/></filter></defs></svg>