<svg width="284" height="75" viewBox="0 0 284 75" fill="none" xmlns="http://www.w3.org/2000/svg">
<path d="M4.22546 46.6267C8.5917 32.1346 12.9579 17.6425 17.2538 3.15039H266.481C266.481 3.15039 276.129 35.145 279.51 46.6267H4.22546Z" fill="#CAFFFF"/>
<path d="M264.158 6.30091L266.129 12.8819C269.158 23.0333 272.256 33.2548 275.284 43.4063H8.52121C12.2536 31.0845 15.9861 18.6927 19.6481 6.30091H264.158ZM268.876 0H14.9297C10.0001 16.5924 5.00005 33.1848 0 49.7772H283.806C278.876 33.1848 273.876 16.5924 268.876 0Z" fill="#382E73"/>
<path d="M0 49.7778H283.806C278.806 58.039 273.805 66.3702 268.876 74.6314H14.9297C10.0001 66.3002 5.00005 58.039 0 49.7778Z" fill="#382E73"/>
<path d="M65.184 26.544H58.632L57.36 30H54.096L60.792 13.272H63.048L69.72 30H66.456L65.184 26.544ZM64.176 23.784L61.92 17.688L59.664 23.784H64.176ZM77.7654 17.928C79.3334 17.928 80.5574 18.504 81.4374 19.656C82.3174 20.792 82.7574 22.272 82.7574 24.096C82.7574 25.36 82.5414 26.456 82.1094 27.384C81.6934 28.312 81.1094 29.024 80.3574 29.52C79.6054 30 78.7414 30.24 77.7654 30.24C77.0934 30.24 76.4454 30.112 75.8214 29.856C75.2134 29.6 74.7254 29.248 74.3574 28.8V34.896H71.4774V18.168H74.3574V19.344C74.7414 18.864 75.2374 18.512 75.8454 18.288C76.4534 18.048 77.0934 17.928 77.7654 17.928ZM77.0454 27.72C77.9894 27.72 78.6934 27.408 79.1574 26.784C79.6374 26.144 79.8774 25.24 79.8774 24.072C79.8774 21.656 78.9414 20.448 77.0694 20.448C76.0614 20.448 75.3094 20.776 74.8134 21.432C74.3334 22.088 74.0934 22.968 74.0934 24.072C74.0934 25.16 74.3334 26.04 74.8134 26.712C75.3094 27.384 76.0534 27.72 77.0454 27.72ZM91.5233 17.928C93.0913 17.928 94.3153 18.504 95.1953 19.656C96.0753 20.792 96.5153 22.272 96.5153 24.096C96.5153 25.36 96.2993 26.456 95.8672 27.384C95.4513 28.312 94.8673 29.024 94.1153 29.52C93.3633 30 92.4993 30.24 91.5233 30.24C90.8513 30.24 90.2033 30.112 89.5793 29.856C88.9713 29.6 88.4833 29.248 88.1153 28.8V34.896H85.2353V18.168H88.1153V19.344C88.4993 18.864 88.9953 18.512 89.6033 18.288C90.2113 18.048 90.8513 17.928 91.5233 17.928ZM90.8033 27.72C91.7473 27.72 92.4513 27.408 92.9153 26.784C93.3953 26.144 93.6353 25.24 93.6353 24.072C93.6353 21.656 92.6993 20.448 90.8273 20.448C89.8193 20.448 89.0673 20.776 88.5713 21.432C88.0913 22.088 87.8513 22.968 87.8513 24.072C87.8513 25.16 88.0913 26.04 88.5713 26.712C89.0673 27.384 89.8113 27.72 90.8033 27.72ZM101.633 30.24C100.785 30.24 100.105 29.984 99.5931 29.472C99.0971 28.96 98.8491 28.192 98.8491 27.168V13.272H101.729V26.976C101.729 27.472 102.009 27.72 102.569 27.72C102.841 27.72 103.145 27.672 103.481 27.576V29.88C102.841 30.12 102.225 30.24 101.633 30.24ZM108.481 29.688L103.849 18.168H107.017L110.017 26.376L113.041 18.168H116.209L109.489 34.896H106.369L108.481 29.688ZM126.962 20.448V26.472C126.962 26.936 127.09 27.28 127.346 27.504C127.618 27.728 127.994 27.84 128.474 27.84C128.874 27.84 129.354 27.752 129.914 27.576V29.88C129.194 30.12 128.474 30.24 127.754 30.24C126.682 30.24 125.802 29.952 125.114 29.376C124.426 28.784 124.082 27.888 124.082 26.688V20.448H122.162V18.168H124.082V15.408L126.962 13.272V18.168H129.914V20.448H126.962ZM137.193 30.24C136.009 30.24 134.961 29.968 134.049 29.424C133.153 28.864 132.465 28.112 131.985 27.168C131.505 26.224 131.265 25.192 131.265 24.072C131.265 22.952 131.505 21.928 131.985 21C132.465 20.056 133.153 19.312 134.049 18.768C134.961 18.208 136.009 17.928 137.193 17.928C138.377 17.928 139.417 18.208 140.313 18.768C141.209 19.312 141.897 20.056 142.377 21C142.873 21.928 143.121 22.952 143.121 24.072C143.121 25.192 142.873 26.224 142.377 27.168C141.897 28.112 141.209 28.864 140.313 29.424C139.417 29.968 138.377 30.24 137.193 30.24ZM137.193 27.72C138.217 27.72 138.977 27.376 139.473 26.688C139.985 26 140.241 25.128 140.241 24.072C140.241 23.016 139.985 22.152 139.473 21.48C138.977 20.792 138.217 20.448 137.193 20.448C136.169 20.448 135.401 20.792 134.889 21.48C134.393 22.152 134.145 23.016 134.145 24.072C134.145 25.128 134.393 26 134.889 26.688C135.401 27.376 136.169 27.72 137.193 27.72ZM168.898 13.272V30H165.898V17.496L161.746 28.536H158.842L154.69 17.496V30H151.69V13.272H155.986L160.282 25.056L164.602 13.272H168.898ZM182.69 23.928C182.69 24.28 182.666 24.648 182.618 25.032H174.506C174.57 25.832 174.85 26.464 175.346 26.928C175.842 27.392 176.546 27.624 177.458 27.624C178.61 27.624 179.554 27.2 180.29 26.352L182.282 28.104C181.626 28.824 180.898 29.36 180.098 29.712C179.314 30.064 178.426 30.24 177.434 30.24C176.138 30.24 175.05 29.96 174.17 29.4C173.306 28.84 172.666 28.104 172.25 27.192C171.834 26.264 171.626 25.248 171.626 24.144C171.626 23.056 171.826 22.04 172.226 21.096C172.642 20.152 173.266 19.392 174.098 18.816C174.946 18.224 175.994 17.928 177.242 17.928C178.426 17.928 179.426 18.192 180.242 18.72C181.058 19.248 181.666 19.968 182.066 20.88C182.482 21.792 182.69 22.808 182.69 23.928ZM179.93 22.752C179.914 22.016 179.65 21.432 179.138 21C178.626 20.552 177.986 20.328 177.218 20.328C176.402 20.328 175.762 20.568 175.298 21.048C174.85 21.512 174.578 22.08 174.482 22.752H179.93ZM191.511 17.928C192.839 17.928 193.863 18.32 194.583 19.104C195.319 19.872 195.687 20.96 195.687 22.368V30H192.807V23.088C192.807 22.368 192.679 21.752 192.423 21.24C192.167 20.712 191.567 20.448 190.623 20.448C189.791 20.448 189.175 20.688 188.775 21.168C188.391 21.632 188.151 22.192 188.055 22.848C187.975 23.488 187.935 24.296 187.935 25.272V30H185.055V18.168H187.935V19.536C188.335 18.992 188.839 18.592 189.447 18.336C190.071 18.064 190.759 17.928 191.511 17.928ZM202.149 20.448V26.472C202.149 26.936 202.277 27.28 202.533 27.504C202.805 27.728 203.181 27.84 203.661 27.84C204.061 27.84 204.541 27.752 205.101 27.576V29.88C204.381 30.12 203.661 30.24 202.941 30.24C201.869 30.24 200.989 29.952 200.301 29.376C199.613 28.784 199.269 27.888 199.269 26.688V20.448H197.349V18.168H199.269V15.408L202.149 13.272V18.168H205.101V20.448H202.149ZM212.38 30.24C211.196 30.24 210.148 29.968 209.236 29.424C208.34 28.864 207.652 28.112 207.172 27.168C206.692 26.224 206.452 25.192 206.452 24.072C206.452 22.952 206.692 21.928 207.172 21C207.652 20.056 208.34 19.312 209.236 18.768C210.148 18.208 211.196 17.928 212.38 17.928C213.564 17.928 214.604 18.208 215.5 18.768C216.396 19.312 217.084 20.056 217.564 21C218.06 21.928 218.308 22.952 218.308 24.072C218.308 25.192 218.06 26.224 217.564 27.168C217.084 28.112 216.396 28.864 215.5 29.424C214.604 29.968 213.564 30.24 212.38 30.24ZM212.38 27.72C213.404 27.72 214.164 27.376 214.66 26.688C215.172 26 215.428 25.128 215.428 24.072C215.428 23.016 215.172 22.152 214.66 21.48C214.164 20.792 213.404 20.448 212.38 20.448C211.356 20.448 210.588 20.792 210.076 21.48C209.58 22.152 209.332 23.016 209.332 24.072C209.332 25.128 209.58 26 210.076 26.688C210.588 27.376 211.356 27.72 212.38 27.72ZM226.682 17.928C227.466 17.928 228.218 18.152 228.938 18.6L227.546 21.144C227.13 20.872 226.65 20.736 226.106 20.736C224.362 20.736 223.49 21.84 223.49 24.048V30H220.61V18.168H223.514V20.184C223.754 19.48 224.162 18.928 224.738 18.528C225.33 18.128 225.978 17.928 226.682 17.928Z" fill="#322764"/>
</svg>
