<svg width="1440" height="636" viewBox="0 0 1440 636" fill="none" xmlns="http://www.w3.org/2000/svg">
<g clip-path="url(#clip0)">
<path d="M-69.2208 6.18783C-69.2208 6.18783 -66.6836 1.48621 -64.2837 -0.980486C-56.5928 -8.88518 -46.6389 -9.38133 -34.5388 -9.98447L-34.2279 -9.99996C-15.0011 -10.9592 -1.32229 -2.311 9.64605 11.5252C18.491 22.6828 18.0545 31.1548 18.0545 31.1548C18.0545 31.1548 28.0687 25.992 42.756 23.5137C63.2505 20.0555 74.3932 19.3899 94.9673 24.1749C120.033 30.0045 132.81 39.8675 152.282 54.5473C175.547 72.0857 184.296 92.1289 183.374 114.234C182.718 129.975 175.358 139.144 175.358 139.144C185.372 141.815 191.178 147.374 192.938 154.848C192.938 154.848 197.394 148.053 201.939 144.838C219.257 132.592 254.795 141.701 259.303 143.419C270.198 147.572 290.664 159.345 298.822 174.432C303.236 182.596 303.906 196.022 303.906 196.022C303.906 196.022 342.366 193.607 353.425 208.566C358.729 215.74 362.075 230.021 362.075 230.021C383.226 227.396 402.631 235.263 407.391 261.687C407.391 261.687 428.444 251.863 444.088 255.027C480.844 262.46 490.074 289.115 493.087 312.065C494.166 320.277 495.112 320.663 495.112 320.663C511.351 318.768 517.944 323.714 528.127 336.266C540.577 331.117 548.208 330.86 563.251 336.711C584.135 336.975 611.813 347.122 616.595 367.428C646.857 373.432 655.934 384.644 649.251 388.416C639.225 394.073 610.729 391.727 601.254 393.592C588.611 396.081 566.13 393.148 566.13 393.148L542.89 402.977C542.89 402.977 516.448 406.312 499.222 402.424C483.424 398.858 461.29 386.035 461.29 386.035C461.29 386.035 439.519 385.666 423.968 387.934C408.201 390.232 387.714 391.245 370.799 389.594C343.688 386.949 326.561 370.515 326.561 370.515C326.561 370.515 318.489 375.705 307.57 381.346C300.451 385.024 294.087 385.43 289.514 384.921C291.305 385.5 293.131 387.343 295.818 393.675C304.714 387.441 302.055 384.462 328.376 384.334C354.697 384.206 366.652 389.754 382.958 403.103C395.458 413.335 402.643 434.444 402.643 434.444C436.494 430.279 456.546 433.806 494.172 449.342C494.172 449.342 517.53 436.555 536.494 436.139C565.409 435.506 584.958 446.873 609.093 463.09C622.104 471.833 637.853 488.762 637.853 488.762C655.514 486.185 666.636 484.982 676.132 497.266C676.132 497.266 712.404 487.93 731.833 489.952C749.999 491.843 760.746 497.319 776.41 506.424C786.999 512.579 800.615 524.808 800.615 524.808C800.615 524.808 840.228 531.884 852.385 533.463C870.807 535.856 1084.89 557.397 990.778 559.284C923.326 560.637 790.244 565.169 790.244 565.169C737.021 577.116 720.21 570.358 684.873 563.835C684.873 563.835 650.365 582.052 625.273 584.05C581.856 587.506 496.817 565.069 496.817 565.069C496.817 565.069 447.391 581.288 405.037 581.261C358.303 581.231 233.179 558.838 233.179 558.838C233.179 558.838 190.761 578.412 129.476 580.663C56.2847 583.352 -3.19497 555.845 -3.19497 555.845C-17.6665 570.674 -2.8463 592.142 -32.1902 590.884L-174.998 -15.5438C-174.998 -15.5438 -180.948 -40.842 -166.32 -36.379C-127.317 -24.4797 -132.899 1.04312 -132.899 1.04312C-132.899 1.04312 -126.201 -6.68586 -99.3122 -5.0393C-82.0265 -3.9808 -69.2208 6.18783 -69.2208 6.18783Z" fill="url(#paint0_linear)"/>
<path d="M1541.68 234.566C1558.01 238.384 1567.72 241.846 1567.72 241.846L1594.51 249.333L1484.84 580.221C1484.84 580.221 1371.61 595.478 1353.16 594.708C1335.56 593.973 1314.29 584.544 1314.29 584.544C1314.29 584.544 1273.43 593.256 1248.58 595.133C1219.88 597.301 1203.69 597.412 1179.09 592.88C1160.34 589.425 1151.31 585.601 1135.72 578.755C1126.34 574.632 1127.58 576.929 1127.58 576.929C1127.58 576.929 1096.09 586.937 1085.22 588.496C1052.44 593.2 1007.15 583.69 1007.15 583.69L907.433 566.266L744.629 532.739C744.629 532.739 848.8 546.667 855.296 543.563C860.372 541.139 866.177 539.325 872.372 537.992C827.277 533.135 742.186 522.632 659.549 505.158C637.157 500.424 609.198 494.884 609.198 494.884C609.198 494.884 420.119 464.863 425.806 462.185C437.821 456.528 621.398 473.239 633.665 470.553C657.453 465.344 693.905 464.394 693.905 464.394L721.001 456.514C721.001 456.514 753.942 454.111 764.499 452.983C772.628 452.114 834.851 472.758 834.851 472.758C834.851 472.758 832.534 464.956 834.563 459.181C836.03 455.008 837.33 452.423 841.007 448.367C845.478 443.435 849.317 440.757 855.916 437.403C867.527 431.502 875.33 432.27 886.282 432.452C898.092 432.647 911.951 439.219 911.951 439.219C911.951 439.219 916.711 429.112 923.879 423.979L924.208 423.743C934.417 416.431 935.76 415.469 947.906 411.807C960.874 407.897 970.788 409.772 978.902 411.124C988.963 412.8 1001.49 419.905 1001.49 419.905C1001.49 419.905 1006.34 407.566 1014.83 402.385C1025.37 395.956 1034.09 397.542 1043.13 399.57C1072.33 406.118 1086.03 422.171 1086.03 422.171C1086.03 422.171 1085.6 418.602 1089.49 412.079C1092.1 407.694 1094.14 405.338 1098.46 401.304C1102.77 397.291 1104.77 397.011 1110.51 394.489C1123.02 388.998 1131.5 395.17 1131.5 395.17L1134.79 397.164C1134.79 397.164 1130.11 385.136 1143.34 369.791C1156.55 354.467 1180.92 343.082 1195.13 342.906C1211 342.709 1220.54 350.277 1220.54 350.277C1220.54 350.277 1213.18 333.547 1221.31 321.297C1226.88 312.896 1235.82 305.864 1243.03 301.63C1263.38 289.675 1275.27 292.757 1296.6 291.939C1316.59 291.173 1338.79 303.059 1338.79 303.059C1338.79 303.059 1341.48 297.137 1344.49 293.492C1351.7 284.786 1359.88 279.68 1371.83 275.723C1385.5 271.201 1393.27 273.378 1403.21 276.741C1409.64 278.915 1416.44 285.225 1416.44 285.225C1416.44 285.225 1422.66 275.251 1427.15 271.177C1438.43 260.933 1445.09 257.699 1459.42 250.156C1485.37 236.493 1527.55 236.678 1527.55 236.678C1527.55 236.678 1523.53 230.324 1541.68 234.566Z" fill="url(#paint1_linear)"/>
</g>
<defs>
<linearGradient id="paint0_linear" x1="348.944" y1="-30.3425" x2="344.135" y2="647.166" gradientUnits="userSpaceOnUse">
<stop stop-color="#7569C2"/>
<stop offset="0.0001" stop-color="#7569C2" stop-opacity="0.51"/>
<stop offset="0.333333" stop-color="#CE768B" stop-opacity="0.71"/>
<stop offset="0.635417" stop-color="#E1927B" stop-opacity="0.97541"/>
<stop offset="1" stop-color="#EEA570"/>
</linearGradient>
<linearGradient id="paint1_linear" x1="1134.62" y1="220.219" x2="1122.83" y2="623.108" gradientUnits="userSpaceOnUse">
<stop stop-color="#7569C2"/>
<stop offset="0.0001" stop-color="#7569C2" stop-opacity="0.51"/>
<stop offset="0.333333" stop-color="#CE768B" stop-opacity="0.71"/>
<stop offset="0.635417" stop-color="#E1927B" stop-opacity="0.97541"/>
<stop offset="1" stop-color="#EEA570"/>
</linearGradient>
<clipPath id="clip0">
<rect width="1440" height="636" fill="white"/>
</clipPath>
</defs>
</svg>
