<svg width="284" height="75" viewBox="0 0 284 75" fill="none" xmlns="http://www.w3.org/2000/svg">
<path d="M4.22546 46.6267C8.5917 32.1346 12.9579 17.6425 17.2538 3.15039H266.481C266.481 3.15039 276.129 35.145 279.51 46.6267H4.22546Z" fill="#CAFFFF"/>
<path d="M264.158 6.30091L266.129 12.8819C269.158 23.0333 272.256 33.2548 275.284 43.4063H8.52121C12.2536 31.0845 15.9861 18.6927 19.6481 6.30091H264.158ZM268.876 0H14.9297C10.0001 16.5924 5.00005 33.1848 0 49.7772H283.806C278.876 33.1848 273.876 16.5924 268.876 0Z" fill="#382E73"/>
<path d="M0 49.7778H283.806C278.806 58.039 273.805 66.3702 268.876 74.6314H14.9297C10.0001 66.3002 5.00005 58.039 0 49.7778Z" fill="#382E73"/>
<path d="M44.112 13.272H49.944C51.608 13.272 52.904 13.648 53.832 14.4C54.776 15.136 55.248 16.168 55.248 17.496C55.248 18.28 55.088 18.976 54.768 19.584C54.448 20.176 53.992 20.64 53.4 20.976C55.224 21.632 56.136 23.008 56.136 25.104C56.136 26.64 55.656 27.84 54.696 28.704C53.736 29.568 52.4 30 50.688 30H44.112V13.272ZM49.944 19.92C50.696 19.92 51.264 19.76 51.648 19.44C52.048 19.12 52.248 18.648 52.248 18.024C52.248 17.384 52.048 16.896 51.648 16.56C51.248 16.208 50.68 16.032 49.944 16.032H47.112V19.92H49.944ZM50.448 27.24C51.28 27.24 51.936 27.032 52.416 26.616C52.896 26.184 53.136 25.6 53.136 24.864C53.136 24.16 52.904 23.624 52.44 23.256C51.992 22.872 51.328 22.68 50.448 22.68H47.112V27.24H50.448ZM68.9709 23.928C68.9709 24.28 68.9469 24.648 68.8989 25.032H60.7869C60.8509 25.832 61.1309 26.464 61.6269 26.928C62.1229 27.392 62.8269 27.624 63.7389 27.624C64.8909 27.624 65.8349 27.2 66.5709 26.352L68.5629 28.104C67.9069 28.824 67.1789 29.36 66.3789 29.712C65.5949 30.064 64.7069 30.24 63.7149 30.24C62.4189 30.24 61.3309 29.96 60.4509 29.4C59.5869 28.84 58.9469 28.104 58.5309 27.192C58.1149 26.264 57.9069 25.248 57.9069 24.144C57.9069 23.056 58.1069 22.04 58.5069 21.096C58.9229 20.152 59.5469 19.392 60.3789 18.816C61.2269 18.224 62.2749 17.928 63.5229 17.928C64.7069 17.928 65.7069 18.192 66.5229 18.72C67.3389 19.248 67.9469 19.968 68.3469 20.88C68.7629 21.792 68.9709 22.808 68.9709 23.928ZM66.2109 22.752C66.1949 22.016 65.9309 21.432 65.4189 21C64.9069 20.552 64.2669 20.328 63.4989 20.328C62.6829 20.328 62.0429 20.568 61.5789 21.048C61.1309 21.512 60.8589 22.08 60.7629 22.752H66.2109ZM76.0403 30.24C74.8083 30.24 73.7603 29.96 72.8963 29.4C72.0323 28.824 71.3843 28.072 70.9523 27.144C70.5203 26.2 70.3043 25.192 70.3043 24.12C70.3043 23.032 70.5203 22.024 70.9523 21.096C71.3843 20.152 72.0243 19.392 72.8723 18.816C73.7363 18.224 74.7843 17.928 76.0163 17.928C77.2163 17.928 78.2563 18.224 79.1363 18.816C80.0163 19.392 80.6803 20.256 81.1283 21.408L78.3923 22.488C78.2323 21.864 77.9363 21.368 77.5043 21C77.0883 20.632 76.5923 20.448 76.0163 20.448C75.0883 20.448 74.3923 20.8 73.9283 21.504C73.4803 22.208 73.2563 23.08 73.2563 24.12C73.2563 25.16 73.4803 26.024 73.9283 26.712C74.3763 27.384 75.0723 27.72 76.0163 27.72C76.5923 27.72 77.0883 27.544 77.5043 27.192C77.9363 26.824 78.2323 26.336 78.3923 25.728L81.0083 26.736C80.6083 27.84 79.9683 28.704 79.0883 29.328C78.2243 29.936 77.2083 30.24 76.0403 30.24ZM87.9504 30.24C86.7664 30.24 85.7184 29.968 84.8064 29.424C83.9104 28.864 83.2224 28.112 82.7424 27.168C82.2624 26.224 82.0224 25.192 82.0224 24.072C82.0224 22.952 82.2624 21.928 82.7424 21C83.2224 20.056 83.9104 19.312 84.8064 18.768C85.7184 18.208 86.7664 17.928 87.9504 17.928C89.1344 17.928 90.1744 18.208 91.0704 18.768C91.9664 19.312 92.6544 20.056 93.1344 21C93.6304 21.928 93.8784 22.952 93.8784 24.072C93.8784 25.192 93.6304 26.224 93.1344 27.168C92.6544 28.112 91.9664 28.864 91.0704 29.424C90.1744 29.968 89.1344 30.24 87.9504 30.24ZM87.9504 27.72C88.9744 27.72 89.7344 27.376 90.2304 26.688C90.7424 26 90.9984 25.128 90.9984 24.072C90.9984 23.016 90.7424 22.152 90.2304 21.48C89.7344 20.792 88.9744 20.448 87.9504 20.448C86.9264 20.448 86.1584 20.792 85.6464 21.48C85.1504 22.152 84.9024 23.016 84.9024 24.072C84.9024 25.128 85.1504 26 85.6464 26.688C86.1584 27.376 86.9264 27.72 87.9504 27.72ZM109.404 17.928C110.748 17.928 111.772 18.368 112.476 19.248C113.18 20.112 113.532 21.184 113.532 22.464V30H110.652V23.328C110.652 21.408 109.98 20.448 108.636 20.448C107.884 20.448 107.34 20.688 107.004 21.168C106.668 21.632 106.468 22.184 106.404 22.824C106.34 23.448 106.308 24.336 106.308 25.488V30H103.428V23.328C103.428 21.408 102.764 20.448 101.436 20.448C100.684 20.448 100.14 20.688 99.804 21.168C99.468 21.632 99.26 22.192 99.18 22.848C99.116 23.488 99.084 24.368 99.084 25.488V30H96.204L96.18 18.168H98.964V19.656C99.636 18.504 100.692 17.928 102.132 17.928C102.868 17.928 103.54 18.104 104.148 18.456C104.772 18.808 105.252 19.408 105.588 20.256C106.02 19.424 106.556 18.832 107.196 18.48C107.836 18.112 108.572 17.928 109.404 17.928ZM126.674 23.928C126.674 24.28 126.65 24.648 126.602 25.032H118.49C118.554 25.832 118.834 26.464 119.33 26.928C119.826 27.392 120.53 27.624 121.442 27.624C122.594 27.624 123.538 27.2 124.274 26.352L126.266 28.104C125.61 28.824 124.882 29.36 124.082 29.712C123.298 30.064 122.41 30.24 121.418 30.24C120.122 30.24 119.034 29.96 118.154 29.4C117.29 28.84 116.65 28.104 116.234 27.192C115.818 26.264 115.61 25.248 115.61 24.144C115.61 23.056 115.81 22.04 116.21 21.096C116.626 20.152 117.25 19.392 118.082 18.816C118.93 18.224 119.978 17.928 121.226 17.928C122.41 17.928 123.41 18.192 124.226 18.72C125.042 19.248 125.65 19.968 126.05 20.88C126.466 21.792 126.674 22.808 126.674 23.928ZM123.914 22.752C123.898 22.016 123.634 21.432 123.122 21C122.61 20.552 121.97 20.328 121.202 20.328C120.386 20.328 119.746 20.568 119.282 21.048C118.834 21.512 118.562 22.08 118.466 22.752H123.914ZM139.459 17.928C141.027 17.928 142.259 18.344 143.155 19.176C144.067 19.992 144.523 21.112 144.523 22.536V30H141.883L141.643 28.464C141.291 29.024 140.795 29.464 140.155 29.784C139.531 30.088 138.827 30.24 138.043 30.24C137.227 30.24 136.491 30.08 135.835 29.76C135.195 29.424 134.691 28.96 134.323 28.368C133.955 27.776 133.771 27.112 133.771 26.376C133.771 25.672 133.923 25.064 134.227 24.552C134.531 24.04 134.971 23.656 135.547 23.4C136.315 23.048 137.363 22.872 138.691 22.872H141.643V22.536C141.643 21.896 141.443 21.392 141.043 21.024C140.643 20.64 140.099 20.448 139.411 20.448C138.803 20.448 138.227 20.6 137.683 20.904C137.139 21.208 136.651 21.648 136.219 22.224L134.131 20.472C135.539 18.776 137.315 17.928 139.459 17.928ZM138.499 27.792C139.363 27.792 140.099 27.528 140.707 27C141.331 26.456 141.643 25.8 141.643 25.032H139.075C138.147 25.032 137.499 25.168 137.131 25.44C136.811 25.664 136.651 25.992 136.651 26.424C136.651 26.84 136.811 27.176 137.131 27.432C137.467 27.672 137.923 27.792 138.499 27.792ZM158.623 30.312C157.519 30.312 156.511 30.104 155.599 29.688C154.687 29.272 153.935 28.688 153.343 27.936C152.751 27.168 152.375 26.28 152.215 25.272L155.191 24.528C155.303 25.52 155.663 26.288 156.271 26.832C156.895 27.376 157.695 27.648 158.671 27.648C159.519 27.648 160.191 27.448 160.687 27.048C161.183 26.648 161.431 26.096 161.431 25.392C161.431 24.816 161.183 24.32 160.687 23.904C160.207 23.488 159.343 23.032 158.095 22.536C156.911 22.072 155.975 21.608 155.287 21.144C154.599 20.68 154.103 20.16 153.799 19.584C153.495 18.992 153.343 18.288 153.343 17.472C153.343 16.576 153.559 15.784 153.991 15.096C154.423 14.408 155.031 13.872 155.815 13.488C156.615 13.104 157.527 12.912 158.551 12.912C159.687 12.912 160.687 13.168 161.551 13.68C162.415 14.192 163.111 14.952 163.639 15.96L161.143 17.496C160.855 16.872 160.479 16.4 160.015 16.08C159.551 15.744 159.031 15.576 158.455 15.576C157.863 15.576 157.359 15.752 156.943 16.104C156.543 16.456 156.343 16.888 156.343 17.4C156.343 17.944 156.575 18.408 157.039 18.792C157.519 19.176 158.399 19.616 159.679 20.112C160.879 20.576 161.823 21.04 162.511 21.504C163.199 21.968 163.687 22.488 163.975 23.064C164.279 23.64 164.431 24.328 164.431 25.128C164.431 26.152 164.183 27.056 163.687 27.84C163.207 28.624 162.527 29.232 161.647 29.664C160.767 30.096 159.759 30.312 158.623 30.312ZM172.734 17.928C174.302 17.928 175.526 18.504 176.406 19.656C177.286 20.792 177.726 22.272 177.726 24.096C177.726 25.36 177.51 26.456 177.078 27.384C176.662 28.312 176.078 29.024 175.326 29.52C174.574 30 173.71 30.24 172.734 30.24C172.062 30.24 171.414 30.112 170.79 29.856C170.182 29.6 169.694 29.248 169.326 28.8V34.896H166.446V18.168H169.326V19.344C169.71 18.864 170.206 18.512 170.814 18.288C171.422 18.048 172.062 17.928 172.734 17.928ZM172.014 27.72C172.958 27.72 173.662 27.408 174.126 26.784C174.606 26.144 174.846 25.24 174.846 24.072C174.846 21.656 173.91 20.448 172.038 20.448C171.03 20.448 170.278 20.776 169.782 21.432C169.302 22.088 169.062 22.968 169.062 24.072C169.062 25.16 169.302 26.04 169.782 26.712C170.278 27.384 171.022 27.72 172.014 27.72ZM185.052 30.24C183.868 30.24 182.82 29.968 181.908 29.424C181.012 28.864 180.324 28.112 179.844 27.168C179.364 26.224 179.124 25.192 179.124 24.072C179.124 22.952 179.364 21.928 179.844 21C180.324 20.056 181.012 19.312 181.908 18.768C182.82 18.208 183.868 17.928 185.052 17.928C186.236 17.928 187.276 18.208 188.172 18.768C189.068 19.312 189.756 20.056 190.236 21C190.732 21.928 190.98 22.952 190.98 24.072C190.98 25.192 190.732 26.224 190.236 27.168C189.756 28.112 189.068 28.864 188.172 29.424C187.276 29.968 186.236 30.24 185.052 30.24ZM185.052 27.72C186.076 27.72 186.836 27.376 187.332 26.688C187.844 26 188.1 25.128 188.1 24.072C188.1 23.016 187.844 22.152 187.332 21.48C186.836 20.792 186.076 20.448 185.052 20.448C184.028 20.448 183.26 20.792 182.748 21.48C182.252 22.152 182.004 23.016 182.004 24.072C182.004 25.128 182.252 26 182.748 26.688C183.26 27.376 184.028 27.72 185.052 27.72ZM199.738 17.928C201.066 17.928 202.09 18.32 202.81 19.104C203.546 19.872 203.914 20.96 203.914 22.368V30H201.034V23.088C201.034 22.368 200.906 21.752 200.65 21.24C200.394 20.712 199.794 20.448 198.85 20.448C198.018 20.448 197.402 20.688 197.002 21.168C196.618 21.632 196.378 22.192 196.282 22.848C196.202 23.488 196.162 24.296 196.162 25.272V30H193.282V18.168H196.162V19.536C196.562 18.992 197.066 18.592 197.674 18.336C198.298 18.064 198.986 17.928 199.738 17.928ZM210.736 30.24C209.536 30.24 208.48 29.928 207.568 29.304C206.672 28.664 206.072 27.872 205.768 26.928L208.072 25.896C208.536 27.192 209.376 27.84 210.592 27.84C211.216 27.84 211.688 27.696 212.008 27.408C212.344 27.12 212.512 26.8 212.512 26.448C212.512 26.096 212.344 25.832 212.008 25.656C211.672 25.48 211.12 25.28 210.352 25.056C209.552 24.848 208.888 24.632 208.36 24.408C207.832 24.168 207.376 23.808 206.992 23.328C206.608 22.832 206.416 22.184 206.416 21.384C206.416 20.296 206.832 19.448 207.664 18.84C208.512 18.232 209.544 17.928 210.76 17.928C211.768 17.928 212.656 18.152 213.424 18.6C214.192 19.048 214.8 19.68 215.248 20.496L213.016 21.72C212.776 21.272 212.472 20.912 212.104 20.64C211.736 20.352 211.256 20.208 210.664 20.208C210.216 20.208 209.848 20.304 209.56 20.496C209.288 20.688 209.152 20.928 209.152 21.216C209.152 21.536 209.32 21.784 209.656 21.96C210.008 22.136 210.544 22.32 211.264 22.512C212.096 22.752 212.784 22.992 213.328 23.232C213.872 23.472 214.344 23.84 214.744 24.336C215.144 24.832 215.344 25.48 215.344 26.28C215.344 27.16 215.12 27.896 214.672 28.488C214.24 29.08 213.672 29.52 212.968 29.808C212.264 30.096 211.52 30.24 210.736 30.24ZM222.599 30.24C221.415 30.24 220.367 29.968 219.455 29.424C218.559 28.864 217.871 28.112 217.391 27.168C216.911 26.224 216.671 25.192 216.671 24.072C216.671 22.952 216.911 21.928 217.391 21C217.871 20.056 218.559 19.312 219.455 18.768C220.367 18.208 221.415 17.928 222.599 17.928C223.783 17.928 224.823 18.208 225.719 18.768C226.615 19.312 227.303 20.056 227.783 21C228.279 21.928 228.527 22.952 228.527 24.072C228.527 25.192 228.279 26.224 227.783 27.168C227.303 28.112 226.615 28.864 225.719 29.424C224.823 29.968 223.783 30.24 222.599 30.24ZM222.599 27.72C223.623 27.72 224.383 27.376 224.879 26.688C225.391 26 225.647 25.128 225.647 24.072C225.647 23.016 225.391 22.152 224.879 21.48C224.383 20.792 223.623 20.448 222.599 20.448C221.575 20.448 220.807 20.792 220.295 21.48C219.799 22.152 219.551 23.016 219.551 24.072C219.551 25.128 219.799 26 220.295 26.688C220.807 27.376 221.575 27.72 222.599 27.72ZM236.9 17.928C237.684 17.928 238.436 18.152 239.156 18.6L237.764 21.144C237.348 20.872 236.868 20.736 236.324 20.736C234.58 20.736 233.708 21.84 233.708 24.048V30H230.828V18.168H233.732V20.184C233.972 19.48 234.38 18.928 234.956 18.528C235.548 18.128 236.196 17.928 236.9 17.928Z" fill="#322764"/>
</svg>
