<svg width="41" height="77" fill="none" xmlns="http://www.w3.org/2000/svg"><path fill-rule="evenodd" clip-rule="evenodd" d="M14.287 74.303c-2.7 1.44-5.148.305-8.97-3.547-3.821-3.852-5.288-5.54-4.36-7.732 1.938 0 3.025.097 3.886.468 3.42-1.036 4.8-3.175 5.973-4.991.134-.206.264-.408.394-.604.616-.527 1.276-1.484 2.005-2.54.551-.798 1.141-1.653 1.781-2.423-1.082-2.166-1.03-4.253-.368-7.341 1.027-4.785 7.52-1.71 11.28.683.372.196.738.403 1.096.62l10.74-9.848c.803-.078 2.316.24 1.958 2.14L29.645 48.76c3.886 3.17 6.143 7.051 5.149 8.112-3.335 3.335-7.25 3.46-10.764 2.806a4.706 4.706 0 01-.173.27c-.717.204-4.32 2.915-6.953 4.897-1.188.894-2.178 1.64-2.617 1.939-.873.595-.813 2.864-.733 4.448.245.612.463 1.543.732 3.07z" fill="#000" fill-opacity=".06"/><path d="M39.898 36.706l-5.81-6.152-2.052 2.051 5.811 6.152c1.914.274 2.165-1.253 2.05-2.05z" fill="url(#paint0_linear)"/><path d="M17.93 19.759c-3.076 2.392-5.469 11.62 1.025 15.38 5.467 3.165 13.844.374 16.746-5.81 2.901-6.185 1.782-11.917-3.416-14.356-4.445-1.708-9.417-.998-14.355 4.786z" fill="url(#paint1_radial)"/><path d="M35.136 29.529c1.758-2.931 1.709-7.064 1.367-9.228 0 1.595-.137 5.058-.684 6.152-.683 1.367-1.367 3.418-5.468 6.836-3.281 2.734-7.747 2.734-9.57 2.392 6.494 1.709 12.305-2.734 14.355-6.152z" fill="#fff" fill-opacity=".13"/><path d="M28.984 19.275c-1.64 0-4.785-3.873-6.153-5.81-3.303 2.62-9.706 7.861-8.886 7.861 1.025 0 2.89 2.258 3.76 3.418 1.025 1.367 1.709 2.734 2.05 3.76 2.735 1.708 5.81-.342 8.203-2.393 2.202-1.887 1.71-5.24 1.026-6.836z" fill="url(#paint2_linear)"/><ellipse rx="7.651" ry="10.399" transform="scale(-1 1) rotate(-47.962 7.503 22.854)" fill="url(#paint3_linear)"/><path d="M8.477 8.338c-3.677 3.99-4.294 7.963-2.734 10.595 2.737 1.469 7.437.278 11.114-3.712 3.678-3.99 4.266-8.25 2.738-10.838-2.232-.83-7.44-.035-11.118 3.955z" fill="url(#paint4_linear)"/><defs><linearGradient id="paint0_linear" x1="37.528" y1="32.263" x2="35.136" y2="37.732" gradientUnits="userSpaceOnUse"><stop stop-color="#C2C2C2"/><stop offset="1" stop-color="#676767"/></linearGradient><linearGradient id="paint2_linear" x1="24.882" y1="16.541" x2="16.679" y2="25.769" gradientUnits="userSpaceOnUse"><stop stop-color="#F06F6F"/><stop offset="1" stop-color="#992C2C"/></linearGradient><linearGradient id="paint3_linear" x1="5.651" y1="5.119" x2="1.802" y2="18.714" gradientUnits="userSpaceOnUse"><stop stop-color="#F06F6F"/><stop offset="1" stop-color="#A73737"/></linearGradient><linearGradient id="paint4_linear" x1="19.535" y1="4.328" x2="10.186" y2="18.592" gradientUnits="userSpaceOnUse"><stop stop-color="#FF8787"/><stop offset="1" stop-color="#FF8787" stop-opacity="0"/></linearGradient><radialGradient id="paint1_radial" cx="0" cy="0" r="1" gradientUnits="userSpaceOnUse" gradientTransform="rotate(55.125 -15.913 36.407) scale(13.7482 13.7848)"><stop stop-color="#A33434"/><stop offset="1" stop-color="#ED6D6D"/></radialGradient></defs></svg>