<svg width="90" height="104" fill="none" xmlns="http://www.w3.org/2000/svg"><path d="M84.79 21.122l-9.49 42.29c-2.14 5.447-5.772 10.407-10.543 14.653-.608.55-1.263 1.09-1.914 1.606-3.599 2.881-7.745 5.36-12.347 7.38-.34.153-.68.306-1.014.434-.31.134-.59.25-.9.383-3.945 1.583-8.193 2.817-12.661 3.672-6.085-4.418-11.164-9.578-15.041-15.103-.406-.575-.806-1.173-1.206-1.772l-.997-1.572a45.605 45.605 0 01-1.98-3.65c-.33-.684-.642-1.34-.942-2.043-2.55-5.991-3.743-12.135-3.346-18.101l9.49-42.29c.856.04 1.683.098 2.534.162a198.947 198.947 0 0158.02 13.02c.767.324 1.564.63 2.336.93z" fill="#453F4B"/><path d="M63.755 81.963c-3.69 2.942-7.98 5.494-12.7 7.568-.339.153-.703.3-1.043.453-.31.134-.615.244-.925.378a70.66 70.66 0 01-13.016 3.753c-6.264-4.539-11.493-9.838-15.494-15.499a45.867 45.867 0 01-1.22-1.827 69.937 69.937 0 01-1.01-1.628 56.792 56.792 0 01-2.062-3.748c-.355-.69-.655-1.395-.985-2.08.01-.049.046-.092.051-.116 1.835-4.657 5.652-9.072 12.984-11.782 0 0 15.03-2.409 17.632-10.484 0 0 3.546 7.239-2.185 15.07 0 0 3.86 1.3 5.918-3.332 0 0 4.188 5.168-.39 15.016 0 0 4.376-3.272 7.163-12.63 0 0 5.994 10.514 7.275 20.81-.025-.005-.006.025.008.078z" fill="#E0516B" fill-opacity=".59"/><path d="M50.533 87.053c-.016.073-.051.116-.062.164-.34.152-.679.305-1.013.433-.31.134-.59.249-.9.382-3.94 1.58-8.184 2.812-12.649 3.664-6.05-4.431-11.131-9.559-15.006-15.076a84.702 84.702 0 01-1.205-1.769l-.996-1.57a.188.188 0 00.07-.085c3.155-3.407 7.143-4.061 7.143-4.061.162 2.906 3.627 5.03 3.627 5.03 1.558-8.642 11.648-9.629 11.648-9.629-3.466 3.998-2.546 10.553-2.546 10.553 2.705-6.275 7.699-7.898 7.699-7.898-.748 4.125 1.655 8.83 1.655 8.83 3.272 5.254 3.484 8.73 2.535 11.032z" fill="#F06E85"/><path d="M64.8 33.074l-3.38 1.914-2.424 1.391-2.423 1.391-6.593 3.765-2.886 1.643-11.785 6.724L6.318 68.7a42.581 42.581 0 01-.937-3.647l23.048-15.32 16.732-9.28 2.876-1.595 6.857-3.807L56 34.434l1.608-.25 3.03-.466 4.163-.644z" fill="#B58065"/><path d="M63.022 42.71c1.322-.836.292-4.831-2.3-8.922-2.59-4.09-5.763-6.729-7.084-5.892-1.32.837-.291 4.832 2.3 8.923 2.592 4.09 5.763 6.728 7.084 5.892z" fill="#E2E2E2"/><path d="M74.817 35.24L65.42 20.404l-11.793 7.47 9.398 14.836 11.792-7.47z" fill="#E2E2E2"/><path d="M74.806 35.249c1.32-.837.291-4.832-2.3-8.923-2.592-4.09-5.763-6.728-7.085-5.892-1.32.837-.291 4.832 2.3 8.923 2.592 4.09 5.763 6.729 7.085 5.892z" fill="#C4C4C4"/><path d="M69.144 26.813l12.28-4.857.458.458-11.37 6.939-.771-.427-.597-2.113z" fill="#B58065"/><path d="M75.053 80.082a48.14 48.14 0 01-2.39 2.95L55.104 54.634 47.094 43.19l-1.908-2.719-4.12-5.888-1.621-2.298-1.596-2.292-2.22-3.145 3.465 2.355 2.54 1.715 1.346.913.735 1.03 4.341 6.04 1.919 2.67 11.392 15.868 13.686 22.644z" fill="#9C6D55"/><path d="M42.07 33.989c4.09-2.592 6.728-5.764 5.892-7.085-.837-1.32-4.832-.291-8.923 2.3-4.09 2.592-6.729 5.763-5.892 7.084.837 1.322 4.832.292 8.923-2.3z" fill="#E4E4E4"/><path d="M33.145 36.291l14.835-9.397L40.51 15.1 25.675 24.5l7.47 11.792z" fill="#E4E4E4"/><path d="M34.608 22.206c4.09-2.591 6.728-5.763 5.892-7.084-.837-1.321-4.832-.291-8.923 2.3-4.09 2.591-6.729 5.763-5.892 7.084.837 1.322 4.832.292 8.923-2.3z" fill="#C4C4C4"/><path d="M34.38 19.325l-9.077-9.086 6.762 10.806.875-.057 1.44-1.663z" fill="#9C6D55"/><path d="M17.72 38.361l6.251-4.365 5.92 7.096-7.763 4.638-4.407-7.369z" fill="#FFFBD5"/><path d="M22.948 39.483l.419-.382.37.4-.508.442-.281-.46zM23.366 37.628l.41-.341.372.396-.493.37-.289-.425zM22.539 41.667l.413-.357.37.401-.484.447-.3-.49zM24.584 39.982l.404-.36.38.404-.496.444-.288-.488zM20.983 39.042l.419-.382.371.4-.509.442-.28-.46z" fill="#FFCC4D"/><path d="M72.163 44.81l3.348 6.691-7.654 4.808-3.419-8.185 7.725-3.313z" fill="#FFFBD5"/><path d="M70.403 49.735l.321.456-.466.305-.355-.54.5-.221zM72.124 50.439l.273.445-.419.316-.326-.534.472-.227zM68.282 49.1l.284.448-.43.313-.315-.531.461-.23zM69.653 51.313l.321.456-.466.306-.355-.541.5-.221zM71.085 47.983l.272.445-.418.316-.326-.534.472-.227z" fill="#FFCC4D"/><path d="M87.656 18.292a118.498 118.498 0 00-3.875-1.557A201.404 201.404 0 0024.682 3.474c-1.376-.105-2.787-.168-4.169-.249l-1.562-.07-10.239 45.63-.008.15c-.297 4.157.12 8.422 1.206 12.66.24.97.529 1.95.848 2.912.95 2.91 2.213 5.788 3.746 8.6.63 1.159 1.29 2.3 2.029 3.432.601.949 1.232 1.879 1.893 2.79 4.177 5.771 9.591 11.133 16.022 15.705l.595.413.043.035.768-.133a73.204 73.204 0 0012.909-3.54c5.259-2 10.058-4.56 14.25-7.588 2.824-2.037 5.39-4.285 7.644-6.73a47.047 47.047 0 001.992-2.3c2.638-3.25 4.703-6.781 6.154-10.526l.057-.14 10.239-45.63-1.443-.603zM75.29 63.419C72.862 69.59 68.54 75.133 62.8 79.722c-3.569 2.862-7.708 5.317-12.231 7.329-.674.28-1.324.568-2.022.843-3.944 1.583-8.162 2.799-12.575 3.64-6.036-4.407-11.119-9.541-14.981-15.013-.768-1.113-1.512-2.222-2.197-3.367a48.013 48.013 0 01-2.965-5.728c-2.604-5.977-3.814-12.151-3.417-18.116l9.49-42.288c.85.064 1.682.098 2.533.162A198.878 198.878 0 0182.443 20.2c.773.3 1.57.607 2.336.932L75.29 63.419z" fill="#7C7385"/></svg>