<svg width="297" height="78" viewBox="0 0 297 78" fill="none" xmlns="http://www.w3.org/2000/svg">
<g clip-path="url(#clip0)">
<path d="M5.41614 48.7318C9.97949 33.5854 14.5428 18.4391 19.0326 3.29272H279.512C279.512 3.29272 289.595 36.7318 293.128 48.7318H5.41614Z" fill="#CAFFFF"/>
<path d="M277.083 6.58537L279.144 13.4634C282.309 24.0732 285.547 34.7561 288.712 45.3659H9.9059C13.8068 32.4878 17.7078 19.5366 21.5351 6.58537H277.083ZM282.014 0H16.6037C11.4516 17.3415 6.22578 34.6829 1 52.0244H297.618C292.466 34.6829 287.24 17.3415 282.014 0Z" fill="#382E73"/>
<path d="M1 52.0244H297.618C292.392 60.6586 287.166 69.3659 282.014 78H16.6037C11.4516 69.2927 6.22578 60.6586 1 52.0244Z" fill="#382E73"/>
<path d="M35.0812 36.6C39.5812 36.6 43.4812 34.4 45.7812 30.4L41.8812 28.8C40.6812 31.1 38.5812 32.3 36.0812 32.3C32.5812 32.3 30.9812 30 31.8812 26.1C32.7812 22.2 35.2812 20.1 38.6812 20.1C41.0812 20.1 42.6812 21.2 42.9812 23.4L47.3812 21.8C46.7812 18.2 43.9812 16 39.5812 16C33.7812 16 28.8812 20 27.3812 26.1C25.8812 32.4 28.8812 36.6 35.0812 36.6Z" fill="#382E73"/>
<path d="M59.2812 36.6C65.1812 36.6 69.8812 32.4 70.8812 26.1C71.8812 20 68.5812 16 62.8812 16C57.1812 16 52.5812 20 51.3812 26.1C50.1812 32.3 53.3812 36.6 59.2812 36.6ZM60.0812 32.2C56.8812 32.2 55.1812 29.9 55.8812 26.1C56.5812 22.3 59.0812 20.1 62.1812 20.1C65.3812 20.1 66.9812 22.4 66.3812 26.1C65.7812 29.9 63.3812 32.2 60.0812 32.2Z" fill="#382E73"/>
<path d="M93.8812 16.5L88.1812 28.8L85.4812 16.5H79.1812L76.3812 36H80.9812L82.7812 22.7L85.3812 34.2H89.7812L95.1812 22.7L93.7812 36.1H98.3812L100.281 16.6H93.8812V16.5Z" fill="#382E73"/>
<path d="M106.781 36.1001H111.381L112.781 16.6001H108.381L106.781 36.1001Z" fill="#382E73"/>
<path d="M132.781 16.5L132.381 28.2L125.381 16.5H120.981L119.881 36H124.481L124.981 23.9L132.081 36H136.781L137.181 16.5H132.781Z" fill="#382E73"/>
<path d="M154.281 25L154.381 28.9H158.681V29.2C158.681 30.8 157.281 32.2 154.281 32.2C150.881 32.2 148.481 30.4 148.481 26.1C148.481 22.1 150.681 20 153.881 20C156.181 20 158.081 21.1 158.981 23.3L163.081 21.7C161.281 18 157.681 16 153.781 16C148.081 16 143.981 20.3 143.881 26.3C143.881 32.2 147.681 36.6 153.881 36.6C156.381 36.6 158.481 35.9 159.681 34.1L160.281 36H163.381L162.981 25H154.281Z" fill="#382E73"/>
<path d="M188.881 36.5C192.981 36.5 195.981 33.8 195.581 29.8C195.281 27 193.781 25.6 189.381 24C186.481 22.9 185.581 22.3 185.581 21.3C185.481 20.4 186.281 19.8 187.281 19.8C188.381 19.8 189.381 20.5 190.181 21.9L193.681 19.7C192.181 17.3 189.881 16 187.181 16C183.381 16 180.981 18.2 181.181 21.4C181.381 24.4 182.981 25.9 187.381 27.6C190.081 28.6 191.081 29.3 191.181 30.2C191.281 31.7 190.181 32.4 188.681 32.4C186.681 32.4 185.081 31.3 184.781 29L180.381 30.1C181.181 34 184.681 36.5 188.881 36.5Z" fill="#382E73"/>
<path d="M211.481 36.6001C217.381 36.6001 220.881 32.4001 219.981 26.1001C218.981 20.0001 214.581 16.1001 208.881 16.1001C203.181 16.1001 199.781 20.1001 200.381 26.2001C201.081 32.3001 205.581 36.6001 211.481 36.6001ZM210.881 32.2001C207.681 32.2001 205.281 29.9001 204.881 26.1001C204.481 22.3001 206.181 20.1001 209.381 20.1001C212.581 20.1001 214.881 22.4001 215.381 26.1001C215.881 29.9001 214.181 32.2001 210.881 32.2001Z" fill="#382E73"/>
<path d="M236.981 36.6C242.881 36.6 246.181 32.4 244.881 26.1C243.681 20 238.981 16 233.281 16C227.581 16 224.381 20 225.281 26.1C226.381 32.3 231.081 36.6 236.981 36.6ZM236.181 32.2C232.981 32.2 230.481 29.9 229.881 26.1C229.281 22.3 230.881 20.1 234.081 20.1C237.281 20.1 239.681 22.4 240.381 26.1C241.081 29.9 239.481 32.2 236.181 32.2Z" fill="#382E73"/>
<path d="M261.681 16.5L264.481 28.2L254.281 16.5H249.781L253.881 36H258.481L255.781 23.9L266.081 36H270.781L265.981 16.5H261.681Z" fill="#382E73"/>
</g>
<defs>
<clipPath id="clip0">
<rect width="297" height="78" fill="white"/>
</clipPath>
</defs>
</svg>
