<svg width="212" height="61" fill="none" xmlns="http://www.w3.org/2000/svg"><path d="M.18 9.036l3.39-4.409 8.139 27.467-3.052 1.356L.18 9.036z" fill="#4B362A"/><path d="M1.875 60.24l6.782-26.79 2.713-1.356-6.443 26.11-3.052 2.035z" fill="#5B4132"/><path d="M4.927 58.204L1.875 60.24l182.094-7.121 22.38-14.581 5.087-8.817-29.162 21.702L4.927 58.204z" fill="#785340"/><path d="M182.273 8.357L3.57 4.627l7.8 27.467-6.782 26.11 177.685-6.782 29.163-21.701-29.163-21.364z" fill="#AD795E"/><path d="M5.916 13.462c9.896-2.31 30.269-6.385 32.597-4.217 2.329 2.169 1.94 1.908 1.456 1.506M41.424 24.589c13.291-3.313 43.017-9.217 55.59-6.325M68.77 22.314c13.097.201 40.863-.06 47.149-2.71M98.7 28.583c10.6-3.42 35.156-10.718 48.571-12.542 13.416-1.825 20.432-3.04 22.263-3.42M8.91 45.4c4.085 2.367 16.77 5.679 34.832 0 22.577-7.097 43.542-13.249 53.863-6.624 10.321 6.624 57.088-1.42 60.635-3.312 2.839-1.515 29.996-1.893 43.219-1.893M7.911 51.402c5.433 2.008 18.453 5.421 27.067 3.012 10.77-3.012 41.316-8.049 47.15-6.628 4.948 1.205 7.276 3.013 6.694 5.423M72.76 16.61c27.32-3.485 91.667-8.79 103.757-7.877M100.694 53.524c7.81-4.275 27.355-11.832 43.058-7.86 19.63 4.964 21.846 3.723 27.862 3.31 4.812-.331 11.925-.966 14.88-1.242M139.604 45.261l50.351-2.71" stroke="#CC9477" stroke-width=".926"/><path d="M12.9 41.682c4.23.655 14.018 1.572 19.335 0 6.647-1.965 22.055-6.387 29.306-5.65 7.251.737 52.57 2.211 58.914-5.158 5.076-5.896 45.218-12.037 74.02-13.266M8.91 22.596c15.328-.997 47.49-3.69 53.506-6.484 6.016-2.794 85.226-4.822 124.078-5.487M9.43 16.574c8.52-.781 26.857-4.06 29.179-3.888 2.753.203 27.751-.368 36.413-3.051 6.929-2.147 14.317-2.87 17.145-2.964" stroke="#CC9477" stroke-width=".926"/><path d="M11.446 27.902c16.008-1.607 49.711-3.434 56.463 2.108 6.753 5.543 59.665 2.31 85.277 0l53.262-3.614M11.902 33.761c7.665-1.506 22.47-3.735 20.374-.602s-14.456 3.916-20.374 3.916" stroke="#CC9477" stroke-width=".926"/><path d="M12.9 31.576c10.574-1.506 31.025-3.614 28.231 0-3.493 4.518-3.784 5.422-26.485 7.53" stroke="#CC9477" stroke-width=".926"/><g filter="url(#filter0_i)" fill="#56321E"><path d="M55.93 36.875a1.425 1.425 0 00-.166-.53 4.802 4.802 0 00-.233-.483c-.089-.16-.166-.305-.233-.433-.066-.161-.1-.338-.1-.53a4.874 4.874 0 01-.565-.338l-.399-.386-1.03-.82c-.11-.064-.177-.144-.2-.24a19.258 19.258 0 01-1.628-1.11c-.532-.45-1.008-.851-1.43-1.205l-1.528-1.254c-.089 0-.188-.096-.3-.289-.11-.225-.166-.69-.166-1.398 0-.675.056-1.173.167-1.495.133-.353.454-.755.964-1.205h.166c.221 0 .476-.08.764-.241a8.5 8.5 0 00.665-.482c.222-.129.51-.273.864-.434.377-.16.698-.29.964-.386l.632-.434h.631c.31 0 .543-.16.698-.482a7.365 7.365 0 01-.033-.579c0-.128-.011-.24-.033-.337v-.386-.675c-.244-.16-.421-.273-.532-.337a8.132 8.132 0 01-.465-.386c-.355.064-.654.113-.898.145a7.013 7.013 0 01-.897.048h-.366l-.3-.145c-.464.225-.841.386-1.13.482a18.77 18.77 0 00-1.03.386l-1.695 1.254c-.399.289-.853.626-1.363 1.012s-.875.836-1.096 1.35c-.089.16-.189.338-.3.53a2.637 2.637 0 01-.432.627c0 .418-.077.788-.232 1.11-.133.288-.2.594-.2.915 0 .097.011.161.034.193.022.032.033.145.033.338 0 .192-.022.401-.067.626-.022.193-.055.322-.1.386.045.547.122 1.013.233 1.398.133.386.31.707.532.965l.399.482c.31.16.565.353.764.578.222.225.422.483.599.772.177.257.365.498.565.723.221.193.465.321.731.386l2.127 1.398.93.578c0 .193.034.37.1.53.09.13.178.29.267.483.088.16.177.338.265.53.09.193.133.402.133.627 0 .579-.11 1.029-.332 1.35a2.67 2.67 0 01-.731.675c-.266.129-.51.21-.732.241a6.419 6.419 0 01-.365.048c-.665.225-1.197.418-1.596.579-.376.16-.797.241-1.263.241-.221 0-.476-.016-.764-.048-.288-.064-.62-.129-.997-.193-.067.096-.177.145-.333.145-.155 0-.343-.049-.565-.145-.199-.096-.31-.129-.332-.096.044.257.078.53.1.82.044.288.077.562.1.819.044.257.077.466.1.627.044.192.088.289.132.289h.067a.495.495 0 00-.133.193 1.118 1.118 0 00-.034.24c0 .097.011.146.034.146a.17.17 0 00-.034.096c0 .064.034.145.1.241a.985.985 0 00.233.241l.266.193.133.096c.266-.032.487-.064.664-.096.2 0 .388-.032.565-.096l.599-.097a4.49 4.49 0 00.764-.193 9.74 9.74 0 00.599-.193c.199-.064.398-.08.598-.048.487 0 .92.064 1.296.193.377.16.742.241 1.097.241.177 0 .354-.016.532-.048.177-.032.343-.097.498-.193.178-.064.322-.129.432-.193.111-.032.178-.048.2-.048.022 0 .044-.016.066-.048.045 0 .1-.016.167-.048.066-.033.166-.113.299-.242l.532-.385c.288-.225.609-.466.963-.724a5.43 5.43 0 00.997-.82c.333-.32.599-.69.798-1.108.222-.45.333-.997.333-1.64 0-.385-.023-.803-.067-1.253a17.483 17.483 0 01-.066-1.591zM60.43 45.891L60.797 47h.532l.366-.434h2.559l.698-.771-.133-2.218.166-3.279-.133-.868c.288-.064.521-.128.698-.193.2-.096.421-.257.665-.482l3.656-1.784c.222-.096.521-.289.898-.578.398-.29.786-.643 1.163-1.06.377-.419.698-.869.964-1.35.288-.515.432-1.03.432-1.544 0-.996-.122-1.993-.366-2.989a10.098 10.098 0 00-.997-2.7c-.443-.836-.997-1.527-1.662-2.073a3.995 3.995 0 00-2.293-.916 5.65 5.65 0 01-.765-.145c-.221-.064-.343-.241-.365-.53l-3.025.385h-.498l-.266.338-1.23-.241-.333 2.073-.332 6.027-.366 1.59v8.872l-.398 3.761zm3.956-18.321c.177-.032.343-.049.499-.049.177-.032.343-.048.498-.048.421 0 .975.145 1.662.434.377.129.764.225 1.163.29.4.032.776.112 1.13.24.377.13.698.354.964.675.288.322.499.836.632 1.543l-1.197 2.363-4.587 1.35h-.498v-1.302l-.266-2.218V27.57zM75.42 31.234c-.067.578-.111 1.125-.133 1.64v1.397c0 .772.077 1.447.232 2.025l.333.627 3.523 1.495h.798c.088-.032.188-.08.299-.145.11-.064.233-.16.366-.29l2.791-1.35a8.4 8.4 0 00.665-.481c.31-.225.599-.482.865-.772.288-.321.531-.675.73-1.06.2-.386.3-.788.3-1.206 0-1.543-.277-2.94-.831-4.194-.532-1.254-1.296-2.218-2.294-2.893h-.066c-.089 0-.244.016-.465.048a4.214 4.214 0 01-.599.048.98.98 0 01-.432-.096.314.314 0 01-.166-.29l-2.36.53c-.399.162-.797.387-1.196.676-.4.29-.765.643-1.097 1.06-.333.386-.61.852-.831 1.399-.222.514-.366 1.125-.432 1.832zm6.149-2.218c.266.129.554.241.864.338.31.096.598.24.864.434.266.16.499.385.698.674.222.29.388.724.499 1.302l-.865 1.832-3.556 1.061h-.465l-.865-1.109.167-2.893c.133-.096.266-.24.399-.434.133-.192.277-.385.432-.578.177-.225.365-.402.565-.53.221-.161.454-.242.698-.242.155 0 .343.049.565.145zM101.444 27.184l-.532-.627h-2.293l-1.928 1.157-.765.482-.698.434-1.03-2.7h-2.327l-.598 1.254v9.643l.465 1.59.865-.481h.531l.499.434 1.595-.579-.2-4.628-.066-.097v-1.929l2.128-.337.598-.482h.399l.764 1.59-.531 5.594.432.53h3.456l.333-.578v-5.786l.133-1.11-1.23-3.374zM116.087 35.429c-.045-.29-.144-.515-.3-.675-.155-.161-.232-.386-.232-.675a7.33 7.33 0 01-.466-.242.988.988 0 00-.299-.192 5.713 5.713 0 01-.232-.241 1.12 1.12 0 00-.333-.29c-.044 0-.177-.08-.399-.24-.199-.194-.332-.306-.398-.338l-.466-.338c-.288-.193-.498-.37-.631-.53a1.13 1.13 0 01-.2-.434l-.598-.82c-.089 0-.177-.064-.266-.193-.066-.16-.1-.482-.1-.964 0-.45.034-.787.1-1.012.089-.225.344-.499.765-.82h.066a.58.58 0 00.266-.096c.111-.065.21-.193.299-.386 0-.064.033-.129.1-.193.066-.064.332-.193.798-.386.11 0 .199-.016.265-.048a8.33 8.33 0 01.266-.241h.665c.067-.032.144-.064.233-.096-.022 0-.033-.017-.033-.049.022 0 .033-.016.033-.048s.011-.048.033-.048a.753.753 0 00-.033-.241v-.483c0-.481-.089-.755-.266-.819a1.352 1.352 0 01-.399-.386 9.442 9.442 0 01-.698.145H112.63a.421.421 0 01-.1-.096c-.288.16-.543.273-.764.337-.222.032-.466.129-.732.29l-1.263.77a7.357 7.357 0 01-.964.724c-.332.225-.609.53-.83.916-.111.29-.289.563-.532.82 0 .289-.056.514-.166.675-.089.16-.133.353-.133.578 0 .065.011.113.033.145.022.032.033.128.033.29 0 .128-.011.272-.033.433-.022.16-.056.273-.1.338 0 .289.055.61.166.964.133.321.255.514.366.578l.299.386c.222.129.41.273.565.434.155.16.299.338.432.53l.399.483c.155.128.343.209.565.24.31.161.499.306.565.435a.43.43 0 01.133.289c.022.064.055.145.1.241.044.064.21.193.498.386 0 .128.078.305.233.53l.266.386c.066.257.1.498.1.723 0 .29-.078.53-.233.723-.133.16-.299.306-.499.434-.177.097-.343.16-.498.193-.155.032-.233.032-.233 0-.509.225-.875.386-1.097.482a1.362 1.362 0 01-.598.145c-.155 0-.465-.048-.931-.145-.044.097-.122.145-.232.145-.111 0-.255-.048-.432-.145-.156-.096-.222-.128-.2-.096.133.45.189.868.166 1.253-.022.354.023.53.133.53h.034a.58.58 0 00-.067.145.753.753 0 00-.033.241h.033l-.066.049c0 .064.088.176.266.337.199.129.31.193.332.193a8.94 8.94 0 001.263-.29 4.766 4.766 0 011.396-.192c.31 0 .598.048.864.144.266.097.543.145.831.145.421 0 .753-.064.997-.193.266-.128.477-.257.632-.386.155-.16.299-.289.432-.385a.648.648 0 01.465-.193l.698-.482c.244-.193.466-.466.665-.82.222-.386.332-.803.332-1.253 0-.29-.022-.595-.066-.916a16.44 16.44 0 01-.033-1.11zM120.635 31.234c-.066.578-.11 1.125-.133 1.64v1.397c0 .772.078 1.447.233 2.025l.332.627 3.524 1.495h.797c.089-.032.189-.08.3-.145.11-.064.232-.16.365-.29l2.792-1.35c.155-.096.377-.256.665-.481.31-.225.598-.482.864-.772a5.06 5.06 0 00.731-1.06c.2-.386.3-.788.3-1.206 0-1.543-.277-2.94-.831-4.194-.532-1.254-1.297-2.218-2.294-2.893h-.066c-.089 0-.244.016-.466.048a4.207 4.207 0 01-.598.048.98.98 0 01-.432-.096.313.313 0 01-.166-.29l-2.36.53c-.399.162-.798.387-1.197.676-.399.29-.764.643-1.097 1.06a5.018 5.018 0 00-.831 1.399c-.221.514-.365 1.125-.432 1.832zm6.149-2.218c.266.129.554.241.865.338.31.096.598.24.864.434.266.16.498.385.698.674.221.29.388.724.498 1.302l-.864 1.832-3.556 1.061h-.466l-.864-1.109.166-2.893c.133-.096.266-.24.399-.434.133-.192.277-.385.432-.578.178-.225.366-.402.565-.53.222-.161.455-.242.698-.242.155 0 .344.049.565.145zM146.527 27.57l-1.263-2.893-.433.193-2.227 2.603-.997 2.507-.698.965v-3.327l-.897-2.797h-1.928l-.532.868v12.343l-.166.53.067 1.254 3.656-.434.565-.482v-.964l.166-1.543-.166-2.556c.155-.16.277-.353.365-.578l.333-.675c.133-.225.277-.466.432-.723a4.97 4.97 0 01.631-.82l1.529-1.687c.244-.258.488-.53.732-.82.266-.29.543-.61.831-.964zM158.9 35.429c-.044-.29-.144-.515-.299-.675-.155-.161-.233-.386-.233-.675a7.538 7.538 0 01-.465-.242 1 1 0 00-.299-.192 6.36 6.36 0 01-.233-.241 1.101 1.101 0 00-.332-.29c-.044 0-.177-.08-.399-.24-.199-.194-.332-.306-.399-.338l-.465-.338c-.288-.193-.499-.37-.632-.53a1.142 1.142 0 01-.199-.434l-.598-.82c-.089 0-.178-.064-.266-.193-.067-.16-.1-.482-.1-.964 0-.45.033-.787.1-1.012.088-.225.343-.499.764-.82h.067a.583.583 0 00.266-.096c.11-.065.21-.193.299-.386 0-.064.033-.129.099-.193.067-.064.333-.193.798-.386.111 0 .2-.016.266-.048.067-.064.155-.145.266-.241h.665c.066-.032.144-.064.232-.096-.022 0-.033-.017-.033-.049.022 0 .033-.016.033-.048s.011-.048.034-.048a.724.724 0 00-.034-.241v-.483c0-.481-.088-.755-.265-.819a1.328 1.328 0 01-.399-.386 9.442 9.442 0 01-.698.145H155.444a.403.403 0 01-.1-.096c-.288.16-.543.273-.765.337-.221.032-.465.129-.731.29l-1.263.77a7.357 7.357 0 01-.964.724c-.332.225-.609.53-.831.916-.111.29-.288.563-.532.82 0 .289-.055.514-.166.675-.088.16-.133.353-.133.578 0 .065.011.113.033.145.023.032.034.128.034.29 0 .128-.011.272-.034.433-.022.16-.055.273-.099.338 0 .289.055.61.166.964.133.321.255.514.366.578l.299.386c.221.129.41.273.565.434.155.16.299.338.432.53l.399.483c.155.128.343.209.565.24.31.161.498.306.565.435.088.096.133.193.133.289.022.064.055.145.099.241.045.064.211.193.499.386 0 .128.078.305.233.53l.266.386c.066.257.099.498.099.723 0 .29-.077.53-.232.723-.133.16-.299.306-.499.434-.177.097-.343.16-.498.193-.156.032-.233.032-.233 0-.51.225-.875.386-1.097.482a1.362 1.362 0 01-.598.145c-.155 0-.466-.048-.931-.145-.044.097-.122.145-.233.145-.11 0-.254-.048-.432-.145-.155-.096-.221-.128-.199-.096.133.45.188.868.166 1.253-.022.354.022.53.133.53h.033a.624.624 0 00-.066.145.751.751 0 00-.034.241h.034a7.658 7.658 0 00-.067.049c0 .064.089.176.266.337.2.129.31.193.333.193a8.94 8.94 0 001.263-.29 4.766 4.766 0 011.396-.192c.31 0 .598.048.864.144.266.097.543.145.831.145.421 0 .753-.064.997-.193.266-.128.476-.257.631-.386.156-.16.3-.289.433-.385a.646.646 0 01.465-.193l.698-.482c.244-.193.465-.466.665-.82.221-.386.332-.803.332-1.253 0-.29-.022-.595-.066-.916a15.753 15.753 0 01-.034-1.11z"/></g><defs><filter id="filter0_i" x="43" y="20" width="116" height="28" filterUnits="userSpaceOnUse" color-interpolation-filters="sRGB"><feFlood flood-opacity="0" result="BackgroundImageFix"/><feBlend in="SourceGraphic" in2="BackgroundImageFix" result="shape"/><feColorMatrix in="SourceAlpha" values="0 0 0 0 0 0 0 0 0 0 0 0 0 0 0 0 0 0 127 0" result="hardAlpha"/><feOffset dy="1"/><feGaussianBlur stdDeviation=".5"/><feComposite in2="hardAlpha" operator="arithmetic" k2="-1" k3="1"/><feColorMatrix values="0 0 0 0 0 0 0 0 0 0 0 0 0 0 0 0 0 0 0.3 0"/><feBlend in2="shape" result="effect1_innerShadow"/></filter></defs></svg>