<svg width="1440" height="4252" fill="none" xmlns="http://www.w3.org/2000/svg"><g clip-path="url(#clip0)"><path d="M1180 602H-5v84h1185v-84z" fill="#785340"/><path d="M1180 590H-5v86h1185v-86z" fill="url(#paint0_radial)"/><path d="M9.334 634c17.238 1.821 51.503 7.134 55.096 10.017C77.479 654.49 5.183 656-4 656" stroke="#CC9477"/><path d="M208.274 674.231l-.362.345.689.725.363-.345-.69-.725zm177.733-12.294l-.116-.486.116.486zm95.099-2.343l-.043-.498.043.498zm87.708 2.343l-.09-.491.09.491zm76.375-2.343l-.093-.491.093.491zM13.164 676.473c5.42-1.875 15.613-5.389 25.386-8.433 4.886-1.522 9.663-2.926 13.682-3.948 4.038-1.027 7.256-1.655 9.057-1.655v-1c-1.945 0-5.28.662-9.304 1.686-4.043 1.028-8.839 2.438-13.733 3.962-9.789 3.05-19.995 6.567-25.416 8.442l.328.946zm48.125-14.036c2.264 0 6.296.859 11.234 2.181 4.917 1.315 10.668 3.07 16.335 4.828 5.662 1.757 11.243 3.517 15.807 4.837 2.282.66 4.317 1.212 5.985 1.6 1.654.384 2.991.617 3.855.617v-1c-.737 0-1.972-.206-3.629-.591-1.642-.382-3.657-.928-5.933-1.587-4.552-1.316-10.119-3.072-15.79-4.831-5.665-1.757-11.433-3.518-16.371-4.839-4.916-1.316-9.076-2.215-11.493-2.215v1zm147.675 12.519c-.043.041-.063.038.011.008a2.73 2.73 0 01.268-.086c.243-.067.589-.144 1.035-.229a80.223 80.223 0 013.728-.584c3.155-.438 7.565-.963 12.823-1.545 10.513-1.164 24.4-2.556 38.381-3.933 13.981-1.376 28.056-2.739 38.944-3.845 5.444-.553 10.093-1.042 13.536-1.437 1.721-.198 3.143-.372 4.214-.519 1.054-.145 1.805-.268 2.154-.368l-.274-.961c-.267.076-.941.191-2.016.338-1.06.146-2.474.319-4.192.516-3.437.395-8.08.883-13.523 1.436-10.886 1.106-24.958 2.468-38.941 3.845-13.981 1.377-27.873 2.769-38.393 3.934-5.26.582-9.681 1.109-12.851 1.548a82.57 82.57 0 00-3.777.593c-.457.087-.833.169-1.115.248a3.522 3.522 0 00-.374.121c-.09.037-.223.096-.328.195l.69.725zm115.094-12.538c.542-.154 1.741-.249 3.523-.282 1.757-.032 4.015-.005 6.628.06 5.226.129 11.84.407 18.641.652 6.796.244 13.774.454 19.712.447 5.919-.007 10.865-.23 13.56-.871l-.231-.973c-2.563.61-7.391.836-13.33.844-5.918.007-12.88-.202-19.675-.447-6.791-.244-13.418-.522-18.652-.652-2.617-.065-4.893-.092-6.671-.06-1.753.033-3.089.124-3.779.321l.274.961zm62.064.006c15.697-3.733 32.638-3.737 49.078-3.092 16.411.643 32.357 1.935 45.949.76l-.086-.996c-13.509 1.168-29.345-.118-45.824-.764-16.451-.644-33.509-.648-49.348 3.119l.231.973zm95.027-2.332c3.641-.315 9.974-.154 17.699.226 7.716.379 16.782.975 25.874 1.524 9.089.548 18.203 1.049 26.002 1.237 7.783.187 14.304.064 18.181-.65l-.181-.983c-3.761.692-10.182.82-17.976.633-7.779-.187-16.877-.687-25.965-1.235-9.085-.548-18.162-1.145-25.885-1.525-7.713-.38-14.115-.545-17.835-.223l.086.996zm87.756 2.337c3.775-.695 9.652-1.046 16.567-1.215 6.906-.168 14.813-.153 22.637-.124 7.819.029 15.556.073 22.106-.037 6.538-.11 11.939-.373 15.068-.968l-.187-.982c-3.031.576-8.346.84-14.897.95-6.538.11-14.262.066-22.087.037-7.821-.029-15.743-.044-22.664.124-6.913.169-12.862.521-16.724 1.232l.181.983zm76.378-2.344c6.208-1.181 14.516-4.366 22.924-7.344 8.449-2.992 17.008-5.779 23.827-6.242l-.068-.998c-6.978.474-15.665 3.313-24.093 6.297-8.468 2.999-16.667 6.142-22.777 7.305l.187.982z" fill="#CC9477"/><path d="M22 591c42.554 6.782 130.41 20.437 141.409 20.799 13.748.452 87.399 0 106.057 0s74.141-12.208 87.398-13.565c13.257-1.356 35.353 0 53.029 0 17.676 0 64.812 8.139 75.123 6.331 10.311-1.809 61.867-.905 76.597-3.618 14.73-2.713 37.807 0 57.447 0s61.867.905 73.16-2.713c9.034-2.893 16.343-3.227 19.78-3.528" stroke="#CC9477"/><path d="M0 602c32.014 1.673 87.081 12.848 119.391 23.687 40.387 13.548 160.347 6.753 169.428 5.519 14.775-2.007 61.072-16.559 82.251-16.559 21.178 0 81.266 7.025 90.624 7.025 9.358 0 74.371-2.509 86.192-3.011 11.82-.501 48.267 0 63.535 1.506 15.268 1.505 47.775-4.015 50.238-3.513 2.462.502 35.401 0 39.341 0" stroke="#CC9477"/><path d="M11 614c27.135 1.256 56.874 10.982 70.605 22.289 17.163 14.134 35.307 22.614 54.922 24.499 19.616 1.884 42.173-9.423 63.26-8.951 21.086.471 101.018-2.827 120.634-5.183 19.615-2.355 65.22-10.365 77.48-10.365 12.26 0 86.798 3.298 101.509 4.712 14.712 1.413 45.115-4.712 58.846-4.712h77.971c5.885 0 23.048-5.653 34.327-5.653H690" stroke="#CC9477"/><path d="M1086 311.036l-3.04-9.367H359.477v11.374l28.598 23.417-31.032 50.849V394h722.877l1.82-6.691-22.51-32.784 26.77-43.489z" fill="#785340"/><path d="M357.84 304.482c-1.355-1.229-.486-3.482 1.343-3.482h722.967c1.49 0 2.46 1.565 1.79 2.895l-24.76 49.509c-.34.686-.26 1.507.2 2.115l23.53 30.578c1.02 1.315.08 3.22-1.58 3.22H357.562c-1.561 0-2.52-1.709-1.707-3.042l31.967-52.417a2 2 0 00-.364-2.523l-29.618-26.853z" fill="#AD795E"/><path d="M380.773 346.496c17.306 1.994 51.707 7.811 55.313 10.968 13.101 11.466-59.48 13.119-68.699 13.119" stroke="#CC9477"/><path d="M579.622 390.155l-.353.354.709.706.353-.355-.709-.705zm115.618-13.011l-.145-.479.145.479zm62.064 0l-.122-.485.122.485zm95.068-2.475l-.046-.498.046.498zm87.679 2.475l.095.49-.095-.49zm-555.457 15.318c5.419-1.98 15.608-5.689 25.378-8.904 4.885-1.607 9.659-3.089 13.676-4.168 4.038-1.085 7.252-1.746 9.047-1.746v-1c-1.947 0-5.285.699-9.307 1.78-4.042 1.086-8.836 2.574-13.729 4.184-9.786 3.22-19.989 6.935-25.408 8.915l.343.939zm48.101-14.818c2.259 0 6.287.905 11.225 2.301 4.914 1.389 10.662 3.242 16.327 5.098 5.661 1.855 11.241 3.714 15.803 5.108 2.282.697 4.316 1.28 5.984 1.689 1.654.406 2.992.653 3.86.653v-1c-.733 0-1.965-.218-3.621-.624-1.642-.403-3.656-.98-5.931-1.675-4.55-1.39-10.114-3.244-15.783-5.101-5.665-1.856-11.431-3.715-16.367-5.11-4.914-1.389-9.076-2.339-11.497-2.339v1zm147.636 13.216c-.042.042-.062.04.01.009.057-.024.144-.054.266-.09.242-.071.587-.151 1.033-.241.89-.179 2.147-.386 3.725-.617 3.154-.462 7.562-1.017 12.818-1.631 10.51-1.23 24.391-2.699 38.368-4.153 13.976-1.453 28.047-2.892 38.931-4.06 5.442-.584 10.09-1.101 13.532-1.518 1.72-.208 3.142-.392 4.213-.548 1.053-.153 1.806-.283 2.157-.389l-.289-.957c-.265.08-.936.201-2.012.357-1.059.154-2.472.336-4.19.545-3.435.416-8.077.932-13.518 1.516-10.882 1.167-24.949 2.606-38.927 4.06-13.977 1.454-27.864 2.923-38.381 4.153-5.258.615-9.678 1.171-12.847 1.635-1.583.232-2.861.442-3.777.626-.457.092-.834.18-1.117.262a3.661 3.661 0 00-.375.13 1.022 1.022 0 00-.329.206l.709.705zm115.053-13.238c.538-.162 1.733-.262 3.515-.297 1.755-.034 4.013-.005 6.625.063 5.224.137 11.835.431 18.634.689 6.793.258 13.77.48 19.707.472 5.916-.008 10.863-.243 13.561-.92l-.244-.97c-2.558.642-7.381.882-13.319.89-5.915.008-12.875-.214-19.667-.472-6.788-.257-13.414-.551-18.646-.688-2.616-.069-4.892-.098-6.67-.063-1.752.034-3.091.13-3.785.339l.289.957zm62.042.007c15.688-3.941 32.62-3.945 49.054-3.265 16.404.679 32.348 2.044 45.937.803l-.091-.996c-13.502 1.233-29.329-.124-45.805-.806-16.445-.681-33.501-.685-49.339 3.294l.244.97zm94.991-2.462c3.638-.333 9.966-.163 17.69.238 7.713.401 16.775 1.03 25.865 1.61 9.086.579 18.197 1.107 25.994 1.306 7.78.197 14.302.068 18.18-.687l-.191-.981c-3.756.73-10.173.866-17.964.668-7.775-.198-16.87-.725-25.955-1.304-9.082-.579-18.156-1.209-25.877-1.61-7.71-.401-14.112-.576-17.833-.236l.091.996zm87.729 2.467c3.772-.733 9.645-1.104 16.558-1.282 6.902-.178 14.807-.162 22.628-.131 7.817.03 15.551.077 22.098-.039 6.54-.116 11.94-.394 15.07-1.023l-.2-.98c-3.03.608-8.34.887-14.89 1.003-6.531.116-14.252.07-22.074.039-7.819-.031-15.738-.047-22.658.131-6.911.178-12.86.549-16.723 1.301l.191.981zm76.354-2.475c6.21-1.248 14.51-4.612 22.92-7.756 8.45-3.159 17-6.101 23.81-6.59l-.07-.997c-6.98.501-15.67 3.5-24.09 6.651-8.47 3.167-16.66 6.484-22.77 7.712l.2.98z" fill="#CC9477"/><path d="M392.942 301c42.592 7.347 130.529 22.139 141.537 22.531 13.761.489 87.478 0 106.153 0 18.675 0 74.208-13.225 87.477-14.694 13.269-1.47 35.384 0 53.076 0 17.693 0 64.871 8.816 75.192 6.857 10.32-1.959 61.922-.98 76.665-3.919 14.744-2.938 37.842 0 57.5 0s61.918.98 73.228-2.938c9.04-3.135 16.36-3.496 19.8-3.823" stroke="#CC9477"/><path d="M371.038 313.043c32.013 1.749 87.077 13.431 119.385 24.763 40.385 14.163 160.34 7.06 169.42 5.77 14.775-2.098 61.07-17.311 82.248-17.311 21.177 0 81.262 7.344 90.62 7.344 9.357 0 74.367-2.623 86.187-3.148 11.82-.524 48.265 0 63.533 1.574 15.267 1.574 47.769-4.197 50.239-3.672 2.46.524 35.4 0 39.34 0" stroke="#CC9477"/><path d="M381.99 325.755c27.162 1.342 56.93 11.726 70.674 23.798 17.181 15.09 35.343 24.144 54.977 26.156 19.635 2.012 42.215-10.06 63.322-9.557 21.108.503 101.119-3.018 120.753-5.533 19.635-2.515 65.286-11.066 77.557-11.066 12.272 0 86.884 3.521 101.61 5.03 14.726 1.509 45.16-5.03 58.904-5.03h78.043c5.9 0 23.08-6.036 34.37-6.036h19.46" stroke="#CC9477"/><g filter="url(#filter0_i)" fill="#56321E"><path d="M641.404 354.125a3.04 3.04 0 00-.288-1.041c-.115-.316-.25-.631-.403-.947a35.555 35.555 0 01-.403-.851 3.024 3.024 0 01-.173-1.041 8.404 8.404 0 01-.979-.663l-.691-.757-1.786-1.609c-.192-.126-.307-.284-.345-.473a33.482 33.482 0 01-2.822-2.177 961.801 961.801 0 00-2.477-2.366l-2.649-2.461c-.154 0-.327-.189-.519-.568-.192-.441-.288-1.356-.288-2.744 0-1.325.096-2.303.288-2.934.231-.694.788-1.483 1.671-2.366h.288c.384 0 .825-.158 1.324-.473.499-.379.883-.694 1.152-.947a16.74 16.74 0 011.498-.852 30.952 30.952 0 011.67-.757l1.094-.852h1.094c.538 0 .941-.315 1.21-.946a16.067 16.067 0 01-.058-1.136c0-.252-.019-.473-.057-.662v-.757-1.325c-.423-.316-.73-.537-.922-.663a14.686 14.686 0 01-.806-.757c-.614.126-1.133.221-1.555.284-.423.063-.941.095-1.555.095h-.634l-.518-.284c-.806.441-1.459.757-1.958.946-.499.189-1.095.442-1.786.757l-2.937 2.461c-.691.568-1.478 1.23-2.361 1.987-.883.758-1.517 1.641-1.901 2.65-.153.316-.326.663-.518 1.041-.154.379-.403.789-.749 1.231 0 .82-.134 1.546-.403 2.177a4.74 4.74 0 00-.346 1.798c0 .189.02.315.058.378.038.064.058.284.058.663 0 .378-.039.789-.116 1.23-.038.379-.096.631-.172.757.076 1.073.211 1.988.403 2.745.23.757.537 1.388.921 1.893l.691.946a4.64 4.64 0 011.325 1.136c.384.442.729.946 1.037 1.514.307.505.633.978.979 1.42.384.379.806.631 1.267.757l3.686 2.745 1.612 1.136c0 .378.058.725.173 1.041.154.252.307.567.461.946.154.315.307.662.461 1.041.153.379.23.789.23 1.23 0 1.136-.192 2.019-.576 2.65-.384.568-.806 1.01-1.267 1.325-.461.253-.883.411-1.267.474a9.865 9.865 0 01-.633.094 50.883 50.883 0 00-2.765 1.136c-.653.315-1.382.473-2.189.473-.384 0-.825-.031-1.324-.094a30.592 30.592 0 00-1.728-.379c-.115.189-.307.284-.576.284-.269 0-.595-.095-.979-.284-.346-.189-.538-.252-.576-.189.077.504.134 1.041.173 1.609.077.568.134 1.104.173 1.609.076.504.134.914.172 1.23.077.378.154.568.231.568h.115c-.077.063-.154.189-.23.378-.039.19-.058.347-.058.474 0 .189.019.283.058.283a.362.362 0 00-.058.19c0 .126.058.284.173.473.115.189.249.347.403.473l.461.379.23.189c.461-.063.845-.126 1.152-.189.345 0 .672-.063.979-.19l1.037-.189a7.027 7.027 0 001.324-.378c.384-.127.73-.253 1.037-.379a1.956 1.956 0 011.037-.095c.844 0 1.593.127 2.246.379.653.315 1.286.473 1.9.473.308 0 .615-.031.922-.094.307-.064.595-.19.864-.379a4.42 4.42 0 00.749-.379c.192-.063.307-.094.345-.094.039 0 .077-.032.115-.095a.625.625 0 00.288-.095c.115-.063.288-.22.519-.473l.921-.757a60.333 60.333 0 011.67-1.42 9.692 9.692 0 001.728-1.608 7.535 7.535 0 001.382-2.177c.384-.884.576-1.956.576-3.218 0-.757-.038-1.577-.115-2.461a38.72 38.72 0 01-.115-3.123zM649.203 371.823l.634 2.177h.921l.634-.852h4.434l1.21-1.514-.231-4.354.288-6.435-.23-1.704a9.069 9.069 0 001.209-.379c.346-.189.73-.504 1.152-.946l6.336-3.502c.384-.189.902-.568 1.555-1.135a13.745 13.745 0 002.015-2.083c.653-.82 1.21-1.703 1.671-2.65.499-1.009.748-2.019.748-3.028 0-1.956-.211-3.912-.633-5.868-.384-1.956-.96-3.723-1.728-5.3-.768-1.64-1.728-2.997-2.88-4.07-1.152-1.072-2.476-1.672-3.974-1.798a8.797 8.797 0 01-1.324-.284c-.384-.126-.595-.473-.634-1.041l-5.241.757h-.864l-.461.663-2.13-.473-.576 4.069-.576 11.831-.634 3.123v17.414l-.691 7.382zm6.854-35.964c.307-.063.595-.095.864-.095.307-.063.595-.094.863-.094.73 0 1.69.284 2.88.851.653.253 1.325.442 2.016.568a6.74 6.74 0 011.958.473c.653.253 1.21.695 1.67 1.325.499.631.864 1.641 1.095 3.029l-2.074 4.638-7.948 2.65h-.864v-2.556l-.46-4.353v-6.436zM675.176 343.052a51.154 51.154 0 00-.231 3.218v2.744c0 1.515.135 2.84.403 3.975l.576 1.231 6.105 2.934h1.382c.154-.064.327-.158.519-.284.192-.127.403-.316.633-.568l4.838-2.65c.269-.19.653-.505 1.152-.947a10.464 10.464 0 001.497-1.514c.5-.631.922-1.325 1.268-2.082a5.645 5.645 0 00.518-2.366c0-3.029-.48-5.773-1.44-8.234-.921-2.461-2.246-4.354-3.974-5.679h-.115c-.154 0-.422.032-.806.095-.384.063-.73.095-1.037.095-.269 0-.518-.063-.749-.19-.192-.126-.288-.315-.288-.568l-4.089 1.042c-.691.315-1.382.757-2.073 1.325a10.381 10.381 0 00-1.901 2.082c-.576.757-1.056 1.672-1.44 2.744-.384 1.01-.633 2.209-.748 3.597zm10.654-4.354c.461.253.96.473 1.498.663a4.916 4.916 0 011.497.852c.461.315.864.757 1.21 1.324.384.568.672 1.42.864 2.556l-1.498 3.596-6.162 2.082h-.807l-1.497-2.176.288-5.679c.23-.189.461-.473.691-.852.23-.378.48-.757.749-1.135.307-.442.633-.789.979-1.042.384-.315.787-.473 1.209-.473.269 0 .595.095.979.284zM720.269 335.102l-.921-1.231h-3.974l-3.341 2.272-1.324.946-1.21.852-1.785-5.3h-4.032l-1.037 2.461v18.928l.807 3.124 1.497-.947h.922l.864.852 2.764-1.136-.345-9.086-.116-.189v-3.785l3.686-.663 1.037-.946h.691l1.325 3.123-.922 10.978.749 1.041h5.99l.576-1.135v-11.357l.23-2.177-2.131-6.625zM745.642 351.286c-.077-.568-.25-1.01-.519-1.325-.269-.316-.403-.757-.403-1.325-.346-.19-.614-.347-.806-.473-.192-.19-.365-.316-.519-.379a11.434 11.434 0 01-.403-.473c-.115-.19-.307-.379-.576-.568-.077 0-.307-.158-.691-.473-.345-.379-.576-.6-.691-.663l-.806-.662c-.499-.379-.864-.726-1.095-1.041-.192-.316-.307-.6-.345-.852l-1.037-1.609c-.153 0-.307-.126-.461-.379-.115-.315-.172-.946-.172-1.893 0-.883.057-1.545.172-1.987.154-.442.596-.978 1.325-1.609h.115c.115 0 .269-.063.461-.189s.365-.379.518-.757c0-.127.058-.253.173-.379.115-.126.576-.379 1.382-.757a.961.961 0 00.461-.095c.115-.126.269-.284.461-.473H743.338c.115-.063.249-.126.403-.189-.038 0-.058-.032-.058-.095.039 0 .058-.031.058-.095 0-.063.019-.094.058-.094 0-.19-.02-.347-.058-.473v-.947c0-.946-.154-1.483-.461-1.609a2.482 2.482 0 01-.691-.757c-.461.126-.864.221-1.209.284H739.652a.762.762 0 01-.173-.189c-.499.315-.941.536-1.325.662-.384.063-.806.253-1.267.568l-2.188 1.514c-.499.505-1.056.978-1.671 1.42-.575.442-1.055 1.041-1.439 1.798a5.005 5.005 0 01-.922 1.609c0 .568-.096 1.01-.288 1.325-.153.316-.23.694-.23 1.136 0 .126.019.221.057.284.039.063.058.252.058.568 0 .252-.019.536-.058.851-.038.316-.096.537-.172.663 0 .568.096 1.199.288 1.893.23.631.441 1.009.633 1.135l.518.758c.384.252.711.536.98.851.268.316.518.663.748 1.041l.691.947c.269.252.596.41.979.473.538.316.864.6.98.852.153.189.23.378.23.568.038.126.096.284.173.473.076.126.364.379.864.757 0 .253.134.6.403 1.041l.461.757c.115.505.172.978.172 1.42 0 .568-.134 1.041-.403 1.42-.23.315-.518.599-.864.851-.307.19-.595.316-.864.379-.268.063-.403.063-.403 0-.883.442-1.516.757-1.9.946-.346.19-.692.284-1.037.284-.269 0-.806-.094-1.613-.284-.077.19-.211.284-.403.284-.192 0-.441-.094-.749-.284-.268-.189-.384-.252-.345-.189.23.883.326 1.704.288 2.461-.039.694.038 1.041.23 1.041h.058a1.253 1.253 0 00-.115.284 1.628 1.628 0 00-.058.473h.058l-.116.095c0 .126.154.347.461.662.346.253.538.379.576.379a14 14 0 002.189-.568c.729-.252 1.535-.379 2.419-.379.537 0 1.036.095 1.497.284.461.19.941.284 1.44.284.729 0 1.305-.126 1.728-.378.46-.253.825-.505 1.094-.758.269-.315.518-.567.749-.757.23-.252.499-.378.806-.378l1.209-.947c.423-.378.807-.915 1.152-1.609a5.36 5.36 0 00.576-2.46c0-.568-.038-1.168-.115-1.798a36.675 36.675 0 01-.057-2.177zM753.523 343.052a51.121 51.121 0 00-.23 3.218v2.744c0 1.515.134 2.84.403 3.975l.576 1.231 6.105 2.934h1.382c.154-.064.327-.158.519-.284.192-.127.403-.316.633-.568l4.838-2.65c.269-.19.653-.505 1.152-.947a10.515 10.515 0 001.497-1.514c.499-.631.922-1.325 1.267-2.082a5.63 5.63 0 00.519-2.366c0-3.029-.48-5.773-1.44-8.234-.922-2.461-2.246-4.354-3.974-5.679h-.115c-.154 0-.423.032-.807.095a6.464 6.464 0 01-1.036.095c-.269 0-.519-.063-.749-.19-.192-.126-.288-.315-.288-.568l-4.089 1.042c-.691.315-1.382.757-2.074 1.325a10.377 10.377 0 00-1.9 2.082c-.576.757-1.056 1.672-1.44 2.744-.384 1.01-.634 2.209-.749 3.597zm10.655-4.354c.461.253.96.473 1.498.663a4.916 4.916 0 011.497.852c.461.315.864.757 1.209 1.324.384.568.672 1.42.864 2.556l-1.497 3.596-6.163 2.082h-.806l-1.497-2.176.288-5.679c.23-.189.46-.473.691-.852.23-.378.48-.757.748-1.135.308-.442.634-.789.98-1.042.384-.315.787-.473 1.209-.473.269 0 .595.095.979.284zM798.387 335.859l-2.189-5.679-.749.379-3.858 5.111-1.728 4.921-1.21 1.893v-6.53l-1.555-5.49h-3.34l-.922 1.704v24.228l-.288 1.042.115 2.46 6.336-.852.979-.946v-1.893l.288-3.028-.288-5.016c.269-.316.48-.695.633-1.136l.576-1.325c.231-.442.48-.915.749-1.42a9.692 9.692 0 011.094-1.609l2.65-3.312c.422-.505.844-1.041 1.267-1.609.461-.568.94-1.199 1.44-1.893zM819.827 351.286c-.077-.568-.249-1.01-.518-1.325-.269-.316-.403-.757-.403-1.325-.346-.19-.615-.347-.807-.473-.192-.19-.364-.316-.518-.379-.115-.126-.25-.284-.403-.473-.115-.19-.307-.379-.576-.568-.077 0-.307-.158-.691-.473-.346-.379-.576-.6-.691-.663l-.807-.662c-.499-.379-.864-.726-1.094-1.041-.192-.316-.307-.6-.345-.852l-1.037-1.609c-.154 0-.307-.126-.461-.379-.115-.315-.173-.946-.173-1.893 0-.883.058-1.545.173-1.987.154-.442.595-.978 1.325-1.609h.115c.115 0 .269-.063.461-.189s.364-.379.518-.757c0-.127.058-.253.173-.379.115-.126.576-.379 1.382-.757a.961.961 0 00.461-.095c.115-.126.269-.284.461-.473h1.151c.116-.063.25-.126.404-.189-.039 0-.058-.032-.058-.095.038 0 .058-.031.058-.095 0-.063.019-.094.057-.094 0-.19-.019-.347-.057-.473v-.947c0-.946-.154-1.483-.461-1.609a2.482 2.482 0 01-.691-.757 14.61 14.61 0 01-1.21.284H813.837a.776.776 0 01-.172-.189c-.499.315-.941.536-1.325.662-.384.063-.806.253-1.267.568l-2.189 1.514c-.499.505-1.055.978-1.67 1.42-.576.442-1.056 1.041-1.44 1.798a5.002 5.002 0 01-.921 1.609c0 .568-.096 1.01-.288 1.325-.154.316-.231.694-.231 1.136 0 .126.02.221.058.284.038.063.058.252.058.568 0 .252-.02.536-.058.851-.038.316-.096.537-.173.663 0 .568.096 1.199.288 1.893.231.631.442 1.009.634 1.135l.518.758c.384.252.71.536.979.851.269.316.519.663.749 1.041l.691.947c.269.252.595.41.979.473.538.316.864.6.979.852.154.189.231.378.231.568.038.126.096.284.172.473.077.126.365.379.864.757 0 .253.135.6.403 1.041l.461.757c.115.505.173.978.173 1.42 0 .568-.134 1.041-.403 1.42a3.925 3.925 0 01-.864.851c-.307.19-.595.316-.864.379s-.403.063-.403 0c-.883.442-1.517.757-1.901.946-.345.19-.691.284-1.036.284-.269 0-.807-.094-1.613-.284-.077.19-.211.284-.403.284-.192 0-.442-.094-.749-.284-.269-.189-.384-.252-.345-.189.23.883.326 1.704.288 2.461-.039.694.038 1.041.23 1.041h.057a1.353 1.353 0 00-.115.284 1.666 1.666 0 00-.057.473h.057a33.35 33.35 0 01-.115.095c0 .126.154.347.461.662.345.253.537.379.576.379a13.988 13.988 0 002.188-.568c.73-.252 1.536-.379 2.419-.379a3.91 3.91 0 011.498.284c.46.19.94.284 1.44.284.729 0 1.305-.126 1.727-.378.461-.253.826-.505 1.095-.758.268-.315.518-.567.748-.757.231-.252.5-.378.807-.378l1.209-.947c.423-.378.807-.915 1.152-1.609a5.36 5.36 0 00.576-2.46c0-.568-.038-1.168-.115-1.798a35.771 35.771 0 01-.058-2.177z"/></g><path d="M451.577 523.641C591.577 468.855 1066 473.206 1188 566.5c102 78 101.15 3104.71 101.15 3240.14 0 43.99-415.998-270-415.998-270s-371.998 326-399.999 304c-28.001-22-161.576-3262.212-21.576-3316.999z" fill="url(#paint1_linear)"/><path d="M1209 661c54 352 47 2747 47 3099" stroke="#496D70" stroke-width="5" stroke-dasharray="30 30"/><path d="M1184 581c68.77 39.08 56 2531-18 2727s-211.669-637.8-262-646c-86.315-6.21 98.92-2125.581 98.92-2125.581S1115.23 541.92 1184 581z" fill="url(#paint2_linear)"/><path d="M1445 592H260v84h1185v-84z" fill="#785340"/><path d="M1525 579H806.002v85H1525v-85z" fill="url(#paint3_radial)"/><path d="M792.336 626c17.237 1.821 51.503 7.134 55.096 10.017C860.481 646.49 788.185 648 779.002 648" stroke="#CC9477"/><path d="M991.276 666.231l-.362.345.689.725.363-.345-.69-.725zm177.734-12.294l-.12-.486.12.486zm95.1-2.343l-.05-.498.05.498zm87.71 2.343l-.09-.491.09.491zm76.37-2.343l-.09-.491.09.491zm-632.025 16.879c5.421-1.875 15.614-5.389 25.387-8.433 4.886-1.522 9.663-2.926 13.682-3.948 4.038-1.027 7.256-1.655 9.057-1.655v-1c-1.945 0-5.28.662-9.304 1.686-4.043 1.028-8.839 2.438-13.733 3.962-9.789 3.05-19.995 6.567-25.416 8.442l.327.946zm48.126-14.036c2.264 0 6.296.859 11.234 2.181 4.917 1.315 10.667 3.07 16.334 4.828 5.663 1.757 11.244 3.517 15.808 4.837 2.282.66 4.317 1.212 5.985 1.6 1.654.384 2.991.617 3.855.617v-1c-.737 0-1.972-.206-3.629-.591-1.642-.382-3.657-.928-5.933-1.587-4.552-1.316-10.119-3.072-15.789-4.831-5.666-1.757-11.434-3.518-16.372-4.839-4.916-1.316-9.076-2.215-11.493-2.215v1zm147.675 12.519c-.043.041-.063.038.011.008.058-.023.145-.052.267-.086.244-.067.589-.144 1.036-.229a80.223 80.223 0 013.728-.584c3.152-.438 7.562-.963 12.822-1.545 10.51-1.164 24.4-2.556 38.38-3.933 13.98-1.376 28.06-2.739 38.95-3.845 5.44-.553 10.09-1.042 13.53-1.437 1.72-.198 3.15-.372 4.22-.519 1.05-.145 1.8-.268 2.15-.368l-.27-.961c-.27.076-.94.191-2.02.338-1.06.146-2.47.319-4.19.516-3.44.395-8.08.883-13.53 1.436-10.88 1.106-24.95 2.468-38.94 3.845-13.98 1.377-27.87 2.769-38.39 3.934-5.26.582-9.68 1.109-12.85 1.548a82.57 82.57 0 00-3.777.593c-.457.087-.833.169-1.115.248a3.522 3.522 0 00-.374.121c-.09.037-.223.096-.328.195l.69.725zm115.094-12.538c.54-.154 1.74-.249 3.52-.282 1.76-.032 4.02-.005 6.63.06 5.23.129 11.84.407 18.64.652 6.8.244 13.78.454 19.71.447 5.92-.007 10.87-.23 13.56-.871l-.23-.973c-2.56.61-7.39.836-13.33.844-5.92.007-12.88-.202-19.67-.447-6.79-.244-13.42-.522-18.65-.652-2.62-.065-4.9-.092-6.68-.06-1.75.033-3.08.124-3.77.321l.27.961zm62.06.006c15.7-3.733 32.64-3.737 49.08-3.092 16.41.643 32.36 1.935 45.95.76l-.09-.996c-13.5 1.168-29.34-.118-45.82-.764-16.45-.644-33.51-.648-49.35 3.119l.23.973zm95.03-2.332c3.64-.315 9.97-.154 17.7.226 7.72.379 16.78.975 25.87 1.524 9.09.548 18.21 1.049 26.01 1.237 7.78.187 14.3.064 18.18-.65l-.18-.983c-3.77.692-10.19.82-17.98.633-7.78-.187-16.88-.687-25.97-1.235-9.08-.548-18.16-1.145-25.88-1.525-7.71-.38-14.12-.545-17.84-.223l.09.996zm87.76 2.337c3.77-.695 9.65-1.046 16.56-1.215 6.91-.168 14.82-.153 22.64-.124 7.82.029 15.56.073 22.11-.037 6.53-.11 11.94-.373 15.06-.968l-.18-.982c-3.03.576-8.35.84-14.9.95-6.54.11-14.26.066-22.09.037-7.82-.029-15.74-.044-22.66.124-6.91.169-12.86.521-16.72 1.232l.18.983zm76.37-2.344c6.21-1.181 14.52-4.366 22.93-7.344 8.45-2.992 17.01-5.779 23.83-6.242l-.07-.998c-6.98.474-15.67 3.313-24.09 6.297-8.47 2.999-16.67 6.142-22.78 7.305l.18.982z" fill="#CC9477"/><path d="M805.002 583c42.554 6.782 130.41 20.437 141.409 20.799 13.748.452 87.399 0 106.059 0 18.66 0 74.14-12.208 87.4-13.565 13.25-1.356 35.35 0 53.02 0 17.68 0 64.82 8.139 75.13 6.331 10.31-1.809 61.86-.905 76.59-3.618 14.73-2.713 37.81 0 57.45 0s61.87.905 73.16-2.713c9.04-2.893 16.34-3.227 19.78-3.528" stroke="#CC9477"/><path d="M783.002 594c32.014 1.673 87.081 12.848 119.391 23.687 40.387 13.548 160.347 6.753 169.427 5.519 14.78-2.007 61.07-16.559 82.25-16.559s81.27 7.025 90.63 7.025c9.35 0 74.37-2.509 86.19-3.011 11.82-.501 48.26 0 63.53 1.506 15.27 1.505 47.78-4.015 50.24-3.513 2.46.502 35.4 0 39.34 0" stroke="#CC9477"/><path d="M794.002 606c27.134 1.256 56.874 10.982 70.604 22.289 17.164 14.134 35.308 22.614 54.923 24.499 19.616 1.884 42.173-9.423 63.26-8.951 21.081.471 101.021-2.827 120.631-5.183 19.62-2.355 65.22-10.365 77.48-10.365 12.26 0 86.8 3.298 101.51 4.712 14.71 1.413 45.12-4.712 58.85-4.712h77.97c5.88 0 23.05-5.653 34.33-5.653H1473" stroke="#CC9477"/><g filter="url(#filter1_d)"><path d="M239.975 541.082c140-54.787 850.905-88.413 921.605 23.811 109.39 173.652-92 3087.977-92 3223.407 0 44-416.004-270-416.004-270s-371.998 326-399.999 304c-28.001-22-153.602-3226.431-13.602-3281.218z" fill="url(#paint4_linear)"/></g><path d="M255.576 561.641c-122.5 322.002-20 2821.999 14 3209.999M1157.36 604.67c40 359-69.78 2776.97-109.78 3140.97M280.5 3793.5c104.333-73.67 327.1-243.7 357.5-284.5M656 3501c109.333 82.33 348.6 256.2 387 265" stroke="#719598" stroke-width="5" stroke-dasharray="30 30"/><path d="M470 3680c3.667 41.33 11.4 126.4 13 136 1.6 9.6 184.667-137.33 276-212M1240 3762l-87-51-73-57" stroke="#496D70" stroke-width="5" stroke-dasharray="30 30"/><path d="M288.428 622.186l-2.681 4.418 5.551-3.353 70.172-67.546c10.015-10.626 8.286-10.034 6.95-17.784-4.542-10.883-17.804-7.629-22.994-6.183l-82.612 28.544 1.178 3.831 79.511-27.441c13.802-4.244 18.978-3.851 21.866 3.01 2.789 6.63-1.406 8.066-5.934 12.809-17.537 18.366-50.794 50.304-71.007 69.695z" fill="url(#paint5_linear)"/><path d="M246.043 592.625c-3.455-.291-8.859-5.581-9.591-16.308-.732-10.728 20.783-15.868 29.854-18.657l1.859 6.048c-.553.158-1.164.337-1.821.535l-3.704 12.297-2.93.901-8.392-7.917c-3.835 1.618-6.861 3.249-7.469 4.519-1.862 3.882.437 8.892 4.382 11.29 4.123.989 11.303-1.79 18.421-5.663 2.949.648 8.67 2.148 8.233 5.894l-23.031 7.08-2.388.433-1.774-.056-1.649-.396z" fill="url(#paint6_linear)"/><path d="M243.894 570.03c2.453-2.536 16.368-6.962 23.019-8.859l-.626-2.034c-2.47.809-8.021 2.584-10.461 3.216-3.049.789-13.937 6.512-15.077 8.644-.333.622-.841 3.351-.141 3.68.413-1.092.833-2.112 3.286-4.647z" fill="#fff" fill-opacity=".12"/><path fill-rule="evenodd" clip-rule="evenodd" d="M356.334 532.21c-5.598 1.721-8.742 7.655-7.02 13.254 1.721 5.598 7.655 8.741 13.253 7.02 5.599-1.721 8.742-7.655 7.021-13.254-1.722-5.598-7.656-8.741-13.254-7.02zm1.08 3.514c-4.263 1.311-5.783 4.37-4.475 8.625 1.308 4.255 4.326 6.067 8.589 4.756 4.264-1.311 5.743-4.505 4.434-8.76-1.308-4.255-4.284-5.932-8.548-4.621z" fill="url(#paint7_linear)"/><path d="M250.115 590.821s23.73-7.104 23.649-7.367c-.081-.262-2.147-2.885-3.132-2.678-.984.207-23.031 7.177-23.031 7.177l2.514 2.868z" fill="#fff" fill-opacity=".12"/><path fill-rule="evenodd" clip-rule="evenodd" d="M289.091 624.225l2.334-2.984c17.523-16.949 46.354-44.848 61.566-60.168.7-.796 1.379-1.545 2.009-2.24 1.187-1.309 2.202-2.429 2.864-3.32l3.471-2.589c-.442 1.48-2.129 3.963-6.611 8.504l-60.833 58.93-4.8 3.867z" fill="#fff" fill-opacity=".18"/><path fill-rule="evenodd" clip-rule="evenodd" d="M356.337 532.994c-5.113 1.572-7.974 7.022-6.39 12.173 1.583 5.151 7.012 8.052 12.125 6.48 5.113-1.572 7.974-7.022 6.391-12.173-1.584-5.15-7.013-8.052-12.126-6.48zm.269 1.119c-4.545 1.397-7.087 6.245-5.678 10.828 1.409 4.582 6.236 7.165 10.78 5.767 4.545-1.397 7.087-6.245 5.679-10.828-1.409-4.582-6.236-7.165-10.781-5.767z" fill="#fff" fill-opacity=".12"/><path fill="#fff" fill-opacity=".1" d="M348.096 533.287l-78.388 27.092-.282-.813 78.389-27.093z"/><path d="M305.951 626c.586-12.693 0-22.139-6.951-21.77L337.78 557c1.171 7.97 14.635 12.423 21.22 13.653L305.951 626z" fill="#508286"/><path d="M717.41 3307.14l.12 26.11c.007 1.59-.042 3.18-.147 4.76.002.4-.052.8-.05 1.19.002.4-.053.8-.107 1.19.001.23-.054.51-.053.8.002.34-.053.62-.108.96-.054.34-.052.74-.107 1.08-.055.28-.053.56-.108.79l-.164 1.02-.165.85c-.054.4-.108.79-.219 1.19-.055.28-.109.62-.164.91-.439 2.21-.99 4.42-1.598 6.58-.111.34-.166.62-.277.9-.221.68-.443 1.36-.664 2.05-.111.28-.222.56-.277.85-.221.68-.443 1.3-.721 1.93-.111.28-.222.51-.333.79-.111.28-.222.62-.389.91-.111.28-.222.51-.333.79-.277.74-.611 1.42-.945 2.1l-.501 1.02a59.836 59.836 0 01-3.563 6.48c-.167.28-.334.57-.502.79-.223.34-.446.69-.669 1.03-.223.34-.502.73-.725 1.08-.223.28-.446.62-.613.9-.167.29-.39.57-.614.86-.334.51-.725.96-1.06 1.47-.223.29-.446.57-.669.91-.223.35-.503.57-.726.91a65.134 65.134 0 01-3.239 3.7c-.503.51-1.006 1.02-1.509 1.54-.28.28-.559.57-.838.85-.615.63-1.286 1.2-1.901 1.82-.28.23-.559.51-.839.74-.279.29-.615.51-.951.8-.335.28-.615.51-.95.8l-.672.51a1.22 1.22 0 00-.279.23c-.336.23-.672.51-.951.74-.336.23-.672.51-1.008.74-.335.23-.615.45-.951.68-.392.29-.727.52-1.119.74-.616.46-1.288.86-1.959 1.32-1.4.91-2.912 1.77-4.424 2.57l-1.008.51c-10.474 5.54-21.97 8.37-33.48 8.42-.505.01-1.01.01-1.515.01-.337 0-.674 0-1.067-.05h-.674c-.786-.05-1.516-.05-2.246-.1-.281 0-.506-.06-.787-.05-.28 0-.505-.06-.786-.06a4.06 4.06 0 01-.843-.11c-.393-.05-.73-.05-1.123-.1-.505-.06-1.011-.11-1.517-.22-.449-.06-.899-.11-1.348-.22-.45-.06-.899-.17-1.293-.23-.281-.05-.505-.11-.786-.16-.338-.06-.731-.17-1.068-.22-.506-.11-.956-.23-1.405-.34-.394-.11-.787-.16-1.181-.27-1.124-.28-2.248-.62-3.372-.9a9.06 9.06 0 01-1.181-.39c-.562-.16-1.068-.33-1.631-.5-.393-.11-.787-.28-1.181-.45-1.574-.56-3.149-1.17-4.725-1.9-.225-.11-.506-.22-.787-.34-.675-.28-1.294-.61-1.97-.95-.394-.23-.787-.39-1.181-.62-.338-.17-.676-.34-1.013-.5-23.694-12.53-38.518-37.27-38.643-64.51l-.12-26.11c-.007-1.59.042-3.12.147-4.71.054-.39.053-.79.107-1.24.054-.46.052-.91.106-1.36.054-.4.052-.8.107-1.14.054-.34.053-.68.107-1.02.055-.28.054-.51.109-.79l.164-1.02c.054-.4.109-.74.163-1.13v-.06c.109-.57.163-1.13.273-1.7.054-.34.109-.68.22-1.02.109-.51.219-1.02.33-1.48.055-.11.054-.28.11-.39.055-.34.165-.68.22-1.02.055-.23.11-.46.165-.68.055-.34.166-.68.276-1.02.056-.12.055-.23.111-.35.11-.51.276-.96.442-1.47.055-.28.167-.51.221-.79 0-.06 0-.12.056-.17l.055-.12c.166-.56.388-1.19.554-1.76.111-.28.166-.51.277-.79v-.06c.443-1.3.942-2.55 1.442-3.8 0-.06.056-.06.055-.11.111-.29.278-.63.389-.91.112-.23.167-.4.278-.62.222-.52.501-1.08.723-1.59.111-.29.278-.57.389-.86.111-.28.278-.56.389-.85 0-.05.056-.05.056-.11.278-.51.556-1.02.779-1.53.167-.29.334-.63.501-.91.055-.12.111-.17.167-.29.167-.28.334-.56.501-.85.223-.34.39-.68.613-1.02.167-.28.335-.51.502-.8l-.001-.05c.223-.34.446-.74.669-1.08.168-.23.335-.51.446-.74.056-.11.167-.23.223-.34.056-.11.167-.23.223-.34.112-.12.167-.23.279-.4.056-.11.167-.23.279-.34.502-.74 1.004-1.42 1.506-2.1.224-.29.447-.63.726-.91.112-.17.223-.29.335-.46.279-.34.558-.68.781-1.02 5.863-7.11 13.077-13.15 21.422-17.66l1.008-.51a72.27 72.27 0 0167.035-.31c.338.17.675.34 1.013.5.225.12.394.23.619.34.675.34 1.295.73 1.97 1.07.338.17.62.39.957.56.338.17.62.39.957.56.62.4 1.239.79 1.858 1.18.282.23.62.4.901.62.282.23.62.4.902.62.281.23.619.45.901.68.282.22.564.45.901.67.282.23.564.45.846.68.789.62 1.521 1.24 2.254 1.86.62.56 1.24 1.07 1.86 1.63.282.23.508.51.79.73.225.23.451.46.676.68.452.45.903.85 1.298 1.3.056.05.113.11.169.17.056.05.113.11.169.17.226.28.508.5.734.79.282.33.564.62.902.95.226.23.395.46.621.68.452.51.959 1.07 1.411 1.64.17.22.395.45.565.67.96 1.19 1.863 2.38 2.711 3.62.396.56.848 1.18 1.243 1.75.396.62.792 1.18 1.188 1.8.169.29.396.63.565.91.17.28.34.56.51.85 0 .05.056.11.056.17l.51.84c.169.29.339.62.509.91 0 .05.057.05.057.11.339.62.679 1.24.963 1.86.34.63.679 1.3.963 1.93.17.34.284.67.454 1.01.17.34.284.68.454 1.02.113.23.17.45.284.68 0 .06.056.11.056.17.001.06.057.11.057.17.17.34.284.68.398 1.02.114.34.284.67.398 1.01.114.34.284.68.397 1.02l.342 1.02c.171.51.341 1.02.513 1.58.057.23.17.51.227.74.058.28.172.56.229.79.057.23.17.51.228.74.114.45.285.9.399 1.35.114.34.172.74.286 1.08.113.34.171.73.285 1.07.058.34.172.74.23 1.08.172.73.287 1.41.459 2.15.058.45.172.85.23 1.3.057.23.059.45.115.62.001.06.057.17.058.29.058.34.116.73.173 1.07.057.23.058.45.116.68.057.28.059.62.116.91.001.22.058.45.059.62l.001.11c.174 1.36.293 2.72.355 4.08.002.28.059.57.06.85.002.28.003.57.06.79.002.45.004.85.062 1.3.283.51.285.97.287 1.36z" fill="#ED6D81"/><path d="M725.354 3298.21c-.176-1.7-.409-3.4-.697-5.04-1.153-6.62-3.091-12.95-5.701-19-3.518-7.97-8.268-15.37-14.08-21.8a46.962 46.962 0 00-2.878-2.99 79.095 79.095 0 00-5.074-4.68l-1.953 2.62-3.125 4.14c-.733-.62-1.522-1.23-2.254-1.85.789.62 1.521 1.23 2.254 1.85.62.57 1.24 1.08 1.86 1.64.282.22.508.51.79.73.225.23.451.45.676.68.452.45.903.84 1.298 1.29.056.06.113.12.169.17.056.06.113.12.169.17.226.29.508.51.734.79.282.34.564.62.902.96.17.23.395.45.565.68.451.51.959 1.07 1.411 1.64.169.22.395.45.565.67a57.217 57.217 0 012.711 3.61c.396.57.848 1.19 1.243 1.76.396.62.792 1.18 1.188 1.8.169.28.395.62.565.91l.509.84c.001.06.057.12.057.17.17.29.34.57.509.85.17.28.34.62.51.9 0 .06.056.06.057.12.339.62.679 1.24.963 1.86.339.62.679 1.3.963 1.92.17.34.284.68.454 1.02.17.34.284.68.454 1.02.113.22.17.45.283.68.001.05.057.11.057.17.001.05.057.11.057.17.17.34.284.67.398 1.01.114.34.284.68.398 1.02.113.34.283.68.397 1.02l.342 1.02c.171.51.341 1.02.512 1.58.058.23.171.51.228.74.058.28.171.56.229.79.057.22.17.51.227.73.115.46.285.91.4 1.36.114.34.172.74.285 1.08.114.34.172.73.286 1.07.058.34.172.74.23 1.08.171.73.287 1.41.459 2.15.058.45.172.85.23 1.3.057.22.058.45.115.62 0 .06.001.17.058.28.057.34.115.74.173 1.08.057.23.058.45.115.68.058.28.059.62.117.9.001.23.058.46.059.63v.11c.175 1.36.294 2.72.356 4.08.001.28.059.56.06.85.001.28.003.56.06.79.002.45.004.85.062 1.3l.006 1.3.011 2.44 8.419-.55-.009-1.92c.042-3.12-.084-6.06-.434-9.01z" fill="#CC3A51"/><path d="M696.928 3244.65l-1.953 2.62-3.125 4.15c-.733-.62-1.522-1.24-2.255-1.86-.281-.23-.563-.45-.845-.68-.282-.22-.563-.45-.901-.67-.282-.23-.564-.45-.902-.68-.281-.22-.619-.39-.901-.62-.282-.22-.619-.39-.901-.62-.619-.39-1.239-.78-1.858-1.18-.338-.17-.62-.39-.957-.56-.338-.17-.62-.39-.957-.56-.62-.4-1.295-.73-1.97-1.07-.169-.11-.394-.22-.619-.34-.338-.16-.676-.33-1.013-.5a72.27 72.27 0 00-67.035.31l-1.008.51c-8.345 4.51-15.56 10.55-21.422 17.66-.279.34-.559.68-.782 1.02-.111.17-.223.29-.334.46-.224.28-.503.62-.726.91-.502.68-1.06 1.42-1.506 2.1-.112.11-.168.23-.279.34-.112.11-.168.23-.279.4-.056.11-.168.22-.223.34-.056.11-.168.23-.223.34-.168.23-.335.45-.446.74-.223.34-.446.68-.669 1.08v.05c-.167.29-.334.51-.501.8-.223.34-.446.68-.613 1.02-.167.29-.334.57-.502.85-.055.12-.111.17-.167.29-.167.28-.334.62-.501.91-.278.51-.557 1.02-.779 1.53.001.06-.056.06-.055.11-.168.29-.278.57-.389.85-.168.29-.279.57-.39.86-.278.51-.5 1.07-.722 1.58-.111.23-.167.4-.278.63-.111.34-.278.62-.389.91 0 .05 0 .05-.055.11-.5 1.25-1 2.5-1.443 3.8v.06c-.11.28-.166.51-.277.79-.222.57-.387 1.14-.553 1.76l-.056.11c.001.06.001.12-.055.18-.055.28-.166.51-.221.79-.166.51-.276.96-.442 1.47-.056.12-.055.23-.111.34-.111.34-.165.68-.276 1.02l-.165.69c-.111.34-.166.68-.22 1.02-.056.11-.055.28-.111.39-.11.51-.22 1.02-.33 1.48-.054.34-.165.68-.22 1.02-.109.56-.219 1.13-.273 1.7l.001.05c-.055.4-.109.74-.164 1.14l-.163 1.02c-.055.28-.054.51-.109.79-.055.34-.053.68-.108 1.02-.054.4-.108.8-.107 1.14-.054.45-.052.9-.106 1.36-.054.39-.052.79-.106 1.24a66.046 66.046 0 00-.147 4.7l.12 26.12c.125 27.24 14.948 51.98 38.642 64.5l1.013.51c.394.22.788.39 1.182.62.619.33 1.294.61 1.97.95.281.11.506.22.787.34 1.575.67 3.15 1.34 4.725 1.9.394.17.787.28 1.181.45.506.17 1.068.33 1.631.5l4.256 9.95-1.517-.33a79.663 79.663 0 01-17.941-6.72c-.338-.17-.732-.39-1.07-.56-26.508-13.98-43.028-41.6-43.168-72.02l-.12-26.11c-.011-2.38.091-4.7.248-7.08.055-.4.053-.8.107-1.19.803-8.45 2.844-16.55 6.065-24.16 3.11-7.43 7.289-14.31 12.37-20.5 6.477-7.85 14.475-14.46 23.716-19.43.336-.17.728-.4 1.064-.57 11.706-6.17 24.492-9.34 37.349-9.4 12.856-.06 25.727 2.94 37.433 9.06.338.17.732.39 1.07.56.619.34 1.238.67 1.801 1.01 4.334 2.3 8.445 5.17 12.278 8.38z" fill="#CC3A51"/><path d="M725.835 3309.03l.111 24.24c.121 26.28-12.063 50.58-32.373 65.91-2.014 1.54-4.141 2.97-6.325 4.34a88.751 88.751 0 01-3.808 2.17c-.336.17-.728.4-1.064.57-17.138 9.08-36.777 11.61-55.324 7.45l-4.256-9.95c.393.11.787.22 1.181.39 1.124.33 2.248.61 3.373.89.393.11.786.17 1.18.28.449.11.955.22 1.405.33.337.06.731.17 1.068.22l.786.17c.45.05.843.16 1.293.22.449.05.899.16 1.348.22.506.05 1.012.16 1.517.22.393.05.731.11 1.124.11.281.05.561.05.842.11.281.05.506.05.786.05.281 0 .506.05.787.05.786.06 1.516.11 2.246.11.225-.01.449-.01.674-.01.337 0 .673 0 1.067.05h1.516a72.287 72.287 0 0033.479-8.43l1.008-.51c1.512-.8 2.968-1.66 4.424-2.57.672-.4 1.287-.86 1.959-1.31.392-.23.727-.51 1.119-.74.336-.23.616-.46.952-.69.335-.23.671-.51 1.007-.74.336-.23.671-.51.951-.74.112-.06.224-.17.279-.23l.672-.51c.336-.23.615-.51.951-.8.335-.28.615-.51.95-.79.28-.23.56-.46.839-.74.671-.57 1.286-1.2 1.901-1.83.279-.28.559-.57.838-.85.503-.51 1.006-1.02 1.509-1.54a64.955 64.955 0 003.239-3.69c.223-.29.503-.57.726-.91.223-.34.446-.57.669-.91.335-.46.726-.97 1.06-1.48.224-.28.391-.57.614-.85.223-.29.446-.63.613-.91.28-.34.502-.74.725-1.08l.669-1.02c.168-.29.335-.57.502-.8 1.282-2.1 2.451-4.26 3.564-6.47l.5-1.02c.334-.69.611-1.42.945-2.1.111-.29.222-.51.333-.8.111-.28.278-.62.389-.91.111-.28.222-.51.333-.79.222-.63.5-1.31.721-1.93.111-.28.222-.57.277-.85l.664-2.04c.111-.29.166-.63.277-.91a86.857 86.857 0 001.598-6.58c.055-.28.109-.62.164-.91.055-.39.165-.79.219-1.19.055-.28.11-.56.165-.85l.164-1.02c.054-.28.053-.51.108-.79.055-.34.109-.74.108-1.08.054-.34.053-.62.107-.96-.001-.28.054-.51.053-.79.054-.4.052-.8.107-1.19.054-.4.052-.8.051-1.19.105-1.59.153-3.18.146-4.76l-.109-23.68 8.307-.66z" fill="#CC3A51"/><path d="M627.447 3404.98c-1.124-.28-2.248-.61-3.373-.89-.393-.11-.787-.22-1.18-.39l-24.746-58.06 7.116-3.09 47.011-20.44 7.117-3.09 30.76 72.02a1.22 1.22 0 00-.279.23c-.336.23-.672.51-.951.74-.336.23-.672.51-1.008.74-.335.23-.615.46-.951.69-.392.28-.727.51-1.119.74-.616.45-1.288.85-1.959 1.31-1.4.91-2.912 1.77-4.424 2.57l-1.008.51c-10.474 5.54-21.97 8.37-33.48 8.43h-1.515c-.337 0-.674.01-1.067-.05h-.674c-.786-.05-1.516-.05-2.246-.1-.281 0-.506-.05-.787-.05-.28 0-.505-.06-.786-.05-.281 0-.562-.06-.843-.11-.393-.06-.73-.06-1.123-.11-.506-.06-1.011-.11-1.517-.22-.449-.06-.899-.11-1.348-.22-.45-.06-.899-.17-1.293-.22l-.786-.17c-.338-.05-.731-.17-1.068-.22a53.23 53.23 0 01-1.405-.33c-.281 0-.674-.06-1.068-.17z" fill="#FFBC96"/><path d="M633.733 3343.9c16.916-7.34 28.423-18.47 25.701-24.85-2.722-6.38-18.642-5.59-35.559 1.75-16.917 7.35-28.424 18.48-25.702 24.86 2.722 6.37 18.643 5.59 35.56-1.76z" fill="#FFBC96"/><path d="M631.662 3339c13.499-5.86 22.683-14.73 20.512-19.82-2.17-5.08-14.873-4.45-28.372 1.41s-22.683 14.73-20.513 19.82c2.171 5.09 14.873 4.46 28.373-1.41z" fill="#448078"/><path d="M642.956 3297.56l-48.936 21.25 9.236 21.65 48.936-21.26-9.236-21.64z" fill="#448078"/><path d="M622.396 3317.37c13.499-5.87 22.683-14.74 20.513-19.83-2.171-5.08-14.873-4.46-28.373 1.41-13.499 5.86-22.683 14.74-20.512 19.82 2.17 5.09 14.873 4.46 28.372-1.4z" fill="#448078"/><path d="M646.823 3313.36c1.304 2.65 1.036 5.48-.588 6.34-1.624.86-4.046-.66-5.349-3.32-1.304-2.65-1.036-5.48.588-6.34 1.681-.86 4.046.66 5.349 3.32z" fill="#438915"/><path d="M645.943 3313.82c.907 1.8.748 3.79-.429 4.36-1.12.57-2.809-.44-3.716-2.31-.907-1.86-.747-3.79.429-4.36 1.177-.51 2.81.5 3.716 2.31z" fill="#276B00"/><path d="M745.172 3307.7l-9.205.61-10.103.67-8.419.55-67.408 4.61-2.75.18-1.067.06-1.571.12 1.004-1.3.67-.91 1.897-2.56 43.637-58.37 3.125-4.15 1.953-2.61 3.627-4.89a71.08 71.08 0 016.25 3.88c1.295.84 2.478 1.74 3.717 2.64a87.206 87.206 0 0120.086 21.38 88.368 88.368 0 0110.428 21.36c2.049 6.05 3.37 12.33 4.129 18.73z" fill="#EFEFEF"/><path d="M628.027 3304.04c-.444 1.13-1.731 1.93-4.258 1.83h-.449l.001.23c.119 1.59.28 12.12-12.602 6.69l-1.687-.51-10.737-3.01-26.365-7.35c.054-.45.052-.91.106-1.36.054-.4.052-.79.107-1.13.054-.34.053-.68.107-1.02.055-.29.054-.51.109-.8l.164-1.02c.054-.4.109-.74.163-1.13v-.06c.109-.57.163-1.13.273-1.7.054-.34.109-.68.22-1.02.109-.51.219-1.02.33-1.47.055-.12.054-.29.11-.4.055-.34.165-.68.22-1.02l.165-.68c.055-.34.166-.68.276-1.02.056-.12.055-.23.111-.34.11-.51.276-.97.442-1.48.055-.28.167-.51.221-.79 0-.06 0-.11.056-.17l.055-.11c.166-.57.388-1.2.554-1.76.111-.29.166-.51.277-.8v-.05c.443-1.31.942-2.56 1.442-3.81 0-.05.056-.05.055-.11.111-.28.278-.62.389-.91.112-.22.167-.39.278-.62.222-.51.5-1.08.723-1.59.111-.28.278-.57.389-.85.111-.29.278-.57.389-.85 0-.06.056-.06.056-.12.278-.51.556-1.02.779-1.53.167-.28.333-.62.501-.91.055-.11.111-.17.167-.28.167-.29.334-.57.501-.85.223-.34.39-.69.613-1.03.167-.28.335-.51.502-.79l-.001-.06c.223-.34.446-.74.669-1.08.168-.22.335-.51.446-.74.056-.11.167-.22.223-.34.056-.11.167-.22.223-.34.112-.11.167-.22.279-.4.055-.11.167-.22.279-.34.502-.74 1.004-1.42 1.506-2.1 6.149 6.26 22.504 22.33 28.792 22.18 7.41-.2 14.178 6.45 10.657 9.98-.168.17-.391.4-.671.57.112.06 4.011 5.42 2.845 8.37z" fill="#826957"/><path d="M650.455 3310.51l61.368-72.84 2.938 4.12-64.306 68.72zM652.254 3311.35l84.953-47.35 10.269 23.41-95.222 23.94zM653.439 3285.97c-.45-.22-.9-.39-1.406-.62.557-.85 1.059-1.64 1.617-2.49.501-.8-.737-1.53-1.295-.74-.669 1.08-1.338 2.16-2.007 3.19-.223.28-.108.85.286 1.01.675.34 1.406.62 2.081.96.844.39 1.624-.92.724-1.31zM656.88 3277.52c-1.27 4.53-2.484 9.13-3.755 13.66-.276.91 1.185 1.3 1.406.39 1.27-4.53 2.484-9.13 3.755-13.66.276-.91-1.129-1.3-1.406-.39zM662.409 3283.55c-.679-1.18-1.806-2.03-3.155-2.31-.899-.22-1.285 1.26-.386 1.42a3.48 3.48 0 011.914 1.13c-.559.51-1.119.97-1.678 1.48-.727.62.345 1.64 1.072 1.07.727-.63 1.398-1.25 2.125-1.88a.779.779 0 00.108-.91zM681.24 3317.01c-.672.28-1.288.57-1.961.85-.336.12-.446.69-.276.91.452.62.735 1.24.907 1.98.229.85 1.518.5 1.346-.35-.171-.56-.342-1.13-.625-1.64.448-.17.84-.34 1.289-.57.784-.34.105-1.53-.68-1.18zM686.578 3319.29c-.34-.68-1.017-1.41-1.748-1.52.166-.51.389-1.02.555-1.53.333-.85-1.016-1.19-1.293-.39-.499 1.36-.999 2.66-1.442 4.03-.333.79-.61 1.64-.83 2.49-.111.4.115.68.34.79.057.23.17.4.451.46 2.588 1 5.214-1.67 3.967-4.33zm-3.355 3.13c.277-.9.609-1.87.942-2.78.056-.05.112-.17.168-.22.503-.46.842.05 1.068.44.737 1.53-.716 2.84-2.178 2.56zM691.912 3321.02c.108-.85-1.185-1.24-1.293-.39-.109.79-1.048 4.14-2.173 3.69-.619-.22-.119-1.47.047-1.98.221-.79.386-1.53.607-2.33.221-.85-1.072-1.24-1.293-.39-.331 1.31-.83 2.67-.992 3.97-.109.91.233 1.99 1.189 2.26 2.193.73 3.634-3.3 3.908-4.83zM696.365 3322.65c.055-.28-.003-.57-.229-.79-1.07-.85-2.472-.44-3.422.47-.838.85-2.01 2.44-1.611 3.69.285 1.02 1.354 1.46 2.307 1.29-.556 1.19-2.061 3.58-3.303 1.88-.509-.73-1.685-.05-1.176.69 1.13 1.64 3.207 1.46 4.492.09.726-.74 1.114-1.76 1.503-2.72.499-1.37 1.054-2.67 1.554-4.03.055-.17-.002-.4-.115-.57zm-3.804 3.02c-.34-.62.275-1.25.609-1.76.447-.62 1.173-1.36 1.961-1.03-.445 1.02-1.721 4.32-2.57 2.79zM701.076 3321.44c-1.955 2.05-3.911 4.09-5.867 6.14-.614.63.345 1.64.959 1.02l5.867-6.15c.615-.62-.344-1.64-.959-1.01zM702.776 3327.32l-.346-1.98c-.172-.85-1.462-.5-1.346.35.058.4.173.85.231 1.24.057.23.171.63.229.97a3.74 3.74 0 01-.843-.11c-.449 0-.898-.06-1.404-.11-.899-.05-.892 1.31.006 1.36.674.05 1.348.11 2.022.1.449 0 1.011.11 1.346-.29.391-.39.22-1.02.105-1.53zM667.931 3261.77c-1.017-1.47-2.191-.21-2.747.92-.667 1.36-.885 2.84-.71 4.31.001.11.057.23.058.4.058.45.172.85.287 1.3.114.34.339.45.619.45 1.296.96 2.753.21 3.251-1.26.721-1.88.26-4.59-.758-6.12zm-1.543 6.3c-.113-.06-.225-.11-.282-.17-.057-.23-.114-.45-.171-.74-.116-.68-.175-1.41-.122-2.09.052-.8.273-1.59.776-2.1.391-.46.28-.29.563.28.057.11.113.28.17.39.114.29.171.51.228.8.058.22.115.45.115.62.058.4.116.79.062 1.13-.054.46-.437 2.61-1.339 1.88z" fill="#fff"/><path d="M667.557 3263.47c-1.287.97-2.292 2.11-3.128 3.47-.502.8.793 1.53 1.238.73a10.252 10.252 0 012.625-2.96c.784-.57.048-1.81-.735-1.24zM652.721 3264.39c-.561.17-1.178.35-1.739.41-.842.11-.891 1.47.007 1.41.28-.06.505-.06.785-.12-.5 1.14-1.279 2.73-1.614 3.13-.168-.06-.281-.06-.449-.11-.619-.11-1.232.68-.669 1.19.395.34.845.45 1.237.39l.956.22c.843.17 1.23-1.08.387-1.3.836-1.31 1.446-2.84 1.945-4.32.166-.51-.342-1.07-.846-.9zM701.437 3335.93c-1.624.92-2.852 2.57-3.63 4.32-.11.35-.221.63-.332.97-.112.06-.224.23-.279.34a.495.495 0 00-.055.28c-.441 1.87 1.586 3 3.267 2.42 1.346-.51 2.686-1.99 3.465-3.58.278-.51.444-1.08.554-1.59 0-.11.055-.23.055-.28.272-1.99-.973-4.08-3.045-2.88zm.64 4.81c-.056.06-.112.18-.168.23-.279.34-.502.68-.837 1.03-.224.28-.503.51-.839.74-.728.51-1.29.28-1.575-.56v-.06c.055-.23.111-.4.166-.57.166-.56.388-1.08.666-1.59.168-.22.279-.51.446-.73.391-.52 2.176-2.9 2.968-1.66.283.51.174 1.19-.104 1.81-.166.51-.5 1.02-.723 1.36z" fill="#fff"/><path d="M706.405 3338.75l-11.838 2.03c-.897.18-.498 1.54.4 1.42l11.837-2.04c.898-.17.498-1.59-.399-1.41zM655.152 3248.18l-.136 7.14c.003.74 1.126.73 1.123-.01l.135-7.13c-.003-.8-1.126-.79-1.122 0zM658.17 3247.72c-.003-.74-1.182-.73-1.123 0l.206 7.99c.003.74 1.182.74 1.122 0l-.205-7.99z" fill="#fff"/><path d="M659.228 3250.54c-1.686-.33-3.371-.55-5.057-.77-.73-.11-.724 1.08.006 1.13 1.629.17 3.202.44 4.775.72.731.16 1.006-.97.276-1.08zM658.808 3253.1c-1.518-.45-3.092-.89-4.61-1.34-.731-.22-1.007.91-.276 1.13 1.518.45 3.092.9 4.61 1.34.731.22 1.007-.91.276-1.13z" fill="#fff"/><path d="M624.154 3232.12c-.236 1.87 0 3.76.837 5.46.671 1.35 2.884.47 2.214-.89-.671-1.35-.914-2.76-.73-4.22.196-1.57-2.08-1.86-2.321-.35zM628.494 3230.71c.016 1.96.562 3.89 1.503 5.6.729 1.31 2.942.43 2.213-.88-.85-1.6-1.274-3.24-1.317-5-.113-1.6-2.468-1.27-2.399.28zM632.554 3230.06c.314 2.11 1.112 4.12 2.319 5.81.89 1.28 2.813-.22 1.864-1.45-.98-1.4-1.624-2.97-1.886-4.65-.127-1.5-2.527-1.22-2.297.29zM636.397 3228.96c.314 2.11 1.125 4.02 2.318 5.82.891 1.28 2.755-.18 1.865-1.46-.98-1.4-1.521-2.96-1.828-4.69-.231-1.52-2.585-1.18-2.355.33zM642.483 3228.05a24.014 24.014 0 002.164 5.37c.67 1.36 2.883.47 2.213-.88a34.756 34.756 0 01-2.164-5.37c-.45-1.44-2.663-.56-2.213.88zM602.899 3240.64a9.446 9.446 0 001.705 5.25c.89 1.29 2.89 0 2.045-1.22a7.574 7.574 0 01-1.377-4.1c-.068-1.55-2.441-1.48-2.373.07zM606.954 3238.51c.339 1.9 1.106 3.74 2.28 5.27.948 1.24 2.949-.04 2.045-1.22-1.083-1.41-1.727-2.98-2.035-4.71-.288-1.47-2.579-.81-2.29.66zM610.319 3237.77c.637 2.05 1.668 3.87 3.211 5.4 1.124 1.1 2.704-.61 1.639-1.76-1.213-1.21-2.032-2.64-2.56-4.3-.45-1.44-2.74-.77-2.29.66zM613.885 3236.11c.637 2.04 1.727 3.82 3.166 5.33 1.065 1.15 2.704-.6 1.639-1.75a11.422 11.422 0 01-2.501-4.35c-.464-1.33-2.754-.67-2.304.77zM618.674 3234.44c.411 1.74.984 3.46 1.731 5.04.58 1.24 2.735.4 2.11-.9-.793-1.63-1.32-3.29-1.731-5.04-.302-1.36-2.411-.47-2.11.9zM584.852 3255.52a9.303 9.303 0 003.109 4.53c1.195.95 2.788-.86 1.594-1.81-1.195-.95-2.053-2.07-2.503-3.5-.451-1.44-2.696-.72-2.2.78zM588.104 3252.32c.883 1.75 2.174 3.19 3.711 4.34 1.253.9 2.846-.91 1.593-1.81-1.446-1.03-2.543-2.34-3.349-3.87-.67-1.36-2.671-.08-1.955 1.34zM591.505 3249.94c1.193 1.79 2.749 3.21 4.623 4.19 1.382.71 2.44-1.43 1.058-2.14-1.532-.78-2.758-1.89-3.726-3.39-.787-1.27-2.787.01-1.955 1.34zM594.468 3247.25c1.251 1.75 2.704 3.15 4.565 4.24 1.324.75 2.382-1.39 1.057-2.15-1.473-.82-2.641-1.98-3.622-3.37-.89-1.28-2.845.06-2 1.28zM598.566 3244.32c.909 1.55 1.934 3.01 3.135 4.33.975 1.02 2.736-.45 1.82-1.52-1.201-1.32-2.285-2.73-3.136-4.32-.741-1.21-2.561.3-1.819 1.51z" fill="#B93348"/><path d="M598.931 3256.16l-2.68 1.63 3.934-.26 56.752-16.9c8.375-2.95 7.276-3.11 8.717-7.67.583-7.15-7.489-9.09-10.696-9.76l-52.589-7.63-.433 2.4 50.607 7.36c8.639 1.56 11.326 3.22 10.971 7.73-.343 4.36-3.01 3.96-6.779 5.26-14.598 5.03-41.474 13-57.804 17.84z" fill="url(#paint8_linear)"/><path d="M584.285 3228.36c-1.785-1.12-3.229-5.48-.631-11.48s15.654-2.78 21.332-1.75l-.683 3.78c-.343-.06-.723-.14-1.133-.22l-5.432 5.61-1.834-.33-2.324-6.62c-2.523-.19-4.613-.15-5.296.36-2.089 1.58-2.245 4.93-.783 7.32 1.951 1.69 6.605 2.19 11.531 2.08 1.412 1.18 4.083 3.58 2.802 5.48l-14.416-2.6-1.411-.43-.942-.52-.78-.68z" fill="url(#paint9_linear)"/><path d="M589.429 3215.56c2.032-.69 10.784.8 14.906 1.63l.229-1.27c-1.56-.25-5.053-.84-6.548-1.18-1.867-.43-9.345-.37-10.556.46-.353.24-1.389 1.58-1.103 1.95.528-.47 1.039-.91 3.072-1.59z" fill="#fff" fill-opacity=".12"/><path fill-rule="evenodd" clip-rule="evenodd" d="M660.718 3226.5a6.452 6.452 0 00-7.49 5.2 6.443 6.443 0 005.2 7.49 6.444 6.444 0 007.49-5.2 6.447 6.447 0 00-5.2-7.49zm-.397 2.2c-2.669-.48-4.343.75-4.824 3.41-.481 2.66.644 4.48 3.313 4.97 2.669.48 4.359-.83 4.839-3.5.481-2.66-.659-4.4-3.328-4.88z" fill="url(#paint10_linear)"/><path d="M586.987 3228.52s14.8 2.79 14.83 2.62c.03-.16-.355-2.16-.944-2.32-.59-.16-14.444-2.55-14.444-2.55l.558 2.25z" fill="#fff" fill-opacity=".12"/><path fill-rule="evenodd" clip-rule="evenodd" d="M598.719 3257.44l2.094-.96c14.194-4.26 37.553-11.29 50.044-15.32.601-.24 1.176-.45 1.711-.65 1.006-.38 1.867-.7 2.473-.99l2.597-.43c-.652.67-2.256 1.54-5.943 2.74l-49.304 14.86-3.672.75z" fill="#fff" fill-opacity=".18"/><path fill-rule="evenodd" clip-rule="evenodd" d="M660.501 3226.93c-3.2-.58-6.267 1.56-6.848 4.79-.582 3.22 1.541 6.3 4.741 6.88 3.201.58 6.267-1.57 6.849-4.79.582-3.23-1.541-6.31-4.742-6.88zm-.166.67c-2.845-.51-5.571 1.4-6.088 4.27-.518 2.87 1.369 5.61 4.214 6.12 2.844.52 5.57-1.39 6.088-4.26.518-2.87-1.369-5.61-4.214-6.13z" fill="#fff" fill-opacity=".12"/><path fill="#fff" fill-opacity=".1" d="M655.968 3224.78l-49.903-7.238.075-.518 49.903 7.238z"/><path fill="#ED6D81" d="M614 3249.47l28.38-12.474 4.828 10.985-28.38 12.475z"/><path d="M1005.6 3374.97l-22.903 102.04c-5.161 13.15-13.928 25.11-25.441 35.36-1.465 1.33-3.047 2.63-4.616 3.88-8.685 6.95-18.688 12.93-29.794 17.8-.82.37-1.64.74-2.447 1.05-.748.32-1.424.6-2.173.92-9.517 3.82-19.768 6.8-30.55 8.86-14.684-10.66-26.939-23.11-36.294-36.44-.978-1.39-1.944-2.83-2.91-4.27l-2.404-3.8c-1.743-2.91-3.356-5.85-4.781-8.8-.796-1.66-1.547-3.24-2.272-4.93-6.154-14.46-9.031-29.29-8.073-43.68l22.898-102.05c2.067.1 4.063.24 6.117.39a480.058 480.058 0 01140 31.42c1.853.78 3.773 1.52 5.643 2.25z" fill="#453F4B"/><path d="M954.841 3521.78c-8.905 7.09-19.259 13.25-30.644 18.26-.82.37-1.699.72-2.519 1.09-.749.32-1.484.59-2.233.91-9.783 3.89-20.371 6.99-31.405 9.06-15.118-10.95-27.734-23.74-37.389-37.4-1.025-1.46-1.991-2.9-2.944-4.41-.816-1.29-1.633-2.58-2.437-3.93a136.22 136.22 0 01-4.976-9.04c-.855-1.67-1.579-3.37-2.376-5.02.026-.12.111-.22.124-.28 4.427-11.24 13.639-21.89 31.329-28.43 0 0 36.27-5.81 42.547-25.3 0 0 8.555 17.47-5.272 36.37 0 0 9.313 3.13 14.279-8.04 0 0 10.107 12.47-.94 36.23 0 0 10.558-7.9 17.285-30.48 0 0 14.463 25.37 17.552 50.22-.058-.01-.013.06.019.19z" fill="#E0516B" fill-opacity=".59"/><path d="M922.936 3534.06c-.039.17-.124.28-.15.39-.819.37-1.638.74-2.444 1.05-.748.32-1.423.6-2.171.92-9.509 3.81-19.75 6.78-30.522 8.84-14.601-10.69-26.861-23.06-36.21-36.38-.978-1.38-1.943-2.82-2.908-4.27-.816-1.28-1.587-2.5-2.403-3.78.071-.05.156-.15.169-.21 7.614-8.22 17.235-9.8 17.235-9.8.391 7.01 8.753 12.14 8.753 12.14 3.759-20.85 28.106-23.23 28.106-23.23-8.363 9.64-6.144 25.46-6.144 25.46 6.528-15.14 18.577-19.06 18.577-19.06-1.804 9.95 3.995 21.31 3.995 21.31 7.895 12.68 8.406 21.06 6.117 26.62z" fill="#F06E85"/><path d="M957.361 3403.81l-8.156 4.62-5.848 3.35-5.847 3.36-15.908 9.08-6.966 3.97-28.436 16.22-69.956 45.36c-.884-2.9-1.637-5.83-2.26-8.8l55.614-36.97 40.376-22.39 6.939-3.84 16.546-9.19 2.666-1.49 3.88-.61 7.31-1.12 10.046-1.55z" fill="#B58065"/><path d="M953.073 3427.06c3.188-2.02.704-11.66-5.549-21.53-6.253-9.87-13.907-16.24-17.095-14.22-3.187 2.02-.703 11.66 5.55 21.53 6.253 9.87 13.907 16.24 17.094 14.22z" fill="#E2E2E2"/><path d="M981.535 3409.03l-22.677-35.79-28.455 18.02 22.676 35.8 28.456-18.03z" fill="#E2E2E2"/><path d="M981.506 3409.06c3.188-2.02.703-11.66-5.55-21.53-6.253-9.88-13.906-16.24-17.094-14.22-3.188 2.02-.703 11.66 5.55 21.53 6.253 9.87 13.906 16.23 17.094 14.22z" fill="#C4C4C4"/><path d="M967.843 3388.7l29.631-11.72 1.105 1.11-27.436 16.74-1.86-1.03-1.44-5.1z" fill="#B58065"/><path d="M982.103 3517.24c-1.83 2.41-3.719 4.81-5.77 7.12l-42.366-68.53-19.33-27.62-4.603-6.56-9.943-14.2-3.911-5.55-3.851-5.53-5.354-7.59 8.358 5.68 6.128 4.14 3.249 2.21 1.774 2.48 10.475 14.57 4.629 6.45 27.49 38.29 33.025 54.64z" fill="#9C6D55"/><path d="M902.513 3406.01c9.872-6.25 16.237-13.9 14.217-17.09-2.019-3.19-11.658-.7-21.529 5.55-9.872 6.25-16.237 13.91-14.217 17.09 2.019 3.19 11.658.71 21.529-5.55z" fill="#E4E4E4"/><path d="M880.979 3411.57l35.797-22.68-18.025-28.45-35.798 22.67 18.026 28.46z" fill="#E4E4E4"/><path d="M884.507 3377.58c9.872-6.25 16.237-13.9 14.217-17.09-2.019-3.19-11.658-.7-21.529 5.55-9.872 6.25-16.237 13.91-14.217 17.09 2.019 3.19 11.658.71 21.529-5.55z" fill="#C4C4C4"/><path d="M883.956 3370.63l-21.901-21.92 16.316 26.07 2.113-.14 3.472-4.01z" fill="#9C6D55"/><path d="M843.76 3416.57l15.083-10.54 14.283 17.13-18.732 11.19-10.634-17.78z" fill="#FFFBD5"/><path d="M856.374 3419.27l1.01-.92.895.97-1.228 1.06-.677-1.11zM857.383 3414.8l.988-.83.898.96-1.189.89-.697-1.02zM855.385 3424.54l.997-.86.895.97-1.169 1.08-.723-1.19zM860.322 3420.48l.973-.87.919.97-1.199 1.07-.693-1.17zM851.632 3418.21l1.011-.92.895.96-1.228 1.07-.678-1.11z" fill="#FFCC4D"/><path d="M975.129 3432.13l8.077 16.14-18.469 11.6-8.248-19.75 18.64-7.99z" fill="#FFFBD5"/><path d="M970.881 3444.01l.775 1.1-1.123.74-.857-1.31 1.205-.53zM975.035 3445.71l.657 1.07-1.009.76-.788-1.29 1.14-.54zM965.764 3442.48l.686 1.08-1.04.75-.757-1.28 1.111-.55zM969.072 3447.82l.774 1.1-1.123.74-.857-1.31 1.206-.53zM972.528 3439.78l.657 1.08-1.01.76-.788-1.29 1.141-.55z" fill="#FFCC4D"/><path d="M1012.51 3368.14c-3.08-1.31-6.24-2.57-9.35-3.76a486.169 486.169 0 00-142.602-32c-3.32-.25-6.726-.4-10.059-.6l-3.77-.17-24.707 110.11-.02.36c-.715 10.03.291 20.32 2.91 30.55.58 2.34 1.277 4.7 2.046 7.03 2.294 7.02 5.341 13.96 9.039 20.75 1.522 2.79 3.115 5.54 4.897 8.28 1.451 2.29 2.974 4.53 4.569 6.73 10.079 13.93 23.143 26.86 38.661 37.9l1.434.99.104.09 1.853-.32c10.942-1.97 21.353-4.85 31.149-8.54 12.689-4.83 24.27-11.01 34.385-18.32 6.814-4.91 13.006-10.34 18.445-16.24 1.7-1.82 3.283-3.68 4.807-5.55 6.365-7.84 11.348-16.36 14.849-25.39l.137-.34 24.703-110.11-3.48-1.45zm-29.835 108.89c-5.86 14.89-16.292 28.26-30.138 39.34-8.612 6.9-18.6 12.83-29.516 17.68-1.626.68-3.193 1.37-4.878 2.04-9.516 3.82-19.693 6.75-30.343 8.78-14.564-10.63-26.83-23.02-36.15-36.22-1.853-2.69-3.648-5.37-5.3-8.13-2.727-4.54-5.136-9.13-7.154-13.82-6.283-14.43-9.204-29.32-8.246-43.72l22.897-102.04c2.054.16 4.062.24 6.115.39a480.183 480.183 0 01139.973 31.41c1.865.73 3.785 1.47 5.635 2.25l-22.895 102.04z" fill="#7C7385"/><path d="M899.689 3356.77l-2.595.06 2.916 1.45 47.537 11.58c7.203 1.39 6.487.81 9.414-1.84 3.394-4.86-1.556-9.6-3.566-11.42l-34.344-27.35-1.307 1.53 33.04 26.34c5.515 4.71 6.742 7.01 4.609 10.08-2.061 2.97-3.8 1.58-7.03.93-12.51-2.49-35.008-8-48.674-11.36z" fill="url(#paint11_linear)"/><path d="M900.82 3330.84c-.806-1.54-.017-5.26 4.336-8.46 4.353-3.2 12.324 4.55 15.948 7.64l-2.064 2.42-.717-.63-6.213 1.74-1.171-1 1.099-5.69c-1.718-1.19-3.224-2.04-3.927-1.95-2.147.25-3.654 2.58-3.609 4.89.69 2.02 3.802 4.32 7.36 6.29.519 1.43 1.423 4.26-.283 5.08l-9.203-7.86-.826-.9-.454-.76-.276-.81z" fill="url(#paint12_linear)"/><path d="M909.826 3323.85c1.736.35 7.358 5.06 9.953 7.37l.694-.81c-1.008-.83-3.255-2.7-4.179-3.57-1.156-1.08-6.514-4.16-7.725-4.07-.353.03-1.648.55-1.599.93.574-.12 1.12-.21 2.856.15z" fill="#fff" fill-opacity=".12"/><path fill-rule="evenodd" clip-rule="evenodd" d="M956.132 3361.36a5.326 5.326 0 00-7.511.59 5.326 5.326 0 108.1 6.92 5.325 5.325 0 00-.589-7.51zm-1.2 1.4c-1.704-1.45-3.41-1.28-4.863.42-1.452 1.7-1.409 3.47.295 4.93 1.704 1.45 3.456 1.22 4.909-.48 1.452-1.7 1.363-3.41-.341-4.87z" fill="url(#paint13_linear)"/><path d="M902.681 3332.08s9.401 8.15 9.49 8.05c.09-.11.646-1.69.293-2.05-.352-.36-9.243-7.84-9.243-7.84l-.54 1.84z" fill="#fff" fill-opacity=".12"/><path fill-rule="evenodd" clip-rule="evenodd" d="M899.003 3357.6l1.894.19c11.906 2.87 31.499 7.59 42.092 9.92.526.08 1.026.17 1.491.25.874.15 1.623.28 2.179.32l2.032.77c-.747.21-2.254.17-5.386-.51l-41.369-9.94-2.933-1z" fill="#fff" fill-opacity=".18"/><path fill-rule="evenodd" clip-rule="evenodd" d="M955.8 3361.57c-2.043-1.75-5.125-1.49-6.884.56-1.758 2.06-1.527 5.15.516 6.89 2.043 1.75 5.124 1.49 6.883-.56 1.758-2.06 1.528-5.15-.515-6.89zm-.402.41c-1.816-1.55-4.557-1.32-6.121.51-1.565 1.83-1.361 4.57.455 6.13 1.816 1.55 4.556 1.32 6.121-.51 1.564-1.83 1.361-4.57-.455-6.13z" fill="#fff" fill-opacity=".12"/><path fill="#fff" fill-opacity=".1" d="M953.457 3358.15l-32.59-25.955.269-.338 32.59 25.955z"/><path fill="#453F4B" d="M917.236 3350.58l29.053 10.813-4.185 11.246-29.054-10.813z"/><path d="M474.258 3400.78l10.547 73.14c-.912 9.99-6.797 20.8-16.983 31.28-11.259 11.58-27.352 22.24-46.699 30.91-20.945-2.8-39.394-8.48-53.467-16.41-12.74-7.23-21.439-15.94-25.126-25.21l-10.554-73.19c.023-.23.046-.46.062-.74.031-.17.062-.34.046-.45l.07-.69c-.008-.05-.008-.05.039-.11a.526.526 0 00.015-.29c.031-.17.054-.39.086-.57.062-.34.132-.63.202-.92l-.008-.06c.07-.29.14-.58.203-.92.07-.29.148-.53.218-.82.288-1.1.632-2.21 1.038-3.28.109-.41.281-.77.445-1.18.086-.18.164-.42.249-.6.079-.23.164-.42.243-.65.085-.18.163-.42.249-.6 0 0-.007-.05.047-.06.055-.01-.008-.05.047-.06.125-.3.297-.66.477-.97.211-.47.43-.9.695-1.38.172-.36.399-.73.571-1.09.266-.49.531-.98.852-1.47.172-.36.406-.67.633-1.04.219-.43.5-.8.774-1.23.274-.43.5-.8.774-1.23.461-.69.97-1.43 1.486-2.12l.422-.57c.18-.3.422-.56.657-.87.61-.82 1.275-1.64 1.948-2.41.289-.32.524-.64.813-.96l.868-.96c.29-.32.579-.65.869-.97a72.54 72.54 0 011.846-1.94c11.305-11.65 27.399-22.31 46.746-30.98 20.952 2.86 39.401 8.54 53.474 16.47 1.404.81 2.807 1.61 4.109 2.49.368.22.737.45 1.05.68 1.976 1.29 3.795 2.65 5.56 4.02.251.18.51.43.761.61l1.717 1.44c.322.28.706.62 1.028.91.91.88 1.812 1.7 2.612 2.59.196.2.4.45.604.7.526.54.996 1.08 1.412 1.64.471.55.887 1.1 1.303 1.66.133.15.212.3.345.45.212.31.416.56.628.86.22.36.487.66.707 1.02.141.2.29.46.431.67.299.51.652 1.02.895 1.55.15.26.307.57.456.83.008.05.071.1.071.1.149.26.243.52.392.78.079.16.15.26.173.42.149.26.252.58.401.84.204.25.361.57.471.94z" fill="#40757A"/><path d="M468.027 3390.66c.471.54.887 1.1 1.303 1.65-.369-.61-.84-1.16-1.303-1.65z" fill="#FFBC00"/><path d="M482.159 3398.24c-2.602-6.79-7.287-13.28-13.789-19.17a88.573 88.573 0 00-9.199-7.12 145.695 145.695 0 00-5.959-3.68c-15.233-8.6-35.195-14.68-57.675-17.65l-1.144-.17-1.049.48c-20.733 9.15-38.165 20.62-50.339 33.23-11.735 12.16-18.409 24.88-19.357 36.94l-.046.45 10.815 75.01.173.42c4.315 11.3 14.31 21.61 28.994 29.9 15.233 8.61 35.195 14.69 57.675 17.66l1.144.17 1.049-.49c20.733-9.15 38.157-20.67 50.339-33.23 11.688-12.09 18.417-24.82 19.365-36.87l.046-.46-10.815-75.01-.228-.41zm2.638 75.74c-.912 9.98-6.797 20.79-16.983 31.27-11.259 11.59-27.352 22.25-46.699 30.91-20.952-2.85-39.402-8.53-53.474-16.47-12.741-7.23-21.44-15.93-25.126-25.2l-10.555-73.19c.024-.23.047-.46.062-.74.031-.17.062-.35.046-.46.024-.22.047-.45.07-.68-.008-.05-.008-.05.039-.11a.526.526 0 00.015-.29c.031-.17.055-.4.086-.57.062-.34.132-.63.202-.92l-.008-.06c.071-.29.141-.58.203-.92.07-.29.148-.53.218-.82.289-1.1.632-2.22 1.038-3.28.109-.41.281-.77.445-1.19.086-.18.164-.41.25-.59.078-.24.164-.42.242-.65.086-.18.164-.42.25-.6 0 0-.008-.05.047-.06.054-.01-.008-.05.047-.06.124-.3.296-.66.476-.97.211-.48.43-.9.696-1.38.171-.37.398-.73.57-1.09.266-.49.532-.98.852-1.47.172-.36.407-.67.633-1.04.219-.43.501-.8.774-1.23.274-.44.501-.8.774-1.24.462-.68.97-1.42 1.486-2.11l.422-.57c.18-.3.423-.56.657-.88.61-.81 1.275-1.63 1.948-2.4.289-.32.524-.64.813-.96l.869-.96c.289-.33.579-.65.868-.97.579-.64 1.213-1.29 1.846-1.94 11.306-11.65 27.399-22.31 46.746-30.98 20.952 2.86 39.402 8.54 53.474 16.47 1.404.8 2.807 1.61 4.109 2.48.368.23.737.46 1.051.69 1.975 1.29 3.795 2.65 5.559 4.01.251.19.51.43.761.62.572.48 1.145.96 1.717 1.43.322.29.706.63 1.028.92.91.88 1.812 1.7 2.612 2.59.204.25.4.44.604.7.526.54.997 1.08 1.413 1.64.47.55.886 1.1 1.302 1.66.134.15.212.3.346.45.211.31.416.56.627.86.22.36.487.66.707 1.02.141.2.29.46.432.67.298.51.651 1.02.895 1.55.149.25.306.57.455.83.008.05.071.1.071.1.149.26.243.52.393.78.078.16.149.26.172.42.15.26.252.58.401.84.165.37.322.68.432 1.06l10.539 73.09.055-.01z" fill="#FFBC00"/><path d="M376.271 3456.16l-5.076 5.93-1.917 2.24-2.347 2.74-26.74-43.77.922-1.76.43-.9 3.618-7.12 1.672-3.16.992-2.04 1.282-2.37 27.164 50.21z" fill="#FFCB64"/><path d="M366.906 3467.07l-10.099-.95s-20.755-37.59-24.715-46.03l.07-.68c-.008-.05-.008-.05.039-.12 2.448 3.01 4.752 3.85 6.233 4.03 1.082.12 1.724-.08 1.724-.08l26.748 43.83z" fill="#CCA052"/><path d="M349.052 3405.96l-1.227 2.36-1.047 2.05-1.61 3.2-2.399 4.71-1.219 2.41-.437.85-.922 1.76s-.705.15-1.724.08c-1.755-.14-4.435-.87-6.28-3.97-.008-.05-.008-.05.039-.11a.526.526 0 00.015-.29c.031-.17.054-.4.086-.57.062-.34.132-.63.202-.92l-.008-.06c.07-.29.14-.58.203-.92.07-.29.148-.53.218-.82.288-1.1.632-2.22 1.038-3.28.109-.41.281-.77.445-1.18.086-.19.164-.42.249-.6.079-.24.164-.42.242-.65.086-.18.164-.42.25-.6 0 0-.007-.05.047-.06 2.481-2.2 6.725-3.82 13.839-3.39z" fill="#FFDB8A"/><path d="M346.824 3410.37l23.267 41.81-24.94-38.66 1.673-3.15z" fill="#FFBD48"/><path d="M347.814 3408.32l-6.775 13.18c-2.939-.98-5.042-3.13-5.257-5.79-.279-3.88 3.594-7.29 8.584-7.62a10.41 10.41 0 013.448.23z" fill="#FFD278"/><path d="M341.536 3420.64s-6.183-7.95 5.291-10.28l-5.291 10.28z" fill="#FFCB64"/><path d="M371.18 3462.09l-1.916 2.23-19.08-32.95 20.996 30.72z" fill="#FFBD48"/><path d="M390.9 3376.7s-66.397 64.7 32.984 115.8l-10.286 6.29c-.055.01-95.951-46.33-22.698-122.09z" fill="#fff"/><path d="M462.322 3384.81c-22.19 21.17-45.377 47.46-53.637 56.93-2.019 2.31-3.114 3.64-3.114 3.64l-21.65-3.43s7.906-5.33 17.023-12.36c7.005-5.37 14.698-11.8 20.025-17.55 4.991-5.36 18.08-19.4 32.264-33.98.369.23.737.45 1.051.69 1.976 1.28 3.795 2.64 5.56 4.01.25.19.509.43.76.62.62.41 1.145.95 1.718 1.43z" fill="#91482F"/><path d="M378.324 3440.02l13.754-14.08s16.51 2.33 16.868 18.78c.235 12.12 18.788 13.08 28.479 12.74 3.454-.1 5.765-.38 5.765-.38s1.848 22.91-20.03 37.7c0 0-.871-.99-2.346-2.68-8.842-10.09-39.622-45.39-42.49-52.08z" fill="#444"/><path d="M437.428 3457.52c3.455-.1 5.765-.38 5.765-.38s1.848 22.91-20.03 37.7c0 0-.871-.99-2.346-2.68 5.009-4.08 20.698-18.32 16.611-34.64z" fill="#B5B5B5"/><path d="M476.56 3416.96l2.451 17c-.43.9-.914 1.81-1.344 2.71-.305.6-.563 1.14-.875 1.69-.821 1.69-1.657 3.26-2.446 4.78-1.188 2.24-2.196 4.17-2.899 5.51-.04.11-.133.24-.18.3-.579 1.04-.876 1.7-.876 1.7l-.141-.21-4.449-5.62-1.789-2.32-7.251-9.14 4.844-4.06 2.551-2.1 10.901-9.02 1.503-1.22z" fill="#FFDB8A"/><path d="M478.372 3429.41l1.463 10.14-11.259 41.47s-16.682 15.5-26.067 9.81l14.316-57.53c.243.13 12.492 3.18 21.547-3.89z" fill="#CCA052"/><path d="M450.585 3486.69l8.388-49.73-4.792 50.22-3.596-.49zM476.754 3445.86c-.732 3.46-12.844 33.2-12.844 33.2l13.864-43.98-1.02 10.78zM460.769 3452.09l.688-7.26 3.687 3.83-2.679 6.26-1.696-2.83z" fill="#C18F3E"/><path d="M476.571 3416.95l1.201 8.34c-2.973 3.06-8.196 4.87-13.814 4.34-.791-.06-1.598-.22-2.342-.34l2.551-2.1 10.901-9.01 1.503-1.23z" fill="#FFD278"/><path d="M475.07 3418.18c.443 3.07.531 10.67-10.901 9.01l10.901-9.01z" fill="#FFCB64"/><path d="M374.159 3480.75l-17.446-5.71 20.246 2.23 3.067 2.24-5.867 1.24zM431.156 3443.21l-3.757-15.19 7.667 15.52-.254 3.28-3.656-3.61zM439.23 3446.47l3.276-10.66.232 9.37-1.681 2.7-1.827-1.41z" fill="#FFDB8A"/><path d="M367.417 3382.41l-2.608 1.26 3.637.11 53.647-10.5c7.957-1.96 6.961-2.21 8.69-6.27 1.17-6.51-6.074-9.01-8.961-9.91l-47.644-11.68-.61 2.16 45.845 11.26c7.8 2.2 10.121 3.96 9.395 8.08-.702 3.97-3.118 3.37-6.696 4.23-13.859 3.32-39.262 8.26-54.695 11.26z" fill="url(#paint14_linear)"/><path d="M356.427 3355.57c-1.54-1.19-2.479-5.33.441-10.61 2.919-5.28 14.629-1.16 19.755.28l-.964 3.42c-.308-.09-.651-.19-1.021-.3l-5.489 4.67-1.656-.46-1.548-6.29c-2.301-.41-4.224-.56-4.897-.14-2.06 1.26-2.5 4.32-1.37 6.65 1.643 1.72 5.875 2.6 10.41 2.94 1.194 1.2 3.435 3.65 2.089 5.28l-13.016-3.67-1.257-.52-.819-.57-.658-.68z" fill="url(#paint15_linear)"/><path d="M362.29 3344.26c1.928-.45 9.837 1.7 13.551 2.83l.324-1.15c-1.411-.37-4.569-1.23-5.912-1.67-1.678-.56-8.554-1.17-9.74-.51-.347.19-1.417 1.32-1.187 1.69.527-.39 1.035-.74 2.964-1.19z" fill="#fff" fill-opacity=".12"/><path fill-rule="evenodd" clip-rule="evenodd" d="M426.822 3360.64a5.953 5.953 0 00-7.344 4.12 5.949 5.949 0 004.114 7.34 5.955 5.955 0 007.344-4.11 5.955 5.955 0 00-4.114-7.35zm-.56 1.99c-2.409-.68-4.057.3-4.735 2.7-.678 2.41.194 4.18 2.603 4.86 2.41.68 4.079-.38 4.757-2.78.678-2.41-.215-4.1-2.625-4.78z" fill="url(#paint16_linear)"/><path d="M358.897 3355.95s13.352 3.88 13.394 3.73c.041-.15-.135-2.02-.662-2.22-.527-.2-13.045-3.62-13.045-3.62l.313 2.11z" fill="#fff" fill-opacity=".12"/><path fill-rule="evenodd" clip-rule="evenodd" d="M367.109 3383.57l2.009-.7c13.421-2.66 35.508-7.04 47.343-9.63.573-.17 1.121-.31 1.63-.45.957-.26 1.777-.47 2.36-.69l2.425-.17c-.659.57-2.21 1.22-5.705 2l-46.621 9.28-3.441.36z" fill="#fff" fill-opacity=".18"/><path fill-rule="evenodd" clip-rule="evenodd" d="M426.585 3361.01c-2.889-.81-5.897.89-6.718 3.8-.821 2.91.856 5.93 3.746 6.74 2.889.82 5.897-.88 6.718-3.79.821-2.91-.856-5.93-3.746-6.75zm-.212.61c-2.569-.72-5.243.79-5.973 3.38-.73 2.59.76 5.28 3.328 6 2.569.73 5.243-.79 5.973-3.38.73-2.59-.76-5.27-3.328-6z" fill="#fff" fill-opacity=".12"/><path fill="#fff" fill-opacity=".1" d="M422.61 3358.64l-45.21-11.08.115-.47 45.21 11.08z"/><path fill="#40757A" d="M385.383 3369.49l30.91-2.351.91 11.965-30.91 2.351z"/></g><defs><linearGradient id="paint1_linear" x1="950.278" y1="676.985" x2="950.278" y2="3453.88" gradientUnits="userSpaceOnUse"><stop stop-color="#508286"/><stop offset=".014" stop-color="#426C70"/><stop offset="1" stop-color="#1A484B"/></linearGradient><linearGradient id="paint2_linear" x1="1005.4" y1="535.282" x2="1042.46" y2="1680.06" gradientUnits="userSpaceOnUse"><stop stop-color="#1C5054"/><stop offset="1" stop-color="#153537" stop-opacity="0"/></linearGradient><linearGradient id="paint4_linear" x1="730.702" y1="658.648" x2="730.702" y2="3435.55" gradientUnits="userSpaceOnUse"><stop stop-color="#508286"/><stop offset="1" stop-color="#225F64"/></linearGradient><linearGradient id="paint5_linear" x1="334.945" y1="611.479" x2="313.451" y2="541.569" gradientUnits="userSpaceOnUse"><stop stop-color="#C4C4C4"/><stop offset="1" stop-color="#848383"/></linearGradient><linearGradient id="paint6_linear" x1="258.509" y1="590.598" x2="249.796" y2="562.26" gradientUnits="userSpaceOnUse"><stop stop-color="#C4C4C4"/><stop offset="1" stop-color="#7B7979"/></linearGradient><linearGradient id="paint7_linear" x1="362.567" y1="552.484" x2="357.354" y2="534.559" gradientUnits="userSpaceOnUse"><stop stop-color="#9B9A9A"/><stop offset="1" stop-color="#868585"/></linearGradient><linearGradient id="paint8_linear" x1="627.046" y1="3263.35" x2="634.943" y2="3219.59" gradientUnits="userSpaceOnUse"><stop stop-color="#C4C4C4"/><stop offset="1" stop-color="#848383"/></linearGradient><linearGradient id="paint9_linear" x1="591.584" y1="3230.74" x2="594.785" y2="3213.01" gradientUnits="userSpaceOnUse"><stop stop-color="#C4C4C4"/><stop offset="1" stop-color="#7B7979"/></linearGradient><linearGradient id="paint10_linear" x1="658.428" y1="3239.19" x2="660.614" y2="3228.05" gradientUnits="userSpaceOnUse"><stop stop-color="#9B9A9A"/><stop offset="1" stop-color="#868585"/></linearGradient><linearGradient id="paint11_linear" x1="916.752" y1="3373.62" x2="940.618" y2="3345.69" gradientUnits="userSpaceOnUse"><stop stop-color="#C4C4C4"/><stop offset="1" stop-color="#848383"/></linearGradient><linearGradient id="paint12_linear" x1="905.035" y1="3335.58" x2="914.71" y2="3324.26" gradientUnits="userSpaceOnUse"><stop stop-color="#C4C4C4"/><stop offset="1" stop-color="#7B7979"/></linearGradient><linearGradient id="paint13_linear" x1="949.21" y1="3369.46" x2="955.41" y2="3362.42" gradientUnits="userSpaceOnUse"><stop stop-color="#9B9A9A"/><stop offset="1" stop-color="#868585"/></linearGradient><linearGradient id="paint14_linear" x1="392.611" y1="3391.51" x2="403.751" y2="3352" gradientUnits="userSpaceOnUse"><stop stop-color="#C4C4C4"/><stop offset="1" stop-color="#848383"/></linearGradient><linearGradient id="paint15_linear" x1="362.922" y1="3358.4" x2="367.438" y2="3342.39" gradientUnits="userSpaceOnUse"><stop stop-color="#C4C4C4"/><stop offset="1" stop-color="#7B7979"/></linearGradient><linearGradient id="paint16_linear" x1="423.592" y1="3372.1" x2="426.588" y2="3362.06" gradientUnits="userSpaceOnUse"><stop stop-color="#9B9A9A"/><stop offset="1" stop-color="#868585"/></linearGradient><radialGradient id="paint0_radial" cx="0" cy="0" r="1" gradientUnits="userSpaceOnUse" gradientTransform="matrix(-1.99992 87.99998 -1212.5569 -27.557 228 622)"><stop stop-color="#AD795E"/><stop offset="1" stop-color="#785340"/></radialGradient><radialGradient id="paint3_radial" cx="0" cy="0" r="1" gradientUnits="userSpaceOnUse" gradientTransform="matrix(0 54.5 -651.482 0 1166 609.5)"><stop stop-color="#AD795E"/><stop offset="1" stop-color="#88604B"/></radialGradient><filter id="filter0_i" x="619" y="321" width="201" height="54" filterUnits="userSpaceOnUse" color-interpolation-filters="sRGB"><feFlood flood-opacity="0" result="BackgroundImageFix"/><feBlend in="SourceGraphic" in2="BackgroundImageFix" result="shape"/><feColorMatrix in="SourceAlpha" values="0 0 0 0 0 0 0 0 0 0 0 0 0 0 0 0 0 0 127 0" result="hardAlpha"/><feOffset dy="1"/><feGaussianBlur stdDeviation=".5"/><feComposite in2="hardAlpha" operator="arithmetic" k2="-1" k3="1"/><feColorMatrix values="0 0 0 0 0 0 0 0 0 0 0 0 0 0 0 0 0 0 0.3 0"/><feBlend in2="shape" result="effect1_innerShadow"/></filter><filter id="filter1_d" x="171" y="490.305" width="1027.13" height="3341.07" filterUnits="userSpaceOnUse" color-interpolation-filters="sRGB"><feFlood flood-opacity="0" result="BackgroundImageFix"/><feColorMatrix in="SourceAlpha" values="0 0 0 0 0 0 0 0 0 0 0 0 0 0 0 0 0 0 127 0"/><feOffset dy="4"/><feGaussianBlur stdDeviation="2"/><feColorMatrix values="0 0 0 0 0 0 0 0 0 0 0 0 0 0 0 0 0 0 0.25 0"/><feBlend in2="BackgroundImageFix" result="effect1_dropShadow"/><feBlend in="SourceGraphic" in2="effect1_dropShadow" result="shape"/></filter><clipPath id="clip0"><path fill="#fff" transform="translate(-5)" d="M0 0h1450v4252H0z"/></clipPath></defs></svg>