<svg width="156" height="186" fill="none" xmlns="http://www.w3.org/2000/svg"><g clip-path="url(#clip0)" filter="url(#filter0_d)"><path d="M125.629 162.421a6.007 6.007 0 01-1.739 2.774 6.076 6.076 0 01-2.941 1.464 14.61 14.61 0 01-3.376.091c-1.011-.06-1.385.231-1.344 1.295.07 2.34 0 4.68 0 7.03 0 1.416-.284 1.687-1.668 1.687h-5.641c-1.425 0-1.627-.211-1.637-1.677v-7.231c0-.863-.293-1.144-1.132-1.084-.839.06-1.567 0-2.355 0a5.867 5.867 0 01-4.28-1.617 5.789 5.789 0 01-1.785-4.188c-.091-5.563 0-11.137 0-16.701 0-1.205.323-1.476 1.546-1.486h5.641c1.203 0 1.496.301 1.506 1.526v13.056c0 1.456.111 1.567 1.577 1.567h7.793c1.162 0 1.375-.211 1.375-1.376v-13.247c0-1.355.161-1.506 1.556-1.516h5.529a1.599 1.599 0 011.395.482l-.02 19.151zM30.372 159.67v-15.184c0-1.527.182-1.708 1.708-1.708h21.54a5.756 5.756 0 014.113 1.651 5.656 5.656 0 011.69 4.074v22.515a5.65 5.65 0 01-1.68 4.084 5.694 5.694 0 01-1.894 1.236 5.738 5.738 0 01-2.228.405H32.08c-1.517 0-1.709-.181-1.709-1.698V159.67zm20.125.101v-7.442c0-.854-.293-1.115-1.132-1.105h-9.016c-.799 0-1.082.261-1.072 1.065v14.963c0 .814.283 1.065 1.072 1.055h9.026c.84 0 1.142-.261 1.122-1.105-.03-2.48 0-4.961 0-7.431zM64.232 161.819v-12.734c0-3.906 2.406-6.307 6.298-6.307h17.022c1.448 0 2.843.542 3.909 1.517a5.718 5.718 0 011.842 3.746 39 39 0 01.101 4.067v22.295c0 2.159-.172 2.329-2.304 2.329h-4.923c-1.476 0-1.79-.301-1.8-1.797v-7.03c0-1.466-.11-1.577-1.566-1.577h-8.198c-1.283 0-1.435.151-1.435 1.396v7.442c0 1.315-.253 1.566-1.546 1.566h-5.53c-1.688 0-1.85-.16-1.85-1.898l-.02-13.015zm14.495-2.952h4.61c.717 0 1.06-.191 1.01-1.005v-6.306c0-.754-.293-1.005-1.01-1.005h-9.209c-.687 0-1.01.211-1.01.934v6.407c0 .714.282.945 1.01.924 1.526.031 3.063.051 4.6.051zM19.273 112.99V98.307c.005-.474.045-.947.12-1.416a.851.851 0 01.305-.577.863.863 0 01.626-.196h7.075c.91 0 1.011.643 1.011 1.346v9.269c0 1.747.121 1.858 1.85 1.858h8.319c1.354 0 1.445-.101 1.445-1.466v-9.039c0-1.687.283-1.948 1.961-1.948h5.843a1.262 1.262 0 011.096.33 1.244 1.244 0 01.37 1.076v11.107a3.807 3.807 0 01-.365 1.366c-1.233 3.274-2.446 6.558-3.72 9.812-.343.873-.12 1.074.738 1.004.86-.07 1.577 0 2.356 0 .778 0 1.01.251 1.01.954v6.729c0 1.084-.394 1.405-1.536 1.416h-5.944c-1.445 0-1.758-.292-1.768-1.718v-9.179-.914c0-.713-.364-1.004-1.082-1.004h-9.228c-1.011 0-1.284.593-1.284 1.446v9.481c0 1.908 0 1.928-1.951 1.928h-5.438c-1.466 0-1.719-.251-1.729-1.728v-13.246l-.08-2.008zM115.753 110.118c2.365-3.234 4.724-6.474 7.076-9.722a114.944 114.944 0 002.284-3.143 2.516 2.516 0 012.254-1.145h7.591c.324 0 .738-.11.94.241.203.352-.141.693-.353 1.004-3.134 4.118-6.267 8.236-9.441 12.323a1.39 1.39 0 00-.101 1.878c3.45 5.584 6.87 11.187 10.259 16.811.223.362.617.723.384 1.195-.232.472-.839.352-1.283.352h-6.975a2.55 2.55 0 01-1.556-.346 2.53 2.53 0 01-1.042-1.201c-2.021-3.826-4.043-7.622-6.064-11.428-.526-1.005-.536-1.005-1.213 0l-.051.09c-2.719 2.732-3.154 6.086-2.911 9.751.222 3.515.131 3.134-3.113 3.144h-4.306c-1.456 0-1.668-.211-1.668-1.647V99.332v-1.737c0-1.186.273-1.447 1.445-1.457h6.065c1.375 0 1.627.251 1.627 1.597V110.057l.152.061z" fill="#fff"/><path d="M57.41 139.098c0-2.461.192-3.874.273-5.893.101-2.34.253-4.68.354-7.029.09-2.009.11-4.018.232-6.096.06-1.005-.333-1.286-1.294-1.266h-6.772c-1.183 0-1.243-.08-.85-1.125 2.568-6.839 5.156-13.668 7.713-20.517a1.392 1.392 0 011.506-1.004h15.79c1.151 0 1.242.14.727 1.245-2.022 4.279-4.043 8.553-6.065 12.825-.657 1.396-.667 1.406.93 1.406h7.288c.283 0 .677-.141.839.191.162.331-.192.552-.364.783l-15.263 20.457-4.458 5.965c-.06.151-.313.431-.586.058z" fill="#FFBC96"/><path d="M91.747 129.892h-8.208a5.713 5.713 0 01-3.995-1.678 5.634 5.634 0 01-1.645-3.986v-5.504a2.561 2.561 0 01.566-1.687c1.638-2.169 3.255-4.358 4.882-6.548.142-.181.404-.361.303-.602-.1-.241-.475-.191-.727-.191H79.03c-.839 0-1.152-.261-1.142-1.115.05-2.31 0-4.619 0-6.929a5.696 5.696 0 011.632-3.791 5.768 5.768 0 013.776-1.713c5.71-.06 11.412 0 17.123 0a1.19 1.19 0 01.999.315c.131.126.232.28.293.45.062.17.083.351.062.53v5.705c0 1.055-.687 1.396-1.617 1.406H88.593c-1.415 0-1.546.131-1.546 1.496v14.06c0 1.255.212 1.486 1.486 1.496h11.381c1.628 0 1.89.251 1.89 1.888v4.891c0 1.185-.363 1.517-1.536 1.527h-8.521v-.02zM61.362 67.966v11.198a5.63 5.63 0 01-1.654 4.143 5.705 5.705 0 01-4.158 1.672H38.114a5.754 5.754 0 01-4.12-1.658 5.68 5.68 0 01-1.682-4.087V56.73a5.68 5.68 0 011.71-4.076 5.784 5.784 0 014.123-1.648H55.57a5.753 5.753 0 014.107 1.664 5.68 5.68 0 011.675 4.08c.014 3.756.017 7.495.01 11.217zm-20.135 0V75.5c0 .803.283 1.064 1.072 1.004h9.097c.738 0 1.01-.241 1.01-1.004V60.435c0-.754-.272-1.005-1.01-1.005h-9.098c-.788 0-1.091.251-1.07 1.005.02 2.55 0 5.03 0 7.511v.02zM93.435 69.824V56.89a5.671 5.671 0 011.692-4.232 5.747 5.747 0 014.271-1.653h17.123a5.815 5.815 0 014.269 1.666 5.718 5.718 0 011.705 4.23v26.392c0 1.466-.232 1.687-1.749 1.687h-5.428c-1.526 0-1.758-.231-1.758-1.788v-7.03c0-1.486-.091-1.587-1.547-1.587h-8.005c-1.537 0-1.648.1-1.648 1.597v7.03c0 1.547-.253 1.778-1.769 1.778H94.84c-1.122 0-1.375-.251-1.375-1.396-.02-4.593-.03-9.18-.03-13.759zm14.454-2.731h4.71c.698 0 1.011-.221 1.011-.934V59.75c0-.733-.313-.933-1.011-.923h-9.218c-.738 0-1.011.26-1.011 1.004v6.297c0 .793.344 1.004 1.061 1.004 1.456-.06 2.962-.04 4.458-.04zM65.547 67.926V57.231a5.85 5.85 0 011.74-4.533 5.958 5.958 0 014.577-1.693h15.688c1.415 0 1.688.27 1.698 1.656v5.022c0 1.426-.374 1.797-1.83 1.807H76.242c-1.455 0-1.556.101-1.556 1.577v14.06c0 1.255.151 1.406 1.415 1.406h11.18c1.657 0 1.97.311 1.97 2.008v5.022c0 1.155-.323 1.496-1.435 1.496H71.106a5.808 5.808 0 01-3.961-1.8 5.734 5.734 0 01-1.578-4.035c-.04-3.786-.02-7.562-.02-11.298zM127.297 67.896V52.712c0-1.527.182-1.698 1.718-1.708h5.843c1.172 0 1.415.252 1.506 1.426v22.425c0 1.628 0 1.668 1.658 1.668h11.118c1.527 0 1.86.351 1.87 1.868v5.091c0 1.185-.353 1.497-1.546 1.497h-20.62c-1.264 0-1.517-.241-1.517-1.497-.04-5.192-.03-10.394-.03-15.586zM5 68.007V52.52c0-1.366.152-1.507 1.547-1.517h5.751c1.476 0 1.658.181 1.658 1.637v22.094c0 1.718.05 1.768 1.799 1.768h10.977c1.537 0 1.88.321 1.91 1.838v5.091c-.05 1.275-.363 1.527-1.637 1.527H6.475C5.173 84.959 5 84.788 5 83.472V68.007zM60.099 6.001c0-1.365-.152-1.506-1.547-1.516h-5.741c-1.486 0-1.668.18-1.668 1.637v22.094c0 1.717 0 1.767-1.789 1.767h-7.56c-1.76 0-1.8 0-1.8-1.767V6.122c0-1.456-.182-1.627-1.668-1.637h-5.741c-1.395 0-1.547.15-1.547 1.516v26.763a5.662 5.662 0 001.69 4.089 5.763 5.763 0 004.123 1.657h17.426a5.753 5.753 0 004.158-1.675 5.652 5.652 0 001.664-4.14V21.487c0-5.162.01-10.324 0-15.486zM101.248 21.437V10.691a5.845 5.845 0 011.741-4.53 5.95 5.95 0 014.577-1.686h15.687c1.415 0 1.688.271 1.698 1.647v5.021c0 1.436-.374 1.808-1.829 1.818h-11.169c-1.456 0-1.557.11-1.557 1.587v14.06c0 1.255.152 1.405 1.415 1.405h11.179c1.658 0 2.022.312 2.022 2.009v5.021c0 1.155-.333 1.497-1.445 1.497h-16.709a5.82 5.82 0 01-4.044-1.82 5.743 5.743 0 01-1.566-4.126V21.437z" fill="#fff"/><path fill-rule="evenodd" clip-rule="evenodd" d="M67.892 4.485h18.447v.01h3.234a5.739 5.739 0 013.992 1.721 5.665 5.665 0 011.618 4.013v5.695a5.628 5.628 0 01-1.742 3.938 5.7 5.7 0 01-3.881 1.576 5.73 5.73 0 013.853 1.56 5.658 5.658 0 011.77 3.862v5.785a5.65 5.65 0 01-1.67 4.137 5.756 5.756 0 01-4.161 1.667h-2.983v.01H67.892c-1.516 0-1.708-.19-1.708-1.707V6.182c0-1.526.181-1.697 1.708-1.697zm8.582 11.78h7.833c.769.01.99-.07 1.011-.332v-4.509c0-.26-.283-.341-1.01-.341h-7.834c-.698 0-.94.08-.94.321v4.55c0 .24.252.31.94.31zm.06 14.532h8.38c.778 0 1.061-.08 1.01-.402V25.454c.061-.281-.232-.372-1.01-.372h-8.38c-.748-.01-1.01.08-1.01.342v5.021c0 .271.282.352 1.01.352z" fill="#fff"/></g><defs><clipPath id="clip0"><path fill="#fff" transform="translate(5)" d="M0 0h146v179H0z"/></clipPath><filter id="filter0_d" x="0" y="-1" width="156" height="189" filterUnits="userSpaceOnUse" color-interpolation-filters="sRGB"><feFlood flood-opacity="0" result="BackgroundImageFix"/><feColorMatrix in="SourceAlpha" values="0 0 0 0 0 0 0 0 0 0 0 0 0 0 0 0 0 0 127 0"/><feOffset dy="4"/><feGaussianBlur stdDeviation="2.5"/><feColorMatrix values="0 0 0 0 0 0 0 0 0 0 0 0 0 0 0 0 0 0 0.2 0"/><feBlend in2="BackgroundImageFix" result="effect1_dropShadow"/><feBlend in="SourceGraphic" in2="effect1_dropShadow" result="shape"/></filter></defs></svg>