<svg width="114" height="120" fill="none" xmlns="http://www.w3.org/2000/svg"><path d="M87.511 63.252L84.45 75.94c-.186.771-.399 1.535-.64 2.293-.046.192-.12.378-.166.571-.047.193-.12.379-.194.565-.027.11-.087.241-.12.379-.04.165-.1.296-.168.454-.067.159-.114.352-.18.51-.061.131-.094.269-.148.372l-.202.476-.181.393a4.442 4.442 0 01-.249.552c-.06.13-.127.29-.188.42a43.08 43.08 0 01-1.562 3.002c-.094.152-.155.283-.242.408l-.567.912a2.505 2.505 0 00-.236.38c-.189.304-.37.58-.58.85-.088.124-.17.221-.257.346-.088.124-.182.276-.297.394-.088.125-.17.222-.257.346-.223.325-.466.616-.71.906l-.365.437a30.318 30.318 0 01-2.503 2.716c-.115.118-.23.236-.338.326l-.447.417c-.15.138-.332.298-.481.437-.143.111-.292.25-.407.368a4.06 4.06 0 01-.4.34c-.223.209-.467.383-.69.59a6.226 6.226 0 00-.434.362c-.15.14-.312.216-.461.355a33.11 33.11 0 01-2.014 1.407l-.916.566-.509.314c-.373.23-.767.426-1.14.657-.163.077-.333.182-.496.259-.17.104-.36.175-.556.273-.197.098-.36.175-.557.274l-.387.168c-.062.015-.13.057-.163.077-.19.071-.387.169-.55.246-.19.071-.388.169-.578.24-.19.07-.353.147-.543.218a6.231 6.231 0 01-.632.226c-.354.148-.727.262-1.108.403a28.019 28.019 0 01-3.005.848 36.15 36.15 0 01-17.257.088l-.737-.178c-.163-.04-.327-.079-.511-.153l-.328-.079c-.375-.119-.73-.205-1.078-.318-.136-.033-.239-.087-.375-.12-.137-.033-.24-.087-.375-.12-.137-.032-.267-.093-.396-.153-.185-.074-.349-.114-.533-.187a7.11 7.11 0 01-.71-.288 5.476 5.476 0 01-.628-.268c-.212-.08-.417-.188-.601-.262-.13-.06-.232-.114-.362-.174-.157-.067-.335-.168-.492-.236-.232-.114-.437-.222-.642-.329-.178-.101-.362-.175-.54-.276-.512-.27-1.018-.566-1.53-.836-.178-.1-.356-.202-.527-.33-.253-.149-.478-.29-.731-.44a5.03 5.03 0 01-.52-.358 27.497 27.497 0 01-2.066-1.489c-.096-.08-.219-.169-.342-.257-.294-.216-.554-.454-.842-.698-.164-.156-.335-.285-.5-.441l-.431-.366c-10.004-8.91-14.243-22.69-11.048-35.93l3.062-12.689c.186-.77.393-1.507.633-2.264.074-.186.12-.38.2-.593.081-.213.134-.434.215-.647.074-.186.12-.379.187-.537.067-.16.107-.324.174-.483.06-.13.087-.24.148-.372l.201-.476c.074-.186.141-.344.215-.53l.007-.028c.12-.262.214-.53.335-.793.068-.158.135-.317.229-.469.114-.234.229-.469.336-.676.041-.048.06-.131.102-.18.067-.158.161-.31.228-.468l.162-.311c.067-.159.161-.31.256-.463.04-.048.053-.103.094-.152.114-.234.25-.435.391-.663.06-.13.142-.227.202-.359.007-.027.014-.055.047-.076l.04-.048c.15-.255.331-.532.48-.787.087-.125.141-.228.23-.353l.006-.027c.37-.58.762-1.127 1.154-1.673.007-.028.034-.021.04-.049.088-.124.21-.27.298-.394.081-.097.128-.173.21-.27.168-.221.371-.464.54-.685.088-.125.203-.242.29-.367.088-.124.204-.242.291-.367.007-.027.034-.02.04-.048.197-.215.393-.43.562-.651.115-.118.237-.263.352-.381.04-.049.074-.07.115-.118l.345-.354c.15-.139.27-.284.42-.423.115-.118.223-.208.338-.326l.007-.027c.149-.14.305-.305.454-.444.108-.09.223-.209.304-.305.04-.049.109-.09.15-.14.04-.048.108-.09.148-.138.068-.042.108-.09.183-.16a.751.751 0 01.176-.132c.332-.299.657-.57.983-.84.142-.112.291-.25.46-.356.075-.069.143-.11.217-.18.177-.132.353-.265.502-.403a36.2 36.2 0 0112.508-6.011l.55-.13a36.13 36.13 0 0132.575 7.861l.432.367c.096.081.164.156.26.237.288.244.541.51.829.754.143.122.253.265.397.387.144.122.254.265.398.387l.76.795c.11.143.254.265.364.408.11.143.253.265.363.408.11.143.247.293.357.436.11.143.22.286.357.436l.33.429c.308.395.59.783.871 1.171.234.348.474.668.708 1.016.11.143.186.307.296.45l.247.41c.165.272.337.517.475.784l.062.102.062.102c.076.164.186.307.262.471.096.198.2.369.323.574.083.136.138.266.22.402.159.3.338.635.49.963.055.13.138.266.193.396.324.69.621 1.373.885 2.078.124.321.27.676.394.998.118.349.242.67.36 1.019.049.157.118.349.167.506l.146.472c-.007.028.014.062.007.09l.146.471c.049.158.09.343.14.5-.007.028.02.034.013.062.09.342.181.684.245 1.02.09.342.174.712.238 1.048.042.185.056.363.098.548.042.185.057.363.1.548.027.123.028.24.056.363-.007.028.014.062.007.09-.007.027.014.06.008.088.041.185.056.364.07.542.016.178.058.363.072.541.015.179.057.364.072.542l.044.535c.022.267.044.535.06.83 0 .117.021.267.022.384-.006.144.016.295.016.412.001.116.022.267.023.384.002.233.03.473.032.706.014.179-.005.378.01.556.015.179-.005.378.01.556-.013.172-.004.378-.017.55-.004.377-.03.72-.034 1.098-.026.227-.018.433-.044.66 0 .116-.026.226-.018.316-.007.027.007.089-.006.144-.013.172-.032.37-.045.542.001.117-.025.227-.025.344-.006.144-.046.31-.051.453-.027.11-.026.227-.046.31l-.014.055c-.077.68-.182 1.354-.314 2.021-.033.138-.04.282-.072.42-.034.137-.067.275-.066.392-.053.22-.1.412-.126.64.077.28.024.5-.023.693z" fill="#ED6D81"/><path d="M92.434 59.866c.118-.846.208-1.698.264-2.529a42.19 42.19 0 00-.496-9.906 40.87 40.87 0 00-4.23-12.264c-.316-.6-.66-1.208-1.039-1.795a39.581 39.581 0 00-1.904-2.877l-1.26 1.036-2.013 1.64c-.282-.388-.59-.783-.872-1.171.309.395.59.783.872 1.172.234.347.474.667.708 1.015.11.143.185.307.295.45l.248.41c.165.272.337.518.475.784l.061.102.062.102c.076.165.186.308.262.471.097.199.2.369.324.574.055.13.138.266.193.396.158.3.337.635.49.963.055.13.137.266.192.396.325.69.622 1.373.885 2.077.124.322.27.677.394.998.118.35.243.67.36 1.02.05.157.118.348.167.506l.146.472c-.007.027.014.061.007.089l.146.472c.049.157.09.342.14.5-.007.027.02.034.013.061.091.343.182.685.245 1.02.09.343.175.713.238 1.048.042.185.057.364.099.549.042.184.056.363.098.548.028.123.029.24.057.363-.007.027.014.061.007.089-.006.028.014.062.008.09a3.8 3.8 0 01.071.54c.015.179.057.364.072.542.014.178.056.363.071.542l.044.535c.022.267.044.535.06.83 0 .116.022.267.022.384-.005.144.016.295.017.411 0 .117.022.268.022.385.002.233.03.473.032.706.015.178-.005.378.01.556.015.178-.004.378.01.556-.012.172-.004.378-.017.55-.004.377-.03.72-.034 1.098-.026.227-.018.432-.044.66.001.116-.025.226-.018.315a.31.31 0 00-.006.144c-.013.172-.032.371-.044.543 0 .117-.026.227-.025.344-.006.144-.046.309-.052.453-.027.11-.026.227-.046.31l-.013.055c-.078.68-.183 1.354-.315 2.02-.033.138-.039.283-.072.42-.033.138-.067.275-.066.392-.053.22-.1.413-.125.64l-.153.633-.286 1.183 4.152.74.226-.936a33.88 33.88 0 00.865-4.422z" fill="#CC3A51"/><path d="M85.037 30.473l-1.26 1.035-2.013 1.64c-.282-.388-.59-.783-.872-1.17l-.33-.43c-.11-.143-.22-.286-.357-.435-.11-.144-.22-.287-.356-.436-.11-.143-.254-.265-.364-.408-.11-.143-.254-.265-.363-.408l-.761-.796c-.144-.122-.254-.265-.398-.387-.143-.122-.253-.265-.397-.387-.254-.265-.541-.51-.829-.753-.068-.075-.164-.157-.26-.238l-.431-.366a36.13 36.13 0 00-32.575-7.861l-.55.13a36.2 36.2 0 00-12.509 6.01c-.176.132-.352.264-.501.403-.075.07-.143.111-.217.18-.142.112-.319.244-.461.356-.325.27-.684.563-.982.84-.068.042-.109.09-.177.133-.068.041-.108.09-.183.16-.04.048-.108.09-.149.138-.04.049-.108.09-.149.139-.108.09-.216.18-.304.305a8.924 8.924 0 00-.454.444l-.006.027c-.115.118-.224.209-.339.327-.149.138-.298.277-.42.423l-.345.353c-.04.049-.074.07-.115.118-.115.118-.236.263-.352.381-.196.215-.392.43-.56.651-.008.028-.035.021-.041.049-.116.117-.203.242-.291.366-.115.118-.203.243-.29.367-.197.215-.372.464-.541.685-.081.097-.129.173-.21.27-.094.152-.21.27-.297.394-.007.028-.007.028-.04.049a37.922 37.922 0 00-1.155 1.673l-.007.027c-.087.125-.141.228-.229.353a8.02 8.02 0 00-.479.787l-.04.049c-.007.027-.014.055-.047.076-.061.13-.142.228-.203.359-.141.228-.249.435-.39.663-.041.048-.054.103-.095.152-.094.152-.162.31-.256.462l-.162.31a3.32 3.32 0 00-.228.47c-.04.048-.06.13-.101.18-.115.234-.229.468-.337.675-.067.159-.161.31-.228.47a8.908 8.908 0 00-.336.792l-.007.028c-.073.186-.14.344-.214.53l-.202.476c-.06.131-.087.241-.147.372-.067.159-.107.324-.174.483a4.278 4.278 0 00-.188.537c-.08.214-.133.434-.214.647-.074.186-.12.38-.2.593-.241.757-.448 1.494-.634 2.264l-3.062 12.69c-3.195 13.238 1.044 27.019 11.048 35.928l.432.367c.164.156.335.284.5.44.26.238.554.455.842.699.123.088.219.17.342.257.684.515 1.368 1.03 2.066 1.489.17.129.348.23.52.358.225.142.478.29.73.44l.878 5.337a224.1 224.1 0 01-.697-.343 39.949 39.949 0 01-7.906-5.403c-.143-.122-.308-.278-.452-.4C10.76 88.103 6.042 72.722 9.61 57.94l3.062-12.688a49.76 49.76 0 01.967-3.408c.073-.186.12-.379.194-.565a40.783 40.783 0 015.83-11 41.293 41.293 0 018.455-8.476 39.749 39.749 0 0113.832-6.594c.184-.043.401-.107.585-.15 6.42-1.596 13.005-1.61 19.252-.101a39.967 39.967 0 0117.088 8.87c.143.123.308.279.452.401.26.238.52.475.753.706 1.828 1.636 3.481 3.52 4.958 5.537z" fill="#CC3A51"/><path d="M91.375 65.174l-2.843 11.781c-3.082 12.771-11.9 23.11-23.59 28.124a41.448 41.448 0 01-3.587 1.348c-.687.213-1.4.42-2.108.599-.183.043-.4.107-.584.15a40.241 40.241 0 01-27.744-2.996l-.877-5.338c.178.1.355.202.526.33.506.297 1.018.567 1.531.836.178.101.362.175.54.276.205.108.437.222.642.33.157.067.335.168.492.235.13.06.232.114.362.175.211.08.389.181.6.261.212.08.417.188.629.268.239.087.47.201.71.288.184.074.341.141.532.187.13.06.266.093.396.154.13.06.239.086.375.119.137.033.24.087.376.12.375.12.723.233 1.078.318l.327.079c.164.04.328.079.512.153l.736.178a36.15 36.15 0 0017.258-.088l.55-.13a34.37 34.37 0 002.455-.718c.373-.114.727-.262 1.107-.403.218-.064.415-.162.632-.226.19-.07.353-.148.544-.218.19-.071.387-.169.577-.24.19-.07.387-.168.55-.245.062-.015.13-.057.163-.078l.387-.168c.19-.071.36-.176.557-.274.197-.098.36-.175.557-.273.163-.077.326-.154.496-.26.393-.196.766-.426 1.14-.656l.509-.314.915-.566c.686-.446 1.377-.92 2.015-1.407.142-.111.312-.216.46-.355.15-.139.285-.222.434-.361.217-.18.468-.382.691-.59.143-.112.258-.23.4-.341a4.32 4.32 0 00.406-.368c.177-.132.332-.299.481-.438.15-.138.298-.277.447-.416.115-.118.23-.236.339-.326a45.025 45.025 0 002.503-2.716l.365-.437c.244-.29.466-.615.71-.906.087-.125.169-.222.256-.346.088-.124.21-.27.298-.394.087-.125.168-.222.256-.346.182-.277.399-.574.58-.85.089-.125.176-.25.237-.38l.566-.912c.088-.125.155-.283.243-.408a43.125 43.125 0 001.562-3.002c.06-.13.127-.29.188-.42.074-.186.175-.366.249-.552l.18-.393.202-.476c.06-.13.087-.24.148-.372.067-.159.14-.345.18-.51.068-.158.101-.296.168-.454.033-.138.087-.242.12-.38.074-.185.12-.378.195-.564.073-.186.12-.379.166-.572a33.7 33.7 0 00.64-2.292l2.777-11.505 4.11.671z" fill="#CC3A51"/><path d="M32.153 99.99c-.513-.268-1.018-.565-1.53-.835-.178-.1-.356-.202-.527-.33l-5.073-31.14 3.823-.65 25.261-4.302 3.824-.65 6.324 38.635a.6.6 0 00-.163.077c-.19.071-.387.169-.55.246-.19.071-.387.169-.578.239-.19.071-.353.148-.543.219a6.475 6.475 0 01-.632.226c-.353.148-.727.261-1.108.402-.788.276-1.624.511-2.454.719l-.55.129a36.125 36.125 0 01-17.258.088l-.737-.177c-.163-.04-.327-.079-.511-.153l-.328-.079c-.375-.12-.73-.205-1.078-.318-.136-.033-.239-.087-.375-.12s-.239-.087-.375-.12a2.114 2.114 0 01-.396-.154c-.185-.073-.348-.113-.533-.186a7.11 7.11 0 01-.71-.288 5.675 5.675 0 01-.628-.268c-.211-.081-.416-.188-.6-.262-.13-.06-.233-.114-.363-.175-.157-.067-.334-.168-.491-.235a24.163 24.163 0 01-.643-.33 2.015 2.015 0 01-.498-.207z" fill="#FFBC96"/><path d="M42.502 71.095c9.09-1.544 16.005-5.57 15.445-8.992-.559-3.421-8.38-4.943-17.47-3.398-9.088 1.545-16.003 5.57-15.444 8.992.559 3.422 8.38 4.943 17.47 3.398z" fill="#FFBC96"/><path d="M42.083 68.47c7.253-1.232 12.771-4.443 12.325-7.17-.446-2.728-6.687-3.94-13.94-2.708-7.252 1.232-12.77 4.443-12.325 7.17.446 2.728 6.687 3.94 13.94 2.708z" fill="#448078"/><path d="M52.518 49.701l-26.293 4.47 1.896 11.61 26.293-4.47-1.896-11.61z" fill="#448078"/><path d="M40.17 56.86c7.254-1.233 12.772-4.443 12.326-7.171-.445-2.728-6.687-3.94-13.94-2.708-7.252 1.233-12.77 4.444-12.325 7.172.446 2.728 6.687 3.94 13.94 2.707z" fill="#448078"/><path d="M52.507 57.833c.315 1.445-.154 2.788-1.044 3.01-.891.221-1.885-.805-2.2-2.25-.316-1.445.153-2.788 1.044-3.01.918-.215 1.884.805 2.2 2.25z" fill="#2C6B63"/><path d="M52.025 57.95c.223.987-.091 1.931-.73 2.068-.612.144-1.311-.55-1.529-1.563-.217-1.014.09-1.93.73-2.067.633-.11 1.305.577 1.529 1.563z" fill="#12534A"/><path d="M100.92 66.84l-4.54-.805-4.985-.883-4.152-.74-33.27-5.815-1.357-.24-.525-.097-.777-.13.644-.514.433-.362 1.227-1.014 28.156-23.118 2.012-1.64 1.26-1.037 2.345-1.939a35.852 35.852 0 012.57 2.63c.528.565.995 1.143 1.489 1.728a43.576 43.576 0 017.195 12.776 44.234 44.234 0 012.509 11.615c.271 3.182.162 6.388-.234 9.584z" fill="#EFEFEF"/><path d="M44.497 51.065c-.351.498-1.072.732-2.286.38l-.218-.053-.027.11c-.131.784-1.312 5.917-6.916 1.74l-.758-.446-4.852-2.743-11.919-6.721c.08-.214.134-.434.214-.648.074-.186.12-.378.187-.537.068-.158.107-.324.175-.482.06-.131.087-.241.147-.372l.201-.476c.074-.186.141-.345.215-.53l.007-.028c.12-.262.214-.53.335-.793.068-.159.135-.317.23-.469.114-.234.228-.47.336-.676.04-.048.06-.131.1-.18.068-.158.162-.31.23-.469l.16-.31a3.45 3.45 0 01.257-.463c.04-.048.054-.103.094-.152.115-.234.25-.435.391-.663.06-.13.142-.228.202-.359.007-.027.014-.055.047-.075l.041-.049c.148-.255.33-.532.479-.787.088-.125.141-.228.23-.353l.006-.027c.37-.58.762-1.127 1.154-1.673.007-.028.034-.021.04-.049.088-.124.21-.27.298-.394.081-.097.128-.173.21-.27.168-.221.371-.463.54-.685.088-.124.203-.242.29-.366.088-.125.204-.243.291-.367.007-.028.034-.021.04-.049.197-.214.393-.43.562-.65.115-.118.237-.264.352-.382.04-.048.074-.069.115-.117l.345-.354c.15-.139.27-.284.42-.423.115-.118.223-.208.338-.326l.007-.028c.149-.138.305-.305.454-.444.108-.09.223-.208.304-.305.04-.048.108-.09.15-.139.04-.048.108-.09.148-.138.068-.042.108-.09.183-.16.04-.048.108-.09.176-.132.332-.299.657-.57.983-.84 2.236 3.772 8.255 13.525 11.324 14.207 3.62.787 6.111 4.825 3.98 6.116-.101.063-.237.147-.393.196.048.041 1.3 3.11.38 4.403z" fill="#826957"/><path d="M54.61 56.886L93.1 28.862l.934 2.352-39.426 25.672zM55.382 57.509l46.893-12.83 2.189 12.586-49.082.244zM58.99 45.331c-.191-.163-.39-.298-.609-.467.373-.347.711-.673 1.084-1.02.338-.326-.176-.829-.541-.51-.454.444-.907.888-1.355 1.305-.142.111-.154.4.017.528.288.244.61.468.897.712.363.291.897-.25.507-.548zM61.67 41.639c-1.158 2.05-2.296 4.134-3.455 6.185-.243.407.42.77.636.357 1.158-2.05 2.297-4.135 3.455-6.185.243-.407-.393-.765-.635-.357zM63.633 45.23a2.36 2.36 0 00-1.255-1.498c-.41-.216-.774.454-.357.642.362.175.615.44.794.774-.332.182-.658.337-.99.519-.429.217-.03.838.391.648.428-.217.828-.441 1.256-.658a.387.387 0 00.161-.428zM68.776 63.718c-.36.058-.694.123-1.054.182-.177.015-.298.277-.243.407.145.355.209.69.204 1.068.01.439.677.425.695-.007-.016-.295-.031-.59-.108-.87.238-.03.45-.066.694-.124.422-.073.234-.73-.188-.656zM71.094 65.465c-.084-.37-.325-.807-.667-.948.142-.228.31-.45.452-.677.264-.374-.351-.697-.58-.344-.406.601-.804 1.175-1.182 1.783a9.277 9.277 0 00-.701 1.112.33.33 0 00.07.425c.001.117.036.213.166.273 1.135.799 2.73-.186 2.442-1.624zm-2.003 1.119c.243-.408.52-.836.79-1.237.034-.021.074-.07.108-.09.299-.162.402.126.465.345.175.828-.687 1.29-1.363.982zM73.476 66.942c.154-.4-.427-.744-.58-.345-.148.373-1.004 1.885-1.496 1.533-.274-.182.118-.729.26-.957.201-.359.37-.697.572-1.056.209-.387-.372-.731-.581-.344-.317.593-.722 1.195-.956 1.808-.161.428-.124.99.307 1.24.978.614 2.159-1.17 2.474-1.88zM75.443 68.264a.423.423 0 00-.016-.411c-.42-.538-1.148-.51-1.718-.182-.509.314-1.267.947-1.223 1.598.017.529.482.874.966.903-.412.513-1.428 1.491-1.829.52-.159-.417-.812-.225-.652.192.353.93 1.382 1.091 2.169.582.441-.272.751-.721 1.055-1.143.405-.602.83-1.169 1.236-1.77.047-.076.046-.193.012-.288zm-2.207 1.012c-.091-.343.282-.573.505-.781.292-.25.733-.523 1.075-.265-.338.442-1.35 1.888-1.58 1.046zM77.874 68.238l-3.582 2.282c-.373.23-.029.838.345.607l3.582-2.281c.373-.23.029-.838-.344-.608zM77.996 71.299l.069-1.003c.018-.433-.65-.42-.695.007-.019.2-.017.433-.037.632.001.117.01.323-.004.494a1.682 1.682 0 01-.395-.153c-.219-.053-.43-.133-.67-.22-.43-.133-.588.528-.159.66.321.107.642.214.97.293.218.052.477.173.687.02.238-.147.229-.47.234-.73zM68.916 35.317c-.318-.834-1.037-.367-1.443.118a3.822 3.822 0 00-.86 2.006c-.013.056.001.117-.019.2-.026.227-.018.433-.016.666.014.178.11.26.247.293.514.62 1.31.432 1.728-.224.574-.823.675-2.197.363-3.06zm-1.501 2.871c-.048-.04-.096-.08-.117-.115 0-.117-.001-.233.005-.378a4.38 4.38 0 01.191-1.032c.12-.378.323-.737.628-.926.244-.174.17-.105.24.203.013.062.02.151.035.213a2.1 2.1 0 01.016.412c0 .116.001.233-.019.316-.019.199-.038.398-.105.557-.08.214-.524 1.214-.874.75z" fill="#fff"/><path d="M68.532 36.097c-.74.317-1.365.749-1.933 1.311-.339.326.202.836.513.503a5.067 5.067 0 011.628-1.123c.449-.183.24-.874-.208-.691zM61.22 34.77a4.82 4.82 0 01-.892-.01c-.422-.045-.609.61-.166.687.143.006.252.032.395.037-.378.491-.946 1.17-1.156 1.323-.075-.047-.13-.06-.205-.108-.287-.127-.68.186-.467.5a.775.775 0 00.554.337l.437.222c.39.181.726-.378.344-.587.562-.534 1.041-1.205 1.46-1.861.141-.228-.038-.563-.304-.54zM76.317 75.318c-.897.25-1.69.903-2.278 1.664-.094.152-.182.276-.276.428-.061.014-.136.084-.177.132-.04.049-.047.076-.06.131-.437.856.412 1.643 1.297 1.566.714-.09 1.542-.648 2.11-1.326.196-.215.344-.47.458-.705.014-.055.054-.103.061-.131.369-.93.014-2.094-1.135-1.76zm-.264 2.412c-.034.02-.075.07-.108.09-.177.132-.326.271-.53.397a1.797 1.797 0 01-.495.259c-.414.162-.66-.014-.697-.46l.006-.027c.054-.104.102-.18.149-.256.148-.255.317-.477.513-.692.108-.09.196-.214.305-.305.25-.201 1.402-1.147 1.638-.449.077.28-.057.598-.267.868-.141.228-.365.436-.514.575z" fill="#fff"/><path d="M78.393 77.277l-5.99-.425c-.456-.023-.424.684.025.734l5.99.426c.456.022.431-.712-.025-.735zM64.337 27.194l-.919 3.448c-.086.358.46.49.546.131l.919-3.448c.093-.385-.453-.517-.546-.131zM65.858 27.33c.086-.359-.487-.497-.546-.132l-.855 3.902c-.086.358.486.497.546.132l.855-3.903z" fill="#fff"/><path d="M66.034 28.826c-.779-.363-1.57-.67-2.363-.977-.341-.14-.48.436-.132.549.771.273 1.502.595 2.233.917.334.168.603-.349.262-.49zM65.525 30.017c-.684-.398-1.395-.802-2.078-1.2-.328-.196-.598.321-.27.517.684.398 1.395.802 2.079 1.2.328.195.597-.322.269-.517z" fill="#fff"/><path d="M51.21 15.691c-.338.883-.449 1.827-.245 2.75.163.74 1.343.576 1.18-.164a3.65 3.65 0 01.15-2.139c.283-.736-.787-1.149-1.084-.447zM53.486 15.527a5.928 5.928 0 00.06 2.897c.197.724 1.377.56 1.18-.164a5.472 5.472 0 01-.042-2.58c.136-.793-1.047-.912-1.198-.153zM55.534 15.698c-.1 1.06.047 2.132.43 3.098.28.727 1.393.227 1.08-.485a5.502 5.502 0 01-.361-2.479c.118-.743-1.08-.896-1.15-.134zM57.53 15.623c-.099 1.061.067 2.084.431 3.099.28.728 1.359.243 1.08-.485-.309-.796-.386-1.615-.327-2.495.069-.763-1.114-.882-1.183-.119zM60.594 15.908c.02.966.156 1.921.408 2.865.163.74 1.343.575 1.18-.165a17.247 17.247 0 01-.408-2.865c-.047-.751-1.227-.587-1.18.165zM39.876 17.288a4.741 4.741 0 00.2 2.755c.278.728 1.402.345 1.138-.35a3.79 3.79 0 01-.178-2.154c.151-.759-1.009-1.01-1.16-.25zM42.099 16.738c-.062.963.089 1.95.476 2.833.313.713 1.437.33 1.14-.349-.358-.814-.484-1.652-.426-2.531.036-.747-1.155-.7-1.19.047zM43.82 16.783c.065 1.068.347 2.079.914 3.002.414.668 1.385.028 1.005-.654-.444-.735-.67-1.528-.728-2.396-.047-.75-1.238-.703-1.191.048zM45.75 16.402a6.75 6.75 0 00.9 2.967c.38.683 1.384.028 1.004-.654a5.72 5.72 0 01-.695-2.41c-.066-.7-1.256-.653-1.21.097zM48.274 16.162c-.01.898.064 1.8.238 2.656.133.671 1.279.522 1.13-.183-.188-.89-.246-1.758-.236-2.656.016-.698-1.115-.515-1.132.183zM29.338 22.353c.054.951.407 1.85.967 2.573.467.603 1.457-.086.99-.689-.466-.603-.75-1.248-.796-2-.047-.75-1.223-.669-1.161.116zM31.299 21.189c.219.958.673 1.81 1.282 2.552.5.588 1.49-.1.99-.688a5.453 5.453 0 01-1.163-2.281c-.163-.74-1.287-.356-1.11.417zM33.234 20.44a6.226 6.226 0 001.743 2.589c.586.508 1.356-.406.77-.915a4.714 4.714 0 01-1.404-2.092c-.23-.71-1.354-.326-1.109.417zM34.994 19.488c.398.999.935 1.854 1.709 2.603.553.524 1.322-.39.77-.914-.617-.576-1.046-1.277-1.355-2.072-.28-.727-1.388-.31-1.124.383zM37.332 18.558c.257.86.58 1.69 1.005 2.473.351.615 1.382.111 1.065-.518-.425-.784-.783-1.599-1.005-2.474-.216-.675-1.28-.156-1.065.519z" fill="#B93348"/></svg>