<svg width="307" height="207" fill="none" xmlns="http://www.w3.org/2000/svg"><path d="M35 40.5V96M238 40v63" stroke="#B7B7B7"/><path d="M34.917 98.152c1.734-.553 1.686-1.613 1.445-2.074.481.691 1.156 2.35 0 3.457-1.445 1.383-3.612-.691-1.445-1.383z" fill="url(#paint0_linear)"/><path d="M34.917 96.77c1.734-.554 1.686-1.614 1.445-2.075.481.692 1.156 2.35 0 3.457-1.445 1.383-3.612-.691-1.445-1.383z" fill="url(#paint1_linear)"/><path d="M34.917 95.386c1.734-.553 1.686-1.613 1.445-2.074.481.692 1.156 2.351 0 3.457-1.445 1.383-3.612-.691-1.445-1.383z" fill="url(#paint2_linear)"/><path d="M34.917 94.004c1.734-.553 1.686-1.614 1.445-2.075.481.692 1.156 2.351 0 3.457-1.445 1.383-3.612-.69-1.445-1.382z" fill="url(#paint3_linear)"/><path d="M34.917 92.62c1.734-.552 1.686-1.612 1.445-2.073.481.691 1.156 2.35 0 3.457-1.445 1.382-3.612-.692-1.445-1.383z" fill="url(#paint4_linear)"/><path d="M34.917 91.238c1.734-.553 1.686-1.613 1.445-2.074.481.691 1.156 2.35 0 3.457-1.445 1.383-3.612-.692-1.445-1.383z" fill="url(#paint5_linear)"/><path d="M34.917 89.855c1.734-.553 1.686-1.613 1.445-2.074.481.691 1.156 2.35 0 3.457-1.445 1.383-3.612-.691-1.445-1.383z" fill="url(#paint6_linear)"/><path d="M34.917 88.472c1.734-.553 1.686-1.613 1.445-2.074.481.692 1.156 2.351 0 3.457-1.445 1.383-3.612-.691-1.445-1.383z" fill="url(#paint7_linear)"/><path d="M34.917 87.09c1.734-.553 1.686-1.614 1.445-2.075.481.692 1.156 2.351 0 3.457-1.445 1.383-3.612-.691-1.445-1.382z" fill="url(#paint8_linear)"/><path d="M34.917 85.707c1.734-.553 1.686-1.613 1.445-2.074.481.691 1.156 2.35 0 3.457-1.445 1.382-3.612-.692-1.445-1.383z" fill="url(#paint9_linear)"/><path d="M34.917 84.324c1.734-.553 1.686-1.613 1.445-2.074.481.691 1.156 2.35 0 3.457-1.445 1.383-3.612-.692-1.445-1.383z" fill="url(#paint10_linear)"/><path d="M34.917 82.941c1.734-.553 1.686-1.613 1.445-2.074.481.691 1.156 2.35 0 3.457-1.445 1.383-3.612-.691-1.445-1.383z" fill="url(#paint11_linear)"/><path d="M34.917 81.558c1.734-.553 1.686-1.613 1.445-2.074.481.692 1.156 2.35 0 3.457-1.445 1.383-3.612-.691-1.445-1.383z" fill="url(#paint12_linear)"/><path d="M34.917 80.175c1.734-.553 1.686-1.613 1.445-2.074.481.692 1.156 2.351 0 3.457-1.445 1.383-3.612-.691-1.445-1.383z" fill="url(#paint13_linear)"/><path d="M34.917 78.793c1.734-.553 1.686-1.614 1.445-2.075.481.692 1.156 2.351 0 3.457-1.445 1.383-3.612-.69-1.445-1.382z" fill="url(#paint14_linear)"/><path d="M34.917 77.41c1.734-.553 1.686-1.613 1.445-2.074.481.691 1.156 2.35 0 3.457-1.445 1.382-3.612-.692-1.445-1.383z" fill="url(#paint15_linear)"/><path d="M34.917 76.027c1.734-.553 1.686-1.613 1.445-2.074.481.691 1.156 2.35 0 3.457-1.445 1.383-3.612-.691-1.445-1.383z" fill="url(#paint16_linear)"/><path d="M34.917 74.644c1.734-.553 1.686-1.613 1.445-2.074.481.692 1.156 2.35 0 3.457-1.445 1.383-3.612-.691-1.445-1.383z" fill="url(#paint17_linear)"/><path d="M34.917 73.261c1.734-.553 1.686-1.613 1.445-2.074.481.692 1.156 2.351 0 3.457-1.445 1.383-3.612-.691-1.445-1.383z" fill="url(#paint18_linear)"/><path d="M34.917 71.879c1.734-.553 1.686-1.614 1.445-2.075.481.692 1.156 2.351 0 3.457-1.445 1.383-3.612-.69-1.445-1.382z" fill="url(#paint19_linear)"/><path d="M34.917 70.496c1.734-.553 1.686-1.613 1.445-2.074.481.691 1.156 2.35 0 3.457-1.445 1.382-3.612-.692-1.445-1.383z" fill="url(#paint20_linear)"/><path d="M34.917 69.113c1.734-.553 1.686-1.613 1.445-2.074.481.691 1.156 2.35 0 3.457-1.445 1.383-3.612-.692-1.445-1.383z" fill="url(#paint21_linear)"/><path d="M34.917 67.73c1.734-.553 1.686-1.613 1.445-2.074.481.691 1.156 2.35 0 3.457-1.445 1.383-3.612-.691-1.445-1.383z" fill="url(#paint22_linear)"/><path d="M34.917 66.347c1.734-.553 1.686-1.613 1.445-2.074.481.692 1.156 2.351 0 3.457-1.445 1.383-3.612-.691-1.445-1.383z" fill="url(#paint23_linear)"/><path d="M34.917 64.965c1.734-.553 1.686-1.614 1.445-2.075.481.692 1.156 2.351 0 3.457-1.445 1.383-3.612-.691-1.445-1.382z" fill="url(#paint24_linear)"/><path d="M34.917 63.582c1.734-.553 1.686-1.613 1.445-2.074.481.691 1.156 2.35 0 3.457-1.445 1.383-3.612-.692-1.445-1.383z" fill="url(#paint25_linear)"/><path d="M34.917 62.2c1.734-.554 1.686-1.614 1.445-2.075.481.691 1.156 2.35 0 3.457-1.445 1.383-3.612-.691-1.445-1.383z" fill="url(#paint26_linear)"/><path d="M34.917 60.816c1.734-.553 1.686-1.613 1.445-2.074.481.692 1.156 2.351 0 3.457-1.445 1.383-3.612-.691-1.445-1.383z" fill="url(#paint27_linear)"/><path d="M34.917 59.434c1.734-.553 1.686-1.614 1.445-2.075.481.692 1.156 2.351 0 3.457-1.445 1.383-3.612-.691-1.445-1.382z" fill="url(#paint28_linear)"/><path d="M34.917 58.05c1.734-.552 1.686-1.612 1.445-2.073.481.691 1.156 2.35 0 3.457-1.445 1.382-3.612-.692-1.445-1.383z" fill="url(#paint29_linear)"/><path d="M34.917 56.668c1.734-.553 1.686-1.613 1.445-2.074.481.691 1.156 2.35 0 3.457-1.445 1.383-3.612-.692-1.445-1.383z" fill="url(#paint30_linear)"/><path d="M34.917 55.285c1.734-.553 1.686-1.613 1.445-2.074.481.691 1.156 2.35 0 3.457-1.445 1.383-3.612-.691-1.445-1.383z" fill="url(#paint31_linear)"/><path d="M34.917 53.902c1.734-.553 1.686-1.613 1.445-2.074.481.691 1.156 2.35 0 3.457-1.445 1.383-3.612-.691-1.445-1.383z" fill="url(#paint32_linear)"/><path d="M34.917 52.52c1.734-.554 1.686-1.614 1.445-2.075.481.692 1.156 2.351 0 3.457-1.445 1.383-3.612-.691-1.445-1.383z" fill="url(#paint33_linear)"/><path d="M34.917 51.137c1.734-.553 1.686-1.614 1.445-2.075.481.692 1.156 2.351 0 3.458-1.445 1.382-3.612-.692-1.445-1.383z" fill="url(#paint34_linear)"/><path d="M34.917 49.754c1.734-.553 1.686-1.613 1.445-2.074.481.691 1.156 2.35 0 3.457-1.445 1.383-3.612-.692-1.445-1.383z" fill="url(#paint35_linear)"/><path d="M34.917 48.371c1.734-.553 1.686-1.613 1.445-2.074.481.691 1.156 2.35 0 3.457-1.445 1.383-3.612-.691-1.445-1.383z" fill="url(#paint36_linear)"/><path d="M34.917 46.988c1.734-.553 1.686-1.613 1.445-2.074.481.691 1.156 2.35 0 3.457-1.445 1.383-3.612-.691-1.445-1.383z" fill="url(#paint37_linear)"/><path d="M34.917 45.605c1.734-.553 1.686-1.613 1.445-2.074.481.692 1.156 2.351 0 3.457-1.445 1.383-3.612-.691-1.445-1.383z" fill="url(#paint38_linear)"/><path d="M34.917 44.223c1.734-.553 1.686-1.614 1.445-2.075.481.692 1.156 2.351 0 3.457-1.445 1.383-3.612-.691-1.445-1.382z" fill="url(#paint39_linear)"/><path d="M34.917 42.84c1.734-.553 1.686-1.613 1.445-2.074.481.691 1.156 2.35 0 3.457-1.445 1.382-3.612-.692-1.445-1.383z" fill="url(#paint40_linear)"/><path d="M34.917 41.457c1.734-.553 1.686-1.613 1.445-2.074.481.691 1.156 2.35 0 3.457-1.445 1.383-3.612-.692-1.445-1.383z" fill="url(#paint41_linear)"/><path d="M34.917 40.074c1.734-.553 1.686-1.613 1.445-2.074.481.691 1.156 2.35 0 3.457-1.445 1.383-3.612-.691-1.445-1.383z" fill="url(#paint42_linear)"/><path d="M236.917 100.152c1.734-.553 1.686-1.613 1.445-2.074.481.691 1.156 2.351 0 3.457-1.445 1.383-3.612-.692-1.445-1.383z" fill="url(#paint43_linear)"/><path d="M236.917 98.77c1.734-.554 1.686-1.614 1.445-2.075.481.692 1.156 2.35 0 3.457-1.445 1.383-3.612-.691-1.445-1.383z" fill="url(#paint44_linear)"/><path d="M236.917 97.386c1.734-.553 1.686-1.613 1.445-2.074.481.692 1.156 2.351 0 3.457-1.445 1.383-3.612-.691-1.445-1.383z" fill="url(#paint45_linear)"/><path d="M236.917 96.004c1.734-.553 1.686-1.614 1.445-2.075.481.692 1.156 2.351 0 3.457-1.445 1.383-3.612-.69-1.445-1.382z" fill="url(#paint46_linear)"/><path d="M236.917 94.62c1.734-.552 1.686-1.612 1.445-2.073.481.691 1.156 2.35 0 3.457-1.445 1.382-3.612-.692-1.445-1.383z" fill="url(#paint47_linear)"/><path d="M236.917 93.238c1.734-.553 1.686-1.613 1.445-2.074.481.691 1.156 2.35 0 3.457-1.445 1.383-3.612-.692-1.445-1.383z" fill="url(#paint48_linear)"/><path d="M236.917 91.855c1.734-.553 1.686-1.613 1.445-2.074.481.691 1.156 2.35 0 3.457-1.445 1.383-3.612-.691-1.445-1.383z" fill="url(#paint49_linear)"/><path d="M236.917 90.472c1.734-.553 1.686-1.613 1.445-2.074.481.692 1.156 2.351 0 3.457-1.445 1.383-3.612-.691-1.445-1.383z" fill="url(#paint50_linear)"/><path d="M236.917 89.09c1.734-.553 1.686-1.614 1.445-2.075.481.692 1.156 2.351 0 3.457-1.445 1.383-3.612-.691-1.445-1.382z" fill="url(#paint51_linear)"/><path d="M236.917 87.707c1.734-.553 1.686-1.613 1.445-2.074.481.691 1.156 2.35 0 3.457-1.445 1.382-3.612-.692-1.445-1.383z" fill="url(#paint52_linear)"/><path d="M236.917 86.324c1.734-.553 1.686-1.613 1.445-2.074.481.691 1.156 2.35 0 3.457-1.445 1.383-3.612-.692-1.445-1.383z" fill="url(#paint53_linear)"/><path d="M236.917 84.941c1.734-.553 1.686-1.613 1.445-2.074.481.691 1.156 2.35 0 3.457-1.445 1.383-3.612-.691-1.445-1.383z" fill="url(#paint54_linear)"/><path d="M236.917 83.558c1.734-.553 1.686-1.613 1.445-2.074.481.692 1.156 2.35 0 3.457-1.445 1.383-3.612-.691-1.445-1.383z" fill="url(#paint55_linear)"/><path d="M236.917 82.175c1.734-.553 1.686-1.613 1.445-2.074.481.692 1.156 2.351 0 3.457-1.445 1.383-3.612-.691-1.445-1.383z" fill="url(#paint56_linear)"/><path d="M236.917 80.793c1.734-.553 1.686-1.614 1.445-2.075.481.692 1.156 2.351 0 3.457-1.445 1.383-3.612-.69-1.445-1.382z" fill="url(#paint57_linear)"/><path d="M236.917 79.41c1.734-.553 1.686-1.613 1.445-2.074.481.691 1.156 2.35 0 3.457-1.445 1.382-3.612-.692-1.445-1.383z" fill="url(#paint58_linear)"/><path d="M236.917 78.027c1.734-.553 1.686-1.613 1.445-2.074.481.691 1.156 2.35 0 3.457-1.445 1.383-3.612-.691-1.445-1.383z" fill="url(#paint59_linear)"/><path d="M236.917 76.644c1.734-.553 1.686-1.613 1.445-2.074.481.692 1.156 2.35 0 3.457-1.445 1.383-3.612-.691-1.445-1.383z" fill="url(#paint60_linear)"/><path d="M236.917 75.261c1.734-.553 1.686-1.613 1.445-2.074.481.692 1.156 2.351 0 3.457-1.445 1.383-3.612-.691-1.445-1.383z" fill="url(#paint61_linear)"/><path d="M236.917 73.879c1.734-.553 1.686-1.614 1.445-2.075.481.692 1.156 2.351 0 3.457-1.445 1.383-3.612-.69-1.445-1.382z" fill="url(#paint62_linear)"/><path d="M236.917 72.496c1.734-.553 1.686-1.613 1.445-2.074.481.691 1.156 2.35 0 3.457-1.445 1.382-3.612-.692-1.445-1.383z" fill="url(#paint63_linear)"/><path d="M236.917 71.113c1.734-.553 1.686-1.613 1.445-2.074.481.691 1.156 2.35 0 3.457-1.445 1.383-3.612-.692-1.445-1.383z" fill="url(#paint64_linear)"/><path d="M236.917 69.73c1.734-.553 1.686-1.613 1.445-2.074.481.691 1.156 2.35 0 3.457-1.445 1.383-3.612-.691-1.445-1.383z" fill="url(#paint65_linear)"/><path d="M236.917 68.347c1.734-.553 1.686-1.613 1.445-2.074.481.692 1.156 2.351 0 3.457-1.445 1.383-3.612-.691-1.445-1.383z" fill="url(#paint66_linear)"/><path d="M236.917 66.965c1.734-.553 1.686-1.614 1.445-2.075.481.692 1.156 2.351 0 3.457-1.445 1.383-3.612-.691-1.445-1.382z" fill="url(#paint67_linear)"/><path d="M236.917 65.582c1.734-.553 1.686-1.613 1.445-2.074.481.691 1.156 2.35 0 3.457-1.445 1.383-3.612-.692-1.445-1.383z" fill="url(#paint68_linear)"/><path d="M236.917 64.2c1.734-.554 1.686-1.614 1.445-2.075.481.691 1.156 2.35 0 3.457-1.445 1.383-3.612-.691-1.445-1.383z" fill="url(#paint69_linear)"/><path d="M236.917 62.816c1.734-.553 1.686-1.613 1.445-2.074.481.692 1.156 2.351 0 3.457-1.445 1.383-3.612-.691-1.445-1.383z" fill="url(#paint70_linear)"/><path d="M236.917 61.434c1.734-.553 1.686-1.614 1.445-2.075.481.692 1.156 2.351 0 3.457-1.445 1.383-3.612-.691-1.445-1.382z" fill="url(#paint71_linear)"/><path d="M236.917 60.05c1.734-.552 1.686-1.612 1.445-2.073.481.691 1.156 2.35 0 3.457-1.445 1.382-3.612-.692-1.445-1.383z" fill="url(#paint72_linear)"/><path d="M236.917 58.668c1.734-.553 1.686-1.613 1.445-2.074.481.691 1.156 2.35 0 3.457-1.445 1.383-3.612-.692-1.445-1.383z" fill="url(#paint73_linear)"/><path d="M236.917 57.285c1.734-.553 1.686-1.613 1.445-2.074.481.691 1.156 2.35 0 3.457-1.445 1.383-3.612-.691-1.445-1.383z" fill="url(#paint74_linear)"/><path d="M236.917 55.902c1.734-.553 1.686-1.613 1.445-2.074.481.691 1.156 2.35 0 3.457-1.445 1.383-3.612-.691-1.445-1.383z" fill="url(#paint75_linear)"/><path d="M236.917 54.52c1.734-.554 1.686-1.614 1.445-2.075.481.692 1.156 2.351 0 3.457-1.445 1.383-3.612-.691-1.445-1.383z" fill="url(#paint76_linear)"/><path d="M236.917 53.137c1.734-.553 1.686-1.614 1.445-2.075.481.692 1.156 2.351 0 3.458-1.445 1.382-3.612-.692-1.445-1.383z" fill="url(#paint77_linear)"/><path d="M236.917 51.754c1.734-.553 1.686-1.613 1.445-2.074.481.691 1.156 2.35 0 3.457-1.445 1.383-3.612-.692-1.445-1.383z" fill="url(#paint78_linear)"/><path d="M236.917 50.371c1.734-.553 1.686-1.613 1.445-2.074.481.691 1.156 2.35 0 3.457-1.445 1.383-3.612-.691-1.445-1.383z" fill="url(#paint79_linear)"/><path d="M236.917 48.988c1.734-.553 1.686-1.613 1.445-2.074.481.691 1.156 2.35 0 3.457-1.445 1.383-3.612-.691-1.445-1.383z" fill="url(#paint80_linear)"/><path d="M236.917 47.605c1.734-.553 1.686-1.613 1.445-2.074.481.692 1.156 2.351 0 3.457-1.445 1.383-3.612-.691-1.445-1.383z" fill="url(#paint81_linear)"/><path d="M236.917 46.223c1.734-.553 1.686-1.614 1.445-2.075.481.692 1.156 2.351 0 3.457-1.445 1.383-3.612-.691-1.445-1.382z" fill="url(#paint82_linear)"/><path d="M236.917 44.84c1.734-.553 1.686-1.613 1.445-2.074.481.691 1.156 2.35 0 3.457-1.445 1.382-3.612-.692-1.445-1.383z" fill="url(#paint83_linear)"/><path d="M236.917 43.457c1.734-.553 1.686-1.613 1.445-2.074.481.691 1.156 2.35 0 3.457-1.445 1.383-3.612-.692-1.445-1.383z" fill="url(#paint84_linear)"/><path d="M236.917 42.074c1.734-.553 1.686-1.613 1.445-2.074.481.691 1.156 2.35 0 3.457-1.445 1.383-3.612-.691-1.445-1.383z" fill="url(#paint85_linear)"/><path d="M307 149.943v-9.315l-31.774-42.227L.447 87.223l14.321 45.953-12.53 51.543 3.132 8.072 266.276-8.072L307 149.943z" fill="#785340"/><path d="M306.553 140.008l-31.327-41.606L0 86.603l13.873 47.195L2.238 184.72l267.618-5.589 36.697-39.123z" fill="#AD795E"/><path d="M6.138 98.793c14.637-1.871 49.22-3.8 52.397 0 3.178 3.801 2.639 3.324 1.972 2.611M62.005 111.551c19.68-2.843 63.544-6.848 81.57-.115M62.006 111.551c19.052 2.617 59.51 7.092 68.924 4.053M97.491 128.341c15.895-3.776 52.647-11.487 72.502-12.126 19.854-.64 30.265-1.407 32.988-1.711M12.064 153.789c5.532 3.825 28.844 9.274 54.642 4.813 32.246-5.576 59.248-21.214 73.17-10.694 13.922 10.52 80.357 1.906 85.489 0 4.106-1.525 42.026 8.455 60.568 10.694M10.714 162.431c7.608 5.794 26.05 16.311 38.96 12.019 16.136-5.366 61.38-12.132 69.66-7.682 7.023 3.774 10.14 8.542 8.928 14.247M108.168 104.042c40.381-3.825 135.038-5.633 152.527-1.243" stroke="#CC9477"/><path d="M121.347 165.59c13.278-4.831 46.232-12.128 71.824-2.665 31.99 11.829 35.761 10.416 45.735 11.088 7.979.537 19.785 1.111 24.691 1.33M188.537 161.046l90.811 6.186M13.38 145.813c5.855 1.973 27.243-1.541 34.892-3.655 9.56-2.642 29.417-2.641 39.5 0 10.083 2.642 73.832 1.829 83.618-11.227 7.83-10.445 79.257-11.394 119.809-8.87M8.49 109.956c22.58.829 70.027 1.433 79.174-2.777 9.146-4.211 125.456 5.975 182.468 11.595M15.384 105.92c12.429-.714 39.159-4.762 42.55-4.353 4.02.486 40.498 1.094 53.114-2.603 10.093-2.957 20.869-3.649 24.995-3.625" stroke="#CC9477"/><path d="M11.405 118.407c23.468.303 72.345-.719 81.634 9.135 9.289 9.855 93.659 11.249 131.182 12.142l77.913 3.715M14 128.683c11.309-1.007 33.086-1.889 29.727 2.641-3.359 4.53-21.434 3.581-30.051 2.541" stroke="#CC9477"/><path d="M12.513 125.182c15.547-.495 45.534-.196 41.11 4.965-5.528 6.451-6.04 7.813-39.305 7.118" stroke="#CC9477"/><g filter="url(#filter0_i)" fill="#56321E"><path d="M47.623 161.021l-.14-1.72-.559-2.064-.056-.459-.195-.42-1.817-2.256-.364-.344-3.997-1.261h-3.02l-.475.688v16.628l.783.765 2.096-.306 3.998-2.102 2.04-2.982.113-.42.307-.077 1.286-3.67zm-3.019-2.828v4.549l-.28 1.223-.587 1.185-.754 1.032-1.454.382-1.174.497.084-2.026v-8.027l.223-1.529 2.097.267 1.174 1.491.671.956zM60.706 168.514l-.084-.153a.702.702 0 00-.084-.344 2.572 2.572 0 01-.14-.421.477.477 0 00-.307.115 3.812 3.812 0 00-.308.191 14.34 14.34 0 01-.363.191c-.13.051-.299.077-.504.077h-.14c-.223.025-.419.038-.586.038-.168 0-.326.013-.476.038-.149 0-.298.013-.447.038h-.531a95.928 95.928 0 01-.699-.152l-.14-.077h.028c.019 0-.01-.025-.084-.076-.018.025-.037.038-.056.038-.018 0-.037.013-.055.038h-.056a6.472 6.472 0 00-.504-.229c-.111-.051-.167-.14-.167-.268 0-.102-.093-.28-.28-.535a1.563 1.563 0 01-.251-.879c0-.383.027-.867.083-1.453.056-.611.168-1.096.336-1.452.149-.128.41-.268.783-.421a2.576 2.576 0 011.118-.268c.224 0 .391.051.503.153.13.077.233.179.308.306a.82.82 0 01.111.421c.02.127.028.255.028.382 0 .178-.046.306-.14.382a.733.733 0 01-.335.153c-.13.026-.26.038-.391.038-.13 0-.242.013-.336.039a5.657 5.657 0 01-1.314.382c.093.051.159.153.196.306.037.153.065.318.084.497.019.152.028.305.028.458 0 .128.01.191.028.191.652 0 1.193-.038 1.621-.114a6.545 6.545 0 001.063-.268l.67-.306c.168-.102.336-.165.504-.191.074-.255.158-.408.251-.459a1.58 1.58 0 00.308-.382 7.182 7.182 0 00-.196-1.07 10.408 10.408 0 00-.251-1.032 8.008 8.008 0 00-.28-.841c-.075-.23-.112-.37-.112-.421a.514.514 0 01-.335-.114 2.147 2.147 0 01-.196-.23 1.132 1.132 0 01-.084-.229c-.018-.077-.037-.115-.056-.115-.205 0-.363-.063-.475-.191a.491.491 0 01-.168-.191c-.298 0-.53-.051-.699-.153a1.055 1.055 0 00-.559-.153c-.466.23-.969.395-1.51.497a3.157 3.157 0 00-1.397.65c-.224.255-.429.497-.615.726-.187.23-.354.484-.503.765-.15.28-.308.586-.476.917-.167.332-.335.727-.503 1.185a2.598 2.598 0 00-.196.612l-.056.611c0 .383.01.765.029 1.147.037.357.167.765.39 1.224.094.101.169.216.224.344l.112.191.168.191c.037 0 .065.076.084.229.037.128.065.191.084.191h.503c.224.179.4.332.531.459.13.102.252.178.364.229.111.026.233.051.363.077.13.025.298.038.503.038h.336c.13-.025.26-.038.391-.038h.364c.13 0 .288.025.475.076.41 0 .745-.025 1.006-.076.28-.077.55-.166.81-.268.28-.102.57-.191.867-.267a6.451 6.451 0 011.147-.153c.112-.051.242-.166.391-.344.168-.204.252-.332.252-.383 0-.076-.047-.114-.14-.114h.14zM73.604 168.514l-.112-.153a.702.702 0 00-.084-.344 9.695 9.695 0 01-.111-.421.515.515 0 00-.336.115 3.812 3.812 0 00-.307.191c-.094.051-.205.115-.336.191-.13.051-.307.077-.531.077h-.14c-.224.025-.42.038-.587.038-.149 0-.298.013-.447.038-.13 0-.28.013-.448.038h-.53a5.878 5.878 0 00-.867-.076 3.27 3.27 0 01-.811-.229l-.028.038c-.019 0-.037.013-.056.038h-.056l-.503-.229c-.093-.051-.14-.14-.14-.268 0-.102-.093-.28-.28-.535a1.563 1.563 0 01-.25-.879c0-.306.074-.612.223-.918.167-.306.344-.56.53-.764.206-.23.383-.408.532-.535.15-.128.205-.179.168-.153.037 0 .074-.026.112-.077a.342.342 0 00.084-.076c.037-.051.083-.102.14-.153a.97.97 0 01.335-.344c.149-.102.475-.204.978-.306.392-.102.7-.178.923-.229.242-.051.447-.077.615-.077H72.346c.056-.255.103-.433.14-.535.037-.102.13-.331.28-.688a6.134 6.134 0 01-.056-.879c.018-.357-.047-.548-.196-.574h-2.237a7.436 7.436 0 00-.81-.038c-.485.23-.998.395-1.538.497a2.965 2.965 0 00-1.37.65 12.72 12.72 0 00-.643.726c-.167.23-.335.484-.503.765-.15.28-.307.586-.475.917-.15.332-.317.727-.504 1.185-.074.204-.13.408-.167.612a6.935 6.935 0 00-.084.611c0 .383.01.765.028 1.147.037.357.177.765.42 1.224.074.101.148.216.223.344l.112.191.14.191c.037 0 .074.076.111.229.038.128.066.191.084.191h.475c.224.179.401.332.532.459.13.102.251.178.363.229l.391.077c.13.025.299.038.504.038h.307c.13-.025.261-.038.391-.038h.392c.13 0 .289.025.475.076.391 0 .718-.025.979-.076.28-.077.55-.166.81-.268.28-.102.569-.191.867-.267a6.56 6.56 0 011.174-.153c.093-.051.224-.166.392-.344.167-.204.251-.332.251-.383 0-.076-.056-.114-.168-.114h.168zM86.423 168.514l-.084-.153a.702.702 0 00-.084-.344 2.572 2.572 0 01-.14-.421.477.477 0 00-.307.115 3.812 3.812 0 00-.308.191c-.093.051-.214.115-.363.191-.13.051-.298.077-.503.077h-.14c-.224.025-.42.038-.587.038-.168 0-.326.013-.475.038-.15 0-.299.013-.448.038h-.53a95.928 95.928 0 01-.7-.152l-.14-.077h.028c.02 0-.009-.025-.083-.076-.019.025-.038.038-.056.038-.019 0-.038.013-.056.038h-.056a6.472 6.472 0 00-.503-.229c-.112-.051-.168-.14-.168-.268 0-.102-.093-.28-.28-.535a1.563 1.563 0 01-.251-.879c0-.383.028-.867.084-1.453.056-.611.167-1.096.335-1.452.15-.128.41-.268.783-.421a2.577 2.577 0 011.118-.268c.224 0 .391.051.503.153.13.077.233.179.308.306a.82.82 0 01.112.421c.018.127.028.255.028.382 0 .178-.047.306-.14.382a.733.733 0 01-.336.153c-.13.026-.26.038-.391.038-.13 0-.242.013-.336.039a5.654 5.654 0 01-1.313.382c.093.051.158.153.195.306.038.153.066.318.084.497.019.152.028.305.028.458 0 .128.01.191.028.191.652 0 1.193-.038 1.621-.114a6.54 6.54 0 001.063-.268l.67-.306a1.37 1.37 0 01.504-.191c.075-.255.158-.408.252-.459.093-.076.195-.203.307-.382a7.182 7.182 0 00-.196-1.07 10.408 10.408 0 00-.251-1.032 8.008 8.008 0 00-.28-.841c-.074-.23-.112-.37-.112-.421a.514.514 0 01-.335-.114 2.158 2.158 0 01-.196-.23 1.138 1.138 0 01-.084-.229c-.018-.077-.037-.115-.056-.115-.205 0-.363-.063-.475-.191a.493.493 0 01-.168-.191c-.298 0-.53-.051-.698-.153a1.055 1.055 0 00-.56-.153c-.465.23-.969.395-1.51.497a3.156 3.156 0 00-1.397.65c-.224.255-.429.497-.615.726-.186.23-.354.484-.503.765-.15.28-.308.586-.475.917-.168.332-.336.727-.504 1.185a2.589 2.589 0 00-.195.612l-.056.611c0 .383.01.765.028 1.147.037.357.167.765.391 1.224.093.101.168.216.224.344l.112.191.167.191c.038 0 .066.076.084.229.037.128.065.191.084.191h.503c.224.179.401.332.531.459.13.102.252.178.364.229.112.026.233.051.363.077.13.025.299.038.504.038h.335c.13-.025.26-.038.391-.038h.364c.13 0 .289.025.475.076.41 0 .745-.025 1.006-.076.28-.077.55-.166.811-.268.28-.102.569-.191.867-.267a6.45 6.45 0 011.146-.153c.112-.051.242-.166.391-.344.168-.204.252-.332.252-.383 0-.076-.047-.114-.14-.114h.14zM103.627 165.914l-.084-7.11c-.131-.407-.28-.802-.448-1.185-.167-.382-.391-.662-.671-.841l-2.74-.076-.866.115-.335.267-.671.153-1.342-1.109-1.51-.152-1.65.802-.335-.114-.14-.344-.698-.65-.615.114-1.258-.42-.56 1.453-.223 3.249v6.728l1.454.152.39-.267h1.483l.615-.191v-7.684h1.397l.336.65.112 1.453v5.237l.28.344h2.292l.615-.65-.28-2.638v-3.058l.056-.841 1.202.153.168.688.363 3.976v1.911l.727.421h2.684l.252-.536zM114.047 159.416l-.587.153h-.698c-.112 0-.168-.026-.168-.077l-1.65-.191v-.267l-.447-2.409v-1.72c.093 0 .14-.064.14-.191a2.72 2.72 0 00-.112-.65 5.129 5.129 0 01-.084-.994v-.229l-.503-.535h-1.426l-.503.65v9.938l-.531.115.168.115v6.728l.111.841h.42l.307-.306h1.845l1.23.497c.168 0 .364-.026.587-.077.224-.051.438-.153.643-.305l2.321-1.071c.186-.102.428-.293.727-.573.298-.281.587-.599.866-.956.299-.382.55-.79.755-1.223.205-.433.308-.841.308-1.223 0-.714-.038-1.313-.112-1.797a5.215 5.215 0 00-.364-1.3 3.735 3.735 0 00-.671-1.032 6.927 6.927 0 00-1.062-.994l-1.51-.917zm-2.795 2.638l.503-.153c.112-.051.214-.09.308-.115.093-.051.195-.102.307-.153h.112c.13 0 .307.038.531.115.224.051.457.114.699.191.242.076.475.165.699.267.224.102.391.192.503.268.093.076.252.306.475.688.224.357.336.816.336 1.376a1.2 1.2 0 01-.112.535 1.917 1.917 0 01-.28.421l-.335.382a1.33 1.33 0 00-.252.421 7.425 7.425 0 00-.726.305 8.59 8.59 0 01-.588.268c-.186.051-.382.102-.587.153a4.633 4.633 0 01-.615.038h-.195a.919.919 0 01-.224-.038h-.363v-.994l-.196-1.758v-2.217zM130.186 168.514l-.084-.153a.701.701 0 00-.084-.344 2.63 2.63 0 01-.14-.421.477.477 0 00-.307.115 3.885 3.885 0 00-.308.191c-.093.051-.214.115-.363.191a1.4 1.4 0 01-.503.077h-.14a5.382 5.382 0 01-.587.038c-.168 0-.326.013-.475.038a2.71 2.71 0 00-.448.038h-.531l-.699-.152-.14-.077h.028c.019 0-.009-.025-.083-.076-.019.025-.038.038-.056.038-.019 0-.038.013-.056.038h-.056a6.543 6.543 0 00-.503-.229c-.112-.051-.168-.14-.168-.268 0-.102-.093-.28-.28-.535a1.568 1.568 0 01-.251-.879c0-.383.028-.867.084-1.453.056-.611.167-1.096.335-1.452.149-.128.41-.268.783-.421a2.576 2.576 0 011.118-.268c.224 0 .391.051.503.153a.826.826 0 01.42.727c.018.127.028.255.028.382 0 .178-.047.306-.14.382a.732.732 0 01-.336.153c-.13.026-.261.038-.391.038-.131 0-.242.013-.336.039a5.638 5.638 0 01-1.313.382c.093.051.158.153.195.306.038.153.065.318.084.497.019.152.028.305.028.458 0 .128.009.191.028.191.652 0 1.193-.038 1.621-.114a6.556 6.556 0 001.063-.268l.671-.306c.167-.102.335-.165.503-.191.074-.255.158-.408.252-.459.093-.076.195-.203.307-.382a7.045 7.045 0 00-.196-1.07 10.306 10.306 0 00-.251-1.032 8 8 0 00-.28-.841c-.074-.23-.112-.37-.112-.421a.513.513 0 01-.335-.114 2.106 2.106 0 01-.196-.23 1.176 1.176 0 01-.084-.229c-.018-.077-.037-.115-.056-.115-.205 0-.363-.063-.475-.191a.503.503 0 01-.168-.191c-.298 0-.531-.051-.698-.153a1.059 1.059 0 00-.56-.153 5.84 5.84 0 01-1.509.497 3.156 3.156 0 00-1.398.65c-.224.255-.429.497-.615.726a4.75 4.75 0 00-.503.765c-.149.28-.308.586-.475.917-.168.332-.336.727-.504 1.185a2.586 2.586 0 00-.195.612l-.056.611c0 .383.009.765.028 1.147.037.357.167.765.391 1.224.093.101.168.216.224.344l.112.191.167.191c.038 0 .066.076.084.229.037.128.065.191.084.191h.503c.224.179.401.332.531.459.131.102.252.178.364.229.112.026.233.051.363.077.131.025.298.038.503.038h.336c.13-.025.261-.038.391-.038h.364c.13 0 .289.025.475.076.41 0 .745-.025 1.006-.076.28-.077.55-.166.811-.268.28-.102.569-.191.867-.267a6.454 6.454 0 011.146-.153c.112-.051.242-.166.391-.344.168-.204.252-.332.252-.383 0-.076-.047-.114-.14-.114h.14zM141.603 157.734l-1.063-2.294-.363.153-1.873 2.064-.839 1.988-.587.765v-2.638l-.755-2.217h-1.621l-.447.688v9.786l-.14.421.056.993 3.075-.344.475-.382v-.764l.14-1.224-.14-2.026c.131-.127.233-.28.308-.458l.279-.536c.112-.178.233-.369.364-.573.149-.229.326-.446.531-.65l1.286-1.338c.205-.204.41-.42.615-.65.223-.229.456-.484.699-.764zM157.248 152.42l-.531-.42h-2.181l-.587.535-.391 5.619-.392 3.555.531 1.071 1.51.114c.298.051.68.141 1.146.268.466.128.913.28 1.342.459.447.178.82.42 1.118.726.317.306.476.701.476 1.185 0 .357-.149.675-.448.956-.279.28-.633.522-1.062.726-.41.204-.848.357-1.314.459a7.383 7.383 0 01-1.23.114h-.391l-2.377.192v3.478l.587.994 4.138-.42 2.6-1.453.95-1.147.364-.611.838-2.753.112-1.796-.671-2.256-1.593-1.72-2.125-.764-.866-.268-.056-.191.223-2.944h4.893l.615-.802v-2.6l-.224-.535h-2.963l-2.041.229zM172.39 161.251l.727-.038c.093.051.177.089.252.114a.967.967 0 00.307.038.676.676 0 00.224-.038c.093-.025.177-.051.251-.076a1.27 1.27 0 01.336-.038c.149-.026.335-.039.559-.039.074 0 .14.013.196.039h.223c.038 0 .112-.051.224-.153-.093 0-.14-.09-.14-.268 0-.025.009-.102.028-.229.019-.128.028-.217.028-.268-.019 0-.028-.064-.028-.191 0-.102.019-.178.056-.229-.13-.128-.196-.255-.196-.383a1.03 1.03 0 00-.112-.458.678.678 0 01-.251.076h-.28a.965.965 0 00-.139-.076c-.056-.026-.159-.039-.308-.039a6.92 6.92 0 00-.671-.076 22.7 22.7 0 00-.811-.076 19.422 19.422 0 01-1.034-.115l-.28-4.243-.251-.497-1.845.229-.448.879-.083 3.441h-.755a6.562 6.562 0 00-.699-.039 2.17 2.17 0 01-.308.115h-.447c-.13 0-.261-.025-.391-.076h-.448l-.419.497v.688c0 .255.009.509.028.764a5.7 5.7 0 00.14.688c.056.179.13.293.223.344l.224.268h.419a9.67 9.67 0 01.504-.115c.018-.051.102-.076.251-.076.112 0 .224.013.336.038a.83.83 0 01.251.076h.168a.703.703 0 01.224-.038l.391-.038-.112.765v4.969l.112 2.179.308.879.698-.153 2.293.23 1.565-.306c.112-.434.168-.867.168-1.3 0-.433-.056-.892-.168-1.376l-1.09-.803v-5.466zM187.448 159.798a4.623 4.623 0 01-.307-.153 1.269 1.269 0 00-.28-.114l-.587-.268h-3.466l-.112-.344v-6.537l-1.566-.229-.531.306-.419 6.078-.364 1.911-.475 7.416.252 1.911h2.628l.698-.229v-8.104l.56-.115 1.425-.114c.224.076.41.191.559.344.168.152.299.318.392.497.093.178.158.344.195.496.056.153.094.281.112.383.038.153.084.293.14.42.056.102.084.255.084.459v.382c0 .128-.009.306-.028.535l.14.039-.14.649v2.676l-.168.803.252.994h1.146l.727.191 1.342-.956v-1.223l.028-.497-.559-5.351a2.748 2.748 0 01-.559-.612 15.54 15.54 0 00-.336-.65 4.059 4.059 0 00-.307-.612.932.932 0 00-.476-.382zM192.175 170.846l.14 2.714 1.509.382-.335 2.905.95.153.559-.382.336-2.103v-2.637l-.14-2.256h-1.985l-.894.344-.14.88zM216.666 168.399v-3.096l-.811-.153-1.341.115-1.706-.153-1.761.42.895-.841 1.034-1.452 1.901-3.059 1.006-3.402v-.879l-.167-1.032-.643-.841-1.23-.726-.727-.306-3.858-.421c-.373.051-.68.115-.923.192-.223.05-.484.076-.783.076a8.543 8.543 0 00-.195.841c-.037.28-.056.573-.056.879 0 .331.019.663.056.994.056.331.102.624.14.879l.391.535.839.153h2.236l2.041.727.112.879-3.02 4.205-3.019 2.484-.307 1.262v2.599l.559.535 2.152-.344 1.258.077h5.564l.363-1.147zM233.094 157.696a6.167 6.167 0 00-.335-1.453 7.404 7.404 0 00-.587-1.3 5.834 5.834 0 00-.699-1.032 12.635 12.635 0 00-.699-.879c-.578 0-1.183-.051-1.817-.153a8.895 8.895 0 00-1.733-.191 1.718 1.718 0 01-.476.191c-.13.026-.251.038-.363.038-.112 0-.214.013-.308.039a.89.89 0 00-.279.191.95.95 0 01-.336.076h-.028c-.354.23-.624.459-.81.688-.187.23-.364.459-.531.688-.15.23-.327.459-.532.688-.205.23-.494.459-.866.689 0 .203-.01.344-.028.42-.019.076-.093.115-.224.115l-1.286 2.561c-.018.204-.046.446-.084.726-.018.255-.046.51-.084.765a11.171 11.171 0 00-.111 1.185c.018.866.056 1.554.111 2.064.056.484.122.917.196 1.3.075.356.159.739.252 1.146.093.383.177.892.251 1.529.038.077.094.179.168.306.093.102.196.204.308.306l.475.65c.335.255.615.446.839.573.223.102.447.179.67.23.224.051.476.089.755.114.28.026.625.09 1.035.191.205.077.419.115.643.115.335 0 .652-.038.95-.115.298-.076.494-.114.587-.114h.084a.92.92 0 01.308-.153c.149-.077.27-.178.363-.306.242-.331.503-.637.783-.917.298-.306.587-.612.866-.918a5.63 5.63 0 00.811-1.07c.261-.433.475-.956.643-1.567.037-.179.084-.37.14-.574.056-.229.186-.611.391-1.147.056 0 .121-.178.196-.535.074-.357.14-.777.196-1.261.074-.484.13-.969.167-1.453.056-.509.084-.917.084-1.223 0-.204-.009-.395-.028-.573 0-.204-.009-.421-.028-.65zm-2.767 1.911c-.056.204-.14.522-.252.956a30.79 30.79 0 01-.307 1.223 7.603 7.603 0 01-.392 1.108c-.13.332-.27.51-.419.536l-.28.879c.019.076-.149.28-.503.611-.335.306-.894.536-1.677.689-.503-.153-.895-.306-1.174-.459a2.208 2.208 0 01-.643-.497 1.745 1.745 0 01-.28-.573 8.56 8.56 0 00-.224-.689c-.167-.305-.251-.535-.251-.688 0-.382.028-.739.084-1.07.056-.331.121-.701.195-1.109l.587-1.529c.15-.152.252-.28.308-.382.056-.102.093-.204.112-.306a.756.756 0 00.056-.229c.018-.076.046-.178.084-.306l1.034-.611.503-.344c.168-.128.364-.255.587-.383.392.102.83.179 1.314.23.242.331.457.637.643.917.205.255.438.51.699.765 0 .127.028.331.084.611.074.281.112.497.112.65zM247.516 168.399v-3.096l-.811-.153-1.342.115-1.705-.153-1.761.42.894-.841 1.035-1.452 1.901-3.059 1.006-3.402v-.879l-.168-1.032-.643-.841-1.23-.726-.727-.306-3.857-.421a5.638 5.638 0 00-.923.192 3.62 3.62 0 01-.783.076c-.074.255-.14.535-.195.841-.038.28-.056.573-.056.879 0 .331.018.663.056.994.055.331.102.624.139.879l.392.535.838.153h2.237l2.041.727.111.879-3.019 4.205-3.019 2.484-.308 1.262v2.599l.56.535 2.152-.344 1.258.077h5.563l.364-1.147zM263.944 157.696a6.217 6.217 0 00-.335-1.453 7.404 7.404 0 00-.587-1.3 5.834 5.834 0 00-.699-1.032 13.259 13.259 0 00-.699-.879c-.578 0-1.184-.051-1.817-.153a8.896 8.896 0 00-1.734-.191 1.702 1.702 0 01-.475.191 1.86 1.86 0 01-.363.038c-.112 0-.215.013-.308.039a.878.878 0 00-.279.191.954.954 0 01-.336.076h-.028c-.354.23-.624.459-.811.688-.186.23-.363.459-.531.688-.149.23-.326.459-.531.688-.205.23-.494.459-.867.689 0 .203-.009.344-.027.42-.019.076-.094.115-.224.115l-1.286 2.561c-.019.204-.047.446-.084.726-.019.255-.047.51-.084.765a11.948 11.948 0 00-.112 1.185c.019.866.056 1.554.112 2.064.056.484.121.917.196 1.3.074.356.158.739.251 1.146.094.383.178.892.252 1.529.037.077.093.179.168.306.093.102.196.204.307.306l.476.65c.335.255.615.446.838.573.224.102.448.179.671.23.224.051.475.089.755.114.28.026.624.09 1.034.191.205.077.42.115.643.115.336 0 .653-.038.951-.115.298-.076.494-.114.587-.114h.084a.922.922 0 01.307-.153c.149-.077.271-.178.364-.306.242-.331.503-.637.783-.917.298-.306.587-.612.866-.918.298-.306.569-.662.811-1.07.261-.433.475-.956.643-1.567.037-.179.084-.37.14-.574.056-.229.186-.611.391-1.147.056 0 .121-.178.196-.535.074-.357.139-.777.195-1.261.075-.484.131-.969.168-1.453.056-.509.084-.917.084-1.223 0-.204-.009-.395-.028-.573 0-.204-.009-.421-.028-.65zm-2.768 1.911c-.055.204-.139.522-.251.956-.093.407-.196.815-.308 1.223a7.488 7.488 0 01-.391 1.108c-.131.332-.27.51-.419.536l-.28.879c.019.076-.149.28-.503.611-.336.306-.895.536-1.678.689-.503-.153-.894-.306-1.174-.459a2.222 2.222 0 01-.643-.497 1.762 1.762 0 01-.279-.573 8.979 8.979 0 00-.224-.689c-.168-.305-.251-.535-.251-.688 0-.382.028-.739.083-1.07.056-.331.122-.701.196-1.109l.587-1.529c.149-.152.252-.28.308-.382.056-.102.093-.204.112-.306a.747.747 0 00.055-.229c.019-.076.047-.178.084-.306l1.035-.611.503-.344c.168-.128.363-.255.587-.383a8.92 8.92 0 001.314.23c.242.331.456.637.643.917.205.255.438.51.699.765 0 .127.028.331.084.611.074.281.111.497.111.65z"/></g><g filter="url(#filter1_i)" fill="#56321E"><path d="M84.334 132.939l-.942-1.404h-3.47l-1.37.55-2.056-.367-1.114.367-.3-1.343v-13.244l-1.028-3.723-.343-6.043-.385-.732-2.87.366-.642 1.343v5.798L69 120.366v11.352l.171 3.418.514 1.404 1.071-.305 3.47.427 1.327-.549 4.455.427 1.799-.855 2.141.306.386-3.052zM102.732 133l-.128-.244c0-.204-.043-.387-.129-.549a4.172 4.172 0 01-.214-.672.708.708 0 00-.471.183 5.7 5.7 0 00-.471.305c-.143.082-.329.184-.557.306-.2.081-.457.122-.771.122h-.214c-.343.04-.643.061-.9.061s-.5.02-.728.061c-.228 0-.457.02-.685.061h-.814c-.543-.122-.9-.204-1.071-.244l-.214-.122h.043c.028 0-.015-.041-.129-.122-.028.04-.057.061-.085.061-.029 0-.058.02-.086.061h-.086a9.96 9.96 0 00-.77-.367c-.172-.081-.258-.223-.258-.427 0-.163-.142-.447-.428-.854a2.573 2.573 0 01-.386-1.404c0-.61.043-1.383.129-2.319.086-.977.257-1.75.514-2.32.228-.203.628-.427 1.2-.671a3.807 3.807 0 011.713-.427c.342 0 .6.081.77.244.2.122.357.285.472.488.114.204.171.428.171.672.028.203.043.407.043.61 0 .285-.072.488-.214.61a1.112 1.112 0 01-.514.244c-.2.041-.4.061-.6.061-.2 0-.371.021-.514.061-.571.245-1.042.407-1.413.489-.343.081-.543.122-.6.122.143.081.243.244.3.488.057.244.1.509.128.794.029.244.043.488.043.732 0 .203.014.305.043.305 1 0 1.827-.061 2.484-.183s1.2-.265 1.628-.427l1.028-.489c.257-.162.514-.264.771-.305.114-.407.242-.651.385-.732.143-.122.3-.326.471-.61-.057-.57-.157-1.14-.299-1.709a17.232 17.232 0 00-.386-1.648 13.3 13.3 0 00-.428-1.343c-.114-.366-.172-.59-.172-.671a.766.766 0 01-.514-.183 3.393 3.393 0 01-.3-.367 1.87 1.87 0 01-.128-.366c-.029-.122-.057-.183-.086-.183-.314 0-.556-.102-.728-.305a.77.77 0 01-.257-.305c-.457 0-.813-.082-1.07-.244a1.566 1.566 0 00-.857-.244 8.74 8.74 0 01-2.313.793c-.8.163-1.513.509-2.142 1.037a40.1 40.1 0 00-.942 1.16 7.558 7.558 0 00-.771 1.221c-.228.447-.471.936-.728 1.465a18.001 18.001 0 00-.771 1.892 4.256 4.256 0 00-.3.976l-.086.977c0 .61.015 1.22.043 1.831.057.569.257 1.22.6 1.953a2 2 0 01.343.549l.17.305.258.305c.057 0 .1.122.128.366.057.204.1.306.129.306h.77c.343.284.615.529.815.732.2.163.385.285.556.366.172.041.357.082.557.122.2.041.457.061.771.061h.514c.2-.04.4-.061.6-.061h.557c.2 0 .442.041.728.122.628 0 1.142-.04 1.542-.122a11.97 11.97 0 001.242-.427c.428-.163.87-.305 1.328-.427a9.602 9.602 0 011.756-.244c.171-.082.371-.265.6-.55.257-.325.385-.529.385-.61 0-.122-.071-.183-.214-.183h.214zM107.546 113.836c.199 0 .371.122.514.366.171.244.314.529.428.854.143.326.271.611.385.855.115.244.215.366.3.366.286-.081.714-.244 1.285-.488.6-.285 1.242-.57 1.928-.855a27.3 27.3 0 012.056-.732c.685-.204 1.242-.305 1.67-.305.228 0 .386.061.471.183a.816.816 0 01.214.427l.086.488a.692.692 0 00.3.305c.057.123.143.245.257.367.114.081.171.244.171.488a6.485 6.485 0 00-.257 1.404c-.028.407-.043.793-.043 1.159v.367l-1.242.122-.599.122h-.686l-1.285 1.037c-.371 0-.685.061-.942.183a2.988 2.988 0 00-.814.428c-.257.162-.557.345-.899.549-.343.203-.8.407-1.371.61-1.371.977-2.399 2.157-3.084 3.54-.657 1.383-.985 3.092-.985 5.127 0 .651.157 1.302.471 1.953.314.61.7 1.18 1.157 1.709a8.18 8.18 0 001.413 1.22c.486.285.914.428 1.285.428h1.199c.372.04.743.061 1.114.061h2.399c.057 0 .1-.061.128-.183a2.04 2.04 0 00.171-.306.831.831 0 01.386-.366c.2-.122.471-.183.814-.183.371 0 .756.163 1.156.488.4.285.743.428 1.028.428.229 0 .443-.021.643-.061.2-.041.399-.102.599-.183.229-.082.486-.143.771-.184a3.62 3.62 0 01.985-.122c.086.204.243.387.472.55h.599c.029-.204.086-.387.172-.55.085-.203.185-.468.299-.793a52.933 52.933 0 00-.128-2.502 423.63 423.63 0 00-.086-2.076c0-.691-.014-1.403-.043-2.136 0-.732-.014-1.566-.042-2.502h.128c.029-.041.057-.061.086-.061-.086 0-.157-.163-.214-.488-.058-.326-.1-.651-.129-.977a44.286 44.286 0 00-.086-.976v-.489c-.028-.325-.085-.569-.171-.732a10.873 10.873 0 00-.214-.671 49.064 49.064 0 01-.214-1.16c-.057-.488-.1-1.282-.129-2.38-.085-.082-.157-.326-.214-.733-.057-.407-.114-.834-.171-1.281-.029-.489-.057-.936-.086-1.343 0-.448-.014-.712-.043-.794h-.085c-.229 0-.414-.183-.557-.549a10.43 10.43 0 01-.386-1.221c-.114-.447-.214-.834-.3-1.159-.085-.366-.185-.549-.299-.549l-.172-.245a2.075 2.075 0 00-.171-.305h-1.927c-.143 0-.3-.02-.472-.061a8.738 8.738 0 01-.642-.183c-.029.204-.2.346-.514.427a7.012 7.012 0 01-.985.061h-.985c-.286 0-.443.061-.472.184-.771.366-1.47.671-2.098.915a8.314 8.314 0 00-1.585.793c-.428.245-.785.55-1.071.916-.285.325-.5.793-.642 1.404zm9.294 10.253v3.113a11.639 11.639 0 00-.257 2.014c-.028.692-.043 1.2-.043 1.526v.488h-.599c-.571.081-1.1.142-1.585.183l-1.414.122-2.998.244c-.2-.488-.371-.874-.514-1.159-.114-.285-.171-.712-.171-1.282 0-1.139.1-2.034.3-2.685.228-.651.528-1.14.899-1.465.4-.366.857-.631 1.371-.794a45.527 45.527 0 001.627-.549c.286-.122.543-.224.771-.305.257-.081.5-.122.729-.122h.171l.857.366c.314.122.599.224.856.305zM141.138 115.789l-1.628-3.662-.556.244-2.87 3.296-1.285 3.173-.9 1.221v-4.211l-1.156-3.54h-2.484l-.686 1.098v15.625l-.214.671.086 1.587 4.711-.549.729-.611v-1.22l.214-1.953-.214-3.235c.199-.203.357-.448.471-.732l.428-.855c.171-.285.357-.59.557-.915.228-.367.5-.712.814-1.038l1.97-2.136c.314-.326.628-.671.942-1.038.343-.366.7-.773 1.071-1.22zM158.668 115.3l-.685-.793h-2.956l-2.484 1.465-.985.61-.899.549-1.328-3.417h-2.999l-.771 1.586V127.507l.6 2.014 1.114-.61h.685l.643.549 2.056-.732-.257-5.859-.086-.123v-2.441l2.741-.427.771-.61h.514l.985 2.014-.685 7.08.557.671h4.454l.429-.733v-7.323l.171-1.404-1.585-4.273zM195.457 121.038l-.214-2.747-.857-3.296-.086-.732-.299-.671-2.784-3.601-.557-.55-6.125-2.014h-4.626l-.728 1.099v26.549l1.199 1.221 3.212-.488 6.125-3.357 3.127-4.761.172-.671.471-.122 1.97-5.859zm-4.626-4.517v7.263l-.428 1.953-.9 1.892-1.156 1.648-2.227.61-1.799.794.128-3.235v-12.817l.343-2.441 3.212.427 1.799 2.38 1.028 1.526zM201.366 113.836c.2 0 .372.122.514.366.172.244.315.529.429.854.143.326.271.611.385.855.114.244.214.366.3.366.286-.081.714-.244 1.285-.488.6-.285 1.242-.57 1.927-.855.714-.285 1.4-.529 2.056-.732.686-.204 1.243-.305 1.671-.305.228 0 .385.061.471.183a.816.816 0 01.214.427l.086.488a.692.692 0 00.3.305c.057.123.142.245.257.367.114.081.171.244.171.488a6.485 6.485 0 00-.257 1.404c-.029.407-.043.793-.043 1.159v.367l-1.242.122-.6.122h-.685l-1.285 1.037c-.371 0-.685.061-.942.183a2.988 2.988 0 00-.814.428c-.257.162-.557.345-.899.549-.343.203-.8.407-1.371.61-1.371.977-2.399 2.157-3.084 3.54-.657 1.383-.985 3.092-.985 5.127 0 .651.157 1.302.471 1.953.314.61.7 1.18 1.156 1.709.457.488.929.895 1.414 1.22.485.285.914.428 1.285.428h1.199c.371.04.743.061 1.114.061H208.262c.058 0 .1-.061.129-.183a2.04 2.04 0 00.171-.306.826.826 0 01.386-.366c.2-.122.471-.183.814-.183.371 0 .756.163 1.156.488.4.285.742.428 1.028.428.228 0 .443-.021.642-.061.2-.041.4-.102.6-.183.229-.082.486-.143.771-.184a3.62 3.62 0 01.985-.122c.086.204.243.387.471.55h.6c.029-.204.086-.387.171-.55.086-.203.186-.468.3-.793a52.933 52.933 0 00-.128-2.502 423.63 423.63 0 00-.086-2.076c0-.691-.014-1.403-.043-2.136 0-.732-.014-1.566-.043-2.502h.129c.028-.041.057-.061.086-.061-.086 0-.158-.163-.215-.488a11.26 11.26 0 01-.128-.977 44.286 44.286 0 00-.086-.976v-.489c-.028-.325-.085-.569-.171-.732a11.602 11.602 0 00-.214-.671 49.064 49.064 0 01-.214-1.16c-.058-.488-.1-1.282-.129-2.38-.086-.082-.157-.326-.214-.733-.057-.407-.114-.834-.171-1.281-.029-.489-.058-.936-.086-1.343 0-.448-.014-.712-.043-.794h-.086c-.228 0-.414-.183-.556-.549a10.43 10.43 0 01-.386-1.221c-.114-.447-.214-.834-.3-1.159-.085-.366-.185-.549-.3-.549l-.171-.245a2.075 2.075 0 00-.171-.305H210.832c-.142 0-.299-.02-.471-.061a8.738 8.738 0 01-.642-.183c-.029.204-.2.346-.514.427a7.012 7.012 0 01-.985.061h-.986c-.285 0-.442.061-.471.184-.771.366-1.47.671-2.098.915a8.314 8.314 0 00-1.585.793c-.429.245-.786.55-1.071.916-.286.325-.5.793-.643 1.404zm9.295 10.253v3.113a11.639 11.639 0 00-.257 2.014c-.029.692-.043 1.2-.043 1.526v.488h-.599c-.572.081-1.1.142-1.585.183l-1.414.122-2.998.244c-.2-.488-.371-.874-.514-1.159-.114-.285-.171-.712-.171-1.282 0-1.139.1-2.034.3-2.685.228-.651.528-1.14.899-1.465.4-.366.857-.631 1.371-.794a45.527 45.527 0 001.627-.549c.286-.122.543-.224.771-.305.257-.081.5-.122.728-.122h.172l.856.366c.314.122.6.224.857.305zM227.763 132.695l-4.283 11.84.557 1.465h.599l.472-.488h2.955l.857-.977.599-2.746 1.028-3.662 1.328-2.991.514-1.221v-1.159h-.214l.599-1.343 1.157-1.465 1.285-4.333 1.328-2.746.942-2.32.514-2.197v-1.16h-3.555l-1.628 2.991-.814 2.502-.728 1.282-.428 1.709-.428.244-.386.672-.514.305-3.341-4.028-.385-.733-2.956-4.638-.428-.244-2.227.305-.129.61 2.827 6.531.728 1.953 3.684 5.065.128.611.472.366h-.129z"/></g><g filter="url(#filter2_d)"><path d="M271.352 5.689l-1.114-4.372L9.972 2.505l.024 5.314 10.338 10.894L9.28 42.52l.014 3.126L269.34 44.46l.642-3.129-8.169-15.28 9.539-20.362z" fill="#785340"/><path d="M10.813 5.483c-1.11-1.295-.195-3.294 1.51-3.302l255.875-1.167a2 2 0 011.878 2.71l-8.138 21.422a1.996 1.996 0 00.154 1.738l7.404 12.368c.796 1.33-.157 3.02-1.707 3.027L11.337 43.45a2 2 0 01-1.823-2.842l10.489-22.605a2 2 0 00-.296-2.143L10.813 5.483z" fill="#AD795E"/><path d="M17.729 23.413c6.23.903 18.617 3.564 19.922 5.033 4.737 5.336-21.37 6.227-24.687 6.242" stroke="#CC9477"/><path d="M89.087 43.347l-.303.398.797.604.302-.398-.796-.604zm64.162-6.233l-.158-.474.158.474zm34.194-1.312l.061.496-.061-.496zm31.547 1.012l-.125-.484.125.484zm-199.634 8.3c1.945-.934 5.597-2.681 9.098-4.196 1.75-.758 3.457-1.454 4.889-1.961a23.794 23.794 0 011.898-.598c.548-.142.962-.211 1.235-.212l-.005-1c-.4.002-.911.096-1.481.244-.579.15-1.25.364-1.98.623-1.464.518-3.193 1.225-4.953 1.986-3.52 1.524-7.189 3.279-9.134 4.213l.433.901zm17.12-6.967c.352-.002.878.09 1.564.273.677.181 1.474.443 2.355.762 1.762.638 3.826 1.49 5.868 2.349 2.037.856 4.055 1.718 5.704 2.364a34.99 34.99 0 002.18.787c.592.186 1.123.317 1.498.315l-.004-1c-.201 0-.596-.081-1.195-.27a34.042 34.042 0 01-2.114-.764c-1.635-.64-3.634-1.494-5.681-2.354-2.041-.858-4.127-1.72-5.916-2.367a30.94 30.94 0 00-2.436-.788c-.706-.19-1.338-.31-1.828-.307l.005 1zm53.407 5.804a.381.381 0 01-.094.088l.013-.006a3.504 3.504 0 01.374-.119c.308-.081.75-.178 1.315-.288 1.127-.22 2.706-.485 4.594-.781 3.775-.591 8.763-1.3 13.788-2.002 5.023-.702 10.084-1.398 13.998-1.961 1.957-.282 3.63-.532 4.871-.733.62-.1 1.135-.189 1.525-.264.37-.072.676-.14.839-.204l-.369-.93c-.058.023-.264.075-.66.152a53.2 53.2 0 01-1.495.26c-1.231.199-2.898.447-4.853.729-3.912.563-8.967 1.258-13.994 1.96-5.025.703-10.02 1.412-13.804 2.005-1.892.296-3.486.564-4.631.787-.572.111-1.04.214-1.382.304-.169.045-.318.09-.437.136-.059.023-.12.05-.178.082a.686.686 0 00-.216.18l.796.605zm41.223-6.27c.046-.019.161-.047.373-.071.202-.023.459-.04.77-.049.62-.018 1.424-.009 2.362.019 1.876.055 4.248.18 6.699.29 2.445.11 4.963.203 7.109.19 2.119-.014 3.956-.13 4.987-.471l-.315-.95c-.856.284-2.534.407-4.679.42-2.118.014-4.614-.078-7.057-.187-2.438-.11-4.829-.236-6.715-.292a43.204 43.204 0 00-2.421-.018c-.325.01-.613.027-.854.054-.23.026-.453.066-.628.135l.369.93zm22.3-.092c5.568-1.845 11.602-1.879 17.509-1.588 5.869.288 11.662.905 16.589.297l-.122-.992c-4.814.593-10.456-.01-16.418-.304-5.924-.291-12.117-.27-17.873 1.637l.315.95zm34.098-1.29c1.269-.157 3.512-.092 6.298.084 2.771.174 6.027.453 9.302.709 3.27.255 6.557.488 9.372.568 2.795.08 5.189.012 6.639-.361l-.25-.969c-1.294.333-3.553.41-6.361.33-2.788-.079-6.052-.31-9.322-.565-3.264-.255-6.536-.535-9.318-.71-2.768-.174-5.105-.249-6.482-.08l.122.993zm31.611 1c1.314-.339 3.391-.521 5.877-.616 2.475-.094 5.312-.1 8.126-.098 2.81.002 5.599.01 7.961-.054 2.344-.065 4.329-.203 5.5-.515l-.257-.966c-1.041.276-2.909.416-5.271.481-2.344.065-5.115.056-7.932.054-2.812-.002-5.668.004-8.165.099-2.485.094-4.659.278-6.089.646l.25.969zm27.464-1.283c2.275-.605 5.303-2.215 8.293-3.685 3.045-1.497 6.057-2.851 8.431-3.084l-.098-.995c-2.586.253-5.763 1.701-8.774 3.181-3.065 1.507-5.959 3.045-8.109 3.617l.257.966z" fill="#CC9477"/><path d="M22.01 2.137C37.347 5.499 69.013 12.266 72.974 12.43c4.951.206 31.469-.143 38.188-.174 6.718-.03 26.667-6.3 31.437-7.009 4.771-.708 12.73-.058 19.094-.087 6.365-.029 23.356 4.013 27.064 3.08 3.709-.932 22.274-.559 27.572-1.956 5.297-1.397 13.613-.062 20.684-.094 7.072-.032 22.278.356 26.336-1.493 3.247-1.48 5.878-1.66 7.114-1.819" stroke="#CC9477"/><path d="M14.155 7.8c11.52.764 31.354 6.132 43 11.373 14.559 6.55 57.696 3.035 60.96 2.418 5.311-1.005 21.933-8.189 29.551-8.223 7.618-.035 29.249 3.298 32.615 3.282 3.367-.015 26.748-1.347 30.999-1.611 4.251-.265 17.363-.08 22.858.63 5.496.71 17.177-2.039 18.064-1.798.887.242 12.735-.058 14.152-.064" stroke="#CC9477"/><path d="M18.121 13.72c9.774.583 20.505 5.385 25.475 11.003 6.213 7.022 12.766 11.222 19.833 12.13 7.068.908 15.165-4.77 22.76-4.569 7.594.2 36.369-1.576 43.427-2.783 7.058-1.207 23.463-5.277 27.877-5.297 4.415-.02 31.263 1.502 36.564 2.183 5.301.681 16.235-2.424 21.179-2.447l28.077-.128c2.119-.01 8.287-2.858 12.348-2.876l7.003-.032" stroke="#CC9477"/><g filter="url(#filter3_i)" fill="#56321E"><path d="M79.277 21.067c-.05.71-.09 1.354-.122 1.933a57.34 57.34 0 00-.018 1.735c.002.446.012.88.032 1.3.037.42.126.854.267 1.3l.29.63 3.672 1.836.471-.002c.14 0 .262-.014.366-.041l.366-.16c.122-.079.27-.211.443-.396l2.844-1.63c.487-.264.974-.727 1.46-1.386.502-.686.917-1.502 1.244-2.45l-.002-.355c-.008-1.892-.295-3.586-.86-5.082-.548-1.522-1.364-2.688-2.45-3.497-.035-.08-.113-.118-.235-.118-.088 0-.218.014-.393.042-.156.026-.305.04-.444.041-.175 0-.34-.012-.498-.037-.14-.052-.218-.17-.237-.354l-2.508.682c-.435.212-.87.49-1.305.834a6.184 6.184 0 00-1.145 1.267 7.494 7.494 0 00-.856 1.699c-.224.658-.351 1.394-.382 2.21zm6.371-2.75c.298.183.612.34.944.47.332.13.63.312.892.547.28.21.526.497.737.864.228.367.397.88.504 1.536l-.906 2.172-3.63 1.279-.472.002-.843-1.297.141-3.55c.139-.158.278-.342.416-.553.156-.238.32-.462.494-.673.174-.237.356-.435.547-.594a.92.92 0 01.653-.279c.157 0 .331.025.523.077zM102.346 21.396l-.803-4.097-1.311-.428-.39.318.029 6.426-.313.317-.445.002-1.33.676-.29-.156-.107-.591-.211-.472-.02-4.337-.454-2.048-1.962.009-.418.199-.198 2.563.451 1.339-.268 4.298.585 2.166.63.313.736.706.574-.279.103-.276.917.154.521-.397 1.04-1.582.339-.238.263.393-.077.276.631.628 1.569-.007.234-.474-.025-5.401zM114.084 18.228l-1.005-2.361-.34.159-1.743 2.137-.775 2.053-.546.791-.013-2.72-.716-2.283-1.518.007-.415.711.046 10.093-.129.434.057 1.025 2.876-.368.443-.396-.003-.789.125-1.262-.141-2.089c.122-.132.217-.29.286-.474l.259-.553c.104-.185.216-.382.338-.593a4 4 0 01.494-.673l1.197-1.385c.191-.211.382-.436.572-.673.209-.237.425-.501.651-.791zM134.87 28.699l-.498-.234-5.363.024-.262-.038-.332-4.02-.007-1.34 2.875-.881.811-.004 1.019-.28.311-.593-.162-1.143-1.727.008-.524-.076-2.091.364-.68.003-.241-1.063-.41-4.02.182-.237 5.596-.657.469-.396-.009-1.932-1.049-.507-2.091.482-2.64.564-.368-.432-2.329.01-.157-.077-.363.632.032 7.176.134.55.029 6.506-.228 1.617.16.552.011 2.483 5.207-.023 1.018-.478 2.378-.72 1.124-.124c.069-.21.129-.369.181-.474.069-.132.104-.21.104-.237l-.002-.276a6.597 6.597 0 01-.053-.276 27.401 27.401 0 01-.055-.433zM146.224 16.977l-.106-.315-1.622.008-.969-.114-.597 1.146.029.433-1.934 6.238-.432-2.757-1.09-3.938-.583-1.614-.314.041-.602-.116-.314.08-.258.712 1.254 5.356 1.067 4.49.081.551.343.59 1.517-.007 1.228-.36.569-1.462 1.059-3.04.721-2.527.464-1.46.024-.553.363-.83.102-.552zM158.358 29.144l-.079-.158a.788.788 0 00-.081-.354 2.748 2.748 0 01-.132-.433.421.421 0 00-.288.12c-.087.053-.182.119-.287.198-.087.053-.2.12-.339.199-.122.053-.279.08-.47.08l-.131.001a4.478 4.478 0 01-.549.042c-.157 0-.306.015-.445.042-.14 0-.279.014-.418.04-.14.002-.306.002-.498.003l-.654-.154-.132-.079h.027c.017 0-.009-.026-.079-.078-.018.026-.035.04-.052.04-.018 0-.035.013-.053.039h-.052a5.809 5.809 0 00-.472-.234c-.105-.052-.158-.144-.158-.275-.001-.106-.089-.29-.264-.551a1.74 1.74 0 01-.24-.906c-.002-.394.022-.894.072-1.498.049-.632.152-1.131.307-1.5.139-.132.382-.278.73-.437a2.23 2.23 0 011.046-.28c.209-.002.366.05.471.155a.837.837 0 01.29.314c.07.13.106.275.106.433.018.131.028.263.028.394.001.184-.042.316-.129.395a.667.667 0 01-.313.16c-.122.026-.244.04-.366.04a1.1 1.1 0 00-.314.041 4.87 4.87 0 01-1.228.4c.088.052.149.157.185.314a4.5 4.5 0 01.081.513c.018.157.027.315.028.473.001.131.01.197.027.197.61-.003 1.116-.045 1.517-.125.401-.081.732-.175.993-.281l.626-.318c.157-.106.314-.173.47-.2.069-.263.147-.42.234-.474.087-.079.182-.21.286-.395a8.306 8.306 0 00-.188-1.103 11.626 11.626 0 00-.241-1.064 9.11 9.11 0 00-.265-.866c-.071-.236-.107-.38-.107-.433a.45.45 0 01-.314-.117 2.105 2.105 0 01-.185-.236 1.283 1.283 0 01-.079-.236c-.018-.079-.036-.118-.053-.118a.536.536 0 01-.446-.195.5.5 0 01-.158-.196c-.279 0-.497-.05-.655-.155a.918.918 0 00-.523-.155 5.142 5.142 0 01-1.411.519 2.836 2.836 0 00-1.305.676c-.208.264-.399.514-.572.751-.174.238-.329.501-.468.791-.138.29-.285.606-.44.948-.156.343-.311.75-.465 1.225-.087.21-.147.42-.181.631l-.049.631c.002.395.012.789.031 1.183.037.368.161.788.372 1.26.088.105.158.223.211.354l.106.196.158.197c.035 0 .061.078.079.236.036.131.062.197.08.197l.471-.002c.21.183.376.34.499.47.122.105.236.183.341.235.105.026.218.052.341.078.122.025.279.038.471.037l.314-.001c.122-.027.244-.041.366-.041l.34-.002c.122 0 .27.025.445.077a4.61 4.61 0 00.942-.083 7.13 7.13 0 00.757-.28c.261-.106.531-.2.81-.28.296-.08.653-.134 1.072-.162.104-.053.226-.172.365-.357.156-.21.234-.342.233-.395 0-.079-.044-.118-.131-.118h.131zM169.095 17.661l-.421-.51-1.805.008-1.513.953-.6.397-.548.357-.821-2.204-1.832.009-.466 1.027.004.985.032 6.9.372 1.3.679-.398.418-.002.394.353 1.254-.479-.174-3.784-.053-.079-.007-1.576 1.673-.284.469-.397.314-.001.608 1.298-.398 4.576.342.432 2.721-.013.26-.474-.022-4.731.101-.907-.981-2.756zM179.017 21.559l.68-.043c.087.052.166.091.236.117.07.026.166.039.288.039.07 0 .14-.014.209-.04.087-.028.166-.054.235-.08a1.1 1.1 0 01.314-.042c.139-.027.314-.04.523-.042a.4.4 0 01.183.04l.157-.002h.053c.035 0 .104-.053.208-.159-.087 0-.131-.09-.132-.275 0-.026.009-.105.025-.237a2.26 2.26 0 00.025-.276c-.017 0-.026-.065-.027-.197 0-.105.017-.184.051-.236-.122-.131-.184-.263-.184-.394a1.174 1.174 0 00-.107-.473.605.605 0 01-.235.08l-.262.002a.879.879 0 00-.131-.079.72.72 0 00-.288-.038 5.901 5.901 0 00-.628-.076c-.21-.025-.463-.05-.76-.075a16.107 16.107 0 01-.968-.114l-.282-4.375-.238-.511-1.725.244-.415.909-.062 3.548-.707.003a5.662 5.662 0 00-.654-.036c-.174.08-.27.12-.287.12l-.419.002a.917.917 0 01-.366-.078l-.419.002-.39.515.003.71c.001.262.011.525.03.788.036.262.081.499.134.709.053.183.123.301.211.354l.21.275.393-.002a8.86 8.86 0 01.47-.12c.018-.053.096-.08.235-.08.105-.001.21.012.315.037.122.026.2.052.235.078h.157c.07-.027.14-.04.21-.04l.366-.042-.101.789.023 5.125.115 2.247.292.905.653-.16 2.147.227 1.463-.323c.103-.447.153-.894.151-1.34a6.92 6.92 0 00-.163-1.42l-1.024-.822-.026-5.638zM191.945 24.299c-.036-.236-.115-.42-.238-.55-.123-.132-.184-.316-.185-.552a5.756 5.756 0 01-.368-.195.775.775 0 00-.236-.157 5.005 5.005 0 01-.184-.196.884.884 0 00-.263-.236c-.035 0-.139-.065-.314-.195-.158-.157-.263-.249-.316-.275l-.367-.274a2.355 2.355 0 01-.499-.432.944.944 0 01-.159-.354l-.474-.668c-.07 0-.14-.052-.21-.157-.053-.13-.08-.393-.082-.788-.002-.368.023-.644.075-.828.069-.184.268-.409.598-.673h.053a.447.447 0 00.209-.08c.087-.053.165-.159.234-.317-.001-.052.025-.105.077-.158.053-.052.261-.159.627-.318a.468.468 0 00.209-.04c.052-.053.122-.12.208-.198l.367-.002h.157c.052-.027.113-.054.183-.08-.018 0-.027-.013-.027-.04.018 0 .026-.013.026-.04 0-.025.009-.039.026-.039a.614.614 0 00-.027-.197l-.001-.158-.001-.236c-.002-.394-.072-.617-.212-.67a1.062 1.062 0 01-.315-.313c-.21.053-.393.094-.549.12a1141.33 1141.33 0 00-.785.004.326.326 0 01-.079-.078 2.9 2.9 0 01-.601.278 1.543 1.543 0 00-.574.24l-.992.635a5.73 5.73 0 01-.756.595 2.2 2.2 0 00-.65.752 2.042 2.042 0 01-.416.672c.001.236-.041.42-.128.552-.069.132-.103.29-.103.474.001.053.01.092.027.118.018.026.027.105.027.236.001.106-.007.224-.024.355a.713.713 0 01-.077.277c.001.236.045.499.134.788.106.262.202.42.29.471l.237.315c.175.104.324.222.446.353.123.13.237.274.342.432.106.13.211.262.316.393.123.104.271.17.446.195.245.13.393.248.446.353.07.078.106.157.106.235.018.053.044.119.079.197.035.053.167.157.394.314.001.105.062.25.185.433l.211.314c.053.21.08.407.081.591a.94.94 0 01-.18.592c-.104.132-.235.251-.391.357a1.41 1.41 0 01-.392.16c-.122.026-.183.027-.183 0l-.861.399c-.157.08-.314.12-.471.12-.122 0-.366-.038-.733-.115a.185.185 0 01-.183.12c-.087 0-.2-.04-.34-.118-.123-.078-.175-.104-.158-.078.107.368.152.71.136 1.025-.016.289.019.433.106.433h.027a.48.48 0 00-.052.118.622.622 0 00-.025.198h.026l-.052.04c0 .052.07.143.21.274.158.105.245.157.263.157.331-.054.662-.135.993-.241.331-.107.697-.161 1.098-.163.244-.001.471.037.681.115.209.078.428.116.654.115.332-.001.593-.055.784-.161.209-.106.375-.212.496-.318.122-.132.235-.237.339-.317a.5.5 0 01.365-.159l.548-.397c.191-.158.365-.383.52-.672a2.08 2.08 0 00.257-1.027 5.538 5.538 0 00-.056-.748 14.687 14.687 0 01-.03-.907z"/></g></g><defs><linearGradient id="paint0_linear" x1="35.5" y1="96.078" x2="35.5" y2="100" gradientUnits="userSpaceOnUse"><stop stop-color="#AA9991"/><stop offset="1" stop-color="#826557"/></linearGradient><linearGradient id="paint1_linear" x1="35.5" y1="94.695" x2="35.5" y2="98.617" gradientUnits="userSpaceOnUse"><stop stop-color="#AA9991"/><stop offset="1" stop-color="#826557"/></linearGradient><linearGradient id="paint2_linear" x1="35.5" y1="93.312" x2="35.5" y2="97.234" gradientUnits="userSpaceOnUse"><stop stop-color="#AA9991"/><stop offset="1" stop-color="#826557"/></linearGradient><linearGradient id="paint3_linear" x1="35.5" y1="91.929" x2="35.5" y2="95.852" gradientUnits="userSpaceOnUse"><stop stop-color="#AA9991"/><stop offset="1" stop-color="#826557"/></linearGradient><linearGradient id="paint4_linear" x1="35.5" y1="90.547" x2="35.5" y2="94.469" gradientUnits="userSpaceOnUse"><stop stop-color="#AA9991"/><stop offset="1" stop-color="#826557"/></linearGradient><linearGradient id="paint5_linear" x1="35.5" y1="89.164" x2="35.5" y2="93.086" gradientUnits="userSpaceOnUse"><stop stop-color="#AA9991"/><stop offset="1" stop-color="#826557"/></linearGradient><linearGradient id="paint6_linear" x1="35.5" y1="87.781" x2="35.5" y2="91.703" gradientUnits="userSpaceOnUse"><stop stop-color="#AA9991"/><stop offset="1" stop-color="#826557"/></linearGradient><linearGradient id="paint7_linear" x1="35.5" y1="86.398" x2="35.5" y2="90.32" gradientUnits="userSpaceOnUse"><stop stop-color="#AA9991"/><stop offset="1" stop-color="#826557"/></linearGradient><linearGradient id="paint8_linear" x1="35.5" y1="85.015" x2="35.5" y2="88.938" gradientUnits="userSpaceOnUse"><stop stop-color="#AA9991"/><stop offset="1" stop-color="#826557"/></linearGradient><linearGradient id="paint9_linear" x1="35.5" y1="83.633" x2="35.5" y2="87.555" gradientUnits="userSpaceOnUse"><stop stop-color="#AA9991"/><stop offset="1" stop-color="#826557"/></linearGradient><linearGradient id="paint10_linear" x1="35.5" y1="82.25" x2="35.5" y2="86.172" gradientUnits="userSpaceOnUse"><stop stop-color="#AA9991"/><stop offset="1" stop-color="#826557"/></linearGradient><linearGradient id="paint11_linear" x1="35.5" y1="80.867" x2="35.5" y2="84.789" gradientUnits="userSpaceOnUse"><stop stop-color="#AA9991"/><stop offset="1" stop-color="#826557"/></linearGradient><linearGradient id="paint12_linear" x1="35.5" y1="79.484" x2="35.5" y2="83.406" gradientUnits="userSpaceOnUse"><stop stop-color="#AA9991"/><stop offset="1" stop-color="#826557"/></linearGradient><linearGradient id="paint13_linear" x1="35.5" y1="78.101" x2="35.5" y2="82.023" gradientUnits="userSpaceOnUse"><stop stop-color="#AA9991"/><stop offset="1" stop-color="#826557"/></linearGradient><linearGradient id="paint14_linear" x1="35.5" y1="76.719" x2="35.5" y2="80.641" gradientUnits="userSpaceOnUse"><stop stop-color="#AA9991"/><stop offset="1" stop-color="#826557"/></linearGradient><linearGradient id="paint15_linear" x1="35.5" y1="75.336" x2="35.5" y2="79.258" gradientUnits="userSpaceOnUse"><stop stop-color="#AA9991"/><stop offset="1" stop-color="#826557"/></linearGradient><linearGradient id="paint16_linear" x1="35.5" y1="73.953" x2="35.5" y2="77.875" gradientUnits="userSpaceOnUse"><stop stop-color="#AA9991"/><stop offset="1" stop-color="#826557"/></linearGradient><linearGradient id="paint17_linear" x1="35.5" y1="72.57" x2="35.5" y2="76.492" gradientUnits="userSpaceOnUse"><stop stop-color="#AA9991"/><stop offset="1" stop-color="#826557"/></linearGradient><linearGradient id="paint18_linear" x1="35.5" y1="71.187" x2="35.5" y2="75.109" gradientUnits="userSpaceOnUse"><stop stop-color="#AA9991"/><stop offset="1" stop-color="#826557"/></linearGradient><linearGradient id="paint19_linear" x1="35.5" y1="69.804" x2="35.5" y2="73.727" gradientUnits="userSpaceOnUse"><stop stop-color="#AA9991"/><stop offset="1" stop-color="#826557"/></linearGradient><linearGradient id="paint20_linear" x1="35.5" y1="68.422" x2="35.5" y2="72.344" gradientUnits="userSpaceOnUse"><stop stop-color="#AA9991"/><stop offset="1" stop-color="#826557"/></linearGradient><linearGradient id="paint21_linear" x1="35.5" y1="67.039" x2="35.5" y2="70.961" gradientUnits="userSpaceOnUse"><stop stop-color="#AA9991"/><stop offset="1" stop-color="#826557"/></linearGradient><linearGradient id="paint22_linear" x1="35.5" y1="65.656" x2="35.5" y2="69.578" gradientUnits="userSpaceOnUse"><stop stop-color="#AA9991"/><stop offset="1" stop-color="#826557"/></linearGradient><linearGradient id="paint23_linear" x1="35.5" y1="64.273" x2="35.5" y2="68.195" gradientUnits="userSpaceOnUse"><stop stop-color="#AA9991"/><stop offset="1" stop-color="#826557"/></linearGradient><linearGradient id="paint24_linear" x1="35.5" y1="62.89" x2="35.5" y2="66.813" gradientUnits="userSpaceOnUse"><stop stop-color="#AA9991"/><stop offset="1" stop-color="#826557"/></linearGradient><linearGradient id="paint25_linear" x1="35.5" y1="61.508" x2="35.5" y2="65.43" gradientUnits="userSpaceOnUse"><stop stop-color="#AA9991"/><stop offset="1" stop-color="#826557"/></linearGradient><linearGradient id="paint26_linear" x1="35.5" y1="60.125" x2="35.5" y2="64.047" gradientUnits="userSpaceOnUse"><stop stop-color="#AA9991"/><stop offset="1" stop-color="#826557"/></linearGradient><linearGradient id="paint27_linear" x1="35.5" y1="58.742" x2="35.5" y2="62.664" gradientUnits="userSpaceOnUse"><stop stop-color="#AA9991"/><stop offset="1" stop-color="#826557"/></linearGradient><linearGradient id="paint28_linear" x1="35.5" y1="57.359" x2="35.5" y2="61.282" gradientUnits="userSpaceOnUse"><stop stop-color="#AA9991"/><stop offset="1" stop-color="#826557"/></linearGradient><linearGradient id="paint29_linear" x1="35.5" y1="55.977" x2="35.5" y2="59.899" gradientUnits="userSpaceOnUse"><stop stop-color="#AA9991"/><stop offset="1" stop-color="#826557"/></linearGradient><linearGradient id="paint30_linear" x1="35.5" y1="54.594" x2="35.5" y2="58.516" gradientUnits="userSpaceOnUse"><stop stop-color="#AA9991"/><stop offset="1" stop-color="#826557"/></linearGradient><linearGradient id="paint31_linear" x1="35.5" y1="53.211" x2="35.5" y2="57.133" gradientUnits="userSpaceOnUse"><stop stop-color="#AA9991"/><stop offset="1" stop-color="#826557"/></linearGradient><linearGradient id="paint32_linear" x1="35.5" y1="51.828" x2="35.5" y2="55.75" gradientUnits="userSpaceOnUse"><stop stop-color="#AA9991"/><stop offset="1" stop-color="#826557"/></linearGradient><linearGradient id="paint33_linear" x1="35.5" y1="50.445" x2="35.5" y2="54.367" gradientUnits="userSpaceOnUse"><stop stop-color="#AA9991"/><stop offset="1" stop-color="#826557"/></linearGradient><linearGradient id="paint34_linear" x1="35.5" y1="49.063" x2="35.5" y2="52.985" gradientUnits="userSpaceOnUse"><stop stop-color="#AA9991"/><stop offset="1" stop-color="#826557"/></linearGradient><linearGradient id="paint35_linear" x1="35.5" y1="47.68" x2="35.5" y2="51.602" gradientUnits="userSpaceOnUse"><stop stop-color="#AA9991"/><stop offset="1" stop-color="#826557"/></linearGradient><linearGradient id="paint36_linear" x1="35.5" y1="46.297" x2="35.5" y2="50.219" gradientUnits="userSpaceOnUse"><stop stop-color="#AA9991"/><stop offset="1" stop-color="#826557"/></linearGradient><linearGradient id="paint37_linear" x1="35.5" y1="44.914" x2="35.5" y2="48.836" gradientUnits="userSpaceOnUse"><stop stop-color="#AA9991"/><stop offset="1" stop-color="#826557"/></linearGradient><linearGradient id="paint38_linear" x1="35.5" y1="43.531" x2="35.5" y2="47.453" gradientUnits="userSpaceOnUse"><stop stop-color="#AA9991"/><stop offset="1" stop-color="#826557"/></linearGradient><linearGradient id="paint39_linear" x1="35.5" y1="42.148" x2="35.5" y2="46.071" gradientUnits="userSpaceOnUse"><stop stop-color="#AA9991"/><stop offset="1" stop-color="#826557"/></linearGradient><linearGradient id="paint40_linear" x1="35.5" y1="40.766" x2="35.5" y2="44.688" gradientUnits="userSpaceOnUse"><stop stop-color="#AA9991"/><stop offset="1" stop-color="#826557"/></linearGradient><linearGradient id="paint41_linear" x1="35.5" y1="39.383" x2="35.5" y2="43.305" gradientUnits="userSpaceOnUse"><stop stop-color="#AA9991"/><stop offset="1" stop-color="#826557"/></linearGradient><linearGradient id="paint42_linear" x1="35.5" y1="38" x2="35.5" y2="41.922" gradientUnits="userSpaceOnUse"><stop stop-color="#AA9991"/><stop offset="1" stop-color="#826557"/></linearGradient><linearGradient id="paint43_linear" x1="237.5" y1="98.078" x2="237.5" y2="102" gradientUnits="userSpaceOnUse"><stop stop-color="#AA9991"/><stop offset="1" stop-color="#826557"/></linearGradient><linearGradient id="paint44_linear" x1="237.5" y1="96.695" x2="237.5" y2="100.617" gradientUnits="userSpaceOnUse"><stop stop-color="#AA9991"/><stop offset="1" stop-color="#826557"/></linearGradient><linearGradient id="paint45_linear" x1="237.5" y1="95.312" x2="237.5" y2="99.234" gradientUnits="userSpaceOnUse"><stop stop-color="#AA9991"/><stop offset="1" stop-color="#826557"/></linearGradient><linearGradient id="paint46_linear" x1="237.5" y1="93.929" x2="237.5" y2="97.852" gradientUnits="userSpaceOnUse"><stop stop-color="#AA9991"/><stop offset="1" stop-color="#826557"/></linearGradient><linearGradient id="paint47_linear" x1="237.5" y1="92.547" x2="237.5" y2="96.469" gradientUnits="userSpaceOnUse"><stop stop-color="#AA9991"/><stop offset="1" stop-color="#826557"/></linearGradient><linearGradient id="paint48_linear" x1="237.5" y1="91.164" x2="237.5" y2="95.086" gradientUnits="userSpaceOnUse"><stop stop-color="#AA9991"/><stop offset="1" stop-color="#826557"/></linearGradient><linearGradient id="paint49_linear" x1="237.5" y1="89.781" x2="237.5" y2="93.703" gradientUnits="userSpaceOnUse"><stop stop-color="#AA9991"/><stop offset="1" stop-color="#826557"/></linearGradient><linearGradient id="paint50_linear" x1="237.5" y1="88.398" x2="237.5" y2="92.32" gradientUnits="userSpaceOnUse"><stop stop-color="#AA9991"/><stop offset="1" stop-color="#826557"/></linearGradient><linearGradient id="paint51_linear" x1="237.5" y1="87.015" x2="237.5" y2="90.938" gradientUnits="userSpaceOnUse"><stop stop-color="#AA9991"/><stop offset="1" stop-color="#826557"/></linearGradient><linearGradient id="paint52_linear" x1="237.5" y1="85.633" x2="237.5" y2="89.555" gradientUnits="userSpaceOnUse"><stop stop-color="#AA9991"/><stop offset="1" stop-color="#826557"/></linearGradient><linearGradient id="paint53_linear" x1="237.5" y1="84.25" x2="237.5" y2="88.172" gradientUnits="userSpaceOnUse"><stop stop-color="#AA9991"/><stop offset="1" stop-color="#826557"/></linearGradient><linearGradient id="paint54_linear" x1="237.5" y1="82.867" x2="237.5" y2="86.789" gradientUnits="userSpaceOnUse"><stop stop-color="#AA9991"/><stop offset="1" stop-color="#826557"/></linearGradient><linearGradient id="paint55_linear" x1="237.5" y1="81.484" x2="237.5" y2="85.406" gradientUnits="userSpaceOnUse"><stop stop-color="#AA9991"/><stop offset="1" stop-color="#826557"/></linearGradient><linearGradient id="paint56_linear" x1="237.5" y1="80.101" x2="237.5" y2="84.023" gradientUnits="userSpaceOnUse"><stop stop-color="#AA9991"/><stop offset="1" stop-color="#826557"/></linearGradient><linearGradient id="paint57_linear" x1="237.5" y1="78.719" x2="237.5" y2="82.641" gradientUnits="userSpaceOnUse"><stop stop-color="#AA9991"/><stop offset="1" stop-color="#826557"/></linearGradient><linearGradient id="paint58_linear" x1="237.5" y1="77.336" x2="237.5" y2="81.258" gradientUnits="userSpaceOnUse"><stop stop-color="#AA9991"/><stop offset="1" stop-color="#826557"/></linearGradient><linearGradient id="paint59_linear" x1="237.5" y1="75.953" x2="237.5" y2="79.875" gradientUnits="userSpaceOnUse"><stop stop-color="#AA9991"/><stop offset="1" stop-color="#826557"/></linearGradient><linearGradient id="paint60_linear" x1="237.5" y1="74.57" x2="237.5" y2="78.492" gradientUnits="userSpaceOnUse"><stop stop-color="#AA9991"/><stop offset="1" stop-color="#826557"/></linearGradient><linearGradient id="paint61_linear" x1="237.5" y1="73.187" x2="237.5" y2="77.109" gradientUnits="userSpaceOnUse"><stop stop-color="#AA9991"/><stop offset="1" stop-color="#826557"/></linearGradient><linearGradient id="paint62_linear" x1="237.5" y1="71.804" x2="237.5" y2="75.727" gradientUnits="userSpaceOnUse"><stop stop-color="#AA9991"/><stop offset="1" stop-color="#826557"/></linearGradient><linearGradient id="paint63_linear" x1="237.5" y1="70.422" x2="237.5" y2="74.344" gradientUnits="userSpaceOnUse"><stop stop-color="#AA9991"/><stop offset="1" stop-color="#826557"/></linearGradient><linearGradient id="paint64_linear" x1="237.5" y1="69.039" x2="237.5" y2="72.961" gradientUnits="userSpaceOnUse"><stop stop-color="#AA9991"/><stop offset="1" stop-color="#826557"/></linearGradient><linearGradient id="paint65_linear" x1="237.5" y1="67.656" x2="237.5" y2="71.578" gradientUnits="userSpaceOnUse"><stop stop-color="#AA9991"/><stop offset="1" stop-color="#826557"/></linearGradient><linearGradient id="paint66_linear" x1="237.5" y1="66.273" x2="237.5" y2="70.195" gradientUnits="userSpaceOnUse"><stop stop-color="#AA9991"/><stop offset="1" stop-color="#826557"/></linearGradient><linearGradient id="paint67_linear" x1="237.5" y1="64.89" x2="237.5" y2="68.813" gradientUnits="userSpaceOnUse"><stop stop-color="#AA9991"/><stop offset="1" stop-color="#826557"/></linearGradient><linearGradient id="paint68_linear" x1="237.5" y1="63.508" x2="237.5" y2="67.43" gradientUnits="userSpaceOnUse"><stop stop-color="#AA9991"/><stop offset="1" stop-color="#826557"/></linearGradient><linearGradient id="paint69_linear" x1="237.5" y1="62.125" x2="237.5" y2="66.047" gradientUnits="userSpaceOnUse"><stop stop-color="#AA9991"/><stop offset="1" stop-color="#826557"/></linearGradient><linearGradient id="paint70_linear" x1="237.5" y1="60.742" x2="237.5" y2="64.664" gradientUnits="userSpaceOnUse"><stop stop-color="#AA9991"/><stop offset="1" stop-color="#826557"/></linearGradient><linearGradient id="paint71_linear" x1="237.5" y1="59.359" x2="237.5" y2="63.282" gradientUnits="userSpaceOnUse"><stop stop-color="#AA9991"/><stop offset="1" stop-color="#826557"/></linearGradient><linearGradient id="paint72_linear" x1="237.5" y1="57.977" x2="237.5" y2="61.899" gradientUnits="userSpaceOnUse"><stop stop-color="#AA9991"/><stop offset="1" stop-color="#826557"/></linearGradient><linearGradient id="paint73_linear" x1="237.5" y1="56.594" x2="237.5" y2="60.516" gradientUnits="userSpaceOnUse"><stop stop-color="#AA9991"/><stop offset="1" stop-color="#826557"/></linearGradient><linearGradient id="paint74_linear" x1="237.5" y1="55.211" x2="237.5" y2="59.133" gradientUnits="userSpaceOnUse"><stop stop-color="#AA9991"/><stop offset="1" stop-color="#826557"/></linearGradient><linearGradient id="paint75_linear" x1="237.5" y1="53.828" x2="237.5" y2="57.75" gradientUnits="userSpaceOnUse"><stop stop-color="#AA9991"/><stop offset="1" stop-color="#826557"/></linearGradient><linearGradient id="paint76_linear" x1="237.5" y1="52.445" x2="237.5" y2="56.367" gradientUnits="userSpaceOnUse"><stop stop-color="#AA9991"/><stop offset="1" stop-color="#826557"/></linearGradient><linearGradient id="paint77_linear" x1="237.5" y1="51.063" x2="237.5" y2="54.985" gradientUnits="userSpaceOnUse"><stop stop-color="#AA9991"/><stop offset="1" stop-color="#826557"/></linearGradient><linearGradient id="paint78_linear" x1="237.5" y1="49.68" x2="237.5" y2="53.602" gradientUnits="userSpaceOnUse"><stop stop-color="#AA9991"/><stop offset="1" stop-color="#826557"/></linearGradient><linearGradient id="paint79_linear" x1="237.5" y1="48.297" x2="237.5" y2="52.219" gradientUnits="userSpaceOnUse"><stop stop-color="#AA9991"/><stop offset="1" stop-color="#826557"/></linearGradient><linearGradient id="paint80_linear" x1="237.5" y1="46.914" x2="237.5" y2="50.836" gradientUnits="userSpaceOnUse"><stop stop-color="#AA9991"/><stop offset="1" stop-color="#826557"/></linearGradient><linearGradient id="paint81_linear" x1="237.5" y1="45.531" x2="237.5" y2="49.453" gradientUnits="userSpaceOnUse"><stop stop-color="#AA9991"/><stop offset="1" stop-color="#826557"/></linearGradient><linearGradient id="paint82_linear" x1="237.5" y1="44.148" x2="237.5" y2="48.071" gradientUnits="userSpaceOnUse"><stop stop-color="#AA9991"/><stop offset="1" stop-color="#826557"/></linearGradient><linearGradient id="paint83_linear" x1="237.5" y1="42.766" x2="237.5" y2="46.688" gradientUnits="userSpaceOnUse"><stop stop-color="#AA9991"/><stop offset="1" stop-color="#826557"/></linearGradient><linearGradient id="paint84_linear" x1="237.5" y1="41.383" x2="237.5" y2="45.305" gradientUnits="userSpaceOnUse"><stop stop-color="#AA9991"/><stop offset="1" stop-color="#826557"/></linearGradient><linearGradient id="paint85_linear" x1="237.5" y1="40" x2="237.5" y2="43.922" gradientUnits="userSpaceOnUse"><stop stop-color="#AA9991"/><stop offset="1" stop-color="#826557"/></linearGradient><filter id="filter0_i" x="37" y="152" width="227" height="26" filterUnits="userSpaceOnUse" color-interpolation-filters="sRGB"><feFlood flood-opacity="0" result="BackgroundImageFix"/><feBlend in="SourceGraphic" in2="BackgroundImageFix" result="shape"/><feColorMatrix in="SourceAlpha" values="0 0 0 0 0 0 0 0 0 0 0 0 0 0 0 0 0 0 127 0" result="hardAlpha"/><feOffset dy="1"/><feGaussianBlur stdDeviation=".5"/><feComposite in2="hardAlpha" operator="arithmetic" k2="-1" k3="1"/><feColorMatrix values="0 0 0 0 0 0 0 0 0 0 0 0 0 0 0 0 0 0 0.3 0"/><feBlend in2="shape" result="effect1_innerShadow"/></filter><filter id="filter1_i" x="69" y="107" width="169" height="40" filterUnits="userSpaceOnUse" color-interpolation-filters="sRGB"><feFlood flood-opacity="0" result="BackgroundImageFix"/><feBlend in="SourceGraphic" in2="BackgroundImageFix" result="shape"/><feColorMatrix in="SourceAlpha" values="0 0 0 0 0 0 0 0 0 0 0 0 0 0 0 0 0 0 127 0" result="hardAlpha"/><feOffset dy="1"/><feGaussianBlur stdDeviation=".5"/><feComposite in2="hardAlpha" operator="arithmetic" k2="-1" k3="1"/><feColorMatrix values="0 0 0 0 0 0 0 0 0 0 0 0 0 0 0 0 0 0 0.3 0"/><feBlend in2="shape" result="effect1_innerShadow"/></filter><filter id="filter2_d" x="5.279" y=".516" width="270.073" height="53.13" filterUnits="userSpaceOnUse" color-interpolation-filters="sRGB"><feFlood flood-opacity="0" result="BackgroundImageFix"/><feColorMatrix in="SourceAlpha" values="0 0 0 0 0 0 0 0 0 0 0 0 0 0 0 0 0 0 127 0"/><feOffset dy="4"/><feGaussianBlur stdDeviation="2"/><feColorMatrix values="0 0 0 0 0 0 0 0 0 0 0 0 0 0 0 0 0 0 0.25 0"/><feBlend in2="BackgroundImageFix" result="effect1_dropShadow"/><feBlend in="SourceGraphic" in2="effect1_dropShadow" result="shape"/></filter><filter id="filter3_i" x="79.078" y="11.407" width="112.978" height="21.543" filterUnits="userSpaceOnUse" color-interpolation-filters="sRGB"><feFlood flood-opacity="0" result="BackgroundImageFix"/><feBlend in="SourceGraphic" in2="BackgroundImageFix" result="shape"/><feColorMatrix in="SourceAlpha" values="0 0 0 0 0 0 0 0 0 0 0 0 0 0 0 0 0 0 127 0" result="hardAlpha"/><feOffset dy="1"/><feGaussianBlur stdDeviation=".5"/><feComposite in2="hardAlpha" operator="arithmetic" k2="-1" k3="1"/><feColorMatrix values="0 0 0 0 0 0 0 0 0 0 0 0 0 0 0 0 0 0 0.3 0"/><feBlend in2="shape" result="effect1_innerShadow"/></filter></defs></svg>